<svg width="32" height="32" viewBox="0 0 32 32" fill="none" xmlns="http://www.w3.org/2000/svg">
<g id="500px">
<path id="Vector" d="M26.1992 12.832C22.875 12.832 20.9102 15.9844 20.7852 15.9844C20.6602 15.9844 18.707 12.832 15.3555 12.832C12.0078 12.832 11.0508 15.9844 10.9492 15.9844C10.8477 15.9844 10.0781 13.3984 7.18359 13.3984C4.83984 13.3984 4.51172 14.4766 4.3125 14.4766C4.3125 14.4766 4.48828 13.3203 4.83984 11.2617H10.6211V9H2.80078L1.48047 16.5742H4.01172C4.01172 16.5742 4.58984 15.5078 6.125 15.5078C7.66016 15.5078 8.59375 16.6875 8.59375 18.0195C8.59375 19.3477 7.5625 20.8047 6.125 20.8047C4.69141 20.8047 3.85937 19.5742 3.85937 18.7227C2.67578 18.7227 1.03906 18.7227 1.03906 18.7227C1.03906 19.4766 1.64453 23 6.125 23C9.77734 23 10.9492 20.2773 10.9492 19.9531C10.9492 20.2266 12.3594 23 15.3594 23C18.8359 23 20.5859 19.9531 20.7852 19.9531C20.9883 19.9531 23.0547 23 26.2031 23C29.3516 23 30.9648 20.2266 30.9648 17.8906C30.9609 15.5547 29.5273 12.832 26.1992 12.832ZM19.1055 17.9375H19.1016C19.082 17.9648 17.1562 20.3008 15.3711 20.3008C13.5781 20.3008 13.2461 18.5156 13.2461 17.9375C13.2461 17.3594 13.5781 15.5742 15.3711 15.5742C17.1562 15.5742 19.082 17.9102 19.1016 17.9375H19.1055ZM28.3477 17.9375C28.3477 18.5156 28.0156 20.3047 26.2227 20.3047C24.4414 20.3047 22.5156 17.9688 22.4922 17.9414V17.9375C22.5156 17.9102 24.4414 15.5742 26.2227 15.5742C28.0156 15.5742 28.3477 17.3633 28.3477 17.9375Z" fill="black"/>
</g>
</svg>
