<svg width="32" height="32" viewBox="0 0 32 32" fill="none" xmlns="http://www.w3.org/2000/svg">
<g id="accessible-icon">
<path id="Vector" d="M24 4C22.3555 4 21 5.35547 21 7C21 8.64453 22.3555 10 24 10C25.6445 10 27 8.64453 27 7C27 5.35547 25.6445 4 24 4ZM24 6C24.5625 6 25 6.4375 25 7C25 7.5625 24.5625 8 24 8C23.4375 8 23 7.5625 23 7C23 6.4375 23.4375 6 24 6ZM18.5625 9.03125L14.9688 9.4375C14.3984 9.50391 13.9219 9.84375 13.5938 10.3125L13.5625 10.2812L13.5312 10.3438L11.2188 13.4062L12.7812 14.5938L15.1562 11.5L15.2188 11.4375L17.4062 11.1875L15.7188 15.0312C13.4648 15.1211 11.4648 16.2617 10.25 18H13.0312C13.8633 17.3789 14.8867 17 16 17C18.7578 17 21 19.2422 21 22C21 24.7578 18.7578 27 16 27C14.3711 27 12.9453 26.207 12.0312 25H9.6875C10.8125 27.3594 13.2148 29 16 29C19.8594 29 23 25.8594 23 22C23 21.6602 22.9531 21.3281 22.9062 21H24.875L23.3438 26.75L25.2812 27.25L26.9375 21.0312L27 20.8125L26.9688 20.5625C26.7695 19.6484 25.9336 19 25 19H22.3125C22.0195 18.3867 21.6367 17.8438 21.1875 17.3438L22.8125 13.9375L22.8438 13.875V13.8438C23.3477 12.4492 22.7422 10.8867 21.4375 10.1875L19.75 9.25V9.28125C19.3906 9.08984 18.9648 8.98438 18.5625 9.03125ZM19.4688 11.375L20.5 11.9375C20.9453 12.1758 21.1406 12.6836 20.9688 13.1562L19.5938 16C19.0352 15.6641 18.4297 15.4219 17.7812 15.25L19.4688 11.375ZM7 19V21H14V19H7ZM4 22V24H17V22H4Z" fill="black"/>
</g>
</svg>
