<svg width="32" height="32" viewBox="0 0 32 32" fill="none" xmlns="http://www.w3.org/2000/svg">
<g id="accusoft">
<g clip-path="url(#clip0)">
<path id="Vector" d="M18.7402 6C18.2182 6 12.7802 6.0222 12.2832 6.0332C11.2882 6.0332 10.5761 6.02289 11.2871 6.83789C11.6891 7.28289 23.8456 21.0832 24.1426 21.4082C24.8296 22.1802 25.2212 22.0385 25.7422 21.8535C25.9072 21.7995 31.7238 19.5943 31.8418 19.5293C32.2558 19.3233 31.7586 18.7362 31.4746 18.4102C31.3676 18.3022 20.8485 6.73937 20.7305 6.60938C20.2325 6.03338 19.9962 6 18.7402 6ZM13.4551 13C13.4551 13 12.8548 13.0774 12.2168 13.7344C11.7628 14.1724 0.191039 24.6171 0.123039 24.7051C-0.228961 25.1871 0.204195 25.034 0.908195 24.793C0.942195 24.793 5.65038 23.3105 5.65038 23.3105C5.68438 23.2775 5.64959 23.2993 5.68359 23.2773C5.66159 23.0363 5.64966 22.0308 5.63866 21.9648C5.60466 21.7128 5.74246 21.6351 5.98046 21.5371L11.5156 19.582C11.5496 19.549 15.921 16.1415 16 16.0645V16.0098L13.4551 13ZM15.7754 20C15.6244 20.011 15.2889 20.0446 15.0449 20.1426C14.8019 20.2406 7.68077 22.3759 7.42577 22.4629C7.17077 22.5609 6.84541 22.6373 6.85741 22.8223C6.86941 22.9423 6.96255 22.954 7.10155 22.998C7.22855 23.03 22.3626 26.6447 22.7226 26.7207C23.5116 26.8727 24.6705 27.2219 25.4355 26.7969C25.5515 26.7419 31.7222 22.7232 31.8262 22.6582C32.0932 22.4622 32.0454 22.3326 31.7324 22.2676C31.6164 22.2566 30.4926 22.12 29.8086 22C29.8086 22 23.9747 24.3288 23.8457 24.3828C23.0347 24.7318 22.4772 24.2286 21.9902 23.6836L19.0918 20.4473C18.8128 20.4043 16.0304 19.989 15.7754 20Z" fill="black"/>
</g>
</g>
<defs>
<clipPath id="clip0">
<rect width="32" height="32" fill="white"/>
</clipPath>
</defs>
</svg>
