<svg width="32" height="32" viewBox="0 0 32 32" fill="none" xmlns="http://www.w3.org/2000/svg">
<g id="acquisitions-incorporated">
<path id="Vector" d="M7.24804 3C7.06004 3 6.97181 3.05653 7.00781 3.26953C7.12281 3.93953 6.96579 3.30936 7.34179 5.56836C10.6488 5.56836 11.0873 5.61475 12.6523 5.59375C13.2943 5.58375 14.5821 5.7728 14.6191 6.7168C14.6401 7.2958 14.562 7.28934 12.918 11.1523C10.111 17.7413 10.2722 17.2602 9.40625 19.3262C9.31825 19.5342 9.22071 19.5898 9.01171 19.5898C8.56871 19.5798 8.12354 19.5757 7.68554 19.5957C7.58654 19.6007 7.41443 19.6868 7.39843 19.7578C7.32143 20.1628 7.28537 20.571 7.23437 21H13V19.6191C12.64 19.6191 11.4475 19.6397 11.3535 19.4727C11.6295 18.8487 11.8959 18.2334 12.1719 17.6094C13.0219 17.8124 13.9525 18.0051 14.7715 18.2031C14.9485 18.2491 15.0117 18.3558 15.0117 18.5488C15.0067 20.7268 15.0165 22.9099 15.0215 25.0879C15.0215 25.6059 14.7341 26.0587 14.2441 26.2617C13.9051 26.3987 13.9559 26.4338 7.79492 26.3828C7.51892 26.3828 7.42443 26.4855 7.39843 26.7285C7.32043 27.3835 7.24867 28.0423 7.13867 28.6973C7.09667 28.9513 7.20606 28.9863 7.41406 28.9863C16.9711 29.0163 5.81104 28.9863 24.998 28.9863C24.868 28.2253 24.7683 27.4955 24.6543 26.7695C24.5923 26.3775 24.5873 26.3828 24.1543 26.3828C18.9483 26.3928 18.1232 26.26 18.0762 26.25C17.4342 26.164 17.0015 25.7162 16.9805 25.0762C16.9755 24.9952 16.9697 21.4424 16.9277 18.5234C16.9227 18.2844 17.0113 18.1986 17.2363 18.1426C17.8883 17.9906 18.7358 17.8324 19.3828 17.6504C19.6068 17.5844 19.7373 17.6401 19.8203 17.8281C20.0553 18.3511 20.2798 18.8735 20.5098 19.3965C20.5928 19.5845 20.514 19.6191 20.332 19.6191C19.81 19.6091 19.5439 19.6152 19.0019 19.6152V20.9863H24.7988C24.7258 20.5043 24.6578 20.0668 24.5898 19.5898C24.2248 19.5898 23.8694 19.6109 23.5254 19.5859C22.3464 19.5049 22.5696 19.3612 19.1426 11.5332C18.6836 10.5132 17.6873 8.38186 17.2383 7.00586C17.0093 6.29486 17.5256 5.71725 18.2246 5.65625C19.1946 5.57025 20.1802 5.57569 21.1562 5.55469C22.2312 5.53469 23.3059 5.5343 24.3809 5.5293C24.5429 5.5293 24.5905 5.45755 24.6055 5.31055C24.6685 4.81355 24.7464 4.32012 24.8144 3.82812C24.8564 3.55913 24.8974 3.28572 24.9394 3.01172L7.24804 3ZM15.8242 8.83789C16.2152 8.95989 16.2364 8.79689 16.3144 8.83789C16.7994 9.97989 17.2577 11.889 17.7227 13.041C18.0667 13.889 18.4019 14.742 18.7519 15.625C18.6869 15.665 18.6188 15.7004 18.5488 15.7324C17.8658 15.9304 17.1702 16.1132 16.4922 16.3262C16.1802 16.4322 15.8422 16.4322 15.5312 16.3262C14.8372 16.1132 14.1442 15.9104 13.4512 15.6914C13.3472 15.6494 13.2454 15.6009 13.1484 15.5449C14.0454 13.2959 14.9322 11.0719 15.8242 8.83789Z" fill="black"/>
</g>
</svg>
