<svg width="32" height="32" viewBox="0 0 32 32" fill="none" xmlns="http://www.w3.org/2000/svg">
<g id="ad-solid">
<path id="Vector" d="M2 7V25H30V7H2ZM4 9H28V23H4V9ZM11.7188 11L11.5 11.6875L9.03125 19.4062L9 19.5625V21H11V20H14V21H16V19.5625L15.9688 19.4062L13.5 11.6875L13.2812 11H11.7188ZM21 11V15H19.5C18.133 15 17 16.133 17 17.5V18.5C17 19.867 18.133 21 19.5 21H23V11H21ZM12.5 15.1562L13.4062 18H11.5938L12.5 15.1562ZM19.5 17H21V19H19.5C19.215 19 19 18.785 19 18.5V17.5C19 17.215 19.215 17 19.5 17Z" fill="black"/>
</g>
</svg>
