<svg width="32" height="32" viewBox="0 0 32 32" fill="none" xmlns="http://www.w3.org/2000/svg">
<g id="address-book">
<path id="Vector" d="M6 4V9H5V11H8V6H24V26H8V23H6V28H26V4H6ZM16 10C13.8008 10 12 11.8008 12 14C12 15.1133 12.4766 16.1172 13.2188 16.8438C11.8867 17.7461 11 19.2852 11 21H13C13 19.3438 14.3438 18 16 18C17.6562 18 19 19.3438 19 21H21C21 19.2852 20.1133 17.7461 18.7812 16.8438C19.5234 16.1172 20 15.1133 20 14C20 11.8008 18.1992 10 16 10ZM6 12V14H5V16H8V12H6ZM16 12C17.1172 12 18 12.8828 18 14C18 15.1172 17.1172 16 16 16C14.8828 16 14 15.1172 14 14C14 12.8828 14.8828 12 16 12ZM6 17V19H5V21H8V17H6Z" fill="black"/>
</g>
</svg>
