<svg width="32" height="32" viewBox="0 0 32 32" fill="none" xmlns="http://www.w3.org/2000/svg">
<g id="adn">
<path id="Vector" d="M16 4C9.38281 4 4 9.38281 4 16C4 22.6172 9.38281 28 16 28C22.6172 28 28 22.6172 28 16C28 9.38281 22.6172 4 16 4ZM16 6C21.5352 6 26 10.4648 26 16C26 21.5352 21.5352 26 16 26C10.4648 26 6 21.5352 6 16C6 10.4648 10.4648 6 16 6ZM16 9.9375L9.40625 19.8438H11L12.5312 17.5312H19.4688L21.0312 19.8438H22.625L16 9.9375ZM16 12.3438L18.8438 16.5938H13.1562L16 12.3438Z" fill="black"/>
</g>
</svg>
