<svg width="32" height="32" viewBox="0 0 32 32" fill="none" xmlns="http://www.w3.org/2000/svg">
<g id="adversal">
<path id="Vector" d="M5.3457 5C4.2727 5 4 5.27747 4 6.35547V24.6465C4 25.7375 4.2727 26 5.3457 26H26.5977C27.7417 26 28 25.7554 28 24.6074V6.41602C28 5.26202 27.7467 5 26.5977 5H5.3457ZM24.9316 7.08594C25.0736 7.08594 25.235 7.10394 25.377 7.08594C25.84 7.04994 26 7.28623 26 7.74023C25.995 7.74923 25.9941 7.75467 25.9941 7.76367H26V21.1094C26 21.3704 25.962 21.7461 25.623 21.7461C25.054 21.7281 24.3638 22.0732 23.9688 21.4902C23.7027 21.0912 23.6094 21.3075 23.3984 21.4355C20.9494 22.7975 17.5243 21.7603 16.7773 17.5273C16.4973 15.9953 16.7441 14.4504 17.4961 12.9414C18.0371 11.8454 20.1063 9.45197 23.7383 11.543V8.28711C23.7383 7.08511 23.7346 7.08594 24.9316 7.08594ZM10.8477 10.6758C11.8084 10.6437 12.7739 10.8334 13.7344 11.2324C15.6114 12.0024 15 13.946 15 17.125C15.124 18.308 14.8037 19.7993 15.4277 21.1973C15.5147 21.3993 15.4447 21.5585 15.3027 21.6875C14.9177 21.9945 13.8194 21.7896 13.4844 21.3496C13.3974 21.2486 13.4007 21.1835 13.3047 21.0645C13.1397 20.8855 12.9708 20.9643 12.7598 21.1113C10.1278 22.7803 6.32558 22.092 6.01758 19.125C5.87558 17.781 6.58503 16.5061 7.83203 15.8691C9.58403 14.9751 12.7861 15.3272 12.8691 14.4512C12.9201 13.9822 12.7826 13.5292 12.3516 13.1992C11.0906 12.2732 9.23664 12.7995 8.68164 14.2715C8.48464 14.7805 8.25491 14.7073 7.87891 14.6523C7.43391 14.5833 7.09066 14.5054 6.84766 14.4004C5.52666 13.8774 7.24028 11.8642 7.98828 11.4512C8.93078 10.9607 9.88691 10.7079 10.8477 10.6758ZM21.3086 13.0039C20.5952 13.0394 19.9116 13.4354 19.5391 14.1914C18.8131 15.6674 18.8315 17.2144 19.5215 18.6914C20.3035 20.3804 22.7438 20.5719 23.6348 18.4609C23.9448 17.7289 24.2057 15.2545 23.2637 13.9785C22.7657 13.2935 22.022 12.9684 21.3086 13.0039ZM12.8672 17.0137C12.8169 16.9963 12.7465 16.9958 12.6465 17.0176C11.5485 17.2276 10.4281 17.4002 9.33008 17.6582C8.79008 17.7802 8.42145 18.1782 8.43945 18.7852C8.47045 19.8552 9.61808 19.943 9.95508 20C11.8221 20.017 13.061 18.8726 12.998 17.4316C12.9845 17.2644 13.0179 17.0659 12.8672 17.0137ZM6.29297 23.0059C6.45234 22.9806 6.64773 23.0371 6.80273 23.0371C13.0047 23.0181 19.0207 23.0123 25.2227 23.0312C25.5407 23.0312 26 22.8241 26 23.4941C26 24.2021 25.48 23.959 25.166 23.959L6.83594 23.9668C6.48894 23.9668 5.98295 24.1918 6.00195 23.4648C6.01145 23.1388 6.13359 23.0311 6.29297 23.0059Z" fill="black"/>
</g>
</svg>
