<svg width="32" height="32" viewBox="0 0 32 32" fill="none" xmlns="http://www.w3.org/2000/svg">
<g id="affiliatetheme">
<path id="Vector" d="M12.1035 5C10.2368 5.01563 7.3763 6.94964 5.03711 9.95508C2.15811 13.6541 1.14725 17.5593 2.78125 18.6953C4.41525 19.8213 8.08389 17.7332 10.9629 14.0352C13.8419 10.3362 14.8528 6.43264 13.2188 5.30664C12.9124 5.09552 12.5343 4.99639 12.1035 5ZM29.9844 11C26.1834 17.359 20.0884 20.5416 16.3594 18.2656C15.0754 17.4796 14.2851 15.815 13.9941 14C12.0181 17.66 8.208 20.903 4 22C6.681 25.188 10.8385 27 15.3145 27C23.4015 27 29.9609 20.3782 29.9609 12.2012C29.9709 11.7422 30.0274 11.437 29.9844 11Z" fill="black"/>
</g>
</svg>
