<svg width="32" height="32" viewBox="0 0 32 32" fill="none" xmlns="http://www.w3.org/2000/svg">
<g id="air-freshener-solid">
<path id="Vector" d="M16 2C14.346 2 13 3.346 13 5C13 5.85393 13.3628 6.62107 13.9375 7.16797L9.05664 14H11.1328L7.13281 20H15V22H9V28H23V22H17V20H24.8672L20.8672 14H22.9434L18.0645 7.16797C18.6385 6.62114 19 5.85339 19 5C19 3.346 17.654 2 16 2ZM16 4C16.552 4 17 4.449 17 5C17 5.40373 16.7559 5.74855 16.4102 5.90625L16.334 5.93359C16.2284 5.97157 16.1185 6 16 6C15.8815 6 15.7716 5.97157 15.666 5.93359L15.5898 5.90625C15.2441 5.74855 15 5.40373 15 5C15 4.449 15.448 4 16 4ZM15.8066 7.99219C15.8449 7.99486 15.8834 7.9911 15.9219 7.99219C15.9485 7.99289 15.9732 8 16 8C16.0268 8 16.0515 7.99289 16.0781 7.99219C16.1173 7.99111 16.1564 7.9949 16.1953 7.99219L19.0566 12H17.1328L21.1328 18H10.8672L14.8672 12H12.9434L15.8066 7.99219ZM11 24H21V26H11V24Z" fill="black"/>
</g>
</svg>
