<svg width="32" height="32" viewBox="0 0 32 32" fill="none" xmlns="http://www.w3.org/2000/svg">
<g id="airbnb">
<path id="Vector" d="M16.0195 4C14.8005 4 13.6703 4.5363 12.8223 5.5293C12.4583 5.9783 12.1958 6.45409 11.9668 6.87109L11.9219 6.96094C11.7589 7.28794 11.5866 7.62795 11.3906 8.00195L11.3477 8.09766C9.41566 11.9207 7.74952 15.3928 6.22852 18.7598L6.13281 18.9668C6.06781 19.1078 6.00327 19.2528 5.94727 19.3828L5.86523 19.5605C5.80523 19.6925 5.74531 19.8263 5.69531 19.9453C5.57831 20.2113 5.46003 20.4881 5.33203 20.8281C5.01903 21.7551 4.92978 22.5963 5.05078 23.4863C5.32178 25.3233 6.53947 26.9015 8.23047 27.6055C8.87547 27.8715 9.5277 28 10.2207 28C10.3737 28 10.6024 27.9881 10.8574 27.9531C11.6934 27.8451 12.5077 27.5621 13.2617 27.1211C14.1411 26.6251 15.0056 25.9109 15.9668 24.8848L16.0059 24.9375L16.0215 24.916C16.9203 25.8779 17.7918 26.6014 18.6758 27.1133C19.4438 27.5623 20.2572 27.8442 21.0762 27.9492C21.3432 27.9872 21.5752 28 21.7402 28C22.4242 28 23.0839 27.8707 23.7129 27.5957V27.5977C25.3869 26.9257 26.5996 25.3798 26.8906 23.5508L26.9199 23.3867C27.0779 22.6077 27.0005 21.7774 26.6875 20.8574C26.6475 20.7384 26.5964 20.6205 26.5684 20.5625C26.4914 20.3555 26.4078 20.1608 26.3398 20.0078C26.2808 19.8598 26.2153 19.7209 26.1523 19.5859L25.9941 19.2285C25.9411 19.1085 25.8919 18.99 25.8359 18.873L25.7715 18.748C24.1275 15.121 22.4146 11.5553 20.6836 8.15234L20.5996 7.98438C20.4156 7.64438 20.2302 7.274 20.0352 6.875L19.9785 6.76562C19.7735 6.39462 19.5631 6.01377 19.2461 5.63477L19.1992 5.57422C18.4072 4.55822 17.2775 4 16.0195 4ZM15.9922 6.02148C16.5833 6.01223 17.1657 6.25505 17.5742 6.74805L17.6797 6.88086C17.8897 7.12086 18.0381 7.3905 18.2051 7.6875L18.2656 7.81836C18.4506 8.18736 18.6452 8.57816 18.8262 8.91016L18.8984 9.05664C20.6194 12.4386 22.3185 15.9769 23.9375 19.5469L24.0801 19.8633L24.0918 19.875C24.1138 19.925 24.1362 19.9744 24.1582 20.0254L24.3379 20.4277C24.3859 20.5327 24.435 20.639 24.498 20.791C24.56 20.932 24.6298 21.0894 24.7168 21.3184C24.7428 21.3784 24.772 21.439 24.793 21.5L24.7949 21.5059C25.0039 22.1159 25.0493 22.6087 24.9453 23.0527L24.9199 23.2012C24.7489 24.3542 24.0003 25.3285 22.9043 25.7715C22.5803 25.9185 22.1672 26 21.7402 26C21.6462 26 21.5147 25.9918 21.3457 25.9668C20.7787 25.8948 20.2187 25.6998 19.6797 25.3848C18.8932 24.9294 18.0966 24.2454 17.248 23.2988L17.3125 23.2148C18.6805 21.4288 19.5365 19.7963 19.8555 18.3633L19.8574 18.3555C20.0114 17.6455 20.0412 16.9768 19.9492 16.3848C19.8732 15.8098 19.6667 15.2598 19.3437 14.7598C18.6487 13.6578 17.4 13 16 13C14.658 13 13.4195 13.638 12.6875 14.707L12.6328 14.7988C12.3218 15.2948 12.1257 15.8263 12.0547 16.3613C11.9557 16.9973 11.9846 17.6498 12.1406 18.3418C12.4476 19.7868 13.3315 21.4756 14.6895 23.2246L14.7305 23.2773L14.7285 23.2793C13.8195 24.2833 13.0416 24.9497 12.2656 25.3867C11.7306 25.6987 11.1718 25.8957 10.5898 25.9707C10.4378 25.9927 10.3077 26 10.2207 26C9.7867 26 9.39609 25.9228 8.99609 25.7578C7.95209 25.3238 7.19825 24.3411 7.03125 23.2051C6.95325 22.6361 7.0148 22.1019 7.2168 21.5039C7.3188 21.2319 7.4232 20.9873 7.5332 20.7383C7.5822 20.6213 7.6355 20.5056 7.6875 20.3906L7.7793 20.1836C7.8353 20.0546 7.89317 19.9268 7.95117 19.8008L8.07227 19.5312C9.55927 16.2423 11.2144 12.7988 13.1504 8.9668L13.1836 8.88867C13.3606 8.55167 13.539 8.19742 13.709 7.85742L13.7344 7.80469C13.9164 7.47569 14.1224 7.10255 14.3594 6.81055C14.8014 6.29255 15.4011 6.03073 15.9922 6.02148ZM16 15C16.709 15 17.3253 15.3079 17.6543 15.8359C17.8253 16.0999 17.9277 16.3659 17.9687 16.6699C18.0257 17.0329 18.0023 17.4687 17.9023 17.9297C17.6663 18.9867 17.0261 20.2317 15.9941 21.6387C14.9751 20.2617 14.3207 18.985 14.0937 17.916C13.9907 17.46 13.9682 17.0524 14.0312 16.6484C14.0702 16.3654 14.1708 16.0999 14.3418 15.8359L14.3613 15.8027C14.7243 15.2987 15.333 15 16 15Z" fill="black"/>
</g>
</svg>
