<svg width="32" height="32" viewBox="0 0 32 32" fill="none" xmlns="http://www.w3.org/2000/svg">
<g id="alipay">
<path id="Vector" d="M5 5V27H27V5H5ZM7 7H25V25H7V7Z" fill="black"/>
<path id="Vector_2" d="M17 9H15V14H17V9Z" fill="black"/>
<path id="Vector_3" d="M21 11H10V12H21V11Z" fill="black"/>
<path id="Vector_4" d="M19.498 14H11V13H20L19.498 14Z" fill="black"/>
<path id="Vector_5" d="M18.228 17.21C18.095 17.114 17.914 17 17.921 16.994L17.894 16.944C17.877 16.908 17.862 16.869 17.852 16.824C17.832 16.732 17.805 16.645 17.775 16.566C17.704 16.424 17.564 16.401 17.454 16.33C17.222 16.208 16.987 16.095 16.749 15.988C16.276 15.769 15.785 15.595 15.283 15.461C14.281 15.186 13.248 15.029 12.214 15.001C11.955 14.994 11.696 15.005 11.438 15.007C11.154 15.021 10.862 15.046 10.583 15.127C10.021 15.272 9.502 15.571 9.097 15.978C8.25 16.776 7.902 17.97 8.048 19.11C8.173 20.286 9.083 21.364 10.22 21.751C10.77 21.96 11.416 22.039 11.931 21.982C12.202 21.976 12.472 21.957 12.742 21.905C13.013 21.867 13.282 21.822 13.545 21.74C14.608 21.469 15.606 20.932 16.414 20.208C16.818 19.846 17.187 19.452 17.517 19.029C17.673 18.811 17.843 18.602 17.968 18.362C18.027 18.24 18.097 18.125 18.129 17.987C18.146 17.918 18.172 17.855 18.181 17.783L18.195 17.672C18.201 17.645 18.192 17.654 18.209 17.598C18.255 17.478 18.261 17.321 18.228 17.21ZM15.237 18.845C14.637 19.436 13.929 19.919 13.122 20.245C12.922 20.333 12.71 20.386 12.496 20.436C12.284 20.5 12.065 20.535 11.843 20.559C11.379 20.645 11.009 20.635 10.61 20.54C9.835 20.368 9.153 19.755 9.036 18.935C8.881 18.121 9.246 17.233 9.875 16.791C10.182 16.559 10.534 16.429 10.886 16.366C11.064 16.331 11.241 16.336 11.427 16.341L12.11 16.388C13.021 16.473 13.909 16.711 14.785 16.978C15.22 17.122 15.651 17.283 16.078 17.451C16.169 17.488 16.257 17.531 16.347 17.571C16.265 17.686 16.184 17.801 16.096 17.913C15.836 18.25 15.533 18.544 15.237 18.845Z" fill="black"/>
<path id="Vector_6" d="M18.116 16.486L26.66 19.522L25.244 22.178L17.475 17.954L18.116 16.486Z" fill="black"/>
<path id="Vector_7" d="M20 13C19.839 14.665 19.351 16.286 18.415 17.675L16.875 16.811C17.61 15.777 18.059 14.398 18.202 13H20Z" fill="black"/>
</g>
</svg>
