<svg width="32" height="32" viewBox="0 0 32 32" fill="none" xmlns="http://www.w3.org/2000/svg">
<g id="allergies-solid">
<path id="Vector" d="M16 2C14.617 2 13.469 2.969 13.125 4.25C12.773 4.105 12.402 4 12 4C10.355 4 9 5.355 9 7V17.75L8.125 16.875C6.961 15.711 5.039 15.711 3.875 16.875C2.711 18.039 2.711 19.961 3.875 21.125L10.6562 27.9062C11.8322 29.0783 13.457 30 15.375 30H20C23.855 30 27 26.855 27 23V11C27 9.355 25.645 8 24 8C23.648 8 23.316 8.0735 23 8.1875V7C23 5.355 21.645 4 20 4C19.598 4 19.227 4.105 18.875 4.25C18.531 2.969 17.383 2 16 2ZM16 4C16.566 4 17 4.434 17 5V15H19V7C19 6.434 19.434 6 20 6C20.566 6 21 6.434 21 7V15H23V11C23 10.434 23.434 10 24 10C24.566 10 25 10.434 25 11V23C25 25.773 22.773 28 20 28H15.375C14.102 28 13.0077 27.3787 12.0937 26.4688L5.28125 19.7188C4.88325 19.3207 4.88325 18.6803 5.28125 18.2812C5.67925 17.8833 6.31975 17.8833 6.71875 18.2812L9.28125 20.875L11 22.5938V7C11 6.434 11.434 6 12 6C12.566 6 13 6.434 13 7V15H15V5C15 4.434 15.434 4 16 4ZM16 17C15.7348 17 15.4804 17.1054 15.2929 17.2929C15.1054 17.4804 15 17.7348 15 18C15 18.2652 15.1054 18.5196 15.2929 18.7071C15.4804 18.8946 15.7348 19 16 19C16.2652 19 16.5196 18.8946 16.7071 18.7071C16.8946 18.5196 17 18.2652 17 18C17 17.7348 16.8946 17.4804 16.7071 17.2929C16.5196 17.1054 16.2652 17 16 17ZM22 17C21.7348 17 21.4804 17.1054 21.2929 17.2929C21.1054 17.4804 21 17.7348 21 18C21 18.2652 21.1054 18.5196 21.2929 18.7071C21.4804 18.8946 21.7348 19 22 19C22.2652 19 22.5196 18.8946 22.7071 18.7071C22.8946 18.5196 23 18.2652 23 18C23 17.7348 22.8946 17.4804 22.7071 17.2929C22.5196 17.1054 22.2652 17 22 17ZM18 20C17.7348 20 17.4804 20.1054 17.2929 20.2929C17.1054 20.4804 17 20.7348 17 21C17 21.2652 17.1054 21.5196 17.2929 21.7071C17.4804 21.8946 17.7348 22 18 22C18.2652 22 18.5196 21.8946 18.7071 21.7071C18.8946 21.5196 19 21.2652 19 21C19 20.7348 18.8946 20.4804 18.7071 20.2929C18.5196 20.1054 18.2652 20 18 20ZM14 21C13.7348 21 13.4804 21.1054 13.2929 21.2929C13.1054 21.4804 13 21.7348 13 22C13 22.2652 13.1054 22.5196 13.2929 22.7071C13.4804 22.8946 13.7348 23 14 23C14.2652 23 14.5196 22.8946 14.7071 22.7071C14.8946 22.5196 15 22.2652 15 22C15 21.7348 14.8946 21.4804 14.7071 21.2929C14.5196 21.1054 14.2652 21 14 21ZM22 21C21.7348 21 21.4804 21.1054 21.2929 21.2929C21.1054 21.4804 21 21.7348 21 22C21 22.2652 21.1054 22.5196 21.2929 22.7071C21.4804 22.8946 21.7348 23 22 23C22.2652 23 22.5196 22.8946 22.7071 22.7071C22.8946 22.5196 23 22.2652 23 22C23 21.7348 22.8946 21.4804 22.7071 21.2929C22.5196 21.1054 22.2652 21 22 21ZM18 24C17.7348 24 17.4804 24.1054 17.2929 24.2929C17.1054 24.4804 17 24.7348 17 25C17 25.2652 17.1054 25.5196 17.2929 25.7071C17.4804 25.8946 17.7348 26 18 26C18.2652 26 18.5196 25.8946 18.7071 25.7071C18.8946 25.5196 19 25.2652 19 25C19 24.7348 18.8946 24.4804 18.7071 24.2929C18.5196 24.1054 18.2652 24 18 24Z" fill="black"/>
</g>
</svg>
