<svg width="32" height="32" viewBox="0 0 32 32" fill="none" xmlns="http://www.w3.org/2000/svg">
<g id="amazon">
<path id="Vector" d="M16.2 4C12.9 4 9.3 5.2 8.5 9.3C8.4 9.7 8.7 10 9 10L12.3 10.3C12.6 10.3 12.9 10 12.9 9.7C13.2 8.3 14.4 7.6 15.7 7.6C16.4 7.6 17.2 7.9 17.6 8.5C18.1 9.2 18 10.2 18 11V11.5C16 11.7 13.4 11.9 11.5 12.7C9.3 13.6 7.8 15.5 7.8 18.4C7.8 22 10.1 23.8 13 23.8C15.5 23.8 16.8 23.2 18.7 21.3C19.3 22.2 19.6 22.7 20.7 23.6C21 23.7 21.3 23.7 21.5 23.5C22.2 22.9 23.5 21.8 24.2 21.2C24.5 21 24.4 20.6 24.2 20.3C23.6 19.4 22.9 18.7 22.9 17.1V11.7C22.9 9.4 23.1 7.3 21.4 5.7C20.1 4.4 17.9 4 16.2 4ZM17.1 14.3C17.4 14.3 17.7 14.3 18 14.3V15.1C18 16.4 18.1 17.6 17.4 18.8C16.9 19.8 16 20.4 15 20.4C13.7 20.4 12.9 19.4 12.9 17.9C12.9 15.2 14.9 14.5 17.1 14.3ZM26.7 22.4C25.8 22.4 24.8 22.6 24 23.2C23.8 23.4 23.8 23.6 24.1 23.6C25 23.5 26.9 23.2 27.3 23.7C27.7 24.2 26.9 26 26.6 26.8C26.5 27 26.7 27.1 26.9 27C28.4 25.8 28.8 23.2 28.5 22.8C28.3 22.5 27.6 22.4 26.7 22.4ZM3.7 22.8C3.5 22.8 3.4 23.1 3.6 23.2C6.9 26.2 11.2 27.9 16 27.9C19.4 27.9 23.4 26.8 26.2 24.8C26.7 24.5 26.3 23.9 25.8 24.1C22.7 25.4 19.4 26 16.3 26C11.8 26 7.5 24.8 3.9 22.7C3.8 22.9 3.7 22.8 3.7 22.8Z" fill="black"/>
</g>
</svg>
