<svg width="32" height="32" viewBox="0 0 32 32" fill="none" xmlns="http://www.w3.org/2000/svg">
<g id="amazon-pay">
<path id="Vector" d="M8.8711 8L8.66211 8.03516C8.00811 8.11716 7.37752 8.36181 6.85352 8.75781C6.73652 8.82781 6.63163 8.92163 6.51563 9.01563C6.50363 8.99263 6.49219 8.96831 6.49219 8.94531C6.46819 8.81631 6.4566 8.67783 6.4336 8.54883C6.3986 8.33883 6.28227 8.23242 6.07227 8.23242H5.52344C5.18544 8.23242 5.12696 8.30386 5.12696 8.63086V18.7559C5.13896 18.9079 5.23138 18.988 5.35938 19H6.375C6.515 19 6.59643 18.9079 6.60743 18.7559C6.61943 18.7089 6.61915 18.6622 6.61915 18.6152V15.0977C6.66615 15.1447 6.70161 15.1684 6.72461 15.1914C7.57661 15.9034 8.55686 16.1358 9.63086 15.9258C10.6109 15.7278 11.2868 15.1328 11.7188 14.2578C12.0568 13.5928 12.195 12.9166 12.207 12.1816C12.23 11.3766 12.1603 10.6018 11.8223 9.84375C11.4253 8.91075 10.7494 8.29203 9.73438 8.08203C9.58238 8.04703 9.41958 8.03472 9.26758 8.01172C9.12758 7.99972 8.9991 8 8.8711 8ZM16.6426 8C16.5956 8.012 16.5509 8.02344 16.5039 8.02344C16.0369 8.04644 15.581 8.1047 15.127 8.2207C14.835 8.2907 14.5554 8.39528 14.2754 8.48828C14.1004 8.54628 14.0176 8.67533 14.0176 8.86133C14.0296 9.01333 14.0176 9.17613 14.0176 9.32813C14.0296 9.56113 14.1237 9.6215 14.3457 9.5625C14.7187 9.4695 15.0918 9.36492 15.4648 9.29492C16.0478 9.18992 16.6433 9.14261 17.2383 9.22461C17.5533 9.28261 17.845 9.36481 18.043 9.63281C18.218 9.85481 18.2888 10.1341 18.3008 10.4141C18.3128 10.8111 18.3125 11.1255 18.3125 11.5215C18.3125 11.5445 18.3128 11.5671 18.3008 11.5781H18.2422C17.7402 11.4501 17.2278 11.3807 16.7148 11.3457C16.1778 11.3227 15.6419 11.3462 15.1289 11.5332C14.5109 11.7432 14.0078 12.1157 13.7168 12.7227C13.4948 13.1897 13.4593 13.6806 13.5293 14.1816C13.6343 14.8586 13.9616 15.3713 14.5566 15.6973C15.1286 16.0123 15.7352 16.0461 16.3652 15.9531C17.0882 15.8481 17.7291 15.5451 18.2891 15.0781C18.3121 15.0551 18.3364 15.0445 18.3594 15.0215C18.3944 15.2085 18.4181 15.3839 18.4531 15.5469C18.4761 15.6989 18.5709 15.7907 18.7109 15.8027H19.4922C19.6092 15.8027 19.7148 15.6983 19.7148 15.5703C19.7268 15.5353 19.7266 15.4874 19.7266 15.4414V10.4629C19.7236 10.2639 19.7108 10.0535 19.6758 9.85547C19.5828 9.23747 19.3256 8.72348 18.7656 8.39648C18.4506 8.20948 18.1015 8.11659 17.7285 8.05859C17.5535 8.03459 17.3898 8.023 17.2148 8H16.6426ZM20.6875 8.00195C20.5705 8.00195 20.5122 8.10566 20.5352 8.22266C20.5582 8.31666 20.5939 8.42263 20.6289 8.51563C21.5619 10.8256 22.5062 13.1341 23.4512 15.4551C23.5332 15.6531 23.5442 15.8176 23.4512 16.0156C23.3002 16.3646 23.1708 16.7262 23.0078 17.0762C22.8678 17.3912 22.6352 17.6258 22.2852 17.7188C22.0522 17.7778 21.7958 17.8006 21.5508 17.7656C21.4338 17.7536 21.3162 17.7308 21.1992 17.7188C21.0352 17.7068 20.9554 17.7762 20.9434 17.9512V18.4199C20.9554 18.6889 21.0367 18.8046 21.3047 18.8516C21.5617 18.8976 21.8294 18.9314 22.1094 18.9434C22.9254 18.9544 23.5683 18.63 23.9883 17.918C24.1633 17.638 24.3036 17.346 24.4316 17.043C25.5626 14.185 26.6827 11.3388 27.8027 8.46875C27.8377 8.38675 27.8591 8.30394 27.8711 8.21094C27.8941 8.07094 27.8243 8.00191 27.6973 8.00391H26.7539C26.5909 7.99191 26.4389 8.09605 26.3809 8.24805C26.3579 8.31805 26.3336 8.37531 26.3106 8.44531L24.6426 13.2168C24.5256 13.5548 24.3963 13.9043 24.2793 14.2773C24.2553 14.2183 24.2444 14.1952 24.2324 14.1602C23.6144 12.4572 23.0086 10.7557 22.3906 9.05273C22.2976 8.77273 22.1929 8.50238 22.0879 8.23438C22.0419 8.10538 21.9352 8.01367 21.7832 8.01367C21.4212 8.00167 21.0605 8.00195 20.6875 8.00195ZM8.85938 9.21289C9.57138 9.27089 10.154 9.62122 10.457 10.4492C10.644 10.9622 10.6914 11.4571 10.6914 11.9941C10.6914 12.4961 10.6569 12.94 10.5059 13.418C10.1789 14.433 9.43161 14.8292 8.47461 14.7832C7.79761 14.7482 7.22646 14.4902 6.68946 14.1172C6.63146 14.0822 6.59643 14.0258 6.60743 13.9668V10.0059C6.59643 9.93586 6.63146 9.87875 6.68946 9.84375C7.34246 9.38875 8.06538 9.15489 8.85938 9.21289ZM16.4277 12.3633C16.6275 12.3458 16.8288 12.3495 17.0273 12.373C17.4243 12.408 17.8218 12.4772 18.2188 12.5352C18.3008 12.5472 18.3223 12.5823 18.3223 12.6523C18.3103 12.8863 18.3223 13.1078 18.3223 13.3418C18.3223 13.5748 18.3106 13.7855 18.3106 14.0195C18.3226 14.0775 18.2872 14.1232 18.2402 14.1582C17.7032 14.5432 17.1201 14.8011 16.4551 14.8711C16.1871 14.8941 15.9181 14.8941 15.6621 14.7891C15.3701 14.6841 15.1504 14.4385 15.0684 14.1465C14.9754 13.8435 14.9756 13.5286 15.0566 13.2246C15.1846 12.8276 15.4639 12.6075 15.8379 12.4785C16.0304 12.42 16.228 12.3808 16.4277 12.3633ZM29.041 20.002C28.1076 20.015 27.0059 20.224 26.1699 20.8105C25.9119 20.9895 25.9571 21.2381 26.2441 21.2051C27.1841 21.0921 29.2764 20.8384 29.6504 21.3164C30.0254 21.7944 29.2357 23.7664 28.8867 24.6484C28.7787 24.9114 29.0071 25.0203 29.2481 24.8203C30.8121 23.5103 31.2184 20.7641 30.8984 20.3691C30.7379 20.1716 29.9744 19.989 29.041 20.002ZM1.2168 21.002C0.998739 21.032 0.904817 21.3083 1.13282 21.5273C5.04982 25.2013 10.2257 27 15.9727 27C20.0717 27 24.8302 25.6626 28.1152 23.1426C28.6582 22.7236 28.1957 22.0958 27.6387 22.3438C23.9557 23.9688 19.9555 24.752 16.3145 24.752C10.9185 24.752 5.69475 23.6254 1.46875 21.0664C1.37625 21.0104 1.28949 20.992 1.2168 21.002Z" fill="black"/>
</g>
</svg>
