<svg width="32" height="32" viewBox="0 0 32 32" fill="none" xmlns="http://www.w3.org/2000/svg">
<g id="american-sign-language-interpreting-solid">
<path id="Vector" d="M9.21875 7.375L6.8125 10.25L6.65625 10.4375L6.625 10.6875L6 13.4062V9H4V16L3 17V23L7.375 22.0312L9.625 22.9375L9.8125 23H10.625L10.8438 22.8438L13.5312 21.25L13.7812 21.0625L13.9375 20.7812L14.9375 18.375L13.0625 17.625L12.1875 19.7188L10.625 20.6875C9.85938 20.5078 8 19.8711 8 18C8 15.668 10 15 10 15H11.5625L13.2812 16.7188L14.7188 15.2812L12.7188 13.2812L12.4062 13H10.5625L10.75 12.7188L13.2812 11.1562L12.2188 9.46875L9.46875 11.1562L9.28125 11.25L8.15625 12.9375L8.53125 11.3125L10.7812 8.625L9.21875 7.375ZM21.375 9L21.1562 9.15625L18.4688 10.75L18.2188 10.9375L18.0625 11.2188L17.0625 13.625L18.9375 14.375L19.8125 12.2812L21.375 11.3125C22.1406 11.4922 24 12.1289 24 14C24 16.332 22 17 22 17H20.4375L18.7188 15.2812L17.2812 16.7188L19.2812 18.7188L19.5938 19H21.4375L21.25 19.2812L18.7188 20.8438L19.7812 22.5312L22.5312 20.8438L22.7188 20.75L23.8438 19.0625L23.4688 20.6875L21.2188 23.375L22.7812 24.625L25.1875 21.75L25.3438 21.5625L25.375 21.3125L26 18.5938V23H28V16L29 15V9L24.625 9.96875L22.375 9.0625L22.1875 9H21.375Z" fill="black"/>
</g>
</svg>
