<svg width="32" height="32" viewBox="0 0 32 32" fill="none" xmlns="http://www.w3.org/2000/svg">
<g id="amilia">
<path id="Vector" d="M16.4297 6C13.6667 6 10.6968 6.281 8.34376 8C8.11576 8.138 7.9375 8.41023 8.0215 8.86523C8.0705 9.09323 8.24957 10.0898 8.47657 10.6348C8.65957 11.0898 9.11082 11.0893 9.38282 10.9062C10.8348 9.91125 13.9035 9 16.3945 9C18.9795 9 19.0234 10.5187 19.0234 12.5137V14.2324C15.1214 14.7364 8.7732 15.7762 7.3672 16.3652C5.7822 17.0932 6.01173 20.1986 6.01173 21.0156C6.01173 22.2816 6.6909 26 11.5879 26C13.7219 26 17.4381 25.0761 19.2051 24.1211V25.5039C19.2051 25.6379 19.3005 25.8682 19.4785 25.9082C19.6165 25.9532 21.3917 25.998 21.8027 25.998C22.2137 25.998 24.5925 26.0108 24.7715 25.9668C24.9545 25.9218 25 25.6945 25 25.5605V12.0703C24.996 8.48631 22.4157 6 16.4297 6ZM19.0195 16.7715V21.8691C18.0645 22.4581 16.2984 22.957 14.9414 22.957C12.5844 22.957 11.963 21.1289 11.959 20.6289C11.959 20.0839 11.8244 18.7236 12.7754 18.2676C13.8604 17.6786 17.0235 16.9545 19.0195 16.7715Z" fill="black"/>
</g>
</svg>
