<svg width="32" height="32" viewBox="0 0 32 32" fill="none" xmlns="http://www.w3.org/2000/svg">
<g id="anchor-solid">
<path id="Vector" d="M16 4C13.8008 4 12 5.80078 12 8C12 9.85156 13.2812 11.3984 15 11.8438V14H12V16H15V23.9688C12.5742 23.7773 10.9609 22.8906 9.8125 21.875C8.9375 21.1016 8.35156 20.25 7.9375 19.5312L9.53125 18.75L5.53125 16.9375L4.46875 21.25L6.125 20.4375C6.59766 21.2852 7.33203 22.3711 8.46875 23.375C9.92188 24.6641 12.0664 25.7305 15 25.9375V26L16 27L17 26V25.9375C19.9336 25.7305 22.0781 24.6641 23.5312 23.375C24.668 22.3711 25.4023 21.2852 25.875 20.4375L27.5312 21.25L26.4688 16.9375L22.4688 18.75L24.0625 19.5312C23.6484 20.25 23.0625 21.1016 22.1875 21.875C21.0391 22.8906 19.4258 23.7773 17 23.9688V16H20V14H17V11.8438C18.7188 11.3984 20 9.85156 20 8C20 5.80078 18.1992 4 16 4ZM16 6C17.1172 6 18 6.88281 18 8C18 9.11719 17.1172 10 16 10C14.8828 10 14 9.11719 14 8C14 6.88281 14.8828 6 16 6Z" fill="black"/>
</g>
</svg>
