<svg width="32" height="32" viewBox="0 0 32 32" fill="none" xmlns="http://www.w3.org/2000/svg">
<g id="android">
<path id="Vector" d="M10.5312 3.5C10.3633 3.54297 10.2305 3.67187 10.1797 3.83594C10.1289 4.00391 10.168 4.18359 10.2812 4.3125L11.75 6.4375C10.082 7.71875 9 9.74219 9 12V22C9 22.7031 9.44141 23.2031 10 23.5625V26.5C10 27.8672 11.1328 29 12.5 29C13.8672 29 15 27.8672 15 26.5V24H17V26.5C17 27.8672 18.1328 29 19.5 29C20.8672 29 22 27.8672 22 26.5V23.5625C22.5586 23.2031 23 22.7031 23 22V12C23 9.74219 21.918 7.71875 20.25 6.4375L21.7188 4.3125C21.8398 4.16016 21.8633 3.94922 21.7773 3.77734C21.6875 3.60156 21.5078 3.49219 21.3125 3.5C21.2812 3.49609 21.25 3.49609 21.2188 3.5C21.0859 3.53516 20.9727 3.625 20.9062 3.75L19.4062 5.875C18.3984 5.3125 17.2305 5 16 5C14.7695 5 13.6016 5.3125 12.5938 5.875L11.0938 3.75C11.0078 3.60156 10.8555 3.50781 10.6875 3.5C10.6562 3.49609 10.625 3.49609 10.5938 3.5C10.5742 3.5 10.5508 3.5 10.5312 3.5ZM16 7C18.4258 7 20.4414 8.71484 20.9062 11H11.0938C11.5586 8.71484 13.5742 7 16 7ZM14 8C13.4492 8 13 8.44922 13 9C13 9.55078 13.4492 10 14 10C14.5508 10 15 9.55078 15 9C15 8.44922 14.5508 8 14 8ZM18 8C17.4492 8 17 8.44922 17 9C17 9.55078 17.4492 10 18 10C18.5508 10 19 9.55078 19 9C19 8.44922 18.5508 8 18 8ZM6 11V21H8V11H6ZM24 11V21H26V11H24ZM11 13H21V22H20V26.5C20 26.7852 19.7852 27 19.5 27C19.2148 27 19 26.7852 19 26.5V22H13V26.5C13 26.7852 12.7852 27 12.5 27C12.2148 27 12 26.7852 12 26.5V22H11V13Z" fill="black"/>
</g>
</svg>
