<svg width="32" height="32" viewBox="0 0 32 32" fill="none" xmlns="http://www.w3.org/2000/svg">
<g id="angellist">
<path id="Vector" d="M12.8125 4C12.5 3.98047 12.1797 4.03515 11.875 4.15625C11.2969 4.39062 10.9023 4.90234 10.7188 5.40625C10.5352 5.91015 10.4844 6.42578 10.5 6.96875C10.5273 8.05469 10.8008 9.26562 11.125 10.4375C11.3906 11.3984 11.6953 12.2969 11.9688 13.0625C11.8047 13.0312 11.6367 13.0234 11.4688 13.0312C11.1094 13.0508 10.7578 13.168 10.4375 13.375C9.65625 13.8789 9.18359 14.6797 9.09375 15.4375C9.01172 16.1172 9.17188 16.7344 9.375 17.2812C8.83594 17.3359 8.30859 17.5156 7.90625 17.9062C7.26172 18.5352 7 19.4531 7 20.5312C7 24.082 8.89062 26.1641 10.9062 27.0937C12.9219 28.0234 15.0391 28 15.8438 28C16.7188 28 18.7383 27.9258 20.5938 26.6562C22.4492 25.3867 24 22.875 24 18.6562C24 18.293 24.2734 16.6641 23.25 15.2812C23.0312 14.9844 22.7344 14.7187 22.4062 14.4687C22.6055 13.8164 23.082 12.2422 23.4688 10.2812C23.707 9.07031 23.8945 7.83984 23.875 6.78125C23.8633 6.25 23.8164 5.76172 23.625 5.28125C23.4336 4.80078 22.9727 4.26172 22.3438 4.125C21.707 3.98437 21.0508 4.11328 20.5312 4.40625C20.0117 4.69922 19.6289 5.12109 19.2812 5.59375C18.5898 6.54297 18.0781 7.73828 17.6875 8.9375C17.5547 9.34765 17.4531 9.7539 17.3438 10.1562C17.1719 9.67187 16.9883 9.1875 16.7812 8.6875C16.2812 7.47656 15.6953 6.28515 14.9688 5.375C14.6055 4.91797 14.207 4.51562 13.6875 4.25C13.4258 4.11719 13.125 4.01953 12.8125 4ZM12.6562 5.96875C12.6797 5.97265 12.7148 5.99609 12.7812 6.03125C12.9141 6.09765 13.1523 6.30859 13.4062 6.625C13.9102 7.25781 14.4727 8.3164 14.9375 9.4375C15.5312 10.8633 15.9336 12.1016 16.1875 13C16.1641 13 16.1484 13 16.125 13C15.4258 13 14.7852 13.2891 14.3438 13.7187C14.1133 13.1562 13.5273 11.6992 13.0312 9.90625C12.7305 8.8164 12.5195 7.71875 12.5 6.9375C12.4883 6.54687 12.543 6.23437 12.5938 6.09375C12.6172 6.02344 12.6289 6.00781 12.625 6C12.6367 5.99609 12.6445 5.96875 12.6562 5.96875ZM21.6562 6.125C21.7031 6.125 21.7422 6.125 21.7812 6.125C21.8203 6.26562 21.8672 6.48047 21.875 6.8125C21.8906 7.59765 21.7227 8.73437 21.5 9.875C21.1875 11.4609 20.832 12.7422 20.5938 13.5625C20.043 13.3906 19.4102 13.25 18.6875 13.1562C18.8398 12.3242 19.1055 11.0625 19.5938 9.5625C19.9492 8.46875 20.4062 7.42187 20.875 6.78125C21.1094 6.46094 21.332 6.25 21.5 6.15625C21.5547 6.125 21.6094 6.125 21.6562 6.125ZM16.125 15C19.8125 15 21.168 15.8437 21.6562 16.5C22.1445 17.1562 22 17.8359 22 18.6562C22 22.4102 20.7891 24.0977 19.4688 25C18.1484 25.9023 16.5703 26 15.8438 26C15.0469 26 13.2539 25.9766 11.75 25.2812C10.2461 24.5859 9 23.4375 9 20.5312C9 19.7812 9.20312 19.4219 9.3125 19.3125C9.42188 19.2031 9.53125 19.1602 9.90625 19.25C10.5117 19.3945 11.5742 20.125 12.5625 21.4375C12.793 21.7422 13.0039 22.0703 13.2188 22.4375C13.1562 22.5117 12.9688 22.625 12.8438 22.625C12.6914 22.625 12.5469 22.5781 12.2812 22.3437C12.0156 22.1094 11.6914 21.6602 11.3438 21.125L9.65625 22.2187C10.0469 22.8242 10.4414 23.3672 10.9375 23.8125C11.4336 24.2578 12.1016 24.625 12.8438 24.625C13.6094 24.625 14.2852 24.2695 14.75 23.7187C14.8711 23.5781 14.8906 23.3711 14.9688 23.1875C15.1133 23.5977 15.2812 23.9727 15.4688 24.25C15.8906 24.8711 16.4062 25.1875 16.4062 25.1875L17.5 23.5312C17.5 23.5312 17.3516 23.4609 17.125 23.125C16.8984 22.7891 16.6562 22.2422 16.6562 21.375C16.6562 21.0625 16.7031 20.8086 16.8125 20.5937C16.9922 20.2422 17.3086 20 17.6562 19.7812C18.2148 19.4297 18.7812 19.3125 18.7812 19.3125C19.2266 19.2148 19.5508 18.8242 19.5664 18.3672C19.582 17.9102 19.2812 17.5039 18.8438 17.375C18.8438 17.375 17.2578 16.9023 16 16.5312C15.9219 16.5078 15.8438 16.4609 15.7812 16.4062C15.7578 16.3867 15.7383 16.3672 15.7188 16.3437C15.6758 16.2734 15.6406 16.1953 15.5938 16.125C15.5391 15.9805 15.5156 15.8047 15.5312 15.625C15.5508 15.4102 15.6328 15.25 15.7188 15.1562C15.8047 15.0625 15.875 15 16.125 15ZM11.5 15.0312C11.543 15.0039 11.5469 15.0039 11.7812 15.0937C12.0156 15.1836 12.3906 15.4258 12.7812 15.8125C13.5625 16.5859 14.4023 17.8789 14.9375 19.25C15.0625 19.5703 15.0352 19.6484 15 19.7187C14.9648 19.7891 14.8672 19.8867 14.6875 19.9687C14.5078 20.0508 14.25 20.0977 14.0938 20.0937C13.9375 20.0898 13.9609 19.9609 14.1562 20.2187L14.0938 20.25C13.4961 19.4258 12.8828 18.7539 12.2188 18.25C12.2188 18.25 11.6055 17.5195 11.2812 16.7187C11.1172 16.3164 11.0625 15.9141 11.0938 15.6562C11.125 15.3984 11.1602 15.25 11.5 15.0312Z" fill="black"/>
</g>
</svg>
