<svg width="32" height="32" viewBox="0 0 32 32" fill="none" xmlns="http://www.w3.org/2000/svg">
<g id="angry-solid">
<path id="Vector" d="M16 4C9.38281 4 4 9.38281 4 16C4 22.6172 9.38281 28 16 28C22.6172 28 28 22.6172 28 16C28 9.38281 22.6172 4 16 4ZM16 6C21.5352 6 26 10.4648 26 16C26 21.5352 21.5352 26 16 26C10.4648 26 6 21.5352 6 16C6 10.4648 10.4648 6 16 6ZM10.6875 12C10.2656 12.4258 10 13.0078 10 13.6562C10 14.9492 11.0508 16 12.3438 16C12.9883 16 13.5781 15.7383 14 15.3125L10.6875 12ZM21.3125 12L18 15.3125C18.4219 15.7383 19.0117 16 19.6562 16C20.9492 16 22 14.9492 22 13.6562C22 13.0117 21.7383 12.4219 21.3125 12ZM18.5625 17.8438C18.418 17.8477 18.2656 17.8555 18.125 17.875C17.0039 18.043 16.1562 18.6562 15.4062 19.1562C14.6562 19.6562 13.9961 20.0469 13.5 20.125C13.0039 20.2031 12.5586 20.125 11.7188 19.2812L10.2812 20.7188C11.4141 21.8594 12.7031 22.2695 13.8125 22.0938C14.9219 21.918 15.7539 21.3086 16.5 20.8125C17.2461 20.3164 17.8867 19.9531 18.4062 19.875C18.9258 19.7969 19.4375 19.8633 20.3125 20.7188L21.6875 19.2812C20.6641 18.2812 19.5742 17.8281 18.5625 17.8438Z" fill="black"/>
</g>
</svg>
