<svg width="32" height="32" viewBox="0 0 32 32" fill="none" xmlns="http://www.w3.org/2000/svg">
<g id="angrycreative">
<g clip-path="url(#clip0)">
<path id="Vector" d="M29 9L27.4492 9.10938L26.3008 11.3594L25.6504 9.23047L24.0391 9.33984L24.2598 9.92969C23.8398 9.45969 23.0792 9.39922 22.4492 9.44922L20.4805 9.58008L20.3203 11.1602C20.2703 11.1102 19.6704 9.52992 17.6504 9.66992C15.6104 9.79992 14.8407 11.3398 14.4707 12.0098L14.6699 9.98047L13.2402 10.0703L12.9199 13.3496L11.0293 10.2207L9.67969 10.3105L9.17969 15.4707L7.65039 10.4395L6.44922 10.5195L3.59961 16.5293L5.19922 16.4297L5.59961 15.5293L7.58008 15.4004L7.80078 16.2598L10.6406 16.0801L10.9492 12.8203L12.8301 15.9395L14.0801 15.8594L14.2793 13.8691C14.7693 15.2991 15.7408 15.8908 17.0508 15.8008C19.0508 15.6808 19.6993 14.3897 20.0293 13.9297L19.8691 15.4805L21.2891 15.3906L21.4902 13.5L22.4492 15.3203L24.2695 15.1992L23.0098 13.2793C24.1498 12.8193 24.6594 11.9398 24.6094 10.8398L25.4004 12.9609L25.1602 15.1406L26.5801 15.0508L26.8203 12.8691L29 9ZM21.7695 10.7891C22.3895 10.7591 22.7399 10.7906 22.9199 10.8906C23.0599 10.9706 23.1198 11.1402 23.0898 11.4102C23.0598 11.6902 22.9309 11.88 22.7109 12C22.5009 12.11 22.1409 12.1809 21.6309 12.2109L21.7695 10.7891ZM17.5605 11.1191C17.7605 11.1091 17.9699 11.1602 18.1699 11.2402C18.3299 11.3202 18.5207 11.4606 18.7207 11.6406L20.2793 11.5391L20.2207 12.1309L17.0703 12.3398L16.9492 13.5195L18.6602 13.4102C18.4302 13.7202 18.1804 13.9694 17.9004 14.1094C17.6904 14.2294 17.4702 14.3003 17.2402 14.3203C16.8102 14.3503 16.4499 14.2197 16.1699 13.9297C15.8799 13.6297 15.7605 13.2493 15.8105 12.7793C15.8605 12.2893 16.0709 11.8903 16.4609 11.5703C16.7909 11.3003 17.1605 11.1391 17.5605 11.1191ZM6.88086 12.4004L7.30078 14.25L6.10938 14.3301L6.88086 12.4004ZM32 15.1191L27.3398 15.4297L25.7598 19.4902L25.0801 15.5703L23.5605 15.6699L24.75 21.4805L26.3496 21.3809L28.7109 15.6895L28.0801 21.2695L31.3105 21.0703L31.4609 19.7793L29.7402 19.8906L29.8594 18.9004L31.5801 18.7891L31.7402 17.4004L30.0098 17.5195L30.1094 16.6191L31.8398 16.5098L32 15.1191ZM23.4004 15.6797L21.9805 15.7793L21.3398 21.6895L22.75 21.5996L23.4004 15.6797ZM21.7402 15.8008L17.9902 16.0391L17.8496 17.4199L18.9609 17.3496L18.5195 21.5703L16.9102 16.1191L15.7207 16.1895L12.9707 21.9707L13.0801 20.9492L11.2598 21.0605L11.3594 20.0801L13.1797 19.9707L13.3105 18.5898L11.4902 18.6992L11.5801 17.8203L13.4004 17.6992L13.5293 16.3301L10.2891 16.5293L10.1602 17.8496C9.97016 16.8596 9.03906 16.6097 8.03906 16.6797L6.08984 16.8008L5.94922 18.3203C5.76922 18.0403 5.27063 16.7804 3.39063 16.9004C1.35063 17.0304 0.139766 18.6791 0.00976584 20.1191C-0.150234 21.9591 1.19008 23.0902 2.83008 22.9902C4.08008 22.9202 5.12969 22.1205 5.67969 21.2305L5.53906 22.6602L6.94922 22.5801L7.13086 20.7402L8.09961 22.5098L14.4102 22.1309L14.8105 21.3301L16.7793 21.1992L16.9902 21.9707L19.8906 21.7891L20.3809 17.2598L21.5898 17.1797L21.7402 15.8008ZM7.98633 18.0391C8.49961 18.0522 8.73445 18.1899 8.68945 18.6699C8.61945 19.3599 7.96 19.4209 7.25 19.4609L7.38086 18.0605C7.61336 18.0455 7.81523 18.0347 7.98633 18.0391ZM16.1191 18.0801L16.5098 19.9395L15.3301 20.0195L16.1191 18.0801ZM3.25 18.3496C3.84 18.3096 4.23055 18.5209 4.56055 19.1309L5.88086 19.0508L5.75 20.5195L4.40039 20.5996C4.02039 21.1096 3.58922 21.4993 2.94922 21.5293C1.87922 21.5993 1.44953 20.78 1.51953 20C1.57953 19.22 2.3 18.4096 3.25 18.3496ZM10.0293 19.1992L9.74023 22.1602L8.64062 20.5098C9.30062 20.2398 9.7793 19.8692 10.0293 19.1992Z" fill="black"/>
</g>
</g>
<defs>
<clipPath id="clip0">
<rect width="32" height="32" fill="white"/>
</clipPath>
</defs>
</svg>
