<svg width="32" height="32" viewBox="0 0 32 32" fill="none" xmlns="http://www.w3.org/2000/svg">
<g id="ankh-solid">
<path id="Vector" d="M16 2C13.25 2 11 4.25 11 7C11 8.95703 12.1133 10.875 13.1562 12.4375C13.2891 12.6406 13.4297 12.8125 13.5625 13H8V16.1562L9.15625 16L14.9062 15.1875L14 28.9375L13.9375 30H18.0625L18 28.9375L17.0938 15.1875L22.8438 16L24 16.1562V13H18.4375C18.5703 12.8125 18.7109 12.6406 18.8438 12.4375C19.8867 10.875 21 8.95703 21 7C21 4.25 18.75 2 16 2ZM16 4C17.668 4 19 5.33203 19 7C19 8.07812 18.1133 9.91406 17.1562 11.3438C16.5742 12.2188 16.3672 12.4297 16 12.875C15.6328 12.4297 15.4258 12.2188 14.8438 11.3438C13.8867 9.91406 13 8.07812 13 7C13 5.33203 14.332 4 16 4Z" fill="black"/>
</g>
</svg>
