<svg width="32" height="32" viewBox="0 0 32 32" fill="none" xmlns="http://www.w3.org/2000/svg">
<g id="app-store">
<path id="Vector" d="M16 3C8.83203 3 3 8.83203 3 16C3 23.168 8.83203 29 16 29C23.168 29 29 23.168 29 16C29 8.83203 23.168 3 16 3ZM16 5C22.0859 5 27 9.91406 27 16C27 22.0859 22.0859 27 16 27C9.91406 27 5 22.0859 5 16C5 9.91406 9.91406 5 16 5ZM15.9688 8.25C15.8906 8.26172 15.793 8.30078 15.7188 8.34375L15.2188 8.625C14.9258 8.79688 14.8281 9.17188 15 9.46875L19.2812 16.8125L20.8438 15.9062L16.5625 8.5625C16.4336 8.34375 16.207 8.21875 15.9688 8.25ZM14.6562 10.6875C14.418 10.6562 14.1602 10.7773 14.0312 11L13.5 11.9375L15.125 12.875L15.6562 11.9375C15.8281 11.6406 15.7305 11.2656 15.4375 11.0938L14.875 10.7812C14.8008 10.7383 14.7344 10.6992 14.6562 10.6875ZM13.375 12.1562L9.59375 18.625L11.1875 19.5625L14.9688 13.0938L13.375 12.1562ZM8 15.0938V16.9062H10.2812L11.3438 15.0938H8ZM14.0625 15.0938L13.0625 16.9062H18.9062L17.9062 15.0938H14.0625ZM20.75 15.0938L21.7188 16.9062H23.9688V15.0938H20.75ZM21.0312 16.2188L19.4688 17.125L20.375 18.6875L21.9375 17.7812L21.0312 16.2188ZM21.8438 18.1875C21.793 18.1953 21.7422 18.2188 21.6875 18.25C21.4336 18.3945 21.0664 18.6172 20.8438 18.75C20.4258 19 20.75 19.7461 20.8438 19.9062C21.3867 20.8164 21.9531 20.6992 22.375 21.3438C22.6055 21.6953 22.5195 21.8516 22.5938 21.9688C22.6211 22.0117 22.7148 22.0508 22.75 22C23.4023 21.0977 23.2227 19.5312 22.75 18.8438C22.5586 18.5625 22.2109 18.125 21.8438 18.1875ZM9.375 18.9688L8.59375 21.9062C8.57812 21.9609 8.60938 22.0352 8.65625 22.0625C8.70312 22.0898 8.77344 22.0703 8.8125 22.0312L11 19.9062L9.375 18.9688Z" fill="black"/>
</g>
</svg>
