<svg width="32" height="32" viewBox="0 0 32 32" fill="none" xmlns="http://www.w3.org/2000/svg">
<g id="app-store-ios">
<path id="Vector" d="M5 5V27H27V5H5ZM7 7H25V25H7V7ZM15.9922 9.00977C15.9102 8.98977 15.8396 9.00002 15.7676 9.04102C15.6136 9.12302 15.5296 9.30889 15.6016 9.46289C16.0856 10.5949 17.7831 14.4961 19.2031 17.1211L20.5215 16.4102C19.1745 13.7952 16.8367 10.1635 16.1777 9.14453C16.1367 9.07253 16.0642 9.03077 15.9922 9.00977ZM15.248 11.2637C14.898 11.2227 14.558 11.3665 14.373 11.6855L15.8867 12.5801C16.1237 12.1591 15.9784 11.6044 15.5664 11.3574C15.4634 11.3064 15.351 11.2847 15.248 11.2637ZM14.248 11.9023L13.4355 13.293L14.9805 14.1562L15.7617 12.8086L14.248 11.9023ZM13.3438 13.4453L10.1328 19.0449L11.6465 19.9199L14.8574 14.3516L13.3438 13.4453ZM9 15V17H10.9297L12.0996 15H9ZM14.8398 15L13.6895 17H18.7695C18.4895 16.45 18.0595 15.59 17.7695 15H14.8398ZM20.1309 15C20.3809 15.46 20.7105 16.0891 20.8105 16.2891C20.8305 16.3091 20.8902 16.4307 20.9102 16.4707L21.1309 17H23V15H20.1309ZM20.625 16.6055L19.3086 17.3164L20.2969 18.8594L21.3242 18.2734L20.625 16.6055ZM21.4277 18.5312L20.4609 19.0469L21.4883 21.4961C21.6733 21.9281 22.1681 22.1342 22.5801 21.9082C22.9921 21.6912 23.1261 21.1449 22.8691 20.7539L21.4277 18.5312ZM9.99805 19.2402L9.45312 21.8457L9.58789 21.9062L11.543 20.1367L9.99805 19.2402Z" fill="black"/>
</g>
</svg>
