<svg width="32" height="32" viewBox="0 0 32 32" fill="none" xmlns="http://www.w3.org/2000/svg">
<g id="apper">
<path id="Vector" d="M3.10938 12.0195C1.74937 12.0195 1.17078 12.1694 0.800781 12.6094C0.590781 12.8694 0.529766 13.1301 0.509766 13.8301H2.43945C2.47945 13.3101 2.62922 13.1895 3.19922 13.1895C3.84922 13.1895 4.08984 13.3909 4.08984 13.9609V15.0996H4.05078C3.83078 14.5096 3.49086 14.3691 2.38086 14.3691C0.890859 14.3691 0.269531 14.9002 0.269531 16.1602C0.269531 17.5202 0.810078 18 2.33008 18C3.42008 18 3.83961 17.7898 4.09961 17.0098H4.15039L4.08984 17.9609H6V14.1504C6 13.7404 5.90078 13.1809 5.80078 12.9609C5.46078 12.2709 4.75938 12.0195 3.10938 12.0195ZM10.7891 12.0195C9.70906 12.0195 9.37016 12.2105 8.91016 13.0605H8.86914L8.94922 12.0293H7.0293V20.4805H9.00977V16.9707H9.05078C9.28078 17.7507 9.72023 18 10.7402 18C11.5802 18 12.0604 17.8895 12.4004 17.5195C12.8504 17.0295 13 16.3809 13 14.8809C13 13.4909 12.8494 12.9007 12.3594 12.4707C12.0194 12.1707 11.5091 12.0195 10.7891 12.0195ZM17.7598 12.0195C16.6798 12.0195 16.3409 12.2105 15.8809 13.0605H15.8398L15.9199 12.0293H14V20.4805H15.9707V16.9707H16.0098C16.2498 17.7507 16.6909 18 17.7109 18C18.5509 18 19.0291 17.8895 19.3691 17.5195C19.8291 17.0295 19.9805 16.3809 19.9805 14.8809C19.9805 13.4909 19.8298 12.9007 19.3398 12.4707C18.9998 12.1707 18.4798 12.0195 17.7598 12.0195ZM23.5391 12.0195C22.3991 12.0195 21.7291 12.1798 21.2891 12.5898C20.8391 12.9898 20.6699 13.6109 20.6699 14.8809C20.6699 16.3509 20.8102 16.9899 21.2402 17.4199C21.6902 17.8699 22.3895 18 23.7695 18C24.9995 18 25.6205 17.8396 25.9805 17.3496C26.2005 17.0596 26.3203 16.6091 26.3203 16.1191V16H24.4492C24.4492 16.55 24.2508 16.6992 23.5508 16.6992C22.7708 16.6992 22.5508 16.4496 22.5508 15.5996C22.5508 15.5596 22.5505 15.4594 22.5605 15.3594H26.3301V14.8105C26.3301 12.6605 25.6791 12.0195 23.5391 12.0195ZM30.3496 12.0195C29.5796 12.0195 29.1994 12.2793 28.8594 13.0293H28.8301L28.9199 12.0293H27V17.9609H28.9102V14.5605C28.9102 14.1605 28.9109 14.0895 28.9609 13.9395C29.0809 13.6395 29.2991 13.4805 29.6191 13.4805C30.0291 13.4805 30.1309 13.6792 30.1309 14.4492C30.1309 14.4792 30.1291 14.5604 30.1191 14.6504H31.8691C31.8591 14.4304 31.8594 14.2597 31.8594 14.1797C31.8594 13.1997 31.7795 12.8505 31.5195 12.4805C31.2995 12.1805 30.8896 12.0195 30.3496 12.0195ZM23.5 13.3809C24.31 13.3809 24.4805 13.4894 24.4805 14.1094C24.4805 14.1294 24.4802 14.2108 24.4902 14.3008H22.5801L22.5898 14.1309C22.6398 13.5309 22.78 13.3809 23.5 13.3809ZM10.0391 13.4395C10.9091 13.4395 11.0801 13.6903 11.0801 15.0703C11.0801 16.2703 10.8903 16.5508 10.0703 16.5508C9.18031 16.5508 9.00977 16.2809 9.00977 14.8809C9.00977 13.6909 9.19906 13.4395 10.0391 13.4395ZM17.0195 13.4395C17.8895 13.4395 18.0508 13.6903 18.0508 15.0703C18.0508 16.2703 17.8591 16.5508 17.0391 16.5508C16.1491 16.5508 15.9805 16.2809 15.9805 14.8809C15.9805 13.6909 16.1695 13.4395 17.0195 13.4395ZM3.09961 15.5293C3.85961 15.5293 4.08008 15.6494 4.08008 16.1094C4.08008 16.6294 3.89047 16.7793 3.23047 16.7793C2.39047 16.7793 2.19922 16.6509 2.19922 16.1309C2.19922 15.6809 2.43961 15.5293 3.09961 15.5293Z" fill="black"/>
</g>
</svg>
