<svg width="32" height="32" viewBox="0 0 32 32" fill="none" xmlns="http://www.w3.org/2000/svg">
<g id="apple-pay">
<path id="Vector" d="M8.82812 9C8.24312 9 7.56472 9.33508 7.13672 9.83008C6.80072 10.2391 6.43931 10.8785 6.57031 11.5195C7.17331 11.5925 7.82622 11.2206 8.19922 10.7266C8.62822 10.2686 8.86513 9.641 8.82812 9ZM4.79883 11.6602C3.21383 11.6602 2 13.0373 2 15.0273C2 17.6273 3.82512 20 4.95312 20C5.64313 20 5.89878 19.5488 6.80078 19.5488C7.63978 19.5488 7.90191 20 8.62891 20C9.97991 20 11.0996 17.2453 11.1406 17.0723C10.9186 16.9743 9.61719 16.3493 9.61719 14.8633C9.61719 13.4293 10.8055 12.783 10.8555 12.752C10.2095 11.776 9.16444 11.6602 8.77344 11.6602C7.86644 11.6602 7.06377 12.1543 6.63477 12.1543C6.18677 12.1543 5.53283 11.6602 4.79883 11.6602ZM13 12V20H15V17H15.5C16.4809 17 17.174 16.3327 17.582 15.5H18V14.5C18 13.1309 16.8691 12 15.5 12H13ZM20.2227 12L18 18.8418V20H20V19.1582L20.0508 19H21.9492L22 19.1582V20H24V18.8418L21.7773 12H20.2227ZM24 12V13.2969L26 16.373V20H28V16.373L30 13.2969V12H28V12.7031L27 14.2422L26 12.7031V12H24ZM15 14H15.5C15.7869 14 16 14.2131 16 14.5C16 14.7869 15.7869 15 15.5 15H15V14ZM21 16.0801L21.2988 17H20.7012L21 16.0801Z" fill="black"/>
</g>
</svg>
