<svg width="32" height="32" viewBox="0 0 32 32" fill="none" xmlns="http://www.w3.org/2000/svg">
<g id="apple-alt-solid">
<path id="Vector" d="M10.375 3.96875C10.082 3.97265 9.90625 4 9.90625 4L8.875 4.09375L9 5.125C9 5.125 9.24609 7.41015 10.875 9.09375C7.57031 9.60547 5 12.332 5 15.6562C5 19.2422 6.59766 22.0859 8.46875 24C9.40234 24.957 10.3945 25.6797 11.3438 26.1875C12.293 26.6953 13.1641 27 14 27C14.5469 27 15.0781 26.9062 15.5625 26.75C15.8555 26.6562 16.1445 26.6562 16.4375 26.75C16.9219 26.9062 17.4531 27 18 27C18.9062 27 19.7773 26.6172 20.7188 26.0312C21.6602 25.4453 22.6406 24.6328 23.5625 23.625C25.4062 21.6133 27 18.8203 27 15.6562C27 11.9648 23.8242 9 20 9C18.9727 9 18.0234 9.25 17.1562 9.65625C17.1523 9.6289 17.1328 9.58203 17.125 9.53125C17.6367 6.86328 19.5 5.875 19.5 5.875L18.5 4.125C18.5 4.125 17.0898 4.97265 16.0625 6.78125C15.7383 6.28515 15.3086 5.79687 14.7812 5.375C13.1953 4.10937 11.25 3.96094 10.375 3.96875ZM11.3438 6.09375C12.0352 6.19922 12.8906 6.42578 13.5312 6.9375C14.1836 7.45703 14.6211 8.21875 14.875 8.875C14.1797 8.77344 13.3086 8.51953 12.6562 8C12.0117 7.48437 11.5977 6.74609 11.3438 6.09375ZM12 11C13.3008 11 14.457 11.4727 15.3438 12.2187L16 12.75L16.6562 12.2187C17.543 11.4727 18.6992 11 20 11C22.8047 11 25 13.1133 25 15.6562C25 18.1367 23.6992 20.5312 22.0938 22.2812C21.293 23.1562 20.4219 23.8398 19.6562 24.3125C18.8906 24.7852 18.1953 25 18 25C17.6719 25 17.3633 24.9414 17.0625 24.8437C16.375 24.6211 15.625 24.6211 14.9375 24.8437C14.6367 24.9414 14.3281 25 14 25C13.7305 25 13.0391 24.8437 12.2812 24.4375C11.5234 24.0312 10.6641 23.4023 9.875 22.5937C8.29688 20.9766 7 18.6562 7 15.6562C7 13.1133 9.19531 11 12 11Z" fill="black"/>
</g>
</svg>
