<svg width="32" height="32" viewBox="0 0 32 32" fill="none" xmlns="http://www.w3.org/2000/svg">
<g id="apple">
<path id="Vector" d="M20.8438 2C19.2031 2 17.5469 2.85156 16.4375 4.15625V4.1875C15.6484 5.16797 14.793 6.71484 15.0625 8.5C14.9336 8.44922 14.9258 8.46484 14.7812 8.40625C14.0898 8.125 13.2344 7.8125 12.2188 7.8125C8.23828 7.8125 5.21875 11.418 5.21875 16.1562C5.21875 19.2227 6.25 22.0977 7.625 24.25C8.3125 25.3281 9.09375 26.2148 9.90625 26.875C10.7188 27.5352 11.5703 28 12.5312 28C13.4922 28 14.2109 27.6758 14.75 27.4375C15.2891 27.1992 15.707 27 16.5 27C17.2148 27 17.5781 27.1953 18.125 27.4375C18.6719 27.6797 19.418 28 20.4062 28C21.4766 28 22.3867 27.4766 23.125 26.8125C23.8633 26.1484 24.4844 25.293 25 24.4688C25.5156 23.6445 25.9219 22.8359 26.2188 22.1875C26.3672 21.8633 26.4766 21.5938 26.5625 21.375C26.6484 21.1562 26.6914 21.0938 26.75 20.8438L26.9375 20.0312L26.1875 19.6875C26.0117 19.6094 25.3125 19.2617 24.6875 18.625C24.0625 17.9883 23.5312 17.1172 23.5312 15.7812C23.5312 14.4883 24.0273 13.6211 24.5625 13C24.8281 12.6914 25.1055 12.4375 25.3125 12.2812C25.418 12.2031 25.5 12.1641 25.5625 12.125C25.625 12.0859 25.6133 12.0977 25.7188 12.0312L26.5625 11.5L26 10.6562C24.3672 8.14453 21.7539 7.8125 20.7188 7.8125C20.2383 7.8125 19.8984 7.98047 19.4688 8.0625C19.7109 7.83594 20.0234 7.69531 20.2188 7.4375C20.2227 7.43359 20.2148 7.41016 20.2188 7.40625C20.2305 7.39453 20.2422 7.38672 20.25 7.375H20.2812C21.3477 6.18359 21.9375 4.58203 21.8438 2.9375L21.7812 2H20.8438ZM19.6562 4.3125C19.4844 4.97266 19.2031 5.60156 18.75 6.09375L18.6875 6.15625C18.3047 6.67188 17.7148 7.05469 17.125 7.28125C17.2891 6.62891 17.5742 5.96875 17.9688 5.46875C17.9766 5.45703 17.9922 5.44922 18 5.4375C18.4375 4.9375 19.043 4.5625 19.6562 4.3125ZM12.2188 9.8125C12.7773 9.8125 13.3906 10.0234 14.0312 10.2812C14.6719 10.5391 15.2695 10.875 16.125 10.875C16.9766 10.875 17.6211 10.5391 18.375 10.2812C19.1289 10.0234 19.9336 9.8125 20.7188 9.8125C21.2422 9.8125 22.5352 10.1445 23.625 11.1562C23.4336 11.3281 23.2656 11.4531 23.0625 11.6875C22.3008 12.5703 21.5312 13.9453 21.5312 15.7812C21.5312 17.6875 22.3633 19.1211 23.25 20.0312C23.8008 20.5938 24.1406 20.7266 24.5625 20.9688C24.5078 21.0938 24.4766 21.1914 24.4062 21.3438C24.1367 21.9297 23.7656 22.6797 23.3125 23.4062C22.8594 24.1328 22.3086 24.8398 21.7812 25.3125C21.2539 25.7852 20.7812 26 20.4062 26C19.8398 26 19.5078 25.8438 18.9375 25.5938C18.3672 25.3438 17.582 25 16.5 25C15.3633 25 14.5234 25.3359 13.9375 25.5938C13.3516 25.8516 13.0469 26 12.5312 26C12.2852 26 11.7539 25.8008 11.1562 25.3125C10.5586 24.8242 9.90234 24.082 9.3125 23.1562C8.12891 21.3047 7.21875 18.7617 7.21875 16.1562C7.21875 12.2148 9.41797 9.8125 12.2188 9.8125Z" fill="black"/>
</g>
</svg>
