<svg width="32" height="32" viewBox="0 0 32 32" fill="none" xmlns="http://www.w3.org/2000/svg">
<g id="arrows-alt-solid">
<path id="Vector" d="M16 1.58594L10.293 7.29297L11.707 8.70703L15 5.41406V15H5.41406L8.70703 11.707L7.29297 10.293L1.58594 16L7.29297 21.707L8.70703 20.293L5.41406 17H15V26.5859L11.707 23.293L10.293 24.707L16 30.4141L21.707 24.707L20.293 23.293L17 26.5859V17H26.5859L23.293 20.293L24.707 21.707L30.4141 16L24.707 10.293L23.293 11.707L26.5859 15H17V5.41406L20.293 8.70703L21.707 7.29297L16 1.58594Z" fill="black"/>
</g>
</svg>
