<svg width="32" height="32" viewBox="0 0 32 32" fill="none" xmlns="http://www.w3.org/2000/svg">
<g id="assistive-listening-systems-solid">
<path id="Vector" d="M24.75 1.375L23.6562 3.03125C25.2188 4.04297 26.5156 5.43359 27.4375 7.09375L29.1875 6.125C28.1094 4.18359 26.5859 2.5625 24.75 1.375ZM23.0625 3.875L21.9375 5.53125C23.1406 6.36328 24.1289 7.33984 24.8438 8.59375L26.5625 7.59375C25.6797 6.04688 24.457 4.83984 23.0625 3.875ZM17 5C12.5703 5 9 8.57031 9 13H11C11 9.62891 13.6289 7 17 7C20.3711 7 23 9.62891 23 13C23 15.2461 22.3477 16.4727 21.625 17.6875C20.9023 18.9023 20 20.168 20 22C20 23.6562 18.6562 25 17 25V27C19.7461 27 22 24.7461 22 22C22 20.832 22.5977 20.0273 23.375 18.7188C24.1523 17.4102 25 15.6523 25 13C25 8.57031 21.4297 5 17 5ZM17 8C14.2539 8 12 10.2539 12 13H14C14 11.3438 15.3438 10 17 10C18.6562 10 20 11.3438 20 13H22C22 10.2539 19.7461 8 17 8ZM17 13C16.4492 13 16 13.4492 16 14C16 14.5508 16.4492 15 17 15C17.5508 15 18 14.5508 18 14C18 13.4492 17.5508 13 17 13ZM14 16C13.4492 16 13 16.4492 13 17C13 17.5508 13.4492 18 14 18C14.5508 18 15 17.5508 15 17C15 16.4492 14.5508 16 14 16ZM10.2188 17.9375L9.03125 19.1562L11.8438 21.9688L13.0625 20.7812L10.2188 17.9375ZM8 22C7.44922 22 7 22.4492 7 23C7 23.5508 7.44922 24 8 24C8.55078 24 9 23.5508 9 23C9 22.4492 8.55078 22 8 22ZM5 25C4.44922 25 4 25.4492 4 26C4 26.5508 4.44922 27 5 27C5.55078 27 6 26.5508 6 26C6 25.4492 5.55078 25 5 25Z" fill="black"/>
</g>
</svg>
