<svg width="32" height="32" viewBox="0 0 32 32" fill="none" xmlns="http://www.w3.org/2000/svg">
<g id="asymmetrik">
<path id="Vector" d="M18.0898 6.08399C12.6529 5.99038 6.66456 7.35694 2 10C4.682 8.95501 7.38339 8.19951 10.2754 7.56251C13.9434 6.75451 17.7113 6.3268 21.0312 6.8418C28.4443 7.9988 30.5999 13.0424 25.8359 18.1094C25.3399 18.6344 24.6613 19.2118 24.0293 19.6738L16.8516 9.10157L7.64453 22.5059L7.55273 22.4707C3.27373 20.9937 3.21142 18.4811 5.98242 15.3281C6.99342 14.2481 8.35866 13.3429 9.84766 12.5039C10.8397 11.9449 11.8945 11.4038 12.9785 11.0098C9.81352 11.9968 6.89686 13.5813 5.00586 15.5273C3.65886 16.9173 3.015 18.3036 3 19.5586C2.976 21.2656 4.83644 22.5509 7.02344 23.4219L5.27539 26H10.2129L10.2168 25.9922L10.2305 26L11.3984 24.2266C12.4454 24.2666 13.5828 24.2208 14.6738 24.0938L13.5098 26H20.082L18.4766 23.3262C19.3496 23.0772 20.2335 22.7764 21.0645 22.4414L22.9199 25.2578L23.3789 26H28.3164L24.6562 20.5996C25.5553 20.0116 26.4578 19.2917 27.1328 18.5957C29.0188 16.6507 29.9566 14.7052 29.9766 12.9492C30.0156 9.76422 27.0902 7.20177 21.7422 6.38477C20.5692 6.20533 19.3445 6.10559 18.0898 6.08399ZM16.8086 16.0215L17.5117 17.0449L20.5234 21.6172C19.7154 21.9592 18.8717 22.2628 18.0137 22.5098L16.7988 20.5352L15.2578 23.127C14.1668 23.29 13.0735 23.3103 12.0215 23.2813L16.8086 16.0215Z" fill="black"/>
</g>
</svg>
