<svg width="32" height="32" viewBox="0 0 32 32" fill="none" xmlns="http://www.w3.org/2000/svg">
<g id="at-solid">
<path id="Vector" d="M16.1875 4C8.82422 3.89062 2.91407 10.4844 4.15625 18.0312C5 23.1523 9.20313 27.1797 14.3438 27.875C17.8086 28.3437 21.0469 27.3437 23.5 25.375L22.25 23.8125C20.2031 25.4531 17.5117 26.3008 14.5938 25.9062C10.3398 25.332 6.85157 21.9531 6.15625 17.7187C5.10938 11.3477 9.99219 5.91015 16.1563 6C21.4102 6.07812 25.8398 10.4336 26 15.6875C26.0039 15.8008 26 15.9102 26 16.0312C25.9922 18.2344 24.207 20 22 20C20.8828 20 20 19.1172 20 18V10H18V10.7812C17.2813 10.293 16.4258 10 15.5 10C13.0273 10 11 12.0273 11 14.5V17.5C11 19.9727 13.0273 22 15.5 22C16.8477 22 18.0469 21.3867 18.875 20.4375C19.6094 21.3711 20.7305 22 22 22C25.2852 22 27.9883 19.3203 28 16.0312C28 15.8984 28.0039 15.7695 28 15.625C27.8086 9.28906 22.5234 4.09375 16.1875 4ZM15.5 12C16.8906 12 18 13.1094 18 14.5V17.5C18 18.8906 16.8906 20 15.5 20C14.1094 20 13 18.8906 13 17.5V14.5C13 13.1094 14.1094 12 15.5 12Z" fill="black"/>
</g>
</svg>
