<svg width="32" height="32" viewBox="0 0 32 32" fill="none" xmlns="http://www.w3.org/2000/svg">
<g id="atlas-solid">
<path id="Vector" d="M9 4C7.355 4 6 5.355 6 7V25C6 26.645 7.355 28 9 28H26V4H9ZM9 6H24V22H9C8.648 22 8.316 22.0735 8 22.1875V7C8 6.434 8.434 6 9 6ZM16 8C12.699 8 10 10.699 10 14C10 17.301 12.699 20 16 20C19.301 20 22 17.301 22 14C22 10.699 19.301 8 16 8ZM16.6875 10.0938C17.1715 10.1757 17.6252 10.3235 18.0312 10.5625L18.0957 11.2812L17.627 11.0938L17.252 11.4062L17.3145 12.3125L18.2832 12.0312L19.4707 12.4062L19.1582 12.9375L18.4375 12.5L17.6562 12.625L16.9062 13.1875L16.4688 14.5L17.3125 15.1875C17.3125 15.1875 18.205 15.0312 18.252 15.0312C18.299 15.0312 18.627 15.8457 18.627 15.8457L18.127 17.377C17.513 17.759 16.785 18 16 18C15.766 18 15.5355 17.9452 15.3125 17.9062L15.123 17.5938L15.5938 15.8438L13.8125 14.5H12.1562L12.0312 14.25C12.0262 14.164 12 14.086 12 14C12 13.785 12.0305 13.578 12.0625 13.375L12.9062 12.7188L14.6875 11.875L14.4062 10.7188L15.1875 10.5625L15.5312 11.0625L16.877 10.8125L16.6875 10.0938ZM13.0625 16.7188H13.377L13.9707 17.4375C13.6297 17.2375 13.3275 17.0037 13.0625 16.7188ZM9 24H24V26H9C8.434 26 8 25.566 8 25C8 24.434 8.434 24 9 24Z" fill="black"/>
</g>
</svg>
