<svg width="32" height="32" viewBox="0 0 32 32" fill="none" xmlns="http://www.w3.org/2000/svg">
<g id="atlassian">
<path id="Vector" d="M15.9316 4C15.7176 4 15.4975 4.11928 15.3535 4.36328C10.1265 12.9783 14.9817 20.024 18.1777 26.627C18.2887 26.848 18.5117 27 18.7617 27H26.3516C26.8346 27 27.1507 26.4725 26.9277 26.0215C26.9277 26.0215 16.7198 4.88052 16.4688 4.35352C16.3528 4.11952 16.1446 4 15.9316 4ZM15.8828 7.74414C18.0028 12.1381 22.3119 21.064 24.2129 25H19.6074C19.3174 24.419 19.0188 23.835 18.7168 23.248C16.1188 18.188 13.6478 13.3761 15.8828 7.74414ZM10.3164 14C10.0894 14 9.87405 14.1257 9.74805 14.3887L4.07032 26.0039C3.84932 26.4679 4.18674 27 4.67774 27H12.5762H12.5996C12.8496 27 13.0708 26.8442 13.1738 26.6152C14.8868 23.0132 13.8572 17.5377 10.8652 14.2617C10.7062 14.0897 10.5074 14 10.3164 14ZM10.5703 17.2598C11.9083 19.6338 12.3683 22.695 11.6563 25H6.78712L10.5703 17.2598Z" fill="black"/>
</g>
</svg>
