<svg width="32" height="32" viewBox="0 0 32 32" fill="none" xmlns="http://www.w3.org/2000/svg">
<g id="audio-description-solid">
<path id="Vector" d="M5.59375 7L5.28125 7.28125C5.28125 7.28125 2 10.6016 2 16C2 21.3984 5.28125 24.7188 5.28125 24.7188L5.59375 25H26.4062L26.7188 24.7188C26.7188 24.7188 30 21.3984 30 16C30 10.6016 26.7188 7.28125 26.7188 7.28125L26.4062 7H5.59375ZM6.53125 9H25.4688C25.8047 9.35547 28 11.7305 28 16C28 20.2695 25.8047 22.6445 25.4688 23H6.53125C6.19531 22.6445 4 20.2695 4 16C4 11.7305 6.19531 9.35547 6.53125 9ZM10.375 12L6.375 20H8.625L9.125 19H11V20H13C15.1992 20 17 18.1992 17 16C17 13.8008 15.1992 12 13 12H10.375ZM15.9688 12C17.1953 12.9102 18 14.3594 18 16C18 17.6406 17.1953 19.0898 15.9688 20H18.75C19.543 18.8633 20 17.4883 20 16C20 14.5117 19.543 13.1367 18.75 12H15.9688ZM19.9062 12C20.5898 13.1797 21 14.543 21 16C21 17.457 20.5898 18.8203 19.9062 20H22.1562C22.6914 18.7734 23 17.4219 23 16C23 14.5781 22.6953 13.2266 22.1562 12H19.9062ZM23.25 12C23.7383 13.2422 24 14.5898 24 16C24 17.4102 23.7383 18.7578 23.25 20H25.375C25.7852 18.7383 26 17.3945 26 16C26 14.6055 25.7852 13.2617 25.375 12H23.25ZM13 14C14.1172 14 15 14.8828 15 16C15 17.1172 14.1172 18 13 18V14ZM11 15.25V17H10.125L11 15.25Z" fill="black"/>
</g>
</svg>
