<svg width="32" height="32" viewBox="0 0 32 32" fill="none" xmlns="http://www.w3.org/2000/svg">
<g id="audible">
<path id="Vector" d="M16 8C10.9219 8 6.53516 10.918 4.39844 15.1602C6.66797 12.0391 10.3438 10 14.5 10C19.0391 10 23.0039 12.4297 25.1914 16.0508L27.4805 14.9062C25.2969 10.8008 20.9766 8 16 8ZM16 12C12.2891 12 9.10938 14.2461 7.73047 17.4492C9.27344 15.3594 11.7422 14 14.5312 14C17.4922 14 20.0938 15.5312 21.6094 17.8438L23.9062 16.6914C22.3789 13.8945 19.4102 12 16 12ZM1 15.3789V17.6172C6.22266 20.2266 15.5508 24.8945 15.5508 24.8945L16 25.1172L31 17.6172V15.3828L16 22.8828C7.69141 18.7266 3.3125 16.5391 1 15.3789ZM15.9688 16C13.7734 16 11.9336 17.4336 11.2695 19.4141C12.0859 18.5469 13.2344 18 14.5156 18C15.9141 18 17.1484 18.6523 17.9688 19.6602L20.2656 18.5117C19.4062 17.0195 17.8164 16 15.9688 16Z" fill="black"/>
</g>
</svg>
