<svg width="32" height="32" viewBox="0 0 32 32" fill="none" xmlns="http://www.w3.org/2000/svg">
<g id="avianex">
<path id="Vector" d="M10.6133 4.00195C8.29529 4.00195 6.14761 5.79589 5.72461 8.08789L3.07227 22.5508C2.85527 23.7238 3.12403 24.8375 3.83203 25.6875C4.53603 26.5335 5.57577 27 6.75977 27H21.3848C23.7028 27 25.8485 25.2051 26.2715 22.9121L28.9297 8.45117C29.1427 7.27417 28.8692 6.15859 28.1602 5.30859C27.4562 4.46559 26.4173 4.00195 25.2363 4.00195H10.6133ZM10.6133 6H25.2363C25.8143 6 26.308 6.2098 26.627 6.5918C26.95 6.9778 27.0698 7.5108 26.9648 8.0918L24.3066 22.5508C24.0616 23.8788 22.7228 25 21.3848 25H6.75977C6.18077 25 5.6871 24.7892 5.3711 24.4082C5.0501 24.0232 4.93207 23.4921 5.03907 22.9121L7.69141 8.44922C7.93741 7.12122 9.27428 6 10.6133 6ZM11.416 7.97461L10.9961 8.19922L10.1094 9.5625L13.3535 14.2695L14.3203 15.666C13.7543 16.246 13.2124 16.8175 12.7734 17.3125L10.0371 15.8457L9.29688 16.5703L11.7695 18.8398L13.6836 21.7168L14.5273 21.1172L13.4863 18.0898C14.0763 17.7318 14.7601 17.2845 15.4531 16.8125L20.8965 22L22.4043 21.3633L22.7012 20.9922L18.2266 15.3594L18.0137 15.0156C18.9477 14.3466 19.5947 13.8696 19.6797 13.8086C20.0527 13.4976 19.9777 12.827 19.5527 12.332C19.1187 11.822 18.4665 11.6539 18.1035 11.9609C18.1035 11.9609 17.4248 12.6013 16.5098 13.4883L16.2793 13.2754L11.416 7.97461Z" fill="black"/>
</g>
</svg>
