<svg width="32" height="32" viewBox="0 0 32 32" fill="none" xmlns="http://www.w3.org/2000/svg">
<g id="aviato">
<path id="Vector" d="M3.10938 11L0 17.5703H0.849609L1.80078 15.4805H4.41016L5.34961 17.5703H6.2207L3.10938 11ZM17.5 11L14.3809 17.5605H15.25L16.1992 15.4707H17.4062L17.3203 17.4004C17.3203 17.4004 16.1908 17.7298 16.0508 18.5898C16.0408 18.6098 16.0391 18.6304 16.0391 18.6504L12.8008 18.5508L16.0391 18.9609C16.0391 19.0709 16.0503 19.1693 16.0703 19.2793C16.0803 19.4093 16.1009 19.5206 16.1309 19.6406L4 19L8.42969 19.4609V19.7793C8.13969 19.8193 7.91016 20.0806 7.91016 20.3906C7.91016 20.7306 8.1893 21.0098 8.5293 21.0098C8.8693 21.0098 9.15039 20.7306 9.15039 20.3906C9.15039 20.0806 8.91914 19.8193 8.61914 19.7793V19.4902L12.6406 19.9395V20.2109C12.3606 20.2609 12.1406 20.5203 12.1406 20.8203C12.1406 21.1603 12.4198 21.3301 12.7598 21.3301C13.0998 21.3301 13.3809 21.1603 13.3809 20.8203C13.3809 20.5203 13.1706 20.2609 12.8906 20.2109V19.9609L14.3105 20.1191V21.3105H14.0098V22H14.3105V21.6797H14.5605V22H14.8496V21.3203H14.5605V20.1504L16.4805 20.3691C16.8805 20.9391 17.4199 21.0508 17.4199 21.0508V21.3809L17.1699 21.3906L17.1602 22H17.3594L17.3691 21.75H17.6309L17.6406 22H17.8398L17.8301 21.3906L17.5801 21.3809L17.5703 21.0508C17.5703 21.0508 18.1195 20.9391 18.5195 20.3691L20.4395 20.1504V21.3203H20.1406V22H20.4395V21.6797H20.6895V22H20.9902V21.3203H20.6895V20.1309L22.1094 19.9707V20.2207C21.8294 20.2707 21.6191 20.5303 21.6191 20.8203C21.6191 21.1603 21.8902 21.3301 22.2402 21.3301C22.5802 21.3301 22.8496 21.1603 22.8496 20.8203C22.8496 20.5203 22.6394 20.2707 22.3594 20.2207V19.9395L26.3691 19.4902V19.7793C26.0791 19.8293 25.8496 20.0804 25.8496 20.4004C25.8496 20.7304 26.1307 21.0195 26.4707 21.0195C26.8107 21.0195 27.0898 20.7304 27.0898 20.4004C27.0798 20.0804 26.8505 19.8193 26.5605 19.7793V19.4609L31 19L18.8496 19.6309C18.8896 19.5209 18.9097 19.4093 18.9297 19.2793C18.9397 19.1693 18.9492 19.0692 18.9492 18.9492L22.1895 18.5391L18.9492 18.6406V18.5898C18.7992 17.7198 17.6699 17.4004 17.6699 17.4004L17.5879 15.4707H18.8008L19.75 17.5605H20.6094L17.5 11ZM28.5 11.1406C28.04 11.1406 27.6109 11.2206 27.2109 11.3906C26.8109 11.5706 26.4602 11.6902 26.1602 11.9902C25.8602 12.2902 25.6095 12.6408 25.4395 13.0508C25.2695 13.4408 25.1895 13.8798 25.1895 14.3398C25.1895 14.7998 25.2695 15.2209 25.4395 15.6309C25.6095 16.0309 25.8602 16.3799 26.1602 16.6699C26.4602 16.9799 26.8109 17.2206 27.2109 17.3906C27.6109 17.5606 28.04 17.6504 28.5 17.6504C28.96 17.6504 29.3891 17.5606 29.7891 17.3906C30.1891 17.2206 30.5396 16.9799 30.8496 16.6699C31.1496 16.3799 31.3808 16.0209 31.5508 15.6309C31.7208 15.2209 31.8105 14.7998 31.8105 14.3398C31.8105 13.8798 31.7208 13.4408 31.5508 13.0508C31.3808 12.6408 31.1496 12.2902 30.8496 11.9902C30.5396 11.6802 30.1891 11.5706 29.7891 11.3906C29.3891 11.2206 28.96 11.1406 28.5 11.1406ZM5.89062 11.2109L9.00977 17.7793L12.1094 11.2109H11.2598L9.00977 16.0098L6.75 11.2109H5.89062ZM13.1152 11.2129V17.5703H13.8848V11.2129H13.1152ZM20.0156 11.2129V11.7891H22.084V17.5703H22.9375V11.7891H24.9844V11.2129H20.0156ZM28.5 11.7598C28.84 11.7598 29.1805 11.8209 29.4805 11.9609C29.8005 12.1009 30.0708 12.27 30.3008 12.5C30.5308 12.74 30.7098 13.0105 30.8398 13.3105C30.9698 13.6305 31.0293 13.9698 31.0293 14.3398C31.0293 14.6898 30.9698 15.0296 30.8398 15.3496C30.7098 15.6596 30.5308 15.9402 30.3008 16.1602C30.0708 16.4002 29.8005 16.5809 29.4805 16.7109C29.1805 16.8509 28.84 16.9102 28.5 16.9102C28.15 16.9102 27.8198 16.8509 27.5098 16.7109C27.1998 16.5809 26.9192 16.4002 26.6992 16.1602C26.4692 15.9402 26.2802 15.6596 26.1602 15.3496C26.0302 15.0296 25.9609 14.6998 25.9609 14.3398C25.9609 13.9798 26.0302 13.6305 26.1602 13.3105C26.2802 13.0105 26.4692 12.74 26.6992 12.5C26.9392 12.28 27.1998 12.1009 27.5098 11.9609C27.8198 11.8209 28.15 11.7598 28.5 11.7598ZM3.10938 12.6602L4.08984 14.7891H2.13086L3.10938 12.6602ZM17.5 12.6602L18.4707 14.7891H17.5586L17.5 13.3809L17.4375 14.7891H16.5195L17.5 12.6602Z" fill="black"/>
</g>
</svg>
