<svg width="32" height="32" viewBox="0 0 32 32" fill="none" xmlns="http://www.w3.org/2000/svg">
<g id="award-solid">
<path id="Vector" d="M16 3C15.375 3 14.7539 3.21094 14.2188 3.59375L12.5625 4.75L10.6562 5H10.625L10.5938 5.03125C9.32031 5.31641 8.31641 6.32031 8.03125 7.59375L8 7.625V7.65625L7.75 9.59375L6.59375 11.0938L6.5625 11.125V11.1562C5.86328 12.2734 5.83203 13.7148 6.59375 14.7812L7.78125 16.4375L8.09375 18.1562L4.875 23.0625L3.84375 24.5938H8.625L9.78125 27.2812L10.5 29L11.5312 27.4375L14.6875 22.6875C15.5352 23.0352 16.4922 23.0664 17.3125 22.6875L20.4688 27.4375L21.5 29L22.2188 27.2812L23.375 24.5938H28.1562L27.125 23.0625L24 18.3125L24.25 16.4375L25.4062 14.7812L25.4375 14.75V14.7188C26.1367 13.6016 26.168 12.1914 25.4062 11.125L24.25 9.46875L23.875 7.59375H23.9062C23.9023 7.57031 23.8789 7.55469 23.875 7.53125C23.6953 6.22266 22.6602 5.16016 21.3438 5H21.3125L19.4375 4.75L17.7812 3.59375C17.2461 3.21094 16.625 3 16 3ZM16 5.03125C16.2305 5.03125 16.457 5.10156 16.625 5.21875L18.4062 6.5L18.625 6.65625L18.875 6.6875L21.0625 7H21.0938C21.543 7.05078 21.8555 7.36328 21.9062 7.8125V7.875L22.3125 10.0938L22.3438 10.3125L22.5 10.5L23.7812 12.2812C24.0195 12.6133 24.0508 13.1758 23.75 13.6562L22.3438 15.625L22.3125 15.875L22 18.0625V18.0938C21.9805 18.2578 21.9258 18.4102 21.8438 18.5312L21.7812 18.5625V18.5938C21.6367 18.7656 21.4375 18.8789 21.1875 18.9062H21.125L18.8438 19.3125L18.5938 19.3438L18.4062 19.5L16.625 20.7812C16.293 21.0195 15.6992 21.0508 15.2188 20.75L13.5938 19.5L13.4062 19.3438L13.125 19.3125L10.9375 19H10.9062C10.5977 18.9648 10.3594 18.8047 10.2188 18.5625C10.1562 18.4531 10.1094 18.3242 10.0938 18.1875V18.125L9.6875 15.8438L9.65625 15.5938L9.5 15.4062L8.21875 13.625C7.98047 13.293 7.94922 12.6992 8.25 12.2188L9.5 10.5938L9.65625 10.4062L9.6875 10.125L9.96875 8.03125C9.97266 8.01562 9.99609 8.01562 10 8C10.125 7.51172 10.5117 7.125 11 7C11.0156 6.99609 11.0156 6.97266 11.0312 6.96875L13.125 6.6875L13.375 6.65625L13.5938 6.5L15.375 5.21875C15.543 5.10156 15.7695 5.03125 16 5.03125ZM22.9062 20.25L24.4375 22.5938H22.0312L21.7812 23.2188L21.0938 24.8125L18.9688 21.5625L19.4375 21.2188L21.4062 20.875V20.9062C21.4297 20.9023 21.4453 20.8789 21.4688 20.875C22.0078 20.8008 22.4961 20.5742 22.9062 20.25ZM9.09375 20.2812C9.51953 20.6641 10.0625 20.9297 10.6562 21C10.668 21 10.6758 21 10.6875 21L12.5938 21.25L13.0312 21.5938L10.9062 24.8125L10.2188 23.2188L9.96875 22.5938H7.5625L9.09375 20.2812Z" fill="black"/>
</g>
</svg>
