<svg width="32" height="32" viewBox="0 0 32 32" fill="none" xmlns="http://www.w3.org/2000/svg">
<g id="aws">
<path id="Vector" d="M6.58399 9.00978C5.22399 9.00978 3.84329 9.54009 3.61329 9.83009C3.55329 9.95009 3.41415 10.9199 3.74415 10.9199C3.85415 10.9199 3.90461 10.9391 4.22461 10.7891C5.42461 10.3191 6.18493 10.3301 6.29493 10.3301C7.64493 10.2001 8.42469 11.1206 8.30469 12.3106V13.0098C7.16469 12.7398 6.51336 12.7305 6.19336 12.7305C4.53336 12.6305 3 13.5057 3 15.4297C3 17.5397 4.88329 17.9909 5.61329 17.961C6.70329 17.971 7.7436 17.4809 8.4336 16.6309C8.9836 17.8609 9.33375 17.7793 9.34375 17.7793C9.44376 17.7793 9.52352 17.7395 9.60352 17.6895L10.1738 17.2891C10.2738 17.2291 10.3533 17.1298 10.3633 17.0098C10.3533 16.7198 9.83305 16.2698 9.87305 15.2598V12.1406C9.93305 11.2806 9.65422 10.4391 9.07422 9.78908C8.38422 9.20908 7.47399 8.92978 6.58399 9.00978ZM25.957 9.00978C23.957 9.00978 22.8079 10.2593 22.8379 11.5293C22.8379 13.2693 24.5969 13.8209 24.7969 13.8809C26.4869 14.4109 26.7175 14.4301 27.1875 14.8301C27.5875 15.2401 27.5373 16.0406 26.9473 16.3906C26.7773 16.4906 26.0465 16.9299 24.3965 16.5899C23.8465 16.4799 23.5574 16.3502 23.1074 16.1602C22.9874 16.1202 22.707 16.0499 22.707 16.4199V16.9102C22.707 17.1402 22.8466 17.3492 23.0566 17.4492C24.1066 17.9792 25.3667 18 25.6367 18C25.6767 18 27.9761 18.0012 28.7461 16.4492C28.9051 16.1292 29.3169 14.961 28.5469 13.961C27.9069 13.211 27.3568 13.1309 25.7168 12.6309C25.5768 12.5909 24.367 12.2797 24.377 11.4297C24.317 10.3397 25.7974 10.2808 26.1074 10.3008C27.3574 10.2808 27.9764 10.7493 28.3164 10.7793C28.4664 10.7793 28.5371 10.6902 28.5371 10.4902V10.0293C28.5471 9.91931 28.5073 9.81072 28.4473 9.72072C28.0473 9.20072 26.517 9.00978 25.957 9.00978ZM10.7773 9.25978C10.6673 9.27978 10.5874 9.39001 10.6074 9.50001C10.6274 9.63001 10.6473 9.76064 10.6973 9.89064L12.9375 17.2793C12.9875 17.5193 13.1461 17.7802 13.4961 17.7402H14.3164C14.8164 17.7902 14.8865 17.3098 14.8965 17.2598L16.3672 11.0996L17.8574 17.2695C17.8674 17.3195 17.9377 17.8 18.4277 17.75H19.2578C19.6178 17.79 19.7879 17.5291 19.8379 17.2891C22.3579 9.17908 22.187 9.7304 22.207 9.6504C22.247 9.2304 22.0068 9.25954 21.9668 9.26954H21.0762C20.6262 9.21955 20.5376 9.63048 20.5176 9.73048L18.8574 16.1406L17.3574 9.73048C17.2874 9.24048 16.8871 9.25954 16.7871 9.26954H16.0176C15.5776 9.22954 15.4675 9.58048 15.4375 9.73048L13.9473 16.0508L12.3477 9.73048C12.3077 9.53048 12.1771 9.21978 11.7871 9.25978H10.7773ZM6.52344 13.8906C7.24344 13.9006 7.86493 14.0094 8.29493 14.1094C8.29493 14.6094 8.31313 14.8899 8.20313 15.3399C8.06313 15.8199 7.44438 16.691 5.98438 16.711C5.14438 16.751 4.59454 16.0899 4.64454 15.3399C4.59454 14.1399 5.83344 13.8406 6.52344 13.8906ZM29.041 20.002C28.1076 20.015 27.0059 20.2241 26.1699 20.8106C25.9119 20.9896 25.9571 21.2381 26.2441 21.2051C27.1841 21.0921 29.2764 20.8384 29.6504 21.3164C30.0254 21.7944 29.2357 23.7664 28.8867 24.6485C28.7787 24.9114 29.0071 25.0203 29.2481 24.8203C30.8121 23.5103 31.2184 20.7642 30.8984 20.3692C30.7379 20.1717 29.9744 19.989 29.041 20.002ZM1.2168 21.002C0.998739 21.032 0.904817 21.3084 1.13282 21.5274C5.04982 25.2014 10.2257 27 15.9727 27C20.0717 27 24.8302 25.6626 28.1152 23.1426C28.6582 22.7236 28.1957 22.0958 27.6387 22.3438C23.9557 23.9688 19.9555 24.752 16.3145 24.752C10.9185 24.752 5.69475 23.6254 1.46875 21.0664C1.37625 21.0104 1.28949 20.992 1.2168 21.002Z" fill="black"/>
</g>
</svg>
