<svg width="32" height="32" viewBox="0 0 32 32" fill="none" xmlns="http://www.w3.org/2000/svg">
<g id="baby-solid">
<path id="Vector" d="M16 2C13.8008 2 12 3.80078 12 6C12 8.19922 13.8008 10 16 10C18.1992 10 20 8.19922 20 6C20 3.80078 18.1992 2 16 2ZM16 4C17.1172 4 18 4.88281 18 6C18 7.11719 17.1172 8 16 8C14.8828 8 14 7.11719 14 6C14 4.88281 14.8828 4 16 4ZM16 11C9.33203 11 6.09375 17.5625 6.09375 17.5625L7.90625 18.4375C7.90625 18.4375 9.30078 15.7148 12 14.125V20.2188C11.5938 20.3633 11.0625 20.582 10.4688 20.9062C9.92969 21.1992 9.37891 21.5781 8.90625 22.0938C8.43359 22.6094 8.02734 23.3008 8 24.125C7.95312 25.6836 8.83203 27.0859 9.625 28.25C10.418 29.4141 11.2188 30.3125 11.2188 30.3125L12.7188 28.9375C12.7188 28.9375 11.9883 28.1602 11.2812 27.125C10.5742 26.0898 9.98047 24.7695 10 24.1875C10.0078 23.9453 10.1211 23.7148 10.375 23.4375C10.6289 23.1602 11.0234 22.8828 11.4375 22.6562C11.8516 22.4297 12.2539 22.2695 12.5625 22.1562C13.1289 22.9141 14.2344 24 16 24C17.7383 24 18.8281 22.9453 19.4062 22.1875C19.707 22.3008 20.0703 22.4531 20.4375 22.6562C20.8555 22.8828 21.2539 23.1641 21.5 23.4375C21.7461 23.7109 21.8438 23.9453 21.8438 24.1875C21.8438 24.8086 21.2266 26.0898 20.5312 27.0938C19.8359 28.0977 19.1562 28.8438 19.1562 28.8438L20.5938 30.2188C20.5938 30.2188 21.4023 29.3516 22.1875 28.2188C22.9727 27.0859 23.8438 25.7227 23.8438 24.1875C23.8438 23.3516 23.4414 22.6172 22.9688 22.0938C22.4961 21.5703 21.9492 21.2031 21.4062 20.9062C20.8984 20.6289 20.3945 20.4258 20 20.2812V14.125C22.6992 15.7148 24.0938 18.4375 24.0938 18.4375L25.9062 17.5625C25.9062 17.5625 22.668 11 16 11ZM16 13C16.7148 13 17.3789 13.082 18 13.25V20.6875C17.8906 20.8945 17.293 22 16 22C14.707 22 14.1094 20.8945 14 20.6875V13.25C14.6211 13.082 15.2852 13 16 13Z" fill="black"/>
</g>
</svg>
