<svg width="32" height="32" viewBox="0 0 32 32" fill="none" xmlns="http://www.w3.org/2000/svg">
<g id="bacon-solid">
<path id="Vector" d="M10.4375 5C7.61719 5 5.34375 7.25 5.34375 7.25L5 7.5625V15H6.4375L6.71875 14.7812C6.90234 14.6367 7.48438 14.1719 8.21875 13.75C8.95312 13.3281 9.82422 13 10.4375 13C11.2773 13 11.9844 13.2148 12.8438 13.4688C13.7031 13.7227 14.7148 14 16 14C17.2852 14 18.2578 13.7188 19.0938 13.4688C19.9297 13.2188 20.6328 13 21.5625 13C22.3008 13 23.1875 13.3516 23.9062 13.7812C24.625 14.2109 25.1172 14.6367 25.25 14.75L25.5312 15H27V7.5625L26.6562 7.25C26.6562 7.25 24.3828 5 21.5625 5C20.3008 5 19.332 5.28125 18.5 5.53125C17.668 5.78125 16.9609 6 16 6C15.0391 6 14.332 5.78125 13.5 5.53125C12.668 5.28125 11.6992 5 10.4375 5ZM10.4375 7C11.3984 7 12.1055 7.21875 12.9375 7.46875C13.7695 7.71875 14.7383 8 16 8C17.2617 8 18.2305 7.71875 19.0625 7.46875C19.8945 7.21875 20.6016 7 21.5625 7C22.9609 7 24.5352 8.14453 25 8.5V9.15625C24.9414 9.12109 24.9062 9.09766 24.8438 9.0625C23.9648 8.53906 22.8008 8 21.5625 8C20.4023 8 19.5195 8.28125 18.6875 8.53125C17.8555 8.78125 17.0625 9 16 9C14.9375 9 14.1016 8.78125 13.25 8.53125C12.3984 8.28125 11.5273 8 10.4375 8C9.26562 8 8.11719 8.54297 7.21875 9.0625C7.125 9.11719 7.08594 9.16406 7 9.21875V8.5C7.46484 8.14453 9.03906 7 10.4375 7ZM10.4375 9C11.3594 9 12.1133 9.21875 12.9688 9.46875C13.8242 9.71875 14.7891 10 16 10C17.2109 10 18.1328 9.71875 18.9688 9.46875C19.8047 9.21875 20.5547 9 21.5625 9C22.4922 9 23.543 9.46094 24.3438 9.9375C24.6133 10.0977 24.8047 10.2344 25 10.375V12.0938C24.9688 12.0742 24.9688 12.082 24.9375 12.0625C24.0508 11.5352 22.8906 11 21.5625 11C20.3242 11 19.3633 11.2812 18.5312 11.5312C17.6992 11.7812 16.9922 12 16 12C15.0078 12 14.2539 11.7773 13.4062 11.5312C12.5586 11.2852 11.6094 11 10.4375 11C9.20312 11 8.10547 11.5234 7.21875 12.0312C7.10547 12.0977 7.10547 12.1211 7 12.1875V10.4062C7.21875 10.2617 7.42188 10.1094 7.71875 9.9375C8.54297 9.45703 9.59766 9 10.4375 9ZM10.4375 17C7.61719 17 5.34375 19.25 5.34375 19.25L5 19.5625V27H6.4375L6.71875 26.7812C6.90234 26.6367 7.48438 26.1719 8.21875 25.75C8.95312 25.3281 9.82422 25 10.4375 25C11.2773 25 11.9844 25.2148 12.8438 25.4688C13.7031 25.7227 14.7148 26 16 26C17.2852 26 18.2578 25.7188 19.0938 25.4688C19.9297 25.2188 20.6328 25 21.5625 25C22.3008 25 23.1875 25.3516 23.9062 25.7812C24.625 26.2109 25.1172 26.6367 25.25 26.75L25.5312 27H27V19.5625L26.6562 19.25C26.6562 19.25 24.3828 17 21.5625 17C20.3008 17 19.332 17.2812 18.5 17.5312C17.668 17.7812 16.9609 18 16 18C15.0391 18 14.332 17.7812 13.5 17.5312C12.668 17.2812 11.6992 17 10.4375 17ZM10.4375 19C11.3984 19 12.1055 19.2188 12.9375 19.4688C13.7695 19.7188 14.7383 20 16 20C17.2617 20 18.2305 19.7188 19.0625 19.4688C19.8945 19.2188 20.6016 19 21.5625 19C22.9609 19 24.5352 20.1445 25 20.5V22.1562C24.9414 22.1211 24.9062 22.0977 24.8438 22.0625C23.9648 21.5391 22.8008 21 21.5625 21C20.4023 21 19.5195 21.2812 18.6875 21.5312C17.8555 21.7812 17.0625 22 16 22C14.9375 22 14.1016 21.7812 13.25 21.5312C12.3984 21.2812 11.5273 21 10.4375 21C9.26562 21 8.11719 21.543 7.21875 22.0625C7.125 22.1172 7.08594 22.1641 7 22.2188V20.5C7.46484 20.1445 9.03906 19 10.4375 19ZM10.4375 22C11.3594 22 12.1133 22.2188 12.9688 22.4688C13.8242 22.7188 14.7891 23 16 23C17.2109 23 18.1328 22.7188 18.9688 22.4688C19.8047 22.2188 20.5547 22 21.5625 22C22.4922 22 23.543 22.4609 24.3438 22.9375C24.6133 23.0977 24.8047 23.2344 25 23.375V24.0938C24.9688 24.0742 24.9688 24.082 24.9375 24.0625C24.0508 23.5352 22.8906 23 21.5625 23C20.3242 23 19.3633 23.2812 18.5312 23.5312C17.6992 23.7812 16.9922 24 16 24C15.0078 24 14.2539 23.7773 13.4062 23.5312C12.5586 23.2852 11.6094 23 10.4375 23C9.20312 23 8.10547 23.5234 7.21875 24.0312C7.10547 24.0977 7.10547 24.1211 7 24.1875V23.4062C7.21875 23.2617 7.42188 23.1094 7.71875 22.9375C8.54297 22.457 9.59766 22 10.4375 22Z" fill="black"/>
</g>
</svg>
