<svg width="32" height="32" viewBox="0 0 32 32" fill="none" xmlns="http://www.w3.org/2000/svg">
<g id="balance-scale-right-solid">
<path id="Vector" d="M8.47656 5.10938L7.49023 6.87695L3 14.7344V15C3 17.757 5.243 20 8 20C10.757 20 13 17.757 13 15V14.7344L8.78906 7.36328L13.0059 8.94531C13.0055 8.96398 13 8.98125 13 9C13 10.3016 13.8387 11.4021 15 11.8164V24H11V26H15H17V24V11.8164C17.5017 11.6374 17.9368 11.3299 18.2754 10.9316L22.9902 12.7656L19 19.75V20.0156C19 22.7716 21.243 25 24 25C26.757 25 29 22.7716 29 20.0156V19.75L24 11L18.9941 9.0625C18.9946 9.04121 19 9.0214 19 9C19 7.346 17.654 6 16 6C15.0818 6 14.2695 6.42412 13.7188 7.07617L8.47656 5.10938ZM16 8C16.552 8 17 8.449 17 9C17 9.551 16.552 10 16 10C15.448 10 15 9.551 15 9C15 8.449 15.448 8 16 8ZM8 10.0156L10.2773 14H5.72266L8 10.0156ZM24 15.0312L26.2676 19H21.7324L24 15.0312ZM5.18555 16H10.8145C10.4002 17.1616 9.30217 18 8 18C6.69783 18 5.59979 17.1616 5.18555 16ZM21.1797 21H26.8203C26.4105 22.1699 25.3081 23.0156 24 23.0156C22.6919 23.0156 21.5895 22.1699 21.1797 21Z" fill="black"/>
</g>
</svg>
