<svg width="32" height="32" viewBox="0 0 32 32" fill="none" xmlns="http://www.w3.org/2000/svg">
<g id="balance-scale-solid">
<path id="Vector" d="M16 5C14.707 5 13.6055 5.84375 13.1875 7H6V9H7.40625L7.125 9.5L3.125 16.5L3 16.75V17C3 19.75 5.25 22 8 22C10.75 22 13 19.75 13 17V16.75L12.875 16.5L8.875 9.5L8.59375 9H13.1875C13.4922 9.84375 14.1562 10.5078 15 10.8125V24H11V26H21V24H17V10.8125C17.8398 10.5078 18.5078 9.83984 18.8125 9H23.4062L23.125 9.5L19.125 16.5L19 16.75V17C19 19.75 21.25 22 24 22C26.75 22 29 19.75 29 17V16.75L28.875 16.5L24.875 9.5L24.5938 9H26V7H18.8125C18.3945 5.84375 17.293 5 16 5ZM16 7C16.5625 7 17 7.4375 17 8C17 8.5625 16.5625 9 16 9C15.4375 9 15 8.5625 15 8C15 7.4375 15.4375 7 16 7ZM8 12.0312L10.2812 16H5.71875L8 12.0312ZM24 12.0312L26.2812 16H21.7188L24 12.0312ZM5.25 18H10.75C10.3477 19.1602 9.30469 20 8 20C6.69531 20 5.65234 19.1602 5.25 18ZM21.25 18H26.75C26.3477 19.1602 25.3047 20 24 20C22.6953 20 21.6523 19.1602 21.25 18Z" fill="black"/>
</g>
</svg>
