<svg width="32" height="32" viewBox="0 0 32 32" fill="none" xmlns="http://www.w3.org/2000/svg">
<g id="balance-scale-left-solid">
<path id="Vector" d="M23.5234 5.10938L18.2812 7.07617C17.7305 6.42412 16.9182 6 16 6C14.346 6 13 7.346 13 9C13 9.0214 13.0054 9.04121 13.0059 9.0625L8 11L3 19.75V20.0156C3 22.7716 5.243 25 8 25C10.757 25 13 22.7716 13 20.0156V19.75L9.00977 12.7656L13.7246 10.9316C14.0632 11.3299 14.4983 11.6374 15 11.8164V24V26H17H21V24H17V11.8164C18.1613 11.4021 19 10.3016 19 9C19 8.98125 18.9945 8.96398 18.9941 8.94531L23.2109 7.36328L19 14.7344V15C19 17.757 21.243 20 24 20C26.757 20 29 17.757 29 15V14.7344L24.5098 6.87695L23.5234 5.10938ZM16 8C16.552 8 17 8.449 17 9C17 9.551 16.552 10 16 10C15.448 10 15 9.551 15 9C15 8.449 15.448 8 16 8ZM24 10.0156L26.2773 14H21.7227L24 10.0156ZM8 15.0312L10.2676 19H5.73242L8 15.0312ZM21.1855 16H26.8145C26.4002 17.1616 25.3022 18 24 18C22.6978 18 21.5998 17.1616 21.1855 16ZM5.17969 21H10.8203C10.41 22.169 9.30742 23.0156 8 23.0156C6.69258 23.0156 5.58996 22.169 5.17969 21Z" fill="black"/>
</g>
</svg>
