<svg width="32" height="32" viewBox="0 0 32 32" fill="none" xmlns="http://www.w3.org/2000/svg">
<g id="ban-solid">
<path id="Vector" d="M16 3C8.83203 3 3 8.83203 3 16C3 23.168 8.83203 29 16 29C23.168 29 29 23.168 29 16C29 8.83203 23.168 3 16 3ZM16 5C22.0859 5 27 9.91406 27 16C27 18.7266 26.0117 21.207 24.375 23.125L9.03125 7.46875C10.9258 5.91797 13.3516 5 16 5ZM7.625 8.875L22.9688 24.5312C21.0742 26.082 18.6484 27 16 27C9.91406 27 5 22.0859 5 16C5 13.2734 5.98828 10.793 7.625 8.875Z" fill="black"/>
</g>
</svg>
