<svg width="32" height="32" viewBox="0 0 32 32" fill="none" xmlns="http://www.w3.org/2000/svg">
<g id="band-aid-solid">
<path id="Vector" d="M19.8438 3.00001C19.4922 3.01563 19.1875 3.09376 19.1875 3.09376L18.9688 3.18751L3.18751 18.9688L3.09376 19.1875C3.09376 19.1875 3.01563 19.4922 3.00001 19.8438C2.98438 20.1953 3.02735 20.6992 3.18751 21.2813C3.50391 22.4453 4.3047 23.9922 6.15626 25.8438C8.00782 27.6953 9.5547 28.4961 10.7188 28.8125C11.3008 28.9727 11.8047 29.0156 12.1563 29C12.5078 28.9844 12.8125 28.9063 12.8125 28.9063L13.0313 28.8125L28.8125 13.0313L28.9063 12.8125C28.9063 12.8125 28.9844 12.5078 29 12.1563C29.0156 11.8047 28.9727 11.3008 28.8125 10.7188C28.4961 9.5547 27.6953 8.00782 25.8438 6.15626C23.9922 4.3047 22.4453 3.50391 21.2813 3.18751C20.6992 3.02735 20.1953 2.98438 19.8438 3.00001ZM19.9375 5.00001H19.9688C20.125 4.9961 20.3789 5.02345 20.75 5.12501C21.5195 5.33595 22.7774 5.89845 24.4375 7.56251L24.5313 7.68751C26.0899 9.28126 26.6719 10.5039 26.875 11.25C26.9766 11.6211 27.0039 11.875 27 12.0313C27 12.0391 27 12.0586 27 12.0625L12.0625 27C12.0586 27 12.0391 27 12.0313 27C11.875 27.0039 11.6211 26.9766 11.25 26.875C10.4805 26.6641 9.22266 26.1016 7.56251 24.4375L7.43751 24.2813C5.90626 22.707 5.32813 21.4922 5.12501 20.75C5.02345 20.3789 4.9961 20.125 5.00001 19.9688C5.00001 19.9609 5.00001 19.9414 5.00001 19.9375L19.9375 5.00001ZM19 9.00001C18.4492 9.00001 18 9.44923 18 10C18 10.5508 18.4492 11 19 11C19.5508 11 20 10.5508 20 10C20 9.44923 19.5508 9.00001 19 9.00001ZM22 9.00001C21.4492 9.00001 21 9.44923 21 10C21 10.5508 21.4492 11 22 11C22.5508 11 23 10.5508 23 10C23 9.44923 22.5508 9.00001 22 9.00001ZM16.2188 11.7813L14.7813 13.2188L18.7813 17.2188L20.2188 15.7813L16.2188 11.7813ZM22 12C21.4492 12 21 12.4492 21 13C21 13.5508 21.4492 14 22 14C22.5508 14 23 13.5508 23 13C23 12.4492 22.5508 12 22 12ZM13.2188 14.7813L11.7813 16.2188L15.7813 20.2188L17.2188 18.7813L13.2188 14.7813ZM10 18C9.44923 18 9.00001 18.4492 9.00001 19C9.00001 19.5508 9.44923 20 10 20C10.5508 20 11 19.5508 11 19C11 18.4492 10.5508 18 10 18ZM10 21C9.44923 21 9.00001 21.4492 9.00001 22C9.00001 22.5508 9.44923 23 10 23C10.5508 23 11 22.5508 11 22C11 21.4492 10.5508 21 10 21ZM13 21C12.4492 21 12 21.4492 12 22C12 22.5508 12.4492 23 13 23C13.5508 23 14 22.5508 14 22C14 21.4492 13.5508 21 13 21Z" fill="black"/>
</g>
</svg>
