<svg width="32" height="32" viewBox="0 0 32 32" fill="none" xmlns="http://www.w3.org/2000/svg">
<g id="basketball-ball-solid">
<path id="Vector" d="M16 3C8.83203 3 3 8.83203 3 16C3 23.168 8.83203 29 16 29C23.168 29 29 23.168 29 16C29 8.83203 23.168 3 16 3ZM14.875 5.0625C14.918 5.05859 14.957 5.06641 15 5.0625V15H11.9375C11.7227 12.1875 10.6289 9.62109 8.90625 7.59375C10.5508 6.20312 12.6055 5.29297 14.875 5.0625ZM17 5.0625C19.3164 5.26953 21.418 6.17578 23.0938 7.59375C21.3711 9.62109 20.2773 12.1875 20.0625 15H17V5.0625ZM7.5 9.03125C8.86719 10.6875 9.73047 12.7383 9.9375 15H5.0625C5.26562 12.7383 6.14062 10.6875 7.5 9.03125ZM24.5 9.03125C25.8594 10.6875 26.7344 12.7383 26.9375 15H22.0625C22.2695 12.7383 23.1328 10.6875 24.5 9.03125ZM5.0625 17H9.9375C9.73047 19.2617 8.86719 21.3125 7.5 22.9688C6.14062 21.3125 5.26562 19.2617 5.0625 17ZM11.9375 17H15V26.9375C12.6836 26.7305 10.582 25.8242 8.90625 24.4062C10.6289 22.3789 11.7227 19.8125 11.9375 17ZM17 17H20.0625C20.2773 19.8125 21.3711 22.3789 23.0938 24.4062C21.418 25.8242 19.3164 26.7305 17 26.9375V17ZM22.0625 17H26.9375C26.7344 19.2617 25.8594 21.3125 24.5 22.9688C23.1328 21.3125 22.2695 19.2617 22.0625 17Z" fill="black"/>
</g>
</svg>
