<svg width="32" height="32" viewBox="0 0 32 32" fill="none" xmlns="http://www.w3.org/2000/svg">
<g id="bath-solid">
<path id="Vector" d="M26 4C23.7891 4 22 5.78906 22 8H20V10H26V8H24C24 6.80859 24.8086 6 26 6C27.1914 6 28 6.80859 28 8V14H1V16H2.1875L3.71875 23.5938V23.625C3.94922 24.6562 4.71484 25.5039 5.71875 25.8438L5 28H7L7.65625 26H24.3438L25 28H27L26.2812 25.8438C27.3281 25.5234 28.1406 24.6836 28.375 23.625V23.5938L29.8125 16H31V14H30V8C30 5.78906 28.2109 4 26 4ZM4.21875 16H27.8125L26.4062 23.2188C26.2891 23.6523 25.9219 24 25.4062 24H6.6875C6.15234 24 5.78906 23.6445 5.6875 23.1875L4.21875 16Z" fill="black"/>
</g>
</svg>
