<svg width="32" height="32" viewBox="0 0 32 32" fill="none" xmlns="http://www.w3.org/2000/svg">
<g id="battle-net">
<path id="Vector" d="M26.5781 14.3398C26.5781 14.3398 28.8828 14.457 28.8828 13.1016C28.8828 11.332 25.8125 9.73828 25.8125 9.73828C25.8125 9.73828 26.293 8.71875 26.5937 8.14844C26.8945 7.57813 27.7383 5.35938 27.8125 4.85156C27.9062 4.21094 27.7617 4.01172 27.7617 4.01172C27.5547 5.37891 25.3281 9.31641 25.1484 9.44922C22.9765 8.43359 19.9922 8.14844 19.9922 8.14844C19.9922 8.14844 17.0703 2 14.3203 2C11.5937 2 11.6094 7.26562 11.6094 7.26562C11.6094 7.26562 10.8398 5.77344 9.87108 5.77344C8.45702 5.77344 7.99217 7.90625 7.99217 10.2227C5.20311 10.2227 2.85546 10.8477 2.64452 10.9062C2.43749 10.9648 1.77733 11.4453 2.0742 11.3867C2.68749 11.1914 5.55467 10.7461 8.06249 10.9648C8.20311 13.1641 9.48827 16.0312 9.48827 16.0312C9.48827 16.0312 6.73046 20.0234 6.73046 22.8711C6.73046 23.6211 7.05858 24.9922 9.03514 24.9922C10.6953 24.9922 12.5586 23.9961 12.9062 23.7969C12.6015 24.2305 12.375 25.0625 12.375 25.4453C12.375 25.7578 12.5625 26.6445 13.8398 26.6445C15.4805 26.6445 17.3164 25.3867 17.3164 25.3867C17.3164 25.3867 19.0508 28.2617 20.5312 29.5781C20.9297 29.9336 21.3125 30 21.3125 30C21.3125 30 19.8398 28.5859 17.9023 24.9375C19.7031 23.8281 21.5781 21.2031 21.5781 21.2031C21.5781 21.2031 21.8008 21.2109 23.5117 21.2109C26.1914 21.2109 29.9961 20.6484 29.9961 18.5195C30 16.3242 26.5781 14.3398 26.5781 14.3398ZM26.875 13.0156C26.875 13.793 26.1367 13.7852 26.1367 13.7852L25.5742 13.8203C25.5742 13.8203 24.5078 13.2617 23.8594 12.9961C23.8594 12.9961 24.8633 11.4531 25.0976 11.0234C25.2734 11.1289 26.875 12.1289 26.875 13.0156ZM15.6601 5.09766C16.9219 5.09766 18.7187 8.06641 18.7187 8.06641C18.7187 8.06641 15.914 7.81641 13.6055 9.17188C13.668 7.03516 14.3867 5.09766 15.6601 5.09766ZM10.6719 7.50391C11.0703 7.50391 11.4609 7.99219 11.625 8.40234C11.625 8.67578 11.7656 10.2695 11.7656 10.2695L9.45311 10.1797C9.45311 8.09766 10.2695 7.50391 10.6719 7.50391ZM10.4297 21.9766C9.16405 21.9766 8.90624 21.2734 8.90624 20.6406C8.90624 19.207 10.0508 17.1992 10.0508 17.1992C10.0508 17.1992 11.3359 19.8984 13.5742 21.0352C12.4648 21.6875 11.5469 21.9766 10.4297 21.9766ZM14.5351 24.8008C13.6484 24.8008 13.539 24.2266 13.539 24.0938C13.539 23.6836 13.8633 23.1953 13.8633 23.1953C13.8633 23.1953 15.3515 22.1914 15.4453 22.082L16.5469 24.1367C16.5469 24.1367 15.4219 24.8008 14.5351 24.8008ZM17.3008 23.6836C16.7617 22.7422 16.3633 21.7578 16.3633 21.7578C16.3633 21.7578 18.5781 21.8984 19.7695 20.6719C19.0273 21.0039 17.8437 21.4258 16.4687 21.2969C19.3437 18.7656 21.0234 16.9297 22.4414 15.0352C22.3203 14.8867 21.6719 14.4336 21.5117 14.3594C20.6562 15.3906 17.3242 18.9492 14.2383 20.7109C10.332 18.582 9.51171 12.3203 9.42967 11.0195L11.5625 11.2227C11.5625 11.2227 10.7617 12.6445 10.7617 13.6914C10.7617 14.7344 10.8867 14.7891 10.8867 14.7891C10.8867 14.7891 10.8594 12.9688 11.9844 11.5625C12.8437 16.125 13.7383 18.4609 14.4336 19.8555C14.789 19.707 15.4492 19.4141 15.4492 19.4141C15.4492 19.4141 13.4805 13.7383 13.5898 9.89844C14.4844 9.42188 15.8086 8.92969 17.3008 8.92969C21.2305 8.92969 24.3906 10.6172 24.3906 10.6172L23.1562 12.3438C23.1562 12.3438 22.0547 10.3516 20.4961 9.99609C21.3164 10.6055 22.2383 11.4141 22.7148 12.5742C19.457 11.3047 15.5273 10.6328 14.2656 10.4844C14.1562 10.9492 14.1719 11.6133 14.1719 11.6133C14.1719 11.6133 19.4414 12.5859 23.2773 14.7773C23.25 19.5742 18.0234 23.2578 17.3008 23.6836ZM22.293 20.0977C22.293 20.0977 23.9297 17.9531 23.9023 15.1094C23.9023 15.1094 26.5469 16.7461 26.5469 18.3438C26.5469 20.125 22.293 20.0977 22.293 20.0977Z" fill="black"/>
</g>
</svg>
