<svg width="32" height="32" viewBox="0 0 32 32" fill="none" xmlns="http://www.w3.org/2000/svg">
<g id="bed-solid">
<path id="Vector" d="M6 6C4.35547 6 3 7.35547 3 9V15.7812C2.39062 16.332 2 17.1211 2 18V27H7V25H25V27H30V18C30 17.1211 29.6094 16.332 29 15.7812V9C29 7.35547 27.6445 6 26 6H6ZM6 8H26C26.5547 8 27 8.44531 27 9V15H25V14C25 12.3555 23.6445 11 22 11H18C17.2344 11 16.5312 11.3008 16 11.7812C15.4688 11.3008 14.7656 11 14 11H10C8.35547 11 7 12.3555 7 14V15H5V9C5 8.44531 5.44531 8 6 8ZM10 13H14C14.5547 13 15 13.4453 15 14V15H9V14C9 13.4453 9.44531 13 10 13ZM18 13H22C22.5547 13 23 13.4453 23 14V15H17V14C17 13.4453 17.4453 13 18 13ZM5 17H27C27.5547 17 28 17.4453 28 18V25H27V23H5V25H4V18C4 17.4453 4.44531 17 5 17Z" fill="black"/>
</g>
</svg>
