<svg width="32" height="32" viewBox="0 0 32 32" fill="none" xmlns="http://www.w3.org/2000/svg">
<g id="behance">
<path id="Vector" d="M1 6.75V25.25H9.9375C10.7656 25.25 16.4688 25.082 16.4688 19.875C16.4688 16.6211 14.2305 15.5156 13.0938 15.1875C13.9297 14.793 15.5938 13.8555 15.5938 11.3438C15.5938 9.94531 15.3945 6.75 9.6875 6.75H1ZM21.375 8.46875V10.1562H28.2812V8.46875H21.375ZM5.0625 9.90625H8.875C9.23438 9.90625 11.6562 9.71484 11.6562 12.0312C11.6562 14.0117 9.90625 14.2188 9.1875 14.2188H5.0625V9.90625ZM25 11.6875C19.7773 11.6875 18.6875 16.2227 18.6875 18.1875C18.6875 24.0195 23.4688 24.6875 25 24.6875C29.1289 24.6875 30.3008 22.0156 30.7812 20.5312H27.7812C27.6641 20.9141 26.7891 22.1562 25.125 22.1562C22.3359 22.1562 22.0938 19.9766 22.0938 19H30.9688C31.1484 15.625 29.6719 11.6875 25 11.6875ZM24.9062 14.2188C25.7383 14.2188 26.4102 14.4609 26.8125 14.9062C27.2148 15.3555 27.5117 16.0117 27.5938 16.875H22.0938C22.1094 16.6367 22.1641 16.3633 22.25 16.0625C22.3359 15.7539 22.4688 15.4609 22.6875 15.1875C22.9062 14.918 23.2109 14.6836 23.5625 14.5C23.9219 14.3125 24.3672 14.2188 24.9062 14.2188ZM5.0625 17H9.46875C10.3438 17 12.4062 17.1367 12.4062 19.6562C12.4062 22.0977 9.80859 22.0938 9.40625 22.0938H5.0625V17Z" fill="black"/>
</g>
</svg>
