<svg width="32" height="32" viewBox="0 0 32 32" fill="none" xmlns="http://www.w3.org/2000/svg">
<g id="behance-square">
<path id="Vector" d="M5 5V27H27V5H5ZM7 7H25V25H7V7ZM9 11.3691V19.9805H13.1797C14.7397 19.9705 16.2109 19.2207 16.2109 17.4707C16.2109 16.3807 15.6906 15.4602 14.6406 15.1602C15.4106 14.7802 15.8105 14.36 15.8105 13.5C15.8105 11.78 14.5405 11.3691 13.0605 11.3691H9ZM18.1406 12V12.8496H21.6191V12H18.1406ZM10.9004 12.6895H12.6797C13.3497 12.6895 13.9707 12.8799 13.9707 13.6699C13.9707 14.3999 13.4905 14.6992 12.8105 14.6992H10.9004V12.6895ZM19.9609 13.4297C18.0709 13.4297 16.7793 14.8407 16.7793 16.7207C16.7793 18.6607 17.9909 20 19.9609 20C21.4509 20 22.4209 19.3304 22.8809 17.9004H21.3691C21.1991 18.4304 20.5395 18.7109 20.0195 18.7109C19.0095 18.7109 18.4902 18.1209 18.4902 17.1309H22.9805C22.9905 17.0309 23 16.9108 23 16.8008C23 14.9608 21.9109 13.4297 19.9609 13.4297ZM19.9004 14.7109C20.7704 14.7109 21.1995 15.2208 21.2695 16.0508H18.4902C18.5402 15.2308 19.0804 14.7109 19.9004 14.7109ZM10.8906 16.1309H12.9609C13.7909 16.1309 14.3203 16.4791 14.3203 17.3691C14.3203 18.2291 13.6899 18.5 12.9199 18.5H10.8906V16.1309Z" fill="black"/>
</g>
</svg>
