<svg width="32" height="32" viewBox="0 0 32 32" fill="none" xmlns="http://www.w3.org/2000/svg">
<g id="bell-slash">
<path id="Vector" d="M3.71875 2.28125L2.28125 3.71875L28.2812 29.7188L29.7188 28.2812L26 24.5625V23H25C24.4492 23 24 22.5508 24 22V13.2812C24 9.45312 21.418 6.20312 17.9688 5.28125C17.9805 5.1875 18 5.09766 18 5C18 3.89453 17.1055 3 16 3C14.8945 3 14 3.89453 14 5C14 5.08594 14.0195 5.16797 14.0312 5.25C12.6914 5.58984 11.457 6.26172 10.4375 7.25C10.1367 7.53906 9.87109 7.86328 9.625 8.1875L3.71875 2.28125ZM15.5625 7C15.7656 6.98438 15.9844 6.99219 16.1875 7C19.3945 7.09766 22 9.91016 22 13.2812V20.5625L11.0625 9.625C11.2852 9.29688 11.5195 8.96875 11.8125 8.6875C12.8398 7.6875 14.1523 7.09766 15.5625 7ZM8.03125 12.25C8.00781 12.5039 8 12.7422 8 13V22C8 22.5508 7.55078 23 7 23H6V25H13.1875C13.0742 25.3164 13 25.6484 13 26C13 27.6445 14.3555 29 16 29C17.6445 29 19 27.6445 19 26C19 25.6484 18.9258 25.3164 18.8125 25H20.8125L18.8125 23H9.8125C9.92578 22.6875 10 22.3516 10 22V14.1875L8.03125 12.25ZM16 25C16.5625 25 17 25.4375 17 26C17 26.5625 16.5625 27 16 27C15.4375 27 15 26.5625 15 26C15 25.4375 15.4375 25 16 25Z" fill="black"/>
</g>
</svg>
