<svg width="32" height="32" viewBox="0 0 32 32" fill="none" xmlns="http://www.w3.org/2000/svg">
<g id="bezier-curve-solid">
<path id="Vector" d="M12 6V9H5.8125C5.39453 7.84375 4.29297 7 3 7C1.35547 7 0 8.35547 0 10C0 11.6445 1.35547 13 3 13C4.29297 13 5.39453 12.1562 5.8125 11H8.125C7.71484 11.3906 7.35938 11.8164 7.03125 12.2812C5.875 13.918 5.19531 15.9375 5.03125 18H2V26H10V18H7.0625C7.22656 16.3281 7.77344 14.6875 8.65625 13.4375C9.51562 12.2188 10.6211 11.3672 12 11.0938V14H20V11.0938C21.3789 11.3672 22.4844 12.2188 23.3438 13.4375C24.2266 14.6875 24.7734 16.3281 24.9375 18H22V26H30V18H26.9688C26.8047 15.9375 26.125 13.918 24.9688 12.2812C24.6406 11.8164 24.2852 11.3906 23.875 11H26.1875C26.6055 12.1562 27.707 13 29 13C30.6445 13 32 11.6445 32 10C32 8.35547 30.6445 7 29 7C27.707 7 26.6055 7.84375 26.1875 9H20V6H12ZM14 8H18V12H14V8ZM3 9C3.5625 9 4 9.4375 4 10C4 10.5625 3.5625 11 3 11C2.4375 11 2 10.5625 2 10C2 9.4375 2.4375 9 3 9ZM29 9C29.5625 9 30 9.4375 30 10C30 10.5625 29.5625 11 29 11C28.4375 11 28 10.5625 28 10C28 9.4375 28.4375 9 29 9ZM4 20H8V24H4V20ZM24 20H28V24H24V20Z" fill="black"/>
</g>
</svg>
