<svg width="32" height="32" viewBox="0 0 32 32" fill="none" xmlns="http://www.w3.org/2000/svg">
<g id="bicycle-solid">
<path id="Vector" d="M19 6V7.4375L19.0938 7.625L20.125 10H11.4375L11.125 10.4375L8.40625 14.2812C7.80078 14.0938 7.16406 14 6.5 14C2.91797 14 0 16.9141 0 20.5C0 24.0859 2.91406 27 6.5 27C9.91406 27 12.707 24.3477 12.9688 21H16.4062L16.7188 20.5625L21.5938 13.375L22.25 14.875C20.3086 16.0039 19 18.1094 19 20.5C19 24.0703 21.9297 27 25.5 27C29.0703 27 32 24.0703 32 20.5C32 16.9297 29.0703 14 25.5 14C25.0195 14 24.5469 14.0547 24.0938 14.1562L21.4062 8H24.5C24.7852 8 25 8.21484 25 8.5C25 8.78516 24.7852 9 24.5 9V11C25.8672 11 27 9.86719 27 8.5C27 7.13281 25.8672 6 24.5 6H19ZM8 7V9H14L13 7H8ZM13.4688 12H20.125L16.0938 17.9375L13.4688 12ZM11.7188 13L14.3438 19H6V21H10.9375C10.6836 23.2422 8.80859 25 6.5 25C4.01953 25 2 22.9805 2 20.5C2 18.0195 4.01953 16 6.5 16C8.05859 16 9.44141 16.7969 10.25 18H12.5C12.0195 16.8477 11.2305 15.8594 10.2188 15.1562L11.7188 13ZM25.5 16C27.9805 16 30 18.0195 30 20.5C30 22.9805 27.9805 25 25.5 25C23.0195 25 21 22.9805 21 20.5C21 18.9258 21.832 17.5547 23.0625 16.75L25.0938 21.4062L26.9062 20.5938L24.9375 16.0625C25.125 16.0391 25.3086 16 25.5 16Z" fill="black"/>
</g>
</svg>
