<svg width="32" height="32" viewBox="0 0 32 32" fill="none" xmlns="http://www.w3.org/2000/svg">
<g id="biking-solid">
<path id="Vector" d="M19.5 5C17.5781 5 16 6.57812 16 8.5C16 10.4219 17.5781 12 19.5 12C21.4219 12 23 10.4219 23 8.5C23 6.57812 21.4219 5 19.5 5ZM19.5 7C20.3398 7 21 7.66016 21 8.5C21 9.33984 20.3398 10 19.5 10C18.6602 10 18 9.33984 18 8.5C18 7.66016 18.6602 7 19.5 7ZM15.0938 10.5312C14.5859 10.582 14.0938 10.832 13.75 11.25L11.4062 14.0938C10.5977 15.0781 10.9492 16.6328 12.0938 17.1875L15.5312 18.875L14.625 23.875L16.5938 24.2188L17.6562 18.4688L17.7812 17.7188L17.0938 17.375L12.9375 15.375L15.3125 12.5L19.375 15.7812L19.6562 16H25V14H20.3438L16.5625 10.9688C16.1406 10.6289 15.6016 10.4805 15.0938 10.5312ZM8.5 18C6.03125 18 4 20.0312 4 22.5C4 24.9688 6.03125 27 8.5 27C10.9688 27 13 24.9688 13 22.5C13 20.0312 10.9688 18 8.5 18ZM23.5 18C21.0312 18 19 20.0312 19 22.5C19 24.9688 21.0312 27 23.5 27C25.9688 27 28 24.9688 28 22.5C28 20.0312 25.9688 18 23.5 18ZM8.5 20C9.87891 20 11 21.1211 11 22.5C11 23.8789 9.87891 25 8.5 25C7.12109 25 6 23.8789 6 22.5C6 21.1211 7.12109 20 8.5 20ZM23.5 20C24.8789 20 26 21.1211 26 22.5C26 23.8789 24.8789 25 23.5 25C22.1211 25 21 23.8789 21 22.5C21 21.1211 22.1211 20 23.5 20Z" fill="black"/>
</g>
</svg>
