<svg width="32" height="32" viewBox="0 0 32 32" fill="none" xmlns="http://www.w3.org/2000/svg">
<g id="bimobject">
<path id="Vector" d="M5 5V27H27V5H5ZM7 7H25V25H7V7ZM10 10V20.8125H12.9844V19.1934H13.0273C13.4023 20.3004 14.2487 21 16.3047 21H17.0977C21.3977 21 21.9297 19.4544 21.9297 17.1484V15.5215C21.9297 13.2145 21.3969 11.6797 17.0859 11.6797H16.2812C14.8833 11.6797 13.2442 12.0654 13.0352 13.4844H12.9844V10H10ZM15.0508 14.2383H17.2852C18.9132 14.2283 19.0703 14.7907 19.0703 15.8027V16.8672C19.0703 17.8792 18.9132 18.4434 17.2852 18.4434H15.0508C13.7048 18.4434 12.9941 18.1392 12.9941 16.7832V15.8965C12.9941 14.5295 13.7048 14.2383 15.0508 14.2383Z" fill="black"/>
</g>
</svg>
