<svg width="32" height="32" viewBox="0 0 32 32" fill="none" xmlns="http://www.w3.org/2000/svg">
<g id="biohazard-solid">
<path id="Vector" d="M13.5938 4.40625C10.8945 5.30469 9 7.69922 9 10.5C9 11.5 9.28907 12.5078 9.6875 13.4062C8.6875 13.4062 7.71094 13.6875 6.8125 14.1875C4.41407 15.5859 3.21094 18.4141 3.8125 21.3125L5.8125 20.9062C5.41407 18.9062 6.21094 16.9062 7.8125 15.9062C9.91407 14.707 12.7891 15.6016 14.1875 18C14.8867 19.1992 15.1133 20.5117 14.8125 21.8125C14.5117 23.0117 13.8125 23.9922 12.8125 24.5938C11.2109 25.4922 9 25.2109 7.5 23.8125L6.1875 25.3125C7.48828 26.5117 9.21094 27.0938 10.8125 27.0938C11.9141 27.0938 12.9063 26.8125 13.9063 26.3125C14.8047 25.8125 15.5 25.0859 16 24.1875C16.5 25.0859 17.1953 25.8125 18.0938 26.3125C18.9922 26.8125 20.0859 27.0938 21.1875 27.0938C22.7891 27.0938 24.5117 26.5117 25.8125 25.3125L24.5 23.8125C23 25.2109 20.7891 25.4922 19.1875 24.5938C18.1875 23.9922 17.4883 23.0117 17.1875 21.8125C16.8867 20.5117 17.1133 19.1992 17.8125 18C19.2109 15.6016 21.9883 14.707 24.1875 15.9062C25.7891 16.8047 26.5859 18.8047 26.1875 20.9062L28.1875 21.3125C28.6875 18.4141 27.4922 15.5859 25.0938 14.1875C24.1953 13.6875 23.1875 13.4062 22.1875 13.4062C22.6875 12.5078 22.9063 11.6016 22.9063 10.5C22.9063 7.69922 20.9883 5.30469 18.1875 4.40625L17.5938 6.3125C19.5938 6.91406 20.9063 8.60156 20.9063 10.5C20.9063 13 18.707 15 15.9063 15C13.1055 15 10.9063 13 10.9063 10.5C10.9063 8.60156 12.1875 6.91406 14.1875 6.3125L13.5938 4.40625ZM16 10C14.8984 10 13.8984 10.1875 13 10.6875C13.1016 11.3867 13.3984 12.0078 14 12.4062C14.6016 12.1055 15.3047 12 15.9063 12C16.5078 12 17.2109 12.1055 17.8125 12.4062C18.4141 12.0078 18.8125 11.3867 18.8125 10.6875C18.1133 10.1875 17.1016 10 16 10ZM16 16C16.6016 16 17 16.3984 17 17C17 17.6016 16.6016 18 16 18C15.3984 18 15 17.6016 15 17C15 16.3984 15.3984 16 16 16ZM9.96875 17.3125C9.63282 17.2891 9.30078 17.3516 9 17.5C9.19922 19.6016 10.3008 21.4883 12 22.6875C12.5 22.3867 12.8047 21.9141 12.9063 21.3125V20.9062C11.9063 20.1055 11.1992 18.9922 11 17.5938C10.6484 17.4453 10.3047 17.3359 9.96875 17.3125ZM22.0938 17.4062C21.6953 17.4062 21.3008 17.4883 21 17.6875C20.8008 18.9883 20.1016 20.1992 19 21V21.4062C19.1016 22.0078 19.5078 22.5117 19.9063 22.8125C21.707 21.6133 22.8008 19.6953 23 17.5938C22.6992 17.4922 22.3945 17.4062 22.0938 17.4062Z" fill="black"/>
</g>
</svg>
