<svg width="32" height="32" viewBox="0 0 32 32" fill="none" xmlns="http://www.w3.org/2000/svg">
<g id="birthday-cake-solid">
<path id="Vector" d="M16 1.25L15.1875 2.4375C15.1875 2.4375 14.6484 3.19141 14.125 4.09375C13.8633 4.54688 13.6172 5.01953 13.4062 5.5C13.1953 5.98047 13 6.42188 13 7C13 8.64453 14.3555 10 16 10C17.6445 10 19 8.64453 19 7C19 6.42188 18.8047 5.98047 18.5938 5.5C18.3828 5.01953 18.1367 4.54688 17.875 4.09375C17.3516 3.19141 16.8125 2.4375 16.8125 2.4375L16 1.25ZM16 10H13V14H7C4.78906 14 3 15.7891 3 18C3 19.0156 3.375 19.9492 4 20.6562V28H28V20.6562C28.625 19.9492 29 19.0156 29 18C29 15.7891 27.2109 14 25 14H19V10H16ZM16 4.875C16.0664 4.98438 16.0586 4.97656 16.125 5.09375C16.3633 5.50391 16.6172 5.94141 16.7812 6.3125C16.9453 6.68359 17 7.02734 17 7C17 7.55469 16.5547 8 16 8C15.4453 8 15 7.55469 15 7C15 7.02734 15.0547 6.68359 15.2188 6.3125C15.3828 5.94141 15.6367 5.50391 15.875 5.09375C15.9414 4.97656 15.9336 4.98438 16 4.875ZM15 12H17V14H15V12ZM7 16H25C26.1914 16 27 16.8086 27 18C27 19.1914 26.1914 20 25 20C23.8086 20 23 19.1914 23 18H21C21 19.1914 20.1914 20 19 20C17.8086 20 17 19.1914 17 18H15C15 19.1914 14.1914 20 13 20C11.8086 20 11 19.1914 11 18H9C9 19.1914 8.19141 20 7 20C5.80859 20 5 19.1914 5 18C5 16.8086 5.80859 16 7 16ZM10 20.6562C10.7344 21.4844 11.8047 22 13 22C14.1953 22 15.2656 21.4844 16 20.6562C16.7344 21.4844 17.8047 22 19 22C20.1953 22 21.2656 21.4844 22 20.6562C22.7344 21.4844 23.8047 22 25 22C25.3477 22 25.6797 21.9258 26 21.8438V26H6V21.8438C6.32031 21.9258 6.65234 22 7 22C8.19531 22 9.26562 21.4844 10 20.6562Z" fill="black"/>
</g>
</svg>
