<svg width="32" height="32" viewBox="0 0 32 32" fill="none" xmlns="http://www.w3.org/2000/svg">
<g id="bitbucket">
<path id="Vector" d="M16 5C13.707 5 11.4062 5.29688 9.59375 5.78125C8.6875 6.02344 7.91406 6.27734 7.28125 6.65625C6.64844 7.03516 6 7.60156 6 8.5C6 8.72266 6.05469 8.94141 6.125 9.125C6.27344 9.88672 8.77734 22.9258 9.03125 24.1875C9.15234 24.7891 9.53516 25.2344 9.96875 25.5625C10.4023 25.8906 10.8984 26.1367 11.5 26.3438C12.7031 26.7578 14.25 27 16 27C17.75 27 19.2891 26.7578 20.5 26.3438C21.1055 26.1367 21.625 25.8984 22.0625 25.5625C22.5 25.2266 22.9102 24.7852 23 24.1562C23.0195 24.0156 23.2109 22.8125 23.5 21.3125C23.7891 19.8125 24.1641 17.9336 24.5312 16.0625C25.2188 12.543 25.7969 9.51953 25.875 9.125C25.9453 8.94141 26 8.72266 26 8.5C26 7.60156 25.3516 7.03516 24.7188 6.65625C24.0859 6.27734 23.3125 6.02344 22.4062 5.78125C20.5938 5.29688 18.293 5 16 5ZM16 7C18.125 7 20.3203 7.26562 21.9062 7.6875C22.6992 7.89844 23.3203 8.15625 23.6875 8.375C23.7891 8.4375 23.7969 8.46094 23.8438 8.5C23.7969 8.53906 23.7891 8.5625 23.6875 8.625C23.3203 8.84375 22.6992 9.10156 21.9062 9.3125C20.3203 9.73438 18.125 10 16 10C13.875 10 11.6797 9.73438 10.0938 9.3125C9.30078 9.10156 8.67969 8.84375 8.3125 8.625C8.21094 8.5625 8.20312 8.53906 8.15625 8.5C8.20312 8.46094 8.21094 8.4375 8.3125 8.375C8.67969 8.15625 9.30078 7.89844 10.0938 7.6875C11.6797 7.26562 13.875 7 16 7ZM8.46875 10.875C8.82422 11 9.1875 11.1094 9.59375 11.2188C11.4062 11.7031 13.707 12 16 12C18.293 12 20.5938 11.7031 22.4062 11.2188C22.8125 11.1094 23.1758 11 23.5312 10.875C23.2539 12.2344 23.0391 13.2188 22.5625 15.6562C22.3281 16.8516 22.1445 17.9219 21.9375 19.0312C21.9258 19.0469 21.9141 19.0352 21.8125 19.1562C21.6719 19.3242 21.4141 19.6094 21 19.875C20.1719 20.4102 18.6758 21 16 21C13.3242 21 11.8008 20.4062 10.9688 19.875C10.5547 19.6094 10.3281 19.3555 10.1875 19.1875C10.0469 19.0195 10.0312 19 10.0312 19C9.35156 15.4922 8.87109 12.9609 8.46875 10.875ZM16 13C14.3555 13 13 14.3555 13 16C13 17.6445 14.3555 19 16 19C17.6445 19 19 17.6445 19 16C19 14.3555 17.6445 13 16 13ZM16 15C16.5625 15 17 15.4375 17 16C17 16.5625 16.5625 17 16 17C15.4375 17 15 16.5625 15 16C15 15.4375 15.4375 15 16 15ZM10.5938 21.9062C11.7969 22.5039 13.5117 23 16 23C18.457 23 20.1758 22.5352 21.375 21.9375C21.2227 22.6953 21.0352 23.5938 21 23.8438C20.9805 23.8711 20.9258 23.9062 20.8438 23.9688C20.6602 24.1094 20.3359 24.3125 19.875 24.4688C18.9531 24.7812 17.5664 25 16 25C14.4336 25 13.0703 24.7852 12.1562 24.4688C11.6992 24.3125 11.3477 24.1172 11.1562 23.9688C10.9648 23.8203 10.957 23.75 10.9688 23.8125C10.9375 23.6641 10.6914 22.3984 10.5938 21.9062Z" fill="black"/>
</g>
</svg>
