<svg width="32" height="32" viewBox="0 0 32 32" fill="none" xmlns="http://www.w3.org/2000/svg">
<g id="bitcoin">
<path id="Vector" d="M12 3V6H8V26H12V29H14V26H16V29H18V26H19.5C22.5273 26 25 23.5273 25 20.5C25 18.418 23.8398 16.5898 22.125 15.6562C23.2812 14.6445 24 13.1484 24 11.5C24 8.47266 21.5273 6 18.5 6H18V3H16V6H14V3H12ZM10 8H18.5C20.4453 8 22 9.55469 22 11.5C22 13.4453 20.4453 15 18.5 15H10V8ZM10 17H19.5C21.4453 17 23 18.5547 23 20.5C23 22.4453 21.4453 24 19.5 24H10V17Z" fill="black"/>
</g>
</svg>
