<svg width="32" height="32" viewBox="0 0 32 32" fill="none" xmlns="http://www.w3.org/2000/svg">
<g id="bity">
<path id="Vector" d="M16 3C12.436 3 9.00394 4.3095 6.33594 6.6875C5.92294 7.0545 5.88691 7.68566 6.25391 8.09766C6.62091 8.50966 7.25106 8.54669 7.66406 8.17969C9.96606 6.12869 12.927 5 16 5C19.073 5 22.0339 6.12869 24.3359 8.17969C24.5269 8.34969 24.764 8.43359 25 8.43359C25.275 8.43359 25.5481 8.32061 25.7461 8.09961C26.1131 7.68761 26.0771 7.0545 25.6641 6.6875C22.9961 4.3095 19.564 3 16 3ZM11 10C10.448 10 10 10.448 10 11V14.5C10 17.023 12.636 19 16 19C19.364 19 22 17.023 22 14.5V11C22 10.448 21.552 10 21 10C20.448 10 20 10.448 20 11V14.5C20 15.855 18.168 17 16 17C13.832 17 12 15.855 12 14.5V11C12 10.448 11.552 10 11 10ZM4.32617 13.0137C3.77817 12.9257 3.26869 13.2958 3.17969 13.8398C3.06069 14.5658 3 15.3116 3 16.0566C3 22.1406 7.00714 27.4498 12.7441 28.9668C12.8301 28.9898 12.916 29 13 29C13.443 29 13.8478 28.7048 13.9668 28.2578C14.1078 27.7228 13.7899 27.1742 13.2559 27.0332C8.39486 25.7472 5 21.2346 5 16.0566C5 15.4196 5.05134 14.7821 5.15234 14.1621C5.24234 13.6171 4.87117 13.1027 4.32617 13.0137ZM27.6719 13.0137C27.1269 13.1027 26.7587 13.6171 26.8477 14.1621C26.9497 14.7821 27 15.4196 27 16.0566C27 21.2336 23.6041 25.7472 18.7441 27.0312C18.2101 27.1723 17.8922 27.7219 18.0332 28.2559C18.1512 28.7049 18.557 29 19 29C19.084 29 19.1699 28.9888 19.2559 28.9668C24.9929 27.4498 29 22.1406 29 16.0566C29 15.3116 28.9403 14.5658 28.8203 13.8398C28.7323 13.2958 28.2209 12.9257 27.6719 13.0137ZM16 20C15.448 20 15 20.448 15 21V24C15 24.552 15.448 25 16 25C16.552 25 17 24.552 17 24V21C17 20.448 16.552 20 16 20Z" fill="black"/>
</g>
</svg>
