<svg width="32" height="32" viewBox="0 0 32 32" fill="none" xmlns="http://www.w3.org/2000/svg">
<g id="blackberry">
<path id="Vector" d="M16 3C8.83203 3 3 8.83203 3 16C3 23.168 8.83203 29 16 29C23.168 29 29 23.168 29 16C29 8.83203 23.168 3 16 3ZM16 5C22.0859 5 27 9.91406 27 16C27 22.0859 22.0859 27 16 27C9.91406 27 5 22.0859 5 16C5 9.91406 9.91406 5 16 5ZM9.71875 11L9.125 13.6875H11.2812C12.9531 13.6875 13.4375 12.9219 13.4375 12.1875C13.4375 11.668 13.1172 11 11.7812 11H9.71875ZM15.25 11L14.6562 13.6875H16.8125C18.4844 13.6875 18.9688 12.9219 18.9688 12.1875C18.9688 11.668 18.6445 11 17.3125 11H15.25ZM20.3125 13.4062L19.7188 16.125H21.8438C23.5156 16.125 24 15.332 24 14.5938C24 14.0742 23.6758 13.4062 22.3438 13.4062H20.3125ZM8.96875 15.0625L8.40625 17.7812H10.5312C12.2031 17.7812 12.6875 16.9844 12.6875 16.25C12.6875 15.7305 12.3672 15.0625 11.0312 15.0625H8.96875ZM14.5 15.0625L13.9375 17.7812H16.0625C17.7344 17.7812 18.2188 16.9844 18.2188 16.25C18.2188 15.7305 17.8945 15.0625 16.5625 15.0625H14.5ZM19.5 17.6562L18.9062 20.3438H21.0625C22.7344 20.3438 23.1875 19.5469 23.1875 18.8125C23.1875 18.293 22.8945 17.6562 21.5625 17.6562H19.5ZM13.7188 19.3125L13.125 22H15.2812C16.9531 22 17.4062 21.2031 17.4062 20.4688C17.4062 19.9492 17.1133 19.3125 15.7812 19.3125H13.7188Z" fill="black"/>
</g>
</svg>
