<svg width="32" height="32" viewBox="0 0 32 32" fill="none" xmlns="http://www.w3.org/2000/svg">
<g id="blender-phone-solid">
<path id="Vector" d="M6.57812 5C6.24808 5.01139 5.93497 5.18151 5.76172 5.47851C4.64372 7.39151 4 9.622 4 12C4 14.378 4.64377 16.6075 5.75977 18.5215C5.99077 18.9165 6.47025 19.087 6.90625 18.957L8.84961 18.3769C8.98561 18.2389 9.03366 18.0356 8.97266 17.8516L8.17383 15.4277C8.10483 15.2177 7.90941 15.0762 7.69141 15.0762H6.86523C6.63523 15.0762 6.42814 14.9223 6.36914 14.6973C6.14514 13.8353 6.0293 12.929 6.0293 12C6.0293 11.071 6.14514 10.1647 6.36914 9.30273C6.42714 9.07773 6.63523 8.92382 6.86523 8.92382H7.69336C7.91136 8.92382 8.10578 8.78321 8.17578 8.57421L8.97461 6.14843C9.03461 5.96343 8.98756 5.76004 8.85156 5.62304L6.9082 5.04296C6.7992 5.01021 6.68814 4.9962 6.57812 5ZM9.99609 5L11.877 21.0117C10.281 21.0779 9 22.3881 9 24V27H26V24C26 22.4323 24.7865 21.1559 23.252 21.0254L26.957 5H9.99609ZM12.2461 7H24.4414L23.9785 9H19V11H23.5176L23.0547 13H19V15H22.5918L22.1289 17H19V19H21.668L21.2051 21H13.8906L12.2461 7ZM12 23H12.1094H22.7949H23C23.551 23 24 23.449 24 24V25H11V24C11 23.449 11.449 23 12 23Z" fill="black"/>
</g>
</svg>
