<svg width="32" height="32" viewBox="0 0 32 32" fill="none" xmlns="http://www.w3.org/2000/svg">
<g id="blender-solid">
<path id="Vector" d="M8 5C6.346 5 5 6.346 5 8V13C5 14.654 6.346 16 8 16H11.2422L11.8691 21.0137C10.277 21.0839 9 22.3908 9 24V27H26V24C26 22.4323 24.7865 21.1559 23.252 21.0254L26.957 5H14H9.86719H8ZM8 7H10.1172L10.9922 14H8C7.449 14 7 13.551 7 13V8C7 7.449 7.449 7 8 7ZM12.1328 7H14H24.4414L23.9785 9H19V11H23.5176L23.0547 13H19V15H22.5918L22.1289 17H19V19H21.668L21.2051 21H13.8828L12.1328 7ZM12 23H23C23.551 23 24 23.449 24 24V25H11V24C11 23.449 11.449 23 12 23Z" fill="black"/>
</g>
</svg>
