<svg width="32" height="32" viewBox="0 0 32 32" fill="none" xmlns="http://www.w3.org/2000/svg">
<g id="blind-solid">
<path id="Vector" d="M14.5 3C12.5781 3 11 4.57812 11 6.5C11 8.42188 12.5781 10 14.5 10C16.4219 10 18 8.42188 18 6.5C18 4.57812 16.4219 3 14.5 3ZM14.5 5C15.3398 5 16 5.66016 16 6.5C16 7.33984 15.3398 8 14.5 8C13.6602 8 13 7.33984 13 6.5C13 5.66016 13.6602 5 14.5 5ZM10.8125 10.25C10.2969 10.293 9.81641 10.5391 9.46875 10.9375L7.65625 13.0312C7.41797 13.3047 7.25 13.6406 7.1875 14L6.5 17.875L8.46875 18.2188L9.15625 14.3438L10.9688 12.25H11L11.7812 12.4062L10.5938 17.7812C10.4727 18.3398 10.6016 18.9141 10.9375 19.375L16.4688 27H18.9375L12.5625 18.1875L13.75 12.7812L14.2188 12.875L14.9688 15.5C15.1445 16.1016 15.5977 16.5898 16.1875 16.8125L19.1562 17.9375L23.0312 26.6875L23.9688 26.3125L20 17.375L20.4062 16.2812L16.9062 14.9375L16.125 12.3125C15.918 11.5898 15.332 11.0469 14.5938 10.9062L11.3438 10.2812C11.1719 10.25 10.9844 10.2344 10.8125 10.25ZM10.4688 21.0312L9.96875 22.9688L7.0625 27H9.53125L11.8438 23.8438L11.9688 23.25L10.4688 21.0312Z" fill="black"/>
</g>
</svg>
