<svg width="32" height="32" viewBox="0 0 32 32" fill="none" xmlns="http://www.w3.org/2000/svg">
<g id="blogger">
<path id="Vector" d="M5 5V27H27V5H5ZM7 7H25V25H7V7ZM15 10C13 10 13.0304 10.0195 12.4004 10.2695C11.2304 10.7395 10.3898 11.7205 10.0898 12.9805C10.0398 13.2105 10.0198 13.5898 10.0098 15.7598C9.98977 18.4698 10.0097 18.8702 10.1797 19.4102C10.5997 20.7402 11.7907 21.7195 12.9707 21.9395C13.3707 22.0095 18.26 22.0309 18.75 21.9609C19.63 21.8409 20.2995 21.4901 20.9395 20.8301C21.4095 20.3601 21.7006 19.8499 21.8906 19.1699C22.0306 18.6999 22.0209 15.3494 21.9609 15.1094C21.9109 14.8994 21.7909 14.6894 21.6309 14.6094C21.5809 14.5894 21.2809 14.5591 20.9609 14.5391C20.4209 14.5191 20.3595 14.5104 20.1895 14.4004C19.9295 14.2504 19.8496 14.0691 19.8496 13.6191C19.8496 12.7391 19.48 11.9099 18.75 11.1699C18.23 10.6399 17.6602 10.2801 16.9902 10.0801C16.8402 10.0401 16.19 10 15 10ZM13.7695 13H16.0625C16.4875 13 16.832 13.3445 16.832 13.7695C16.832 14.1945 16.4875 14.5391 16.0625 14.5391H13.7695C13.3445 14.5391 13 14.1945 13 13.7695C13 13.3445 13.3445 13 13.7695 13ZM13.7695 17.4609H18.043C18.468 17.4609 18.8125 17.8055 18.8125 18.2305C18.8125 18.6555 18.468 19 18.043 19H13.7695C13.3445 19 13 18.6555 13 18.2305C13 17.8055 13.3445 17.4609 13.7695 17.4609Z" fill="black"/>
</g>
</svg>
