<svg width="32" height="32" viewBox="0 0 32 32" fill="none" xmlns="http://www.w3.org/2000/svg">
<g id="blogger-b">
<path id="Vector" d="M13 7C9.686 7 7 9.686 7 13V20C7 23.314 9.686 26 13 26H20C23.314 26 26 23.314 26 20V15C26 14.448 25.552 14 25 14H24C23.448 14 23 13.552 23 13C23 9.686 20.314 7 17 7H13ZM13 12H17C17.55 12 18 12.45 18 13C18 13.55 17.55 14 17 14H13C12.45 14 12 13.55 12 13C12 12.45 12.45 12 13 12ZM13 19H20C20.55 19 21 19.45 21 20C21 20.55 20.55 21 20 21H13C12.45 21 12 20.55 12 20C12 19.45 12.45 19 13 19Z" fill="black"/>
</g>
</svg>
