<svg width="32" height="32" viewBox="0 0 32 32" fill="none" xmlns="http://www.w3.org/2000/svg">
<g id="blog-solid">
<path id="Vector" d="M14.5195 4.00977C14.2395 3.99977 14 4.22954 14 4.51954V6.50001C14 6.78001 14.22 7.00001 14.5 7.00001V7.01954C20.73 7.25954 25.7405 12.27 25.9805 18.5H26C26 18.78 26.22 19 26.5 19H28.4805C28.7705 19 29.0002 18.7605 28.9902 18.4805C28.7202 10.6205 22.3795 4.27977 14.5195 4.00977ZM14.5195 9.00977C14.2395 8.99977 14 9.23954 14 9.51954V11.5C14 11.78 14.22 12 14.5 12V12.0293C17.97 12.2593 20.7407 15.03 20.9707 18.5H21C21 18.78 21.22 19 21.5 19H23.4805C23.7605 19 24.0002 18.7605 23.9902 18.4805C23.7202 13.3805 19.6195 9.27977 14.5195 9.00977ZM5.5 10C5.22 10 5 10.22 5 10.5V21.5C5 25.08 7.92 28 11.5 28C15.08 28 18 25.08 18 21.5C18 17.92 15.08 15 11.5 15C11.22 15 11 15.22 11 15.5V18.5C11 18.78 11.22 19 11.5 19C12.88 19 14 20.12 14 21.5C14 22.88 12.88 24 11.5 24C10.12 24 9 22.88 9 21.5V10.5C9 10.22 8.78 10 8.5 10H5.5Z" fill="black"/>
</g>
</svg>
