<svg width="32" height="32" viewBox="0 0 32 32" fill="none" xmlns="http://www.w3.org/2000/svg">
<g id="bluetooth">
<path id="Vector" d="M16 2C12.8867 2 10.0312 2.74219 8.03125 4.96875C6.03125 7.19531 5 10.7148 5 16C5 21.2852 6.03125 24.8047 8.03125 27.0312C10.0312 29.2578 12.8867 30 16 30C19.1133 30 21.9727 29.2578 23.9688 27.0312C25.9648 24.8047 27 21.2852 27 16C27 10.7148 25.9648 7.19531 23.9688 4.96875C21.9727 2.74219 19.1133 2 16 2ZM16 4C18.8086 4 20.9453 4.61719 22.4688 6.3125C23.9922 8.00781 25 10.9805 25 16C25 21.0195 23.9922 23.9922 22.4688 25.6875C20.9453 27.3828 18.8086 28 16 28C13.1914 28 11.0547 27.3828 9.53125 25.6875C8.00781 23.9922 7 21.0195 7 16C7 10.9805 8.00781 8.00781 9.53125 6.3125C11.0547 4.61719 13.1914 4 16 4ZM15 7V13.5625L12.7188 11.2812L11.2812 12.7188L14.5625 16L11.2812 19.2812L12.7188 20.7188L15 18.4375V25L16.5938 23.8125L20.5938 20.8125L21.5312 20.0938L17.4375 16L21.5312 11.9062L20.5938 11.1875L16.5938 8.1875L15 7ZM17 11L18.4688 12.0938L17 13.5625V11ZM17 18.4375L18.4688 19.9062L17 21V18.4375Z" fill="black"/>
</g>
</svg>
