<svg width="32" height="32" viewBox="0 0 32 32" fill="none" xmlns="http://www.w3.org/2000/svg">
<g id="bold-solid">
<path id="Vector" d="M16 7C18.8008 7 21 9.19922 21 12C21 13.3008 20.5 14.3984 19.6992 15.3008C21.6016 16 23 17.8008 23 20C23 22.8008 20.8008 25 18 25H7V7H16ZM9 15H16C17.6992 15 19 13.6992 19 12C19 10.3008 17.6992 9 16 9H9V15ZM9 23H18C19.6992 23 21 21.6992 21 20C21 18.3008 19.6992 17 18 17H9V23ZM16 5H5V27H18C21.8984 27 25 23.8984 25 20C25 17.8984 24 15.8984 22.5 14.6016C22.8008 13.8008 23 12.8984 23 12C23 8.10156 19.8984 5 16 5ZM11 11H16C16.6016 11 17 11.3984 17 12C17 12.6016 16.6016 13 16 13H11V11ZM11 19H18C18.6016 19 19 19.3984 19 20C19 20.6016 18.6016 21 18 21H11V19Z" fill="black"/>
</g>
</svg>
