<svg width="32" height="32" viewBox="0 0 32 32" fill="none" xmlns="http://www.w3.org/2000/svg">
<g id="bomb-solid">
<path id="Vector" d="M24.7344 5.86718C24.3828 5.875 24.0234 5.9375 23.6836 6.05078C21.5977 6.74609 20.3789 8.32031 19.7148 9.51171C19.1133 9.19531 18.4336 9 17.6992 9H17.3008L15.6992 10.5977C14.3984 10 13.0977 9.80078 11.5977 10C7.80078 10.3008 4.5 13.5 4.10156 17.4023C3.80078 20 4.69922 22.6016 6.5 24.5C8.10156 26.1016 10.3008 27 12.5 27C12.8984 27 13.1992 27 13.5977 26.9023C17.5 26.4023 20.5977 23.3008 21.0977 19.3008C21.1992 17.8008 21 16.3984 20.5 15.1992L22 13.6992V13.3008C22 12.3984 21.7305 11.5625 21.2656 10.875C21.707 9.98437 22.6523 8.5039 24.3164 7.94921C25.0508 7.70312 25.4414 7.84375 25.6719 8.24218C25.9062 8.63672 26.0234 9.71484 25.1055 11.5508C24.3867 12.8945 22.2031 16.6211 23.7695 22.375L21 22.6992L23.5977 24L21.5977 26.8008L24.6992 25.0977L25.9023 26.8008V24.5977L29.0977 25.6992L27 23.5977L28.6992 22.3008H26.5V18L25.3555 20.3437C24.625 16.1719 26.1562 13.8359 26.8828 12.4687C26.8867 12.4648 26.8906 12.457 26.8945 12.4492C27.9766 10.2852 28.1445 8.51171 27.4023 7.23437C27.0312 6.59765 26.4414 6.1875 25.7773 5.99218C25.4453 5.89843 25.0898 5.85546 24.7344 5.86718ZM18.0977 11C19 11.1992 19.8008 11.9023 20 12.9023L19.0977 13.8008C18.0977 13.6992 17.3008 12.9023 17.1992 11.9023L18.0977 11ZM12.5977 11.9023C13.5977 11.9023 14.5 12.0977 15.3008 12.5977C15.6992 14.1992 16.8984 15.3984 18.5 15.6992C19 16.6992 19.1992 17.8008 19.0977 19.0977C18.8008 22.0977 16.3008 24.6016 13.4023 24.9023C11.4023 25.1016 9.39844 24.5 8 23C6.60156 21.6016 5.89844 19.5977 6.10156 17.5977C6.39844 14.6992 8.90234 12.1992 11.8008 12C12.1016 12 12.3984 11.9023 12.5977 11.9023Z" fill="black"/>
</g>
</svg>
