<svg width="32" height="32" viewBox="0 0 32 32" fill="none" xmlns="http://www.w3.org/2000/svg">
<g id="bone-solid">
<path id="Vector" d="M20 4C17.8008 4 16 5.80078 16 8C16 9 16.4531 9.83203 17.0625 10.5312L10.5312 17.0625C9.83203 16.4531 9 16 8 16C5.80078 16 4 17.8008 4 20C4 22.1992 5.80078 24 8 24C8 26.1992 9.80078 28 12 28C14.1992 28 16 26.1992 16 24C16 23 15.5469 22.168 14.9375 21.4688L21.4688 14.9375C22.168 15.5469 23 16 24 16C26.1992 16 28 14.1992 28 12C28 9.80078 26.1992 8 24 8C24 5.80078 22.1992 4 20 4ZM20 6C21.1172 6 22 6.88281 22 8C22 8.17188 21.9727 8.34766 21.9062 8.5625L21.7188 9.15625L22.1562 9.5625L22.4375 9.84375L22.8438 10.2812L23.4375 10.0938C23.6523 10.0273 23.8281 10 24 10C25.1172 10 26 10.8828 26 12C26 13.1172 25.1172 14 24 14C23.2695 14 22.668 13.6133 22.3125 13.0312L21.625 11.9375L20.75 12.8438L12.8438 20.75L11.9375 21.625L13.0312 22.3125C13.6133 22.668 14 23.2695 14 24C14 25.1172 13.1172 26 12 26C10.8828 26 10 25.1172 10 24C10 23.8281 10.0273 23.6523 10.0938 23.4375L10.2812 22.8438L9.84375 22.4375L9.5625 22.1562L9.15625 21.7188L8.5625 21.9062C8.34766 21.9727 8.17188 22 8 22C6.88281 22 6 21.1172 6 20C6 18.8828 6.88281 18 8 18C8.73047 18 9.33203 18.3867 9.6875 18.9688L10.375 20.0625L11.25 19.1562L19.1562 11.25L20.0625 10.375L18.9688 9.6875C18.3867 9.33203 18 8.73047 18 8C18 6.88281 18.8828 6 20 6Z" fill="black"/>
</g>
</svg>
