<svg width="32" height="32" viewBox="0 0 32 32" fill="none" xmlns="http://www.w3.org/2000/svg">
<g id="bong-solid">
<path id="Vector" d="M12 4V6H20V4H12ZM13 7V14.6777C10.0911 15.8754 8 18.6608 8 22C8 24.2355 8.92515 26.2757 10.4141 27.7188L10.7051 28H21.2949L21.5859 27.7188C23.0748 26.2757 24 24.2355 24 22C24 20.5471 23.5311 19.2353 22.8535 18.0605L24.7676 16.1465L25.4746 16.8535L26.8887 15.4395L24.0605 12.6113L22.6465 14.0254L23.3535 14.7324L21.6328 16.4531C20.8828 15.6919 20.0039 15.0911 19 14.6777V7H17V16.0352L17.7148 16.248C19.5525 16.7949 21.0145 18.1968 21.6504 20H10.3496C10.9855 18.1968 12.4475 16.7949 14.2852 16.248L15 16.0352V7H13ZM10 22H22C22 23.5608 21.3582 24.9432 20.3867 26H11.6133C10.6418 24.9432 10 23.5608 10 22Z" fill="black"/>
</g>
</svg>
