<svg width="32" height="32" viewBox="0 0 32 32" fill="none" xmlns="http://www.w3.org/2000/svg">
<g id="book-reader-solid">
<path id="Vector" d="M16 4C12.6992 4 10 6.69922 10 10C10 11.0078 10.2461 11.9453 10.6875 12.7812C8.86328 12.3359 6.64062 12 4 12H2.71875L6.21875 26H7C10.4062 26 12.5 26.4883 13.7188 26.9375C14.3281 27.1641 14.7148 27.3867 14.9375 27.5312C15.1602 27.6758 15.1875 27.6875 15.1875 27.6875L15.4688 28H16.5312L16.8125 27.6875C16.8125 27.6875 16.8398 27.6758 17.0625 27.5312C17.2852 27.3867 17.6719 27.1641 18.2812 26.9375C19.5 26.4883 21.5938 26 25 26H25.7812L29.2812 12H28C25.3711 12 23.1523 12.3164 21.3438 12.75C21.7734 11.9258 22 10.9922 22 10C22 6.69922 19.3008 4 16 4ZM16 6C18.2227 6 20 7.77734 20 10C20 12.2227 18.2227 14 16 14C13.7773 14 12 12.2227 12 10C12 7.77734 13.7773 6 16 6ZM5.3125 14.125C8.42188 14.2773 10.9609 14.8164 12.625 15.4375C13.9648 15.9375 14.625 16.3242 15 16.5625V25.3125C14.8203 25.2305 14.6562 25.1445 14.4375 25.0625C13.0859 24.5625 10.8672 24.1406 7.78125 24.0625L5.3125 14.125ZM26.6875 14.125L24.2188 24.0625C21.1328 24.1406 18.9141 24.5625 17.5625 25.0625C17.3438 25.1445 17.1797 25.2305 17 25.3125V16.5625C17.375 16.3203 18.0312 15.9297 19.3438 15.4375C20.9961 14.8164 23.5391 14.2773 26.6875 14.125Z" fill="black"/>
</g>
</svg>
