<svg width="32" height="32" viewBox="0 0 32 32" fill="none" xmlns="http://www.w3.org/2000/svg">
<g id="book-open-solid">
<path id="Vector" d="M3 6V25H13C14.1016 25 15 25.8984 15 27H17C17 25.8984 17.8984 25 19 25H29V6H19C17.8086 6 16.7344 6.52734 16 7.35938C15.2656 6.52734 14.1914 6 13 6H3ZM5 8H13C14.1016 8 15 8.89844 15 10H17C17 8.89844 17.8984 8 19 8H27V23H19C17.8086 23 16.7344 23.5273 16 24.3594C15.2656 23.5273 14.1914 23 13 23H5V8ZM15 12V14H17V12H15ZM15 16V18H17V16H15ZM15 20V22H17V20H15Z" fill="black"/>
</g>
</svg>
