<svg width="32" height="32" viewBox="0 0 32 32" fill="none" xmlns="http://www.w3.org/2000/svg">
<g id="book-dead-solid">
<path id="Vector" d="M9 4C7.355 4 6 5.355 6 7V25C6 26.645 7.355 28 9 28H26V4H9ZM9 6H24V22H9C8.648 22 8.316 22.0735 8 22.1875V7C8 6.434 8.434 6 9 6ZM16 9C10.074 9 11.0625 17 11.0625 17H13V19H19V17H20.9375C20.9375 17 21.926 9 16 9ZM14 13C14.55 13 15 13.45 15 14C15 14.55 14.55 15 14 15C13.45 15 13 14.55 13 14C13 13.45 13.45 13 14 13ZM18 13C18.55 13 19 13.45 19 14C19 14.55 18.55 15 18 15C17.45 15 17 14.55 17 14C17 13.45 17.45 13 18 13ZM16 15L17 17H15L16 15ZM9 24H24V26H9C8.434 26 8 25.566 8 25C8 24.434 8.434 24 9 24Z" fill="black"/>
</g>
</svg>
