<svg width="32" height="32" viewBox="0 0 32 32" fill="none" xmlns="http://www.w3.org/2000/svg">
<g id="bootstrap">
<path id="Vector" d="M5 5V27H27V5H5ZM7 7H25V25H7V7ZM11 10V15.5098V21.9902C16.93 21.9902 18.1166 22.0702 19.2266 21.7402C19.8766 21.5402 21.6562 20.9004 21.6562 18.6504C21.6562 17.6504 21.3565 15.9591 19.3965 15.5391V15.5098H19.0273C20.0273 15.0598 20.6562 14.2109 20.6562 12.9609C20.6562 12.6409 20.7461 10 17.2461 10H11ZM13 12H17C18.509 12 18.6562 12.8532 18.6562 13.4902C18.6562 15.0442 17.03 15 17 15H13V12ZM13 17H17.7598C19.6208 17 19.6562 18.1765 19.6562 18.4805C19.6562 20.0405 18.0446 20 17.8496 20H13V17Z" fill="black"/>
</g>
</svg>
