<svg width="32" height="32" viewBox="0 0 32 32" fill="none" xmlns="http://www.w3.org/2000/svg">
<g id="border-none-solid">
<path id="Vector" d="M5 5V7V9H7V7H9V5H5ZM11 5V7H15V5H11ZM17 5V7H21V5H17ZM23 5V7H25V9H27V7V5H25H23ZM15 9V13H17V9H15ZM5 11V15H7V11H5ZM25 11V15H27V11H25ZM9 15V17H13V15H9ZM15 15V17H17V15H15ZM19 15V17H23V15H19ZM5 17V21H7V17H5ZM25 17V21H27V17H25ZM15 19V23H17V19H15ZM5 23V27H7H9V25H7V23H5ZM25 23V25H23V27H25H27V25V23H25ZM11 25V27H15V25H11ZM17 25V27H21V25H17Z" fill="black"/>
</g>
</svg>
