<svg width="32" height="32" viewBox="0 0 32 32" fill="none" xmlns="http://www.w3.org/2000/svg">
<g id="bowling-ball-solid">
<path id="Vector" d="M16 3C8.832 3 3 8.832 3 16C3 23.168 8.832 29 16 29C23.168 29 29 23.168 29 16C29 8.832 23.168 3 16 3ZM16 5C22.065 5 27 9.935 27 16C27 22.065 22.065 27 16 27C9.935 27 5 22.065 5 16C5 9.935 9.935 5 16 5ZM14.5 9C14.1022 9 13.7206 9.15804 13.4393 9.43934C13.158 9.72064 13 10.1022 13 10.5C13 10.8978 13.158 11.2794 13.4393 11.5607C13.7206 11.842 14.1022 12 14.5 12C14.8978 12 15.2794 11.842 15.5607 11.5607C15.842 11.2794 16 10.8978 16 10.5C16 10.1022 15.842 9.72064 15.5607 9.43934C15.2794 9.15804 14.8978 9 14.5 9ZM10.5 13C10.1022 13 9.72064 13.158 9.43934 13.4393C9.15804 13.7206 9 14.1022 9 14.5C9 14.8978 9.15804 15.2794 9.43934 15.5607C9.72064 15.842 10.1022 16 10.5 16C10.8978 16 11.2794 15.842 11.5607 15.5607C11.842 15.2794 12 14.8978 12 14.5C12 14.1022 11.842 13.7206 11.5607 13.4393C11.2794 13.158 10.8978 13 10.5 13ZM15.5 14C15.1022 14 14.7206 14.158 14.4393 14.4393C14.158 14.7206 14 15.1022 14 15.5C14 15.8978 14.158 16.2794 14.4393 16.5607C14.7206 16.842 15.1022 17 15.5 17C15.8978 17 16.2794 16.842 16.5607 16.5607C16.842 16.2794 17 15.8978 17 15.5C17 15.1022 16.842 14.7206 16.5607 14.4393C16.2794 14.158 15.8978 14 15.5 14Z" fill="black"/>
</g>
</svg>
