<svg width="32" height="32" viewBox="0 0 32 32" fill="none" xmlns="http://www.w3.org/2000/svg">
<g id="braille-solid">
<path id="Vector" d="M12 6C10.8945 6 10 6.89453 10 8C10 9.10547 10.8945 10 12 10C13.1055 10 14 9.10547 14 8C14 6.89453 13.1055 6 12 6ZM20 6C18.8945 6 18 6.89453 18 8C18 9.10547 18.8945 10 20 10C21.1055 10 22 9.10547 22 8C22 6.89453 21.1055 6 20 6ZM12 14C10.8945 14 10 14.8945 10 16C10 17.1055 10.8945 18 12 18C13.1055 18 14 17.1055 14 16C14 14.8945 13.1055 14 12 14ZM20 14C18.8945 14 18 14.8945 18 16C18 17.1055 18.8945 18 20 18C21.1055 18 22 17.1055 22 16C22 14.8945 21.1055 14 20 14ZM12 22C10.8945 22 10 22.8945 10 24C10 25.1055 10.8945 26 12 26C13.1055 26 14 25.1055 14 24C14 22.8945 13.1055 22 12 22ZM20 22C18.8945 22 18 22.8945 18 24C18 25.1055 18.8945 26 20 26C21.1055 26 22 25.1055 22 24C22 22.8945 21.1055 22 20 22Z" fill="black"/>
</g>
</svg>
