<svg width="32" height="32" viewBox="0 0 32 32" fill="none" xmlns="http://www.w3.org/2000/svg">
<g id="brain-solid">
<path id="Vector" d="M13 4C11.0898 4 9.54297 5.38672 9.15625 7.1875C6.82422 7.60547 5 9.55078 5 12C5 12.2461 5.02734 12.4648 5.0625 12.6875C4.41797 13.6367 4 14.7539 4 16C4 17.7969 4.89453 19.3086 6.15625 20.4062C6.06641 20.7617 6 21.1172 6 21.5C6 23.9727 8.02734 26 10.5 26C10.5273 26 10.5391 26 10.5625 26C11.1445 27.1289 12.1523 28 13.5 28C14.4766 28 15.3633 27.5898 16 26.9375C16.6367 27.5898 17.5234 28 18.5 28C19.8477 28 20.8555 27.1289 21.4375 26C21.4609 26 21.4727 26 21.5 26C23.8477 26 25.7734 24.1719 25.9688 21.875H26C26 21.8125 25.9727 21.75 25.9688 21.6875C25.9727 21.625 26 21.5625 26 21.5C26 21.1289 25.8672 20.8125 25.7812 20.4688C27.0781 19.3672 28 17.8281 28 16C28 14.7539 27.582 13.6367 26.9375 12.6875C26.9727 12.4648 27 12.2461 27 12C27 9.55078 25.1758 7.60547 22.8438 7.1875C22.457 5.38672 20.9102 4 19 4C17.8008 4 16.7344 4.55859 16 5.40625C15.2656 4.55859 14.1992 4 13 4ZM13 6C14.1172 6 15 6.88281 15 8V10C15 11.668 13.668 13 12 13V15C13.1328 15 14.1602 14.6094 15 13.9688V24.5C15 25.3398 14.3398 26 13.5 26C12.7539 26 12.1562 25.4844 12.0312 24.7812L11.8438 23.8125L10.875 23.9688C10.6992 23.9961 10.5898 24 10.5 24C9.10938 24 8 22.8906 8 21.5C8 21.1914 8.05078 20.9023 8.15625 20.625C8.16406 20.6016 8.17969 20.5859 8.1875 20.5625C8.49609 19.793 9.16797 19.2305 10 19.0625L9.59375 17.0938C8.55078 17.3047 7.64453 17.8594 7 18.6562C6.37109 17.9531 6 17.0234 6 16C6 15.0625 6.32031 14.2266 6.875 13.5312L7.1875 13.1562L7.09375 12.6562C7.03906 12.4219 7 12.2148 7 12C7 10.332 8.33203 9 10 9H11V8C11 6.88281 11.8828 6 13 6ZM19 6C20.1172 6 21 6.88281 21 8V9H22C23.668 9 25 10.332 25 12C25 12.2148 24.9609 12.4219 24.9062 12.6562L24.8125 13.1562L25.125 13.5312C25.6797 14.2266 26 15.0625 26 16C26 17.1992 25.4883 18.2695 24.6562 19C23.9727 18.3945 23.1016 18 22.125 18C21.1797 18 20.3281 18.3359 19.6562 18.9062L20.9375 20.4375C21.2617 20.1641 21.6602 20 22.125 20C23.0898 20 23.8594 20.7227 23.9688 21.6562C23.8867 22.9727 22.8359 24 21.5 24C21.4102 24 21.3008 23.9961 21.125 23.9688L20.1562 23.8125L19.9688 24.7812C19.8438 25.4844 19.2461 26 18.5 26C17.6602 26 17 25.3398 17 24.5V13.9688C17.8398 14.6094 18.8672 15 20 15V13C18.332 13 17 11.668 17 10V8C17 6.88281 17.8828 6 19 6Z" fill="black"/>
</g>
</svg>
