<svg width="32" height="32" viewBox="0 0 32 32" fill="none" xmlns="http://www.w3.org/2000/svg">
<g id="bread-slice-solid">
<path id="Vector" d="M16 4C8.822 4 4 8.43036 4 12.5684C4 14.0144 4.775 15.1919 6 15.7129V24C6 26.206 7.794 28 10 28H22C24.206 28 26 26.206 26 24V15.7129C27.225 15.1919 28 14.0144 28 12.5684C28 8.43036 23.178 4 16 4ZM16 6C22.438 6 26 9.88336 26 12.5684C26 13.3364 25.5667 13.8626 24.8438 13.9766L24 14.1113V24C24 25.103 23.103 26 22 26H10C8.897 26 8 25.103 8 24V14.1113L7.15625 13.9785C6.43325 13.8635 6 13.3364 6 12.5684C6 9.88336 9.562 6 16 6Z" fill="black"/>
</g>
</svg>
