<svg width="32" height="32" viewBox="0 0 32 32" fill="none" xmlns="http://www.w3.org/2000/svg">
<g id="broadcast-tower-solid">
<path id="Vector" d="M7.1875 4.1875C2.89063 8.37109 2.90625 15.3125 7.1875 19.5938L8.59375 18.1875C5.07422 14.668 5.08985 9.03906 8.59375 5.625L7.1875 4.1875ZM24.8125 4.28125L23.4063 5.71875C26.9297 9.24219 26.9297 14.7578 23.4063 18.2812L24.8125 19.7188C29.0859 15.4453 29.0859 8.55469 24.8125 4.28125ZM9.90625 7.1875C7.32032 9.77344 7.32032 14.0078 9.90625 16.5938L11.3125 15.1875C9.5 13.375 9.5 10.4062 11.3125 8.59375L9.90625 7.1875ZM22.0938 7.28125L20.6875 8.71875C22.5 10.5312 22.5 13.4688 20.6875 15.2812L22.0938 16.7188C24.6797 14.1328 24.6797 9.86719 22.0938 7.28125ZM16 10C14.8945 10 14 10.8945 14 12C14 12.625 14.3008 13.1641 14.75 13.5312L10.3125 26H9V28H13V26H12.4063L16 15.9688L19.5938 26H19V28H23V26H21.6875L17.25 13.5312C17.6992 13.1641 18 12.625 18 12C18 10.8945 17.1055 10 16 10Z" fill="black"/>
</g>
</svg>
