<svg width="32" height="32" viewBox="0 0 32 32" fill="none" xmlns="http://www.w3.org/2000/svg">
<g id="brush-solid">
<path id="Vector" d="M19 2.03125L18.2812 2.71875L12.7188 8.3125L12 9L11 10L8.71875 12.3125L8.15625 12.875L8.59375 13.5625C8.59375 13.5625 9.20312 14.5 9.6875 15.5312C9.92969 16.0469 10.1484 16.5938 10.2188 16.9688C10.2539 17.1562 10.2578 17.2695 10.25 17.3125C10.1406 17.3984 8.82422 18.4414 7.25 19.7188C5.60937 21.0469 3.86719 22.4453 3.15625 23.1562C1.60156 24.7109 1.60156 27.2578 3.15625 28.8125C4.70312 30.3594 7.22656 30.3477 8.78125 28.8125H8.8125C9.52734 28.0977 10.9609 26.3828 12.2812 24.75C13.5703 23.1562 14.6562 21.8008 14.7188 21.7188C14.7148 21.7227 14.7617 21.6562 15.125 21.7188C15.4883 21.7812 16.0039 21.9688 16.5 22.2188C17.4922 22.7148 18.4062 23.375 18.4062 23.375L19.0938 23.875L19.6875 23.2812L22 21L23 20L23.6875 19.2812L29.2812 13.7188L29.9688 13L29.2812 12.2812L19.7188 2.71875L19 2.03125ZM20.3125 7.25C20.5039 7.26562 20.6523 7.33984 20.7812 7.46875C21.293 7.98438 20.5469 9.98828 20.1875 10.8438C19.8281 11.7031 19.9414 12.375 20.4062 12.8438C21.1992 13.6445 23.2969 11.7617 24.1875 12.6562C25.0742 13.5508 23.4609 15.4531 24.0312 16.0312C24.043 16.043 24.0508 16.0508 24.0625 16.0625L22.2812 17.8438L14.1562 9.71875L15.5312 8.34375C15.5508 8.36719 15.5703 8.38281 15.5938 8.40625C16.2734 9.08984 17.668 8.4375 18.25 8.0625C18.9375 7.62109 19.7422 7.20312 20.3125 7.25ZM12.7188 11.1562L20.8438 19.2812L20.5625 19.5625L18.8438 21.3125C18.457 21.0469 18.1875 20.8281 17.4062 20.4375C16.8086 20.1406 16.1602 19.8672 15.4688 19.75C14.7773 19.6328 13.9023 19.6602 13.2812 20.2812L13.25 20.3438L13.2188 20.375C13.2188 20.375 12.0391 21.8711 10.7188 23.5C9.39844 25.1289 7.86719 26.9453 7.40625 27.4062C6.61719 28.1953 5.38281 28.1953 4.59375 27.4062C3.80469 26.6172 3.80469 25.3828 4.59375 24.5938C5.05469 24.1328 6.87109 22.6016 8.5 21.2812C10.1289 19.9609 11.625 18.7812 11.625 18.7812L11.6562 18.75L11.7188 18.7188C12.3516 18.0898 12.3125 17.2539 12.1875 16.5938C12.0625 15.9336 11.7812 15.2891 11.5 14.6875C11.1211 13.875 10.8984 13.5781 10.6562 13.1875L12.4375 11.4375L12.7188 11.1562ZM6.25 24.6562C5.64453 24.6562 5.15625 25.1445 5.15625 25.75C5.15625 26.3555 5.64453 26.8438 6.25 26.8438C6.85547 26.8438 7.34375 26.3555 7.34375 25.75C7.34375 25.1445 6.85547 24.6562 6.25 24.6562Z" fill="black"/>
</g>
</svg>
