<svg width="32" height="32" viewBox="0 0 32 32" fill="none" xmlns="http://www.w3.org/2000/svg">
<g id="buffer">
<path id="Vector" d="M16 5C15.844 5 15.6879 5.02984 15.5449 5.08984L3.19531 10.7852C2.93531 10.9052 2.93531 11.0929 3.19531 11.2129L15.5449 16.9102C15.6879 16.9702 15.844 17 16 17C16.156 17 16.3121 16.9702 16.4551 16.9102L28.8047 11.2129C29.0647 11.0929 29.0647 10.9052 28.8047 10.7852L16.4551 5.08984C16.3121 5.02984 16.156 5 16 5ZM16 7.08203L24.4922 11L16 14.918L7.50781 11L16 7.08203ZM4.83984 14.4473L3.19531 15.2695C2.93531 15.3995 2.93531 15.6005 3.19531 15.7305L15.5449 21.9023C15.6879 21.9673 15.844 22 16 22C16.156 22 16.3121 21.9673 16.4551 21.9023L28.8047 15.7305C29.0647 15.6005 29.0647 15.3995 28.8047 15.2695L27.1601 14.4473L16.4551 19.7969C16.3121 19.8619 16.156 19.8945 16 19.8945C15.844 19.8945 15.6879 19.8619 15.5449 19.7969L4.83984 14.4473ZM4.83984 19.4473L3.19531 20.2695C2.93531 20.3995 2.93531 20.6005 3.19531 20.7305L15.5449 26.9023C15.6879 26.9673 15.844 27 16 27C16.156 27 16.3121 26.9673 16.4551 26.9023L28.8047 20.7305C29.0647 20.6005 29.0647 20.3995 28.8047 20.2695L27.1601 19.4473L16.4551 24.7969C16.3121 24.8619 16.156 24.8945 16 24.8945C15.844 24.8945 15.6879 24.8619 15.5449 24.7969L4.83984 19.4473Z" fill="black"/>
</g>
</svg>
