<svg width="32" height="32" viewBox="0 0 32 32" fill="none" xmlns="http://www.w3.org/2000/svg">
<g id="bug-solid">
<path id="Vector" d="M10.7188 3.28125L9.28125 4.71875L11.2188 6.65625C9.75781 7.77344 8.60938 9.41016 7.875 11.3125L5.4375 10.0938L4.5625 11.9062L7.3125 13.2812C7.12891 14.1562 7 15.0625 7 16C7 16.3398 7.00781 16.668 7.03125 17H4V19H7.375C7.61719 20.043 7.9375 21.0391 8.40625 21.9375L5.40625 24.1875L6.59375 25.8125L9.53125 23.625C11.1484 25.6797 13.418 27 16 27C18.582 27 20.8516 25.6797 22.4688 23.625L25.4062 25.8125L26.5938 24.1875L23.5938 21.9375C24.0625 21.0391 24.3828 20.043 24.625 19H28V17H24.9688C24.9922 16.668 25 16.3398 25 16C25 15.0625 24.8711 14.1562 24.6875 13.2812L27.4375 11.9062L26.5625 10.0938L24.125 11.3125C23.3906 9.41016 22.2422 7.77344 20.7812 6.65625L22.7188 4.71875L21.2812 3.28125L18.9688 5.59375C18.0469 5.20312 17.0469 5 16 5C14.9531 5 13.9531 5.20312 13.0312 5.59375L10.7188 3.28125ZM16 7C17.9766 7 19.8281 8.09375 21.125 9.875C19.9922 10.3867 18.1992 11 16 11C13.8008 11 12.0078 10.3867 10.875 9.875C12.1719 8.09375 14.0234 7 16 7ZM9.90625 11.5938C11.0586 12.1367 12.8281 12.7734 15 12.9375V24.9062C11.6992 24.2812 9 20.6289 9 16C9 14.3828 9.33594 12.8867 9.90625 11.5938ZM22.0938 11.5938C22.6641 12.8867 23 14.3828 23 16C23 20.6289 20.3008 24.2812 17 24.9062V12.9375C19.1719 12.7734 20.9414 12.1367 22.0938 11.5938Z" fill="black"/>
</g>
</svg>
