<svg width="32" height="32" viewBox="0 0 32 32" fill="none" xmlns="http://www.w3.org/2000/svg">
<g id="bullhorn-solid">
<path id="Vector" d="M28 3.03125L26.4062 4.1875C26.4062 4.1875 24.418 5.66406 21.5625 7.125C18.707 8.58594 14.9883 10 11.7188 10H2V19.125L2.03125 19.2812L4.03125 26.2812L4.25 27H10.3125L9.96875 25.7188L8.34375 20H11.7188C14.9453 20 18.6641 21.4414 21.5312 22.9062C24.3984 24.3711 26.4062 25.8125 26.4062 25.8125L28 26.9688V17.8125C29.1562 17.3945 30 16.293 30 15C30 13.707 29.1562 12.6055 28 12.1875V3.03125ZM26 6.75V23.2188C25.1719 22.6602 24.5156 22.1523 22.4375 21.0938C19.5 19.5938 15.707 18.0742 12 18V12C15.7422 11.9258 19.5391 10.375 22.4688 8.875C24.543 7.8125 25.1797 7.30859 26 6.75ZM4 12H10V18H4V12ZM4.34375 20H6.25L7.65625 25H5.75L4.34375 20Z" fill="black"/>
</g>
</svg>
