<svg width="32" height="32" viewBox="0 0 32 32" fill="none" xmlns="http://www.w3.org/2000/svg">
<g id="bus-alt-solid">
<path id="Vector" d="M12 3C10.6984 3 9.59786 3.83875 9.18359 5H9C6.8 5 5 6.8 5 9V14H3V17H5V27C5 27.55 5.45 28 6 28H9L9.33984 27H22.6602L23 28H26C26.55 28 27 27.55 27 27V17H29V14H27V9C27 6.8 25.2 5 23 5H22.8164C22.4021 3.83875 21.3016 3 20 3H12ZM12 5H20C20.552 5 21 5.449 21 6V7H23C24.12 7 25 7.88 25 9V11H7V9C7 7.88 7.88 7 9 7H11V6C11 5.449 11.448 5 12 5ZM13 7V9H19V7H13ZM7 13H15V17H7V13ZM17 13H25V17H17V13ZM7 19H25V25H7V19ZM8 21V23H12V21H8ZM20 21V23H24V21H20Z" fill="black"/>
</g>
</svg>
