<svg width="32" height="32" viewBox="0 0 32 32" fill="none" xmlns="http://www.w3.org/2000/svg">
<g id="business-time-solid">
<path id="Vector" d="M14 3C13.48 3 12.9405 3.18055 12.5605 3.56055C12.1805 3.94055 12 4.48 12 5V6H3V26H14.1992C14.0692 25.36 14 24.69 14 24H5V17.4395C5.59 17.7795 6.27 18 7 18H16.0098C16.5698 17.24 17.2498 16.56 18.0098 16H7C5.81 16 5 15.19 5 14V8H27V14C27 14.16 26.9909 14.3092 26.9609 14.4492C27.6809 14.6692 28.36 14.9698 29 15.3398V6H20V5C20 4.48 19.8195 3.94055 19.4395 3.56055C19.0595 3.18055 18.52 3 18 3H14ZM14 5H18V6H14V5ZM9 12V15H11V12H9ZM21 12V14.4609C21.32 14.3609 21.6467 14.2758 21.9805 14.207C22.3142 14.1383 22.655 14.0858 23 14.0508V12H21ZM24 16C19.59 16 16 19.59 16 24C16 28.41 19.59 32 24 32C28.41 32 32 28.41 32 24C32 19.59 28.41 16 24 16ZM24 18C27.32 18 30 20.68 30 24C30 27.32 27.32 30 24 30C20.68 30 18 27.32 18 24C18 20.68 20.68 18 24 18ZM23 19V25H28V23H25V19H23Z" fill="black"/>
</g>
</svg>
