<svg width="32" height="32" viewBox="0 0 32 32" fill="none" xmlns="http://www.w3.org/2000/svg">
<g id="buy-n-large">
<path id="Vector" d="M16 4.21094C7.72 4.21094 1 9.49 1 16C1 22.51 7.72 27.7891 16 27.7891C24.28 27.7891 31 22.51 31 16C31 9.49 24.28 4.21094 16 4.21094ZM8.83984 8H15.3496C18.4996 8 19.5902 9.47976 19.2402 11.7598C19.2302 11.8398 19.1806 12.0197 19.1406 12.1797C18.7906 12.0697 18.4193 12 18.0293 12C15.8193 12 14.0293 13.79 14.0293 16C14.0293 18.03 15.5498 19.6892 17.5098 19.9492C17.4998 19.9492 17.5 19.9607 17.5 19.9707C16.56 21.7607 14.7 22.97 11.75 23C11.75 23 5.01 23.01 5 23L8.83984 8ZM21.3496 8H26L23.2109 19H28L27 23H17.6094L18.3594 19.9707C20.4194 19.8007 22.0293 18.1 22.0293 16C22.0293 14.59 21.2995 13.3506 20.1895 12.6406L21.3496 8ZM11.9902 11L11.3398 13.7598H12.5293C13.5393 13.7598 14.5109 12.9703 14.7109 12.0703C14.9309 11.0803 14.2397 11 13.1797 11H11.9902ZM16.4297 13.4199H18.0703L18.8496 15.4102L19.3496 13.4199H21.0293L19.8691 18.3203H18.0098L17.4297 16.3809L17.0195 18.3203H15.0293L16.4297 13.4199ZM10.6094 16.7402L9.83984 20H11.2207C12.1207 20 13.0098 19.8209 13.3398 18.4609C13.6498 17.1709 12.8902 16.7402 11.9902 16.7402H10.6094Z" fill="black"/>
</g>
</svg>
