<svg width="32" height="32" viewBox="0 0 32 32" fill="none" xmlns="http://www.w3.org/2000/svg">
<g id="camera-retro-solid">
<path id="Vector" d="M11.5 6L11.1875 6.40625L10 8H9V7H5V8H3V26H29V8H22L20.8125 6.40625L20.5 6H11.5ZM12.5 8H19.5L20.6875 9.59375L21 10H27V14H21.1875C20.1445 12.2148 18.207 11 16 11C13.793 11 11.8555 12.2148 10.8125 14H5V10H11L11.3125 9.59375L12.5 8ZM23 11V13H25V11H23ZM16 13C18.2227 13 20 14.7773 20 17C20 19.2227 18.2227 21 16 21C13.7773 21 12 19.2227 12 17C12 14.7773 13.7773 13 16 13ZM5 16H10.0938C10.0391 16.3203 10 16.6641 10 17C10 20.3008 12.6992 23 16 23C19.3008 23 22 20.3008 22 17C22 16.6641 21.9609 16.3203 21.9062 16H27V24H5V16Z" fill="black"/>
</g>
</svg>
