<svg width="32" height="32" viewBox="0 0 32 32" fill="none" xmlns="http://www.w3.org/2000/svg">
<g id="campground-solid">
<path id="Vector" d="M10.5312 4.875L10.1562 5.46875C10.1562 5.46875 8.89453 7.41016 7.28125 9.625C5.66797 11.8398 3.63281 14.3477 2.4375 15.1875L1.9375 15.5312L2 16.125L3 25.125L3.09375 26H4C5.48438 26 7.21484 26.0781 8.9375 26.1875L10 26.25V18H12V26.4062L12.9062 26.5C15.7344 26.75 17.875 27 17.875 27H18.0312L28.9688 24.8125L29 24.0312C29 24.0312 29.0898 22.3633 29.25 20.4062C29.4102 18.4492 29.6719 16.1484 29.9375 15.3125L30.1562 14.625L29.625 14.2188C26.1758 11.5469 22.875 5.53125 22.875 5.53125L22.5625 4.90625L21.8438 5C21.8438 5 15.418 5.88672 11.1875 5.03125L10.5312 4.875ZM21.4688 7.0625C21.8789 7.82422 23.9023 11.4414 26.8125 14.3125L19.2812 15.5C16.8164 13.1328 14.3047 9.39062 12.9375 7.21875C16.8086 7.61719 20.6289 7.17578 21.4688 7.0625ZM10.9375 7.875C12.25 9.98828 15.0039 14.1367 17.9062 16.9062C17.25 19.582 17.0508 23.1484 17 24.9062C16.332 24.8359 15.5273 24.7383 14 24.5938V16H8V24.1562C6.93359 24.0977 5.89844 24.0469 4.90625 24.0312L4.0625 16.3438C5.67578 15.0312 7.40234 12.875 8.90625 10.8125C9.88281 9.46875 10.4922 8.55078 10.9375 7.875ZM27.7812 16.2188C27.5469 17.4102 27.3672 18.8164 27.25 20.2188C27.1211 21.8008 27.0898 22.668 27.0625 23.1875L19.0312 24.8125C19.082 23.0508 19.2656 19.7188 19.7812 17.4688L27.7812 16.2188Z" fill="black"/>
</g>
</svg>
