<svg width="32" height="32" viewBox="0 0 32 32" fill="none" xmlns="http://www.w3.org/2000/svg">
<g id="canadian-maple-leaf">
<path id="Vector" d="M16 3.03125L15.2812 3.75L13.0938 5.96875L10.9062 6.65625L10 6.9375L10.2188 7.84375L11.4062 12.6562L9.6875 11.4688L9 11L6.78125 13.2188L3.84375 14.5312L2.96875 14.9375L3.3125 15.8125L4.4375 18.6562L4.125 21.0312L4 22.0312L11 22.9062V25H15V29H17V25H21V22.9062L28 22.0312L27.875 21.0312L27.5625 18.6562L28.6875 15.8125L29.0312 14.9375L28.1562 14.5312L25.2188 13.2188L23 11L22.3125 11.4688L20.5938 12.6562L21.7812 7.84375L22 6.9375L21.0938 6.65625L18.9062 5.96875L16.7188 3.75L16 3.03125ZM16 5.875L17.875 7.75L18.0938 7.8125L19.625 8.28125L18.0312 14.75L17.4062 17.3438L19.5625 15.8125L22.75 13.5938L23.9062 14.7812L24.0625 14.9062L24.2188 15L26.4688 16L25.625 18.1562L25.5312 18.4062L25.5625 18.6562L25.75 20.2812L19.875 21L19 21.125V23H13V21.125L12.125 21L6.25 20.2812L6.4375 18.6562L6.46875 18.4062L6.375 18.1562L5.53125 16L7.78125 15L7.9375 14.9062L8.09375 14.7812L9.25 13.5938L12.4375 15.8125L14.5938 17.3438L13.9688 14.75L12.375 8.28125L13.9062 7.8125L14.125 7.75L16 5.875Z" fill="black"/>
</g>
</svg>
