<svg width="32" height="32" viewBox="0 0 32 32" fill="none" xmlns="http://www.w3.org/2000/svg">
<g id="candy-cane-solid">
<path id="Vector" d="M18 2C15.8516 2 13.8203 2.84766 12.3125 4.375L11.5938 5.09375L10.9062 5.8125L11.625 6.5L14.4688 9.3125L15.1562 10.0312L15.875 9.3125L16.5625 8.59375C16.9453 8.20703 17.4531 8 18 8C19.1133 8 20 8.88672 20 10C20 10.543 19.7891 11.0234 19.4062 11.4062L5.71875 25.0312L5 25.75L5.71875 26.4375L8.53125 29.2812L9.25 30L9.9375 29.2812L23.6562 15.6562C25.1641 14.1484 26 12.1289 26 10C26 5.59766 22.4023 2 18 2ZM18 4C18.8047 4 19.582 4.15234 20.2812 4.4375L19.2188 6.21875C18.8516 6.10156 18.4648 6.00781 18.0625 6L17.4375 4.03125C17.625 4.01562 17.8086 4 18 4ZM15.5312 4.5625L16.125 6.5C15.7773 6.6875 15.4375 6.90234 15.1562 7.1875L13.7188 5.78125C14.2461 5.25 14.8711 4.85938 15.5312 4.5625ZM21.9688 5.5C22.5977 6.05469 23.1172 6.72656 23.4688 7.5L21.5312 8.1875C21.3672 7.87109 21.1758 7.57422 20.9375 7.3125L21.9688 5.5ZM23.9688 9.4375C23.9844 9.62109 24 9.8125 24 10C24 10.6953 23.875 11.3672 23.6562 12H21.4688C21.7891 11.4453 21.9766 10.8086 22 10.1562L23.9688 9.4375ZM19.6562 14H22.4688C22.3945 14.082 22.3281 14.1719 22.25 14.25L20.5 16H17.6562L19.6562 14ZM15.625 18H18.4688L16.4688 20H13.625L15.625 18ZM11.625 22H14.4375L12.4375 24H9.59375L11.625 22ZM8.09375 26H10.4062L9.25 27.1562L8.09375 26Z" fill="black"/>
</g>
</svg>
