<svg width="32" height="32" viewBox="0 0 32 32" fill="none" xmlns="http://www.w3.org/2000/svg">
<g id="cannabis-solid">
<path id="Vector" d="M28 18.7695V16.2148L26.125 15.957C26.0312 15.9453 24.875 15.8359 23.5469 15.8281C24.9883 13.1211 25.5469 10.7461 25.5508 10.7188L25.8633 9.35938L24.6953 8.59766L24.625 8.55469L23.6328 7.90234L22.5859 8.46484C22.3359 8.59766 20.7852 9.44922 19.2305 10.8008C18.9375 8.17578 18.2617 5.97656 17.9844 5.26953L17.4883 4H14.5742L14.0625 5.22656C14.0039 5.36328 12.8008 8.26562 12.5039 11.7188C10.8555 10.375 8.0625 8.83203 8.0625 8.83203L5.95312 10.4766L6.15625 11.5117C6.37109 12.5273 7.45312 15 7.45312 15C6.33203 15 4 15.3945 4 15.3945V18.0352C4 18.0352 5.875 19.625 8.03516 20.7695C7.94531 20.8555 7.88281 20.918 7.85547 20.9453L6.91797 21.75L7.19531 22.8242L7.49219 23.9648L8.64453 24.3008C8.8125 24.3438 9.88281 24.5586 11.0547 24.5586C11.8828 24.5586 12.6641 24.4531 13.3828 24.2422C13.457 24.2227 13.5312 24.2031 13.6055 24.1797C13.8164 25.3867 14.0742 26.3477 14.1211 26.5273L14.5273 28H21C19.707 26.668 18.8203 24.582 18.8203 24.582C18.8086 24.5703 18.8008 24.5547 18.7891 24.5391C19.582 24.875 20.625 25 21.5938 25.0234L22.957 24.9375L23.5039 24.043L24.0391 23.125C24.0391 23.125 23.582 22.043 23.0625 21.5742C24.6016 21.0078 26.4492 20.168 27.2344 19.4219L28 18.7695ZM21.5 19.9844C20.918 20.1523 19.2305 20.3828 18.6055 20.4609C18.6055 20.4609 21.0195 21.8555 21.4141 22.8984C21.4141 22.9102 21.4219 22.9219 21.4219 22.9336C21.3984 22.9336 21.375 22.918 21.3516 22.9219C19.4766 23.0664 16.5273 21.418 16.1914 21.1289C16.2617 22.1992 16.6445 24.6992 17.5469 25.9688L17.5195 26H16.0508C16.0508 26 14.957 23.0703 15.0312 21.0312C14.5195 21.4688 13.9258 22.0312 12.8242 22.3242C12.2188 22.5 11.6016 22.5586 11.0547 22.5586C10.1953 22.5586 9.33984 22.4141 9.14062 22.3633L9.13281 22.3242C9.13281 22.3242 10.5547 21.0117 12.3867 20.5742C12.6055 20.5039 12.8281 20.4297 13.0469 20.4297C12.3125 20.2852 11.582 20.1406 10.7734 19.8477C8.36719 18.9609 6.30469 17.3867 6.10938 17.1914L6.10547 17.1484C6.10547 17.1484 6.87109 17.1094 7.45312 17.1094C8.39844 17.1094 9.94531 17.2188 11.5781 17.8047C12.0195 17.9531 12.4609 18.0977 12.8281 18.3164C12.2188 17.7812 9.1875 15.25 8.28906 11.4414C8.28906 11.4414 12.6875 13.707 14.9805 17.332C14.6445 15.75 14.4414 14.0273 14.4414 13.2031C14.4414 9.49609 15.9062 6 15.9062 6H16.125C16.4688 6.87891 17.3711 9.99609 17.3711 13.2031C17.3711 14.2891 17.0664 16.8086 17.0078 17.2969C17.168 16.9062 17.7812 15.7031 18.6133 14.4375C20.2109 12.0039 23.5312 10.2266 23.5312 10.2266L23.6016 10.2734C23.4883 10.7734 22.7109 13.5781 20.9648 16.2734C20.5312 16.9453 19.1758 18.2227 19.0586 18.3164C19.2656 18.2656 19.9727 17.9883 22.0664 17.8672C22.5703 17.8398 23.0312 17.8281 23.4414 17.8281C24.7383 17.8281 25.8516 17.9375 25.8516 17.9375L25.8555 17.9727C25.2422 18.5547 23.2578 19.4805 21.5 19.9844Z" fill="black"/>
</g>
</svg>
