<svg width="32" height="32" viewBox="0 0 32 32" fill="none" xmlns="http://www.w3.org/2000/svg">
<g id="car-crash-solid">
<path id="Vector" d="M9.5 6C8.17969 6 7.00391 6.85938 6.625 8.125L5.25 12.7188L3.3125 12.0625L2.6875 13.9375L4.65625 14.5938L4.03125 16.7188C4.00781 16.8086 3.99609 16.9062 4 17V23C4 23.0312 4 23.0625 4 23.0938V25C4 25.5508 4.44922 26 5 26H8L8.65625 24H13.9062L23.8438 25.5312L24 26H27C27.0117 26 27.0195 26 27.0312 26C27.2734 26 27.5078 25.9102 27.6875 25.75C27.6992 25.7383 27.707 25.7305 27.7188 25.7188C27.7305 25.707 27.7422 25.6992 27.75 25.6875C27.9023 25.5156 27.9922 25.293 28 25.0625C28 25.043 28 25.0195 28 25V24.9688C28.0039 24.9258 28.0039 24.8867 28 24.8438L27.1562 19H29V17H26.625L24.5 12.6562L25.375 9.71875C25.5 9.31641 25.3633 8.88281 25.0312 8.625L23.0938 7.1875C22.9453 7.08203 22.7734 7.01562 22.5938 7L9.5625 6C9.54297 6 9.51953 6 9.5 6ZM9.5 8L22.125 8.96875L23.25 9.8125L22.4688 12.4375C22.3906 12.6875 22.4141 12.957 22.5312 13.1875L24.0312 16.25L17.9062 14.125L17.7812 14.0625H17.6562L7.21875 13.0938L8.53125 8.71875C8.66016 8.28906 9.05469 8 9.5 8ZM6.625 15.0625L17.4062 16.0625H17.4688L25.0938 18.75L25.8125 23.7812L14.2188 22C14.168 21.9961 14.1133 21.9961 14.0625 22H12.9062L13.3438 21L17.6562 21.625L20.25 22L19 20L12 19L10.75 22H6V17.1875L6.625 15.0625ZM8.5 16C7.67188 16 7 16.6719 7 17.5C7 18.3281 7.67188 19 8.5 19C9.32812 19 10 18.3281 10 17.5C10 16.6719 9.32812 16 8.5 16ZM20.875 18.75C20.5391 19.6914 21.0273 20.7266 21.9688 21.0625C22.9102 21.3984 23.9453 20.9102 24.2812 19.9688L20.875 18.75Z" fill="black"/>
</g>
</svg>
