<svg width="32" height="32" viewBox="0 0 32 32" fill="none" xmlns="http://www.w3.org/2000/svg">
<g id="car-side-solid">
<path id="Vector" d="M6.59375 6C5.25781 6 4.02344 6.66797 3.28125 7.78125L0.5 11.9375C0.171875 12.4297 0 13 0 13.5938V20.2188C0 21.1328 0.613281 21.9336 1.5 22.1562L4.09375 22.8125C4.46875 24.6289 6.07812 26 8 26C9.85156 26 11.3984 24.7188 11.8438 23H21.1562C21.6016 24.7188 23.1484 26 25 26C26.8516 26 28.3984 24.7188 28.8438 23H30C31.0938 23 32 22.0938 32 21V17.3438C32 15.5117 30.7461 13.9102 28.9688 13.4688L23.5625 12.0938L19.6562 7.4375C18.8945 6.52734 17.7812 6 16.5938 6H6.59375ZM6.59375 8H11V12H2.875L4.9375 8.90625V8.875C5.30859 8.31641 5.92188 8 6.59375 8ZM13 8H16.5938C17.1875 8 17.7461 8.26172 18.125 8.71875L20.875 12H13V8ZM2 14H22.875L28.5 15.4062C29.3945 15.6289 30 16.4219 30 17.3438V21H28.8438C28.3984 19.2812 26.8516 18 25 18C23.1484 18 21.6016 19.2812 21.1562 21H11.8438C11.3984 19.2812 9.85156 18 8 18C6.22656 18 4.73828 19.1719 4.21875 20.7812L2 20.2188V14ZM8 20C9.11719 20 10 20.8828 10 22C10 23.1172 9.11719 24 8 24C6.88281 24 6 23.1172 6 22C6 20.8828 6.88281 20 8 20ZM25 20C26.1172 20 27 20.8828 27 22C27 23.1172 26.1172 24 25 24C23.8828 24 23 23.1172 23 22C23 20.8828 23.8828 20 25 20Z" fill="black"/>
</g>
</svg>
