<svg width="32" height="32" viewBox="0 0 32 32" fill="none" xmlns="http://www.w3.org/2000/svg">
<g id="carrot-solid">
<path id="Vector" d="M22.875 3.15625L21.75 4.8125C21.75 4.8125 22.3633 5.28906 22.6562 5.96875C22.9102 6.56641 23.0938 7.26562 22.125 8.4375L21.25 9.3125C18.3047 6.80469 15.3125 6.6875 15.3125 6.6875H14.75L14.4375 7.1875C14.4375 7.1875 11.8867 11.5234 9.4375 16C8.21094 18.2383 7 20.5156 6.15625 22.3125C5.73437 23.2109 5.40234 23.9922 5.1875 24.625C5.08203 24.9414 5.00781 25.207 4.96875 25.5C4.92969 25.793 4.82031 26.1953 5.3125 26.6875C5.80469 27.1797 6.20703 27.0703 6.5 27.0312C6.79297 26.9922 7.05859 26.918 7.375 26.8125C8.00781 26.5977 8.78906 26.2656 9.6875 25.8438C11.4844 25 13.7617 23.7891 16 22.5625C20.4727 20.1094 24.8125 17.5625 24.8125 17.5625L25.3125 17.25V16.6562C25.3125 16.6562 25.1797 13.6992 22.6875 10.75L23.0312 10.375C23.1172 10.2891 23.1953 10.2305 23.2812 10.1562L23.5312 9.9375C24.7109 9.03125 25.8281 9.06641 26.8125 9.3125C27.9375 9.59375 28.7188 10.1875 28.7188 10.1875L29.9688 8.625C29.9688 8.625 28.8594 7.76953 27.2812 7.375C26.9531 7.29297 26.5938 7.24609 26.2188 7.21875L28.25 5.1875L26.8125 3.75L24.7188 5.84375C24.668 5.60156 24.5898 5.36719 24.5 5.15625C23.9375 3.84375 22.875 3.15625 22.875 3.15625ZM15.8125 8.8125C16.4687 8.875 18.3477 9.14844 20.5937 11.4062C22.8438 13.6719 23.1211 15.5352 23.1875 16.1875C23.0234 16.2852 22.168 16.8008 21.5 17.1875C21.2383 16.6016 20.8203 15.8125 20.1875 14.9688L18.5937 16.1875C19.2969 17.125 19.5859 17.7695 19.75 18.1875C18.3867 18.9648 16.8242 19.8281 15.0312 20.8125C14.9336 20.8633 14.8477 20.918 14.75 20.9688C14.5664 20.4219 14.2656 19.7617 13.7187 19L12.0937 20.1562C12.5859 20.8438 12.8281 21.4102 12.9375 21.7812C12.957 21.8438 12.957 21.8594 12.9687 21.9062C11.4727 22.707 10.0273 23.4766 8.84375 24.0312C8.22656 24.3203 7.78906 24.4805 7.34375 24.6562C7.51953 24.2109 7.67969 23.7734 7.96875 23.1562C8.77734 21.4336 9.97266 19.1875 11.1875 16.9688C11.7734 15.8984 12.2187 15.0977 12.75 14.1562C13.0703 14.4375 13.4844 14.8164 13.9375 15.4062L15.5 14.1875C14.8516 13.3398 14.2148 12.7422 13.75 12.375C14.7969 10.5391 15.6328 9.12109 15.8125 8.8125Z" fill="black"/>
</g>
</svg>
