<svg width="32" height="32" viewBox="0 0 32 32" fill="none" xmlns="http://www.w3.org/2000/svg">
<g id="cash-register-solid">
<path id="Vector" d="M22 3V7C20.1523 7 18.3867 7.33203 16.7344 7.91016L16.207 6.76172L17.1094 6.35938L16.2969 4.53125L12.6445 6.15625L13.457 7.98438L14.3789 7.57422L14.8906 8.67969C13.7969 9.22656 12.7812 9.89844 11.8477 10.668L11.0625 9.83203L11.7891 9.16406L10.4375 7.6875L7.49219 10.3945L8.84375 11.8711L9.58594 11.1875L10.3906 12.0352C9.43359 13.0508 8.60938 14.1914 7.94531 15.4297L6.86328 14.8945L7.3125 14.0117L5.53125 13.1055L3.71875 16.6719L5.5 17.5781L5.95703 16.6758L7.10156 17.2461C6.52344 18.7383 6.15625 20.332 6.05078 22H4V28H28V3H22ZM24 5H26V22H8.05078C8.5625 14.7266 14.5938 9 22 9H24V5ZM18 11.9531C16.8945 11.9531 16 12.8516 16 13.9531C16 14.668 16.3828 15.3281 17 15.6875V20H22V18H19V15.6836C19.6172 15.3281 20 14.668 20 13.9531C20 12.8516 19.1055 11.9531 18 11.9531ZM6 24H26V26H6V24Z" fill="black"/>
</g>
</svg>
