<svg width="32" height="32" viewBox="0 0 32 32" fill="none" xmlns="http://www.w3.org/2000/svg">
<g id="cat-solid">
<path id="Vector" d="M10 4C10 5.11719 9.11719 6 8 6H7C4.80078 6 3 7.80078 3 10C3 12.1992 4.80078 14 7 14H8.15625C8.05469 14.4883 8 14.9844 8 15.5V28H10V15.5C10 12.4688 12.4688 10 15.5 10C16.4023 10 17.25 10.207 18 10.5938V8.4375C17.2188 8.16016 16.3789 8 15.5 8C12.6328 8 10.1367 9.62891 8.875 12H7C5.88281 12 5 11.1172 5 10C5 8.88281 5.88281 8 7 8H8C10.1992 8 12 6.19922 12 4H10ZM19 6.09375V12.5C19 15.0508 21.3164 17 24 17C26.6836 17 29 15.0508 29 12.5V6.09375L27.4375 7.1875L25.7812 8.34375C25.2109 8.14062 24.6484 7.90625 24 7.90625C23.3516 7.90625 22.7891 8.14062 22.2188 8.34375L20.5625 7.1875L19 6.09375ZM24 9.90625C24.5781 9.90625 25.1094 10.0469 25.5625 10.2812L26.0938 10.5625L26.5938 10.2188L27 9.9375V12.5C27 13.8164 25.7344 15 24 15C22.2656 15 21 13.8164 21 12.5V9.9375L21.4062 10.2188L21.9062 10.5625L22.4375 10.2812C22.8906 10.0469 23.4219 9.90625 24 9.90625ZM17 15C14.2422 15 12 17.2422 12 20V28H14V20C14 18.3477 15.3477 17 17 17C18.6523 17 20 18.3477 20 20V28H22V20C22 19.0352 21.7266 18.1406 21.25 17.375C20.2852 16.9141 19.4766 16.2188 18.9062 15.375C18.3203 15.1328 17.6719 15 17 15ZM26 17.6875C25.3711 17.8906 24.7031 18 24 18V28H26V17.6875Z" fill="black"/>
</g>
</svg>
