<svg width="32" height="32" viewBox="0 0 32 32" fill="none" xmlns="http://www.w3.org/2000/svg">
<g id="cc-amex">
<path id="Vector" d="M5 6C3.35547 6 2 7.35547 2 9V23C2 24.6445 3.35547 26 5 26H27C28.6445 26 30 24.6445 30 23V9C30 7.35547 28.6445 6 27 6H5ZM5 8H27C27.5664 8 28 8.43359 28 9V23C28 23.5664 27.5664 24 27 24H5C4.43359 24 4 23.5664 4 23V9C4 8.43359 4.43359 8 5 8ZM7.0625 13.25L5 18.75H6.25L6.65625 17.5H9L9.40625 18.75H11.75V14.625L13.25 18.75H14.3438L15.875 14.75V18.75H16.9688V13.25H15.1875L13.8125 16.9688L12.4375 13.25H10.5V18.4688L8.5625 13.25H7.0625ZM18.4688 13.25V18.75H22.875L24.25 16.9688L25.625 18.75H27L24.9375 16L27 13.25H25.5L24.125 14.9062L23 13.25H18.4688ZM7.75 14.3438L8.4375 16.2812H7.0625L7.75 14.3438ZM19.5625 14.5H22.3125L23.4375 16L22.1875 17.6562H19.5625V16.5625H22.0625V15.4375H19.5625V14.5Z" fill="black"/>
</g>
</svg>
