<svg width="32" height="32" viewBox="0 0 32 32" fill="none" xmlns="http://www.w3.org/2000/svg">
<g id="cc-apple-pay">
<path id="Vector" d="M5 6C3.355 6 2 7.355 2 9V23C2 24.645 3.355 26 5 26H27C28.645 26 30 24.645 30 23V9C30 7.355 28.645 6 27 6H5ZM5 8H27C27.566 8 28 8.434 28 9V23C28 23.566 27.566 24 27 24H5C4.434 24 4 23.566 4 23V9C4 8.434 4.434 8 5 8ZM10.998 11C10.533 11 10.0022 11.2653 9.6582 11.6523C9.3922 11.9733 9.10313 12.4832 9.20312 12.9922C9.68013 13.0482 10.201 12.7493 10.5 12.3613C10.832 12.0073 11.02 11.509 10.998 11ZM13 13V19H13.9316V16.9453H15.2285C16.4035 16.9453 17.2344 16.1367 17.2344 14.9727C17.2344 13.7977 16.414 13 15.25 13H13ZM7.83789 13.5234C6.79889 13.5234 6 14.4333 6 15.7383C6 17.4383 7.19445 19 7.93945 19C8.38945 19 8.55434 18.6973 9.15234 18.6973C9.70334 18.6973 9.8767 19 10.3457 19C11.2367 19 11.972 17.1901 12 17.0801C11.853 17.0061 10.997 16.6029 10.998 15.6289C10.998 14.6829 11.7794 14.2582 11.8164 14.2402C11.3844 13.5972 10.7043 13.5234 10.4473 13.5234C9.85027 13.5234 9.32797 13.8457 9.04297 13.8457C8.74897 13.8457 8.31589 13.5234 7.83789 13.5234ZM13.9316 13.7871H15.0059C15.8149 13.7871 16.2812 14.2187 16.2812 14.9727C16.2812 15.7267 15.8149 16.1699 15.0059 16.1699H13.9316V13.7871ZM19.4297 14.5312C18.4437 14.5312 17.7115 15.097 17.6895 15.873H18.5312C18.5982 15.507 18.9403 15.2637 19.4062 15.2637C19.9823 15.2637 20.2949 15.5296 20.2949 16.0176V16.3496L19.1309 16.4277C18.0559 16.4947 17.4668 16.9381 17.4668 17.7031C17.4668 18.4791 18.0657 19 18.9297 19C19.5167 19 20.0617 18.7004 20.3047 18.2344H20.3262V18.9551H21.1914V15.9629C21.1914 15.0979 20.4937 14.5312 19.4297 14.5312ZM21.5742 14.5879L23.1484 18.9668L23.0703 19.2324C22.9263 19.6764 22.6932 19.8535 22.2832 19.8535C22.2062 19.8535 22.0628 19.8418 22.0078 19.8418V20.5625C22.0638 20.5735 22.2943 20.584 22.3613 20.584C23.2703 20.584 23.7031 20.2295 24.0801 19.1875L25.709 14.5879H24.7656L23.6699 18.1348H23.6465L22.5508 14.5879H21.5742ZM20.2949 16.9805V17.3145H20.293C20.293 17.8795 19.8165 18.2773 19.1855 18.2773C18.6865 18.2773 18.377 18.0457 18.377 17.6797C18.377 17.3027 18.6757 17.0799 19.2637 17.0469L20.2949 16.9805Z" fill="black"/>
</g>
</svg>
