<svg width="32" height="32" viewBox="0 0 32 32" fill="none" xmlns="http://www.w3.org/2000/svg">
<g id="cc-amazon-pay">
<path id="Vector" d="M5 6C3.355 6 2 7.355 2 9V23C2 24.645 3.355 26 5 26H27C28.645 26 30 24.645 30 23V9C30 7.355 28.645 6 27 6H5ZM5 8H27C27.566 8 28 8.434 28 9V23C28 23.566 27.566 24 27 24H5C4.434 24 4 23.566 4 23V9C4 8.434 4.434 8 5 8ZM11.5234 10L11.3828 10.0234C10.9428 10.0784 10.5161 10.2437 10.1621 10.5117C10.0831 10.5587 10.0145 10.6225 9.93555 10.6855C9.92755 10.6695 9.91992 10.6547 9.91992 10.6387C9.90392 10.5517 9.89586 10.4571 9.88086 10.3711C9.85686 10.2291 9.77872 10.1582 9.63672 10.1582H9.26562C9.03862 10.1562 9 10.2048 9 10.4258V17.25C9.008 17.352 9.07025 17.4061 9.15625 17.4141H9.8418C9.9358 17.4141 9.99005 17.352 9.99805 17.25C10.006 17.219 10.0059 17.1873 10.0059 17.1562V14.8281C10.0369 14.8591 10.0602 14.8766 10.0762 14.8926C10.6502 15.3726 11.3112 15.5287 12.0352 15.3867C12.6962 15.2527 13.1524 14.8527 13.4434 14.2637C13.6714 13.8157 13.7654 13.3348 13.7734 12.8398C13.7894 12.2958 13.7417 11.7532 13.5137 11.2422C13.2467 10.6132 12.7895 10.1957 12.1055 10.0547C12.0035 10.0307 11.894 10.0238 11.791 10.0078C11.697 9.99981 11.6104 10 11.5234 10ZM16.5254 10C16.4944 10.008 16.4626 10.0156 16.4316 10.0156C16.1166 10.0316 15.8109 10.0714 15.5039 10.1504C15.3069 10.1974 15.1187 10.2671 14.9297 10.3301C14.8117 10.3691 14.7559 10.456 14.7559 10.582C14.7639 10.684 14.7559 10.7945 14.7559 10.8965C14.7639 11.0535 14.8276 11.0947 14.9766 11.0547C15.2286 10.9917 15.4785 10.92 15.7305 10.873C16.1235 10.802 16.5248 10.7712 16.9258 10.8262C17.1378 10.8652 17.3348 10.9206 17.4688 11.1016C17.5868 11.2506 17.6346 11.4399 17.6426 11.6289C17.6506 11.8959 17.6504 12.1627 17.6504 12.4297C17.6504 12.4457 17.6506 12.4608 17.6426 12.4688H17.6035C17.2655 12.3828 16.9183 12.3355 16.5723 12.3125C16.2103 12.2965 15.8499 12.3115 15.5039 12.4375C15.0869 12.5795 14.7487 12.8312 14.5527 13.2402C14.4037 13.5542 14.3807 13.8847 14.4277 14.2227C14.4987 14.6787 14.7181 15.0241 15.1191 15.2441C15.5041 15.4561 15.9129 15.481 16.3379 15.418C16.8259 15.347 17.2578 15.1431 17.6348 14.8281C17.6508 14.8121 17.6656 14.8041 17.6816 14.7891C17.7056 14.9151 17.7201 15.0326 17.7441 15.1426C17.7601 15.2446 17.824 15.3084 17.918 15.3164H18.4453C18.5243 15.3164 18.5938 15.2442 18.5938 15.1582C18.6017 15.1342 18.6016 15.1043 18.6016 15.0723V11.6582C18.5996 11.5242 18.5914 11.384 18.5684 11.25C18.5054 10.833 18.3321 10.4876 17.9551 10.2676C17.7431 10.1416 17.5079 10.0781 17.2559 10.0391C17.1379 10.0231 17.0282 10.015 16.9102 10H16.5254ZM23.2402 10C23.1302 9.992 23.0273 10.0621 22.9883 10.1641C22.9723 10.2121 22.9574 10.2518 22.9414 10.2988L21.8164 13.5156C21.7374 13.7436 21.6513 13.9785 21.5723 14.2305C21.5573 14.1905 21.551 14.1763 21.543 14.1523C21.127 13.0043 20.7178 11.855 20.3008 10.707C20.2388 10.519 20.1667 10.3392 20.0957 10.1582C20.0647 10.0722 19.9946 10.0098 19.8926 10.0098C19.6486 10.0018 19.4043 10.002 19.1523 10.002C19.0743 10.002 19.0348 10.0714 19.0508 10.1504C19.0668 10.2134 19.0893 10.2847 19.1133 10.3477C19.7423 11.9037 20.3806 13.4604 21.0176 15.0254C21.0726 15.1584 21.0806 15.2683 21.0176 15.4023C20.9156 15.6383 20.8288 15.8812 20.7188 16.1172C20.6238 16.3292 20.4665 16.4878 20.2305 16.5508C20.0735 16.5898 19.8994 16.6041 19.7344 16.5801C19.6554 16.5731 19.577 16.5588 19.498 16.5508C19.388 16.5428 19.3342 16.589 19.3262 16.707V17.0215C19.3342 17.2025 19.3893 17.2815 19.5703 17.3125C19.7433 17.3445 19.9243 17.369 20.1133 17.377C20.6633 17.385 21.0959 17.1636 21.3789 16.6836C21.4969 16.4946 21.5917 16.2978 21.6777 16.0938C22.4397 14.1678 23.1942 12.2485 23.9492 10.3145C23.9722 10.2595 23.9881 10.2056 23.9961 10.1426C24.0121 10.0486 23.966 10.001 23.877 10H23.2402ZM11.5176 10.8184C11.9976 10.8574 12.3897 11.0924 12.5938 11.6504C12.7198 11.9964 12.752 12.3519 12.752 12.7129C12.752 13.0519 12.727 13.3723 12.625 13.6953C12.405 14.3793 11.9028 14.6462 11.2578 14.6152C10.8018 14.5912 10.4167 14.419 10.0547 14.168C10.0157 14.144 9.99005 14.1054 9.99805 14.0664V11.3535C9.99005 11.3065 10.0157 11.2662 10.0547 11.2422C10.4947 10.9352 10.9826 10.7794 11.5176 10.8184ZM16.3789 12.998C16.5137 12.9863 16.6497 12.9884 16.7832 13.0039C17.0502 13.0279 17.3189 13.0743 17.5859 13.1133C17.6409 13.1213 17.6562 13.1454 17.6562 13.1934C17.6493 13.3504 17.6562 13.4992 17.6562 13.6562C17.6562 13.8133 17.6484 13.9543 17.6484 14.1113C17.6564 14.1503 17.6326 14.1821 17.6016 14.2051C17.2396 14.4641 16.8464 14.6375 16.3984 14.6855C16.2174 14.7015 16.0363 14.7019 15.8633 14.6309C15.6663 14.5599 15.5179 14.3952 15.4629 14.1992C15.3999 13.9952 15.3981 13.7821 15.4531 13.5781C15.5391 13.3111 15.7285 13.1602 15.9805 13.0742C16.11 13.0347 16.2442 13.0098 16.3789 12.998ZM24.5312 17.498C23.8312 17.5078 23.004 17.6635 22.377 18.1035C22.183 18.2375 22.2186 18.4254 22.4336 18.4004C23.1386 18.3164 24.7073 18.1254 24.9883 18.4844C25.2693 18.8434 24.6761 20.3214 24.4141 20.9824C24.3321 21.1794 24.5045 21.2613 24.6855 21.1113C25.8585 20.1283 26.1638 18.0694 25.9238 17.7734C25.8038 17.6254 25.2313 17.4883 24.5312 17.498ZM6.14453 17.8906C5.99894 17.9098 5.93564 18.0883 6.08789 18.2285C8.69989 20.5845 12.1495 22 15.9805 22C18.7135 22 21.8862 21.1414 24.0762 19.5254C24.4382 19.2574 24.1308 18.8556 23.7598 19.0156C21.3038 20.0576 18.636 20.5586 16.209 20.5586C12.612 20.5586 9.1295 19.5726 6.3125 17.9316C6.25075 17.8956 6.19306 17.8842 6.14453 17.8906Z" fill="black"/>
</g>
</svg>
