<svg width="32" height="32" viewBox="0 0 32 32" fill="none" xmlns="http://www.w3.org/2000/svg">
<g id="cc-diners-club">
<path id="Vector" d="M5 6C3.35547 6 2 7.35547 2 9V23C2 24.6445 3.35547 26 5 26H27C28.6445 26 30 24.6445 30 23V9C30 7.35547 28.6445 6 27 6H5ZM5 8H27C27.5664 8 28 8.43359 28 9V23C28 23.5664 27.5664 24 27 24H5C4.43359 24 4 23.5664 4 23V9C4 8.43359 4.43359 8 5 8ZM15 10C11.6992 10 9 12.6992 9 16C9 19.3008 11.6992 22 15 22H17C20.3125 22 23 19.3125 23 16C23 12.6875 20.3125 10 17 10H15ZM15 12C17.2227 12 19 13.7773 19 16C19 18.2227 17.2227 20 15 20C12.7773 20 11 18.2227 11 16C11 13.7773 12.7773 12 15 12ZM14.1875 13.6562C13.2148 14 12.5 14.9102 12.5 16C12.5 17.0898 13.2148 18 14.1875 18.3438V13.6562ZM15.8125 13.6562V18.3438C16.7852 18 17.5 17.0898 17.5 16C17.5 14.9102 16.7852 14 15.8125 13.6562Z" fill="black"/>
</g>
</svg>
