<svg width="32" height="32" viewBox="0 0 32 32" fill="none" xmlns="http://www.w3.org/2000/svg">
<g id="cc-discover">
<path id="Vector" d="M5 6C3.35547 6 2 7.35547 2 9V23C2 24.6445 3.35547 26 5 26H27C28.6445 26 30 24.6445 30 23V9C30 7.35547 28.6445 6 27 6H5ZM5 8H27C27.5664 8 28 8.43359 28 9V23C28 23.5664 27.5664 24 27 24H5C4.43359 24 4 23.5664 4 23V9C4 8.43359 4.43359 8 5 8ZM10.4375 14.1562C9.8125 14.1562 9.34375 14.6094 9.34375 15.1875C9.34375 15.6719 9.57422 15.9141 10.2188 16.1562C10.5938 16.2969 10.9062 16.3789 10.9062 16.7188C10.9062 17.0039 10.6836 17.2188 10.375 17.2188C10.0469 17.2188 9.78125 17.0586 9.625 16.75L9.15625 17.1562C9.47266 17.6211 9.88281 17.8438 10.4062 17.8438C11.1211 17.8438 11.5938 17.3711 11.5938 16.6875C11.5938 16.125 11.375 15.8477 10.5938 15.5625C10.1797 15.4102 10.0625 15.3164 10.0625 15.125C10.0625 14.9023 10.2656 14.75 10.5625 14.75C10.7695 14.75 10.9453 14.832 11.125 15.0312L11.5 14.5625C11.2031 14.3047 10.8242 14.1562 10.4375 14.1562ZM13.6875 14.1562C12.6445 14.1602 11.8125 14.9727 11.8125 16C11.8125 17.0352 12.6406 17.8438 13.6875 17.8438C13.9844 17.8438 14.25 17.7734 14.5625 17.625V16.8125C14.2891 17.0859 14.0312 17.1875 13.7188 17.1875C13.0273 17.1875 12.5312 16.6836 12.5312 15.9688C12.5312 15.293 13.043 14.7812 13.6875 14.7812C14.0156 14.7812 14.2773 14.875 14.5625 15.1562V14.3438C14.2617 14.1914 13.9844 14.1562 13.6875 14.1562ZM16.5938 14.1562C15.5781 14.1562 14.75 14.9844 14.75 16C14.75 17.0156 15.5781 17.8438 16.5938 17.8438C17.6094 17.8438 18.4375 17.0156 18.4375 16C18.4375 14.9844 17.6094 14.1562 16.5938 14.1562ZM5 14.2188V17.75H6C7.53516 17.75 7.90625 16.5508 7.90625 16C7.90625 14.9609 7.11719 14.2188 6 14.2188H5ZM8.21875 14.2188V17.75H8.90625V14.2188H8.21875ZM18.3125 14.2188L19.8125 17.8438H20.1875L21.7188 14.2188H20.9688L20 16.5938L19.0625 14.2188H18.3125ZM22.0312 14.2188V17.75H23.9688V17.1562H22.7188V16.1875H23.9375V15.5938H22.7188V14.8125H23.9688V14.2188H22.0312ZM24.4375 14.2188V17.75H25.125V16.3438H25.1875L26.1562 17.75H27L25.875 16.25C26.3945 16.1445 26.6875 15.7891 26.6875 15.25C26.6875 14.5898 26.2305 14.2188 25.4375 14.2188H24.4375ZM25.125 14.7812H25.3125C25.7422 14.7812 26 14.9688 26 15.3125C26 15.668 25.7539 15.8438 25.3125 15.8438H25.125V14.7812ZM5.6875 14.8125H5.90625C6.84375 14.8125 7.1875 15.4453 7.1875 16C7.1875 16.2656 7.11328 17.1562 5.875 17.1562H5.6875V14.8125Z" fill="black"/>
</g>
</svg>
