<svg width="32" height="32" viewBox="0 0 32 32" fill="none" xmlns="http://www.w3.org/2000/svg">
<g id="cc-jcb">
<path id="Vector" d="M5 6C3.35547 6 2 7.35547 2 9V23C2 24.6445 3.35547 26 5 26H27C28.6445 26 30 24.6445 30 23V9C30 7.35547 28.6445 6 27 6H5ZM5 8H27C27.5664 8 28 8.43359 28 9V23C28 23.5664 27.5664 24 27 24H5C4.43359 24 4 23.5664 4 23V9C4 8.43359 4.43359 8 5 8ZM8.15625 11C6.92969 11 6 11.7773 6 13.125V21H9.9375C10.8984 21 12 20.1055 12 18.9375V11H8.15625ZM15.1562 11C13.9336 11 13 11.7812 13 13.125V20.9375H16.9375C17.8945 20.9375 19 20.0391 19 18.875V11H15.1562ZM22.1562 11C20.9336 11 20 11.7812 20 13.125V20.9375H23.9062C24.8594 20.9375 26 20.0391 26 18.875V11H22.1562ZM15.375 14H18.25V14.625C17.5625 14.4648 16.8906 14.375 16.5625 14.375C15.8438 14.375 15.2812 14.9922 15.2812 15.75C15.2812 16.5078 15.8438 17.0938 16.5625 17.0938C16.8906 17.0938 17.5625 17.0352 18.25 16.875V17.4688H15.375C14.4805 17.4688 13.7188 16.6953 13.7188 15.75C13.7188 14.8047 14.4805 14 15.375 14ZM20.8438 14H24.5312C24.9805 14 25.3438 14.3945 25.3438 14.8438C25.3438 15.2891 25.043 15.7188 24.5938 15.7188C25.1016 15.7188 25.5 16.1172 25.5 16.5625C25.5 17.0117 25.1016 17.4375 24.5938 17.4375H20.8438V14ZM9.46875 14.0312H11.1875V15.9688C11.1875 17.0469 9.80078 17.625 8.78125 17.625C7.67188 17.625 6.67969 16.9648 6.46875 16.125H7.21875C7.30859 16.6367 7.80469 17 8.375 17C9.00391 17 9.46875 16.5391 9.46875 15.9688V14.0312ZM22.25 14.3438V15.5H23.4375C23.7344 15.5 24 15.2344 24 14.9375C24 14.6406 23.7344 14.3438 23.4375 14.3438H22.25ZM22.25 15.9375V17.0938H23.4688C23.7695 17.0938 24.0312 16.8281 24.0312 16.5312C24.0312 16.2305 23.7695 15.9375 23.4688 15.9375H22.25Z" fill="black"/>
</g>
</svg>
