<svg width="32" height="32" viewBox="0 0 32 32" fill="none" xmlns="http://www.w3.org/2000/svg">
<g id="cc-mastercard">
<path id="Vector" d="M5 6C3.35547 6 2 7.35547 2 9V23C2 24.6445 3.35547 26 5 26H27C28.6445 26 30 24.6445 30 23V9C30 7.35547 28.6445 6 27 6H5ZM5 8H27C27.5664 8 28 8.43359 28 9V23C28 23.5664 27.5664 24 27 24H5C4.43359 24 4 23.5664 4 23V9C4 8.43359 4.43359 8 5 8ZM12 9C8.14453 9 5 12.1445 5 16C5 19.8555 8.14453 23 12 23C13.4844 23 14.8633 22.5469 16 21.75C17.1328 22.543 18.5117 23 20 23C23.8555 23 27 19.8555 27 16C27 12.1445 23.8555 9 20 9C18.5117 9 17.1328 9.45703 16 10.25C14.8633 9.45312 13.4844 9 12 9ZM12 11C13.2812 11 14.4297 11.4961 15.3125 12.2812C14.9023 12.793 14.5664 13.3711 14.3438 14H16.5625C16.7031 14.3203 16.8359 14.6523 16.9062 15H14.0938C14.0391 15.3242 14 15.6562 14 16C14 16.3438 14.0391 16.6758 14.0938 17H16.9062C16.8359 17.3477 16.7031 17.6797 16.5625 18H14.3438C14.5664 18.6289 14.9023 19.207 15.3125 19.7188C14.4297 20.5039 13.2812 21 12 21C9.22656 21 7 18.7734 7 16C7 13.2266 9.22656 11 12 11ZM20 11C22.7734 11 25 13.2266 25 16C25 18.7734 22.7734 21 20 21C19.0859 21 18.2383 20.7422 17.5 20.3125C18.4414 19.1211 19 17.6289 19 16C19 14.3711 18.4414 12.8789 17.5 11.6875C18.2383 11.2578 19.0859 11 20 11Z" fill="black"/>
</g>
</svg>
