<svg width="32" height="32" viewBox="0 0 32 32" fill="none" xmlns="http://www.w3.org/2000/svg">
<g id="cc-stripe">
<path id="Vector" d="M5 6C3.35547 6 2 7.35547 2 9V23C2 24.6445 3.35547 26 5 26H27C28.6445 26 30 24.6445 30 23V9C30 7.35547 28.6445 6 27 6H5ZM5 8H27C27.5664 8 28 8.43359 28 9V23C28 23.5664 27.5664 24 27 24H5C4.43359 24 4 23.5664 4 23V9C4 8.43359 4.43359 8 5 8ZM16.5 11.4375C16.0273 11.4375 15.6562 11.8086 15.6562 12.2812C15.6562 12.75 16.0273 13.125 16.5 13.125C16.9688 13.125 17.3438 12.75 17.3438 12.2812C17.3438 11.8086 16.9688 11.4375 16.5 11.4375ZM11.0625 12.1875L9.6875 12.4062L9.5 13.625L9 13.7188L8.8125 14.8438H9.5V17.1875C9.5 17.7969 9.65234 18.2109 9.96875 18.4688C10.2344 18.6836 10.6172 18.7812 11.1562 18.7812C11.5703 18.7812 11.8242 18.7031 12 18.6562V17.4062C11.9023 17.4336 11.6797 17.4688 11.5312 17.4688C11.2148 17.4688 11.0625 17.3086 11.0625 16.9375V14.8438H11.9062L12.0938 13.625H11.0625V12.1875ZM6.90625 13.5312C6.35938 13.5312 5.88672 13.6719 5.5625 13.9375C5.22266 14.2148 5.0625 14.6367 5.0625 15.125C5.0625 16.0078 5.58984 16.3711 6.46875 16.6875C7.03516 16.8867 7.21875 17.0273 7.21875 17.25C7.21875 17.4648 7.05078 17.5938 6.71875 17.5938C6.30859 17.5938 5.62891 17.3867 5.1875 17.125L5 18.3438C5.37891 18.5586 6.08594 18.7812 6.8125 18.7812C7.39062 18.7812 7.86328 18.668 8.1875 18.4062C8.55078 18.1211 8.75 17.6719 8.75 17.125C8.75 16.2227 8.20312 15.8477 7.3125 15.5312C6.83984 15.3555 6.5625 15.2461 6.5625 15.0312C6.5625 14.8477 6.70312 14.7188 6.96875 14.7188C7.45703 14.7188 7.96875 14.9258 8.3125 15.0938L8.5 13.875C8.22656 13.7461 7.67969 13.5312 6.90625 13.5312ZM20.7188 13.5312C20.25 13.5312 19.8203 13.7461 19.4375 14.1562L19.375 13.625H17.9375V20.5625L19.5625 20.2812V18.6875C19.8086 18.7656 20.0547 18.7812 20.2812 18.7812C20.6836 18.7812 21.2656 18.6797 21.7188 18.1875C22.1523 17.7148 22.375 17 22.375 16.0312C22.375 15.1758 22.2305 14.5078 21.9062 14.0938C21.6211 13.7227 21.2266 13.5312 20.7188 13.5312ZM24.9375 13.5312C23.5664 13.5312 22.7188 14.5625 22.7188 16.1875C22.7188 17.0977 22.9258 17.7852 23.375 18.2188C23.7773 18.6094 24.3789 18.7812 25.125 18.7812C25.8125 18.7812 26.4414 18.6406 26.8438 18.375L26.6562 17.25C26.2617 17.4648 25.8008 17.5938 25.2812 17.5938C24.9688 17.5938 24.75 17.5117 24.5938 17.375C24.4258 17.2305 24.3438 17.0195 24.3125 16.6875H26.9688C26.9766 16.6094 27 16.2422 27 16.125C27 15.3203 26.8125 14.668 26.4688 14.2188C26.1172 13.7656 25.6055 13.5312 24.9375 13.5312ZM15 13.5625C14.5469 13.5625 14.1758 13.8203 14.0312 14.25L13.9375 13.625H12.5312V18.6875H14.1562V15.4062C14.3555 15.1602 14.6406 15.0625 15.0312 15.0625C15.1172 15.0625 15.2031 15.0742 15.3125 15.0938V13.5938C15.1992 13.5664 15.0977 13.5625 15 13.5625ZM15.6875 13.625V18.6875H17.3125V13.625H15.6875ZM24.9062 14.625C25.2695 14.625 25.4727 14.9727 25.5 15.6875H24.3125C24.3594 14.9648 24.5352 14.625 24.9062 14.625ZM20.1562 14.7812C20.5664 14.7812 20.7812 15.1992 20.7812 16.0625C20.7812 16.5547 20.7109 16.957 20.5625 17.2188C20.4336 17.4648 20.2344 17.5938 20 17.5938C19.8398 17.5938 19.6914 17.5664 19.5625 17.5V15.0938C19.8359 14.8086 20.0664 14.7812 20.1562 14.7812Z" fill="black"/>
</g>
</svg>
