<svg width="32" height="32" viewBox="0 0 32 32" fill="none" xmlns="http://www.w3.org/2000/svg">
<g id="cc-visa">
<path id="Vector" d="M5 6C3.35547 6 2 7.35547 2 9V23C2 24.6445 3.35547 26 5 26H27C28.6445 26 30 24.6445 30 23V9C30 7.35547 28.6445 6 27 6H5ZM5 8H27C27.5664 8 28 8.43359 28 9V23C28 23.5664 27.5664 24 27 24H5C4.43359 24 4 23.5664 4 23V9C4 8.43359 4.43359 8 5 8ZM19.4062 12.375C17.4805 12.375 16.4688 13.3242 16.4688 14.5312C16.4688 16.7109 19.0312 16.4102 19.0312 17.5312C19.0312 17.7227 18.8711 18.1562 17.8125 18.1562C16.7539 18.1562 16.0625 17.7812 16.0625 17.7812L15.75 19.2188C15.75 19.2188 16.4062 19.625 17.7188 19.625C19.0312 19.625 20.875 18.6172 20.875 17.1562C20.875 15.3984 18.3125 15.2812 18.3125 14.5C18.3125 14.1016 18.6523 13.7812 19.5625 13.7812C20.1562 13.7812 20.8125 14.25 20.8125 14.25L21.125 12.7188C21.125 12.7188 20.2539 12.375 19.4062 12.375ZM11.1875 12.5L9.5 17.4375C9.5 17.4375 9.41406 17.0117 9.375 16.75C8.42188 14.6094 6.875 13.8125 6.875 13.8125L8.34375 19.4062H10.3438L13.1562 12.5H11.1875ZM13.875 12.5L12.7812 19.4062H14.625L15.7188 12.5H13.875ZM23.8125 12.5L20.8125 19.4062H22.625L23 18.4375H25.3125L25.5 19.4062H27.1562L25.75 12.5H23.8125ZM4.84375 12.5312C4.84375 12.5312 8.44141 13.6328 9.28125 16.3438L8.65625 13.2188C8.65625 13.2188 8.38281 12.5312 7.65625 12.5312H4.84375ZM24.5 14.5L25.0312 17.0938H23.5312L24.5 14.5Z" fill="black"/>
</g>
</svg>
