<svg width="32" height="32" viewBox="0 0 32 32" fill="none" xmlns="http://www.w3.org/2000/svg">
<g id="centos">
<path id="Vector" d="M15.9961 3L13 6.00391H15V12L16 13L17 12V6.00391H19L15.9961 3ZM7 7V11L8.29297 9.70703L12.5859 14H14V12.5859L9.70703 8.29297L11 7H7ZM12.4141 7L11.1211 8.29297L14 11.1719V7H12.4141ZM18 7V11.1719L20.8789 8.29297L19.5859 7H18ZM21 7L22.293 8.29297L18 12.5859V14H19.4141L23.707 9.70703L25 11V7H21ZM8.29297 11.1211L7 12.4141V14H11.1719L8.29297 11.1211ZM23.707 11.1211L20.8281 14H25V12.4141L23.707 11.1211ZM6.00391 13L3 16.0039L6.00391 19V17H12L13 16L12 15H6.00391V13ZM25.9961 13V15H20L19 16L20 17H25.9961V19L29 15.9961L25.9961 13ZM7 18V19.5859L8.29297 20.8789L11.1719 18H7ZM12.5859 18L8.29297 22.293L7 21V25H11L9.70703 23.707L14 19.4141V18H12.5859ZM18 18V19.4141L22.293 23.707L21 25H25V21L23.707 22.293L19.4141 18H18ZM20.8281 18L23.707 20.8789L25 19.5859V18H20.8281ZM16 19L15 20V25.9961H13L16.0039 29L19 25.9961H17V20L16 19ZM14 20.8281L11.1211 23.707L12.4141 25H14V20.8281ZM18 20.8281V25H19.5859L20.8789 23.707L18 20.8281Z" fill="black"/>
</g>
</svg>
