<svg width="32" height="32" viewBox="0 0 32 32" fill="none" xmlns="http://www.w3.org/2000/svg">
<g id="centercode">
<path id="Vector" d="M16 3C8.832 3 3 8.832 3 16C3 23.168 8.832 29 16 29C23.168 29 29 23.168 29 16C29 8.832 23.168 3 16 3ZM16 5C22.065 5 27 9.935 27 16C27 22.065 22.065 27 16 27C9.935 27 5 22.065 5 16C5 9.935 9.935 5 16 5ZM13.1992 9C10.8452 11.26 10.3786 16.5891 11.8086 22.8691C14.6286 23.4991 18.7187 21.7997 22.8887 18.4297C24.0257 13.6797 16.3342 10.14 13.1992 9ZM16 14C17.105 14 18 14.895 18 16C18 17.105 17.105 18 16 18C14.895 18 14 17.105 14 16C14 14.895 14.895 14 16 14Z" fill="black"/>
</g>
</svg>
