<svg width="32" height="32" viewBox="0 0 32 32" fill="none" xmlns="http://www.w3.org/2000/svg">
<g id="chair-solid">
<path id="Vector" d="M11 4V16.4375C10.8984 16.4648 10.7773 16.5039 10.6875 16.5312C10.2031 16.6797 9.86719 16.8359 9.625 17C9.50391 17.082 9.39062 17.168 9.3125 17.25C9.23438 17.332 9.125 17.5 9.125 17.5L9 17.7188V20H10V28H12V20H20V28H22V20H23V17.7188L22.875 17.5C22.875 17.5 22.7656 17.332 22.6875 17.25C22.6094 17.168 22.4961 17.082 22.375 17C22.1328 16.8359 21.7969 16.6797 21.3125 16.5312C21.2227 16.5039 21.1016 16.4648 21 16.4375V4H19V5H13V4H11ZM13 7H15V16.0312C14.2422 16.0508 13.5625 16.0703 13 16.125V7ZM17 7H19V16.125C18.4375 16.0703 17.7578 16.0508 17 16.0312V7Z" fill="black"/>
</g>
</svg>
