<svg width="32" height="32" viewBox="0 0 32 32" fill="none" xmlns="http://www.w3.org/2000/svg">
<g id="chalkboard-teacher-solid">
<path id="Vector" d="M4 6V8H26V24H12V26H30V24H28V6H4ZM8.00195 9C5.80327 9 4 10.8027 4 13C4 15.1987 5.80407 17 8.00195 17C10.1971 17 12 15.1987 12 13C12 10.8027 10.1979 9 8.00195 9ZM14 10V12H19V10H14ZM21 10V12H24V10H21ZM8.00195 11C9.11597 11 10 11.8833 10 13C10 14.1193 9.11677 15 8.00195 15C6.88183 15 6 14.1193 6 13C6 11.8833 6.88264 11 8.00195 11ZM14 14V16H24V14H14ZM4 18V26H6V20H9V26H11V20.6582L13.0645 21.75C13.6488 22.0602 14.3516 22.0589 14.9355 21.75V21.752L18.4668 19.8848L17.5332 18.1152L14.002 19.9824L10.9062 18.3477C10.4751 18.12 9.99351 18 9.50391 18H4Z" fill="black"/>
</g>
</svg>
