<svg width="32" height="32" viewBox="0 0 32 32" fill="none" xmlns="http://www.w3.org/2000/svg">
<g id="charging-station-solid">
<path id="Vector" d="M9 5C7.355 5 6 6.355 6 8V27H20V20H22V24C22 25.645 23.355 27 25 27C26.645 27 28 25.645 28 24V13.8125C28 13.0155 27.687 12.2807 27.125 11.7188L22.4062 7L21 8.40625L23.8438 11.25C22.7698 11.707 22 12.766 22 14C22 15.645 23.355 17 25 17C25.352 17 25.684 16.9265 26 16.8125V24C26 24.566 25.566 25 25 25C24.434 25 24 24.566 24 24V20C24 18.906 23.094 18 22 18H20V8C20 6.355 18.645 5 17 5H9ZM9 7H17C17.566 7 18 7.434 18 8V11V12V14V18V25H8V18V14V12V11V8C8 7.434 8.434 7 9 7ZM13.0898 10.5605L10.6602 15.4395L11.5605 15.9102L12.6602 16.4395L11.0898 19.5605L12.9102 20.4395L15.3398 15.5605L14.4395 15.0898L13.3398 14.5605L14.9102 11.4395L13.0898 10.5605ZM25 13C25.562 13 26 13.438 26 14C26 14.562 25.562 15 25 15C24.437 15 24 14.562 24 14C24 13.438 24.437 13 25 13Z" fill="black"/>
</g>
</svg>
