<svg width="32" height="32" viewBox="0 0 32 32" fill="none" xmlns="http://www.w3.org/2000/svg">
<g id="chart-area-solid">
<path id="Vector" d="M28 4.0625L26.375 5.3125L21.75 8.9375L16.1562 8L15.7812 7.9375L15.4375 8.15625L9.75 11.9375L5.1875 11.0312L4 10.7812V28H28V4.0625ZM26 8.15625V13.5312L21.7812 16.875L16.3125 15.0625L15.8438 14.9062L15.4375 15.1562L9.875 18.875L6 17.3125V13.2188L9.8125 13.9688L10.2188 14.0625L10.5625 13.8438L16.2188 10.0625L21.8438 11L22.2812 11.0625L22.625 10.7812L26 8.15625ZM26 16.0938V26H6V19.5L9.625 20.9375L10.125 21.125L10.5625 20.8438L16.1875 17.0938L21.6875 18.9375L22.1875 19.125L22.625 18.7812L26 16.0938Z" fill="black"/>
</g>
</svg>
