<svg width="32" height="32" viewBox="0 0 32 32" fill="none" xmlns="http://www.w3.org/2000/svg">
<g id="chart-pie-solid">
<path id="Vector" d="M16 3C8.83203 3 3 8.83203 3 16C3 23.168 8.83203 29 16 29C23.168 29 29 23.168 29 16C29 8.83203 23.168 3 16 3ZM14.875 5.0625C14.918 5.05859 14.957 5.06641 15 5.0625V16.4062L15.2812 16.7188L23.0625 24.4688C21.1562 26.0625 18.6875 27 16 27C9.91406 27 5 22.0859 5 16C5 10.293 9.32031 5.625 14.875 5.0625ZM17 5.0625C22.2852 5.53906 26.4609 9.71484 26.9375 15H17V5.0625ZM18.4375 17H26.9375C26.7305 19.293 25.8633 21.3945 24.4688 23.0625L18.4375 17Z" fill="black"/>
</g>
</svg>
