<svg width="32" height="32" viewBox="0 0 32 32" fill="none" xmlns="http://www.w3.org/2000/svg">
<g id="chart-line-solid">
<path id="Vector" d="M27.2188 5.375L23.7188 9.75L20.4375 8.09375L19.6562 7.71875L19.1562 8.4375L15.75 13.5625L12.5938 11.1875L12 10.75L11.4062 11.1875L7.78125 13.9062L4.25 13.0312L3.75 14.9688L7.75 15.9688L8.21875 16.0938L8.59375 15.8125L12 13.25L15.4062 15.8125L16.25 16.4375L16.8438 15.5625L20.3438 10.3125L23.5625 11.9062L24.2812 12.25L28.7812 6.625L27.2188 5.375ZM20.0625 18.3125L19.2188 19.375L15.8125 23.625L12.5938 21.1875L12 20.75L11.4062 21.1875L7.90625 23.8125L4.4375 22.0938L3.5625 23.9062L7.5625 25.9062L8.09375 26.1562L8.59375 25.8125L12 23.25L15.4062 25.8125L16.1875 26.375L16.7812 25.625L19.9062 21.7188L23.1562 26.5625L23.9375 27.6875L24.7812 26.625L28.7812 21.625L27.2188 20.375L24.0938 24.2812L20.8438 19.4375L20.0625 18.3125Z" fill="black"/>
</g>
</svg>
