<svg width="32" height="32" viewBox="0 0 32 32" fill="none" xmlns="http://www.w3.org/2000/svg">
<g id="cheese-solid">
<path id="Vector" d="M11.0938 5.96875L10.7812 6.03125C4.3125 7.46875 3.03125 13.8125 3.03125 13.8125L3 13.9062V26H29V20H28C27.4336 20 27 19.5664 27 19C27 18.4336 27.4336 18 28 18H29V13.3438L28.375 13.0625L11.375 6.0625L11.0938 5.96875ZM10.9688 8.09375L13.75 9.25C13.3086 9.43359 13 9.69141 13 10C13 10.5508 13.8945 11 15 11C15.7578 11 16.4102 10.7812 16.75 10.4688L22.9062 13H5.375C5.97656 11.5195 7.46875 9 10.9688 8.09375ZM5 15H8.09375C8.03906 15.1562 8 15.3281 8 15.5C8 16.3281 8.67188 17 9.5 17C10.3281 17 11 16.3281 11 15.5C11 15.3281 10.9609 15.1562 10.9062 15H27V16.4062C25.8906 16.8477 25 17.7422 25 19C25 20.2578 25.8906 21.1523 27 21.5938V24H14.7188C14.8906 23.707 15 23.3633 15 23C15 21.8945 14.1055 21 13 21C11.8945 21 11 21.8945 11 23C11 23.3633 11.1094 23.707 11.2812 24H5V15ZM19.5 17C18.6719 17 18 17.6719 18 18.5C18 19.3281 18.6719 20 19.5 20C20.3281 20 21 19.3281 21 18.5C21 17.6719 20.3281 17 19.5 17Z" fill="black"/>
</g>
</svg>
