<svg width="32" height="32" viewBox="0 0 32 32" fill="none" xmlns="http://www.w3.org/2000/svg">
<g id="chess-queen-solid">
<path id="Vector" d="M16 3C14.9062 3 14 3.90625 14 5C14 5.73047 14.4023 6.37109 15 6.71875V8.25C15 8.67578 14.6758 9 14.25 9H11.9062C11.5938 9 11.3164 8.85156 11.1562 8.625C11.668 8.26172 12 7.66797 12 7C12 5.90625 11.0938 5 10 5C8.90625 5 8 5.90625 8 7C8 7.73047 8.40234 8.37109 9 8.71875V10.4062L9.28125 10.7188L11.625 13.0625C11.168 13.2344 10.9023 13.7109 10.9961 14.1875C11.0898 14.668 11.5117 15.0117 12 15H12.6562L11.0938 20.5625L11.0312 20.7188L10.375 22H9C8.96875 22 8.9375 22 8.90625 22C8.35547 22.0273 7.92578 22.4961 7.95312 23.0469C7.98047 23.5977 8.44922 24.0273 9 24L7.1875 26.4062L7 26.6562V29H25V26.6562L24.8125 26.4062L23 24C23.3594 24.0039 23.6953 23.8164 23.8789 23.5039C24.0586 23.1914 24.0586 22.8086 23.8789 22.4961C23.6953 22.1836 23.3594 21.9961 23 22H21.625L20.9688 20.7188L20.9375 20.6562L20.9062 20.5625L19.3438 15H20C20.4883 15.0117 20.918 14.6719 21.0078 14.1914C21.1016 13.7109 20.832 13.2344 20.375 13.0625L22.7188 10.7188L23 10.4062V8.71875C23.5977 8.37109 24 7.73047 24 7C24 5.90625 23.0938 5 22 5C20.9062 5 20 5.90625 20 7C20 7.66797 20.332 8.26172 20.8438 8.625C20.6836 8.85156 20.4062 9 20.0938 9H17.75C17.3242 9 17 8.67578 17 8.25V6.71875C17.5977 6.37109 18 5.73047 18 5C18 3.90625 17.0938 3 16 3ZM16 10.3438C16.4805 10.7461 17.082 11 17.75 11H19.5625L17.5625 13H14.4375L12.4375 11H14.25C14.918 11 15.5195 10.7461 16 10.3438ZM14.75 15H17.25L19.0312 21.2812L19.0625 21.375L19.375 22H12.625L12.9375 21.375L12.9688 21.2812L14.75 15ZM11.5 24H20.5L22.75 27H9.25L11.5 24Z" fill="black"/>
</g>
</svg>
