<svg width="32" height="32" viewBox="0 0 32 32" fill="none" xmlns="http://www.w3.org/2000/svg">
<g id="chess-knight-solid">
<path id="Vector" d="M16 3C14.2305 3 13.0586 3.98438 12.5938 5C12.2422 5.76953 12.2852 6.30469 12.2812 6.75C11.5352 7.25781 10.75 7.90625 10.125 8.53125C8.72656 9.92969 7.96094 11.9219 8 14.0312C8.01953 15.0039 8.21875 15.9805 8.59375 16.9688C8.78125 17.4648 9.125 18.3242 9.4375 19.2812C9.75 20.2383 10 21.293 10 22H9C8.96875 22 8.9375 22 8.90625 22C8.36719 22.0352 7.95312 22.4922 7.97266 23.0312C7.98828 23.5703 8.42969 23.9961 8.96875 24L7.1875 26.4062L7 26.6562V29H25V26.6562L24.8125 26.4062L23 24C23.3594 24.0039 23.6953 23.8164 23.8789 23.5039C24.0586 23.1914 24.0586 22.8086 23.8789 22.4961C23.6953 22.1836 23.3594 21.9961 23 22H22C22 19.7383 20.5938 17.6641 19.2812 16.0625C18.5312 15.1445 18.2852 14.9844 17.7812 14.5C17.9609 14.3945 18.1836 14.2695 18.3125 14.1875C18.4727 14.0859 18.5586 14.0234 18.5938 14C18.875 14 18.8945 14.0469 19.1875 14.2812C19.4805 14.5156 20.0781 15 20.9062 15C21.6328 15 22.1641 14.5312 22.4375 14.1875C22.6875 13.8711 22.8242 13.6328 22.8438 13.5938C22.9336 13.5508 23.1289 13.4883 23.375 13.3125C23.6211 13.1367 23.9414 12.7461 24 12.3125C24.0586 11.8789 23.9219 11.5 23.75 11.125C23.4961 10.5703 23.0234 9.93359 22.2812 9.15625C21.5391 8.37891 20.5664 7.55469 19.375 7.0625C19.2852 7.02344 19.3594 7.08203 19.3125 7.03125C19.2656 6.98047 19.125 6.76953 18.8438 6.5625C18.4766 6.29297 17.6797 6.26172 17 6.1875V3H16ZM15 5.21875V8H16C17.3633 8 17.6641 8.16406 17.6562 8.15625C17.6523 8.15234 17.6602 8.17188 17.8125 8.34375C17.9648 8.51562 18.2617 8.78516 18.625 8.9375C19.4258 9.26953 20.2266 9.91797 20.8438 10.5625C21.4219 11.1641 21.8086 11.7617 21.875 11.875C21.7148 11.9531 21.5469 12.0078 21.3438 12.25C21.0703 12.582 20.9727 12.8125 20.875 12.9375C20.8438 12.9766 20.8477 12.9883 20.8438 13C20.7578 12.9883 20.6992 12.9336 20.4375 12.7188C20.1094 12.4531 19.457 12 18.5938 12C17.9375 12 17.5664 12.3008 17.25 12.5C16.9336 12.6992 16.6797 12.8438 16.5938 12.875L16.5625 12.9062H16.5312C16.3477 12.9844 16.0312 13 16.0312 13L15 12.9688V14.5625L15.3438 14.8438C15.3438 14.8438 16.5312 15.8906 17.7188 17.3438C18.9062 18.7969 20 20.668 20 22H12C12 20.8789 11.6875 19.7031 11.3438 18.6562C11 17.6094 10.5938 16.6953 10.4375 16.2812C10.1445 15.5078 10.0156 14.707 10 13.9688C9.96875 12.3633 10.543 10.9258 11.5312 9.9375C12.1836 9.28516 13.1562 8.46875 13.6875 8.15625L14.1875 7.875V7.3125C14.1875 6.94141 14.1875 6.32031 14.4062 5.84375C14.5312 5.57422 14.7031 5.36719 15 5.21875ZM11.5 24H20.5L22.75 27H9.25L11.5 24Z" fill="black"/>
</g>
</svg>
