<svg width="32" height="32" viewBox="0 0 32 32" fill="none" xmlns="http://www.w3.org/2000/svg">
<g id="chess-pawn-solid">
<path id="Vector" d="M16 9C13.8008 9 12 10.8008 12 13C12 14.1992 12.5586 15.2656 13.4062 16H12C11.9688 16 11.9375 16 11.9062 16C11.3555 16.0273 10.9258 16.4961 10.9531 17.0469C10.9805 17.5977 11.4492 18.0273 12 18H12.5L11.0938 21.5625L10.375 23H9C8.96875 23 8.9375 23 8.90625 23C8.43359 23.0312 8.05078 23.3867 7.98047 23.8555C7.91406 24.3203 8.18359 24.7734 8.625 24.9375L7.28125 26.2812L7 26.5938V29H25V26.5938L24.7188 26.2812L23.375 24.9375C23.832 24.7656 24.1016 24.2891 24.0078 23.8086C23.918 23.3281 23.4883 22.9883 23 23H21.625L20.9062 21.5625L19.5 18H20C20.3594 18.0039 20.6953 17.8164 20.8789 17.5039C21.0586 17.1914 21.0586 16.8086 20.8789 16.4961C20.6953 16.1836 20.3594 15.9961 20 16H18.5938C19.4414 15.2656 20 14.1992 20 13C20 10.8008 18.1992 9 16 9ZM16 11C17.1172 11 18 11.8828 18 13C18 14.1172 17.1172 15 16 15C14.8828 15 14 14.1172 14 13C14 11.8828 14.8828 11 16 11ZM14.6875 18H17.3125L19.0625 22.375L19.0938 22.4062V22.4375L19.375 23H12.625L12.9062 22.4375V22.4062L12.9375 22.375L14.6875 18ZM11.4375 25H20.5625L22.5625 27H9.4375L11.4375 25Z" fill="black"/>
</g>
</svg>
