<svg width="32" height="32" viewBox="0 0 32 32" fill="none" xmlns="http://www.w3.org/2000/svg">
<g id="chess-king-solid">
<path id="Vector" d="M16 3C14.9062 3 14 3.90625 14 5C14 5.35938 14.1094 5.70703 14.2812 6H8V8.375L8.21875 8.625L11.875 13C11.3242 13.0352 10.9023 13.5117 10.9375 14.0625C10.9727 14.6133 11.4492 15.0352 12 15H12.6562L11.0938 20.5625L11.0312 20.7188L10.375 22H9C8.96875 22 8.9375 22 8.90625 22C8.35547 22.0273 7.92578 22.4961 7.95312 23.0469C7.98047 23.5977 8.44922 24.0273 9 24L7.1875 26.4062L7 26.6562V29H25V26.6562L24.8125 26.4062L23 24C23.3594 24.0039 23.6953 23.8164 23.8789 23.5039C24.0586 23.1914 24.0586 22.8086 23.8789 22.4961C23.6953 22.1836 23.3594 21.9961 23 22H21.625L20.9688 20.7188L20.9375 20.6562L20.9062 20.5625L19.3438 15H20C20.5508 15.043 21.0352 14.6289 21.0781 14.0781C21.1211 13.5273 20.707 13.043 20.1562 13L23.7812 8.625L24 8.375V6H17.7188C17.8906 5.70703 18 5.35938 18 5C18 3.90625 17.0938 3 16 3ZM10.3125 8H21.6875L17.5312 13H14.4688L10.3125 8ZM14.75 15H17.25L19.0312 21.2812L19.0625 21.375L19.375 22H12.625L12.9375 21.375L12.9688 21.2812L14.75 15ZM11.5 24H20.5L22.75 27H9.25L11.5 24Z" fill="black"/>
</g>
</svg>
