<svg width="32" height="32" viewBox="0 0 32 32" fill="none" xmlns="http://www.w3.org/2000/svg">
<g id="chess-bishop-solid">
<path id="Vector" d="M16 3C14.9062 3 14 3.90625 14 5C14 5.44141 14.1562 5.85547 14.4062 6.1875C14.0508 6.5625 13.6445 7.01172 13.2188 7.53125C12.1719 8.8125 11 10.293 11 12C11 13.1367 11.4141 14.1602 12.0625 15H12C11.9688 15 11.9375 15 11.9062 15C11.3555 15.0273 10.9258 15.4961 10.9531 16.0469C10.9805 16.5977 11.4492 17.0273 12 17H12.5L11.0938 20.5625L10.375 22H9C8.96875 22 8.9375 22 8.90625 22C8.35547 22.0273 7.92578 22.4961 7.95312 23.0469C7.98047 23.5977 8.44922 24.0273 9 24L7.1875 26.4062L7 26.6562V29H25V26.6562L24.8125 26.4062L23 24C23.3594 24.0039 23.6953 23.8164 23.8789 23.5039C24.0586 23.1914 24.0586 22.8086 23.8789 22.4961C23.6953 22.1836 23.3594 21.9961 23 22H21.625L20.9062 20.5625L19.5 17H20C20.3594 17.0039 20.6953 16.8164 20.8789 16.5039C21.0586 16.1914 21.0586 15.8086 20.8789 15.4961C20.6953 15.1836 20.3594 14.9961 20 15C20.6289 14.1602 21 13.1211 21 12C21 10.293 19.8281 8.8125 18.7812 7.53125C18.3555 7.01172 17.9492 6.5625 17.5938 6.1875C17.8438 5.85547 18 5.44141 18 5C18 3.90625 17.0938 3 16 3ZM16 7.46875C16.3633 7.83594 16.6094 8.06641 17.2188 8.8125C18.1719 9.98047 19 11.5 19 12C19 13.6797 17.6992 15 16.0312 15C14.3633 15 13 13.6602 13 12C13 11.5 13.8281 9.98047 14.7812 8.8125C15.3906 8.06641 15.6367 7.83594 16 7.46875ZM14.6875 17H17.3125L19.0625 21.375L19.0938 21.4062V21.4375L19.375 22H12.625L12.9062 21.4375V21.4062L12.9375 21.375L14.6875 17ZM11.5 24H20.5L22.75 27H9.25L11.5 24Z" fill="black"/>
</g>
</svg>
