<svg width="32" height="32" viewBox="0 0 32 32" fill="none" xmlns="http://www.w3.org/2000/svg">
<g id="chess-rook-solid">
<path id="Vector" d="M9 4V13H12.75L12.5312 14H12C11.9688 14 11.9375 14 11.9062 14C11.3555 14.0273 10.9258 14.4961 10.9531 15.0469C10.9805 15.5977 11.4492 16.0273 12 16H12.0938L11.0938 20.5625L10.375 22H9C8.96875 22 8.9375 22 8.90625 22C8.35547 22.0273 7.92578 22.4961 7.95312 23.0469C7.98047 23.5977 8.44922 24.0273 9 24L7.1875 26.4062L7 26.6562V29H25V26.6562L24.8125 26.4062L23 24C23.3594 24.0039 23.6953 23.8164 23.8789 23.5039C24.0586 23.1914 24.0586 22.8086 23.8789 22.4961C23.6953 22.1836 23.3594 21.9961 23 22H21.625L20.9062 20.5625L19.9062 16H20C20.3594 16.0039 20.6953 15.8164 20.8789 15.5039C21.0586 15.1914 21.0586 14.8086 20.8789 14.4961C20.6953 14.1836 20.3594 13.9961 20 14H19.4688L19.25 13H23V4H9ZM11 6H13V9H15V6H17V9H19V6H21V11H11V6ZM14.7812 13H17.2188L17.4375 14H14.5625L14.7812 13ZM14.125 16H17.875L19.0312 21.2188L19.0625 21.3438L19.0938 21.4375L19.375 22H12.625L12.9062 21.4375L12.9375 21.3438L12.9688 21.2188L14.125 16ZM11.5 24H20.5L22.75 27H9.25L11.5 24Z" fill="black"/>
</g>
</svg>
