<svg width="32" height="32" viewBox="0 0 32 32" fill="none" xmlns="http://www.w3.org/2000/svg">
<g id="chess-solid">
<path id="Vector" d="M8 4V6H4.80078L6.07422 12H6C5.4 12 5 12.4 5 13C5 13.6 5.4 14 6 14H6.10938L5.0918 21H5C4.4 21 4 21.4 4 22C4 22.3197 4.11948 22.5761 4.31641 22.752L3 24.6992V27H15H15.0996V24.6992L13.7441 22.6934C13.9035 22.52 14 22.2852 14 22C14 21.4 13.6 21 13 21H12.8906L11.8086 14H12C12.6 14 13 13.6 13 13C13 12.4 12.6 12 12 12H11.9492L13.3008 6H10V4H8ZM7.19922 8H10.8008L9.90039 12H8.09961L7.19922 8ZM19 9V11V12V15.4004L19.9004 16.3008L19.1289 21H19C18.4 21 18 21.4 18 22C18 22.3197 18.1195 22.5761 18.3164 22.752L17 24.6992V27H29H29.0996V24.6992L27.7441 22.6934C27.9035 22.52 28 22.2852 28 22C28 21.4 27.6 21 27 21H26.8711L26.0996 16.3008L27 15.4004V12V11V9H25V11H24V9H22V11H21V9H19ZM21 13H25V14.5996L23.9004 15.6992L24.8008 21H21.1992L22.0996 15.6992L21 14.5996V13ZM8.19922 14H9.90039L10.9004 21H7.19922L8.19922 14ZM6.5 23H11.5L12.8008 25H5.19922L6.5 23ZM20.5996 23H25.5L26.8008 25H19.1992L20.5996 23Z" fill="black"/>
</g>
</svg>
