<svg width="32" height="32" viewBox="0 0 32 32" fill="none" xmlns="http://www.w3.org/2000/svg">
<g id="chess-board-solid">
<path id="Vector" d="M7 4V7H10V4H7ZM10 7V10H13V7H10ZM13 7H16V4H13V7ZM16 7V10H19V7H16ZM19 7H22V4H19V7ZM22 7V10H25V7H22ZM25 7H28V4H25V7ZM25 10V13H28V10H25ZM25 13H22V16H25V13ZM25 16V19H28V16H25ZM25 19H22V22H25V19ZM25 22V25H28V22H25ZM25 25H22V28H25V25ZM22 25V22H19V25H22ZM19 25H16V28H19V25ZM16 25V22H13V25H16ZM13 25H10V28H13V25ZM10 25V22H7V25H10ZM7 25H4V28H7V25ZM7 22V19H4V22H7ZM7 19H10V16H7V19ZM7 16V13H4V16H7ZM7 13H10V10H7V13ZM7 10V7H4V10H7ZM10 13V16H13V13H10ZM13 13H16V10H13V13ZM16 13V16H19V13H16ZM19 13H22V10H19V13ZM19 16V19H22V16H19ZM19 19H16V22H19V19ZM16 19V16H13V19H16ZM13 19H10V22H13V19Z" fill="black"/>
</g>
</svg>
