<svg width="32" height="32" viewBox="0 0 32 32" fill="none" xmlns="http://www.w3.org/2000/svg">
<g id="chevron-circle-left-solid">
<path id="Vector" d="M16 3C8.83203 3 3 8.83203 3 16C3 23.168 8.83203 29 16 29C23.168 29 29 23.168 29 16C29 8.83203 23.168 3 16 3ZM16 5C22.0859 5 27 9.91406 27 16C27 22.0859 22.0859 27 16 27C9.91406 27 5 22.0859 5 16C5 9.91406 9.91406 5 16 5ZM17.7812 9.28125L11.7812 15.2812L11.0938 16L11.7812 16.7188L17.7812 22.7188L19.2188 21.2812L13.9375 16L19.2188 10.7188L17.7812 9.28125Z" fill="black"/>
</g>
</svg>
