<svg width="32" height="32" viewBox="0 0 32 32" fill="none" xmlns="http://www.w3.org/2000/svg">
<g id="child-solid">
<path id="Vector" d="M16 3C13.25 3 11 5.25 11 8C11 9.57031 11.7656 10.957 12.9062 11.875C11.1758 12.9297 10 14.832 10 17V20.4062L10.2812 20.7188L12 22.4375V29H14V24H18V29H20V22.4375L21.7188 20.7188L22 20.4062V17C22 14.832 20.8242 12.9297 19.0938 11.875C20.2344 10.957 21 9.57031 21 8C21 5.25 18.75 3 16 3ZM16 5C17.668 5 19 6.33203 19 8C19 9.66797 17.668 11 16 11C14.332 11 13 9.66797 13 8C13 6.33203 14.332 5 16 5ZM16 13C18.2188 13 20 14.7812 20 17V19.5625L19.5625 20H12.4375L12 19.5625V17C12 14.7812 13.7812 13 16 13Z" fill="black"/>
</g>
</svg>
