<svg width="32" height="32" viewBox="0 0 32 32" fill="none" xmlns="http://www.w3.org/2000/svg">
<g id="chrome">
<path id="Vector" d="M16 4C9.38516 4 4 9.38516 4 16C4 22.6148 9.38516 28 16 28C22.6148 28 28 22.6148 28 16C28 9.38516 22.6148 4 16 4ZM16 6C19.9086 6 23.2761 8.23332 24.9219 11.4922L18.1152 11.4883C17.4701 11.1833 16.7578 11 16 11C14.3754 11 12.9401 11.7965 12.0254 13.0059L8.43945 9.45898C10.2714 7.34248 12.9731 6 16 6ZM7.63281 10.5234L11.0195 16.3926C11.2058 18.7576 13.0527 20.6706 15.3887 20.959L14.1133 25.8164C9.48697 24.936 6 20.8874 6 16C6 13.9749 6.60304 12.0961 7.63281 10.5234ZM25.4414 12.7246C25.7964 13.7515 26 14.8505 26 16C26 21.5336 21.5336 26 16 26C15.8139 26 15.6328 25.9826 15.4492 25.9727L18.8418 20.1016C20.1421 19.1964 21 17.6956 21 16C21 15.3099 20.8572 14.6521 20.6016 14.0527L25.4414 12.7246ZM16 13C17.6715 13 19 14.3285 19 16C19 17.6715 17.6715 19 16 19C14.3285 19 13 17.6715 13 16C13 14.3285 14.3285 13 16 13Z" fill="black"/>
</g>
</svg>
