<svg width="32" height="32" viewBox="0 0 32 32" fill="none" xmlns="http://www.w3.org/2000/svg">
<g id="city-solid">
<path id="Vector" d="M10 3.88281L3 7.38281V28H17H29V10H17V7.38281L10 3.88281ZM10 6.11719L15 8.61719V26H5V8.61719L10 6.11719ZM7 10V12H9V10H7ZM11 10V12H13V10H11ZM17 12H27V26H17V12ZM7 14V16H9V14H7ZM11 14V16H13V14H11ZM19 14V16H21V14H19ZM23 14V16H25V14H23ZM7 18V20H9V18H7ZM11 18V20H13V18H11ZM19 18V20H21V18H19ZM23 18V20H25V18H23ZM7 22V24H9V22H7ZM11 22V24H13V22H11ZM19 22V24H21V22H19ZM23 22V24H25V22H23Z" fill="black"/>
</g>
</svg>
