<svg width="32" height="32" viewBox="0 0 32 32" fill="none" xmlns="http://www.w3.org/2000/svg">
<g id="clipboard-check-solid">
<path id="Vector" d="M16 2C14.7422 2 13.8477 2.89062 13.4062 4H5V29H27V4H18.5938C18.1523 2.89062 17.2578 2 16 2ZM16 4C16.5547 4 17 4.44531 17 5V6H20V8H12V6H15V5C15 4.44531 15.4453 4 16 4ZM7 6H10V10H22V6H25V27H7V6ZM21.2812 13.2812L15 19.5625L11.7188 16.2812L10.2812 17.7188L14.2812 21.7188L15 22.4062L15.7188 21.7188L22.7188 14.7188L21.2812 13.2812Z" fill="black"/>
</g>
</svg>
