<svg width="32" height="32" viewBox="0 0 32 32" fill="none" xmlns="http://www.w3.org/2000/svg">
<g id="clone-solid">
<path id="Vector" d="M9 4C6.80078 4 5 5.80078 5 8C5 9.11328 5.47656 10.1172 6.21875 10.8438C4.88672 11.7461 4 13.2812 4 15V20.625L6 21.625V28H12V21.625L14 20.625V19H12V19.375L10 20.375V26H8V20.375L6 19.375V15C6 13.332 7.33203 12 9 12C10.668 12 12 13.332 12 15H14C14 13.2812 13.1133 11.7461 11.7812 10.8438C12.5234 10.1172 13 9.11328 13 8C13 5.80078 11.1992 4 9 4ZM23 4C20.8008 4 19 5.80078 19 8C19 9.11328 19.4766 10.1172 20.2188 10.8438C18.8867 11.7461 18 13.2812 18 15V20.625L20 21.625V28H26V21.625L28 20.625V15C28 13.2812 27.1133 11.7461 25.7812 10.8438C26.5234 10.1172 27 9.11328 27 8C27 5.80078 25.1992 4 23 4ZM9 6C10.1172 6 11 6.88281 11 8C11 9.11719 10.1172 10 9 10C7.88281 10 7 9.11719 7 8C7 6.88281 7.88281 6 9 6ZM23 6C24.1172 6 25 6.88281 25 8C25 9.11719 24.1172 10 23 10C21.8828 10 21 9.11719 21 8C21 6.88281 21.8828 6 23 6ZM23 12C24.668 12 26 13.332 26 15V19.375L24 20.375V26H22V20.375L20 19.375V15C20 13.332 21.332 12 23 12ZM15 14.1875V16H11V18H15V19.8125L17.8125 17L15 14.1875Z" fill="black"/>
</g>
</svg>
