<svg width="32" height="32" viewBox="0 0 32 32" fill="none" xmlns="http://www.w3.org/2000/svg">
<g id="closed-captioning">
<path id="Vector" d="M2 6V23.9062H30V6H2ZM4 8H28V21.9062H4V8ZM12 10C9.25 10 7 12.25 7 15C7 17.75 9.25 20 12 20C13.1953 20 14.2773 19.5586 15.125 18.875L13.875 17.3125C13.3477 17.7383 12.707 18 12 18C10.332 18 9 16.668 9 15C9 13.332 10.332 12 12 12C12.707 12 13.3477 12.2617 13.875 12.6875L15.125 11.125C14.2773 10.4414 13.1953 10 12 10ZM22 10C19.25 10 17 12.25 17 15C17 17.75 19.25 20 22 20C23.1953 20 24.2773 19.5586 25.125 18.875L23.875 17.3125C23.3477 17.7383 22.707 18 22 18C20.332 18 19 16.668 19 15C19 13.332 20.332 12 22 12C22.707 12 23.3477 12.2617 23.875 12.6875L25.125 11.125C24.2773 10.4414 23.1953 10 22 10Z" fill="black"/>
</g>
</svg>
