<svg width="32" height="32" viewBox="0 0 32 32" fill="none" xmlns="http://www.w3.org/2000/svg">
<g id="cloudsmith">
<path id="Vector" d="M18.8535 3C16.4435 3 14.291 4.95061 14.291 7.34961C14.291 9.75961 12.7596 11.291 10.3496 11.291C7.95061 11.291 6 13.4425 6 15.8535C6 18.2645 7.95061 20 10.3496 20C12.7596 20 14.707 18.2665 14.707 15.8555C14.707 13.4445 16.4435 11.709 18.8535 11.709C21.2535 11.709 23 9.75961 23 7.34961C23 4.95061 21.2535 3 18.8535 3ZM19.5059 20C17.0159 20 15 22.0151 15 24.4941C15 26.9851 17.0159 29 19.5059 29C21.9859 29 24 26.9851 24 24.4941C24 22.0151 21.9859 20 19.5059 20Z" fill="black"/>
</g>
</svg>
