<svg width="32" height="32" viewBox="0 0 32 32" fill="none" xmlns="http://www.w3.org/2000/svg">
<g id="cloud-rain-solid">
<path id="Vector" d="M16 4C12.7734 4 9.97266 6.25781 9.21875 9.34375C7.97266 9.82812 6.9375 10.8125 6.40625 12.0312C2.91016 11.7734 0 14.5547 0 18C0 21.3086 2.69141 24 6 24H8L9 22H6C3.79297 22 2 20.207 2 18C2 15.793 3.79297 14 6 14C6.27734 14 6.55859 14.0234 6.875 14.0938L7.875 14.3125L8.0625 13.3438C8.30859 12.2383 9.20703 11.3594 10.3125 11.0938L10.9688 10.9375L11.0625 10.2812C11.4219 7.84766 13.543 6 16 6C17.8945 6 19.6133 7.05469 20.4688 8.75L20.8438 9.53125L21.6875 9.25C22.1562 9.08594 22.582 9 23 9C25.207 9 27 10.793 27 13C27 13.0391 27.0039 13.0898 27 13.125C26.9922 13.1914 26.9766 13.2422 26.9688 13.3125L26.9062 14.0312L27.5625 14.3125C29.0391 14.9414 30 16.3945 30 18C30 20.207 28.207 22 26 22H24L25 24H26C29.3086 24 32 21.3086 32 18C32 15.8359 30.8438 13.875 29 12.8125C28.8945 9.59375 26.2422 7 23 7C22.6094 7 22.207 7.03906 21.8125 7.125C20.5234 5.17969 18.3711 4 16 4ZM18 14C18 14 16 16.8945 16 18C16 19.1055 16.8945 20 18 20C19.1055 20 20 19.1055 20 18C20 16.8945 18 14 18 14ZM13 19C13 19 11 21.8945 11 23C11 24.1055 11.8945 25 13 25C14.1055 25 15 24.1055 15 23C15 21.8945 13 19 13 19ZM21 22C21 22 19 24.8945 19 26C19 27.1055 19.8945 28 21 28C22.1055 28 23 27.1055 23 26C23 24.8945 21 22 21 22Z" fill="black"/>
</g>
</svg>
