<svg width="32" height="32" viewBox="0 0 32 32" fill="none" xmlns="http://www.w3.org/2000/svg">
<g id="cloudversify">
<path id="Vector" d="M20.2754 7.00193C19.4002 6.9864 18.5747 7.09676 17.8867 7.30076C15.0137 8.16076 13.6702 9.9344 12.9102 12.7324C12.5252 12.8634 11.5891 13.1689 10.6641 13.9199C10.4671 14.0739 10.2168 14.2877 9.9668 14.5117C9.9818 14.5677 10 14.6197 10 14.6797V16.5C10 16.776 9.776 17 9.5 17H7.5C7.224 17 7 16.776 7 16.5V16H6.5C6.224 16 6 16.224 6 16.5V18.4902C6 18.7662 6.224 18.9902 6.5 18.9902H8.33008C8.43508 18.9902 8.53114 18.9609 8.61914 18.9179L8.69727 19.2832C9.30527 22.4422 12.147 24.5788 15.916 24.3808C18.481 26.5248 22.7632 26.6434 25.2402 24.1074C28.7082 24.1614 31.1723 21.8987 31.8223 19.1777C32.5713 16.0867 30.9217 12.6249 27.2227 11.5039C25.9844 8.23839 22.9009 7.04853 20.2754 7.00193ZM9.5 7.99998C9.225 7.99998 9 8.22498 9 8.49998V9.49998C9 9.77498 9.225 9.99998 9.5 9.99998H10.5C10.775 9.99998 11 9.77498 11 9.49998V8.49998C11 8.22498 10.775 7.99998 10.5 7.99998H9.5ZM0.5 9.99998C0.225 9.99998 0 10.225 0 10.5V11.5C0 11.775 0.225 12 0.5 12H1.5C1.775 12 2 11.775 2 11.5V10.5C2 10.225 1.775 9.99998 1.5 9.99998H0.5ZM4.5 9.99998C4.224 9.99998 4 10.224 4 10.5V13.4863C4 13.7623 4.224 13.9863 4.5 13.9863H7.5C7.776 13.9863 8 13.7623 8 13.4863V10.5C8 10.224 7.776 9.99998 7.5 9.99998H4.5ZM20.8242 9.99998C21.1262 10.0018 21.44 10.0229 21.7676 10.0644C25.4276 10.5294 28.774 14.2228 25.334 17.6308C27.181 16.8118 27.8756 14.8985 27.8066 13.7695L28.3594 14.7539C28.9834 15.8609 29.1574 17.1431 28.8574 18.3711C28.3724 20.3291 26.721 21.8346 24.666 22.2226C22.992 22.5326 20.3136 21.9886 19.8516 19.2676C19.2976 21.5906 20.9947 22.8864 22.7617 23.6054C17.1267 25.3094 13.7552 21.1398 15.6602 18.1308C13.9172 19.2148 13.881 21.613 14.123 22.709C13.176 22.09 11.2944 21.0833 11.1094 18.6933C10.9474 16.6913 12.2416 14.8877 14.0996 13.9687C15.7046 13.1717 19.5274 13.3804 21.1094 15.8574C20.3704 13.4454 18.2924 12.4976 15.7754 12.2656C17.1903 10.9102 18.7105 9.98709 20.8242 9.99998ZM1.5 15C1.225 15 1 15.225 1 15.5V16.5C1 16.776 1.224 17 1.5 17H2.5C2.776 17 3 16.776 3 16.5V15.5C3 15.224 2.776 15 2.5 15H1.5Z" fill="black"/>
</g>
</svg>
