<svg width="32" height="32" viewBox="0 0 32 32" fill="none" xmlns="http://www.w3.org/2000/svg">
<g id="cloud-sun-solid">
<path id="Vector" d="M9 6V9.09375C8.36719 9.22266 7.77344 9.49609 7.25 9.84375L5.0625 7.625L3.625 9.0625L5.84375 11.25C5.49609 11.7734 5.22266 12.3672 5.09375 13H2V15H5.125C5.25391 15.6289 5.50781 16.1992 5.84375 16.7188L3.625 18.9375L4.25 19.5625C4.11328 20.0195 4 20.5 4 21C4 23.7578 6.24219 26 9 26H25C27.7578 26 30 23.7578 30 21C30 18.9805 28.7891 17.1797 26.9688 16.4062C26.6875 13.9883 24.6562 12.0977 22.1875 12C21.125 10.1523 19.1641 9 17 9C16.7734 9 16.5625 9.00781 16.3438 9.03125L14.9375 7.625L12.75 9.84375C12.2266 9.50781 11.6289 9.25391 11 9.125V6H9ZM10 11C10.7656 11 11.4453 11.2852 11.9688 11.75C11.707 12.1523 11.4727 12.5977 11.3125 13.0625C9.73047 13.332 8.46094 14.543 8.09375 16.0938C8.03906 16.1016 7.98828 16.1133 7.9375 16.125C7.37891 15.582 7 14.8477 7 14C7 12.332 8.33203 11 10 11ZM17 11C18.6055 11 20.0547 11.9609 20.6875 13.4375L20.9688 14.125L21.875 14.0312C21.918 14.0234 21.9531 14 22 14C23.6523 14 24.9961 15.3516 25 16.9375L24.9688 17.9062L25.75 18.0938C27.082 18.4336 28 19.6367 28 21C28 22.6523 26.6523 24 25 24H9C7.34766 24 6 22.6523 6 21C6 19.3477 7.34766 18 9 18H10V17C10 15.8984 10.8945 15.0039 11.9062 15L12.9062 15.0625L13.0938 14.2188C13.4688 12.3594 15.1016 11 17 11Z" fill="black"/>
</g>
</svg>
