<svg width="32" height="32" viewBox="0 0 32 32" fill="none" xmlns="http://www.w3.org/2000/svg">
<g id="cloud-moon-solid">
<path id="Vector" d="M10.4062 5.9375L8.75 5.96875C5.00781 6.10547 2 9.19531 2 12.9688C2 15.1992 3.05469 17.1836 4.6875 18.4688C4.25391 19.2109 4 20.082 4 21C4 23.7578 6.24219 26 9 26H25C27.7578 26 30 23.7578 30 21C30 18.9805 28.7891 17.1797 26.9688 16.4062C26.6875 13.9883 24.6562 12.0977 22.1875 12C21.125 10.1523 19.1641 9 17 9C14.6836 9 12.6172 10.3398 11.625 12.3438C10.2969 11.7969 9.34375 10.5078 9.34375 8.96875C9.34375 8.41016 9.46094 7.88672 9.6875 7.40625L10.4062 5.9375ZM7.5 8.3125C7.47266 8.54297 7.34375 8.73047 7.34375 8.96875C7.34375 10.9219 8.33203 12.6328 9.84375 13.6562C8.99609 14.2109 8.33203 15.0781 8.09375 16.0938C7.32422 16.2344 6.63281 16.5547 6.03125 17C4.80469 16.0859 4 14.6211 4 12.9688C4 10.7305 5.48438 8.95703 7.5 8.3125ZM17 11C18.6055 11 20.0547 11.9609 20.6875 13.4375L20.9688 14.125L21.875 14.0312C21.918 14.0234 21.9531 14 22 14C23.6523 14 24.9961 15.3516 25 16.9375L24.9688 17.9062L25.75 18.0938C27.082 18.4336 28 19.6367 28 21C28 22.6523 26.6523 24 25 24H9C7.34766 24 6 22.6523 6 21C6 19.3477 7.34766 18 9 18H10V17C10 15.8984 10.8945 15.0039 11.9062 15L12.9062 15.0625L13.0938 14.2188C13.4688 12.3594 15.1016 11 17 11Z" fill="black"/>
</g>
</svg>
