<svg width="32" height="32" viewBox="0 0 32 32" fill="none" xmlns="http://www.w3.org/2000/svg">
<g id="cloud-sun-rain-solid">
<path id="Vector" d="M7 6V9.09375C6.36719 9.22266 5.77344 9.49609 5.25 9.84375L3.0625 7.625L1.625 9.0625L3.84375 11.25C3.49609 11.7734 3.22266 12.3672 3.09375 13H0V15H3.09375C3.22656 15.6367 3.49219 16.2266 3.84375 16.75L1.625 18.9375L3.0625 20.375L5.25 18.1562C5.55078 18.3555 5.875 18.5234 6.21875 18.6562C6.09766 19.0859 6 19.5352 6 20C6 22.7578 8.24219 25 11 25H12.1562C12.3359 24.3711 12.6602 23.6836 13.0312 23H11C9.34766 23 8 21.6523 8 20C8 18.3477 9.34766 17 11 17H12V16C12 14.8984 12.8945 14.0039 13.9062 14L14.9062 14.0625L15.0938 13.2188C15.4688 11.3594 17.1016 10 19 10C20.6055 10 22.0547 10.9609 22.6875 12.4375L22.9688 13.125L23.875 13.0312C23.918 13.0234 23.9531 13 24 13C25.6523 13 26.9961 14.3516 27 15.9375L26.9688 16.9062L27.75 17.0938C29.082 17.4336 30 18.6367 30 20C30 21.6523 28.6523 23 27 23H26C26 23.7305 25.7812 24.4102 25.4375 25H27C29.7578 25 32 22.7578 32 20C32 17.9805 30.7891 16.1797 28.9688 15.4062C28.6875 12.9883 26.6562 11.0977 24.1875 11C23.125 9.15234 21.1641 8 19 8C16.418 8 14.1328 9.67188 13.3125 12.0625C13.082 12.1016 12.8711 12.1406 12.6562 12.2188C12.5234 11.875 12.3555 11.5508 12.1562 11.25L14.375 9.0625L12.9375 7.625L10.75 9.84375C10.2266 9.49219 9.63672 9.22656 9 9.09375V6H7ZM8 11C9.47266 11 10.6719 12.0508 10.9375 13.4375C10.5469 13.9062 10.2383 14.4805 10.0938 15.0938C8.88672 15.3125 7.86328 15.957 7.125 16.875C5.89062 16.5039 5 15.3633 5 14C5 12.332 6.33203 11 8 11ZM22 19C22 19 20 21.8945 20 23C20 24.1055 20.8945 25 22 25C22.1367 25 22.2773 24.9961 22.4062 24.9688C23.3164 24.7812 24 23.9688 24 23C24 21.8945 22 19 22 19ZM16 22C16 22 15.7148 22.4531 15.375 23C15.25 23.1992 15.1328 23.3633 15 23.5938C14.8203 23.9062 14.6562 24.2109 14.5 24.5312C14.4219 24.6914 14.3438 24.8477 14.2812 25C14.1172 25.3867 14 25.7461 14 26C14 27.1055 14.8945 28 16 28C17.1055 28 18 27.1055 18 26C18 25.7461 17.8828 25.3867 17.7188 25C17.7031 24.9688 17.7031 24.9414 17.6875 24.9062C17.6328 24.7852 17.5625 24.6562 17.5 24.5312C17.2266 23.9766 16.9141 23.4648 16.625 23C16.2852 22.4531 16 22 16 22Z" fill="black"/>
</g>
</svg>
