<svg width="32" height="32" viewBox="0 0 32 32" fill="none" xmlns="http://www.w3.org/2000/svg">
<g id="cloud-meatball-solid">
<path id="Vector" d="M16 4C12.773 4 9.97275 6.25775 9.21875 9.34375C7.97275 9.82775 6.93825 10.8123 6.40625 12.0312C2.91025 11.7723 0 14.555 0 18C0 21.309 2.691 24 6 24H9V22H6C3.793 22 2 20.207 2 18C2 15.793 3.793 14 6 14C6.277 14 6.559 14.0227 6.875 14.0938L7.875 14.3125L8.0625 13.3438C8.3085 12.2388 9.2075 11.3597 10.3125 11.0938L10.9688 10.9375L11.0625 10.2812C11.4225 7.84725 13.543 6 16 6C17.895 6 19.6127 7.055 20.4688 8.75L20.8438 9.53125L21.6875 9.25C22.1555 9.086 22.582 9 23 9C25.207 9 27 10.793 27 13C27 13.039 27.004 13.09 27 13.125C26.992 13.191 26.9767 13.2415 26.9688 13.3125L26.9062 14.0312L27.5625 14.3125C29.0395 14.9405 30 16.395 30 18C30 20.207 28.207 22 26 22H24V24H26C29.309 24 32 21.309 32 18C32 15.836 30.844 13.8755 29 12.8125C28.895 9.5945 26.242 7 23 7C22.609 7 22.2075 7.039 21.8125 7.125C20.5235 5.18 18.371 4 16 4ZM21 13C20.363 13 19.8477 13.5153 19.8477 14.1523C19.8477 14.1953 19.8671 14.2314 19.8711 14.2734C19.4181 13.9054 18.7599 13.9159 18.3379 14.3379C17.9159 14.7599 17.9054 15.4181 18.2734 15.8711C18.2314 15.8661 18.1953 15.8477 18.1523 15.8477C17.5163 15.8467 17 16.363 17 17C17 17.637 17.5153 18.1523 18.1523 18.1523C18.1953 18.1523 18.2314 18.1329 18.2734 18.1289C17.9054 18.5819 17.9159 19.2401 18.3379 19.6621C18.7599 20.0841 19.4181 20.0946 19.8711 19.7266C19.8661 19.7686 19.8477 19.8047 19.8477 19.8477C19.8467 20.4837 20.363 21 21 21C21.637 21 22.1523 20.4847 22.1523 19.8477C22.1523 19.8047 22.1329 19.7686 22.1289 19.7266C22.5819 20.0946 23.2401 20.0841 23.6621 19.6621C24.0841 19.2401 24.0946 18.5819 23.7266 18.1289C23.7686 18.1339 23.8047 18.1523 23.8477 18.1523C24.4837 18.1533 25 17.637 25 17C25 16.363 24.4847 15.8477 23.8477 15.8477C23.8047 15.8477 23.7686 15.8671 23.7266 15.8711C24.0946 15.4181 24.0841 14.7599 23.6621 14.3379C23.2401 13.9159 22.5819 13.9054 22.1289 14.2734C22.1339 14.2314 22.1523 14.1953 22.1523 14.1523C22.1533 13.5163 21.637 13 21 13ZM12 15C11.7348 15 11.4804 15.1054 11.2929 15.2929C11.1054 15.4804 11 15.7348 11 16C10.7348 16 10.4804 16.1054 10.2929 16.2929C10.1054 16.4804 10 16.7348 10 17C10 17.2652 10.1054 17.5196 10.2929 17.7071C10.4804 17.8946 10.7348 18 11 18C11 18.2652 11.1054 18.5196 11.2929 18.7071C11.4804 18.8946 11.7348 19 12 19C12.2652 19 12.5196 18.8946 12.7071 18.7071C12.8946 18.5196 13 18.2652 13 18C13.2652 18 13.5196 17.8946 13.7071 17.7071C13.8946 17.5196 14 17.2652 14 17C14 16.7348 13.8946 16.4804 13.7071 16.2929C13.5196 16.1054 13.2652 16 13 16C13 15.7348 12.8946 15.4804 12.7071 15.2929C12.5196 15.1054 12.2652 15 12 15ZM15 21C14.363 21 13.8477 21.5153 13.8477 22.1523C13.8477 22.1953 13.8671 22.2314 13.8711 22.2734C13.4181 21.9054 12.7599 21.9159 12.3379 22.3379C11.9159 22.7599 11.9054 23.4181 12.2734 23.8711C12.2314 23.8661 12.1953 23.8477 12.1523 23.8477C11.5163 23.8467 11 24.363 11 25C11 25.637 11.5153 26.1523 12.1523 26.1523C12.1953 26.1523 12.2314 26.1329 12.2734 26.1289C11.9054 26.5819 11.9159 27.2401 12.3379 27.6621C12.7599 28.0841 13.4181 28.0946 13.8711 27.7266C13.8661 27.7686 13.8477 27.8047 13.8477 27.8477C13.8467 28.4837 14.363 29 15 29C15.637 29 16.1523 28.4847 16.1523 27.8477C16.1523 27.8047 16.1329 27.7686 16.1289 27.7266C16.5819 28.0946 17.2401 28.0841 17.6621 27.6621C18.0841 27.2401 18.0946 26.5819 17.7266 26.1289C17.7686 26.1339 17.8047 26.1523 17.8477 26.1523C18.4837 26.1533 19 25.637 19 25C19 24.363 18.4847 23.8477 17.8477 23.8477C17.8047 23.8477 17.7686 23.8671 17.7266 23.8711C18.0946 23.4181 18.0841 22.7599 17.6621 22.3379C17.2401 21.9159 16.5819 21.9054 16.1289 22.2734C16.1339 22.2314 16.1523 22.1953 16.1523 22.1523C16.1533 21.5163 15.637 21 15 21Z" fill="black"/>
</g>
</svg>
