<svg width="32" height="32" viewBox="0 0 32 32" fill="none" xmlns="http://www.w3.org/2000/svg">
<g id="cloudscale">
<path id="Vector" d="M16 3C8.832 3 3 8.832 3 16C3 23.168 8.832 29 16 29C23.168 29 29 23.168 29 16C29 8.832 23.168 3 16 3ZM16 5C22.065 5 27 9.935 27 16C27 22.065 22.065 27 16 27C9.935 27 5 22.065 5 16C5 9.935 9.935 5 16 5ZM16 9C12.134 9 9 12.134 9 16C9 16.225 9.0122 16.447 9.0332 16.666C9.2072 14.063 11.353 12 14 12C15.3091 12 16.4867 12.5153 17.375 13.3418L16.5117 14.0742C16.3477 14.0312 16.178 14 16 14C14.895 14 14 14.895 14 16C14 17.105 14.895 18 16 18C17.105 18 18 17.105 18 16C18 15.822 17.9688 15.6523 17.9258 15.4883L21.8535 10.8535C21.9435 10.7625 22 10.638 22 10.5C22 10.224 21.776 10 21.5 10C21.362 10 21.2375 10.0565 21.1465 10.1465L20.5312 10.668C19.3097 9.6294 17.7292 9 16 9Z" fill="black"/>
</g>
</svg>
