<svg width="32" height="32" viewBox="0 0 32 32" fill="none" xmlns="http://www.w3.org/2000/svg">
<g id="cloud-download-alt-solid">
<path id="Vector" d="M16 6C13.3516 6 11.0508 7.23828 9.40625 9.0625C9.26953 9.04688 9.14844 9 9 9C6.80078 9 5 10.8008 5 13C3.26953 14.0547 2 15.8359 2 18C2 21.3008 4.69922 24 8 24H13V22H8C5.78125 22 4 20.2188 4 18C4 16.3398 5.00781 14.9219 6.4375 14.3125L7.125 14.0312L7.03125 13.2812C7.01172 13.1172 7 13.0234 7 13C7 11.8828 7.88281 11 9 11C9.14062 11 9.29688 11.0195 9.46875 11.0625L10.0938 11.2188L10.4688 10.7188C11.75 9.07422 13.75 8 16 8C19.2773 8 22.0117 10.2539 22.7812 13.2812L22.9688 14.0625L23.8125 14.0312C24.0234 14.0195 24.0703 14 24 14C26.2188 14 28 15.7812 28 18C28 20.2188 26.2188 22 24 22H19V24H24C27.3008 24 30 21.3008 30 18C30 14.8438 27.5117 12.3164 24.4062 12.0938C23.1836 8.57422 19.9258 6 16 6ZM15 18V26H12L16 30L20 26H17V18H15Z" fill="black"/>
</g>
</svg>
