<svg width="32" height="32" viewBox="0 0 32 32" fill="none" xmlns="http://www.w3.org/2000/svg">
<g id="cloud-moon-rain-solid">
<path id="Vector" d="M10.4062 5.9375L8.75 5.96875C5.008 6.10475 2 9.19475 2 12.9688C2 15.1987 3.0555 17.1838 4.6875 18.4688C4.2545 19.2107 4 20.082 4 21C4 23.758 6.242 26 9 26H10.1602C10.3402 25.37 10.6593 24.68 11.0293 24H9C7.348 24 6 22.652 6 21C6 19.348 7.348 18 9 18H10V17C10 15.898 10.8953 15.004 11.9062 15L12.9062 15.0625L13.0938 14.2188C13.4688 12.3587 15.102 11 17 11C18.605 11 20.0555 11.9605 20.6875 13.4375L20.9688 14.127L21.873 14.0312C21.917 14.0223 21.953 14 22 14C23.652 14 24.996 15.3515 25 16.9375L24.9688 17.9062L25.75 18.0957C27.082 18.4347 28 19.637 28 21C28 22.652 26.652 24 25 24H24C24 24.73 23.7795 25.41 23.4395 26H25C27.758 26 30 23.758 30 21C30 18.98 28.7887 17.1803 26.9688 16.4062C26.6877 13.9882 24.6555 12.097 22.1875 12C21.1245 10.152 19.164 9 17 9C14.684 9 12.617 10.3398 11.625 12.3438C10.297 11.7968 9.34375 10.5078 9.34375 8.96875C9.34375 8.40975 9.4605 7.88725 9.6875 7.40625L10.4062 5.9375ZM7.5 8.3125C7.473 8.5425 7.34375 8.72975 7.34375 8.96875C7.34375 10.9218 8.33175 12.6322 9.84375 13.6562C8.99575 14.2102 8.33175 15.0778 8.09375 16.0938C7.32375 16.2338 6.63325 16.555 6.03125 17C4.80525 16.086 4 14.6208 4 12.9688C4 10.7308 5.484 8.9565 7.5 8.3125ZM20 20C20 20 18 22.895 18 24C18 25.105 18.895 26 20 26C20.137 26 20.2773 25.9958 20.4062 25.9688C21.3162 25.7808 22 24.969 22 24C22 22.895 20 20 20 20ZM14 23C14 23 13.715 23.453 13.375 24C13.25 24.199 13.133 24.3627 13 24.5938C12.82 24.9067 12.656 25.2103 12.5 25.5312C12.422 25.6912 12.3442 25.849 12.2812 26.002C12.1173 26.388 12 26.746 12 27C12 28.105 12.895 29 14 29C15.105 29 16 28.105 16 27C16 26.746 15.8827 26.387 15.7188 26C15.7028 25.969 15.7025 25.9412 15.6875 25.9062C15.6325 25.7852 15.564 25.6562 15.502 25.5312C15.229 24.9762 14.916 24.465 14.627 24C14.286 23.453 14 23 14 23Z" fill="black"/>
</g>
</svg>
