<svg width="32" height="32" viewBox="0 0 32 32" fill="none" xmlns="http://www.w3.org/2000/svg">
<g id="cloud-showers-heavy-solid">
<g clip-path="url(#clip0)">
<path id="Vector" d="M16 5C12.668 5 9.94921 7.37109 9.25 10.5C8.03125 10.9805 7.125 11.8711 6.59375 13.0625C6.39453 13.0391 6.21093 13 6 13C2.69922 13 -3.39083e-06 15.6992 -3.39083e-06 19C-3.39083e-06 19.0664 -0.00390964 19.1211 -3.39083e-06 19.1875C0.0937466 22.0469 2.14062 24.3555 4.84375 24.875L6.75 23H6C3.82812 23 2.07031 21.293 2 19.125C2 19.082 2 19.043 2 19C2 16.7812 3.78125 15 6 15C6.29297 15 6.57812 15.0273 6.875 15.0938L7.875 15.3125L8.0625 14.3438C8.30859 13.2305 9.20312 12.3594 10.3125 12.0938L10.9687 11.9375L11.0625 11.25C11.418 8.83594 13.4766 7 16 7C17.957 7 19.6445 8.12109 20.4687 9.75L20.8437 10.5312L21.6875 10.25C22.125 10.0977 22.5547 10 23 10C25.2187 10 27 11.7812 27 14C27 13.9922 26.9844 14.0781 26.9687 14.3125L26.9062 15.0312L27.5625 15.3125C28.9922 15.9219 30 17.3398 30 19C30 21.2188 28.2187 23 26 23H25.3125L23.2812 25H26C29.3008 25 32 22.3008 32 19C32 16.8359 30.7305 15.0547 29 14C29 10.6992 26.3008 8 23 8C22.5664 8 22.2031 8.12891 21.8125 8.21875C20.5625 6.30078 18.4531 5 16 5ZM13.5937 19.0938L3.9375 28.5938L5.34375 30L15 20.5L13.5937 19.0938ZM18.5937 19.0938L8.9375 28.5938L10.3437 30L20 20.5L18.5937 19.0938ZM23.5937 19.0938L13.9375 28.5938L15.3437 30L25 20.5L23.5937 19.0938Z" fill="black"/>
</g>
</g>
<defs>
<clipPath id="clip0">
<rect width="32" height="32" fill="white"/>
</clipPath>
</defs>
</svg>
