<svg width="32" height="32" viewBox="0 0 32 32" fill="none" xmlns="http://www.w3.org/2000/svg">
<g id="cocktail-solid">
<path id="Vector" d="M8.5 4C5.46484 4 3 6.46484 3 9.5C3 12.5352 5.46484 15 8.5 15C9.3125 15 10.0781 14.7969 10.7812 14.4688L16 21.3438V27H12V29H22V27H18V21.3438L26.8125 9.71875L27 9.4375V8H13.75C13.1445 5.67969 10.9844 4 8.5 4ZM8.5 6C9.89062 6 11.0898 6.83984 11.625 8H7V9.4375L7.1875 9.71875L9.53125 12.8125C9.1875 12.9336 8.83594 13 8.5 13C6.53516 13 5 11.4648 5 9.5C5 7.53516 6.53516 6 8.5 6ZM9.9375 10H24.0625L22.5625 12H13.5L15 14H21.0312L17 19.3438L9.9375 10Z" fill="black"/>
</g>
</svg>
