<svg width="32" height="32" viewBox="0 0 32 32" fill="none" xmlns="http://www.w3.org/2000/svg">
<g id="codepen">
<path id="Vector" d="M16 2.84375L15.4375 3.21875L3.4375 11.25L3 11.5312V20.4688L3.4375 20.75L15.4375 28.7812L16 29.1562L16.5625 28.7812L28.5625 20.75L29 20.4688V11.5312L28.5625 11.25L16.5625 3.21875L16 2.84375ZM15 5.90625V11.3438L9.84375 14.8125L5.8125 12.0938L15 5.90625ZM17 5.90625L26.1875 12.0938L22.1562 14.8125L17 11.3438V5.90625ZM16 13.0938L20.3438 16L16 18.9062L11.6562 16L16 13.0938ZM5 13.9375L8.0625 16L5 18.0625V13.9375ZM27 13.9375V18.0625L23.9375 16L27 13.9375ZM9.875 17.1875L15 20.6562V26.0938L5.8125 19.9062L9.875 17.1875ZM22.125 17.1875L26.1875 19.9062L17 26.0938V20.6562L22.125 17.1875Z" fill="black"/>
</g>
</svg>
