<svg width="32" height="32" viewBox="0 0 32 32" fill="none" xmlns="http://www.w3.org/2000/svg">
<g id="codiepie">
<path id="Vector" d="M16.043 3C8.86297 3 3.04297 8.82 3.04297 16C3.04297 23.18 8.86297 29 16.043 29C21.477 29 26.016 25.6637 27.959 20.9297L17.125 16L27.6582 10.1914C25.5242 5.93141 21.132 3 16.043 3ZM16.043 5C19.577 5 22.8132 6.66627 24.8672 9.44727L21.2852 11.4219C20.0036 9.93986 18.1135 9 16 9C12.134 9 9 12.134 9 16C9 19.866 12.134 23 16 23C18.278 23 20.2918 21.905 21.5684 20.2188L25.2285 21.8848C23.2465 25.0438 19.813 27 16.043 27C9.97797 27 5.04297 22.065 5.04297 16C5.04297 9.935 9.97697 5 16.043 5ZM24 13V18H26V16H26.5C27.328 16 28 15.328 28 14.5C28 13.672 27.328 13 26.5 13H26H24Z" fill="black"/>
</g>
</svg>
