<svg width="32" height="32" viewBox="0 0 32 32" fill="none" xmlns="http://www.w3.org/2000/svg">
<g id="cog-solid">
<path id="Vector" d="M13.1875 3L13.0312 3.8125L12.4375 6.78125C11.4844 7.15625 10.625 7.68359 9.84375 8.3125L6.9375 7.3125L6.15625 7.0625L5.75 7.78125L3.75 11.2188L3.34375 11.9375L3.9375 12.4688L6.1875 14.4375C6.10547 14.9492 6 15.4609 6 16C6 16.5391 6.10547 17.0508 6.1875 17.5625L3.9375 19.5312L3.34375 20.0625L3.75 20.7812L5.75 24.2188L6.15625 24.9375L6.9375 24.6875L9.84375 23.6875C10.625 24.3164 11.4844 24.8438 12.4375 25.2188L13.0312 28.1875L13.1875 29H18.8125L18.9688 28.1875L19.5625 25.2188C20.5156 24.8438 21.375 24.3164 22.1562 23.6875L25.0625 24.6875L25.8438 24.9375L26.25 24.2188L28.25 20.7812L28.6562 20.0625L28.0625 19.5312L25.8125 17.5625C25.8945 17.0508 26 16.5391 26 16C26 15.4609 25.8945 14.9492 25.8125 14.4375L28.0625 12.4688L28.6562 11.9375L28.25 11.2188L26.25 7.78125L25.8438 7.0625L25.0625 7.3125L22.1562 8.3125C21.375 7.68359 20.5156 7.15625 19.5625 6.78125L18.9688 3.8125L18.8125 3H13.1875ZM14.8125 5H17.1875L17.6875 7.59375L17.8125 8.1875L18.375 8.375C19.5117 8.73047 20.543 9.33203 21.4062 10.125L21.8438 10.5312L22.4062 10.3438L24.9375 9.46875L26.125 11.5L24.125 13.2812L23.6562 13.6562L23.8125 14.25C23.9414 14.8203 24 15.4023 24 16C24 16.5977 23.9414 17.1797 23.8125 17.75L23.6875 18.3438L24.125 18.7188L26.125 20.5L24.9375 22.5312L22.4062 21.6562L21.8438 21.4688L21.4062 21.875C20.543 22.668 19.5117 23.2695 18.375 23.625L17.8125 23.8125L17.6875 24.4062L17.1875 27H14.8125L14.3125 24.4062L14.1875 23.8125L13.625 23.625C12.4883 23.2695 11.457 22.668 10.5938 21.875L10.1562 21.4688L9.59375 21.6562L7.0625 22.5312L5.875 20.5L7.875 18.7188L8.34375 18.3438L8.1875 17.75C8.05859 17.1797 8 16.5977 8 16C8 15.4023 8.05859 14.8203 8.1875 14.25L8.34375 13.6562L7.875 13.2812L5.875 11.5L7.0625 9.46875L9.59375 10.3438L10.1562 10.5312L10.5938 10.125C11.457 9.33203 12.4883 8.73047 13.625 8.375L14.1875 8.1875L14.3125 7.59375L14.8125 5ZM16 11C13.25 11 11 13.25 11 16C11 18.75 13.25 21 16 21C18.75 21 21 18.75 21 16C21 13.25 18.75 11 16 11ZM16 13C17.668 13 19 14.332 19 16C19 17.668 17.668 19 16 19C14.332 19 13 17.668 13 16C13 14.332 14.332 13 16 13Z" fill="black"/>
</g>
</svg>
