<svg width="32" height="32" viewBox="0 0 32 32" fill="none" xmlns="http://www.w3.org/2000/svg">
<g id="cogs-solid">
<path id="Vector" d="M15 4V5.125C14.3398 5.25391 13.6992 5.48047 13.1562 5.84375L12.375 5.0625L10.9375 6.46875L11.75 7.28125C11.4102 7.79688 11.1602 8.37891 11.0312 9H10V11H11.0312C11.1602 11.6211 11.4102 12.2031 11.75 12.7188L10.9375 13.5312L12.375 14.9375L13.1562 14.1562C13.6992 14.5195 14.3398 14.7461 15 14.875V16H17V14.875C17.6094 14.7422 18.1836 14.5234 18.6875 14.1875L19.4375 14.9375L20.8438 13.5312L20.0938 12.7812C20.4531 12.25 20.7109 11.6484 20.8438 11H22V9H20.8438C20.7109 8.35156 20.4531 7.75 20.0938 7.21875L20.8438 6.46875L19.4375 5.0625L18.6875 5.8125C18.1836 5.47656 17.6094 5.25781 17 5.125V4H15ZM15.9375 7C17.6055 7 18.9375 8.33203 18.9375 10C18.9375 11.668 17.6055 13 15.9375 13C14.2695 13 12.9375 11.668 12.9375 10C12.9375 8.33203 14.2695 7 15.9375 7ZM8 16V17.0938C7.32812 17.2227 6.70312 17.4727 6.15625 17.8438L5.375 17.0625L3.9375 18.4688L4.75 19.2812C4.41016 19.8008 4.16016 20.375 4.03125 21H3V23H4.03125C4.16016 23.625 4.41016 24.1992 4.75 24.7188L3.9375 25.5312L5.375 26.9375L6.15625 26.1562C6.70312 26.5273 7.32812 26.7773 8 26.9062V28H10V26.875C10.6094 26.7422 11.1836 26.5234 11.6875 26.1875L12.4375 26.9375L13.8438 25.5312L13.0938 24.7812C13.4492 24.2578 13.707 23.668 13.8438 23.0312L15.0312 23L14.9688 21L13.8438 21.0312C13.7109 20.3711 13.4609 19.7578 13.0938 19.2188L13.8438 18.4688L12.4375 17.0625L11.6875 17.8125C11.1836 17.4766 10.6094 17.2578 10 17.125V16H8ZM22 16V17.125C21.3398 17.2539 20.6992 17.4805 20.1562 17.8438L19.375 17.0625L17.9375 18.4688L18.75 19.2812C18.4102 19.7969 18.1602 20.3789 18.0312 21H17V23H18.0312C18.1602 23.6211 18.4102 24.2031 18.75 24.7188L17.9375 25.5312L19.375 26.9375L20.1562 26.1562C20.6992 26.5195 21.3398 26.7461 22 26.875V28H24V26.875C24.6055 26.7422 25.1523 26.4883 25.6562 26.1562L26.4375 26.9375L27.8438 25.5312L27.0938 24.7812C27.4531 24.2578 27.707 23.6719 27.8438 23.0312L29.0312 23L28.9688 21L27.8438 21.0312C27.7148 20.3789 27.4219 19.7852 27.0625 19.25L27.8438 18.4688L26.4375 17.0625L25.6562 17.8438C25.1602 17.5195 24.5938 17.2891 24 17.1562V16H22ZM8.9375 19C10.6055 19 11.9375 20.332 11.9375 22C11.9375 23.668 10.6055 25 8.9375 25C7.26953 25 5.9375 23.668 5.9375 22C5.9375 20.332 7.26953 19 8.9375 19ZM22.9375 19C24.6055 19 25.9375 20.332 25.9375 22C25.9375 23.668 24.6055 25 22.9375 25C21.2695 25 19.9375 23.668 19.9375 22C19.9375 20.332 21.2695 19 22.9375 19Z" fill="black"/>
</g>
</svg>
