<svg width="32" height="32" viewBox="0 0 32 32" fill="none" xmlns="http://www.w3.org/2000/svg">
<g id="comment-dots">
<path id="Vector" d="M3 5V23H8V28.0781L14.3516 23H29V5H3ZM5 7H27V21H13.6484L10 23.918V21H5V7ZM10 12C8.89453 12 8 12.8945 8 14C8 15.1055 8.89453 16 10 16C11.1055 16 12 15.1055 12 14C12 12.8945 11.1055 12 10 12ZM16 12C14.8945 12 14 12.8945 14 14C14 15.1055 14.8945 16 16 16C17.1055 16 18 15.1055 18 14C18 12.8945 17.1055 12 16 12ZM22 12C20.8945 12 20 12.8945 20 14C20 15.1055 20.8945 16 22 16C23.1055 16 24 15.1055 24 14C24 12.8945 23.1055 12 22 12Z" fill="black"/>
</g>
</svg>
