<svg width="32" height="32" viewBox="0 0 32 32" fill="none" xmlns="http://www.w3.org/2000/svg">
<g id="comment-dollar-solid">
<path id="Vector" d="M3 6V26H12.5859L16 29.4141L19.4141 26H29V6H3ZM5 8H27V24H18.5859L16 26.5859L13.4141 24H5V8ZM15 10V11.1875C13.844 11.6055 13 12.709 13 14.002C13 15.647 14.355 17.002 16 17.002C16.566 17.002 17 17.436 17 18.002C17 18.568 16.566 19.002 16 19.002C15.434 19.002 15 18.568 15 18.002H13C13 19.295 13.844 20.3965 15 20.8145V22H17V20.8125C18.156 20.3945 19 19.291 19 17.998C19 16.353 17.645 14.998 16 14.998C15.434 14.998 15 14.564 15 13.998C15 13.432 15.434 12.998 16 12.998C16.566 12.998 17 13.432 17 13.998H19C19 12.705 18.156 11.6035 17 11.1855V10H15Z" fill="black"/>
</g>
</svg>
