<svg width="32" height="32" viewBox="0 0 32 32" fill="none" xmlns="http://www.w3.org/2000/svg">
<g id="comments-dollar-solid">
<path id="Vector" d="M2 3V21H6V26.0938L7.625 24.7812L12.3438 21H22V3H2ZM4 5H20V19H11.6562L11.375 19.2188L8 21.9062V19H4V5ZM11 7V8.03906C9.879 8.22706 9 9.203 9 10.375C9 11.129 9.42238 11.8279 10.1094 12.1719L13 13.6172C12.996 13.8402 12.8402 14 12.6172 14H11.3828C11.1598 14 11 13.8402 11 13.6172V13H9V13.6172C9 14.7892 9.875 15.7729 11 15.9609V17H13V15.9609C14.125 15.7729 15 14.7892 15 13.6172C15 12.8632 14.5695 12.1681 13.8945 11.8281L11 10.3789C11.008 10.3869 11 10.379 11 10.375C11 10.152 11.1558 10 11.3828 10H12.6172C12.8402 10 13 10.1598 13 10.3828V11H15V10.3828C15 9.21081 14.125 8.22706 13 8.03906V7H11ZM24 9V11H28V23H24V25.9062L20.3438 23H12.8438L10.3438 25H19.6562L26 30.0938V25H30V9H24Z" fill="black"/>
</g>
</svg>
