<svg width="32" height="32" viewBox="0 0 32 32" fill="none" xmlns="http://www.w3.org/2000/svg">
<g id="compact-disc-solid">
<path id="Vector" d="M16 4C9.38281 4 4 9.38281 4 16C4 22.6172 9.38281 28 16 28C22.6172 28 28 22.6172 28 16C28 9.38281 22.6172 4 16 4ZM16 6C21.5352 6 26 10.4648 26 16C26 21.5352 21.5352 26 16 26C10.4648 26 6 21.5352 6 16C6 10.4648 10.4648 6 16 6ZM13.2188 8.5C11.043 9.30859 9.30859 11.043 8.5 13.2188L10.375 13.9062C10.9805 12.2773 12.2773 10.9805 13.9062 10.375L13.2188 8.5ZM16 13C14.3555 13 13 14.3555 13 16C13 17.6445 14.3555 19 16 19C17.6445 19 19 17.6445 19 16C19 14.3555 17.6445 13 16 13ZM16 15C16.5625 15 17 15.4375 17 16C17 16.5625 16.5625 17 16 17C15.4375 17 15 16.5625 15 16C15 15.4375 15.4375 15 16 15ZM21.625 18.0938C21.0195 19.7227 19.7227 21.0195 18.0938 21.625L18.7812 23.5C20.957 22.6914 22.6914 20.957 23.5 18.7812L21.625 18.0938Z" fill="black"/>
</g>
</svg>
