<svg width="32" height="32" viewBox="0 0 32 32" fill="none" xmlns="http://www.w3.org/2000/svg">
<g id="compass">
<path id="Vector" d="M16 4C9.38281 4 4 9.38281 4 16C4 22.6172 9.38281 28 16 28C22.6172 28 28 22.6172 28 16C28 9.38281 22.6172 4 16 4ZM14.9688 6.0625C14.9805 6.0625 14.9883 6.0625 15 6.0625V7H17V6.0625C21.7383 6.52734 25.4727 10.2617 25.9375 15H25V17H25.9375C25.4727 21.7383 21.7383 25.4727 17 25.9375V25H15V25.9375C10.2617 25.4727 6.52734 21.7383 6.0625 17H7V15H6.0625C6.52734 10.2695 10.2461 6.53906 14.9688 6.0625ZM22.5 9.5L14.1562 14.1562L9.5 22.5L17.8438 17.8438L22.5 9.5ZM16 14.5C16.8281 14.5 17.5 15.1719 17.5 16C17.5 16.8281 16.8281 17.5 16 17.5C15.1719 17.5 14.5 16.8281 14.5 16C14.5 15.1719 15.1719 14.5 16 14.5Z" fill="black"/>
</g>
</svg>
