<svg width="32" height="32" viewBox="0 0 32 32" fill="none" xmlns="http://www.w3.org/2000/svg">
<g id="confluence">
<path id="Vector" d="M22.5078 5C22.2718 5 22.0403 5.11231 21.9023 5.32031C21.8923 5.33031 21.883 5.35109 21.873 5.37109C20.424 7.79409 19.5281 8.87695 17.9961 8.87695C16.3411 8.87695 13.9427 7.61116 9.30272 5.41016C9.20172 5.36016 9.09427 5.33789 8.98827 5.33789C8.71927 5.33789 8.45907 5.49295 8.33007 5.75195C8.33007 5.75195 8.3303 5.76148 8.3203 5.77148L6.06639 10.8828C5.89639 11.2438 6.06672 11.674 6.42772 11.834C7.41972 12.305 9.39277 13.2376 11.1758 14.0996C13.9898 15.4596 16.3262 16 18.2812 16C24.0442 16 26.4716 11.2981 27.8926 9.03906C28.1026 8.69806 27.9923 8.25688 27.6523 8.04688L22.914 5.12109C22.788 5.03909 22.6468 5 22.5078 5ZM22.9238 7.47656L25.5156 9.07812C23.8366 11.7331 21.9292 14 18.2812 14C16.4782 14 14.3819 13.4278 12.0469 12.2988C10.7889 11.6908 9.43447 11.0467 8.39647 10.5547L9.62108 7.7793C9.79208 7.8613 9.95903 7.94153 10.123 8.01953C13.977 9.86153 16.0991 10.877 17.9941 10.877C20.2971 10.877 21.6378 9.46456 22.9238 7.47656ZM13.7109 16C7.94692 16 5.52241 20.7248 4.10741 22.9648C3.89741 23.3058 4.00664 23.7577 4.34764 23.9688L9.0996 26.8906C9.2196 26.9646 9.35141 27 9.48241 27C9.72541 27 9.96555 26.8784 10.1015 26.6504C11.5445 24.2214 12.4375 23.1367 13.9805 23.1367C15.6345 23.1367 18.0304 24.4014 22.6914 26.6094C22.7954 26.6604 22.9047 26.6855 23.0117 26.6855C23.2847 26.6855 23.541 26.5295 23.664 26.2695C23.674 26.2695 23.6738 26.258 23.6738 26.248L25.9394 21.1289C26.0994 20.7679 25.9293 20.3368 25.5683 20.1758C24.5763 19.7038 22.6002 18.77 20.8262 17.916C18.0082 16.545 15.6679 16 13.7109 16ZM13.7109 18C15.5149 18 17.6159 18.5778 19.9609 19.7188C21.2149 20.3217 22.5675 20.964 23.6055 21.457L22.373 24.2422C22.184 24.1522 22.0003 24.0645 21.8203 23.9785C17.9823 22.1455 15.8685 21.1367 13.9805 21.1367C11.6745 21.1367 10.3375 22.5405 9.06249 24.5195L6.48046 22.9336C8.16146 20.2756 10.0649 18 13.7109 18Z" fill="black"/>
</g>
</svg>
