<svg width="32" height="32" viewBox="0 0 32 32" fill="none" xmlns="http://www.w3.org/2000/svg">
<g id="connectdevelop">
<path id="Vector" d="M9.15625 4.1875L8.875 4.6875L2.625 15.5938L2.34375 16.0938L2.625 16.5938L8.875 27.5L9.15625 28H22.8438L23.125 27.5L29.375 16.5938L29.6562 16.0938L29.375 15.5938L23.125 4.6875L22.8438 4.1875H9.15625ZM11.5938 6.1875H17.7188L13.1562 7.8125L11.5938 6.1875ZM20.7188 6.1875L16.125 10.875L13.9375 8.59375L20.7188 6.1875ZM10.2812 6.28125L12.1562 8.1875L10.25 8.875V6.34375L10.2812 6.28125ZM21.8125 6.46875L24.4375 11L20.4062 15.2812L16.8438 11.5938L21.8125 6.46875ZM9.25 8.09375V9.21875L8.4375 9.5L9.25 8.09375ZM12.9062 8.96875L15.4375 11.5938L11.7188 15.375L10.25 13.8125V9.9375L12.9062 8.96875ZM9.25 10.2812V12.75L7.59375 10.9688L7.65625 10.8438L9.25 10.2812ZM7.0625 11.875L9.25 14.2188V17.9375L7.03125 20.2188L4.65625 16.0938L7.0625 11.875ZM24.875 12L23.5 18.4688L21.0938 16L24.875 12ZM16.125 12.3125L19.7188 16L16 19.9375L12.4062 16.125L16.125 12.3125ZM25.6562 13.1562L27.3438 16.0938L25.0625 20.0625L24.375 19.3438L25.6562 13.1562ZM10.25 15.2812L11.0312 16.0938L10.25 16.9062V15.2812ZM20.4062 16.7188L23.2812 19.6562L22.9375 21.25H17.2188L16.6875 20.6875L20.4062 16.7188ZM11.7188 16.8438L15.3125 20.6875L14.75 21.25H10.25V18.3125L11.7188 16.8438ZM9.25 19.3438V21.25H7.625L7.53125 21.125L9.25 19.3438ZM24.125 20.5312L24.5312 20.9688L24.375 21.25H23.9688L24.125 20.5312ZM8.1875 22.25H9.25V24.0938L8.1875 22.25ZM10.25 22.25H13.8125L10.3125 25.9688L10.25 25.8438V22.25ZM15.1875 22.25H16.7812L20.2812 26H11.6562L15.1875 22.25ZM18.1562 22.25H22.7188L22.0938 25.25L21.6562 26L18.1562 22.25ZM23.75 22.25H23.8125L23.7188 22.4062L23.75 22.25Z" fill="black"/>
</g>
</svg>
