<svg width="32" height="32" viewBox="0 0 32 32" fill="none" xmlns="http://www.w3.org/2000/svg">
<g id="contao">
<path id="Vector" d="M5.65625 5.46875C4.75 5.46875 4 6.1875 4 7.09375V24.9062C4 25.8125 4.75 26.5312 5.65625 26.5312H9.375C7.77734 24.7852 7.05469 22.2539 7 22.0312C6.76172 21.082 5.82812 16.9297 5.5 14.9688C5.36719 14.1797 5.28125 13.3125 5.28125 12.1875C5.28125 8.60547 7.14453 6.47266 8.34375 5.46875H5.65625ZM22.1562 5.46875C23.7695 6.91797 24.6562 9.40625 24.6562 9.40625L18.25 10.75C18.25 10.75 17.3047 8.625 15.125 8.625C13.9375 8.625 11.7812 9.45703 11.7812 11.5938C11.7812 12.9766 12.2656 15.8672 12.9062 18.625C13.6836 21.9648 14.5273 23.7188 16.6875 23.7188C20.2422 23.7188 20.2188 20.1875 20.2188 20.1875L26.6562 18.75C26.6562 18.75 26.6562 19.3945 26.6562 20.3125C26.6562 23.4219 24.6328 25.8516 24 26.5312H26.3438C27.25 26.5312 28 25.8125 28 24.9062V7.09375C28 6.1875 27.25 5.46875 26.3438 5.46875H22.1562Z" fill="black"/>
</g>
</svg>
