<svg width="32" height="32" viewBox="0 0 32 32" fill="none" xmlns="http://www.w3.org/2000/svg">
<g id="cookie-bite-solid">
<path id="Vector" d="M16 4C9.37109 4 4 9.37109 4 16C4 22.6289 9.37109 28 16 28C22.6289 28 28 22.6289 28 16C28 15.5156 27.9648 15.0391 27.9062 14.5664C27.5078 14.8398 27.0234 15 26.5 15C25.4219 15 24.5117 14.3125 24.1602 13.3594C23.5352 13.7578 22.7969 14 22 14C19.7891 14 18 12.2109 18 10C18 9.26562 18.2109 8.58594 18.5586 7.99219C18.5391 7.99609 18.5195 8 18.5 8C17.1172 8 16 6.88281 16 5.5C16 4.94141 16.1875 4.43359 16.4961 4.01953C16.332 4.01172 16.168 4 16 4ZM23.5 4C22.6719 4 22 4.67188 22 5.5C22 6.32812 22.6719 7 23.5 7C24.3281 7 25 6.32812 25 5.5C25 4.67188 24.3281 4 23.5 4ZM14.0508 6.1875C14.25 7.47656 15 8.58594 16.0469 9.27344C16.0156 9.51172 16 9.75781 16 10C16 13.3086 18.6914 16 22 16C22.4961 16 22.9922 15.9375 23.4688 15.8125C24.1523 16.4375 25.0156 16.8516 25.9531 16.9688C25.4648 22.0312 21.1875 26 16 26C10.4844 26 6 21.5156 6 16C6 11.1523 9.46875 7.09766 14.0508 6.1875ZM22 9C21.4492 9 21 9.44922 21 10C21 10.5508 21.4492 11 22 11C22.5508 11 23 10.5508 23 10C23 9.44922 22.5508 9 22 9ZM14 10C13.4492 10 13 10.4492 13 11C13 11.5508 13.4492 12 14 12C14.5508 12 15 11.5508 15 11C15 10.4492 14.5508 10 14 10ZM27 10C26.4492 10 26 10.4492 26 11C26 11.5508 26.4492 12 27 12C27.5508 12 28 11.5508 28 11C28 10.4492 27.5508 10 27 10ZM11 13C9.89453 13 9 13.8945 9 15C9 16.1055 9.89453 17 11 17C12.1055 17 13 16.1055 13 15C13 13.8945 12.1055 13 11 13ZM16 15C15.4492 15 15 15.4492 15 16C15 16.5508 15.4492 17 16 17C16.5508 17 17 16.5508 17 16C17 15.4492 16.5508 15 16 15ZM12.5 19C11.6719 19 11 19.6719 11 20.5C11 21.3281 11.6719 22 12.5 22C13.3281 22 14 21.3281 14 20.5C14 19.6719 13.3281 19 12.5 19ZM19.5 20C18.6719 20 18 20.6719 18 21.5C18 22.3281 18.6719 23 19.5 23C20.3281 23 21 22.3281 21 21.5C21 20.6719 20.3281 20 19.5 20Z" fill="black"/>
</g>
</svg>
