<svg width="32" height="32" viewBox="0 0 32 32" fill="none" xmlns="http://www.w3.org/2000/svg">
<g id="cookie-solid">
<path id="Vector" d="M16 3C8.832 3 3 8.832 3 16C3 23.168 8.832 29 16 29C23.168 29 29 23.168 29 16C29 8.832 23.168 3 16 3ZM16 5C22.065 5 27 9.935 27 16C27 22.065 22.065 27 16 27C9.935 27 5 22.065 5 16C5 9.935 9.935 5 16 5ZM14 9C13.7348 9 13.4804 9.10536 13.2929 9.29289C13.1054 9.48043 13 9.73478 13 10C13 10.2652 13.1054 10.5196 13.2929 10.7071C13.4804 10.8946 13.7348 11 14 11C14.2652 11 14.5196 10.8946 14.7071 10.7071C14.8946 10.5196 15 10.2652 15 10C15 9.73478 14.8946 9.48043 14.7071 9.29289C14.5196 9.10536 14.2652 9 14 9ZM19.5 10C19.1022 10 18.7206 10.158 18.4393 10.4393C18.158 10.7206 18 11.1022 18 11.5C18 11.8978 18.158 12.2794 18.4393 12.5607C18.7206 12.842 19.1022 13 19.5 13C19.8978 13 20.2794 12.842 20.5607 12.5607C20.842 12.2794 21 11.8978 21 11.5C21 11.1022 20.842 10.7206 20.5607 10.4393C20.2794 10.158 19.8978 10 19.5 10ZM11 13C10.4696 13 9.96086 13.2107 9.58579 13.5858C9.21071 13.9609 9 14.4696 9 15C9 15.5304 9.21071 16.0391 9.58579 16.4142C9.96086 16.7893 10.4696 17 11 17C11.5304 17 12.0391 16.7893 12.4142 16.4142C12.7893 16.0391 13 15.5304 13 15C13 14.4696 12.7893 13.9609 12.4142 13.5858C12.0391 13.2107 11.5304 13 11 13ZM17 15C16.7348 15 16.4804 15.1054 16.2929 15.2929C16.1054 15.4804 16 15.7348 16 16C16 16.2652 16.1054 16.5196 16.2929 16.7071C16.4804 16.8946 16.7348 17 17 17C17.2652 17 17.5196 16.8946 17.7071 16.7071C17.8946 16.5196 18 16.2652 18 16C18 15.7348 17.8946 15.4804 17.7071 15.2929C17.5196 15.1054 17.2652 15 17 15ZM22 16C21.7348 16 21.4804 16.1054 21.2929 16.2929C21.1054 16.4804 21 16.7348 21 17C21 17.2652 21.1054 17.5196 21.2929 17.7071C21.4804 17.8946 21.7348 18 22 18C22.2652 18 22.5196 17.8946 22.7071 17.7071C22.8946 17.5196 23 17.2652 23 17C23 16.7348 22.8946 16.4804 22.7071 16.2929C22.5196 16.1054 22.2652 16 22 16ZM12.5 19C12.1022 19 11.7206 19.158 11.4393 19.4393C11.158 19.7206 11 20.1022 11 20.5C11 20.8978 11.158 21.2794 11.4393 21.5607C11.7206 21.842 12.1022 22 12.5 22C12.8978 22 13.2794 21.842 13.5607 21.5607C13.842 21.2794 14 20.8978 14 20.5C14 20.1022 13.842 19.7206 13.5607 19.4393C13.2794 19.158 12.8978 19 12.5 19ZM19.5 20C19.1022 20 18.7206 20.158 18.4393 20.4393C18.158 20.7206 18 21.1022 18 21.5C18 21.8978 18.158 22.2794 18.4393 22.5607C18.7206 22.842 19.1022 23 19.5 23C19.8978 23 20.2794 22.842 20.5607 22.5607C20.842 22.2794 21 21.8978 21 21.5C21 21.1022 20.842 20.7206 20.5607 20.4393C20.2794 20.158 19.8978 20 19.5 20Z" fill="black"/>
</g>
</svg>
