<svg width="32" height="32" viewBox="0 0 32 32" fill="none" xmlns="http://www.w3.org/2000/svg">
<g id="copyright">
<path id="Vector" d="M16 3C8.83203 3 3 8.83203 3 16C3 23.168 8.83203 29 16 29C23.168 29 29 23.168 29 16C29 8.83203 23.168 3 16 3ZM16 5C22.0859 5 27 9.91406 27 16C27 22.0859 22.0859 27 16 27C9.91406 27 5 22.0859 5 16C5 9.91406 9.91406 5 16 5ZM15.9062 10C12.582 10 9.90625 12.6758 9.90625 16C9.90625 19.3242 12.582 22 15.9062 22C18.3047 22 20.3555 20.5625 21.3125 18.5312L19.5 17.6875C18.8555 19.0586 17.5078 20 15.9062 20C13.6289 20 11.9062 18.2773 11.9062 16C11.9062 13.7227 13.6289 12 15.9062 12C17.5078 12 18.8555 12.9414 19.5 14.3125L21.3125 13.4688C20.3555 11.4375 18.3047 10 15.9062 10Z" fill="black"/>
</g>
</svg>
