<svg width="32" height="32" viewBox="0 0 32 32" fill="none" xmlns="http://www.w3.org/2000/svg">
<g id="cotton-bureau">
<path id="Vector" d="M15.4004 3C8.70039 3 3 9 3 16C3 23 8.70078 29 15.3008 29H17.0996C22.1996 29 26.9004 25.6 28.9004 21H26.8008C25.0283 24.2651 21.6876 26.658 18 26.9648V25.1992C18 23.8909 18.5578 22.7211 19.5684 22.0215L19.5977 22.002L19.877 21.7793C20.3805 21.9185 20.9216 22 21.5 22C23.25 22 24.6898 21.3077 25.623 20.2578C26.5563 19.2079 27 17.8472 27 16.5C27 15.1528 26.5563 13.7921 25.623 12.7422C24.8374 11.8583 23.6892 11.2339 22.3027 11.0566C22.0942 10.2164 21.7195 9.41322 21.123 8.74219C20.1898 7.69226 18.75 7 17 7C15.25 7 13.8102 7.69226 12.877 8.74219C12.2805 9.41322 11.9058 10.2164 11.6973 11.0566C10.3108 11.2339 9.16262 11.8583 8.37695 12.7422C7.44368 13.7921 7 15.1528 7 16.5C7 17.8472 7.44368 19.2079 8.37695 20.2578C9.31023 21.3077 10.75 22 12.5 22C13.0784 22 13.6195 21.9185 14.123 21.7793L14.4023 22.002L14.4316 22.0215C15.4422 22.7211 16 23.8909 16 25.1992V27H15.4004C9.70039 27 5 22 5 16C5 10 9.70078 5 15.3008 5H17.0996C21.0996 5 24.8992 7.5 26.6992 11H29C27 6.4 22.2992 3 17.1992 3H15.4004ZM17 9C18.25 9 19.0602 9.43274 19.627 10.0703C19.8959 10.3729 20.1013 10.7345 20.248 11.125C19.0611 11.3689 18.0769 11.9547 17.377 12.7422C17.2392 12.8971 17.1165 13.0611 17 13.2285C16.8835 13.0611 16.7608 12.8971 16.623 12.7422C15.9231 11.9547 14.9389 11.3689 13.752 11.125C13.8987 10.7345 14.1041 10.3729 14.373 10.0703C14.9398 9.43274 15.75 9 17 9ZM11.5508 13.1055C11.6649 14.2476 12.0839 15.3656 12.877 16.2578C13.5769 17.0453 14.5611 17.6311 15.748 17.875C15.6013 18.2655 15.3959 18.6271 15.127 18.9297C14.5602 19.5673 13.75 20 12.5 20C11.25 20 10.4398 19.5673 9.87305 18.9297C9.30632 18.2921 9 17.4028 9 16.5C9 15.5972 9.30632 14.7079 9.87305 14.0703C10.2799 13.6126 10.8203 13.2677 11.5508 13.1055ZM22.4492 13.1055C23.1797 13.2677 23.7201 13.6126 24.127 14.0703C24.6937 14.7079 25 15.5972 25 16.5C25 17.4028 24.6937 18.2921 24.127 18.9297C23.5602 19.5673 22.75 20 21.5 20C20.25 20 19.4398 19.5673 18.873 18.9297C18.6041 18.6271 18.3987 18.2655 18.252 17.875C19.4389 17.6311 20.4231 17.0453 21.123 16.2578C21.9161 15.3656 22.3351 14.2476 22.4492 13.1055ZM13.5547 13.1387C14.2282 13.3109 14.7411 13.6362 15.127 14.0703C15.5586 14.5559 15.8361 15.1889 15.9453 15.8613C15.2718 15.6891 14.7589 15.3638 14.373 14.9297C13.9414 14.4441 13.6639 13.8111 13.5547 13.1387ZM20.4453 13.1387C20.3361 13.8111 20.0586 14.4441 19.627 14.9297C19.2411 15.3638 18.7282 15.6891 18.0547 15.8613C18.1639 15.1889 18.4414 14.5559 18.873 14.0703C19.2589 13.6362 19.7718 13.3109 20.4453 13.1387ZM17 19.7715C17.1165 19.9389 17.2392 20.1029 17.377 20.2578C17.5482 20.4504 17.7412 20.6265 17.9453 20.793C17.5728 21.1667 17.2776 21.6034 17 22.0469C16.7224 21.6034 16.4272 21.1667 16.0547 20.793C16.2588 20.6265 16.4518 20.4504 16.623 20.2578C16.7608 20.1029 16.8835 19.9389 17 19.7715Z" fill="black"/>
</g>
</svg>
