<svg width="32" height="32" viewBox="0 0 32 32" fill="none" xmlns="http://www.w3.org/2000/svg">
<g id="couch-solid">
<path id="Vector" d="M6 7C4.35547 7 3 8.35547 3 10V12.1875C1.84375 12.6055 1 13.707 1 15V26H3V24H29V26H31V15C31 13.707 30.1562 12.6055 29 12.1875V10C29 8.35547 27.6445 7 26 7H6ZM6 9H26C26.5547 9 27 9.44531 27 10V12.1875C25.8438 12.6055 25 13.707 25 15V17H7V15C7 13.707 6.15625 12.6055 5 12.1875V10C5 9.44531 5.44531 9 6 9ZM4 14C4.55469 14 5 14.4453 5 15V19H27V15C27 14.4453 27.4453 14 28 14C28.5547 14 29 14.4453 29 15V22H3V15C3 14.4453 3.44531 14 4 14Z" fill="black"/>
</g>
</svg>
