<svg width="32" height="32" viewBox="0 0 32 32" fill="none" xmlns="http://www.w3.org/2000/svg">
<g id="cpanel">
<g clip-path="url(#clip0)">
<path id="Vector" d="M6.11914 12C5.75914 12 5.49039 12.2191 5.40039 12.5391L3.66016 19L4.89063 18.9902C5.23063 18.9902 5.50961 18.7709 5.59961 18.4609L6.89063 13.7109H7.88086C8.30086 13.7109 8.69078 13.9892 8.80078 14.4492C8.92078 14.9892 8.50086 15.5703 7.88086 15.5703H7.36914C7.01914 15.5703 6.74039 15.7996 6.65039 16.0996L6.33008 17.2793H7.92969C9.78969 17.2793 10.8495 15.4891 10.5195 14.0391C10.2395 12.8091 9.17071 12 7.97071 12H6.11914ZM30.7207 12C30.4707 12 30.2592 12.1606 30.1992 12.3906L28.4199 19C29.4499 19 30.4102 18.3093 30.6602 17.2793L31.9902 12.4102C32.0502 12.2002 31.8902 12 31.6602 12H30.7207ZM11.3516 14L11.1895 14.623C11.0755 15.077 11.3983 15.4922 11.8613 15.4922H14.5742C14.7632 15.4922 14.6867 15.6913 14.6777 15.7383L14.2715 17.2324C14.2525 17.2984 14.2248 17.4785 14.0078 17.4785H12.3613C12.1063 17.4785 12.1063 17.1094 12.3613 17.1094H13.3828C13.7038 17.1094 13.9597 16.8926 14.0547 16.5996L14.2148 15.9844H11.9277C10.0757 15.9844 9.86839 18.9805 11.9004 18.9805L14.6113 18.9902C15.1403 18.9902 15.5868 18.6494 15.7188 18.1484L16.3809 15.7207C16.6079 14.8227 15.9261 14 15.0371 14H11.3516ZM2.50391 14.0098C1.41691 14.0098 0.422034 14.6705 0.0820341 15.9375C-0.333966 17.5255 0.877081 19 2.45508 19H3.04102L3.38086 17.7715C3.43786 17.5635 3.27613 17.3828 3.07813 17.3828H2.53907C1.37607 17.3828 1.36707 15.625 2.53907 15.625H3.41992C3.75092 15.625 4.00461 15.4172 4.09961 15.1152L4.39258 14.0098H2.50391ZM19.7813 14.0098V14.0176H17.5039L16.2656 18.6113C16.2086 18.8193 16.3674 19 16.5664 19H17.4551C17.6821 19 17.8903 18.8588 17.9473 18.6328L18.7598 15.6367H19.6953C20.2903 15.6367 20.7176 16.1844 20.5566 16.7324L20.0547 18.6035C19.9977 18.8115 20.1404 19 20.3574 19H21.2637C21.4807 19 21.6891 18.8579 21.7461 18.6309L22.1621 17.0801C22.5871 15.5211 21.4153 14.0098 19.7813 14.0098ZM24.9395 14.0117C24.0985 14.0117 23.3422 14.5784 23.1152 15.4004L22.6055 17.2715C22.3695 18.1035 23.0023 19.002 23.9473 19.002H27.0938C27.4148 19.002 27.6806 18.7832 27.7656 18.4902L28.0391 17.5078H24.5703C24.4003 17.5078 24.287 17.3463 24.334 17.1953L24.7129 15.7871C24.7509 15.6071 24.8821 15.5039 25.0801 15.5039H26.6309C26.7539 15.5039 26.8483 15.618 26.8203 15.75L26.7813 15.873C26.7523 15.967 26.6966 16.0059 26.6016 16.0059H25.5801C25.2491 16.0059 24.9862 16.2226 24.9102 16.5156L24.7402 17.1289H27.2637C27.7647 17.1289 28.2274 16.8169 28.3594 16.2969L28.5117 15.7383C28.7477 14.8403 28.0767 14.0097 27.1797 14.0117H24.9395Z" fill="black"/>
</g>
</g>
<defs>
<clipPath id="clip0">
<rect width="32" height="32" fill="white"/>
</clipPath>
</defs>
</svg>
