<svg width="32" height="32" viewBox="0 0 32 32" fill="none" xmlns="http://www.w3.org/2000/svg">
<g id="creative-commons">
<path id="Vector" d="M16 4C9.38281 4 4 9.38281 4 16C4 22.6172 9.38281 28 16 28C22.6172 28 28 22.6172 28 16C28 9.38281 22.6172 4 16 4ZM16 6C21.5352 6 26 10.4648 26 16C26 21.5352 21.5352 26 16 26C10.4648 26 6 21.5352 6 16C6 10.4648 10.4648 6 16 6ZM12 12C10.3555 12 9 13.3555 9 15V17C9 18.6445 10.3555 20 12 20C13.6445 20 15 18.6445 15 17H13C13 17.5664 12.5664 18 12 18C11.4336 18 11 17.5664 11 17V15C11 14.4336 11.4336 14 12 14C12.5664 14 13 14.4336 13 15H15C15 13.3555 13.6445 12 12 12ZM20 12C18.3555 12 17 13.3555 17 15V17C17 18.6445 18.3555 20 20 20C21.6445 20 23 18.6445 23 17H21C21 17.5664 20.5664 18 20 18C19.4336 18 19 17.5664 19 17V15C19 14.4336 19.4336 14 20 14C20.5664 14 21 14.4336 21 15H23C23 13.3555 21.6445 12 20 12Z" fill="black"/>
</g>
</svg>
