<svg width="32" height="32" viewBox="0 0 32 32" fill="none" xmlns="http://www.w3.org/2000/svg">
<g id="creative-commons-pd">
<path id="Vector" d="M16 3C8.832 3 3 8.832 3 16C3 23.168 8.832 29 16 29C23.168 29 29 23.168 29 16C29 8.832 23.168 3 16 3ZM16 5C22.065 5 27 9.935 27 16C27 17.2385 26.7835 18.4253 26.4043 19.5371L14 14.0156V14C14 12.897 14.897 12 16 12C17.103 12 18 12.897 18 14H20C20 11.794 18.206 10 16 10C14.0812 10 12.4778 11.359 12.0918 13.1641L6.4082 10.6348C8.29386 7.27764 11.8835 5 16 5ZM5.5957 12.4629L12 15.3145V18C12 20.206 13.794 22 16 22C17.9188 22 19.5222 20.641 19.9082 18.8359L25.5918 21.3652C23.7061 24.7224 20.1165 27 16 27C9.935 27 5 22.065 5 16C5 14.7615 5.21653 13.5747 5.5957 12.4629ZM14 16.2051L18.0332 18H18C18 19.103 17.103 20 16 20C14.897 20 14 19.103 14 18V16.2051Z" fill="black"/>
</g>
</svg>
