<svg width="32" height="32" viewBox="0 0 32 32" fill="none" xmlns="http://www.w3.org/2000/svg">
<g id="creative-commons-remix">
<path id="Vector" d="M16 3C8.832 3 3 8.832 3 16C3 23.168 8.832 29 16 29C23.168 29 29 23.168 29 16C29 8.832 23.168 3 16 3ZM16 5C22.065 5 27 9.935 27 16C27 22.065 22.065 27 16 27C9.935 27 5 22.065 5 16C5 9.935 9.935 5 16 5ZM14.498 9L11 10.3281V13.9531L11.0645 13.9785L10.998 14L8 15.1387V18.5156L11.002 20L14 18.5898V18.5918L20.502 21.0078L24 19.6777V16.0547L21 14.9395V11.418L14.498 9ZM19.7148 15.5273L22.0801 16.4062L20.498 17.0078L18.1348 16.1289L19.7148 15.5273ZM15 16.0273L20 17.8887V19.7539L15 17.8965V16.0273ZM23 17.127V18.9883L21 19.748V17.8867L23 17.127Z" fill="black"/>
</g>
</svg>
