<svg width="32" height="32" viewBox="0 0 32 32" fill="none" xmlns="http://www.w3.org/2000/svg">
<g id="creative-commons-nc">
<path id="Vector" d="M16 3C8.832 3 3 8.832 3 16C3 23.168 8.832 29 16 29C23.168 29 29 23.168 29 16C29 8.832 23.168 3 16 3ZM16 5C22.065 5 27 9.935 27 16C27 17.2385 26.7835 18.4253 26.4043 19.5371L18.0156 15.8027C17.9055 15.7015 17.794 15.6018 17.6699 15.5176C17.5102 15.4091 17.3392 15.3148 17.1602 15.2383C16.9811 15.1617 16.7938 15.1029 16.5996 15.0625C16.4959 15.0409 16.3864 15.0396 16.2793 15.0293L15.168 14.5352C15.1383 14.4879 15.0977 14.4492 15.0762 14.3965C15.027 14.276 15 14.1425 15 14C15 13.8575 15.027 13.724 15.0762 13.6035C15.1254 13.483 15.1977 13.3765 15.2871 13.2871C15.3765 13.1977 15.483 13.1254 15.6035 13.0762C15.724 13.027 15.8575 13 16 13C16.57 13 17 13.43 17 14H19C19 13.8387 18.9862 13.6797 18.9609 13.5254C18.9357 13.371 18.9 13.2217 18.8516 13.0762C18.5609 12.2029 17.87 11.5045 17 11.1895V10H15V11.1895C14.855 11.242 14.7141 11.3061 14.5801 11.3789C14.4461 11.4517 14.3182 11.5338 14.1973 11.625C14.0763 11.7162 13.9633 11.8162 13.8574 11.9238C13.6457 12.1391 13.4654 12.3846 13.3262 12.6543C13.2566 12.7891 13.1969 12.9306 13.1484 13.0762C13.094 13.2397 13.0601 13.4095 13.0352 13.584L6.4082 10.6348C8.29386 7.27764 11.8835 5 16 5ZM5.5957 12.4629L13.9844 16.1973C14.2364 16.4289 14.5218 16.6257 14.8398 16.7617C15.1146 16.8792 15.4132 16.941 15.7207 16.9707L16.832 17.4648C16.8617 17.5121 16.9023 17.5508 16.9238 17.6035C16.973 17.724 17 17.8575 17 18C17 18.4275 16.7579 18.7762 16.3965 18.9238C16.276 18.973 16.1425 19 16 19C15.8575 19 15.724 18.973 15.6035 18.9238C15.483 18.8746 15.3765 18.8023 15.2871 18.7129C15.1084 18.5341 15 18.285 15 18H13C13 18.1613 13.0138 18.3203 13.0391 18.4746C13.0643 18.629 13.1 18.7783 13.1484 18.9238C13.1969 19.0694 13.2566 19.2109 13.3262 19.3457C13.3958 19.4805 13.4757 19.6083 13.5645 19.7305C13.6532 19.8527 13.7516 19.9685 13.8574 20.0762C13.9633 20.1838 14.0763 20.2838 14.1973 20.375C14.3182 20.4662 14.4461 20.5483 14.5801 20.6211C14.7141 20.6939 14.855 20.758 15 20.8105V22H17V20.8105C18.015 20.443 18.7843 19.5551 18.9609 18.4746C18.964 18.4556 18.9621 18.4352 18.9648 18.416L25.5918 21.3652C23.7061 24.7224 20.1165 27 16 27C9.935 27 5 22.065 5 16C5 14.7615 5.21653 13.5747 5.5957 12.4629Z" fill="black"/>
</g>
</svg>
