<svg width="32" height="32" viewBox="0 0 32 32" fill="none" xmlns="http://www.w3.org/2000/svg">
<g id="creative-commons-zero">
<path id="Vector" d="M16 3C8.832 3 3 8.832 3 16C3 23.168 8.832 29 16 29C23.168 29 29 23.168 29 16C29 8.832 23.168 3 16 3ZM16 5C22.065 5 27 9.935 27 16C27 22.065 22.065 27 16 27C9.935 27 5 22.065 5 16C5 9.935 9.935 5 16 5ZM16 10C13.794 10 12 11.794 12 14V18C12 20.206 13.794 22 16 22C18.206 22 20 20.206 20 18V14C20 11.794 18.206 10 16 10ZM16 12C16.2565 12 16.4991 12.0543 16.7246 12.1426L14 17.875V14C14 12.897 14.897 12 16 12ZM18 14.1191V18C18 19.103 17.103 20 16 20C15.7422 20 15.4979 19.9466 15.2715 19.8574L18 14.1191Z" fill="black"/>
</g>
</svg>
