<svg width="32" height="32" viewBox="0 0 32 32" fill="none" xmlns="http://www.w3.org/2000/svg">
<g id="creative-commons-sampling">
<path id="Vector" d="M16 3C8.832 3 3 8.832 3 16C3 23.168 8.832 29 16 29C23.168 29 29 23.168 29 16C29 8.832 23.168 3 16 3ZM16 5C22.065 5 27 9.935 27 16C27 22.065 22.065 27 16 27C9.935 27 5 22.065 5 16C5 9.935 9.935 5 16 5ZM16.127 9C15.864 9 15.6459 9.20575 15.6289 9.46875L15.2773 14.9512L14.9648 10.3887C14.9458 10.1257 14.7278 9.92383 14.4648 9.92383C14.2018 9.92383 13.9858 10.1267 13.9668 10.3887L13.6523 14.8906L13.3594 11.3047C13.3374 11.0467 13.1223 10.8477 12.8633 10.8457H12.8594C12.6014 10.8457 12.3853 11.0418 12.3613 11.2988L11.9062 16.002L11.7188 14.9492C11.6818 14.7442 11.5205 14.5839 11.3145 14.5469C11.1055 14.5139 10.8999 14.6032 10.7949 14.7832L10.0801 16H8V17H10.3652C10.5422 17 10.7089 16.9059 10.7969 16.7539L10.9727 16.4531L11.5645 19.7422C11.6095 19.9872 11.8412 20.1583 12.0762 20.1543C12.3252 20.1433 12.5307 19.9502 12.5547 19.7012L12.8184 16.9727L13.1914 21.541C13.2134 21.801 13.4314 22 13.6914 22H13.6934C13.9554 21.998 14.1705 21.7962 14.1895 21.5352L14.4609 17.6484L14.7969 22.5332C14.8149 22.7962 15.0339 23 15.2969 23H15.2988C15.5628 22.999 15.7799 22.7943 15.7969 22.5312L16.1113 17.6035L16.3457 21.5293C16.3607 21.7903 16.5749 21.996 16.8359 22H16.8438C17.1018 22 17.3178 21.8039 17.3418 21.5449L17.6895 17.6895L17.9492 21.5332C17.9672 21.7932 18.1824 21.997 18.4434 22H18.4492C18.7072 22 18.9233 21.8049 18.9473 21.5469L19.4043 16.6367L19.7012 18.7988C19.7312 19.0208 19.9069 19.1966 20.1289 19.2266C20.3579 19.2536 20.5653 19.1366 20.6543 18.9316L21.498 17H24V16H21.1699C20.9709 16 20.7929 16.1188 20.7129 16.3008L20.4492 16.9023L19.8027 12.2012C19.7687 11.9492 19.5539 11.7795 19.2969 11.7695C19.0429 11.7755 18.8345 11.9716 18.8105 12.2246L18.5273 15.2656L18.2598 11.3125C18.2428 11.0525 18.0266 10.8487 17.7656 10.8457C17.4886 10.8347 17.2847 11.0408 17.2617 11.3008L16.9453 14.8164L16.627 9.4707C16.611 9.2067 16.3929 9.001 16.1289 9H16.127Z" fill="black"/>
</g>
</svg>
