<svg width="32" height="32" viewBox="0 0 32 32" fill="none" xmlns="http://www.w3.org/2000/svg">
<g id="creative-commons-sampling-plus">
<path id="Vector" d="M16 3C8.832 3 3 8.832 3 16C3 23.168 8.832 29 16 29C23.168 29 29 23.168 29 16C29 8.832 23.168 3 16 3ZM16 5C22.065 5 27 9.935 27 16C27 22.065 22.065 27 16 27C9.935 27 5 22.065 5 16C5 9.935 9.935 5 16 5ZM16.127 9C15.863 9 15.6459 9.20575 15.6289 9.46875L15.2773 13.1367L14.9629 10.3887C14.9449 10.1257 14.7278 9.92383 14.4648 9.92383C14.2018 9.92383 13.9838 10.1267 13.9648 10.3887L13.6504 13.625L13.3574 11.3047C13.3364 11.0467 13.1223 10.8477 12.8633 10.8457H12.8594C12.6024 10.8457 12.3863 11.0418 12.3613 11.2988L11.9062 16.002L11.7168 14.9492C11.6798 14.7442 11.5185 14.5839 11.3125 14.5469C11.1045 14.5139 10.9009 14.6042 10.7949 14.7832L10.0801 16H8V17H10.3652C10.5422 17 10.7069 16.9059 10.7969 16.7539L10.9727 16.4531L11.5645 19.7422C11.6085 19.9872 11.8391 20.1583 12.0781 20.1543C12.3281 20.1433 12.5307 19.9502 12.5547 19.7012L12.8184 18L13.1934 21.541C13.2144 21.801 13.4314 22 13.6914 22H13.6934C13.9554 21.998 14.1715 21.7962 14.1895 21.5352L14.4609 19.0449L14.7969 22.5332C14.8149 22.7962 15.0349 23 15.2969 23C15.5599 22.999 15.7779 22.7943 15.7949 22.5312L16.1094 19L16.3438 21.5293C16.3597 21.7903 16.5749 21.996 16.8359 22H16.8438C17.1018 22 17.3188 21.8029 17.3418 21.5449L17.6895 18.7188L17.9492 21.5332C17.9672 21.7932 18.1804 21.997 18.4414 22H18.4473C18.7053 22 18.9213 21.8049 18.9453 21.5469L19.4043 16.6367L19.7012 18.7988C19.7312 19.0208 19.906 19.1956 20.127 19.2266C20.354 19.2536 20.5653 19.1366 20.6543 18.9316L21.498 17H24V16H21.1719C20.9729 16 20.7948 16.1188 20.7148 16.3008L20.4512 16.9023L19.8047 12.2012C19.7707 11.9492 19.5478 11.7795 19.2988 11.7695C19.0448 11.7755 18.8365 11.9716 18.8125 12.2246L18.5273 14L18.2598 11.3125C18.2418 11.0525 18.0286 10.8487 17.7676 10.8457C17.5126 10.8347 17.2877 11.0408 17.2637 11.3008L16.9453 13L16.627 9.4707C16.611 9.2067 16.3939 9.001 16.1289 9H16.127ZM15 14H17V15H18V17H17V18H15V17H14V15H15V14Z" fill="black"/>
</g>
</svg>
