<svg width="32" height="32" viewBox="0 0 32 32" fill="none" xmlns="http://www.w3.org/2000/svg">
<g id="creative-commons-nc-eu">
<path id="Vector" d="M16 3C8.832 3 3 8.832 3 16C3 23.168 8.832 29 16 29C23.168 29 29 23.168 29 16C29 8.832 23.168 3 16 3ZM16 5C22.065 5 27 9.935 27 16C27 17.2385 26.7835 18.4253 26.4043 19.5371L17 15.3496V14H14.2812C14.3982 13.617 14.5428 13.273 14.7188 13C15.1597 12.316 15.6678 12 16.4688 12C17.2028 12 17.6283 12.3045 18.2812 13.0625L19.8125 11.75C19.0035 10.816 17.9058 10 16.4688 10C15.0077 10 13.7885 10.7812 13.0625 11.9062C12.7901 12.3289 12.5922 12.8117 12.4277 13.3145L6.4082 10.6348C8.29386 7.27764 11.8835 5 16 5ZM5.5957 12.4629L11 14.8691V15.5H12.0312C12.0232 15.668 12 15.832 12 16C12 16.168 12.0232 16.332 12.0312 16.5H11V18H12.2188C12.3907 18.762 12.6675 19.4797 13.0625 20.0938C13.7885 21.2188 15.0077 22 16.4688 22C17.8398 22 18.9765 21.3088 19.8125 20.3438L18.2812 19.0312C17.6552 19.7542 17.2697 20 16.4688 20C15.6678 20 15.1597 19.684 14.7188 19C14.5428 18.727 14.3993 18.383 14.2812 18H17V17.541L25.5918 21.3652C23.7061 24.7224 20.1165 27 16 27C9.935 27 5 22.065 5 16C5 14.7615 5.21653 13.5747 5.5957 12.4629Z" fill="black"/>
</g>
</svg>
