<svg width="32" height="32" viewBox="0 0 32 32" fill="none" xmlns="http://www.w3.org/2000/svg">
<g id="creative-commons-pd-alt">
<path id="Vector" d="M16 3C8.832 3 3 8.832 3 16C3 23.168 8.832 29 16 29C23.168 29 29 23.168 29 16C29 8.832 23.168 3 16 3ZM16 5C22.065 5 27 9.935 27 16C27 22.065 22.065 27 16 27C9.935 27 5 22.065 5 16C5 9.935 9.935 5 16 5ZM9 12V20H11V18H13C14.654 18 16 16.654 16 15C16 13.346 14.654 12 13 12H9ZM17 12V20H20.5C22.43 20 24 18.206 24 16C24 13.794 22.43 12 20.5 12H17ZM11 14H13C13.551 14 14 14.448 14 15C14 15.552 13.551 16 13 16H11V14ZM19 14H20.5C21.313 14 22 14.916 22 16C22 17.084 21.313 18 20.5 18H19V14Z" fill="black"/>
</g>
</svg>
