<svg width="32" height="32" viewBox="0 0 32 32" fill="none" xmlns="http://www.w3.org/2000/svg">
<g id="creative-commons-nc-jp">
<path id="Vector" d="M16 3C8.832 3 3 8.832 3 16C3 23.168 8.832 29 16 29C23.168 29 29 23.168 29 16C29 8.832 23.168 3 16 3ZM16 5C22.065 5 27 9.935 27 16C27 17.2385 26.7835 18.4253 26.4043 19.5371L17.5527 15.5957L21 11H18.625L16 14.3125L13.5312 11H11.1562L13.125 13.625L6.4082 10.6348C8.29386 7.27764 11.8835 5 16 5ZM5.5957 12.4629L13 15.7598V18H15V19H13V21H15V22H17V21H19V19H17V18H18.0332L25.5918 21.3652C23.7061 24.7224 20.1165 27 16 27C9.935 27 5 22.065 5 16C5 14.7615 5.21653 13.5747 5.5957 12.4629Z" fill="black"/>
</g>
</svg>
