<svg width="32" height="32" viewBox="0 0 32 32" fill="none" xmlns="http://www.w3.org/2000/svg">
<g id="creative-commons-by">
<path id="Vector" d="M16 3C8.85455 3 3 8.85455 3 16C3 23.1455 8.85455 29 16 29C23.1455 29 29 23.1455 29 16C29 8.85455 23.1455 3 16 3ZM16 5C22.0545 5 27 9.94545 27 16C27 22.0545 22.0545 27 16 27C9.94545 27 5 22.0545 5 16C5 9.94545 9.94545 5 16 5ZM16 8C14.9 8 14 8.9 14 10C14 11.1 14.9 12 16 12C17.1 12 18 11.1 18 10C18 8.9 17.1 8 16 8ZM16 13C14.3 13 13 14.3 13 16V19L14 20V24H18V20L19 19V16C19 14.3 17.7 13 16 13Z" fill="black"/>
</g>
</svg>
