<svg width="32" height="32" viewBox="0 0 32 32" fill="none" xmlns="http://www.w3.org/2000/svg">
<g id="critical-role">
<path id="Vector" d="M16.0137 3.36328C15.4767 3.65928 6.29449 8.89792 5.14649 9.54492C5.05149 9.58692 4.99396 9.68411 5.00196 9.78711C5.00396 11.1281 5.00391 22.2383 5.00391 22.2812C4.99891 22.3482 5.03471 22.4124 5.09571 22.4414C5.10271 22.4454 11.961 26.3847 15.877 28.6387H16.0254C16.5714 28.3277 25.777 23.0803 26.832 22.4883C26.942 22.4373 27.0071 22.3241 26.9981 22.2031C26.9941 18.0831 26.9941 13.9627 26.9981 9.84375C26.9981 9.69075 26.9644 9.57753 26.8164 9.51953C26.7894 9.50853 16.1116 3.37028 16.0996 3.36328H16.0137ZM16.3555 4.27344C19.5855 6.12944 22.8023 7.97508 26.0313 9.83008C25.6633 9.97408 20.9523 11.7441 20.9473 11.7441C20.9113 11.7571 20.8981 11.7755 20.9141 11.8145C20.9511 11.9055 20.9866 11.9978 21.0176 12.0918C21.0346 12.1448 21.0583 12.1558 21.1113 12.1348C21.2333 12.0868 26.247 10.2008 26.332 10.1758V21.5508C26.329 21.5478 22.8747 15.5576 22.5137 14.9336C22.4607 14.8426 22.4584 14.8423 22.3594 14.8613C22.0094 14.9303 22.1413 14.8986 22.0293 14.9316C23.3623 17.2436 24.6991 19.5608 26.0391 21.8828H16.8223C16.7623 21.8828 16.7285 21.8777 16.7305 21.8027C16.7305 21.7977 16.6875 20.4835 16.6875 20.4785C16.6885 20.4225 16.6663 20.4051 16.6133 20.4121C16.2283 20.4811 15.8352 20.4867 15.4492 20.4277C15.3952 20.4187 15.3809 20.4412 15.3809 20.4902V21.0352C15.3809 21.0712 15.3741 21.0978 15.3301 21.0918C14.4821 20.9678 14.653 21.1009 13.293 19.4609C13.159 19.3029 13.0401 19.1346 12.9121 18.9746C12.9091 18.9726 12.9063 18.9698 12.9043 18.9668C12.8783 18.9358 12.8821 18.8912 12.9121 18.8652C13.3311 18.3592 13.6954 17.9759 13.6524 17.2559C13.6264 16.8159 13.4152 16.476 13.0332 16.248C12.5412 15.955 11.9296 16.0098 10.2676 16.0098C10.0816 16.0098 10.0377 16.199 10.1797 16.248C10.2367 16.267 10.3521 16.2634 10.4121 16.2754C10.6601 16.3234 10.6777 16.4094 10.6777 16.9434C10.6817 20.4194 10.6871 20.1893 10.6231 20.8633C10.5981 21.1223 10.4569 21.044 10.2949 21.082C10.2479 21.089 10.2083 21.1239 10.1953 21.1699C10.1783 21.2339 10.2153 21.2994 10.2793 21.3164C10.3813 21.3464 11.8634 21.3413 11.9414 21.3223C12.1074 21.2803 12.071 21.0911 11.916 21.0781C11.545 21.0481 11.4635 21.0578 11.4375 20.8418C11.3955 20.4768 11.4027 20.5245 11.3887 19.2305C11.3877 19.1405 11.3906 19.1406 11.4766 19.1406C12.1336 19.1406 12.1897 19.1058 12.3027 19.2578C12.6597 19.7408 13.0188 20.2222 13.3828 20.6992C13.7398 21.1672 14.0695 21.3232 14.4375 21.3262C15.4605 21.3352 15.3438 21.309 15.3438 21.375V21.8125C15.3428 21.8825 15.3308 21.8945 15.2598 21.8945H6.05469C5.96269 21.8945 5.95219 21.9069 5.99219 21.8379C7.52619 19.1749 7.28927 19.5855 9.32227 16.0645C9.35627 16.0055 9.35221 15.9981 9.28321 15.9941C8.98121 15.9741 8.91399 15.9313 8.83399 16.0703C8.83099 16.0743 5.71098 21.4788 5.66798 21.5488V10.1738C5.79798 10.2098 6.98524 10.668 6.99024 10.668C7.10524 10.711 7.13658 10.7101 7.51758 10.4141L5.99415 9.83984C5.99215 9.83384 5.98829 9.82827 5.98829 9.82227C9.18229 8.00227 12.3763 6.18328 15.5723 4.36328L15.584 4.37109L15.5801 4.37305C14.1671 6.81705 12.7492 9.26852 11.3262 11.7285C11.4932 11.7285 11.6382 11.7326 11.7832 11.7246C11.8722 11.7186 15.5491 5.22595 15.9981 4.50195C16.4181 5.21595 19.9979 11.4365 20.0469 11.5195C20.1129 11.6345 20.1569 11.6689 20.6289 11.7129L20.6426 11.6973L16.3555 4.27344ZM15.9277 7.62891C15.5515 7.66991 15.2081 7.97281 15.2188 8.42969C15.2258 8.74169 15.3803 8.97123 15.6563 9.11523C15.7103 9.13823 15.7433 9.19491 15.7363 9.25391C15.7163 9.59791 15.7215 9.35589 15.6875 10.7129C15.6855 10.7999 15.6827 10.8027 15.5977 10.8027C14.0907 10.7917 14.0358 10.811 13.7598 10.707C13.6618 10.67 13.6099 10.6968 13.5899 10.8008C13.5339 11.0978 13.4797 11.3935 13.4277 11.6895C13.4187 11.7435 13.5021 11.9827 13.6211 11.6777C13.7921 11.2397 14.0104 11.2838 15.6074 11.2578C15.6434 11.2578 15.6758 11.2615 15.6738 11.3145C15.6388 12.0175 15.4952 17.0267 15.4902 17.3047C15.4962 17.3677 15.4546 17.4245 15.3926 17.4355C14.8186 17.6185 14.1802 18.2814 14.4102 19.2324C14.7002 20.4334 15.9597 20.3869 16.0957 20.3809C17.5487 20.3139 17.7566 19.1289 17.6856 18.5469C17.6346 18.1289 17.4333 17.8077 17.0723 17.5938C16.9333 17.5188 16.7896 17.4525 16.6426 17.3945C16.6086 17.3785 16.582 17.3624 16.582 17.3184C16.582 17.3124 16.3984 11.297 16.3984 11.291C16.3984 11.256 16.4123 11.2441 16.4473 11.2441C18.6853 11.3591 18.1319 11.3599 18.3789 11.8379C18.4139 11.9069 18.4628 11.9137 18.5078 11.8457C18.5528 11.7777 18.5488 10.8429 18.5488 10.8379C18.5458 10.7529 18.5049 10.7272 18.4219 10.7422C18.3319 10.7632 18.2404 10.7762 18.1484 10.7832L18.1504 10.7871C17.5834 10.8011 16.4542 10.8066 16.4492 10.8066C16.4092 10.8066 16.3887 10.796 16.3887 10.752C16.3347 9.05595 16.3399 9.29658 16.3399 9.26758C16.3299 9.18058 16.3722 9.09669 16.4492 9.05469C16.8562 8.79569 16.9083 8.21633 16.5703 7.86133C16.3914 7.67308 16.1535 7.6043 15.9277 7.62891ZM16 8.04297C16.496 8.04397 16.4731 8.78334 15.9961 8.77734C15.5191 8.77134 15.515 8.04492 16 8.04492V8.04297ZM9.00196 10.2617C8.78957 10.2731 8.56507 10.3017 8.32032 10.3574C6.84832 10.6914 6.20094 12.0511 6.33594 13.3281C6.66394 16.4941 10.8674 15.8573 10.9434 15.4043C10.9444 15.3943 11.0233 14.995 11.1133 14.459C11.1173 14.442 11.1172 14.4252 11.1152 14.4082C11.1052 14.3352 11.0379 14.283 10.9649 14.293C10.6769 14.306 11.0833 15.2037 9.73829 15.3027C7.90729 15.4377 7.05337 13.972 7.06837 12.791C7.10637 9.92302 10.5989 10.4301 10.7539 11.5371C10.7729 11.6771 10.7492 11.9805 10.9492 11.8965C10.9962 11.8765 11.0273 11.8322 11.0293 11.7812C11.0333 11.7402 11.0818 10.8857 11.0918 10.6387C11.0978 10.5017 11.0481 10.4564 10.9121 10.4414C10.1786 10.3582 9.63913 10.2277 9.00196 10.2617ZM22.3164 11.8125C22.2937 11.8165 22.2723 11.8291 22.2578 11.8496C22.1908 11.9206 22.2447 11.8243 21.3477 13.9043C21.2827 14.0573 21.2185 14.2055 21.1445 14.3535C21.0895 14.4635 20.9765 14.5294 20.8535 14.5234C20.7375 14.5264 20.7466 14.6816 20.8906 14.6816H22.1914C22.3824 14.6816 22.3062 14.526 22.1582 14.498C21.9442 14.456 21.4936 14.5496 21.5566 14.3906C21.6276 14.2076 21.7013 14.0267 21.7793 13.8477C21.7963 13.8197 21.8264 13.8009 21.8594 13.7969C22.0994 13.7839 22.3401 13.781 22.5801 13.793C22.6261 13.79 22.6677 13.8193 22.6797 13.8633C22.7457 14.0313 22.8118 14.2012 22.8828 14.3672C22.9748 14.5822 22.7754 14.6126 22.9004 14.6426C22.9584 14.6606 23.0191 14.6737 23.0801 14.6797C23.2231 14.6837 22.546 14.6724 25.584 14.6934C25.854 14.6954 25.7857 14.5356 25.8457 14.1836L25.8418 14.1816C25.8618 14.0666 25.7383 13.9064 25.6563 14.1914C25.6033 14.3814 25.5212 14.3804 24.8672 14.3594C24.7922 14.3654 24.722 14.3123 24.707 14.2383C24.684 14.1243 24.6904 12.2851 24.6934 12.2051C24.6924 12.1991 24.6934 12.1915 24.6934 12.1855C24.6964 12.1155 24.7542 12.0615 24.8242 12.0645C25.1472 12.0305 24.9998 11.8945 24.8848 11.8945C23.7698 11.8895 23.8245 11.8923 23.8145 11.9023C23.6925 12.0223 23.8054 12.0527 23.8184 12.0527C23.9764 12.0787 24.0918 12.0437 24.0918 12.2637C24.0928 14.3577 24.0938 14.2088 24.0898 14.3008C24.0828 14.4578 24.0628 14.5177 23.8848 14.5117C23.8538 14.5117 23.6693 14.5451 23.5703 14.4121C23.3123 14.0561 22.5493 12.0146 22.4043 11.8496C22.3983 11.8416 22.3918 11.8341 22.3828 11.8281C22.3623 11.8136 22.3392 11.8085 22.3164 11.8125ZM19.8242 11.8438C19.4032 11.8405 18.9119 11.9284 18.5664 12.2754C18.0804 12.7624 17.8693 13.9617 18.9063 14.5137C19.5623 14.8627 20.4405 14.6897 20.5195 14.6797C20.8435 14.6377 20.8145 14.0558 20.8145 14.0508C20.7715 13.9058 20.7212 13.9321 20.6602 13.9961C20.6092 14.0491 20.6123 14.2801 20.3203 14.3711C19.9813 14.4771 19.1845 14.4524 18.8945 13.6914C18.6155 12.9624 18.9393 11.8172 20.2363 12.1992C20.4593 12.2652 20.5904 12.4134 20.6094 12.6504C20.6194 12.7684 20.7424 12.7741 20.7754 12.6641C20.7854 12.6301 20.7867 12.4475 20.8027 12.1855C20.8117 12.0425 20.7773 11.9851 20.6563 11.9551H20.6543C20.5948 11.9401 20.2452 11.847 19.8242 11.8438ZM15.0508 11.9004L14.1094 11.9043C13.9464 11.9583 13.9476 12.0533 14.1426 12.0703C14.2846 12.0823 14.3027 12.1272 14.3027 12.4062C14.2937 14.6423 14.2943 14.2412 14.2793 14.4102C14.2773 14.4692 14.2289 14.5166 14.1699 14.5156C13.9859 14.5336 13.8126 14.4964 13.6816 14.3594C13.1696 13.8234 12.8751 13.4457 12.8281 13.3887C12.9341 13.2747 13.0338 13.1676 13.1328 13.0566C13.5668 12.5626 13.1732 11.9925 12.7402 11.9395C12.3742 11.8945 11.8418 11.8993 11.2578 11.9043C11.1588 11.9053 10.9665 12.0343 11.3125 12.0703C11.4505 12.0843 11.4766 12.1455 11.4766 12.3145C11.4756 12.4175 11.4628 13.0239 11.4668 14.2949C11.4688 14.6429 11.2947 14.4127 11.1777 14.5977C11.1947 14.6537 11.2496 14.6905 11.3086 14.6855H12.2695C12.456 14.6831 12.4564 14.5068 12.2246 14.5117C12.0276 14.5177 12.0704 14.4536 12.0274 13.6406C12.0224 13.5426 12.3526 13.5502 12.4316 13.6582C12.9616 14.3802 13.1 14.6855 13.627 14.6855C14.139 14.6825 14.6501 14.6876 15.1621 14.6836C15.3531 14.6816 15.2851 14.5156 15.1621 14.5156C14.9231 14.5196 14.9152 14.4492 14.9102 14.4082C14.8932 14.2802 14.8776 14.4639 14.8906 12.2949C14.8936 12.1159 14.9099 12.0794 15.0879 12.0664C15.0919 12.0664 15.0996 12.0684 15.0996 12.0664C15.2726 11.9254 15.0668 11.9004 15.0508 11.9004ZM16.877 11.9043C16.79 11.9063 16.7304 11.9976 16.8574 12.0586C16.9294 12.0926 17.0899 12.0166 17.0899 12.2676C17.0819 14.5946 17.1439 14.5156 16.9219 14.5156C16.7549 14.5166 16.7319 14.6816 16.9219 14.6816C17.3129 14.6846 17.6683 14.6855 17.9883 14.6855C18.1163 14.6845 18.1212 14.5206 17.9922 14.5156C17.8372 14.5096 17.6983 14.5408 17.6953 14.3398H17.6934C17.6564 12.2578 17.6953 12.1877 17.6953 12.1777C17.7093 12.0417 17.8514 12.0807 17.9004 12.0547C18.0134 11.9947 17.9699 11.9451 17.9219 11.9141C17.8739 11.8841 16.941 11.9043 16.877 11.9043ZM12.1406 12.1836C12.32 12.1457 12.6897 12.2212 12.752 12.6367C12.77 12.7527 12.8224 13.3659 12.1504 13.2969C12.0634 13.2879 12.0449 13.2589 12.0449 13.1699C12.0419 12.9279 12.045 12.474 12.043 12.252C12.0425 12.2225 12.0808 12.1962 12.1406 12.1836ZM22.2246 12.7031L22.5254 13.4844H21.916C22.019 13.2244 22.1176 12.9741 22.2246 12.7031ZM11.7402 16.377C11.925 16.381 12.1224 16.4152 12.1719 16.4297C12.9189 16.6477 13.0831 17.6337 12.7871 18.3477C12.5581 18.8937 12.0915 18.765 11.5215 18.707C11.4035 18.697 11.3867 18.6785 11.3867 18.5605C11.3867 17.0785 11.3878 16.9019 11.3848 16.5059C11.3833 16.4004 11.5555 16.373 11.7402 16.377ZM22.4824 17.1621C22.0344 17.2131 22.4195 17.1854 20.6465 17.1934C20.4585 17.1944 20.4668 17.3613 20.6758 17.3613L20.6797 17.3652C20.8697 17.3652 20.9911 17.1234 20.8711 19.8984C20.8631 20.0514 20.722 20.0164 20.668 20.0254C20.548 20.0474 20.5223 20.1703 20.6563 20.1953C20.6893 20.2013 20.5605 20.2069 22.3945 20.2109C22.6165 20.2109 22.6231 20.1098 22.6231 20.0918C22.6421 19.9328 22.6636 19.7732 22.6856 19.6152C22.7016 19.4992 22.5683 19.4709 22.5273 19.5879C22.4273 19.8699 22.5378 19.8931 21.7168 19.8691C21.4868 19.8621 21.5254 19.6714 21.5254 19.0664C21.5254 18.6444 21.4011 18.7275 22.1621 18.7715C22.3451 18.7825 22.2877 18.9342 22.3457 19.0332C22.3797 19.0922 22.4467 19.0816 22.4727 19.0176C22.4927 18.9666 22.5293 18.4651 22.5293 18.4551C22.5403 18.2801 22.4019 18.3592 22.3789 18.3672C22.1129 18.4592 21.7575 18.4314 21.6035 18.4434C21.5235 18.4494 21.5234 18.4501 21.5234 18.3691V17.5742C21.5234 17.4992 21.5255 17.495 21.6035 17.498C22.2695 17.529 22.358 17.488 22.377 17.75C22.387 17.886 22.5329 17.8648 22.5449 17.7578C22.5619 17.5908 22.5808 17.4229 22.5938 17.2559C22.5998 17.1749 22.5654 17.1531 22.4824 17.1621ZM19.2578 17.1914C19.0048 17.1904 18.1892 17.1924 18.1172 17.1934C18.0012 17.1934 17.9776 17.3326 18.0996 17.3516C18.2416 17.3736 18.3679 17.3492 18.3809 17.5352C18.3919 17.6912 18.4123 19.1115 18.3633 19.8945C18.3543 20.0525 18.2084 20.0092 18.1094 20.0332C18.0284 20.0522 18.0359 20.1882 18.1309 20.1992L20.0156 20.209C20.0746 20.209 20.2885 20.2697 20.2715 19.5977C20.2715 19.5857 20.2267 19.4339 20.1367 19.5449C19.9467 19.7769 20.293 19.9174 19.207 19.8574C19.094 19.8514 19.0421 19.7907 19.0371 19.6777C19.0081 19.0657 19.0176 17.7299 19.0176 17.6309C19.0176 17.3399 19.1366 17.3773 19.2656 17.3613C19.4386 17.3403 19.4198 17.1914 19.2578 17.1914ZM15.4707 17.6758C15.4847 17.7748 15.42 19.5221 15.416 19.6211C15.398 20.0341 16.6772 20.241 16.6602 19.75C16.6592 19.727 16.6074 17.9234 16.6074 17.8184V17.8164L16.625 17.8105C17.231 18.2805 17.1346 19.3533 16.8926 19.7363C16.6626 20.1113 16.1911 20.2609 15.7871 20.0859C14.7571 19.6619 14.7747 18.0428 15.4707 17.6758ZM16.8184 22.3105C26.3354 22.3145 25.7723 22.3032 25.7793 22.3242C25.0183 22.7652 16.8742 27.3959 16.0352 27.8789C15.9862 27.9119 15.9221 27.9119 15.8731 27.8789H15.8691C14.9971 27.3759 6.32232 22.3925 6.19532 22.3125H15.2266C15.3256 22.3125 15.3262 22.3142 15.3262 22.4102C15.2902 23.9832 15.26 24.6583 15.252 24.7793C15.243 24.9623 15.2756 25.1455 15.3496 25.3125C15.5616 25.8195 15.7637 26.3337 15.9707 26.8438C16.0207 26.9568 16.0343 26.9327 16.0703 26.8477C16.7553 25.2317 16.7093 25.3459 16.7363 25.2559C16.7763 25.1319 16.7977 25.004 16.8027 24.875C16.8047 24.585 16.7422 22.3937 16.7422 22.3887C16.7402 22.3297 16.7584 22.3105 16.8184 22.3105Z" fill="black"/>
</g>
</svg>
