<svg width="32" height="32" viewBox="0 0 32 32" fill="none" xmlns="http://www.w3.org/2000/svg">
<g id="crosshairs-solid">
<path id="Vector" d="M15 3V5.0625C9.73438 5.53906 5.53906 9.73438 5.0625 15H3V17H5.0625C5.53906 22.2656 9.73438 26.4609 15 26.9375V29H17V26.9375C22.2656 26.4609 26.4609 22.2656 26.9375 17H29V15H26.9375C26.4609 9.73438 22.2656 5.53906 17 5.0625V3H15ZM15 7.03125V9H17V7.03125C21.1914 7.48438 24.5156 10.8086 24.9688 15H23V17H24.9688C24.5156 21.1914 21.1914 24.5156 17 24.9688V23H15V24.9688C10.8086 24.5156 7.48438 21.1914 7.03125 17H9V15H7.03125C7.48438 10.8086 10.8086 7.48438 15 7.03125Z" fill="black"/>
</g>
</svg>
