<svg width="32" height="32" viewBox="0 0 32 32" fill="none" xmlns="http://www.w3.org/2000/svg">
<g id="crow-solid">
<path id="Vector" d="M7 6C4.791 6 3 7.791 3 10V15C3 19.0786 6.05488 22.4386 10 22.9316V27H12V23H13H14V27H16V23H22.3848L25.4629 25H29.4629L11 13V10H15C15 8.343 12.796 7 11 7H9.61914C8.91591 6.38556 8.00712 6 7 6ZM7 8C7.20182 8 7.39237 8.03987 7.57617 8.0957C7.37095 8.19258 7.20478 8.35639 7.10497 8.56021C7.00516 8.76402 6.97765 8.99573 7.02695 9.21725C7.07625 9.43878 7.19944 9.63694 7.37627 9.77919C7.5531 9.92144 7.77306 9.9993 8 10C8.18988 9.99973 8.37576 9.9454 8.5359 9.84336C8.69604 9.74133 8.82382 9.59581 8.9043 9.42383C8.96013 9.60763 9 9.79818 9 10V13V14.0859L9.91016 14.6758L19.6387 21H13H11C7.692 21 5 18.308 5 15V10C5 8.897 5.897 8 7 8Z" fill="black"/>
</g>
</svg>
