<svg width="32" height="32" viewBox="0 0 32 32" fill="none" xmlns="http://www.w3.org/2000/svg">
<g id="crutch-solid">
<path id="Vector" d="M19.4688 3.99996C19.3125 3.98824 19.1523 4.00778 19 4.03121C18.3867 4.13278 17.832 4.5234 17.5312 5.12496L17.0312 6.06246V6.09371C16.7734 6.62887 16.7969 7.24996 17.0312 7.78121L15.9688 8.84371C14.5586 10.2539 13.5781 12.0039 13.0938 13.9375L12.375 16.7812L11.125 18L11.8438 18.7187L7.3125 23.2812L6.4375 23.4062L5 24.8437L7.15625 27L8.59375 25.5625L8.71875 24.6875L13.2812 20.1562L14 20.875L15.2188 19.625L18.0625 18.9062C19.9961 18.4218 21.7461 17.4414 23.1562 16.0312L24.2188 14.9687C24.75 15.1914 25.3672 15.1992 25.9062 14.9375H25.9375L26.875 14.4687C28.082 13.8672 28.3594 12.2031 27.4062 11.25L27.375 11.1875L20.9375 4.78121L20.75 4.59371C20.3906 4.23434 19.9336 4.03121 19.4688 3.99996ZM19.3125 5.99996C19.3164 6.00387 19.3359 5.99215 19.3438 5.99996L26 12.6562C26.0078 12.664 25.9961 12.6836 26 12.6875L25.0312 13.1562C25.0234 13.1601 25.0078 13.164 25 13.1562L18.8438 6.99996C18.8359 6.99215 18.8398 6.98043 18.8438 6.96871L19.3125 5.99996ZM18.3125 9.31246L22.6875 13.6875L21.75 14.5937C21.5703 14.7734 21.3789 14.9297 21.1875 15.0937L16.9062 10.8125C17.0703 10.6211 17.2266 10.4297 17.4062 10.25L18.3125 9.31246ZM15.7812 12.5312L19.4688 16.2187C18.8594 16.5312 18.2305 16.8007 17.5625 16.9687L16.0938 17.3437L16.7188 16.7187L15.2812 15.2812L14.6562 15.9062L15.0312 14.4375C15.1992 13.7695 15.4688 13.1406 15.7812 12.5312Z" fill="black"/>
</g>
</svg>
