<svg width="32" height="32" viewBox="0 0 32 32" fill="none" xmlns="http://www.w3.org/2000/svg">
<g id="css3">
<path id="Vector" d="M8.21875 5L8.0625 5.8125L7.5625 8.6875L7.34375 9.875H21.4688L21.1562 11.6875H7.03125L6.875 12.5L6.375 15.375L6.15625 16.5312H20.2812L19.5625 20.5938L14.3438 23L10.25 20.75L10.4688 19.5312L10.6875 18.375H5.8125L5.6875 19.1875L5 23L4.84375 23.75L5.53125 24.0938L13.3438 27.9062L13.75 28.0938L14.1562 27.9375L23.3125 24.0938L23.8125 23.9062L23.9375 23.3438L27 6.1875L27.2188 5H8.21875ZM9.875 7H24.8125L22.0625 22.4688L13.7812 25.875L7.09375 22.625L7.5 20.375H8.28125L8.03125 21.8125L8.65625 22.1562L13.8125 25L14.25 25.25L14.7188 25.0312L20.875 22.1875L21.3438 21.9688L21.4375 21.4375L22.4688 15.7188L22.6875 14.5312H8.5625L8.6875 13.6875H22.8438L22.9688 12.8438L23.6562 9.03125L23.875 7.875H9.75L9.875 7Z" fill="black"/>
</g>
</svg>
