<svg width="32" height="32" viewBox="0 0 32 32" fill="none" xmlns="http://www.w3.org/2000/svg">
<g id="cut-solid">
<path id="Vector" d="M19.6562 4.31253C18.8828 4.40628 18.1953 4.95315 17.9688 5.75003L15.3125 15.0625L11.9688 16.0313C11.7305 14.336 10.2578 13 8.5 13C6.57812 13 5 14.5782 5 16.5C5 18.4219 6.57812 20 8.5 20C9.78906 20 10.9258 19.2696 11.5312 18.2188L14.6562 17.3438L13.7812 20.4688C12.7305 21.0742 12 22.211 12 23.5C12 25.4219 13.5781 27 15.5 27C17.4219 27 19 25.4219 19 23.5C19 21.7422 17.6641 20.2696 15.9688 20.0313L20.4375 4.37503C20.1719 4.30081 19.9141 4.28128 19.6562 4.31253ZM27.625 11.5625L18.9062 14.0313L18.25 16.3125L26.25 14.0313C27.3125 13.7266 27.9297 12.625 27.625 11.5625ZM8.5 15C9.33984 15 10 15.6602 10 16.5C10 17.3399 9.33984 18 8.5 18C7.66016 18 7 17.3399 7 16.5C7 15.6602 7.66016 15 8.5 15ZM15.5 22C16.3398 22 17 22.6602 17 23.5C17 24.3399 16.3398 25 15.5 25C14.6602 25 14 24.3399 14 23.5C14 22.6602 14.6602 22 15.5 22Z" fill="black"/>
</g>
</svg>
