<svg width="32" height="32" viewBox="0 0 32 32" fill="none" xmlns="http://www.w3.org/2000/svg">
<g id="cuttlefish">
<path id="Vector" d="M17 3C9.831 3 4 8.831 4 16C4 23.169 9.832 29 17 29C20.641 29 24.017 27.535 26.502 24.875L27.377 23.9395L26.3066 23.2324C23.2216 20.4684 21.9382 17.495 21.7852 17.123C20.6192 18.684 18.789 20 17 20C14.791 20 13 18.209 13 16C13 13.791 14.791 12 17 12C18.793 12 20.6279 13.3207 21.7949 14.8867C21.9319 14.5797 23.6786 10.7356 26.3066 8.76758L27.377 8.06055L26.502 7.125C24.015 4.465 20.641 3 17 3ZM17 5C19.751 5 22.3228 5.98873 24.3398 7.80273C23.0688 8.94973 22.0389 10.37 21.2949 11.582C20.0729 10.667 18.59 10 17 10C13.692 10 11 12.692 11 16C11 19.308 13.692 22 17 22C18.591 22 20.0749 21.3301 21.2969 20.4141C22.0049 21.5151 23.01 22.8431 24.375 24.1641C22.353 25.9991 19.767 27 17 27C10.935 27 6 22.065 6 16C6 9.935 10.934 5 17 5Z" fill="black"/>
</g>
</svg>
