<svg width="32" height="32" viewBox="0 0 32 32" fill="none" xmlns="http://www.w3.org/2000/svg">
<g id="d-and-d">
<path id="Vector" d="M12.9121 5.00194C12.6034 4.99231 12.2828 5.0142 11.9648 5.0742C10.8568 5.2842 10.4209 5.73081 10.0449 6.04881C10.0239 5.79581 10.0918 5.54205 10.1738 5.28905C9.19583 5.98505 8.59875 6.9225 8.34375 8.1035C8.21375 7.7985 8.17511 7.49377 8.16211 7.17577C7.69911 7.79477 7.58728 8.50708 7.61328 9.24608C7.64328 10.1441 7.88945 10.9642 8.56445 11.6172C8.36945 10.8182 8.49061 10.058 8.84961 9.29295C9.16061 10.32 9.77675 11.0621 10.7188 11.5351C10.7238 11.5091 10.7266 11.5013 10.7266 11.4883C10.7266 11.4663 10.7267 11.4409 10.7227 11.4199C10.6317 10.8189 10.6831 10.2218 10.8301 9.6328C10.8471 9.5808 10.8391 9.52083 10.8301 9.46483C10.6921 8.76883 10.8097 8.12878 11.3027 7.59178C11.9207 6.92178 12.9902 6.90939 13.6172 7.56639C13.9202 7.88039 14.0584 8.27039 14.1074 8.69139C14.1844 9.37039 14.0328 10.0001 13.6738 10.5801C13.6348 10.6401 13.6297 10.6843 13.6777 10.7363C14.1367 11.2603 13.4459 10.5907 15.2969 12.3437C15.3789 12.4217 15.4599 12.502 15.5469 12.584C15.9229 12.124 16.2164 11.6092 16.4414 11.0762C16.8304 10.1562 17.0298 9.21464 16.8008 8.22264C16.4248 6.59064 15.4502 5.51717 13.7852 5.11717C13.5172 5.05267 13.2209 5.01156 12.9121 5.00194ZM11.459 9.07225C11.385 9.15825 11.3202 9.25441 11.2852 9.35741C11.2112 9.58941 11.1348 9.82062 11.0918 10.0566C10.9918 10.5936 10.9781 11.1349 11.1211 11.6719C11.1471 11.7579 11.1896 11.8132 11.2676 11.8652C11.6836 12.1402 12.0301 12.4844 12.2461 12.9394C12.2801 13.0214 12.3068 13.1073 12.3418 13.1973C12.1998 13.0343 12.0728 12.8705 11.9258 12.7285C11.4498 12.2735 10.7583 11.9986 9.90625 11.4316C9.47825 11.1446 9.11377 10.7922 8.88477 10.2812C8.73277 10.8832 8.79856 11.4193 9.10156 11.9433C8.53956 11.7933 7.98167 11.7641 7.38867 11.7851C7.77367 12.0301 8.11475 12.3042 8.34375 12.6992C8.50775 12.9872 8.47384 13.1468 8.21484 13.3398C7.47484 13.8468 6.60097 14.1433 5.91797 14.7793C5.96897 14.7923 6.00397 14.7833 6.04297 14.7793C6.37597 14.7273 6.70878 14.6836 7.05078 14.7226C7.51778 14.7736 7.83734 15.0198 7.90234 15.4238C7.93334 15.6128 7.92444 15.8148 7.89844 16.0078C7.87244 16.2138 7.80386 16.4151 7.75586 16.6211C8.55186 15.9381 9.42508 15.3928 10.4551 15.0918C10.1211 15.0318 9.79317 14.9721 9.45117 14.9121C10.4072 13.8591 12.2633 13.8767 12.4883 14.0137C11.7833 14.0737 11.1086 14.2406 10.4766 14.6406C11.1556 14.7956 10.883 14.7271 11.541 14.9121C10.875 15.2511 10.3989 15.7245 10.1309 16.3945C10.4809 16.1925 10.858 16.1242 11.252 16.1582C12.177 16.2392 12.708 16.9651 12.332 17.8711C12.237 18.0991 12.0936 18.2895 11.8906 18.4355L11.9043 18.4746C12.1773 18.4406 12.4534 18.4051 12.7344 18.3711C12.5954 18.6981 12.3499 18.9386 12.0469 19.1406C12.7349 19.2056 13.9037 18.5382 14.0117 18.0312C13.7437 18.0522 13.345 18.1567 13.332 17.7187C13.328 17.6157 13.3191 17.7006 13.4531 16.9316C13.4091 16.9656 13.3625 17.0098 13.3105 17.0488C12.9995 17.2638 12.8262 16.9157 12.9082 16.6367C12.9862 16.3707 13.0712 16.1032 13.1582 15.8242C12.8462 15.7252 12.4976 15.6986 12.1426 15.6816C12.3586 15.5656 13.5656 15.2864 14.6426 15.4844C15.0706 15.5614 14.8221 16.0583 14.6191 16.4453C15.0561 16.4793 15.3173 16.4791 15.6113 16.5351C16.5413 16.7201 16.3412 17.5335 16.3242 17.7265C17.1072 17.3655 17.684 16.0711 17.502 15.2031C17.334 15.4821 17.126 15.7142 16.793 15.8262C16.806 15.5082 16.641 15.3249 16.373 15.2129C16.347 15.1999 16.3202 15.1529 16.3242 15.1269C16.3932 14.6709 16.2861 14.2555 16.0781 13.8555C15.8061 13.3225 15.4037 12.9001 14.9707 12.4961C13.7197 11.3271 13.0459 10.7615 12.8379 9.76952C12.8029 9.61052 12.7993 9.45147 12.7773 9.27147C12.7433 9.32747 12.7173 9.36909 12.6953 9.41209C12.5093 9.82409 12.4578 10.2639 12.5098 10.7109C12.5318 10.8909 12.5875 11.0487 12.7305 11.1777C13.1545 11.5647 13.5772 11.9555 13.9922 12.3555C14.4252 12.7725 14.8231 13.2486 15.0391 13.8066C14.9701 13.7466 14.925 13.6745 14.877 13.6055C14.566 13.1715 14.1624 12.8181 13.7734 12.4531C13.2764 11.9891 12.7736 11.5338 12.3066 11.0488C11.4586 10.1688 11.485 9.36825 11.459 9.07225ZM23.3105 12.5879C23.2845 12.5879 23.2585 12.5975 23.2285 12.6015C22.3935 12.7435 21.9003 13.267 21.1133 13.873C20.6633 14.221 20.5177 14.0355 20.5957 13.8515C20.6567 13.7015 20.7384 13.5639 20.8164 13.4219C20.8594 13.3449 20.9148 13.2761 20.9668 13.2031C20.9578 13.1941 20.9455 13.1896 20.9375 13.1816C19.7695 13.9676 18.9174 15.0031 18.4414 16.3301C18.4544 16.3431 18.4714 16.3561 18.4844 16.3691C18.4974 16.3431 18.5064 16.3179 18.5234 16.2969C18.9734 15.7769 19.5085 15.3606 20.1055 15.0176C20.8925 14.5626 21.7275 14.2304 22.6445 14.1484C22.8305 14.1314 23.0219 14.1445 23.2129 14.1445C23.1349 14.1745 23.0604 14.1834 22.9824 14.1914C22.1824 14.2944 21.4479 14.5783 20.7559 14.9863C19.4499 15.7553 18.3969 16.8007 17.5059 18.0117C17.4929 18.0287 17.4896 18.0494 17.4766 18.0664C18.1036 18.2944 18.5131 18.811 19.0371 19.168C19.0461 19.164 19.0507 19.1584 19.0547 19.1504L19.1074 19.0332C19.6354 17.8772 20.275 16.786 21.127 15.832C21.849 15.024 22.7701 14.7466 23.8301 14.9746C24.0851 15.0306 24.3232 15.1626 24.5742 15.2656C24.6732 15.2056 24.7969 15.1294 24.9219 15.0644C25.2849 14.8794 25.6742 14.7637 26.0762 14.6777C26.7122 14.5447 27.353 14.4661 28.002 14.6211V14.5996C27.979 14.5806 27.9478 14.5631 27.9258 14.5371C27.4238 14.0391 26.8454 13.6615 26.1914 13.3945C25.6374 13.1715 25.0658 13.0558 24.4648 13.0898C24.0318 13.1158 23.6169 13.2232 23.2109 13.3652C23.1029 13.4042 22.9909 13.4349 22.8789 13.4609C22.6669 13.5129 22.5628 13.327 22.6758 13.168C22.8138 12.97 22.8222 12.9883 23.3242 12.6523C23.3502 12.6353 23.3769 12.6179 23.4199 12.5879H23.3105ZM13.8984 13.8515C14.4044 14.0575 14.7287 14.4095 14.9277 14.8945C14.4427 14.9465 14.0414 14.5385 13.8984 13.8515ZM7.42773 15.2285C6.38073 16.2875 5.502 17.4504 5 18.8594C5.32 18.6064 5.64548 18.37 6.02148 18.164C5.66248 19.122 5.17259 20.4328 5.68359 22.5078C5.88259 23.3238 6.19856 24.0879 6.72656 24.7539C6.85156 24.9129 7.00067 25.0493 7.13867 25.1953C7.14767 25.1863 7.15506 25.1838 7.16406 25.1758C7.10306 24.8748 7.06961 24.5694 7.09961 24.2344C7.19461 24.3714 7.26752 24.4925 7.35352 24.6035C7.89852 25.2905 8.59548 25.7808 9.39648 26.1328C10.4775 26.6178 11.6056 26.7039 12.7656 26.5019C15.1406 26.0849 16.6882 24.4128 17.7832 22.2558C17.8252 22.1808 17.8091 22.1341 17.7441 22.0781C16.0401 20.6601 16.7575 21.2398 15.8965 20.5488C15.8615 20.5878 15.8965 20.5397 15.8145 20.6777C15.3305 21.4987 14.7121 22.1946 13.9121 22.7226C13.4661 23.0146 12.9825 23.2305 12.4375 23.2305C11.5035 23.2305 10.7858 22.8211 10.3008 22.0351C9.78178 21.1971 9.72531 20.2876 9.94531 19.3476C10.2823 17.8956 11.2472 16.9769 11.6152 16.5859C10.8062 16.3199 10.1874 16.6576 9.60742 17.1816C9.64242 16.5846 9.79319 16.0561 10.1172 15.5801C9.06619 16.0351 8.13145 16.6548 7.31445 17.4668C7.30145 17.2178 7.54864 15.5899 7.55664 15.5469C7.56964 15.4309 7.53173 15.3185 7.42773 15.2285ZM13.7441 15.9609C13.5281 16.4339 13.6755 16.9231 14.0605 17.2461C14.2555 17.4091 14.4632 17.5595 14.6582 17.7265C14.8572 17.8895 14.978 18.1013 15 18.3633C15.017 18.5653 15.0351 18.7707 15.0781 18.9687C15.1731 19.4237 15.4625 19.7589 15.8125 20.0469C16.5265 20.6359 17.2391 21.2195 17.9531 21.8125C18.7271 22.4565 18.5546 23.2217 18.5156 24.2187C18.4766 25.2027 19.0438 26.0629 19.9648 26.4199C20.0078 26.4369 20.0521 26.4458 20.1211 26.4668C19.4421 25.6848 19.6834 24.5707 20.1504 24.2187C20.1634 24.3137 20.1675 24.4041 20.1895 24.4941C20.5965 26.3891 22.1542 27.2515 23.8672 26.9375C24.5592 26.8125 25.1907 26.5569 25.7227 26.0879C25.8097 26.0109 25.8835 25.9116 25.9785 25.8086C25.1435 26.0066 24.4284 25.8125 23.7754 25.3535C23.8054 25.3405 23.8314 25.3398 23.8574 25.3398C24.7784 25.4168 25.6142 25.1938 26.3242 24.5918C27.1682 23.8788 27.4742 22.7498 27.0762 21.7578C26.7192 20.8928 26.0576 20.3689 25.1836 20.0859C24.7726 19.9529 24.2244 19.9059 23.9434 19.9609C24.3714 20.1329 24.5529 20.2445 24.7559 20.4765C25.3009 21.0955 25.2055 21.9675 24.5215 22.4355C24.0155 22.7835 23.4458 22.8862 22.8398 22.8262C22.7878 22.8222 22.74 22.8098 22.709 22.8008C22.83 22.6418 22.9686 22.4989 23.0586 22.3359C23.4656 21.6139 23.2936 20.5268 22.6836 19.9258C22.5926 19.8358 22.4849 19.7588 22.3809 19.6738C22.3679 19.7298 22.3768 19.763 22.3848 19.793C22.5668 20.506 22.0335 21.1842 21.3105 21.1582C20.9815 21.1452 20.7099 20.9969 20.4629 20.7949C19.6189 20.1029 18.7716 19.4147 17.9316 18.7187C17.6766 18.5077 17.3905 18.3717 17.0625 18.3457C16.8635 18.3287 16.6619 18.3196 16.4629 18.3066C16.2079 18.2896 16.0807 18.1863 16.0117 17.9453C15.9727 17.7993 15.948 17.6538 15.918 17.5078C15.853 17.1598 15.6498 16.9485 15.2988 16.8965C15.1088 16.8665 14.9127 16.853 14.7227 16.832C14.1607 16.772 13.8661 16.5149 13.7441 15.9609Z" fill="black"/>
</g>
</svg>
