<svg width="32" height="32" viewBox="0 0 32 32" fill="none" xmlns="http://www.w3.org/2000/svg">
<g id="d-and-d-beyond">
<path id="Vector" d="M15.9199 11.002C15.0139 10.957 15.0047 11.7535 15.0137 11.8535C15.0317 12.0805 15.1582 12.1973 15.1582 12.1973C15.1132 12.0433 15.1499 11.8805 15.2129 11.7715C15.2579 11.9075 15.3318 12.0617 15.5488 12.1797C15.5308 12.0707 15.5382 11.9254 15.5742 11.8164C15.5112 11.5714 15.6662 11.3633 15.8652 11.3633C16.1732 11.3633 16.2453 11.7636 16.0723 12.0176C16.1723 12.1626 16.3268 12.2701 16.4258 12.3691C16.5708 12.2061 16.6719 11.9431 16.6719 11.7441C16.6739 11.3721 16.4279 11.029 15.9199 11.002ZM16.8262 11.293C16.8262 11.329 16.8447 11.6737 17.2617 11.9727C17.3977 12.0637 17.3887 12.1624 17.3887 12.3984C17.4707 12.3534 17.5609 12.2977 17.6699 12.2617C17.6159 12.3157 17.5419 12.3897 17.5059 12.4707C17.5509 12.4167 17.85 12.2336 18.168 12.3066C18.095 12.3246 17.9961 12.3606 17.9141 12.4336C17.9501 12.4246 18.0405 12.3988 18.2305 12.4258V12.2344C18.4485 12.2344 19.2812 12.0807 19.2812 13.0137C19.2812 13.9477 18.4388 13.8027 18.3848 13.8027C18.6478 14.0017 18.6474 14.3452 18.4844 14.5352H18.5039C20.0179 14.5352 20.1621 13.3021 20.1621 12.9941C20.1621 12.8231 20.1179 11.5457 18.6309 11.4727C17.1719 11.4727 17.1442 11.483 16.8262 11.293ZM11.6875 11.3008C11.6875 11.3368 11.706 11.6737 12.123 11.9727C12.196 12.0357 12.25 12.0815 12.25 12.2715V14.0293C12.25 14.2193 12.2148 14.2734 12.1328 14.3184C12.1238 14.3274 11.7875 14.5273 11.7695 14.5273H13.3652C13.8182 14.5273 14.153 14.4637 14.543 14.1367C14.516 13.9097 14.5511 13.7118 14.5781 13.5938C14.5691 13.5938 14.4962 13.6659 14.4512 13.7559C14.4512 13.4929 14.5247 13.0573 14.8867 12.8223C14.8867 12.8233 14.7235 12.7879 14.4785 12.8789C14.5695 12.7339 14.9312 12.5156 14.9492 12.5156C14.6142 11.4366 13.4551 11.4644 13.4551 11.4824C12.0961 11.4824 12.0135 11.4908 11.6875 11.3008ZM15.666 11.7363C15.593 11.8093 15.5473 12.0894 15.6113 12.2344C15.7203 12.2974 15.8111 12.4059 15.8301 12.5059C15.7301 12.2789 15.3123 12.2341 15.1953 11.9531C15.1683 12.0531 15.1862 12.1807 15.2402 12.2617C15.2402 12.2617 15.1408 12.2254 14.9238 12.2344C15.0058 12.2614 15.1606 12.3887 15.1426 12.4707C15.1246 12.5527 14.8247 12.6323 14.6797 12.7773C14.8977 12.7323 14.9972 12.7684 15.0332 12.8594C15.0602 12.9224 15.0246 13.0133 15.0156 13.1133C15.0886 13.0313 15.3327 12.868 15.5137 12.832C15.4687 12.823 15.3595 12.7969 15.3145 12.7969C15.4415 12.6519 15.7132 12.6078 15.8672 12.6348C15.7672 12.6348 15.5857 12.688 15.5137 12.752C15.5867 12.761 15.6491 12.7789 15.7031 12.7969C15.6031 12.8329 15.4864 12.9511 15.4414 13.0781C15.7584 12.8511 16.0388 13.3132 15.7578 13.4492C15.7938 13.4582 15.8859 13.4508 15.9219 13.4238C15.9039 13.4778 15.8302 13.5582 15.7852 13.5762C15.9122 13.5762 16.1012 13.4951 16.1562 13.3691C16.1562 13.3691 16.0751 13.3954 16.0391 13.3594C16.0121 13.3324 16.0391 13.2235 16.0391 13.1875C15.9481 13.2875 15.8941 13.1065 15.9941 12.9805C15.9491 12.9625 15.8302 12.9531 15.7852 12.9531C15.9302 12.9081 16.2579 12.8704 16.2949 12.9434C16.3219 12.9884 16.248 13.0977 16.248 13.0977C16.429 13.0707 16.6218 13.1422 16.5488 13.3242C16.6828 13.2582 16.8007 13.0596 16.7637 12.8516C16.7547 12.8966 16.6917 12.9605 16.6367 12.9785C16.6457 12.9155 16.5909 12.8774 16.5449 12.8594C16.6269 12.4244 15.8822 12.2155 15.9102 11.7715C15.8652 11.8345 15.829 11.9987 15.875 12.0977C15.993 12.2427 16.2651 12.3964 16.3281 12.6504C16.2101 12.3604 15.648 12.1343 15.666 11.7363ZM13.3457 12.2148C13.6705 12.2153 14.1445 12.3042 14.1445 13.0039C14.1445 13.9469 13.3108 13.793 13.0938 13.793V12.2246C13.1458 12.2246 13.2374 12.2147 13.3457 12.2148ZM17.832 12.3965C17.596 12.4145 17.4255 12.6864 17.3535 12.6504C17.2995 12.6324 17.416 12.4883 17.416 12.4883C17.18 12.6153 16.9981 12.8952 16.9531 13.0762C17.1611 12.8132 17.5788 12.6339 17.8418 12.6699C17.3708 12.6879 16.9634 13.1038 16.7734 13.3848C16.8644 13.4208 16.8455 13.412 17.0625 13.584C17.5245 12.478 18.0425 12.8777 18.0605 12.8867C18.1605 12.7957 18.4948 12.7148 18.6758 12.7598C18.5668 12.6428 18.3392 12.4785 18.0762 12.4785C17.8582 12.4785 17.7418 12.58 17.7148 12.543C17.6878 12.498 17.786 12.4235 17.832 12.3965ZM16.1289 12.6055C16.2739 12.6685 16.3184 12.8047 16.3184 12.8047C16.1914 12.8047 16.1559 12.7055 16.1289 12.6055ZM14.9609 12.8594C14.9609 12.8594 14.579 13.1135 14.543 13.5215C14.543 13.5215 14.5888 13.4495 14.6348 13.4395C14.6618 13.4215 14.6962 13.4395 14.6602 13.5215C14.6512 13.5485 14.3975 14.2372 14.8965 14.6992C14.8695 14.6262 14.8059 14.3552 15.0059 14.6172C15.0059 14.6352 15.2779 14.9356 15.7129 14.9356C16.3379 14.9356 16.6659 14.4829 16.8379 14.1289C16.7919 14.0749 16.61 13.9381 16.502 13.8301C16.393 14.0201 16.13 14.3106 15.877 14.3106C15.415 14.3106 15.1775 13.6485 15.7305 13.1055C15.7035 13.0965 15.5312 13.0238 15.3672 13.2148C15.3672 13.0788 15.413 12.9861 15.459 12.9141C15.305 12.9771 15.0144 13.1683 14.9414 13.2773C14.9504 13.0143 15.0138 12.9331 14.9688 12.8691L14.9609 12.8594ZM17.8242 12.8789C17.6882 12.8789 17.5615 12.9403 17.4805 13.0313C17.4445 13.0673 17.4186 13.1144 17.3906 13.1504V13.8652C17.5446 13.9832 17.7064 13.7291 17.5254 13.5391C17.5884 13.5481 17.7349 13.6586 17.7539 13.6856C17.7539 13.6856 17.8715 13.6582 17.9805 13.6582C18.0805 13.6582 18.1614 13.6769 18.2344 13.7129V12.8789C18.1864 12.8969 18.1313 12.9234 18.1133 12.9414L18.0781 12.9688L18.0332 12.9414C17.9882 12.8964 17.9052 12.8789 17.8242 12.8789ZM16.1113 13.0039C16.0113 13.1939 16.2565 13.277 16.3105 13.377C16.3555 13.459 16.2752 13.5948 16.4922 13.7578C17.1632 14.2838 16.9089 14.12 16.9629 14.582C16.9899 14.772 17.1539 14.882 17.2539 14.918C17.1539 14.827 17.1179 14.6262 17.2539 14.4902C17.2539 15.1242 18.1229 15.0983 18.2949 14.7813C18.1949 14.8353 17.9777 14.7722 17.8867 14.6992C18.2407 14.7452 18.5406 14.5088 18.5586 14.2188C18.5586 13.9288 18.2674 13.7025 17.9414 13.7305C18.3034 13.7935 18.1958 14.3541 17.7148 14.2461C17.8868 14.1281 17.8592 13.8036 17.6602 13.6856C17.7232 13.8756 17.5252 14.0566 17.3262 13.8926C17.2172 13.8016 16.9637 13.5949 16.8457 13.5039C16.7367 13.4039 16.5919 13.4589 16.5469 13.4219C16.4839 13.3679 16.5195 13.2484 16.4375 13.1934C16.3645 13.1574 16.3025 13.1754 16.2305 13.1484C16.1675 13.1214 16.1113 13.0669 16.1113 13.0039ZM17.832 13.7754C17.923 13.9564 17.8778 14.1196 17.8418 14.1836C17.9598 14.1656 18.0879 14.1104 18.0879 13.9844C18.0879 13.8024 17.868 13.7844 17.832 13.7754ZM17.7305 16.0391C14.0305 16.0391 13.8509 21 17.7109 21C21.6109 21 21.4205 16.0391 17.7305 16.0391ZM28.9805 16.0801C27.9505 16.0801 26.9807 16.1495 26.4707 16.1895L26.8398 16.5996V20.4609L26.4707 20.8691C26.9907 20.9091 28.0108 20.9707 29.0508 20.9707C31.1508 20.9707 32 19.9393 32 18.5293C32 17.0593 30.8405 16.0801 28.9805 16.0801ZM0.150391 16.1797L0.570312 16.6094V18.0801H0L0.570312 18.8106V20.4297L0.150391 20.8594C3.24039 20.8594 3.8407 20.9306 4.4707 20.5606C4.8107 20.3606 4.9707 20.0697 4.9707 19.6797C4.9707 19.4297 5.1 18.7399 4 18.4199C4.86 18.1899 4.81055 17.5197 4.81055 17.4297C4.81055 16.3997 3.60094 16.1797 2.96094 16.1797H0.150391ZM8.91016 16.1797L5.23047 16.1895L5.59961 16.5996V20.4492L5.23047 20.8594H9.28906L10 19.8008L6.99023 19.8106V19.0391L8.15039 19.0508V19.0391L8.84961 17.9805H6.99023V17.2402H9.60938L8.91016 16.1895V16.1797ZM20.7402 16.1797L21.1094 16.6094V20.4492L20.75 20.8691H22.6992L22.3301 20.4609V18.0898H22.3496C22.5296 18.6198 24.5695 20.2291 24.7695 20.8691H25.8398V16.6094L26.2109 16.1895H24.25L24.5996 16.5996V18.7305H24.5801C24.3101 18.0105 22.4703 16.6497 22.3203 16.1797H20.7402ZM9.56055 16.1895L11.7598 19.4805L11.7695 20.4492L11.3906 20.8594H13.5195L13.1602 20.4492L13.1504 19.5L15.3496 16.1895H13.2695L13.5703 16.5508L12.5508 18.4102H12.5293L11.4805 16.5508L11.8008 16.1895H9.56055ZM1.92969 17.0508C2.92969 17.0508 3.41016 17.01 3.41016 17.5V17.6504C3.41016 18.2604 2.45969 18.0898 1.92969 18.0898V17.0508ZM17.7207 17.1504C19.5607 17.1504 19.6609 19.9102 17.7109 19.9102C15.8409 19.9102 15.8707 17.1504 17.7207 17.1504ZM28.7617 17.1621C29.9274 17.1324 30.5703 17.5298 30.5703 18.5098C30.5703 19.7898 29.5005 20.0194 28.2305 19.8594V17.1992C28.418 17.178 28.5952 17.1664 28.7617 17.1621ZM2.44336 18.8691C2.99039 18.8616 3.57031 18.9003 3.57031 19.3203V19.5391H3.58008C3.58008 20.0991 2.94969 20.0098 1.92969 20.0098V18.8809C2.08219 18.8809 2.26102 18.8716 2.44336 18.8691Z" fill="black"/>
</g>
</svg>
