<svg width="32" height="32" viewBox="0 0 32 32" fill="none" xmlns="http://www.w3.org/2000/svg">
<g id="dashcube">
<path id="Vector" d="M24.5 3L24.1875 3.28125L20.4688 7H11C8.25 7 6 9.25 6 12V22C6 24.75 8.25 27 11 27H21C23.75 27 26 24.75 26 22V3H24.5ZM24 6.3125V22C24 23.668 22.668 25 21 25H11C9.33203 25 8 23.668 8 22V12C8 10.332 9.33203 9 11 9H21.3125L24 6.3125ZM13 12C11.9062 12 11 12.9062 11 14V20C11 21.0938 11.9062 22 13 22H23.4062L21.7188 20.2812L21 19.5625V14C21 12.9062 20.0938 12 19 12H13ZM13 14H19V20H13V14Z" fill="black"/>
</g>
</svg>
