<svg width="32" height="32" viewBox="0 0 32 32" fill="none" xmlns="http://www.w3.org/2000/svg">
<g id="deaf-solid">
<path id="Vector" d="M3.71875 2.28125L2.28125 3.71875L28.2812 29.7188L29.7188 28.2812L21.875 20.4375C23.3828 18.2031 25 15.1992 25 12C25 7.58984 21.4102 4 17 4C13.8789 4 11.1602 5.79297 9.84375 8.40625L3.71875 2.28125ZM17 6C20.3086 6 23 8.69141 23 12C23 14.5312 21.7266 17.0312 20.4375 19L14.0312 12.5938C14.2188 11.0898 15.4297 10 17 10C18.0781 10 19.0938 10.5898 19.625 11.5312L21.3438 10.5312C20.457 8.96875 18.7969 8 17 8C14.9219 8 13.1719 9.20312 12.4062 10.9688L11.375 9.9375C12.2188 7.64062 14.4141 6 17 6ZM11.1562 15.3438L11 15.4688V16C11 17.4297 12.2148 17.9805 13.0312 18.3438C13.7812 18.6758 14 18.8125 14 19C14 19.6875 12.918 20 11.9062 20V22C13.8672 22 15.2812 21.2266 15.7812 20L11.1562 15.3438ZM9 22V23C9 25.7578 11.2422 28 14 28C16.9062 28 18 26.1602 18.875 24.6875C19.0859 24.3359 19.2812 24.0039 19.5 23.6875L18.0625 22.25C18.0391 22.2852 18.0234 22.3438 18 22.375C17.6836 22.8086 17.4102 23.2578 17.1562 23.6875C16.3203 25.0898 15.7695 26 14 26C12.3477 26 11 24.6523 11 23V22H9Z" fill="black"/>
</g>
</svg>
