<svg width="32" height="32" viewBox="0 0 32 32" fill="none" xmlns="http://www.w3.org/2000/svg">
<g id="democrat-solid">
<path id="Vector" d="M6.04882 4.99996C5.95507 5.00746 5.86554 5.05559 5.81054 5.14059C5.31054 5.90059 5.21984 7.38918 6.08984 8.19918C6.22984 8.32918 6.39077 8.40996 6.55077 8.49996C6.46077 8.56996 6.35906 8.63067 6.28906 8.72067L3.25976 12.7597C2.95976 13.1497 2.92062 13.6791 3.14062 14.1191L3.7207 15.2793C3.9407 15.7193 4.39085 16 4.88085 16H6.14062C6.49062 16 6.81054 15.8591 7.06054 15.6191L8.60937 14.2109L11 19H25V15.4902C25.66 15.9802 25.8405 16.3809 26.7305 17.7109C26.9305 18.0109 27.3309 18.0906 27.6309 17.8906L28.7109 17.1699C29.0109 16.9699 29.0906 16.5697 28.8906 16.2597L28.0898 15.0703C26.9498 13.3503 25.0407 12 22.9707 12H13.4004L9.93945 8.58981C10.9394 7.62981 11.0807 6.09965 10.4707 5.17965C10.3307 4.96965 10.0296 4.9391 9.8496 5.1191L8.08984 7.43942L6.31054 5.09957C6.24054 5.02457 6.14257 4.99246 6.04882 4.99996ZM13.5684 14C13.6365 14 13.7052 14.034 13.7422 14.1035L14.1211 14.8808L14.9805 15.0097C15.1285 15.0287 15.1833 15.2212 15.0723 15.3222L14.4531 15.9336L14.6016 16.7832C14.6296 16.9402 14.463 17.0505 14.334 16.9765L13.5664 16.58L12.8008 16.9765C12.6618 17.0505 12.5032 16.9402 12.5312 16.7832L12.6797 15.9336L12.0605 15.3222C11.9405 15.2202 12.0051 15.0277 12.1621 15.0097L13.0215 14.8808L13.4004 14.1035C13.4329 14.034 13.5002 14 13.5684 14ZM17.9512 14C18.0193 14 18.0899 14.034 18.1269 14.1035L18.5059 14.8808L19.3633 15.0097C19.5103 15.0287 19.5751 15.2212 19.4551 15.3222L18.8379 15.9336L18.9844 16.7832C19.0124 16.9402 18.8558 17.0505 18.7168 16.9765L17.9492 16.58L17.1836 16.9765C17.0546 17.0505 16.8861 16.9402 16.9141 16.7832L17.0625 15.9336L16.4434 15.3222C16.3324 15.2202 16.3899 15.0277 16.5469 15.0097L17.4043 14.8808L17.7832 14.1035C17.8157 14.034 17.883 14 17.9512 14ZM22.4336 14C22.5017 14 22.5704 14.034 22.6074 14.1035L22.9863 14.8808L23.8457 15.0097C23.9937 15.0287 24.0575 15.2212 23.9375 15.3222L23.3184 15.9336L23.4668 16.7832C23.4948 16.9402 23.3363 17.0505 23.1973 16.9765L22.4316 16.58L21.6641 16.9765C21.5351 17.0505 21.3685 16.9402 21.3965 16.7832L21.5449 15.9336L20.9258 15.3222C20.8148 15.2202 20.8703 15.0277 21.0273 15.0097L21.8867 14.8808L22.2656 14.1035C22.2981 14.034 22.3655 14 22.4336 14ZM11 21V26.3496C11 26.7096 11.2904 27 11.6504 27H14.3496C14.7096 27 15 26.7096 15 26.3496V23H21V26.3496C21 26.7096 21.2904 27 21.6504 27H24.3496C24.7096 27 25 26.7096 25 26.3496V21H11Z" fill="black"/>
</g>
</svg>
