<svg width="32" height="32" viewBox="0 0 32 32" fill="none" xmlns="http://www.w3.org/2000/svg">
<g id="deploydog">
<path id="Vector" d="M6 6C3.794 6 2 7.794 2 10V22C2 24.206 3.794 26 6 26H26C28.206 26 30 24.206 30 22V10C30 7.794 28.206 6 26 6H6ZM6 8H26C27.103 8 28 8.897 28 10V22C28 23.103 27.103 24 26 24H6C4.897 24 4 23.103 4 22V10C4 8.897 4.897 8 6 8ZM12 10V14.5547C11.41 14.2107 10.732 14 10 14C7.791 14 6 15.791 6 18C6 20.209 7.791 22 10 22C10.732 22 11.41 21.7893 12 21.4453V22H15V10H12ZM22 10V14.5547C21.41 14.2107 20.732 14 20 14C17.791 14 16 15.791 16 18C16 20.209 17.791 22 20 22C20.732 22 21.41 21.7893 22 21.4453V22H25V10H22ZM10.5 16.5C11.328 16.5 12 17.172 12 18C12 18.828 11.328 19.5 10.5 19.5C9.672 19.5 9 18.828 9 18C9 17.172 9.672 16.5 10.5 16.5ZM20.5 16.5C21.328 16.5 22 17.172 22 18C22 18.828 21.328 19.5 20.5 19.5C19.672 19.5 19 18.828 19 18C19 17.172 19.672 16.5 20.5 16.5Z" fill="black"/>
</g>
</svg>
