<svg width="32" height="32" viewBox="0 0 32 32" fill="none" xmlns="http://www.w3.org/2000/svg">
<g id="deskpro">
<path id="Vector" d="M6.69923 5C6.45123 5.01 6.00587 5.0392 6.00587 5.7832V15.7031C5.82687 19.7601 9.79462 21 10.9746 21H15.2109C14.3879 20.206 14.0729 19.2457 14.0039 18.5117C13.9439 17.8867 14.8866 17.8088 14.9356 18.4238C14.9456 18.5328 15.1909 21 17.6309 21H17.9297L19.4473 18.4219L19.6934 18H23V10.5957C23 8.7007 22.1662 4.98977 17.1172 5.00977H13.0684C13.5444 5.51577 13.9336 6.157 13.9336 7C13.9326 7.625 13 7.625 13 7C13 4.877 10.7371 4.98977 10.5391 5.00977C10.5291 5.00977 10.5198 5 10.5098 5H6.69923ZM18.5137 12.0039C19.4409 12.0637 20.2838 13.0121 19.9082 14.3027L17 12.9746C17.3709 12.2512 17.9574 11.968 18.5137 12.0039ZM20.4453 19L19.3535 21H24C25.794 21 28 20 29 19H20.4453ZM19 22C20 23 20.5928 23.5519 20.5938 23.7969C20.6038 23.8889 20.6226 25.7956 18.7656 26.6836C18.2446 26.9286 18.0722 26.99 17.4902 27L16 29C17 29 17.541 29.0002 17.959 28.9492C20.408 28.6322 22.0608 26.7541 22.5098 25.6211C22.6428 25.2851 22.99 24.398 23 22H19Z" fill="black"/>
</g>
</svg>
