<svg width="32" height="32" viewBox="0 0 32 32" fill="none" xmlns="http://www.w3.org/2000/svg">
<g id="deviantart">
<path id="Vector" d="M18.375 4L18.0938 4.3125L17.6875 4.6875L17.5938 4.8125L17.5312 4.9375L15.75 8.3125L15.5938 8.40625H8.1875V15.9062H11.7812L8.3125 22.5312L8.1875 22.75V28H13.625L13.9062 27.6875L14.3125 27.3125L14.4062 27.1875L14.4688 27.0625L16.25 23.6875L16.4062 23.5938H23.8125V16.0938H20.2188L23.6875 9.46875L23.8125 9.25V4H18.375ZM19.2188 6H21.8125V8.78125L17.875 16.25L17.5938 16.8438L18 17.3438L18.3438 17.75L18.625 18.0938H21.8125V21.5938H15.7812L15.5 21.7812L14.9062 22.1562L14.7188 22.3125L14.5938 22.5312L12.7812 26H10.1875V23.2188L14.0938 15.75L14.4062 15.1875L14 14.6562L13.6562 14.25L13.375 13.9062H10.1875V10.4062H16.2188L16.4688 10.2188L17.0625 9.84375L17.2812 9.6875L17.4062 9.46875L19.2188 6Z" fill="black"/>
</g>
</svg>
