<svg width="32" height="32" viewBox="0 0 32 32" fill="none" xmlns="http://www.w3.org/2000/svg">
<g id="dharmachakra-solid">
<path id="Vector" d="M16 2.125C15.4492 2.125 15 2.57422 15 3.125C15 3.53125 15.25 3.875 15.5938 4.03125C12.543 4.13672 9.78125 5.36719 7.71875 7.34375C7.76953 7.22266 7.8125 7.10547 7.8125 6.96875C7.8125 6.41797 7.36328 5.96875 6.8125 5.96875C6.26172 5.96875 5.8125 6.41797 5.8125 6.96875C5.8125 7.51953 6.26172 7.96875 6.8125 7.96875C6.94922 7.96875 7.06641 7.92578 7.1875 7.875C5.30078 9.92188 4.13281 12.6211 4.03125 15.5938C3.875 15.25 3.53125 15 3.125 15C2.57422 15 2.125 15.4492 2.125 16C2.125 16.5508 2.57422 17 3.125 17C3.53125 17 3.875 16.75 4.03125 16.4062C4.13281 19.3789 5.30078 22.0781 7.1875 24.125C7.06641 24.0742 6.94922 24.0312 6.8125 24.0312C6.26172 24.0312 5.8125 24.4805 5.8125 25.0312C5.8125 25.582 6.26172 26.0312 6.8125 26.0312C7.36328 26.0312 7.8125 25.582 7.8125 25.0312C7.8125 24.8945 7.76953 24.7773 7.71875 24.6562C9.78125 26.6328 12.543 27.8633 15.5938 27.9688C15.25 28.125 15 28.4688 15 28.875C15 29.4258 15.4492 29.875 16 29.875C16.5508 29.875 17 29.4258 17 28.875C17 28.4688 16.75 28.125 16.4062 27.9688C19.457 27.8633 22.2188 26.6328 24.2812 24.6562C24.2305 24.7773 24.1875 24.8945 24.1875 25.0312C24.1875 25.582 24.6367 26.0312 25.1875 26.0312C25.7383 26.0312 26.1875 25.582 26.1875 25.0312C26.1875 24.4805 25.7383 24.0312 25.1875 24.0312C25.0508 24.0312 24.9336 24.0742 24.8125 24.125C26.6992 22.0781 27.8672 19.3789 27.9688 16.4062C28.125 16.75 28.4688 17 28.875 17C29.4258 17 29.875 16.5508 29.875 16C29.875 15.4492 29.4258 15 28.875 15C28.4688 15 28.125 15.25 27.9688 15.5938C27.8672 12.6211 26.6992 9.92188 24.8125 7.875C24.9336 7.92578 25.0508 7.96875 25.1875 7.96875C25.7383 7.96875 26.1875 7.51953 26.1875 6.96875C26.1875 6.41797 25.7383 5.96875 25.1875 5.96875C24.6367 5.96875 24.1875 6.41797 24.1875 6.96875C24.1875 7.10547 24.2305 7.22266 24.2812 7.34375C22.2188 5.36719 19.457 4.13672 16.4062 4.03125C16.75 3.875 17 3.53125 17 3.125C17 2.57422 16.5508 2.125 16 2.125ZM14.9688 6.0625C14.9805 6.0625 14.9883 6.0625 15 6.0625V12.1562C14.625 12.2539 14.293 12.3984 13.9688 12.5938L9.625 8.28125C11.1055 7.05859 12.9492 6.26562 14.9688 6.0625ZM17 6.0625C19.0312 6.26172 20.8867 7.05469 22.375 8.28125L18.0312 12.5938C17.707 12.3984 17.375 12.2539 17 12.1562V6.0625ZM8.21875 9.71875L12.5625 14C12.3789 14.3125 12.25 14.6406 12.1562 15H6.0625C6.25781 13.0078 7.03125 11.1914 8.21875 9.71875ZM23.7812 9.71875C24.9688 11.1914 25.7422 13.0078 25.9375 15H19.8438C19.75 14.6406 19.6211 14.3125 19.4375 14L23.7812 9.71875ZM16 14C17.1172 14 18 14.8828 18 16C18 17.1172 17.1172 18 16 18C14.8828 18 14 17.1172 14 16C14 14.8828 14.8828 14 16 14ZM6.03125 17H12.125C12.2188 17.3594 12.375 17.6875 12.5625 18L8.21875 22.25C7.03516 20.7812 6.22656 18.9922 6.03125 17ZM19.875 17H25.9688C25.7734 18.9922 24.9648 20.7812 23.7812 22.25L19.4375 18C19.625 17.6875 19.7812 17.3594 19.875 17ZM13.9688 19.4062C14.2891 19.5938 14.6328 19.7461 15 19.8438V25.9375C12.957 25.7383 11.1172 24.9219 9.625 23.6875L13.9688 19.4062ZM18.0312 19.4062L22.375 23.6875C20.8828 24.9219 19.043 25.7383 17 25.9375V19.8438C17.3672 19.7461 17.7109 19.5938 18.0312 19.4062Z" fill="black"/>
</g>
</svg>
