<svg width="32" height="32" viewBox="0 0 32 32" fill="none" xmlns="http://www.w3.org/2000/svg">
<g id="dhl">
<path id="Vector" d="M5.63086 13L4.60938 14.3906H10.1797C10.4597 14.3906 10.4545 14.5005 10.3145 14.6855C10.1745 14.8755 9.94078 15.2045 9.80078 15.3945C9.73078 15.4945 9.5943 15.6699 10.0293 15.6699H12.3105C12.3105 15.6699 12.6744 15.17 12.9844 14.75C13.4044 14.18 13.0204 13 11.5254 13H5.63086ZM15.2344 13L13.2695 15.6699H20.4492L22.4141 13H19.4805L18.3555 14.5293H17.0449L18.1699 13H15.2344ZM23.375 13L21.4102 15.6699H24.5195L26.4844 13H23.375ZM6.24414 14.7402L4.18945 17.5293H9.19531C10.8503 17.5293 11.7697 16.4056 12.0547 16.0156H8.64453C8.20953 16.0156 8.34406 15.8352 8.41406 15.7402C8.55406 15.5502 8.79555 15.2202 8.93555 15.0352C9.07555 14.8502 9.07492 14.7402 8.79492 14.7402H6.24414ZM0 16.0156V16.3359H4.5293L4.76562 16.0156H0ZM13.0156 16.0156L11.9004 17.5254H14.8359L15.9492 16.0156H13.0156ZM17.2656 16.0156C17.2606 16.0156 16.1504 17.5254 16.1504 17.5254H19.0859L20.1992 16.0156H17.2656ZM21.1543 16.0156C21.1543 16.0156 20.9409 16.3092 20.8359 16.4492C20.4659 16.9492 20.7891 17.5293 21.9941 17.5293H26.7109L27.8242 16.0156H21.1543ZM28.3652 16.0156L28.1309 16.3359H32V16.0156H28.3652ZM0 16.6094V16.9297H4.08984L4.32422 16.6094H0ZM27.9258 16.6094L27.6895 16.9297H32V16.6094H27.9258ZM0 17.2051V17.5254H3.6543L3.89062 17.2051H0ZM27.4844 17.2109L27.25 17.5293H32V17.2109H27.4844Z" fill="black"/>
</g>
</svg>
