<svg width="32" height="32" viewBox="0 0 32 32" fill="none" xmlns="http://www.w3.org/2000/svg">
<g id="diagnoses-solid">
<path id="Vector" d="M16 5C13.8 5 12 6.8 12 9C12 11.2 13.8 13 16 13C18.2 13 20 11.2 20 9C20 6.8 18.2 5 16 5ZM16 13H14.6191C12.8191 13 11.1691 13.9795 10.2891 15.5195C10.9991 15.5995 11.6195 15.9793 12.0195 16.5293C12.5395 15.5893 13.5291 15 14.6191 15H17.3809C17.8209 15 18.2294 15.0898 18.6094 15.2598C18.8194 14.5698 19.3209 14.0205 19.9609 13.7305C19.2009 13.2605 18.3109 13 17.3809 13H16ZM16 7C17.12 7 18 7.88 18 9C18 10.12 17.12 11 16 11C14.88 11 14 10.12 14 9C14 7.88 14.88 7 16 7ZM21 15C20.7348 15 20.4804 15.1054 20.2929 15.2929C20.1054 15.4804 20 15.7348 20 16C20 16.2652 20.1054 16.5196 20.2929 16.7071C20.4804 16.8946 20.7348 17 21 17C21.2652 17 21.5196 16.8946 21.7071 16.7071C21.8946 16.5196 22 16.2652 22 16C22 15.7348 21.8946 15.4804 21.7071 15.2929C21.5196 15.1054 21.2652 15 21 15ZM10 17C9.73478 17 9.48043 17.1054 9.29289 17.2929C9.10536 17.4804 9 17.7348 9 18C9 18.2652 9.10536 18.5196 9.29289 18.7071C9.48043 18.8946 9.73478 19 10 19C10.2652 19 10.5196 18.8946 10.7071 18.7071C10.8946 18.5196 11 18.2652 11 18C11 17.7348 10.8946 17.4804 10.7071 17.2929C10.5196 17.1054 10.2652 17 10 17ZM22.7305 17.8105C22.2805 18.2405 21.67 18.5 21 18.5C20.95 18.5 20.8898 18.5002 20.8398 18.4902L22.0898 21.4102L22.2793 21.8809L22.8105 21.9707L27.8105 22.9707L28.1895 21.0293L23.7207 20.1191L22.7305 17.8105ZM15 18C14.7348 18 14.4804 18.1054 14.2929 18.2929C14.1054 18.4804 14 18.7348 14 19C14 19.2652 14.1054 19.5196 14.2929 19.7071C14.4804 19.8946 14.7348 20 15 20C15.2652 20 15.5196 19.8946 15.7071 19.7071C15.8946 19.5196 16 19.2652 16 19C16 18.7348 15.8946 18.4804 15.7071 18.2929C15.5196 18.1054 15.2652 18 15 18ZM8.36914 19.9004L8.2793 20.1191L3.81055 21.0293L4.18945 22.9707L9.18945 21.9707L9.7207 21.8809L9.91016 21.4102L10.3105 20.4805C10.2105 20.4905 10.1 20.5 10 20.5C9.38 20.5 8.79914 20.2704 8.36914 19.9004ZM18 21C17.7348 21 17.4804 21.1054 17.2929 21.2929C17.1054 21.4804 17 21.7348 17 22C17 22.2652 17.1054 22.5196 17.2929 22.7071C17.4804 22.8946 17.7348 23 18 23C18.2652 23 18.5196 22.8946 18.7071 22.7071C18.8946 22.5196 19 22.2652 19 22C19 21.7348 18.8946 21.4804 18.7071 21.2929C18.5196 21.1054 18.2652 21 18 21ZM2 25V27H30V25H2Z" fill="black"/>
</g>
</svg>
