<svg width="32" height="32" viewBox="0 0 32 32" fill="none" xmlns="http://www.w3.org/2000/svg">
<g id="diaspora">
<path id="Vector" d="M12.0059 5V11.1426L6.36914 9.26367L4.1543 15.9043L9.81641 17.793L6.09961 22.8008L11.7207 26.9727L15.3906 22.0273L18.8613 27.0996L24.6367 23.1465L21.0391 17.8906L26.8164 16.0234L24.6641 9.36133L20 11.1914L19 5H12.0059ZM14 7H17.0059V13.9395L23.377 11.8809L24.2988 14.7344L17.877 16.8105L21.8574 22.625L19.3809 24.3184L15.4551 18.582L11.3066 24.1758L8.89648 22.3867L13.0664 16.7676L6.68555 14.6406L7.63281 11.7949L14 14V7Z" fill="black"/>
</g>
</svg>
