<svg width="32" height="32" viewBox="0 0 32 32" fill="none" xmlns="http://www.w3.org/2000/svg">
<g id="dice-two-solid">
<path id="Vector" d="M5 5V27H27V5H5ZM7 7H25V25H7V7ZM11 9C10.4696 9 9.96086 9.21071 9.58579 9.58579C9.21071 9.96086 9 10.4696 9 11C9 11.5304 9.21071 12.0391 9.58579 12.4142C9.96086 12.7893 10.4696 13 11 13C11.5304 13 12.0391 12.7893 12.4142 12.4142C12.7893 12.0391 13 11.5304 13 11C13 10.4696 12.7893 9.96086 12.4142 9.58579C12.0391 9.21071 11.5304 9 11 9ZM21 19C20.4696 19 19.9609 19.2107 19.5858 19.5858C19.2107 19.9609 19 20.4696 19 21C19 21.5304 19.2107 22.0391 19.5858 22.4142C19.9609 22.7893 20.4696 23 21 23C21.5304 23 22.0391 22.7893 22.4142 22.4142C22.7893 22.0391 23 21.5304 23 21C23 20.4696 22.7893 19.9609 22.4142 19.5858C22.0391 19.2107 21.5304 19 21 19Z" fill="black"/>
</g>
</svg>
