<svg width="32" height="32" viewBox="0 0 32 32" fill="none" xmlns="http://www.w3.org/2000/svg">
<g id="dice-d6-solid">
<path id="Vector" d="M16 2.9375L4.65625 7.0625L4 7.3125V22.5938L4.53125 22.875L15.5312 28.875L16 29.125L16.4688 28.875L27.4688 22.875L28 22.5938V7.3125L27.3438 7.0625L16 2.9375ZM16 5.0625L24.375 8.09375L16 11.9062L7.625 8.09375L16 5.0625ZM16 7C14.8945 7 14 7.44922 14 8C14 8.55078 14.8945 9 16 9C17.1055 9 18 8.55078 18 8C18 7.44922 17.1055 7 16 7ZM6 9.53125L15 13.625V26.3125L6 21.4062V9.53125ZM26 9.53125V21.4062L17 26.3125V13.625L26 9.53125ZM12.6562 14C12.2852 14 12 14.3555 12 14.875C12 15.543 12.3555 16.2344 12.875 16.5312C13.0234 16.6055 13.1953 16.5938 13.3438 16.5938C13.5664 16.5938 13.6953 16.5234 13.8438 16.375C13.918 16.2266 14 16.0156 14 15.7188C14 15.0508 13.5508 14.3594 13.0312 14.0625C12.8828 13.9883 12.8047 14 12.6562 14ZM20.0312 15C19.957 15.0117 19.8672 15.0508 19.7812 15.0938C19.1719 15.3555 18.6562 16.2188 18.6562 17C18.6562 17.2617 18.6367 17.5117 18.8125 17.6875C18.9883 17.8633 19.1758 17.9688 19.4375 17.9688C19.6133 17.9688 19.793 17.9609 19.9688 17.875C20.5781 17.5273 21 16.7266 21 16.0312C21 15.4219 20.7422 15 20.2188 15C20.1758 15 20.1055 14.9883 20.0312 15ZM10.125 16.2812C9.75391 16.2812 9.46875 16.6367 9.46875 17.1562C9.46875 17.8242 9.82422 18.4844 10.3438 18.7812C10.4922 18.8555 10.6328 18.875 10.7812 18.875C11.0039 18.875 11.1641 18.8047 11.3125 18.6562C11.3867 18.5078 11.4688 18.2656 11.4688 17.9688C11.4688 17.3008 11.0195 16.6406 10.5 16.3438C10.3516 16.2695 10.2734 16.2812 10.125 16.2812ZM23.5312 17.4375C23.457 17.4492 23.3672 17.457 23.2812 17.5C22.6719 17.7617 22.1562 18.6562 22.1562 19.4375C22.1562 19.6992 22.168 19.9492 22.3438 20.125C22.5195 20.3008 22.6758 20.375 22.9375 20.375C23.1133 20.375 23.293 20.3984 23.4688 20.3125C24.0781 19.9648 24.5 19.1641 24.5 18.4688C24.5 17.8594 24.2422 17.4375 23.7188 17.4375C23.6758 17.4375 23.6055 17.4258 23.5312 17.4375ZM7.65625 18.4062C7.28516 18.4062 7 18.7617 7 19.2812C7 19.9492 7.35547 20.6406 7.875 20.9375C8.02344 21.0117 8.19531 21 8.34375 21C8.56641 21 8.69531 20.9297 8.84375 20.7812C8.91797 20.6328 9 20.4219 9 20.125C9 19.457 8.55078 18.7656 8.03125 18.4688C7.88281 18.3945 7.80469 18.4062 7.65625 18.4062Z" fill="black"/>
</g>
</svg>
