<svg width="32" height="32" viewBox="0 0 32 32" fill="none" xmlns="http://www.w3.org/2000/svg">
<g id="dice-five-solid">
<path id="Vector" d="M5 5V27H27V5H5ZM7 7H25V25H7V7ZM11 9C10.4696 9 9.96086 9.21071 9.58579 9.58579C9.21071 9.96086 9 10.4696 9 11C9 11.5304 9.21071 12.0391 9.58579 12.4142C9.96086 12.7893 10.4696 13 11 13C11.5304 13 12.0391 12.7893 12.4142 12.4142C12.7893 12.0391 13 11.5304 13 11C13 10.4696 12.7893 9.96086 12.4142 9.58579C12.0391 9.21071 11.5304 9 11 9ZM21 9C20.4696 9 19.9609 9.21071 19.5858 9.58579C19.2107 9.96086 19 10.4696 19 11C19 11.5304 19.2107 12.0391 19.5858 12.4142C19.9609 12.7893 20.4696 13 21 13C21.5304 13 22.0391 12.7893 22.4142 12.4142C22.7893 12.0391 23 11.5304 23 11C23 10.4696 22.7893 9.96086 22.4142 9.58579C22.0391 9.21071 21.5304 9 21 9ZM16 14C15.4696 14 14.9609 14.2107 14.5858 14.5858C14.2107 14.9609 14 15.4696 14 16C14 16.5304 14.2107 17.0391 14.5858 17.4142C14.9609 17.7893 15.4696 18 16 18C16.5304 18 17.0391 17.7893 17.4142 17.4142C17.7893 17.0391 18 16.5304 18 16C18 15.4696 17.7893 14.9609 17.4142 14.5858C17.0391 14.2107 16.5304 14 16 14ZM11 19C10.4696 19 9.96086 19.2107 9.58579 19.5858C9.21071 19.9609 9 20.4696 9 21C9 21.5304 9.21071 22.0391 9.58579 22.4142C9.96086 22.7893 10.4696 23 11 23C11.5304 23 12.0391 22.7893 12.4142 22.4142C12.7893 22.0391 13 21.5304 13 21C13 20.4696 12.7893 19.9609 12.4142 19.5858C12.0391 19.2107 11.5304 19 11 19ZM21 19C20.4696 19 19.9609 19.2107 19.5858 19.5858C19.2107 19.9609 19 20.4696 19 21C19 21.5304 19.2107 22.0391 19.5858 22.4142C19.9609 22.7893 20.4696 23 21 23C21.5304 23 22.0391 22.7893 22.4142 22.4142C22.7893 22.0391 23 21.5304 23 21C23 20.4696 22.7893 19.9609 22.4142 19.5858C22.0391 19.2107 21.5304 19 21 19Z" fill="black"/>
</g>
</svg>
