<svg width="32" height="32" viewBox="0 0 32 32" fill="none" xmlns="http://www.w3.org/2000/svg">
<g id="dice-six-solid">
<path id="Vector" d="M5 5V27H27V5H5ZM7 7H25V25H7V7ZM11 8C10.4696 8 9.96086 8.21071 9.58579 8.58579C9.21071 8.96086 9 9.46957 9 10C9 10.5304 9.21071 11.0391 9.58579 11.4142C9.96086 11.7893 10.4696 12 11 12C11.5304 12 12.0391 11.7893 12.4142 11.4142C12.7893 11.0391 13 10.5304 13 10C13 9.46957 12.7893 8.96086 12.4142 8.58579C12.0391 8.21071 11.5304 8 11 8ZM21 8C20.4696 8 19.9609 8.21071 19.5858 8.58579C19.2107 8.96086 19 9.46957 19 10C19 10.5304 19.2107 11.0391 19.5858 11.4142C19.9609 11.7893 20.4696 12 21 12C21.5304 12 22.0391 11.7893 22.4142 11.4142C22.7893 11.0391 23 10.5304 23 10C23 9.46957 22.7893 8.96086 22.4142 8.58579C22.0391 8.21071 21.5304 8 21 8ZM11 14C10.4696 14 9.96086 14.2107 9.58579 14.5858C9.21071 14.9609 9 15.4696 9 16C9 16.5304 9.21071 17.0391 9.58579 17.4142C9.96086 17.7893 10.4696 18 11 18C11.5304 18 12.0391 17.7893 12.4142 17.4142C12.7893 17.0391 13 16.5304 13 16C13 15.4696 12.7893 14.9609 12.4142 14.5858C12.0391 14.2107 11.5304 14 11 14ZM21 14C20.4696 14 19.9609 14.2107 19.5858 14.5858C19.2107 14.9609 19 15.4696 19 16C19 16.5304 19.2107 17.0391 19.5858 17.4142C19.9609 17.7893 20.4696 18 21 18C21.5304 18 22.0391 17.7893 22.4142 17.4142C22.7893 17.0391 23 16.5304 23 16C23 15.4696 22.7893 14.9609 22.4142 14.5858C22.0391 14.2107 21.5304 14 21 14ZM11 20C10.4696 20 9.96086 20.2107 9.58579 20.5858C9.21071 20.9609 9 21.4696 9 22C9 22.5304 9.21071 23.0391 9.58579 23.4142C9.96086 23.7893 10.4696 24 11 24C11.5304 24 12.0391 23.7893 12.4142 23.4142C12.7893 23.0391 13 22.5304 13 22C13 21.4696 12.7893 20.9609 12.4142 20.5858C12.0391 20.2107 11.5304 20 11 20ZM21 20C20.4696 20 19.9609 20.2107 19.5858 20.5858C19.2107 20.9609 19 21.4696 19 22C19 22.5304 19.2107 23.0391 19.5858 23.4142C19.9609 23.7893 20.4696 24 21 24C21.5304 24 22.0391 23.7893 22.4142 23.4142C22.7893 23.0391 23 22.5304 23 22C23 21.4696 22.7893 20.9609 22.4142 20.5858C22.0391 20.2107 21.5304 20 21 20Z" fill="black"/>
</g>
</svg>
