<svg width="32" height="32" viewBox="0 0 32 32" fill="none" xmlns="http://www.w3.org/2000/svg">
<g id="dice-d20-solid">
<path id="Vector" d="M16 3.71875L15.375 4.21875L7.125 10.625L6.875 10.8438L6.78125 11.1562L4.03125 21.25L3.8125 22.0312L16 28.125L28.1875 22.0312L27.9688 21.25L25.2188 11.1562L25.125 10.8438L24.875 10.625L16.625 4.21875L16 3.71875ZM15 7.0625V10H11.2188L15 7.0625ZM17 7.0625L20.7812 10H17V7.0625ZM9.0625 12H14L10.4062 16.7812L9.0625 12ZM18 12H22.9375L21.5938 16.7812L18 12ZM16 12.6875L20 18H12L16 12.6875ZM7.8125 15L8.8125 18.5L6.5625 19.625L7.8125 15ZM24.1875 15L25.4375 19.625L23.1875 18.5L24.1875 15ZM12 20H20L16 25.3125L12 20ZM9.6875 20.2812L12.625 24.1875L7.25 21.5L9.6875 20.2812ZM22.3125 20.2812L24.75 21.5L19.375 24.1875L22.3125 20.2812Z" fill="black"/>
</g>
</svg>
