<svg width="32" height="32" viewBox="0 0 32 32" fill="none" xmlns="http://www.w3.org/2000/svg">
<g id="digg">
<path id="Vector" d="M9.51953 6.98829C9.51953 7.35939 9.51953 8.94532 9.51953 8.94532H12.3359C12.3359 8.94532 12.6914 8.95704 12.6914 8.55079C12.6914 8.1797 12.6953 6.58985 12.6953 6.58985H9.87891C9.87891 6.58985 9.51953 6.58204 9.51953 6.98829ZM9.51953 11.0547C9.51953 11.4258 9.51953 21.6406 9.51953 21.6406H12.332C12.332 21.6406 12.6914 21.6484 12.6914 21.2461C12.6914 21.1641 12.6953 10.6563 12.6953 10.6563H9.88281C9.88281 10.6563 9.51953 10.6484 9.51953 11.0547ZM5.38672 6.98829V10.6563H0.359375C0.359375 10.6563 0 10.6484 0 11.0547V21.6406H8.20312C8.20312 21.6406 8.5625 21.6484 8.5625 21.2422C8.5625 20.8711 8.5625 6.58985 8.5625 6.58985H5.74609C5.74609 6.58985 5.38672 6.58204 5.38672 6.98829ZM5.39062 18.8867C5.39062 19.293 5.03125 19.2813 5.03125 19.2813H3.10938V13.4063C3.10938 13 3.46875 13.0117 3.46875 13.0117H5.39062V18.8867ZM13.7852 11.0547V21.6406H19.1719V23.0547H14.1445C14.1445 23.0547 13.7852 23.043 13.7852 23.4492C13.7852 23.8203 13.7852 25.4102 13.7852 25.4102H21.9844C21.9844 25.4102 22.3477 25.418 22.3477 25.0117C22.3477 24.6406 22.3477 10.6641 22.3477 10.6641L14.1445 10.6563C14.1445 10.6563 13.7852 10.6484 13.7852 11.0547ZM16.8945 13.4063C16.8945 13 17.2539 13.0117 17.2539 13.0117H19.1758V18.8867C19.1758 19.293 18.8164 19.2813 18.8164 19.2813H16.8945V13.4063ZM23.7969 10.6563C23.7969 10.6563 23.4375 10.6484 23.4375 11.0547V21.6406H28.8242V23.0547H23.7969C23.7969 23.0547 23.4375 23.043 23.4375 23.4492C23.4375 23.8203 23.4375 25.4102 23.4375 25.4102H31.6406C31.6406 25.4102 31.9961 25.418 31.9961 25.0117C31.9961 24.6406 32 10.6641 32 10.6641L23.7969 10.6563ZM28.8281 18.8867C28.8281 19.293 28.4688 19.2813 28.4688 19.2813H26.5469V13.4063C26.5469 13 26.9062 13.0117 26.9062 13.0117H28.8281V18.8867Z" fill="black"/>
</g>
</svg>
