<svg width="32" height="32" viewBox="0 0 32 32" fill="none" xmlns="http://www.w3.org/2000/svg">
<g id="directions-solid">
<path id="Vector" d="M16 3C15.23 3 14.457 3.293 13.875 3.875L13.75 4.03125L4.03126 13.75L3.87501 13.875C2.71101 15.039 2.71101 16.961 3.87501 18.125L13.875 28.125C15.039 29.289 16.961 29.289 18.125 28.125L28.125 18.125C29.289 16.961 29.289 15.039 28.125 13.875L18.125 3.875C17.543 3.293 16.77 3 16 3ZM16 5C16.254 5 16.5198 5.08225 16.7188 5.28125L26.7188 15.2812C27.1168 15.6792 27.1168 16.3197 26.7188 16.7188L16.7188 26.7188C16.3208 27.1168 15.6803 27.1168 15.2813 26.7188L5.28126 16.7188C4.88326 16.3208 4.88326 15.6803 5.28126 15.2812L15.2813 5.28125C15.4803 5.08225 15.746 5 16 5ZM17 11V14H13C11.895 14 11 14.895 11 16V19H13V16H17V19L21 15L17 11Z" fill="black"/>
</g>
</svg>
