<svg width="32" height="32" viewBox="0 0 32 32" fill="none" xmlns="http://www.w3.org/2000/svg">
<g id="dizzy">
<path id="Vector" d="M16 3C8.832 3 3 8.832 3 16C3 23.168 8.832 29 16 29C23.168 29 29 23.168 29 16C29 8.832 23.168 3 16 3ZM16 5C22.065 5 27 9.935 27 16C27 22.065 22.065 27 16 27C9.935 27 5 22.065 5 16C5 9.935 9.935 5 16 5ZM9.70703 10.293L8.29297 11.707L10.0859 13.5L8.29297 15.293L9.70703 16.707L11.5 14.9141L13.293 16.707L14.707 15.293L12.9141 13.5L14.707 11.707L13.293 10.293L11.5 12.0859L9.70703 10.293ZM18.707 10.293L17.293 11.707L19.0859 13.5L17.293 15.293L18.707 16.707L20.5 14.9141L22.293 16.707L23.707 15.293L21.9141 13.5L23.707 11.707L22.293 10.293L20.5 12.0859L18.707 10.293ZM16 18C13.794 18 12 19.5254 12 21.4004C12 23.1254 13.346 24 16 24C18.654 24 20 23.1254 20 21.4004C20 19.5254 18.206 18 16 18ZM16 20C17.084 20 18 20.6414 18 21.4004C18 21.5644 18 22 16 22C14 22 14 21.5644 14 21.4004C14 20.6414 14.916 20 16 20Z" fill="black"/>
</g>
</svg>
