<svg width="32" height="32" viewBox="0 0 32 32" fill="none" xmlns="http://www.w3.org/2000/svg">
<g id="dna-solid">
<path id="Vector" d="M6 5C6 8.02344 7.28125 10.375 9.09375 12.2188C10.5312 13.6836 12.2773 14.8867 14.0625 16C9.89453 18.6328 6 21.5117 6 27H8C8 22.3047 11.7812 19.7422 15.9688 17.1562C16.9648 17.7695 17.9375 18.3672 18.8438 19H15.1875C14.1875 19.6016 13.3047 20.3008 12.4062 21H21.3125C21.3633 21.0508 21.418 21.1055 21.4688 21.1562C22.0391 21.7344 22.543 22.3477 22.9375 23H10.5938C10.0938 23.6016 9.80078 24.3008 9.5 25H23.75C23.9062 25.6172 24 26.2734 24 27H26C26 23.9766 24.7188 21.625 22.9062 19.7812C21.0938 17.9375 18.7812 16.5312 16.5312 15.1562C14.2812 13.7812 12.0938 12.4375 10.5312 10.8438C8.96875 9.25 8 7.47656 8 5H6ZM24 5C24 5.71875 23.8828 6.37891 23.7188 7H9.5C9.80078 7.69922 10.0938 8.39844 10.5938 9H22.875C22.4375 9.72266 21.8828 10.3789 21.25 11H12.4062C13.3047 11.6992 14.1875 12.3984 15.1875 13H18.875C18.2734 13.4375 17.6406 13.8789 17 14.3125C17.6016 14.7109 18.2109 15.0078 18.8125 15.4062C22.6133 12.9062 26 10 26 5H24Z" fill="black"/>
</g>
</svg>
