<svg width="32" height="32" viewBox="0 0 32 32" fill="none" xmlns="http://www.w3.org/2000/svg">
<g id="docker">
<path id="Vector" d="M12 6V9H6V12H3V15H2.0625C1.75391 15.0078 1.46484 15.1562 1.28125 15.4062C1.28125 15.4062 1.19531 15.5117 1.15625 15.5938C1.11719 15.6758 1.08984 15.8008 1.0625 15.9062C1.00391 16.1211 0.96875 16.3633 0.96875 16.7188C0.96875 17.4062 1.05078 18.168 1.25 18.9375C1.16406 18.957 1.07031 18.9805 1 19H1.28125C1.48828 19.7734 1.80469 20.5508 2.25 21.3125C2.26172 21.332 2.26953 21.3555 2.28125 21.375C2.28125 21.3867 2.28125 21.3945 2.28125 21.4062C2.33984 21.6484 2.48438 21.8594 2.6875 22C2.69922 22.0117 2.70703 22.0195 2.71875 22.0312C2.88672 22.2656 3.05469 22.4961 3.25 22.7188C4.88672 24.6016 7.52734 26.0312 11.2812 26.0312C17.0469 26.0312 22.0391 23.6562 25.0312 19H30.0938C29.4609 18.8398 28.0859 18.6094 28.3125 17.7812C27.6133 18.5898 26.3203 18.7617 25.25 18.625C25.6016 18.043 25.9297 17.4297 26.2188 16.7812C27.875 16.6836 29.1328 16.125 29.8438 15.4375C30.6562 14.6523 30.9062 13.75 30.9062 13.75C31.0117 13.375 30.8906 12.9727 30.5938 12.7188C30.5938 12.7188 29.082 11.6602 26.9062 11.875C26.1602 9.88281 24.5938 8.90625 24.5938 8.90625C24.3867 8.78516 24.1445 8.73828 23.9062 8.78125C23.7461 8.81641 23.5938 8.89062 23.4688 9C23.4688 9 23.0117 9.40625 22.6562 10.0625C22.3008 10.7188 21.9805 11.7148 22.0938 12.9688C22.1367 13.4297 22.418 13.8359 22.5938 14.2812C22.4688 14.3594 22.3516 14.4492 22.1875 14.5312C21.6836 14.7773 20.9961 15 20.0938 15H20V12H17V6H12ZM14 8H15V9H14V8ZM8 11H9V12H8V11ZM11 11H12V12H11V11ZM14 11H15V12H14V11ZM24.3438 11.3125C24.7031 11.7188 25.0938 12.293 25.25 13.125C25.3008 13.4023 25.4648 13.6406 25.7031 13.7891C25.9414 13.9375 26.2305 13.9805 26.5 13.9062C27.4062 13.6602 28.0664 13.7383 28.5312 13.875C28.4766 13.9414 28.5117 13.9297 28.4375 14C27.9805 14.4414 27.2148 14.9336 25.625 14.875C25.2031 14.8594 24.8164 15.1094 24.6562 15.5C24.207 16.6133 23.6836 17.6133 23.0625 18.5C21.5859 19.0742 18.3008 18.6523 18.0312 17.9062C17.0547 19.0508 14.043 19.0508 13.0625 17.9062C12.7461 18.7852 8.1875 19.1914 7.40625 18.0625C6.77734 18.6484 4.48828 19.0391 3.1875 18.1562C3.10547 17.7539 3.04688 17.3594 3.03125 17H20.0938C21.3398 17 22.3438 16.6641 23.0625 16.3125C23.4219 16.1367 23.7227 15.9609 23.9375 15.8125C24.1523 15.6641 24.332 15.5312 24.2812 15.5625C24.5273 15.418 24.6992 15.1719 24.75 14.8906C24.8047 14.6094 24.7383 14.3203 24.5625 14.0938C24.2969 13.7461 24.1445 13.3203 24.0938 12.7812C24.0312 12.0781 24.1914 11.6719 24.3438 11.3125ZM5 14H6V15H5V14ZM8 14H9V15H8V14ZM11 14H12V15H11V14ZM14 14H15V15H14V14ZM17 14H18V15H17V14ZM3.40625 19H22.6875C20.0547 22.4062 16.0742 24.0312 11.2812 24.0312C8.76953 24.0312 7.00781 23.3555 5.75 22.375C7.875 22.3008 9.40625 21.75 9.40625 21.75C9.94922 21.6445 10.3086 21.1211 10.2031 20.5781C10.0977 20.0352 9.57422 19.6758 9.03125 19.7812C8.98828 19.7891 8.94531 19.8008 8.90625 19.8125C8.85156 19.8281 8.80078 19.8516 8.75 19.875C8.75 19.875 6.55859 20.5938 3.96875 20.2812C3.73047 19.8555 3.54688 19.4336 3.40625 19ZM10.7188 19.1875C10.3984 19.1875 10.125 19.457 10.125 19.7812C10.125 20.1016 10.3984 20.375 10.7188 20.375C11.0391 20.375 11.2812 20.1016 11.2812 19.7812C11.2812 19.7031 11.2773 19.6328 11.25 19.5625C11.2109 19.6367 11.1211 19.6875 11.0312 19.6875C10.8984 19.6875 10.8125 19.5703 10.8125 19.4375C10.8125 19.3477 10.8359 19.2891 10.9062 19.25C10.8398 19.2227 10.793 19.1875 10.7188 19.1875Z" fill="black"/>
</g>
</svg>
