<svg width="32" height="32" viewBox="0 0 32 32" fill="none" xmlns="http://www.w3.org/2000/svg">
<g id="dog-solid">
<path id="Vector" d="M20.3125 3L20.0625 3.65625L17.3125 11H9.625C8.71094 11 7.84375 11.2578 7.125 11.7188L4.71875 9.28125L3.28125 10.7188L5.71875 13.125C5.25781 13.8438 5 14.7109 5 15.625C5 16.1289 5.08594 16.6445 5.25 17.125L5.96875 19.2188L5.03125 22.75L5 22.875V28H7V23.125L7.96875 19.4688L8.03125 19.1562L7.9375 18.875L7.125 16.4688C7.03516 16.1992 7 15.9102 7 15.625C7 14.1562 8.15625 13 9.625 13H17.6562L21 16.2812V13.4688L19.1875 11.6875L21.25 6.15625L21.5 6.53125L21.7812 7H23.6562L26.7188 9.3125L25.875 11H22V16.875L21.0625 19.6875L21 19.8438V23.125L22 27.125V28H24V26.875L23 22.875V20.125L23.9375 17.3125L24 17.1562V13H27.125L29.2812 8.6875L28.5938 8.1875L24.3438 5H22.9062L21.9375 3.46875L21.6562 3H20.3125ZM10.2188 18L9 22.875V28H11V23.125L11.7812 20H12.7188C13.0703 20.2344 14.3125 21 16 21H17V23.125L18 27.125V28H20V26.875L19 22.875V19H16C14.9375 19 13.5625 18.1562 13.5625 18.1562L13.3125 18H10.2188Z" fill="black"/>
</g>
</svg>
