<svg width="32" height="32" viewBox="0 0 32 32" fill="none" xmlns="http://www.w3.org/2000/svg">
<g id="dolly-flatbed-solid">
<path id="Vector" d="M19 6C17.3555 6 16 7.35547 16 9H10V21H28V9H22C22 7.35547 20.6445 6 19 6ZM4 7V9H5C5.55469 9 6 9.44531 6 10V21C6 23.2109 7.78906 25 10 25H28V23H10C8.80859 23 8 22.1914 8 21V10C8 8.35547 6.64453 7 5 7H4ZM24.5 25C23.6719 25 23 25.6719 23 26.5C23 27.3281 23.6719 28 24.5 28C25.3281 28 26 27.3281 26 26.5C26 25.6719 25.3281 25 24.5 25ZM12.5 25C11.6719 25 11 25.6719 11 26.5C11 27.3281 11.6719 28 12.5 28C13.3281 28 14 27.3281 14 26.5C14 25.6719 13.3281 25 12.5 25ZM19 8C19.5547 8 20 8.44531 20 9H18C18 8.44531 18.4453 8 19 8ZM12 11H26V19H12V11Z" fill="black"/>
</g>
</svg>
