<svg width="32" height="32" viewBox="0 0 32 32" fill="none" xmlns="http://www.w3.org/2000/svg">
<g id="dolly-solid">
<path id="Vector" d="M18.5938 1.65625L17.6562 2L12.125 4.03125L11.1875 4.375L11.5312 5.3125L13.2188 9.875L13.5625 10.8125L14.5 10.4688L20.0312 8.4375L20.9688 8.09375L20.625 7.15625L18.9375 2.59375L18.5938 1.65625ZM8.59375 3L7.65625 3.34375L5 4.3125L5.65625 6.1875L7.40625 5.5625L14.0625 23.3438L14.4062 24.2812L15.3438 23.9375L25.9688 19.9375L25.2812 18.0625L15.5938 21.7188L8.9375 3.9375L8.59375 3ZM17.4062 4.21875L18.4062 6.90625L14.75 8.25L13.75 5.5625L17.4062 4.21875ZM21.7812 9.90625L20.8438 10.25L15.3125 12.2812L14.375 12.625L14.7188 13.5625L16.4062 18.125L16.75 19.0625L17.6875 18.7188L23.2188 16.6875L24.1562 16.3438L23.8125 15.375L22.125 10.8438L21.7812 9.90625ZM20.5938 12.4688L21.5938 15.1562L17.9375 16.5L16.9375 13.8125L20.5938 12.4688ZM11 21C9.35547 21 8 22.3555 8 24C8 25.6445 9.35547 27 11 27C12.6445 27 14 25.6445 14 24C14 22.3555 12.6445 21 11 21ZM11 27H5V29H27V27H11ZM11 23C11.5625 23 12 23.4375 12 24C12 24.5625 11.5625 25 11 25C10.4375 25 10 24.5625 10 24C10 23.4375 10.4375 23 11 23Z" fill="black"/>
</g>
</svg>
