<svg width="32" height="32" viewBox="0 0 32 32" fill="none" xmlns="http://www.w3.org/2000/svg">
<g id="dollar-sign-solid">
<path id="Vector" d="M15 3V5.09375C12.1641 5.57031 10 8.05078 10 11C10 12.7773 10.832 14.1484 11.9375 15.0312C13.043 15.9141 14.375 16.4062 15.625 16.9062C16.875 17.4062 18.043 17.9141 18.8125 18.5312C19.582 19.1484 20 19.7734 20 21C20 23.1562 18.207 25 16 25C13.7812 25 12 23.2188 12 21V20H10V21C10 23.9648 12.1641 26.4297 15 26.9062V29H17V26.9062C19.8438 26.4258 22 23.9258 22 21C22 19.2188 21.168 17.8555 20.0625 16.9688C18.957 16.082 17.625 15.5625 16.375 15.0625C15.125 14.5625 13.957 14.082 13.1875 13.4688C12.418 12.8555 12 12.2188 12 11C12 8.80859 13.7852 7 16 7C18.2188 7 20 8.78125 20 11V12H22V11C22 8.03516 19.8359 5.57031 17 5.09375V3H15Z" fill="black"/>
</g>
</svg>
