<svg width="32" height="32" viewBox="0 0 32 32" fill="none" xmlns="http://www.w3.org/2000/svg">
<g id="door-open-solid">
<path id="Vector" d="M15.875 4L15.7812 4.03125L7.78125 5.90625L7 6.09375V26.3438L7.8125 26.4688L15.8125 27.9688L15.9062 28H18V4H15.875ZM20 6V8H23V24H20V26H25V6H20ZM16 6.03125V26L9 24.6875V7.65625L16 6.03125ZM14.3438 15C13.9766 15 13.6562 15.4492 13.6562 16C13.6562 16.5508 13.9766 17 14.3438 17C14.7109 17 15 16.5508 15 16C15 15.4492 14.7109 15 14.3438 15Z" fill="black"/>
</g>
</svg>
