<svg width="32" height="32" viewBox="0 0 32 32" fill="none" xmlns="http://www.w3.org/2000/svg">
<g id="dot-circle">
<path id="Vector" d="M16 4C9.38281 4 4 9.38281 4 16C4 22.6172 9.38281 28 16 28C22.6172 28 28 22.6172 28 16C28 9.38281 22.6172 4 16 4ZM16 6C21.5352 6 26 10.4648 26 16C26 21.5352 21.5352 26 16 26C10.4648 26 6 21.5352 6 16C6 10.4648 10.4648 6 16 6ZM16 13C14.3438 13 13 14.3438 13 16C13 17.6562 14.3438 19 16 19C17.6562 19 19 17.6562 19 16C19 14.3438 17.6562 13 16 13Z" fill="black"/>
</g>
</svg>
