<svg width="32" height="32" viewBox="0 0 32 32" fill="none" xmlns="http://www.w3.org/2000/svg">
<g id="dove-solid">
<path id="Vector" d="M9.84374 1.66406L8.68359 2.05078C7.05859 2.59375 5.97656 3.30859 5.34374 4.19922C4.70702 5.08984 4.60546 6.12109 4.76952 6.94531C4.91796 7.69141 5.25781 8.28125 5.57031 8.75781C5.28515 8.92578 5.21874 8.86719 4.91796 9.16797C4.10546 9.98047 3.44531 11.5 4.05077 13.3164C4.50781 14.6914 5.57031 15.4336 6.42968 15.7383C6.67187 15.8242 6.67577 15.7734 6.89062 15.8125C6.82812 16.1602 6.75781 16.2031 6.76562 16.6875C6.78515 17.8008 7.17968 19.3086 8.58202 20.2148C9.32031 20.6914 10.1445 20.9336 10.9531 21.0625L5.41796 28.4414L6.6289 28.9258C12.0976 31.1172 18.3164 28.9492 18.3164 28.9492L19 28.7188V24.8711C19.7734 24.7578 20.8594 24.5469 22.1992 23.9844C24.3164 23.0977 26.707 21.2852 26.9961 18.0898C27.1094 16.8516 26.8203 15.5469 26.5312 14.4883C26.457 14.2109 26.4492 14.2344 26.375 14H29.6601L28.8828 12.5312C28.8828 12.5312 28.3594 11.5039 28.0859 10.9414C28.8672 9.19922 28.3008 7.30078 26.8594 6.5C26.4609 6.27734 26.0117 6.14062 25.5351 6.10156C24.1172 5.98047 22.4766 6.70312 21.2031 8.39844C21.0742 8.57031 20.5391 9.20312 20.2344 9.57031C20.1406 9.38672 20.0391 9.16016 19.9258 8.87891C19.4805 7.75781 19 5.89062 19 3V2H18C16.832 2 15.8906 2.30469 15.2187 2.84375C14.5469 3.38281 14.1914 4.10547 14.0312 4.75781C13.8047 5.65234 13.9531 6.02734 14.0312 6.46484C13.6797 6.625 13.4297 6.65625 12.918 7.16797C12.6133 7.47266 12.332 7.875 12.1289 8.35156C11.1055 6.90625 10.2695 5.10156 9.99218 2.875L9.84374 1.66406ZM17.1055 4.23828C17.2305 6.60937 17.6055 8.45703 18.0742 9.62109C18.3555 10.3242 18.6601 10.8438 18.8984 11.1914C18.207 12.0156 18.0195 12.25 17.4844 12.875C16.7734 12.5312 15.3398 11.7305 13.875 10.3516C13.6601 9.42578 13.9414 8.97266 14.332 8.58203C14.7695 8.14453 15.3164 7.94922 15.3164 7.94922L16.1953 7.65625L15.9687 6.75781C15.9687 6.75781 15.7969 5.9375 15.9687 5.24219C16.0586 4.89453 16.2031 4.61719 16.4687 4.40625C16.5781 4.31641 16.918 4.30859 17.1055 4.23828ZM8.34374 4.53906C9.01171 7.41406 10.4805 9.61328 12.0312 11.2344C12.0391 11.2617 12.043 11.2891 12.0508 11.3164L12.0937 11.3008C13.8594 13.1289 15.668 14.1797 16.5859 14.6484L17.7617 15.6484C17.7617 15.6484 21.8359 10.8789 22.7969 9.60156H22.8008C24.1016 7.86719 25.2461 7.89453 25.8906 8.25C26.5312 8.60547 26.9101 9.32812 26.168 10.4453L25.8711 10.8906L26.0781 11.3828C26.1601 11.5859 26.25 11.7266 26.3867 12H23.5312L24.0664 13.3633C24.0664 13.3633 24.3437 14.0703 24.6055 15.0156C24.8633 15.9609 25.0742 17.1562 25.0039 17.9102C24.793 20.2148 23.1836 21.4023 21.4258 22.1406C19.668 22.8789 17.9336 23 17.9336 23L17 23.0625V27.1875C16.1367 27.4375 12.5156 28.3008 8.72656 27.3633L13.375 21.1719C14.4101 21.1211 15.1875 20.9844 15.1875 20.9844L14.8125 19.0156C14.8125 19.0156 13.9492 19.1836 12.832 19.1914C11.7187 19.2031 10.4101 19.0156 9.66796 18.5352C8.94531 18.0664 8.77734 17.3867 8.76562 16.6562C8.7539 15.9219 8.94921 15.3164 8.94921 15.3164L9.41406 13.9219L7.94531 14C7.94531 14 7.56249 14.0195 7.10156 13.8555C6.63671 13.6875 6.19921 13.4297 5.94921 12.6836C5.55468 11.5 5.89452 11.0195 6.33202 10.582C6.76952 10.1445 7.3164 9.94922 7.3164 9.94922L8.85156 9.4375L7.70702 8.29297C7.70702 8.29297 6.89843 7.40234 6.73046 6.55469C6.64452 6.12891 6.66796 5.78516 6.96874 5.36328C7.14843 5.11719 7.84765 4.82422 8.34374 4.53906Z" fill="black"/>
</g>
</svg>
