<svg width="32" height="32" viewBox="0 0 32 32" fill="none" xmlns="http://www.w3.org/2000/svg">
<g id="draft2digital">
<path id="Vector" d="M15.7695 5.05078C13.2595 5.06078 11.0004 5.83984 9.40039 7.08984C8.13039 7.93984 7.25078 9.28008 7.05078 10.8301V10.8496C7.02078 11.0596 7 11.28 7 11.5C7 13.43 8.57 15 10.5 15C12.43 15 14 13.43 14 11.5C14 10 13.0505 8.73047 11.7305 8.23047C11.9905 8.18047 12.2608 8.14062 12.5508 8.14062C14.4508 8.14062 16 9.65 16 11.5C16 14.29 11.2903 18.6895 5.32031 24.2695L3.4707 26H23V29L30 25L23 21V24H17.1504C21.3104 19.6 24 16.4298 24 11.8398C24 7.97984 20.4903 5.07078 15.8203 5.05078H15.7891H15.7695ZM15.5898 7.05078H15.7891C19.3291 7.06078 22 9.10984 22 11.8398C22 15.9998 19.2399 18.8992 14.6699 23.6992L14.3906 24H8.5293C14.5993 18.27 18 14.68 18 11.5C18 9.65 17.0398 8.02078 15.5898 7.05078ZM10.5 10C11.33 10 12 10.67 12 11.5C12 12.33 11.33 13 10.5 13C9.67 13 9 12.33 9 11.5C9 11.39 9.0193 11.2895 9.0293 11.1895C9.1793 10.5095 9.78 10 10.5 10ZM25 24.4492L25.9707 25L25 25.5508V24.4492Z" fill="black"/>
</g>
</svg>
