<svg width="32" height="32" viewBox="0 0 32 32" fill="none" xmlns="http://www.w3.org/2000/svg">
<g id="drafting-compass-solid">
<path id="Vector" d="M15 3V6.15625C13.2812 6.60156 12 8.14844 12 10C12 11.0469 12.4258 12 13.0938 12.7188L9.75 20H6V22H8.8125L5.96875 28.1875L7.78125 29.0312L11.0312 22H15V24H17V22H20.9688L24.1875 29.0312L26 28.2188L23.1562 22H26V20H22.25L18.9062 12.6875C19.5664 11.9766 20 11.043 20 10C20 8.14844 18.7188 6.60156 17 6.15625V3H15ZM16 8C17.1172 8 18 8.88281 18 10C18 10.582 17.7656 11.1016 17.375 11.4688L17.3438 11.5L16.3438 11.9375L20.0312 20H17V18H15V20H11.9375L15.625 12L14.625 11.5312L14.6562 11.5C14.2422 11.1328 14 10.6016 14 10C14 8.88281 14.8828 8 16 8Z" fill="black"/>
</g>
</svg>
