<svg width="32" height="32" viewBox="0 0 32 32" fill="none" xmlns="http://www.w3.org/2000/svg">
<g id="dragon-solid">
<path id="Vector" d="M8 3V9L3 10.5L6.5 14L4 19H9V29H11V19.8477C12.2969 20.4102 13.6602 20.9883 16.0039 21.9219C16.0039 21.9492 16 21.9727 16 22C16 24.2305 16.6992 26.0469 17.9805 27.25C19.2578 28.457 21.0391 29 23 29V27C21.3984 27 20.1797 26.5742 19.3477 25.7969C18.6367 25.125 18.1562 24.1523 18.0312 22.7344C19.3477 23.2305 20.5312 23.6484 21.3516 23.8711C21.6367 23.9453 21.9297 23.9844 22.2188 23.9844C24.0391 23.9844 25.8008 22.5312 26.1328 20.6875L27 16L24 18C19.3125 18 18.1992 15 18.1992 15C18.5508 14.1562 19.2773 13.5586 20.1211 13.1211L21 14V12.7383C21.1875 12.6719 21.375 12.6172 21.5625 12.5625L23 14V12.2188C23.0586 12.207 23.125 12.1914 23.1836 12.1836L25 14V12L28 14V9.15234C28 7.67578 27 6.31641 25.5508 6.05078C25.3633 6.01562 25.1797 6 25 6C24.1992 6 23.4844 6.33594 22.9453 6.85156L21.5 3L20 7H14L8 3ZM10 6.73438L12.8906 8.66406L13.3945 9H23.6719L24.2656 8.34375C24.3828 8.21484 24.6289 8 25 8C25.0625 8 25.125 8.00391 25.1875 8.01562C25.6445 8.10156 26 8.59766 26 9.15234V10H25.6055L25.5898 9.99219L25 10H24.9688C24.2617 10.0117 18.0312 10.2305 16.3555 14.2266L16.0508 14.9531L16.3242 15.6914C16.918 17.293 19.1992 20 24 20H24.2266L24.1641 20.3398C24.0078 21.2148 23.0977 21.9844 22.2188 21.9844C22.0977 21.9844 21.9805 21.9688 21.8711 21.9375C18.7891 21.1094 9.89453 17.207 9.80469 17.168L9.42188 17H7.23438L8.28906 14.8945L8.93359 13.6055L6.78125 11.4531L8.57812 10.918L10 10.4883V6.73438ZM13 10C13 10 13.2305 12 15 12C16.7695 12 18 10 18 10H13Z" fill="black"/>
</g>
</svg>
