<svg width="32" height="32" viewBox="0 0 32 32" fill="none" xmlns="http://www.w3.org/2000/svg">
<g id="draw-polygon-solid">
<path id="Vector" d="M14 4C12.8945 4 12 4.89453 12 6C12 6.01953 12 6.04297 12 6.0625L6.9375 9.25C6.65625 9.10156 6.33984 9 6 9C4.89453 9 4 9.89453 4 11C4 11.7383 4.40234 12.3711 5 12.7188V24.2812C4.40234 24.6289 4 25.2617 4 26C4 27.1055 4.89453 28 6 28C6.73828 28 7.37109 27.5977 7.71875 27H20.2812C20.6289 27.5977 21.2617 28 22 28C23.1055 28 24 27.1055 24 26C24 25.6016 23.8906 25.2188 23.6875 24.9062L26.125 20C27.1719 19.9336 28 19.0625 28 18C28 17.0234 27.3008 16.207 26.375 16.0312L24.4688 10.3125C24.7852 9.95703 25 9.51172 25 9C25 7.89453 24.1055 7 23 7C22.4883 7 22.043 7.21484 21.6875 7.53125L15.9688 5.59375C15.7812 4.68359 14.9648 4 14 4ZM15.3125 7.5L21.0312 9.375C21.1836 10.1797 21.8203 10.8164 22.625 10.9688L24.5312 16.6562C24.207 17.0117 24 17.4805 24 18C24 18.4141 24.1289 18.8047 24.3438 19.125L21.875 24C21.1875 24.043 20.6094 24.4375 20.2812 25H7.71875C7.54297 24.6992 7.30078 24.457 7 24.2812V12.7188C7.59766 12.3711 8 11.7383 8 11C8 10.9805 8 10.957 8 10.9375L13.0625 7.75C13.3438 7.89844 13.6602 8 14 8C14.5039 8 14.9609 7.80859 15.3125 7.5Z" fill="black"/>
</g>
</svg>
