<svg width="32" height="32" viewBox="0 0 32 32" fill="none" xmlns="http://www.w3.org/2000/svg">
<g id="dribbble-square">
<path id="Vector" d="M5 5V27H27V5H5ZM7 7H25V25H7V7ZM16.25 8C14.125 8 14.125 13.5045 14.125 13.5625C14.125 14.2035 14.1485 14.812 14.1875 15.375C13.8905 15.265 13.5545 15.1875 13.1875 15.1875C11.0045 15.1875 10 17.035 10 19C10 20.848 11.0433 23 13.4062 23C14.5232 23 15.489 22.2857 16.252 21.2188C16.924 21.9028 17.604 22.1562 18.127 22.1562C19.787 22.1562 20.8862 19.254 21.2812 18C21.3983 17.605 21.1833 17.1482 20.7812 17.0312C20.3862 16.9023 19.9727 17.1252 19.8438 17.5312C19.3787 19.0042 18.512 20.547 18.125 20.625C17.84 20.625 17.4452 20.3755 17.0312 19.8125C17.9812 17.8165 18.4688 15.3282 18.4688 13.6562C18.4688 8.98025 17.258 8 16.25 8ZM16.3125 9.625C16.5515 9.98 16.9688 11.1052 16.9688 13.6562C16.9688 15.0083 16.6403 16.5857 16.1562 17.9688C15.8403 16.8907 15.625 15.4415 15.625 13.5625C15.625 11.8235 15.9965 10.18 16.3125 9.625ZM12.9062 16.7188C12.9963 16.6987 13.0865 16.7188 13.1875 16.7188C13.8285 16.7188 14.3125 17.1875 14.3125 17.1875C14.3435 17.2265 14.3865 17.2815 14.4375 17.3125C14.6445 18.3715 14.9645 19.205 15.3125 19.877C14.7385 20.846 14.0662 21.4707 13.4062 21.4707C11.6953 21.4707 11.5312 19.9412 11.5312 19.2812C11.5312 19.1792 11.5542 16.9888 12.9062 16.7188Z" fill="black"/>
</g>
</svg>
