<svg width="32" height="32" viewBox="0 0 32 32" fill="none" xmlns="http://www.w3.org/2000/svg">
<g id="dropbox">
<path id="Vector" d="M11.7812 4.46875L11.1562 4.875L4.46875 9.1875L3.25 9.96875L4.40625 10.8438L7.90625 13.5L4.40625 16.1562L3.1875 17.0625L4.5 17.8125L8.125 19.9375V23.2812L8.5625 23.5625L15.4375 28.0938L16 28.4688L16.5625 28.0938L23.4375 23.625L23.875 23.3125V19.9688L27.5 17.8125L28.7188 17.0938L27.6562 16.1875L24.3125 13.3438L27.625 10.625L28.7188 9.75L27.5312 9L21.0312 4.875L20.4062 4.5L19.8438 4.96875L16 8.125L12.3438 4.96875L11.7812 4.46875ZM20.5938 6.9375L25.3125 9.96875L22.6562 12.125L17.75 9.28125L20.5938 6.9375ZM11.5938 6.96875L14.3438 9.3125L9.625 12.3125L6.71875 10.0938L11.5938 6.96875ZM16 10.625L20.8125 13.375L16 16.375L11.4688 13.5312L16 10.625ZM22.6562 14.5625L25.2812 16.8125L22.4688 18.5C22.3789 18.5391 22.293 18.5938 22.2188 18.6562L20.4688 19.6875L17.75 17.625L22.6562 14.5625ZM9.625 14.7188L14.25 17.625L11.625 19.6875L6.78125 16.8438L9.625 14.7188ZM16.0312 18.8125L19.7812 21.6875L20.3438 22.0938L20.9062 21.75L21.875 21.1562V22.2188L16 26.0625L10.125 22.1875V21.125L11.1875 21.75L11.7812 22.0938L12.3125 21.6875L16.0312 18.8125Z" fill="black"/>
</g>
</svg>
