<svg width="32" height="32" viewBox="0 0 32 32" fill="none" xmlns="http://www.w3.org/2000/svg">
<g id="drum-solid">
<path id="Vector" d="M27.1875 5.09375L16.125 10.3438C15.8047 10.1289 15.4141 10 15 10C13.8945 10 13 10.8945 13 12C13 13.1055 13.8945 14 15 14C16.0508 14 16.9219 13.1875 17 12.1562L23.0625 9.28125C24.8789 10.0469 26 11.0469 26 12C26 13.8867 21.7227 16 16 16C10.2773 16 6 13.8867 6 12C6 10.1133 10.2773 8 16 8C16.1719 8 16.3281 7.99609 16.5 8L20.0312 6.34375C18.7773 6.13281 17.4336 6 16 6C9.16016 6 4 8.57812 4 12V22C4 22.9883 4.44531 23.8945 5.125 24.625C5.80469 25.3555 6.73047 25.9453 7.8125 26.4375C9.97656 27.4219 12.8398 28 16 28C19.1602 28 22.0234 27.4219 24.1875 26.4375C25.2695 25.9453 26.1953 25.3555 26.875 24.625C27.5547 23.8945 28 22.9883 28 22V12C28 10.5234 27.0234 9.21094 25.375 8.1875L28.0312 6.90625L27.1875 5.09375ZM6 15.4062C7.01562 16.1719 8.37891 16.8008 10 17.25V25.1562C9.5 25 9.04297 24.8164 8.625 24.625C7.71875 24.2109 7.02734 23.7148 6.59375 23.25C6.16016 22.7852 6 22.3945 6 22V15.4062ZM26 15.4062V22C26 22.3945 25.8398 22.7852 25.4062 23.25C24.9727 23.7148 24.2812 24.2109 23.375 24.625C22.957 24.8164 22.5 25 22 25.1562V17.25C23.6211 16.8008 24.9844 16.1719 26 15.4062ZM12 17.6875C13.2422 17.8945 14.582 18 16 18C17.418 18 18.7578 17.8945 20 17.6875V25.625C18.7695 25.8555 17.4219 26 16 26C14.5781 26 13.2305 25.8555 12 25.625V17.6875Z" fill="black"/>
</g>
</svg>
