<svg width="32" height="32" viewBox="0 0 32 32" fill="none" xmlns="http://www.w3.org/2000/svg">
<g id="drumstick-bite-solid">
<path id="Vector" d="M19.6504 4.00391C17.5116 4.00391 15.3721 4.81731 13.7441 6.44531C12.1761 8.01331 10.3345 12.4004 8.27148 19.4844L6.67578 21.0801C6.45378 21.0261 6.22705 21 5.99805 21C4.34405 21 2.99805 22.346 2.99805 24C2.99805 25.351 3.89891 26.4971 5.12891 26.8711C5.50291 28.1021 6.64605 29 7.99805 29C9.65205 29 10.999 27.654 10.998 26C10.998 25.771 10.971 25.5443 10.918 25.3223L12.5137 23.7285C14.2807 23.2145 16.7812 22.4441 19.1152 21.5801L20.2676 21.1523L19.6172 20.1113C19.2142 19.4663 19 18.736 19 18C19 15.794 20.794 14 23 14C24.108 14 25.1431 14.4543 25.9141 15.2793L27.0762 16.5254L27.5977 14.9004C28.5567 11.9044 27.7737 8.66531 25.5547 6.44531C23.9267 4.81731 21.7891 4.00391 19.6504 4.00391ZM19.6484 6.00391C21.2748 6.00366 22.9002 6.62138 24.1387 7.85938C25.4607 9.18237 26.1135 10.9838 25.9805 12.7988C25.0845 12.2768 24.065 12 23 12C19.691 12 17 14.691 17 18C17 18.709 17.1299 19.4131 17.3809 20.0801C15.7836 20.6418 14.2521 21.1165 12.9121 21.5176L10.4805 19.0859C12.2619 13.1434 13.9505 9.06609 15.1562 7.85938C16.3942 6.62238 18.0221 6.00416 19.6484 6.00391ZM9.57422 21.0078L10.9902 22.4238L8.5293 24.8848L8.875 25.5371C8.957 25.6911 8.99805 25.847 8.99805 26C8.99805 26.551 8.55005 27 7.99805 27C7.44605 27 6.99805 26.551 6.99805 26V25H5.99805C5.44605 25 4.99805 24.551 4.99805 24C4.99805 23.449 5.44605 23 5.99805 23C6.15105 23 6.30794 23.042 6.46094 23.123L7.11328 23.4707L9.57422 21.0078Z" fill="black"/>
</g>
</svg>
