<svg width="32" height="32" viewBox="0 0 32 32" fill="none" xmlns="http://www.w3.org/2000/svg">
<g id="drum-steelpan-solid">
<path id="Vector" d="M16 6C8.82 6 3 8.462 3 11.5V20.5C3 23.538 8.82 26 16 26C23.18 26 29 23.538 29 20.5V11.5C29 8.462 23.18 6 16 6ZM16 8C16.8931 8 17.7342 8.03947 18.5234 8.10938C18.6877 8.12393 18.8403 8.14493 19 8.16211V8.59961C19 9.91961 17.65 11 16 11C14.35 11 13 9.91961 13 8.59961V8.16211C13.927 8.06241 14.9209 8 16 8ZM12.8965 8.17383C12.5618 8.20899 12.2409 8.25288 11.9258 8.30078C12.0625 8.27994 12.1915 8.25524 12.332 8.23633C12.5136 8.2119 12.7085 8.19483 12.8965 8.17383ZM19.1035 8.17383C19.2915 8.19483 19.4864 8.2119 19.668 8.23633C19.8085 8.25524 19.9375 8.27994 20.0742 8.30078C19.7591 8.25288 19.4382 8.20899 19.1035 8.17383ZM11.5234 8.36328C11.3477 8.3935 11.181 8.42933 11.0117 8.46289C11.1023 8.44521 11.1751 8.42114 11.2676 8.4043C11.3497 8.38934 11.4398 8.37755 11.5234 8.36328ZM20.4766 8.36328C20.5602 8.37755 20.6503 8.38934 20.7324 8.4043C20.8249 8.42114 20.8977 8.44521 20.9883 8.46289C20.819 8.42933 20.6523 8.3935 20.4766 8.36328ZM10.5195 8.57617L11.5605 10.3809C12.0005 11.1209 12.1106 11.9901 11.8906 12.8301C11.7024 13.4937 11.3153 14.0673 10.793 14.4863C7.0214 13.7066 5 12.2301 5 11.5C5 11.4365 5.01494 11.367 5.04492 11.293C5.35095 10.5375 7.25067 9.29929 10.5195 8.57617ZM21.4805 8.57617C25.0696 9.37013 27 10.7883 27 11.5C27 12.2302 24.9779 13.7067 21.2051 14.4863C20.6834 14.0676 20.2974 13.5031 20.1094 12.8301C19.8894 11.9901 19.9997 11.1209 20.4297 10.3809L21.4805 8.57617ZM16 13C17.31 13 18.3993 13.7794 18.7793 14.8594C19.157 14.825 19.5164 14.7815 19.8691 14.7324C18.7109 14.8985 17.4241 15 16 15C14.5759 15 13.2891 14.8985 12.1309 14.7324C12.4836 14.7815 12.843 14.825 13.2207 14.8594C13.6007 13.7794 14.69 13 16 13ZM5 14.4219C7.30052 15.9689 11.3606 17 16 17C20.6394 17 24.6995 15.9689 27 14.4219V20.5C27 21.516 23.145 24 16 24C8.855 24 5 21.516 5 20.5V14.4219ZM11.1133 14.5605C11.2788 14.5926 11.4478 14.6221 11.6191 14.6504C11.4462 14.6217 11.2797 14.5922 11.1133 14.5605ZM20.8867 14.5605C20.7203 14.5922 20.5538 14.6217 20.3809 14.6504C20.5522 14.6221 20.7212 14.5926 20.8867 14.5605Z" fill="black"/>
</g>
</svg>
