<svg width="32" height="32" viewBox="0 0 32 32" fill="none" xmlns="http://www.w3.org/2000/svg">
<g id="drupal">
<path id="Vector" d="M14.5312 2.78125L14.0312 5.0625C14.0312 5.0625 13.9062 5.62891 13.625 6.25C13.3438 6.87109 12.8594 7.42969 12.5938 7.53125V7.5625C8.1875 9 5 13.125 5 18C5 24.0625 9.9375 29 16 29C22.0625 29 27 24.0625 27 18C27 12.6953 23.2344 8.24609 18.2188 7.21875C18.1328 7.19922 17.3281 6.63672 16.7812 6C16.2344 5.36328 15.8438 4.75 15.8438 4.75L14.5312 2.78125ZM15.3125 7.34375C15.9453 8.08203 16.6445 8.93359 17.8125 9.1875C21.9102 10.0273 25 13.6406 25 18C25 19.2461 24.7344 20.4219 24.2812 21.5C24.5156 20.8594 24.625 20.1445 24.625 19.6875C24.625 19.0312 24.3398 17.9375 23.2812 17.9375C22.2852 17.9375 20.2461 20.0117 19.1875 20.0312C17.9375 20.0547 16.1992 17.5742 13.7188 17.5938C11.7695 17.6172 10.2383 19.1602 10.2188 20.8125C10.1992 21.7461 10.5195 22.4297 11.1562 22.875C11.582 23.1484 11.9453 23.3438 13.2188 23.3438C15.3164 23.3438 17.9883 20.7383 19.2188 20.7812C20.1953 20.8242 21.7383 23.1875 22.5 23.25C23.0938 23.293 23.3984 23.0234 23.9062 22.2812C22.3867 25.0859 19.4258 27 16 27C11.0156 27 7 22.9844 7 18C7 13.9727 9.62109 10.5938 13.25 9.4375L13.2812 9.40625H13.3125C14.3828 9.00391 14.9375 8.125 15.3125 7.34375ZM18.3125 22.25C18.1758 22.2617 18.0234 22.3008 17.8438 22.375C17.4844 22.5234 17.1094 22.8516 16.875 23.0625C16.6406 23.2734 16.5898 23.4531 16.7188 23.625C16.8477 23.7969 16.9844 23.7031 17.3438 23.4062C17.7031 23.1094 17.9141 22.8438 18.6562 22.8438C19.3984 22.8438 19.5391 23.1289 19.6875 23.4062C19.8359 23.6797 19.8516 23.7109 20 23.625C20.1719 23.5391 20.2734 23.4297 20.1875 23.2188C20.1016 23.0078 19.9414 22.6094 19.6875 22.4375C19.4336 22.2656 19.0898 22.25 18.75 22.25C18.582 22.25 18.4492 22.2383 18.3125 22.25ZM20.5 24.5312C20.4648 24.5391 20.4219 24.5586 20.375 24.5938C19.9492 24.9102 18.9805 25.2812 17.625 25.2812C16.2695 25.2812 15.6445 24.9961 15.2188 24.6562C15.1562 24.6133 15.1914 24.625 15.0625 24.625C14.9336 24.625 14.8242 24.6953 14.7188 24.7812C14.6133 24.8672 14.5703 25.0703 14.7188 25.2188C15.6523 26.0664 17.1992 26.0117 18.3438 25.9062C19.4883 25.8008 20.4883 25.1055 20.5938 25C20.7422 24.8516 20.6758 24.7422 20.6562 24.6562C20.6406 24.5938 20.6055 24.5078 20.5 24.5312Z" fill="black"/>
</g>
</svg>
