<svg width="32" height="32" viewBox="0 0 32 32" fill="none" xmlns="http://www.w3.org/2000/svg">
<g id="dumbbell-solid">
<path id="Vector" d="M21.3125 3.5C20.5469 3.5 19.7656 3.79688 19.1875 4.375C18.8047 4.75781 18.5664 5.22656 18.4375 5.71875C18.2305 5.67578 18.0273 5.625 17.8125 5.625C17.0469 5.625 16.2656 5.89062 15.6875 6.46875C14.5312 7.625 14.5312 9.53125 15.6875 10.6875L16.5312 11.5312L11.5312 16.5312L10.6875 15.6875C10.1094 15.1094 9.35938 14.8125 8.59375 14.8125C7.82812 14.8125 7.04688 15.1094 6.46875 15.6875C5.72266 16.4375 5.46875 17.5 5.6875 18.4688C5.20703 18.5938 4.75391 18.8086 4.375 19.1875C3.21875 20.3438 3.21875 22.25 4.375 23.4062L4.40625 23.4375L5.75 24.8125L5.0625 25.5L6.5 26.9375L7.1875 26.25L8.59375 27.625C9.75 28.7812 11.6562 28.7812 12.8125 27.625C13.1875 27.25 13.4297 26.793 13.5625 26.3125C14.5234 26.5195 15.5703 26.2734 16.3125 25.5312C17.4688 24.375 17.4688 22.4688 16.3125 21.3125L15.4688 20.4688L20.4688 15.4688L21.3125 16.3125C22.4688 17.4688 24.375 17.4688 25.5312 16.3125C26.2695 15.5703 26.5195 14.5234 26.3125 13.5625C26.7969 13.4297 27.2461 13.1914 27.625 12.8125C28.7812 11.6562 28.7812 9.75 27.625 8.59375L26.25 7.1875L26.9375 6.5L25.5 5.0625L24.8125 5.75L23.4062 4.375C22.8281 3.79688 22.0781 3.5 21.3125 3.5ZM21.3125 5.5C21.5625 5.5 21.8047 5.58594 22 5.78125L26.2188 10C26.6133 10.3945 26.6094 10.9844 26.2188 11.375C25.8281 11.7656 25.207 11.7656 24.8125 11.375L20.625 7.1875C20.2344 6.79688 20.2344 6.17578 20.625 5.78125C20.8203 5.58594 21.0625 5.5 21.3125 5.5ZM17.8125 7.59375C18.0625 7.59375 18.3047 7.71094 18.5 7.90625L24.0938 13.5C24.4844 13.8945 24.4844 14.5117 24.0938 14.9062C23.7031 15.2969 23.1133 15.2656 22.7188 14.875H22.6875L17.0938 9.28125C16.7031 8.89062 16.7344 8.30078 17.125 7.90625C17.3164 7.72266 17.5703 7.59375 17.8125 7.59375ZM17.9375 12.9375L19.0625 14.0625L14.0625 19.0625L12.9375 17.9375L17.9375 12.9375ZM8.59375 16.8125C8.84375 16.8125 9.08594 16.9297 9.28125 17.125H9.3125L14.9062 22.7188C15.2969 23.1094 15.2656 23.6992 14.875 24.0938C14.4844 24.4648 13.8867 24.4805 13.5 24.0938L12.8125 23.4062L12.6875 23.3125L8.59375 19.1875L7.90625 18.5C7.51562 18.1055 7.51562 17.4883 7.90625 17.0938C8.10156 16.8984 8.34375 16.8125 8.59375 16.8125ZM6.46875 20.3125C6.71875 20.3125 6.99219 20.4297 7.1875 20.625L11.375 24.8125C11.7656 25.2031 11.7656 25.8242 11.375 26.2188C10.9844 26.6094 10.3945 26.6094 10 26.2188L5.78125 22C5.38672 21.6055 5.39062 21.0156 5.78125 20.625C5.97656 20.4297 6.21875 20.3125 6.46875 20.3125Z" fill="black"/>
</g>
</svg>
