<svg width="32" height="32" viewBox="0 0 32 32" fill="none" xmlns="http://www.w3.org/2000/svg">
<g id="dumpster-solid">
<path id="Vector" d="M5 6L3 14H4.33398L4.66602 16H3V18H5L6 24V26H8V24H24V26H26V24L27 18H29V16H27.334L27.666 14H29L27 6H17H15H5ZM6.5625 8H9.33789L8.57227 12H5.5625L6.5625 8ZM11.3906 8H15V12H10.6309L11.3906 8ZM17 8H20.6094L21.3691 12H17V8ZM22.6621 8H25.4375L26.4375 12H23.4277L22.6621 8ZM6.36133 14H8.18945H10.25H15H17H21.75H23.8105H25.6387L24.3066 22H7.69336L6.36133 14Z" fill="black"/>
</g>
</svg>
