<svg width="32" height="32" viewBox="0 0 32 32" fill="none" xmlns="http://www.w3.org/2000/svg">
<g id="dumpster-fire-solid">
<g clip-path="url(#clip0)">
<path id="Vector" d="M5 6L3 14H4.33398L4.66602 16H3V18H5L6 24V26H8V24H19.6387C19.9357 23.269 20.3091 22.604 20.7051 22H7.69336L6.36133 14H8.18945H10.25H15H17H21.75H23.8105H25.6387L25.0957 17.2559L26.5547 16.1504C26.5547 16.1504 28.6514 17.881 28.7734 18H29V16H27.332L27.666 14H29L27 6H17H15H5ZM6.5625 8H9.33789L8.57227 12H5.5625L6.5625 8ZM11.3906 8H15V12H10.6309L11.3906 8ZM17 8H20.6094L21.3691 12H17V8ZM22.6621 8H25.4375L26.4375 12H23.4277L22.6621 8ZM26.5293 18.6602L25.8809 19.2207C25.8809 19.2207 24.6607 20.2009 23.4707 21.6309C22.2807 23.0609 21 24.9616 21 27.1016C21 28.6116 21.6302 29.9212 22.6602 30.7812C23.6802 31.6513 25.05 32.1016 26.5 32.1016C27.95 32.1016 29.3198 31.6513 30.3398 30.7812C31.3698 29.9212 32 28.6116 32 27.1016C32 25.1116 30.7093 23.2903 29.5293 21.8203C28.3493 20.3403 27.1895 19.252 27.1895 19.252L26.5293 18.6602ZM26.4707 21.4414C26.8607 21.8214 27.2207 22.1403 27.9707 23.0703C29.0407 24.4103 30 26.1316 30 27.1016C30 28.0816 29.6293 28.7812 29.0293 29.2812C28.8493 29.4412 28.6402 29.5814 28.4102 29.6914C28.4602 29.5014 28.5 29.3016 28.5 29.1016C28.5 26.1516 26.9395 24.4102 26.9395 24.4102C26.9395 24.4102 26.9895 27.041 26.1895 27.041C25.6395 27.041 25.0898 26.1914 25.0898 26.1914C25.0898 26.1914 24.5 27.4516 24.5 29.1016C24.5 29.3016 24.5398 29.5014 24.5898 29.6914C24.3598 29.5814 24.1507 29.4412 23.9707 29.2812C23.3707 28.7812 23 28.0816 23 27.1016C23 25.8416 23.9693 24.1802 25.0293 22.9102C25.7593 22.0402 26.0907 21.7814 26.4707 21.4414Z" fill="black"/>
</g>
</g>
<defs>
<clipPath id="clip0">
<rect width="32" height="32" fill="white"/>
</clipPath>
</defs>
</svg>
