<svg width="32" height="32" viewBox="0 0 32 32" fill="none" xmlns="http://www.w3.org/2000/svg">
<g id="dungeon-solid">
<path id="Vector" d="M16 5C14.962 5 13.9599 5.15473 13.0059 5.42773L14.4473 9.17969C14.9473 9.06569 15.466 9 16 9C16.534 9 17.0527 9.06569 17.5527 9.17969L18.9941 5.42773C18.0401 5.15573 17.038 5 16 5ZM11.1406 6.15234C9.64062 6.89834 8.33345 7.97411 7.31445 9.28711L10.6992 11.4414C10.7949 11.3304 10.8978 11.2259 11 11.1211V11.1309C11.03 11.0809 11.0809 11.03 11.1309 11H11.1133C11.5508 10.5716 12.0422 10.1989 12.5801 9.89648L11.1406 6.15234ZM20.8594 6.15234L19.4199 9.89844C19.9552 10.1998 20.4409 10.5743 20.877 11H20.8691C20.9191 11.03 20.97 11.0809 21 11.1309V11.1152C21.1666 11.2859 21.3259 11.4634 21.4746 11.6504L24.9395 9.62891C23.8885 8.16091 22.4884 6.96234 20.8594 6.15234ZM6.23438 10.9707C5.45138 12.4817 5 14.189 5 16H9C9 14.976 9.22705 14.0059 9.62305 13.1289L6.23438 10.9707ZM16 11C15.66 11 15.32 11.0296 15 11.0996V25H17V11.0996C16.68 11.0296 16.34 11 16 11ZM25.9492 11.3535L22.4844 13.375C22.8134 14.187 23 15.072 23 16H27C27 14.34 26.6152 12.7685 25.9492 11.3535ZM13 12C11.79 12.91 11 14.37 11 16V25H13V12ZM19 12V25H21V16C21 14.37 20.21 12.91 19 12ZM5 18V22H9V18H5ZM23 18V22H27V18H23ZM5 24V27H9V24H5ZM23 24V27H27V24H23Z" fill="black"/>
</g>
</svg>
