<svg width="32" height="32" viewBox="0 0 32 32" fill="none" xmlns="http://www.w3.org/2000/svg">
<g id="earlybirds">
<path id="Vector" d="M14.8496 3.99999C14.7996 4.02999 14.2307 5.02092 14.9707 5.96092C13.2407 6.29092 12.0108 7.23905 11.0508 8.28905C9.10078 8.35905 6.95015 8.43092 6.66015 9.96092C6.53015 9.99092 6.09906 9.99983 6.03906 10.0898C6.02906 10.1098 5.93968 10.4801 5.92968 10.8301C5.94968 11.5101 6.25031 12.0692 7.07031 11.9492C7.29031 13.1192 7.14961 13.9291 7.84961 14.8691C7.78961 15.1891 7.7507 15.5101 7.7207 15.8301C5.4207 16.9401 3.64015 17.6608 4.16015 19.1308C4.68015 20.3908 6.56929 19.9598 7.77929 19.3398C8.32929 22.3998 10.3898 24.3105 13.3398 25.0605C11.6198 24.9905 10.4598 24.9902 10.3398 24.9902C9.32984 24.9902 9.32984 26.5098 10.3398 26.5098C10.4498 26.5098 11.4995 26.3508 13.2695 26.3008L13.2207 26.9004C13.1307 27.6404 14.1302 27.9703 14.4902 27.3203C14.4902 28.2103 15.8294 28.2398 15.8594 27.3398L15.8906 27.0898C15.9506 28.1898 17.2998 28.0006 17.2598 27.1406C17.4598 28.0106 18.7796 27.7098 18.5996 26.8398L18.5508 26.2793C20.0908 26.2293 22.1941 26.2639 24.4141 25.7539C25.6041 25.4739 26.0034 25.3446 26.6934 25.2246C27.4034 25.1346 26.6749 24.544 26.5449 24.584C26.4649 24.614 26.2942 24.6436 26.0742 24.6836C26.7242 24.0236 26.4843 23.0637 26.4043 23.0137C26.3143 22.9537 25.3534 23.0638 24.9434 23.6738C24.6034 23.1938 23.9645 23.0733 23.8945 23.1133C23.8245 23.1633 23.413 24.2931 24.373 24.9531C22.743 25.1931 21.1102 25.32 19.4902 25.25C18.2302 25.2 18.3403 25.2492 18.3203 25.1992C21.6203 24.5792 23.7797 22.5394 24.4297 19.1894C25.5597 19.7794 27.4204 20.4901 27.9004 19.3301C28.3804 18.1501 26.3994 17.2395 24.6094 16.0195C24.5694 15.4095 24.4909 14.82 24.3809 14.25C24.6709 13.54 24.6408 12.7792 24.8008 11.9492C25.6108 12.0592 25.9095 11.5001 25.9395 10.8301C25.9195 10.4801 25.8403 10.1101 25.8203 10.0801C25.7703 10.0001 25.3409 9.99092 25.2109 9.96092C24.9509 8.60092 23.2305 8.39053 21.4805 8.31053C20.3305 7.06053 18.7801 6.02936 16.8301 5.85936C17.3801 5.32936 17.1203 4.63936 17.0703 4.60936C17.0103 4.56936 16.3791 4.70084 16.1191 5.13084C15.8791 4.21084 14.9296 3.96999 14.8496 3.99999ZM20.7305 5.01366C20.1427 4.95131 19.5841 5.09553 19.5391 5.56053C19.4991 6.76053 20.8805 5.52084 22.2305 5.88084C22.5805 5.61084 21.3605 5.16061 21.3105 5.14061C21.1255 5.07811 20.9264 5.03444 20.7305 5.01366ZM11.4668 5.01561C11.2515 5.03874 11.0326 5.08624 10.8301 5.15624C10.7801 5.17624 9.44031 5.66678 9.82031 5.96678C11.3103 5.57678 12.8193 6.93717 12.7793 5.61717C12.7268 5.10717 12.1127 4.94624 11.4668 5.01561ZM12.0527 9.52538C13.4107 9.55992 14.4597 9.88942 14.4297 11.3984C14.4397 12.2404 14.1207 14.064 13.7207 14.498C13.1007 15.178 10.0191 15.0383 9.53906 14.8203C8.70906 14.4423 7.86992 11.1534 8.41992 10.1894C8.73992 9.64144 9.56914 9.60363 10.6191 9.55663C11.1116 9.53538 11.6001 9.51386 12.0527 9.52538ZM19.8457 9.52928C20.2916 9.51778 20.7723 9.53928 21.2598 9.56053C22.3098 9.60753 23.1898 9.64534 23.5098 10.1933C24.0998 11.2213 23.0901 14.4791 22.3301 14.8281C21.8601 15.0361 18.7802 15.177 18.1602 14.498C17.7602 14.064 17.4895 12.2404 17.5195 11.4004C17.482 9.89213 18.5079 9.56378 19.8457 9.52928ZM12.0059 11C11.4519 11 11 11.454 11 12C11 12.558 11.4519 13 12.0059 13C12.5479 13 13 12.558 13 12C13 11.455 12.5479 11 12.0059 11ZM19.9941 11C19.4521 11 19 11.454 19 12C19 12.558 19.4521 13 19.9941 13C20.5481 13 21 12.558 21 12C21 11.455 20.5481 11 19.9941 11ZM15.7852 12.5918C15.8812 12.5708 16.197 12.5708 16.293 12.5918C16.724 12.7298 16.799 13.6306 17 14.2676C16.388 14.4156 16.2928 15 16.0918 15C15.8908 15 15.708 14.5019 15 14.5019C15.287 13.7269 15.3252 12.7398 15.7852 12.5918Z" fill="black"/>
</g>
</svg>
