<svg width="32" height="32" viewBox="0 0 32 32" fill="none" xmlns="http://www.w3.org/2000/svg">
<g id="ebay">
<path id="Vector" d="M8.53124 10V15.8438C8.35546 14.6914 7.62499 13 4.87499 13C1.12499 13 0.980463 15.8789 0.999994 16.625C0.999994 16.625 0.812494 20 4.78124 20C7.71874 20 8.24999 18.4375 8.34374 18H6.74999C6.6289 18.2852 6.16796 19.0586 4.78124 19.0312C2.89062 18.9961 2.58202 17.418 2.53124 17H8.53124V20H9.99999V19.0938C9.99999 19.0938 10.7461 20 12.75 20C14.4492 20 15.8398 19.1016 16.25 17.4375C16.3242 17.1406 16.3672 16.8438 16.375 16.5C16.4141 14.2188 14.668 13.0117 12.7812 13C10.8945 12.9883 9.99999 14.2812 9.99999 14.2812V10H8.53124ZM16.25 17.4375C15.9414 19.4062 17.7266 20.0078 19.125 20C20.5234 19.9922 21.4062 19.582 22 18.8438V20H23.5312V15.6562C23.4922 14.918 23.3828 13.1328 20.125 13C20.125 13 17.0117 12.7188 16.6875 15H18.2812C18.2812 15 18.4102 13.9688 20.0312 14C21.5625 14.0312 22.0078 15.0898 22 16C22 16 20.5 15.9961 20.0625 16C19.2734 16.0039 16.6562 15.9062 16.25 17.4375ZM22.5312 13L26 19.4688L24.6562 22H26.3437L31 13H29.4062L26.8437 18L24.2812 13H22.5312ZM4.84374 14C6.99218 14 6.99999 16 6.99999 16H2.53124C2.53124 16 2.68749 14 4.84374 14ZM12.4375 14C14.8633 13.9375 14.7812 16.5 14.7812 16.5C14.7812 16.5 14.8203 18.9688 12.4375 19C10.0547 19.0312 10.0937 16.4688 10.0937 16.4688C10.0937 16.4688 10.0117 14.0625 12.4375 14ZM19.75 17C19.9687 16.9883 20.125 17 20.125 17H21.8437C21.8437 17 22.125 19.0977 19.4062 19.0625C19.4062 19.0625 17.8711 19.0664 17.7812 17.875C17.7812 17.2109 19.0937 17.0352 19.75 17Z" fill="black"/>
</g>
</svg>
