<svg width="32" height="32" viewBox="0 0 32 32" fill="none" xmlns="http://www.w3.org/2000/svg">
<g id="edge">
<path id="Vector" d="M9.96094 10.8281C7.34375 12.457 5.84766 14.7695 5.84766 14.7695C5.84766 14.7695 6.23438 9.91797 9.96094 7.07422C11.4414 5.94531 13.4688 5 16.1914 5C17.2148 5 19.3594 5.17969 21.293 6.37109C23.2266 7.5625 24.0078 8.55859 24.8789 10.0234C25.2539 10.6523 25.5625 11.4648 25.7539 12.2461C26.1094 13.7109 26.1523 15.4609 26.1523 15.4609V17.7695H12.3359C12.3359 17.7695 12 22.4102 18.3555 22.4102C20.5625 22.4102 21.3398 22.0625 22.0664 21.8477C23.2031 21.5117 24.3008 20.7617 24.3008 20.7617L24.3047 25.3984C24.3047 25.3984 21.7031 27 17.7734 27C16.668 27 15.5039 26.9062 14.3789 26.543C13.3945 26.2227 11.3398 25.3633 9.96094 23.3477C9.47266 22.6367 8.94531 21.6875 8.68359 20.7617C8.39844 19.7578 8.40234 18.7852 8.40234 18.2461C8.40234 16.2422 9.08984 14.3281 10.2773 12.9414C11.8164 11.1484 13.7656 10.3594 13.7656 10.3594C13.7656 10.3594 13.1328 11.0977 12.7422 12.0195C12.3516 12.9414 12.2422 13.8672 12.2422 13.8672H20.0469C20.0469 13.8672 20.5039 9.20312 15.6328 9.20312C13.7969 9.20312 11.543 9.84375 9.96094 10.8281Z" fill="black"/>
</g>
</svg>
