<svg width="32" height="32" viewBox="0 0 32 32" fill="none" xmlns="http://www.w3.org/2000/svg">
<g id="edit">
<path id="Vector" d="M25 4.03125C24.2344 4.03125 23.4844 4.32812 22.9062 4.90625L13 14.7812L12.7812 15L12.7188 15.3125L12.0312 18.8125L11.7188 20.2812L13.1875 19.9688L16.6875 19.2812L17 19.2188L17.2188 19L27.0938 9.09375C28.2461 7.94141 28.2461 6.05859 27.0938 4.90625C26.5156 4.32812 25.7656 4.03125 25 4.03125ZM25 5.96875C25.2344 5.96875 25.4648 6.08984 25.6875 6.3125C26.1328 6.75781 26.1328 7.24219 25.6875 7.6875L16 17.375L14.2812 17.7188L14.625 16L24.3125 6.3125C24.5352 6.08984 24.7656 5.96875 25 5.96875ZM4 8V28H24V14.8125L22 16.8125V26H6V10H15.1875L17.1875 8H4Z" fill="black"/>
</g>
</svg>
