<svg width="32" height="32" viewBox="0 0 32 32" fill="none" xmlns="http://www.w3.org/2000/svg">
<g id="egg-solid">
<path id="Vector" d="M16 3C13 3 10.3 5.3 8.3 8.2C6.3 11.1 5 14.7 5 18C5 21.5 6.2 24.3 8.2 26.2C10.3 28 13 29 16 29C19 29 21.7 28.1 23.8 26.2C25.9 24.3 27 21.5 27 18C27 14.7 25.7 11.1 23.7 8.2C21.7 5.3 19 3 16 3ZM16 5C17.9 5 20.2 6.7 22 9.3C23.8 11.9 25 15.3 25 18C25 21.1 24 23.3 22.4 24.7C20.8 26.2 18.6 27 16 27C13.4 27 11.2 26.2 9.6 24.7C8 23.2 7 21 7 18C7 15.2 8.2 11.9 10 9.3C11.8 6.7 14.1 5 16 5Z" fill="black"/>
</g>
</svg>
