<svg width="32" height="32" viewBox="0 0 32 32" fill="none" xmlns="http://www.w3.org/2000/svg">
<g id="ellipsis-h-solid">
<path id="Vector" d="M6 14C4.89453 14 4 14.8945 4 16C4 17.1055 4.89453 18 6 18C7.10547 18 8 17.1055 8 16C8 14.8945 7.10547 14 6 14ZM16 14C14.8945 14 14 14.8945 14 16C14 17.1055 14.8945 18 16 18C17.1055 18 18 17.1055 18 16C18 14.8945 17.1055 14 16 14ZM26 14C24.8945 14 24 14.8945 24 16C24 17.1055 24.8945 18 26 18C27.1055 18 28 17.1055 28 16C28 14.8945 27.1055 14 26 14Z" fill="black"/>
</g>
</svg>
