<svg width="32" height="32" viewBox="0 0 32 32" fill="none" xmlns="http://www.w3.org/2000/svg">
<g id="ello">
<path id="Vector" d="M16 3C8.832 3 3 8.832 3 16C3 23.168 8.832 29 16 29C23.168 29 29 23.168 29 16C29 8.832 23.168 3 16 3ZM16 5C22.065 5 27 9.935 27 16C27 22.065 22.065 27 16 27C9.935 27 5 22.065 5 16C5 9.935 9.935 5 16 5ZM9.08008 17C9.56808 20.387 12.481 23 16 23C19.519 23 22.4319 20.387 22.9199 17H20.8984C20.4334 19.279 18.415 21 16 21C13.585 21 11.5666 19.279 11.1016 17H9.08008Z" fill="black"/>
</g>
</svg>
