<svg width="32" height="32" viewBox="0 0 32 32" fill="none" xmlns="http://www.w3.org/2000/svg">
<g id="ember">
<g clip-path="url(#clip0)">
<path id="Vector" d="M18.0156 7.99799C17.8752 7.9943 17.7338 8.02391 17.5938 8.07416C16.7438 8.41216 16.418 8.914 16.418 8.914C16.418 8.914 15.3175 10.5278 15.0625 12.9218C15.0215 13.3068 14.9786 13.7026 14.9336 14.0996C14.6976 16.1016 14.4336 18.0781 14.4336 18.0781C14.4336 18.0781 13.9088 18.5756 13.4238 18.5996C12.9388 18.6236 13.1524 17.2011 13.1524 17.2011C13.1524 17.2011 13.5289 15.0759 13.5039 14.7109C13.4789 14.3459 13.4478 14.1455 13.0078 14.0195C12.5628 13.8885 12.082 14.4374 12.082 14.4374C12.082 14.4374 10.8073 16.2774 10.6973 16.5644L10.6328 16.6816L10.5684 16.6035C10.5684 16.6035 11.4674 14.037 10.6074 13.998C9.74743 13.959 9.1836 14.914 9.1836 14.914C9.1836 14.914 8.20212 16.5113 8.16212 16.6913L8.09962 16.6152C8.09962 16.6152 8.50493 14.831 8.41993 14.373C8.33993 13.915 7.89454 14.0078 7.89454 14.0078C7.89454 14.0078 7.33056 13.9449 7.18556 14.2949C7.04056 14.6459 6.50056 16.9121 6.43556 17.6621C6.43556 17.6621 5.02571 18.6452 4.09571 18.6542C3.17071 18.6692 3.25977 18.08 3.25977 18.08C3.25977 18.08 6.66048 16.981 5.73048 14.746C5.31548 14.171 4.82954 13.9909 4.14454 13.9999C3.45954 14.0149 2.63009 14.3848 2.08009 15.5878C1.81509 16.1628 1.73946 16.707 1.68946 17.121C1.68946 17.121 1.07501 17.2384 0.750009 16.9804C0.425009 16.7224 0.250009 16.9804 0.250009 16.9804C0.250009 16.9804 -0.31085 17.662 0.24415 17.871C0.79915 18.08 1.6504 18.1679 1.6504 18.1679C1.7304 18.5329 1.96087 19.1162 2.63087 19.6132C3.64087 20.3582 5.57032 19.5507 5.57032 19.5507L6.36524 19.123C6.36524 19.123 6.39071 19.8335 6.97071 19.9355C7.55071 20.0375 7.78993 19.9845 8.79493 17.6035C9.38493 16.3865 9.42579 16.455 9.42579 16.455L9.49024 16.4394C9.49024 16.4394 9.03595 18.7196 9.21095 19.3476C9.38595 19.9706 10.1504 19.9023 10.1504 19.9023C10.1504 19.9023 10.5654 20.0181 10.9004 18.8691C11.2354 17.7201 11.8809 16.4394 11.8809 16.4394H11.9609C11.9609 16.4394 11.6794 18.7829 12.1094 19.5429C12.5394 20.3029 13.6543 19.8007 13.6543 19.8007C13.6543 19.8007 14.4347 19.4197 14.5547 19.3027C14.5547 19.3027 15.4802 20.0726 16.7852 19.9316C19.7002 19.3716 20.7402 18.6699 20.7402 18.6699C20.7402 18.6699 21.2399 19.8586 22.7949 19.9706C24.5699 20.1026 25.5352 19.0644 25.5352 19.0644C25.5352 19.0644 25.5206 19.7216 26.1406 19.9706C26.7606 20.2186 27.1758 18.8593 27.1758 18.8593L28.2109 16.0742H28.3047C28.3047 16.0742 28.3609 17.8907 29.3809 18.1777C30.4009 18.4647 31.7305 17.5117 31.7305 17.5117C31.7305 17.5117 32.0491 17.3404 31.9942 16.8144C31.9382 16.2934 31.459 16.4824 31.459 16.4824C31.459 16.4824 30.6791 17.0718 29.9942 17.0038C29.3092 16.9408 29.5234 15.498 29.5234 15.498C29.5234 15.498 29.6745 14.1295 29.2695 14.0175C28.8645 13.9005 28.3692 14.373 28.3692 14.373C28.3692 14.373 27.7481 14.9878 27.4531 15.8398L27.3731 15.8632C27.3731 15.8632 27.4694 14.3741 27.3594 14.0331C27.2794 13.8631 26.5399 13.8776 26.4199 14.1796C26.2999 14.4816 25.7099 16.5751 25.6699 17.4511C25.6699 17.4511 24.5139 18.4045 23.5039 18.5605C22.4939 18.7165 22.2539 18.1035 22.2539 18.1035C22.2539 18.1035 24.9095 17.5861 24.8145 15.4531C24.7195 13.3201 22.6033 14.1101 22.3633 14.2851C22.1333 14.4551 20.9792 14.9518 20.6192 16.9628C20.6091 17.0308 20.584 17.3281 20.584 17.3281C20.584 17.3281 19.5236 18.0181 18.9336 18.2031C18.9336 18.2031 20.5834 15.4976 18.5684 14.2656C17.9984 13.9346 17.504 14.2414 17.209 14.5234C17.301 14.4084 17.4132 14.2626 17.5332 14.0996C18.2972 13.0246 19.4637 11.0222 19.0527 9.23822C18.8352 8.31647 18.437 8.00905 18.0156 7.99799ZM17.7207 9.3183C17.8031 9.32614 17.8719 9.42372 17.9141 9.65229C18.0941 10.6253 16.7144 13.1295 16.1504 14.1015C16.0074 14.3385 15.9141 14.4863 15.9141 14.4863C15.9171 14.3853 15.932 14.2535 15.957 14.1015C16.129 13.0265 16.7344 10.9374 16.7344 10.9374C16.7344 10.9374 17.3636 9.28434 17.7207 9.3183ZM4.38087 15.1269C4.44411 15.1384 4.49993 15.165 4.54493 15.207C4.90993 15.548 4.77485 16.2451 4.08985 16.7031C3.40485 17.1651 3.09571 17.0722 3.09571 17.0722C3.13071 15.709 3.93817 15.0462 4.38087 15.1269ZM23.1211 15.2206C23.2974 15.2329 23.4043 15.3671 23.4043 15.3671C23.4043 15.3671 23.8749 15.8643 23.3399 16.6093C22.8049 17.3543 22.0195 17.3007 22.0195 17.3007C22.0195 17.3007 21.8708 16.7895 22.4258 15.8105C22.7008 15.3185 22.9449 15.2084 23.1211 15.2206ZM17.2969 15.4531C17.5287 15.4785 17.6934 15.5663 17.6934 15.5663C17.6934 15.5663 18.5031 16.1721 17.8731 17.7831C17.2431 19.3901 15.709 18.7363 15.709 18.7363C15.709 18.7363 15.5343 18.1617 16.0293 16.5507C16.3387 15.5432 16.9106 15.4108 17.2969 15.4531Z" fill="black"/>
</g>
</g>
<defs>
<clipPath id="clip0">
<rect width="32" height="32" fill="white"/>
</clipPath>
</defs>
</svg>
