<svg width="32" height="32" viewBox="0 0 32 32" fill="none" xmlns="http://www.w3.org/2000/svg">
<g id="envira">
<path id="Vector" d="M5 5C7.614 13.976 7.36248 18.1814 11.8965 21.6934C15.8665 24.7185 19.836 23.9295 22.0078 23.6074L25.3984 27H27.3984L23.418 23.0195C23.393 20.6125 29.01 5 5 5ZM8.08398 7.00195C8.21941 7.01311 8.53361 7.12344 9.13086 7.39844C13.1299 9.24744 14.5385 11.9898 16.0625 14.7988C17.1585 16.8208 19.0805 19.9006 20.4355 20.8926C21.7915 21.8756 23.2724 22.602 20.1484 21.291C17.0144 19.98 14.7308 16.2594 13.2168 13.4414C12.0528 11.2794 11.0539 9.28813 8.88086 7.82812C8.88086 7.82812 7.67772 6.96848 8.08398 7.00195Z" fill="black"/>
</g>
</svg>
