<svg width="32" height="32" viewBox="0 0 32 32" fill="none" xmlns="http://www.w3.org/2000/svg">
<g id="eraser-solid">
<path id="Vector" d="M18.9062 4.09375C18.1016 4.09375 17.2656 4.36719 16.625 4.9375V4.96875L16.5937 5L4.90625 16.5938C3.69531 17.8047 3.70312 19.7773 4.84375 21.0625L4.875 21.0938H4.90625L10.9062 27.0938C12.1172 28.3047 14.0898 28.2969 15.375 27.1562V27.125L27 15.5C28.2656 14.2344 28.3047 12.2109 27.0937 11L21.0937 5C20.4883 4.39453 19.7109 4.09375 18.9062 4.09375ZM18.875 6.125C19.1953 6.125 19.4922 6.21094 19.6875 6.40625L25.6875 12.4062C26.0742 12.793 26.1289 13.5586 25.5937 14.0938L20.5625 19.125L12.9062 11.4688L17.9687 6.4375L18 6.40625C18.2539 6.19531 18.5703 6.125 18.875 6.125ZM11.4687 12.9062L19.125 20.5625L14.0312 25.6562C14.0195 25.6641 14.0117 25.6797 14 25.6875C13.4844 26.1172 12.6914 26.0664 12.3125 25.6875L6.34375 19.75C6.32812 19.7305 6.32812 19.707 6.3125 19.6875C5.90234 19.1719 5.9375 18.375 6.3125 18L11.4687 12.9062Z" fill="black"/>
</g>
</svg>
