<svg width="32" height="32" viewBox="0 0 32 32" fill="none" xmlns="http://www.w3.org/2000/svg">
<g id="erlang">
<path id="Vector" d="M2 7V25H6.32031C4.26031 22.35 3 18.84 3 15C3 11.92 4.15078 9.12 6.05078 7H2ZM16 7C15.65 7 15.32 7.04086 15 7.13086C13.27 7.57086 12 9.14 12 11H20C20 8.79 18.21 7 16 7ZM25.6602 7C27.1302 9.27 28 12.03 28 15H26H24H18H16H15H12C12 18.51 13 21.5593 15 23.0293C15.31 23.2693 15.64 23.4594 16 23.6094C16.6 23.8594 17.27 24 18 24C20.97 24 23.5695 22.1807 24.9395 19.4707L26.9609 20.4805L28.5195 21.2598C27.8195 22.6598 26.8991 23.92 25.7891 25H30V22V18V15V7H25.6602Z" fill="black"/>
</g>
</svg>
