<svg width="32" height="32" viewBox="0 0 32 32" fill="none" xmlns="http://www.w3.org/2000/svg">
<g id="ethereum">
<path id="Vector" d="M14.9531 3L6.92969 15.5527L16.0039 20.0137L24.9336 15.5488L17.0527 3H16.5H14.9531ZM15 6.63672V10.9883L11.0859 12.7637L15 6.63672ZM17 6.67773L20.8184 12.7578L17 11.0039V6.67773ZM15 13.1836V17.291L10.6562 15.1543L15 13.1836ZM17 13.207L21.2461 15.1562L17 17.2793V13.207ZM7 17.5117V20.0312L14.9277 28.875H16H17.0723L25 20.0312V17.5117L16 22.125L7 17.5117ZM11.5215 22.0781L15 23.8613V25.957L11.5215 22.0781ZM20.4785 22.0781L17 25.957V23.8613L20.4785 22.0781Z" fill="black"/>
</g>
</svg>
