<svg width="32" height="32" viewBox="0 0 32 32" fill="none" xmlns="http://www.w3.org/2000/svg">
<g id="etsy">
<path id="Vector" d="M23.9688 5C18.7108 5.604 9.77058 5.29959 6.14258 5.18359V6.43555C8.54258 6.88955 9.08867 6.80512 9.13867 8.20312C9.31167 12.0261 9.22667 20.4656 9.13867 24.0176C9.12067 25.3546 8.37458 25.309 6.14258 25.748V27C13.4406 26.767 18.4493 26.789 24.2383 27C24.3123 26.075 24.7536 22.379 24.9336 21H23.7012C22.3092 24.293 22.0406 25.416 19.0586 25.416H14.6758C13.2028 25.416 12.502 24.8131 12.502 23.5371V16.7129C15.768 16.7129 16.8223 16.8105 16.8223 16.8105C18.3173 16.8335 18.55 18.031 19 20H20C19.894 15.167 19.784 16.977 20 12H19C18.352 14.787 18.3097 15.1171 16.8477 15.1641C16.8477 15.1641 15.35 15.3111 12.502 15.2871V7.24609C12.502 6.93909 12.5263 6.76758 13.0293 6.76758H19.7578C21.4658 6.76758 21.8785 8.954 22.3945 11H23.5996C23.6436 10.113 23.8197 6.632 23.9688 5Z" fill="black"/>
</g>
</svg>
