<svg width="32" height="32" viewBox="0 0 32 32" fill="none" xmlns="http://www.w3.org/2000/svg">
<g id="euro-sign-solid">
<path id="Vector" d="M18 4C13.2617 4 9.41406 7.88672 8.3125 13H6V15H8.0625C8.03906 15.3281 8 15.6641 8 16C8 16.3359 8.03906 16.6719 8.0625 17H6V19H8.3125C9.41406 24.1133 13.2617 28 18 28C20.707 28 23.168 26.6953 24.9375 24.6562L23.4062 23.3438C21.9531 25.0195 20.0703 26 18 26C14.4961 26 11.4102 23.1016 10.375 19H19V17H10.0312C10.0039 16.668 10 16.3398 10 16C10 15.6602 10.0039 15.332 10.0312 15H19V13H10.375C11.4102 8.89844 14.4961 6 18 6C20.0703 6 21.9531 6.98047 23.4062 8.65625L24.9375 7.34375C23.168 5.30469 20.707 4 18 4Z" fill="black"/>
</g>
</svg>
