<svg width="32" height="32" viewBox="0 0 32 32" fill="none" xmlns="http://www.w3.org/2000/svg">
<g id="evernote">
<path id="Vector" d="M11.9805 2.99213C11.7852 2.99604 11.5938 3.06245 11.4375 3.17182C11.4102 3.19135 11.3867 3.21088 11.3633 3.22651C11.3594 3.23041 11.3555 3.23432 11.3555 3.23432C11.332 3.25385 11.3125 3.27338 11.293 3.29291C11.2891 3.29682 11.2852 3.30073 11.2813 3.30463L4.29297 10.2929L4.28907 10.2968C4.28516 10.3007 4.28125 10.3046 4.27735 10.3124C4.03907 10.5507 3.9375 10.8945 4.00782 11.2226C4.01953 12.5742 4.27344 15.1249 4.89844 17.582C5.22657 18.871 5.64453 20.1093 6.25 21.1093C6.82422 22.0624 7.67969 22.9023 8.82422 22.9843C8.85547 22.9921 10.1133 23.2421 11.5352 23.371C12.2539 23.4374 13.0117 23.4726 13.7188 23.4179C14.4219 23.3632 15.1016 23.3124 15.707 22.707C15.8477 22.5664 15.9414 22.3906 15.9805 22.1953L16.4063 20.0585C16.4375 20.0976 16.4492 20.1406 16.4805 20.1757C16.8047 20.5624 17.2617 20.9999 18 20.9999H22V18.9999H18.1328C18.1211 18.9921 18.082 18.9687 18.0117 18.8867C17.8633 18.7109 17.668 18.3906 17.5039 18.0585C17.1758 17.3945 16.9531 16.6992 16.9531 16.6992C16.8164 16.2617 16.3984 15.9765 15.9453 16.0039C15.4883 16.0273 15.1094 16.3593 15.0195 16.8046L14.1133 21.3281C14.0469 21.3359 13.9531 21.3945 13.5625 21.4257C13.0508 21.4648 12.3711 21.4374 11.7148 21.3789C10.4063 21.2617 9.19532 21.0195 9.19532 21.0195C9.13282 21.0078 9.06641 20.9999 9 20.9999C8.73828 20.9999 8.39453 20.789 7.96094 20.0781C7.53125 19.3671 7.13672 18.2695 6.83594 17.0898C6.33203 15.1132 6.19922 13.2421 6.13672 11.9999H12C12.5508 11.9999 13 11.5507 13 10.9999V4.99995H15C15.6328 4.99995 16.0859 5.32807 16.457 5.81245C16.8281 6.29682 17 7.02729 17 6.99995C17 7.53901 17.4297 7.98432 17.9688 7.99995C18.8086 8.02729 20.1992 8.07026 21.4219 8.50776C22.6406 8.94135 23.6289 9.64448 24.0313 11.2421C24.4688 12.996 24.7461 17.2773 24.5 20.9335C24.3789 22.7617 24.1289 24.4609 23.7656 25.6054C23.5859 26.1757 23.3672 26.6054 23.2031 26.8164C23.0352 27.0273 23.0156 26.9999 23 26.9999H20.8555C20.3711 26.9999 20 26.6289 20 26.1445C20 25.4999 20.5 24.9999 21.1445 24.9999H22V22.9999H21.1445C19.4219 22.9999 18 24.4218 18 26.1445C18 26.414 18.1055 26.6718 18.2969 26.8593C18.6445 28.039 19.5664 28.9999 20.8555 28.9999H23C23.7344 28.9999 24.3711 28.5664 24.7773 28.0507C25.1797 27.5351 25.4453 26.9179 25.6719 26.207C26.1211 24.789 26.3711 22.9882 26.5 21.0664C26.7539 17.2226 26.5313 13.0039 25.9688 10.7578C25.3984 8.47651 23.7148 7.20307 22.0938 6.62495C20.7148 6.12885 19.5234 6.12495 18.6406 6.0937C18.4883 5.5976 18.4336 5.10541 18.043 4.5937C17.4141 3.77729 16.3672 2.99995 15 2.99995H12.1445C12.0898 2.99213 12.0352 2.98823 11.9805 2.99213ZM11 6.41401V9.99995H7.41407L11 6.41401ZM21.8086 13.9999C20 13.9999 19.9805 15.9101 20 15.9999C21.8086 15.9999 22.3398 16.6601 22.7109 16.9999C22.8789 16.7695 23.6133 13.9999 21.8086 13.9999Z" fill="black"/>
</g>
</svg>
