<svg width="32" height="32" viewBox="0 0 32 32" fill="none" xmlns="http://www.w3.org/2000/svg">
<g id="expeditedssl">
<path id="Vector" d="M16 4C9.38281 4 4 9.38281 4 16C4 22.6172 9.38281 28 16 28C22.6172 28 28 22.6172 28 16C28 9.38281 22.6172 4 16 4ZM16 6C21.5352 6 26 10.4648 26 16C26 21.5352 21.5352 26 16 26C10.4648 26 6 21.5352 6 16C6 10.4648 10.4648 6 16 6ZM16.0312 7.84375C13.5938 7.89062 11.625 9.89453 11.625 12.3438V13.5625C11.625 13.7734 11.7891 13.9375 12 13.9375H12.9375C13.1484 13.9375 13.3125 13.7734 13.3125 13.5625V12.3438C13.3125 10.8203 14.4805 9.52344 16 9.46875C17.5977 9.41016 18.9375 10.6953 18.9375 12.2812V13.5625C18.9375 13.7734 19.1016 13.9375 19.3125 13.9375H20.2188C20.4297 13.9375 20.5938 13.7734 20.5938 13.5625V12.4062C20.5938 9.89062 18.5469 7.79688 16.0312 7.84375ZM10.4375 14.3438C9.97656 14.3438 9.59375 14.6953 9.59375 15.1562V21.625C9.59375 22.0859 9.97656 22.4375 10.4375 22.4375H21.75C22.2109 22.4375 22.5938 22.0859 22.5938 21.625V15.1562C22.5938 14.6953 22.2109 14.3438 21.75 14.3438H10.4375ZM10.5938 15.1562H10.9688C11.0703 15.1562 11.1562 15.2422 11.1562 15.3438V21.4688C11.1562 21.5703 11.0703 21.6562 10.9688 21.6562H10.5938C10.4922 21.6562 10.4062 21.5703 10.4062 21.4688V15.3438C10.4062 15.2422 10.4922 15.1562 10.5938 15.1562ZM16.0625 15.9688C16.9414 15.9688 17.6562 16.6836 17.6562 17.5625C17.6562 18.1523 17.3477 18.6602 16.875 18.9375V20.4375C16.875 20.6562 16.6875 20.8125 16.4688 20.8125H15.6562C15.4375 20.8125 15.25 20.6562 15.25 20.4375V18.9375C14.7773 18.6602 14.4688 18.1523 14.4688 17.5625C14.4688 16.6836 15.1836 15.9688 16.0625 15.9688Z" fill="black"/>
</g>
</svg>
