<svg width="32" height="32" viewBox="0 0 32 32" fill="none" xmlns="http://www.w3.org/2000/svg">
<g id="eye-slash-solid">
<path id="Vector" d="M3.71875 2.28125L2.28125 3.71875L8.46875 9.875L21.4375 22.8438L28.2812 29.7188L29.7188 28.2812L23.375 21.9375C27.4727 19.8516 30.5273 16.9102 30.7188 16.7188L31.375 16.0625L30.75 15.3438C30.4922 15.043 24.3945 8 16 8C14.0078 8 12.1523 8.41797 10.4688 9.03125L3.71875 2.28125ZM16 10C18.1641 10 20.1602 10.5547 21.9375 11.3438C22.6133 12.4453 23 13.6992 23 15C23 16.8164 22.3008 18.4688 21.1562 19.7188L18.3125 16.875C18.7266 16.3633 19 15.7109 19 15C19 13.3477 17.6523 12 16 12C15.2891 12 14.6367 12.2734 14.125 12.6875L12.0625 10.625C13.3008 10.2539 14.6094 10 16 10ZM6.625 10.875C3.38672 12.8633 1.39453 15.1719 1.25 15.3438L0.625 16.0625L1.28125 16.7188C1.56641 17.0039 8.09766 23.3828 15.0625 23.9375H15.125C15.4141 23.9609 15.7109 24 16 24C16.2891 24 16.5859 23.9609 16.875 23.9375H16.9375C17.7344 23.875 18.5352 23.7305 19.3125 23.5312L17.5938 21.8125C17.3438 21.8711 17.0742 21.9102 16.8125 21.9375L16.6875 21.9688C16.2188 22.0078 15.7773 22.0078 15.3125 21.9688L15.2188 21.9375C11.6797 21.5391 9 18.5664 9 15C9 14.4648 9.06641 13.9492 9.1875 13.4375L6.625 10.875ZM7.28125 12.8438C7.10547 13.5469 7 14.2617 7 15C7 16.6133 7.4375 18.1211 8.1875 19.4375C6.06641 18.1758 4.32031 16.75 3.40625 15.9375C4.15234 15.1953 5.50781 13.9883 7.28125 12.8438ZM24.7188 12.8438C26.4922 13.9883 27.8164 15.2266 28.5625 15.9688C27.6484 16.7812 25.9336 18.1758 23.8125 19.4375C24.5625 18.1211 25 16.6133 25 15C25 14.2656 24.8906 13.5469 24.7188 12.8438ZM16 14C16.5508 14 17 14.4492 17 15C17 15.1641 16.9453 15.3008 16.875 15.4375L15.5625 14.125C15.6992 14.0547 15.8359 14 16 14Z" fill="black"/>
</g>
</svg>
