<svg width="32" height="32" viewBox="0 0 32 32" fill="none" xmlns="http://www.w3.org/2000/svg">
<g id="eye-dropper-solid">
<path id="Vector" d="M24.6562 3.03125C23.5469 3.03125 22.4336 3.44141 21.5938 4.28125L18.8125 7.09375L17.8125 6.09375L16.4062 7.5L17.4062 8.5L7.90625 18C6.86719 19.0391 6.27344 19.793 5.90625 20.4688C5.53906 21.1445 5.41016 21.7539 5.34375 22.1562C5.27734 22.5586 5.24219 22.7773 5 23.2188C4.75781 23.6602 4.26562 24.2969 3.28125 25.2812L2.59375 26L3.28125 26.7188L5.28125 28.7188L6 29.4062L6.71875 28.7188C7.67969 27.7578 8.29297 27.293 8.71875 27.0625C9.14453 26.832 9.37109 26.7891 9.78125 26.7188C10.1914 26.6484 10.7812 26.5352 11.4688 26.1562C12.1562 25.7773 12.9375 25.1562 14 24.0938L23.5 14.5938L24.5 15.5938L25.9062 14.1875L24.9062 13.1875L27.7188 10.4062C29.3984 8.72656 29.3984 5.96094 27.7188 4.28125C26.8789 3.44141 25.7656 3.03125 24.6562 3.03125ZM24.6562 5.03125C25.2461 5.03125 25.8203 5.25781 26.2812 5.71875C27.1992 6.63672 27.1992 8.08203 26.2812 9L23.5 11.7812L20.2188 8.5L23 5.71875C23.4609 5.25781 24.0664 5.03125 24.6562 5.03125ZM18.8125 9.90625L22.0938 13.1875L12.5938 22.6875C11.6094 23.6719 10.9414 24.1641 10.5 24.4062C10.0586 24.6484 9.83984 24.6836 9.4375 24.75C9.03516 24.8164 8.45703 24.9141 7.78125 25.2812C7.32031 25.5312 6.69531 26.1289 6.09375 26.6562L5.34375 25.9062C5.89062 25.2891 6.49219 24.6562 6.75 24.1875C7.12891 23.5 7.24219 22.8789 7.3125 22.4688C7.38281 22.0586 7.42578 21.8633 7.65625 21.4375C7.88672 21.0117 8.35156 20.3672 9.3125 19.4062L18.8125 9.90625Z" fill="black"/>
</g>
</svg>
