<svg width="32" height="32" viewBox="0 0 32 32" fill="none" xmlns="http://www.w3.org/2000/svg">
<g id="eye-slash">
<path id="Vector" d="M3.71875 2.28125L2.28125 3.71875L8.5 9.90625L19.5938 21L21.5 22.9375L28.2812 29.7188L29.7188 28.2812L23.5 22.0625C27.7344 19.9648 30.5742 16.8516 30.75 16.6562L31.3438 16L30.75 15.3438C30.4805 15.043 24.0859 8 16 8C14.043 8 12.1953 8.42969 10.5 9.0625L3.71875 2.28125ZM16 10C18.1523 10 20.1875 10.6055 22 11.4375C22.6445 12.5156 23 13.7344 23 15C23 16.8164 22.2969 18.4766 21.1562 19.7188L18.3125 16.875C18.7305 16.3633 19 15.7148 19 15C19 13.3438 17.6562 12 16 12C15.2852 12 14.6367 12.2695 14.125 12.6875L12.0938 10.6562C13.3359 10.2734 14.6367 10 16 10ZM6.6875 10.9062C3.48047 12.8789 1.39844 15.1758 1.25 15.3438L0.65625 16L1.25 16.6562C1.50781 16.9453 7.42969 23.4258 15.0625 23.9375C15.3711 23.9688 15.6836 24 16 24C16.3164 24 16.6289 23.9688 16.9375 23.9375C17.7617 23.8828 18.5664 23.7734 19.3438 23.5938L17.5625 21.8125C17.0547 21.9297 16.5391 22 16 22C12.1406 22 9 18.8594 9 15C9 14.4688 9.07031 13.9492 9.1875 13.4375L6.6875 10.9062ZM7.25 12.9375C7.08984 13.6133 7 14.3008 7 15C7 16.7383 7.48828 18.3398 8.34375 19.7188C6.05469 18.4062 4.30469 16.8672 3.40625 16C4.15234 15.2773 5.49609 14.0781 7.25 12.9375ZM24.75 12.9375C26.5039 14.0781 27.8438 15.2773 28.5938 16C27.6953 16.8672 25.918 18.4375 23.625 19.75C24.4844 18.3711 25 16.7383 25 15C25 14.3008 24.9102 13.6094 24.75 12.9375Z" fill="black"/>
</g>
</svg>
