<svg width="32" height="32" viewBox="0 0 32 32" fill="none" xmlns="http://www.w3.org/2000/svg">
<g id="facebook-square">
<path id="Vector" d="M7 5C5.90625 5 5 5.90625 5 7V25C5 26.0938 5.90625 27 7 27H25C26.0938 27 27 26.0938 27 25V7C27 5.90625 26.0938 5 25 5H7ZM7 7H25V25H19.8125V18.25H22.4062L22.7812 15.25H19.8125V13.3125C19.8125 12.4375 20.0273 11.8438 21.2812 11.8438H22.9062V9.125C22.6289 9.08984 21.668 9.03125 20.5625 9.03125C18.2578 9.03125 16.6875 10.418 16.6875 13V15.25H14.0625V18.25H16.6875V25H7V7Z" fill="black"/>
</g>
</svg>
