<svg width="32" height="32" viewBox="0 0 32 32" fill="none" xmlns="http://www.w3.org/2000/svg">
<g id="facebook-messenger">
<path id="Vector" d="M16 4C9.41016 4 4 9.13672 4 15.5C4 18.8906 5.57031 21.9023 8 24V28.625L12.4375 26.4062C13.5664 26.7461 14.7461 27 16 27C22.5898 27 28 21.8633 28 15.5C28 9.13672 22.5898 4 16 4ZM16 6C21.5586 6 26 10.2656 26 15.5C26 20.7344 21.5586 25 16 25C14.8047 25 13.6641 24.7734 12.5938 24.4062L12.1875 24.2812L10 25.375V23.125L9.625 22.8125C7.40625 21.0625 6 18.4414 6 15.5C6 10.2656 10.4414 6 16 6ZM14.875 12.3438L8.84375 18.7188L14.25 15.7188L17.125 18.8125L23.0938 12.3438L17.8125 15.3125L14.875 12.3438Z" fill="black"/>
</g>
</svg>
