<svg width="32" height="32" viewBox="0 0 32 32" fill="none" xmlns="http://www.w3.org/2000/svg">
<g id="facebook">
<path id="Vector" d="M16 4C9.38443 4 4 9.38443 4 16C4 22.6156 9.38443 28 16 28C22.6156 28 28 22.6156 28 16C28 9.38443 22.6156 4 16 4ZM16 6C21.5347 6 26 10.4653 26 16C26 21.0274 22.3117 25.1613 17.4883 25.8789V18.916H20.3359L20.7832 16.0234H17.4883V14.4434C17.4883 13.2424 17.8829 12.1758 19.0059 12.1758H20.8105V9.65234C20.4935 9.60934 19.8227 9.51562 18.5547 9.51562C15.9067 9.51562 14.3555 10.9136 14.3555 14.0996V16.0234H11.6328V18.916H14.3555V25.8535C9.60886 25.0706 6 20.973 6 16C6 10.4653 10.4653 6 16 6Z" fill="black"/>
</g>
</svg>
