<svg width="32" height="32" viewBox="0 0 32 32" fill="none" xmlns="http://www.w3.org/2000/svg">
<g id="fantasy-flight-games">
<path id="Vector" d="M16 2L2 16L16 30L30 16L16 2ZM16 4.00977L28 16L16 28L4 16L16 4.00977ZM16 6L6 16L16 26L26 16L16 6ZM16.3105 10.0098C16.9884 10.0603 17.6304 10.3134 18.2012 10.7383C19.3102 11.5653 21.0057 13.4023 21.0137 13.4023C21.0387 13.4353 21.0641 13.5336 21.0391 13.5586C20.5261 14.0966 20.0134 14.6259 19.5254 15.1309C17.9784 13.6669 17.6882 13.3927 17.3242 13.1367C16.5212 12.5657 15.455 12.6821 14.752 13.3691C14.653 13.4681 14.669 13.5264 14.752 13.6094C14.884 13.7504 16.0248 14.8905 16.3398 15.2305C15.8018 15.7595 15.2726 16.2727 14.7266 16.8027C14.1806 16.2317 13.6183 15.6452 13.0723 15.0742C12.1043 16.0342 11.1864 16.9369 10.2754 17.8379C9.65439 17.2259 9.03311 16.6042 8.41211 15.9922C8.50311 15.9012 8.95025 15.438 12.7812 11.582C13.95 10.4033 15.1808 9.92558 16.3105 10.0098ZM21.7344 14.1895C22.3554 14.7935 22.9679 15.39 23.5879 16.002C22.6779 16.945 19.8901 19.7418 19.0371 20.5938C17.4311 22.1898 15.5033 22.3135 14.1953 21.5195C13.1943 20.9075 12.4165 20.0622 10.8945 18.4902C11.4405 17.9272 11.971 17.3915 12.5 16.8535C13.989 18.2935 14.1715 18.4749 14.5195 18.7559C15.3555 19.4179 16.446 19.3688 17.207 18.6738C17.372 18.5168 17.372 18.5078 17.207 18.3418C16.727 17.8618 16.2483 17.3747 15.7773 16.8867C15.7113 16.8287 15.6363 16.7787 15.7363 16.6797C16.2243 16.1917 16.7114 15.7028 17.1914 15.2148C17.2084 15.2068 17.2252 15.1971 17.2832 15.1641C17.8372 15.7511 18.4079 16.3409 18.9629 16.9199C19.9139 15.9849 20.8324 15.0825 21.7344 14.1895Z" fill="black"/>
</g>
</svg>
