<svg width="32" height="32" viewBox="0 0 32 32" fill="none" xmlns="http://www.w3.org/2000/svg">
<g id="fax-solid">
<path id="Vector" d="M12 5V10H10V8H4V26H6V27C6 28.6445 7.35547 30 9 30C10.6445 30 12 28.6445 12 27V26H28V10H24V5H12ZM14 7H22V12H14V7ZM6 10H8V24H6V10ZM10 12H12V14H24V12H26V24H10V12ZM13 16V18H15V16H13ZM17 16V18H19V16H17ZM21 16V18H23V16H21ZM13 20V22H15V20H13ZM17 20V22H19V20H17ZM21 20V22H23V20H21ZM8 26H10V27C10 27.5547 9.55469 28 9 28C8.44531 28 8 27.5547 8 27V26Z" fill="black"/>
</g>
</svg>
