<svg width="32" height="32" viewBox="0 0 32 32" fill="none" xmlns="http://www.w3.org/2000/svg">
<g id="feather-alt-solid">
<path id="Vector" d="M27 4C18.197 4 13.7985 8.79461 11.6855 11.0996L8.63672 14.1758C6.93572 15.8748 6 18.1341 6 20.5391V22L8.02734 19.9727C8.15934 18.3167 8.86287 16.7758 10.0469 15.5918L13.1602 12.4512C14.9962 10.4492 18.7286 6.37844 25.9746 6.02344C25.7532 10.5447 24.0859 13.6968 22.377 15.875L19 17H21.418C20.7237 17.7564 20.0666 18.365 19.5488 18.8398L18.5684 19.8105L15 21H17.3672L16.4102 21.9473C15.0882 23.2693 13.3309 23.998 11.4609 23.998H9.41602L18.707 14.707L17.293 13.293L4 26.5859L5.41406 28L7.41602 25.998H11.4609C13.8649 25.998 16.1251 25.0614 17.8281 23.3574L20.8984 20.3125C23.2034 18.2015 28 13.804 28 5V4H27Z" fill="black"/>
</g>
</svg>
