<svg width="32" height="32" viewBox="0 0 32 32" fill="none" xmlns="http://www.w3.org/2000/svg">
<g id="feather-solid">
<path id="Vector" d="M21.5 4C19.698 4 18.0209 4.72548 16.7969 6.02148L8.63672 14.1758C6.93672 15.8748 6 18.1341 6 20.5391V22L8.02734 19.9727C8.15934 18.3167 8.86378 16.7768 10.0508 15.5898L18.2305 7.41406C19.0925 6.50106 20.254 6 21.5 6C23.981 6 26 8.019 26 10.5C26 11.746 25.4985 12.9061 24.5645 13.7891L22.5332 15.8223L19 17H21.3555L17.5371 20.8203L14 22H16.3535C15.0379 23.2879 13.3054 24 11.4609 24H9.41406L18.707 14.707L17.293 13.293L4 26.5859L5.41406 28L7.41406 26H11.4609C13.8649 26 16.1252 25.0643 17.8242 23.3633L25.957 15.2227C27.275 13.9787 28 12.302 28 10.5C28 6.916 25.084 4 21.5 4Z" fill="black"/>
</g>
</svg>
