<svg width="32" height="32" viewBox="0 0 32 32" fill="none" xmlns="http://www.w3.org/2000/svg">
<g id="fedex">
<path id="Vector" d="M16 11V14.9492H15.9199C15.4399 14.3742 14.8454 14.1758 14.1504 14.1758C12.7304 14.1758 11.6602 15.1904 11.2852 16.5234C10.3852 13.4164 6.41445 13.51 5.18945 15.791V14.5254H2.44922V13.1543H5.44922V11.0059H0V20.6484H2.44922V16.5957H4.89453C4.81953 16.8937 4.7793 17.2138 4.7793 17.5488C4.7793 21.3718 9.90906 22.3271 11.2891 18.7871H9.18945C8.45445 19.8801 6.90039 19.2524 6.90039 18.0234H11.1758C11.3608 19.6184 12.5447 21 14.1797 21C14.8847 21 15.5308 20.6393 15.9258 20.0273H15.9492V20.6484H26.5605L27.6641 19.3418L28.7793 20.6484H32L29.3008 17.4844L31.9648 14.3516H28.8457L27.7598 15.6504L26.6348 14.3535H20.6992V13.5156H23.5059V11H16ZM18.3047 11.4668H23.0547V13.0449H20.25V14.8184H23.0254V16.2871H20.2207V18.627H23.0254V20.1738H18.3047V11.4668ZM23.5352 14.5156L26.0703 17.4961L23.5352 20.4766V18.0918H20.7305V16.8164H23.5352V14.5156ZM24.4492 14.8184H26.4355L27.7656 16.3496L29.0449 14.8184H30.9707L28.6992 17.4844L31 20.1738H28.9746L27.6602 18.6309L26.3555 20.1738H24.4492L26.7305 17.4961L24.4492 14.8184ZM8.15234 15.5996C8.66547 15.6042 9.16906 15.9477 9.28906 16.6172H6.96484C7.11734 15.9292 7.63922 15.595 8.15234 15.5996ZM14.6348 15.8906C16.2648 15.8906 16.3598 19.1758 14.6348 19.1758C12.9048 19.1758 12.9348 15.8906 14.6348 15.8906Z" fill="black"/>
</g>
</svg>
