<svg width="32" height="32" viewBox="0 0 32 32" fill="none" xmlns="http://www.w3.org/2000/svg">
<g id="fedora">
<path id="Vector" d="M16.0469 3.00004C8.87387 2.98304 3.04643 8.78588 3.02343 15.9649L2.99999 25.8496C2.98999 27.5676 4.37384 28.9666 6.08984 28.9766H6.10741L15.9766 29C23.1486 29.017 28.983 23.2142 29 16.0352C29.017 8.85619 23.2199 3.01704 16.0469 3.00004ZM18.918 8.01176H18.9297C19.2587 8.00976 19.5872 8.04808 19.9082 8.12308C20.4492 8.21108 20.8691 8.69919 20.8691 9.28519C20.8691 10.0352 20.1483 10.6324 19.4023 10.4434C18.0763 10.1574 16.212 11.1406 16.207 13.1016L16.2031 15.377C16.2011 15.616 16.3938 15.8105 16.6328 15.8125H16.6348L18.2617 15.8164C19.8347 15.8254 19.8299 18.2121 18.2519 18.2071L16.1894 18.2032L16.1836 20.9141C16.1736 24.2691 13.0666 26.5205 10.0996 25.8965C9.8236 25.8965 9.13671 25.4756 9.13671 24.7246C9.14471 24.0716 9.66926 23.5432 10.3223 23.5332C10.6273 23.5332 10.627 23.6094 11.082 23.6094C12.577 23.6144 13.7938 22.4061 13.7988 20.9121V20.9043L13.8027 18.6289C13.8027 18.4109 13.5841 18.1934 13.3711 18.1934L11.7441 18.1875C10.1661 18.1825 10.172 15.7958 11.75 15.8008L13.8125 15.8067L13.8164 13.0957C13.8214 10.2837 16.105 8.00676 18.918 8.01176ZM20.918 8.42387C22.258 9.00387 23.288 10.1277 23.75 11.5137L21.1211 8.86918C21.0821 8.70818 21.014 8.55787 20.918 8.42387ZM21.1992 9.21879L23.8711 11.9336C23.9571 12.2886 24.0028 12.6526 24.0078 13.0176L21.0156 9.98637C21.1266 9.75837 21.1992 9.54196 21.1992 9.29496V9.21879ZM20.8984 10.168L24.0117 13.3008C23.9997 13.5708 23.9624 13.8396 23.9004 14.1036L20.4199 10.6133C20.6099 10.5003 20.7724 10.349 20.8984 10.168ZM21.2812 11.7891L23.8516 14.3731C23.7886 14.6081 23.712 14.8404 23.623 15.0664L21.625 13.0567C21.612 12.6127 21.4942 12.1781 21.2812 11.7891ZM21.6094 13.3614L23.5215 15.2891C23.4295 15.4911 23.3213 15.6842 23.1973 15.8692L21.4355 14.0977C21.5335 13.8637 21.5924 13.6144 21.6094 13.3614ZM21.3496 14.3164L23.082 16.0547C22.952 16.2307 22.813 16.4005 22.666 16.5625L20.9766 14.8672C21.1206 14.6972 21.2456 14.5134 21.3496 14.3164ZM20.8262 15.0274L22.5156 16.7227C22.3606 16.8767 22.1983 17.0212 22.0273 17.1582L20.3184 15.4395C20.5024 15.3215 20.6732 15.1824 20.8262 15.0274ZM20.0996 15.545L21.8516 17.2832C21.6686 17.4052 21.4703 17.5269 21.2773 17.6328L19.4375 15.7735C19.6745 15.7205 19.9016 15.657 20.0996 15.545ZM10.6113 15.8262C10.4623 15.9922 10.3363 16.1789 10.2383 16.3789L9.82812 15.9668C10.0841 15.8948 10.3453 15.8482 10.6113 15.8262ZM9.58984 16.0293L10.1601 16.6055L10.1172 16.9922C10.1182 17.1992 10.1574 17.4047 10.2324 17.5977L8.92577 16.2813C9.13977 16.1783 9.36184 16.0923 9.58984 16.0293ZM8.70898 16.3887L10.5586 18.2461C10.3216 18.2901 10.091 18.3666 9.87499 18.4746L8.16601 16.7364C8.34001 16.6084 8.52098 16.4937 8.70898 16.3887ZM19.7617 16.418L21.0684 17.7344C20.8554 17.8414 20.6333 17.9273 20.4043 17.9903L19.834 17.4141L19.8789 17.0215C19.8779 16.8145 19.8367 16.611 19.7617 16.418ZM7.97265 16.8614L9.68163 18.5801C9.49863 18.7001 9.32882 18.8392 9.17382 18.9922L7.48437 17.3164C7.63037 17.1484 7.79365 16.9954 7.97265 16.8614ZM7.32812 17.4571L9.01952 19.1524C8.87352 19.3204 8.74848 19.5052 8.64648 19.7032L6.9121 17.9668C7.0471 17.7828 7.18812 17.6171 7.32812 17.4571ZM19.7559 17.6426L20.168 18.0528C19.913 18.1208 19.6527 18.1674 19.3887 18.1934C19.5457 18.0354 19.6699 17.8486 19.7559 17.6426ZM6.79687 18.1504L8.55859 19.9219C8.46059 20.1559 8.40176 20.4052 8.38476 20.6582L6.47265 18.7305C6.56665 18.5295 6.67487 18.3364 6.79687 18.1504ZM6.37109 18.9395L8.36913 20.9629C8.38513 21.4039 8.49535 21.8365 8.69335 22.2305L6.14257 19.6407C6.21057 19.4037 6.28409 19.1765 6.37109 18.9395ZM6.08984 19.8926L9.58593 23.4024C9.40293 23.5134 9.23846 23.6573 9.10546 23.8243L5.98827 20.7168C5.99327 20.4398 6.02684 20.1626 6.08984 19.8926ZM5.98827 21.0215L8.98437 24.0313C8.87137 24.2453 8.81254 24.4836 8.81054 24.7246V24.7774L6.1289 22.0801C6.0379 21.7351 5.99027 21.3795 5.98827 21.0215ZM6.24413 22.5079L8.87304 25.1504C8.91404 25.3094 8.98216 25.4607 9.07616 25.5957C7.73716 25.0147 6.70713 23.8929 6.24413 22.5079Z" fill="black"/>
</g>
</svg>
