<svg width="32" height="32" viewBox="0 0 32 32" fill="none" xmlns="http://www.w3.org/2000/svg">
<g id="female-solid">
<path id="Vector" d="M16 2C13.8008 2 12 3.80078 12 6C12 7.12891 12.4883 8.14453 13.25 8.875C13.0117 9.04688 12.793 9.22656 12.5938 9.4375C11.7539 10.3281 11.2305 11.5156 11 12.8125H11.0312L9.03125 22.8125L8.78125 24H13V30H15V24H17V30H19V24H23.2188L22.9688 22.8125L20.9688 12.8125C20.7383 11.5781 20.2383 10.4023 19.4062 9.5C19.1992 9.27344 18.9688 9.05859 18.7188 8.875C19.4922 8.14453 20 7.13672 20 6C20 3.80078 18.1992 2 16 2ZM16 4C17.1172 4 18 4.88281 18 6C18 7.11719 17.1172 8 16 8C14.8828 8 14 7.11719 14 6C14 4.88281 14.8828 4 16 4ZM16 10C16.8281 10 17.4219 10.3164 17.9375 10.875C18.4531 11.4336 18.8594 12.2617 19.0312 13.1875L20.7812 22H11.2188L12.9688 13.1875H13C13.1758 12.1875 13.5586 11.3477 14.0625 10.8125C14.5664 10.2773 15.1523 10 16 10Z" fill="black"/>
</g>
</svg>
