<svg width="32" height="32" viewBox="0 0 32 32" fill="none" xmlns="http://www.w3.org/2000/svg">
<g id="fighter-jet-solid">
<path id="Vector" d="M7.875 4L8.875 13H8.03125L6.3125 10.4375L6.03125 10H1.78125L2.03125 11.1875L3 16L2.03125 20.8125L1.78125 22H6.03125L6.3125 21.5625L8.03125 19H8.875L7.875 28H11.4062L11.7188 27.7188L20.4375 19H26C27.1562 19 27.8945 18.3281 28.5625 17.7812C29.2305 17.2344 29.7188 16.6875 29.7188 16.6875L30.375 16L29.7188 15.3125C29.7188 15.3125 29.2305 14.7656 28.5625 14.2188C27.8945 13.6719 27.1562 13 26 13H20.4375L11.7188 4.28125L11.4062 4H7.875ZM10.125 6H10.5625L19.2812 14.7188L19.5938 15H26C25.9492 15 26.7266 15.3281 27.2812 15.7812C27.418 15.8945 27.4141 15.8945 27.5312 16C27.4141 16.1055 27.418 16.1055 27.2812 16.2188C26.7266 16.6719 25.9492 17 26 17H19.5938L19.2812 17.2812L10.5625 26H10.125L11.125 17H6.9375L6.65625 17.4375L4.9375 20H4.21875L4.96875 16.1875L5.03125 16L4.96875 15.8125L4.21875 12H4.9375L6.65625 14.5625L6.9375 15H11.125L10.125 6ZM16 7L18 9H20L21 8L20 7H16ZM18 23L16 25H20L21 24L20 23H18Z" fill="black"/>
</g>
</svg>
