<svg width="32" height="32" viewBox="0 0 32 32" fill="none" xmlns="http://www.w3.org/2000/svg">
<g id="figma">
<path id="Vector" d="M12.5 1C9.467 1 7 3.467 7 6.5C7 8.15792 7.74051 9.64316 8.9043 10.6523C7.17737 11.581 6 13.4055 6 15.5C6 17.3606 6.93166 19.0043 8.34961 20C6.93166 20.9957 6 22.6394 6 24.5C6 27.533 8.467 30 11.5 30C14.533 30 17 27.533 17 24.5V19V12H20.5C23.533 12 26 9.533 26 6.5C26 3.467 23.533 1 20.5 1H12.5ZM12.5 3H20.5C22.43 3 24 4.57 24 6.5C24 8.43 22.43 10 20.5 10H17H12.5C10.57 10 9 8.43 9 6.5C9 4.57 10.57 3 12.5 3ZM11.5 12H12.5H15V19H11.5C9.57 19 8 17.43 8 15.5C8 13.57 9.57 12 11.5 12ZM21 12C19.9391 12 18.9217 12.4214 18.1716 13.1716C17.4214 13.9217 17 14.9391 17 16C17 17.0609 17.4214 18.0783 18.1716 18.8284C18.9217 19.5786 19.9391 20 21 20C22.0609 20 23.0783 19.5786 23.8284 18.8284C24.5786 18.0783 25 17.0609 25 16C25 14.9391 24.5786 13.9217 23.8284 13.1716C23.0783 12.4214 22.0609 12 21 12ZM11.5 21H15V24.5C15 26.43 13.43 28 11.5 28C9.57 28 8 26.43 8 24.5C8 22.57 9.57 21 11.5 21Z" fill="black"/>
</g>
</svg>
