<svg width="32" height="32" viewBox="0 0 32 32" fill="none" xmlns="http://www.w3.org/2000/svg">
<g id="file-prescription-solid">
<path id="Vector" d="M6 3V29H26V9.59961L25.6992 9.30078L19.6992 3.30078L19.4004 3H6ZM8 5H18V11H24V27H8V5ZM20 6.40039L22.5996 9H20V6.40039ZM11 11V20H13V17H13.5996L16.0996 21.4004L14 25H16L17 23.1992L18 25H20L18 21.4004L20 18H18L17 19.6992L15.3008 16.6992C16.3008 16.1992 16.9004 15.2 16.9004 14C16.9004 12.4 15.5004 11 13.9004 11H11ZM13 13H14C14.6 13 15 13.4 15 14C15 14.6 14.6 15 14 15H13V13Z" fill="black"/>
</g>
</svg>
