<svg width="32" height="32" viewBox="0 0 32 32" fill="none" xmlns="http://www.w3.org/2000/svg">
<g id="file-archive-solid">
<path id="Vector" d="M6 3V29H26V3H6ZM8 5H15V6H17V5H24V27H8V5ZM15 7V9H17V7H15ZM15 10V12H17V10H15ZM15 13V15.1875C13.8438 15.6055 13 16.707 13 18C13 19.6445 14.3555 21 16 21C17.6445 21 19 19.6445 19 18C19 16.707 18.1562 15.6055 17 15.1875V13H15ZM16 17C16.5625 17 17 17.4375 17 18C17 18.5625 16.5625 19 16 19C15.4375 19 15 18.5625 15 18C15 17.4375 15.4375 17 16 17Z" fill="black"/>
</g>
</svg>
