<svg width="32" height="32" viewBox="0 0 32 32" fill="none" xmlns="http://www.w3.org/2000/svg">
<g id="file-medical-alt-solid">
<path id="Vector" d="M6 3V14H7.36719L8 12.4199V5H18V11H24V27H8V21.2461L7.94727 21.1934L6.75586 20H6V29H26V9.59375L25.7188 9.28125L19.7188 3.28125L19.4062 3H6ZM20 6.4375L22.5625 9H20V6.4375ZM10.9688 10.3867L8.63281 16.2188L8.41406 16H2V18H7.58594L9.36328 19.7812L11.0312 15.6133L14.0312 22.6133L16.1016 17.4375L16.3828 18H18.2695C18.6285 18.617 19.286 19 20 19C21.105 19 22 18.105 22 17C22 15.895 21.105 15 20 15C19.285 15 18.6245 15.383 18.2695 16H17.6172L15.8984 12.5625L13.9688 17.3867L10.9688 10.3867Z" fill="black"/>
</g>
</svg>
