<svg width="32" height="32" viewBox="0 0 32 32" fill="none" xmlns="http://www.w3.org/2000/svg">
<g id="file-contract-solid">
<path id="Vector" d="M6 3V29H26V9.59961L25.6992 9.30078L19.6992 3.30078L19.4004 3H6ZM8 5H18V11H24V27H8V5ZM20 6.40039L22.5996 9H20V6.40039ZM10 9V11H16V9H10ZM10 13V15H22V13H10ZM13.5 16C12.6 16 11.9 16.6008 11.5 17.3008C11.1 18.0008 11 18.9004 11 19.9004C11 20.5004 11.2008 21.0992 11.3008 21.6992C10.9008 21.7992 10.5 22.0996 10 22.0996V24.0996C10.7 24.0996 11.4 24.0008 12 23.8008C12.1 24.0008 12.1008 24.1008 12.3008 24.3008C12.7008 24.7008 13.3 25 14 25C15.6 25 16.6008 23.8996 17.3008 23.0996C17.4008 22.8996 17.4996 22.7992 17.5996 22.6992C17.5996 22.7992 17.5992 22.9 17.6992 23C17.7992 23.2 17.8996 23.3996 18.0996 23.5996C18.2996 23.7996 18.7 24 19 24C19.6 24 19.9992 23.6004 20.1992 23.4004C20.3992 23.2004 20.6008 22.8992 20.8008 22.6992C21.2008 22.2992 21.5004 22 21.9004 22V20C20.7004 20 19.8008 20.7008 19.3008 21.3008C19.3008 21.2008 19.2992 21.1 19.1992 21C19.0992 20.8 19.0008 20.6008 18.8008 20.3008C18.6008 20.0008 18.3 20 18 20C17.2 20 16.8996 20.5008 16.5996 20.8008C16.2996 21.1008 16.0008 21.5004 15.8008 21.9004C15.2008 22.6004 14.8 23 14 23C13.9 23 13.9008 22.9004 13.8008 22.9004C13.9008 22.9004 13.9 22.8008 14 22.8008C15.1 21.9008 16 20.6996 16 19.0996C16 18.2996 15.8004 17.6 15.4004 17C15.0004 16.4 14.3 16 13.5 16ZM13.4004 18C13.7004 18 13.7008 17.9992 13.8008 18.1992C13.9008 18.3992 14 18.6992 14 19.1992C14 19.7992 13.6992 20.4004 13.1992 20.9004C13.1992 20.6004 13 20.2 13 20C13 19.2 13.1008 18.6008 13.3008 18.3008C13.4008 18.1008 13.4004 18 13.4004 18Z" fill="black"/>
</g>
</svg>
