<svg width="32" height="32" viewBox="0 0 32 32" fill="none" xmlns="http://www.w3.org/2000/svg">
<g id="file-image-solid">
<path id="Vector" d="M6 3V29H26V9.59375L25.7188 9.28125L19.7188 3.28125L19.4062 3H6ZM8 5H18V11H24V27H8V5ZM20 6.4375L22.5625 9H20V6.4375ZM21.0938 14C20.543 14 20.0938 14.4492 20.0938 15C20.0938 15.5508 20.543 16 21.0938 16C21.6445 16 22.0938 15.5508 22.0938 15C22.0938 14.4492 21.6445 14 21.0938 14ZM14 15.5938L13.2812 16.2812L9.28125 20.2812L10.7188 21.7188L14 18.4375L16.2812 20.7188L17 21.4062L17.7188 20.7188L19 19.4375L21.2812 21.7188L22.7188 20.2812L19.7188 17.2812L19 16.5938L18.2812 17.2812L17 18.5625L14.7188 16.2812L14 15.5938Z" fill="black"/>
</g>
</svg>
