<svg width="32" height="32" viewBox="0 0 32 32" fill="none" xmlns="http://www.w3.org/2000/svg">
<g id="file-code">
<path id="Vector" d="M6 3V29H26V9.59375L25.7188 9.28125L19.7188 3.28125L19.4062 3H6ZM8 5H18V11H24V27H8V5ZM20 6.4375L22.5625 9H20V6.4375ZM16 13L14 25H16L18 13H16ZM12.2188 15.375L9.71875 18.375L9.1875 19L9.71875 19.625L12.2188 22.625L13.7812 21.375L11.8125 19L13.7812 16.625L12.2188 15.375ZM19.7812 15.375L18.2188 16.625L20.1875 19L18.2188 21.375L19.7812 22.625L22.2812 19.625L22.8125 19L22.2812 18.375L19.7812 15.375Z" fill="black"/>
</g>
</svg>
