<svg width="32" height="32" viewBox="0 0 32 32" fill="none" xmlns="http://www.w3.org/2000/svg">
<g id="file-csv-solid">
<path id="Vector" d="M6 3V10H8V5H24V10H26V3H6ZM9.5 12C8.11719 12 7 13.1172 7 14.5V17.5C7 18.8828 8.11719 20 9.5 20C10.8828 20 12 18.8828 12 17.5V17H10V17.5C10 17.7148 9.71484 18 9.5 18C9.28516 18 9 17.7148 9 17.5V14.5C9 14.2852 9.28516 14 9.5 14C9.71484 14 10 14.2852 10 14.5V15H12V14.5C12 13.1172 10.8828 12 9.5 12ZM15.5 12C14.1172 12 13 13.1172 13 14.5C13 15.8828 14.1172 17 15.5 17C15.7148 17 16 17.2852 16 17.5C16 17.8008 15.8828 18 15.5 18C15.1328 18 15.0742 17.9219 15.0625 17.9062C15.0508 17.8906 15 17.8281 15 17.5938H13C13 18.1602 13.1641 18.7969 13.625 19.2812C14.0859 19.7656 14.7695 20 15.5 20C16.918 20 18 18.8008 18 17.5C18 16.1172 16.8828 15 15.5 15C15.2852 15 15 14.7148 15 14.5C15 14.2852 15.2852 14 15.5 14C15.7656 14 15.8477 14.0625 15.9062 14.125C15.9648 14.1875 16 14.293 16 14.4062H18C18 13.8164 17.7852 13.2148 17.3438 12.75C16.9023 12.2852 16.2344 12 15.5 12ZM19 12V13.1562L19.0625 13.3125L21.0625 19.3125L22 22.1562L22.9375 19.3125L24.9375 13.3125L25 13.1562V12H23V12.875L22 15.875L21 12.875V12H19ZM6 22V29H26V22H24V27H8V22H6Z" fill="black"/>
</g>
</svg>
