<svg width="32" height="32" viewBox="0 0 32 32" fill="none" xmlns="http://www.w3.org/2000/svg">
<g id="file-invoice-dollar-solid">
<path id="Vector" d="M6 3V29H22V27H8V5H18V11H24V13H26V9.59961L25.6992 9.30078L19.6992 3.30078L19.4004 3H6ZM20 6.40039L22.5996 9H20V6.40039ZM10 13V15H22V13H10ZM27 15V17C25.3 17.3 24 18.7 24 20.5C24 22.5 25.5 24 27.5 24H28.5C29.3 24 30 24.7 30 25.5C30 26.3 29.3 27 28.5 27H25V29H27V31H29V29C30.7 28.7 32 27.3 32 25.5C32 23.5 30.5 22 28.5 22H27.5C26.7 22 26 21.3 26 20.5C26 19.7 26.7 19 27.5 19H31V17H29V15H27ZM10 18V20H17V18H10ZM19 18V20H22V18H19ZM10 22V24H17V22H10ZM19 22V24H22V22H19Z" fill="black"/>
</g>
</svg>
