<svg width="32" height="32" viewBox="0 0 32 32" fill="none" xmlns="http://www.w3.org/2000/svg">
<g id="file-word-solid">
<path id="Vector" d="M6 3V29H26V3H6ZM8 5H24V27H8V5ZM18 12V18.5C18 18.7148 17.7148 19 17.5 19C17.457 19 17.5195 19.0469 17.4375 18.9375C17.3555 18.8281 17.2305 18.5508 17.1562 18.25C17.0078 17.6523 17 17 17 17V15H15V19.5C15 19.7148 14.7148 20 14.5 20C14.2852 20 14 19.7148 14 19.5V13H10V15H12V19.5C12 20.8828 13.1172 22 14.5 22C15.4844 22 16.1875 21.3555 16.5938 20.5312C16.8945 20.7188 17.1133 21 17.5 21C18.8828 21 20 19.8828 20 18.5V14H22V12H18Z" fill="black"/>
</g>
</svg>
