<svg width="32" height="32" viewBox="0 0 32 32" fill="none" xmlns="http://www.w3.org/2000/svg">
<g id="fill-drip-solid">
<path id="Vector" d="M11.3008 3.30078L9.9004 4.69922L11.6992 6.5L4.80079 13.4004C3.60079 14.6004 3.60079 16.4992 4.80079 17.6992L4.9004 17.8008L11.1992 24.0996C12.3992 25.2996 14.3 25.2996 15.5 24.0996L23.0996 16.5L23.8008 15.8008L14.0996 6.09961L13.3008 5.30078L13.0996 5.09961L11.3008 3.30078ZM13.0996 7.90039L21 15.8008L18.8008 18H7.89844L6.19922 16.3008C5.79922 15.9008 5.79922 15.2008 6.19922 14.8008L13.0996 7.90039ZM25 19.3008L24.1992 20.5C24.1992 20.5 23.6996 21.2992 23.0996 22.1992C22.7996 22.6992 22.6004 23.0996 22.4004 23.5996C22.2004 24.0996 22 24.4 22 25C22 26.6 23.4 28 25 28C26.6 28 28 26.6 28 25C28 24.4 27.7996 24 27.5996 23.5C27.3996 23 27.1004 22.4996 26.9004 22.0996C26.4004 21.1996 25.8008 20.4004 25.8008 20.4004L25 19.3008Z" fill="black"/>
</g>
</svg>
