<svg width="32" height="32" viewBox="0 0 32 32" fill="none" xmlns="http://www.w3.org/2000/svg">
<g id="fingerprint-solid">
<path id="Vector" d="M16 4C15.7383 4 15.5039 4.01562 15.25 4.03125C13.8438 4.10938 12.4688 4.39844 11.1875 4.90625L11.9375 6.78125C13.0156 6.35156 14.1523 6.09766 15.3438 6.03125C15.5508 6.01953 15.7734 6 16 6C17.8828 6 19.6641 6.47656 21.2188 7.3125L22.1562 5.5625C20.3203 4.57422 18.2188 4 16 4ZM9.5 5.71875C8.32422 6.39844 7.24219 7.27344 6.3125 8.3125C5.89844 8.77344 5.53516 9.29297 5.1875 9.8125C4.80469 10.3828 4.47266 10.9805 4.1875 11.5938L6 12.4062C6.23828 11.8906 6.51953 11.3945 6.84375 10.9062C7.13672 10.4648 7.46484 10.043 7.8125 9.65625C8.60547 8.76953 9.51172 8.04297 10.5 7.46875L9.5 5.71875ZM23.9688 6.71875L22.75 8.3125C25.1914 10.207 26.7891 13.0938 26.9688 16.4062C26.9727 16.4688 27.0156 17.0156 26.9688 17.9375L28.9688 18.0625C29.0195 17.0586 28.9766 16.3984 28.9688 16.2812C28.7578 12.3789 26.8516 8.95312 23.9688 6.71875ZM16 7V9C20.25 9 23.7695 12.3125 24 16.5625C24.0078 16.6758 24.1289 19.6289 23 23.1875L24.9062 23.7812C26.1445 19.8789 26.0156 16.75 26 16.4688C25.7148 11.1758 21.293 7 16 7ZM14.1562 7.15625C12.0039 7.55078 10.0508 8.65234 8.5625 10.3125C8.24219 10.668 7.92578 11.0664 7.65625 11.4688H7.6875V11.5C6.51953 13.2617 5.90234 15.3008 6 17.4062C6 17.4258 6 17.4492 6 17.4688V17.9688L8 18.0312V17.375C7.91016 15.6602 8.38281 14 9.34375 12.5625C9.55469 12.2422 9.77734 11.9375 10.0312 11.6562C11.2305 10.3164 12.8125 9.44141 14.5312 9.125L14.1562 7.15625ZM15.5938 10C14.0039 10.0859 12.5234 10.7227 11.3438 11.7812L12.6562 13.2812C13.5039 12.5195 14.582 12.0625 15.7188 12C15.8242 11.9922 15.9023 12 16 12C16.582 12 17.1406 12.0977 17.6562 12.2812L18.3438 10.4062C17.6172 10.1484 16.8086 10 16 10C15.8555 10 15.7305 9.99219 15.5938 10ZM19.875 11.1562L18.7812 12.8438C20.0508 13.6914 20.9102 15.0781 21 16.7188L23 16.625C22.875 14.3438 21.6523 12.3398 19.875 11.1562ZM15.7812 13C14.7266 13.0586 13.7383 13.5547 13.0312 14.3438C12.3242 15.1328 11.9414 16.1602 12 17.2188C12 17.2148 12.0508 18.3438 11.5938 19.6562C11.1367 20.9688 10.2227 22.4492 8.25 23.4062C8.25 23.4062 7.95703 23.5391 7.625 23.6875C7.29297 23.8359 6.875 24.0078 6.78125 24.0312L7.21875 25.9688C7.66406 25.8672 8.09375 25.668 8.46875 25.5C8.84375 25.332 9.125 25.1875 9.125 25.1875C11.625 23.9766 12.8867 21.9805 13.4688 20.3125C14.0508 18.6445 14.0078 17.3164 14 17.125V17.0938C13.9688 16.5547 14.1367 16.0586 14.5 15.6562C14.8633 15.25 15.3477 15.0273 15.875 15C15.9258 14.9961 15.9648 15 16 15V13C15.918 13 15.8516 12.9961 15.7812 13ZM10.1562 13.125C9.32812 14.3633 8.92578 15.8398 9 17.3438C9 17.3555 9 17.3633 9 17.375C9.00391 17.457 9.08984 19.6406 6.9375 20.6875C6.89062 20.707 6.14453 21 5 21V23C6.56641 23 7.75 22.5312 7.75 22.5312H7.78125L7.8125 22.5C11.0352 20.9375 11.0039 17.4609 11 17.2812V17.25C10.9414 16.1602 11.25 15.1406 11.8438 14.25L10.1562 13.125ZM17.9062 13.4688L16.9375 15.25C17.5312 15.5703 17.9609 16.1523 18 16.875C18.0078 17.0391 18.2852 23.2617 13.375 27.2188L14.625 28.7812C20.3438 24.1758 20.0273 17.25 20 16.7812C19.9258 15.3516 19.0977 14.1094 17.9062 13.4688ZM16 16C15.4492 16 15 16.4492 15 17C15 17.0234 15 17.043 15 17.0625C15 17.0625 15.1172 19.1211 14.0938 21.4375L15.9062 22.25C17.0898 19.5742 17.0078 17.1719 17 17C17 16.9766 17 16.957 17 16.9375C16.9648 16.4141 16.5312 16 16 16ZM20.9688 17.9375C20.8438 19.9688 20.2031 24.1328 17.25 27.625L18.75 28.9062C22.1133 24.9336 22.8281 20.3477 22.9688 18.0625L20.9688 17.9375ZM13.5625 22.5C12.7617 23.8477 11.5234 25.1445 9.5625 26.0938L10.4375 27.9062C12.7578 26.7812 14.3086 25.1367 15.2812 23.5L13.5625 22.5Z" fill="black"/>
</g>
</svg>
