<svg width="32" height="32" viewBox="0 0 32 32" fill="none" xmlns="http://www.w3.org/2000/svg">
<g id="fire-extinguisher-solid">
<path id="Vector" d="M16 4C14.707 4 13.6055 4.84375 13.1875 6H12C9.25391 6 7 8.25391 7 11H9C9 9.34375 10.3438 8 12 8H13V10.4688C12.6797 10.707 12.2656 11.0469 11.7812 11.5312C10.9531 12.3594 10 13.5 10 15V28H22V15C22 13.5 21.0469 12.3594 20.2188 11.5312C19.7344 11.0469 19.3203 10.707 19 10.4688V10.1875L23.8438 11L25 11.1875V4.8125L23.8438 5L18.75 5.84375C18.293 4.76953 17.2344 4 16 4ZM16 6C16.5547 6 17 6.44531 17 7V10H15V7C15 6.44531 15.4453 6 16 6ZM23 7.1875V8.8125L19 8.125V7.875L23 7.1875ZM14.375 12H17.625C17.7773 12.1055 18.2031 12.3906 18.7812 12.9688C19.4531 13.6406 20 14.5 20 15V26H12V15C12 14.5 12.5469 13.6406 13.2188 12.9688C13.7969 12.3906 14.2227 12.1055 14.375 12ZM14 17V19H18V17H14Z" fill="black"/>
</g>
</svg>
