<svg width="32" height="32" viewBox="0 0 32 32" fill="none" xmlns="http://www.w3.org/2000/svg">
<g id="fire-solid">
<path id="Vector" d="M14.375 3L14.1875 3.78125C13.8867 5.12891 11.9531 7.34766 9.96875 10.0625C7.98438 12.7773 6 16.1602 6 20.4062C6 22.4102 6.61328 24.5508 8.125 26.2188C9.63672 27.8867 12.0469 29 15.3125 29C15.457 29 15.5781 28.9727 15.7188 28.9688C15.8125 28.9727 15.9023 29 16 29C16.3047 29 16.5898 28.9648 16.875 28.9375C16.9609 28.9297 17.0391 28.9141 17.125 28.9062C20.4727 28.6289 22.6953 27.5977 24.0625 26.0625C25.668 24.2617 26 21.9766 26 20C26 15.5352 23.4297 11.3828 20.9375 8.3125C18.4453 5.24219 15.9375 3.21875 15.9375 3.21875L15.6562 3H14.375ZM15.5 5.5C16.3086 6.21094 17.6719 7.49609 19.375 9.59375C21.7266 12.4922 24 16.332 24 20C24 21.7539 23.6914 23.4531 22.5625 24.7188C22.3203 24.9922 22.0273 25.2578 21.6875 25.5C22.2266 23.9414 22.1094 22.168 21.75 20.4062C21.3398 18.3945 20.5625 16.375 19.8125 14.75C19.0625 13.125 18.4219 11.9766 17.875 11.3438L17.5938 11H15.6562L16.0312 12.2812C17.0781 15.6836 16.5273 18 15.9375 18.6875C15.6445 19.0312 15.5156 19.0625 15.2188 18.9688C14.9219 18.875 14.3867 18.4883 13.875 17.5312L13.125 16.125L12.1875 17.4062C10.3164 19.9258 9.59766 22.6875 10.2188 25C10.2734 25.2031 10.3594 25.4023 10.4375 25.5938C10.1406 25.3672 9.86328 25.1367 9.625 24.875C8.50781 23.6445 8 22 8 20.4062C8 16.7852 9.70312 13.8359 11.5938 11.25C13.1328 9.14453 14.6328 7.36719 15.5 5.5ZM18.5625 17.2188C19.0273 18.3945 19.5312 19.582 19.7812 20.8125C20.1445 22.6016 20.1367 24.2383 19.625 25.2812C19.2422 26.0625 18.6484 26.6367 17.4375 26.875C17.3047 26.9023 17.1484 26.918 17 26.9375C16.6875 26.9648 16.3438 26.9883 16 27C15.9102 27 15.8359 27.0039 15.75 27C13.5859 26.9297 12.5469 25.9648 12.1562 24.5C11.832 23.293 12.2539 21.6094 13.1562 19.9062C13.6016 20.3672 14.0742 20.7031 14.625 20.875C15.6445 21.1953 16.7812 20.8047 17.4688 20C18.0586 19.3086 18.4062 18.3516 18.5625 17.2188Z" fill="black"/>
</g>
</svg>
