<svg width="32" height="32" viewBox="0 0 32 32" fill="none" xmlns="http://www.w3.org/2000/svg">
<g id="firefox">
<path id="Vector" d="M26.8164 12.625C26.7656 13.1875 26.5 13.7969 26.5 13.7969C26.4688 12.5352 26.2812 11.4102 25.9336 10.4219C25.9336 10.418 25.9297 10.4063 25.9258 10.3985C25.6523 9.62505 25.2852 8.93364 24.8242 8.32427C25.0391 9.16802 25.1484 9.82427 25.1523 10.3008C24.7344 8.82427 22.7227 5.17583 15.9453 5.94927C16.9609 5.94927 17.9336 6.11724 18.8516 6.41411C18.7031 6.4063 18.5586 6.39458 18.4062 6.39067C19.8594 6.80083 20.7891 7.46489 20.9141 7.77349C20.3789 7.67583 19.8984 7.71099 19.4727 7.87895C22.5195 9.07817 23.9688 10.5079 23.8008 12.1602C23.5781 11.8165 23.2812 11.586 22.9023 11.4727C23.3711 13.2852 23.418 14.7813 23.0391 15.9649C22.7812 15.1758 22.543 14.7071 22.3281 14.5391C22.625 16.9688 22.2266 18.7657 21.1328 19.9375C21.3398 19.2227 21.4219 18.6368 21.375 18.1758C20.1914 20.0547 18.4805 21.1563 16.9922 21.1563C14.9023 21.1563 13.5508 20.0977 12.8672 19.4141C13.0312 19.4258 13.1953 19.4336 13.3555 19.4336C15.9219 19.4336 16.6875 17.9258 17.3945 17.9258C17.4883 17.9258 17.5781 17.9493 17.6641 17.9883C17.9219 17.9532 18.0547 17.8321 18.0547 17.6602C18.0547 17.2735 17.2266 16.6055 16.3398 16.6055C15.3047 16.6055 15.0781 17.3086 14.0234 17.3086C12.7031 17.3086 11.5273 15.4961 11.5273 15.4961C11.5273 15.0196 11.7578 14.711 12.1641 14.6485C12.0508 14.6368 13.1445 14.7891 13.7344 14.961C13.832 14.3985 13.7031 13.7969 13.3477 13.1915C13.3477 13.1875 14.1914 12.3985 14.8125 12.0665C15 11.9688 15.1055 11.8165 15.1445 11.6172C15.1953 11.5899 15.2461 11.5 15.2461 11.4102C15.2461 11.3243 15.1875 11.2461 15.0742 11.1758C13.2773 11.3243 13.1445 10.3008 12.4609 9.9063C12.6602 8.62114 13.5703 7.86333 14.1562 7.4688C13.0664 7.60552 12.082 8.08989 11.207 8.92974C10.7383 8.5313 8.625 8.38677 8.10156 8.64849C7.76953 8.22661 7.53125 7.56645 7.39453 6.66802C6.60156 7.44145 6.21875 8.83208 6.24219 10.836C6.19922 10.8946 5 12.4063 5 13.4844C5 13.6016 5.01172 13.7579 5.03516 13.836L5.67969 13.3125C5.44531 13.8985 5.16406 14.7813 5.16406 15.9883C5.16406 20.4493 9.07812 26.1563 15.9961 26.1563C24.4727 26.1563 27 19.1407 27 14.1172C27 13.5235 26.9414 13.0157 26.8164 12.625Z" fill="black"/>
</g>
</svg>
