<svg width="32" height="32" viewBox="0 0 32 32" fill="none" xmlns="http://www.w3.org/2000/svg">
<g id="first-order-alt">
<path id="Vector" d="M16 3C8.817 3 3 8.817 3 16C3 23.183 8.817 29 16 29C23.183 29 29 23.183 29 16C29 8.817 23.183 3 16 3ZM16 4C22.63 4 28 9.37 28 16C28 22.63 22.63 28 16 28C9.37 28 4 22.63 4 16C4 9.37 9.37 4 16 4ZM16 5C9.926 5 5 9.926 5 16C5 22.074 9.926 27 16 27C22.074 27 27 22.074 27 16C27 9.926 22.074 5 16 5ZM16 6C21.523 6 26 10.477 26 16C26 21.523 21.523 26 16 26C10.477 26 6 21.523 6 16C6 10.477 10.477 6 16 6ZM15.9902 7C15.5752 7 15.1687 7.02894 14.7617 7.08594L14.9844 10.8906L13.7285 7.28906C12.9265 7.49206 12.1642 7.81156 11.4492 8.22656L13.1309 11.6934L10.5703 8.81445C9.91331 9.31645 9.32427 9.89573 8.82227 10.5527L11.7012 13.1211L8.23438 11.4414C7.81938 12.1554 7.49911 12.9189 7.28711 13.7109L10.9297 14.9863L7.08594 14.7637C7.02794 15.1697 6.99805 15.575 6.99805 16C6.99805 16.415 7.02717 16.8216 7.07617 17.2266L10.9199 17.0039L7.28906 18.2695C7.49206 19.0715 7.81156 19.8338 8.22656 20.5488L11.6934 18.8672L8.81445 21.4277C9.31645 22.0847 9.9055 22.6738 10.5625 23.1758L13.1211 20.2969L11.4414 23.7637C12.1564 24.1887 12.9187 24.4989 13.7207 24.7109L14.9863 21.0605L14.7637 24.9121C15.1687 24.9701 15.5752 25 15.9902 25C16.4152 25 16.8196 24.9702 17.2246 24.9102L17.0039 21.0391L18.2773 24.709C19.0693 24.497 19.8319 24.1787 20.5469 23.7637L18.8672 20.2969L21.4258 23.1641C22.0818 22.6721 22.6721 22.0828 23.1641 21.4258L20.2969 18.8672L23.7637 20.5371C24.1797 19.8321 24.4962 19.0615 24.6992 18.2695L21.0684 17.0039L24.9023 17.2266C24.9603 16.8216 24.9902 16.415 24.9902 16C24.9902 15.575 24.9604 15.1706 24.9004 14.7656L21.0586 14.9863L24.6992 13.7227C24.4872 12.9207 24.1689 12.1584 23.7539 11.4434L20.2852 13.123L23.1641 10.5645C22.6621 9.90845 22.0828 9.31817 21.4258 8.82617L18.8672 11.6934L20.5371 8.22656C19.8321 7.82056 19.0715 7.50106 18.2695 7.28906L17.0039 10.9219L17.2266 7.08789C16.8206 7.02989 16.4152 7 15.9902 7Z" fill="black"/>
</g>
</svg>
