<svg width="32" height="32" viewBox="0 0 32 32" fill="none" xmlns="http://www.w3.org/2000/svg">
<g id="first-order">
<path id="Vector" d="M16 2L4 9V23L16 30L28 23V9L16 2ZM16 3L27 9.48828V22.4883L16 29L5 22.4883V9.48828L16 3ZM16 4L6 10V22L16 28L26 22V10L16 4ZM16 6.94727C20.956 6.94727 25 10.991 25 16C25 20.988 20.956 25.043 16 25.043C11.022 25.043 7 20.988 7 16C7 10.991 11.022 6.94727 16 6.94727ZM16.002 8C15.646 8 15.2688 8.02913 14.9238 8.07812L15.1113 11.4609L14.0039 8.24609C13.2919 8.43409 12.6191 8.72189 11.9961 9.08789L13.4805 12.1738L11.2148 9.61133C10.6408 10.0563 10.1169 10.5711 9.67188 11.1641L12.2129 13.4492L9.14844 11.9551C8.79244 12.5681 8.49441 13.2409 8.31641 13.9629L11.541 15.0996L8.12891 14.8926C8.07991 15.2486 8.06055 15.624 8.06055 16C8.06055 16.376 8.09086 16.7319 8.13086 17.0879L11.5312 16.8906L8.31836 18.0273C8.49636 18.7393 8.78244 19.4119 9.14844 20.0449L12.2148 18.5508L9.66211 20.8242C10.1061 21.4082 10.6218 21.9422 11.2148 22.3672L13.4707 19.8164L11.9863 22.9023C12.5993 23.2673 13.2721 23.554 13.9941 23.752L15.1113 20.5098L14.9121 23.9219C15.2681 23.9709 15.646 24 16.002 24C16.377 24 16.7329 23.9699 17.0879 23.9199L16.8887 20.4688L18.0254 23.7422C18.7374 23.5452 19.4102 23.2686 20.0332 22.8926L18.5508 19.8164L20.8047 22.3672C21.3987 21.9222 21.9127 21.4072 22.3477 20.8242L19.8066 18.5508L22.873 20.0332C23.229 19.4102 23.5251 18.7398 23.7031 18.0078L20.4902 16.8906L23.8828 17.0879C23.9318 16.7319 23.9512 16.376 23.9512 16C23.9512 15.624 23.9318 15.2486 23.8828 14.8926L20.4805 15.0996L23.6934 13.9727C23.5054 13.2607 23.2393 12.5681 22.8633 11.9551L19.7988 13.4473L22.3398 11.1641C21.8948 10.5801 21.3806 10.0563 20.8066 9.61133L18.543 12.1719L20.0156 9.09766C19.4026 8.73266 18.7298 8.44409 18.0078 8.24609L16.8906 11.4805L17.0898 8.07812C16.7338 8.01912 16.378 8 16.002 8Z" fill="black"/>
</g>
</svg>
