<svg width="32" height="32" viewBox="0 0 32 32" fill="none" xmlns="http://www.w3.org/2000/svg">
<g id="flag-usa-solid">
<path id="Vector" d="M3 7V17H15H17H29V15H17V13H29V11H17V9H29V7H17H15H3ZM5 8C5.552 8 6 8.448 6 9C6 9.552 5.552 10 5 10C4.448 10 4 9.552 4 9C4 8.448 4.448 8 5 8ZM9 8C9.552 8 10 8.448 10 9C10 9.552 9.552 10 9 10C8.448 10 8 9.552 8 9C8 8.448 8.448 8 9 8ZM13 8C13.552 8 14 8.448 14 9C14 9.552 13.552 10 13 10C12.448 10 12 9.552 12 9C12 8.448 12.448 8 13 8ZM7 11C7.552 11 8 11.448 8 12C8 12.552 7.552 13 7 13C6.448 13 6 12.552 6 12C6 11.448 6.448 11 7 11ZM11 11C11.552 11 12 11.448 12 12C12 12.552 11.552 13 11 13C10.448 13 10 12.552 10 12C10 11.448 10.448 11 11 11ZM15 11C15.552 11 16 11.448 16 12C16 12.552 15.552 13 15 13C14.448 13 14 12.552 14 12C14 11.448 14.448 11 15 11ZM5 14C5.552 14 6 14.448 6 15C6 15.552 5.552 16 5 16C4.448 16 4 15.552 4 15C4 14.448 4.448 14 5 14ZM9 14C9.552 14 10 14.448 10 15C10 15.552 9.552 16 9 16C8.448 16 8 15.552 8 15C8 14.448 8.448 14 9 14ZM13 14C13.552 14 14 14.448 14 15C14 15.552 13.552 16 13 16C12.448 16 12 15.552 12 15C12 14.448 12.448 14 13 14ZM3 19V21H29V19H3ZM3 23V25H29V23H3Z" fill="black"/>
</g>
</svg>
