<svg width="32" height="32" viewBox="0 0 32 32" fill="none" xmlns="http://www.w3.org/2000/svg">
<g id="flask-solid">
<path id="Vector" d="M17 0C16.4492 0 16 0.449219 16 1C16 1.55078 16.4492 2 17 2C17.5508 2 18 1.55078 18 1C18 0.449219 17.5508 0 17 0ZM14 3C13.4492 3 13 3.44922 13 4H10V6H11V13.6562L4.84375 21.5938C4.30078 22.293 4 23.1484 4 24.0312C4 26.2148 5.78516 28 7.96875 28H24.0312C26.2148 28 28 26.2148 28 24.0312C28 23.1484 27.6992 22.293 27.1562 21.5938L21 13.6562V6H22V4H15C15 3.44922 14.5508 3 14 3ZM13 6H19V14.3438L21.8438 18H10.1562L13 14.3438V6ZM17 10C16.4492 10 16 10.4492 16 11C16 11.5508 16.4492 12 17 12C17.5508 12 18 11.5508 18 11C18 10.4492 17.5508 10 17 10ZM8.59375 20H23.4062L25.5938 22.8125C25.8633 23.1602 26 23.5938 26 24.0312C26 25.1367 25.1367 26 24.0312 26H7.96875C6.86328 26 6 25.1367 6 24.0312C6 23.5938 6.13672 23.1602 6.40625 22.8125L8.59375 20Z" fill="black"/>
</g>
</svg>
