<svg width="32" height="32" viewBox="0 0 32 32" fill="none" xmlns="http://www.w3.org/2000/svg">
<g id="flickr">
<path id="Vector" d="M8 5C6.35547 5 5 6.35547 5 8V24C5 25.6445 6.35547 27 8 27H24C25.6445 27 27 25.6445 27 24V8C27 6.35547 25.6445 5 24 5H8ZM8 7H24C24.5664 7 25 7.43359 25 8V24C25 24.5664 24.5664 25 24 25H8C7.43359 25 7 24.5664 7 24V8C7 7.43359 7.43359 7 8 7ZM11.5 12.5C9.56641 12.5 8 14.0664 8 16C8 17.9336 9.56641 19.5 11.5 19.5C13.4336 19.5 15 17.9336 15 16C15 14.0664 13.4336 12.5 11.5 12.5ZM20.5 12.5C18.5664 12.5 17 14.0664 17 16C17 17.9336 18.5664 19.5 20.5 19.5C22.4336 19.5 24 17.9336 24 16C24 14.0664 22.4336 12.5 20.5 12.5Z" fill="black"/>
</g>
</svg>
