<svg width="32" height="32" viewBox="0 0 32 32" fill="none" xmlns="http://www.w3.org/2000/svg">
<g id="flushed">
<path id="Vector" d="M16 3C8.832 3 3 8.832 3 16C3 23.168 8.832 29 16 29C23.168 29 29 23.168 29 16C29 8.832 23.168 3 16 3ZM16 5C22.065 5 27 9.935 27 16C27 22.065 22.065 27 16 27C9.935 27 5 22.065 5 16C5 9.935 9.935 5 16 5ZM11.5 8C8.467 8 6 10.467 6 13.5C6 16.533 8.467 19 11.5 19C13.3606 19 15.0043 18.0683 16 16.6504C16.9957 18.0683 18.6394 19 20.5 19C23.533 19 26 16.533 26 13.5C26 10.467 23.533 8 20.5 8C18.6394 8 16.9957 8.93166 16 10.3496C15.0043 8.93166 13.3606 8 11.5 8ZM11.5 10C13.43 10 15 11.57 15 13.5C15 15.43 13.43 17 11.5 17C9.57 17 8 15.43 8 13.5C8 11.57 9.57 10 11.5 10ZM20.5 10C22.43 10 24 11.57 24 13.5C24 15.43 22.43 17 20.5 17C18.57 17 17 15.43 17 13.5C17 11.57 18.57 10 20.5 10ZM11.5 12C11.1022 12 10.7206 12.158 10.4393 12.4393C10.158 12.7206 10 13.1022 10 13.5C10 13.8978 10.158 14.2794 10.4393 14.5607C10.7206 14.842 11.1022 15 11.5 15C11.8978 15 12.2794 14.842 12.5607 14.5607C12.842 14.2794 13 13.8978 13 13.5C13 13.1022 12.842 12.7206 12.5607 12.4393C12.2794 12.158 11.8978 12 11.5 12ZM20.5 12C20.1022 12 19.7206 12.158 19.4393 12.4393C19.158 12.7206 19 13.1022 19 13.5C19 13.8978 19.158 14.2794 19.4393 14.5607C19.7206 14.842 20.1022 15 20.5 15C20.8978 15 21.2794 14.842 21.5607 14.5607C21.842 14.2794 22 13.8978 22 13.5C22 13.1022 21.842 12.7206 21.5607 12.4393C21.2794 12.158 20.8978 12 20.5 12ZM12 21V23H20V21H12Z" fill="black"/>
</g>
</svg>
