<svg width="32" height="32" viewBox="0 0 32 32" fill="none" xmlns="http://www.w3.org/2000/svg">
<g id="fly">
<path id="Vector" d="M16 4C15.8398 4 15.6875 4.02344 15.5312 4.03125C10.832 4.26172 7 7.84766 7 12.3438C7 15.293 8.78906 17.8828 10.4688 19.75C12.1484 21.6172 13.8125 22.8125 13.8125 22.8125L14.0938 23H17.9062L18.1875 22.8125C18.1875 22.8125 19.8516 21.6172 21.5312 19.75C23.2109 17.8828 25 15.293 25 12.3438C25 7.83594 21.1523 4.24609 16.4375 4.03125C16.2891 4.01172 16.1484 4 16 4ZM16 6C16.2734 6 17.1133 6.3125 17.7812 7.15625C18.4492 8 19 9.32812 19 11.2188C19 15.5352 16.7266 20.2305 16.3438 21H15.6562C15.2734 20.2266 13 15.5156 13 11.2188C13 9.39844 13.5742 8.05469 14.25 7.1875C14.9258 6.32031 15.7578 6 16 6ZM11.9062 7.21875C11.3672 8.30859 11 9.64062 11 11.2188C11 14.1016 11.8633 17.0508 12.6875 19.2188C12.4414 18.9688 12.207 18.7031 11.9375 18.4062C10.418 16.7148 9 14.4492 9 12.3438C9 10.2422 10.1445 8.375 11.9062 7.21875ZM20.1562 7.25C21.8867 8.41016 23 10.2617 23 12.3438C23 14.4492 21.582 16.7148 20.0625 18.4062C19.8008 18.6992 19.5547 18.9453 19.3125 19.1875C20.1289 17.0273 21 14.0898 21 11.2188C21 9.64844 20.668 8.32812 20.1562 7.25ZM14 25V28H18V25H14Z" fill="black"/>
</g>
</svg>
