<svg width="32" height="32" viewBox="0 0 32 32" fill="none" xmlns="http://www.w3.org/2000/svg">
<g id="fonticons-fi">
<path id="Vector" d="M5 5V27H27V5H5ZM7 7H25V25H7V7ZM19.7188 8.90625L19.0312 10.1875H17.7812L17.625 10.625L18.625 11.6875L18.2188 13.1875C18.2188 13.1875 18.5078 13.5391 18.5312 13.5312C18.5547 13.5234 19.9375 12.75 19.9375 12.75L21.3125 13.5312L21.6875 13.1875L21.25 11.6875L22.25 10.5938L22.0312 10.1875H20.8125L20.125 8.90625H19.7188ZM14.375 10.7188C10.8711 10.7188 10.9688 13.375 10.9688 13.375V14.75H9.6875V16.4375H10.9375V21.8125L9.6875 21.9688V23.125H15.5625C15.5469 23.1445 15.5625 22 15.5625 22L13.4688 21.7812V16.4375H15.9688L16.4688 14.75H13.4688V13C13.4688 13 13.6367 12.25 14.2812 12.25C14.9258 12.25 15.0312 12.8438 15.0312 12.8438V13.3438L17.2812 13.0312C17.2812 13.0312 17.7031 10.7188 14.375 10.7188ZM17.8125 14.7812L17.4375 16.0625L18.625 16.4062C18.7695 16.4453 18.875 16.5703 18.875 16.7188V21.5C18.875 21.6562 18.75 21.7812 18.5938 21.8125L17.6562 22V23.125H22.2188V22.0312L21.6875 21.9375C21.5312 21.9102 21.4062 21.7539 21.4062 21.5938V14.7812H17.8125Z" fill="black"/>
</g>
</svg>
