<svg width="32" height="32" viewBox="0 0 32 32" fill="none" xmlns="http://www.w3.org/2000/svg">
<g id="font-awesome-flag">
<path id="Vector" d="M9 4C7.346 4 6 5.346 6 7C6 8.30161 6.83875 9.40214 8 9.81641V11.3047V23.207V27.0234C8 27.5634 8.43656 28 8.97656 28H9.02344C9.56344 28 10 27.5634 10 27.0234V22.2285C10.3347 21.8398 11.1384 21.0469 13.4453 21.0469C14.6693 21.0469 15.6704 21.4738 16.7324 21.9258C17.7694 22.3678 18.8419 22.8242 20.0879 22.8242C22.4469 22.8242 24.0494 21.5847 24.7344 21.0547L24.8867 20.9395C25.4377 20.5405 26 19.996 26 19V10.6758C26 9.76778 25.2218 9 24.2988 9C23.8038 9 23.4404 9.28659 22.9414 9.68359C22.2794 10.2076 21.2809 11 20.0879 11C19.2729 11 18.4777 10.6197 17.5547 10.1777C16.4037 9.62573 15.0984 9 13.4434 9C12.3083 9 11.4217 9.18834 10.7129 9.45703C11.4891 8.91418 12 8.01678 12 7C12 5.346 10.654 4 9 4ZM9 6C9.552 6 10 6.449 10 7C10 7.551 9.552 8 9 8C8.448 8 8 7.551 8 7C8 6.449 8.448 6 9 6ZM13.4434 11C14.6454 11 15.6384 11.4765 16.6914 11.9805C17.7364 12.4825 18.8179 13 20.0879 13C21.8429 13 23.158 12.0545 23.998 11.3965V19.0664C23.997 19.0704 23.953 19.1453 23.709 19.3223L23.5098 19.4746C22.9428 19.9126 21.7629 20.8242 20.0879 20.8242C19.2499 20.8242 18.4466 20.4829 17.5156 20.0859C16.3726 19.5979 15.0764 19.0449 13.4434 19.0449C11.8914 19.0449 10.786 19.358 10 19.75V12.3613C10.345 11.9053 11.1324 11 13.4434 11Z" fill="black"/>
</g>
</svg>
