<svg width="32" height="32" viewBox="0 0 32 32" fill="none" xmlns="http://www.w3.org/2000/svg">
<g id="font-awesome">
<path id="Vector" d="M5 5V27H27V5H5ZM7 7H25V25H7V7ZM12.5 9C12.1025 9.00052 11.7215 9.15878 11.4406 9.44003C11.1597 9.72128 11.002 10.1025 11.002 10.5H11V22C11 22.552 11.448 23 12 23C12.552 23 13 22.552 13 22V17.7441C13.7817 17.4557 14.6452 17.2344 15.4785 17.2344C17.0575 17.2344 17.6694 18.0508 18.9844 18.0508C19.9234 18.0508 20.7982 17.7329 21.6152 17.3809C21.8202 17.2929 21.9961 17.205 21.9961 17H22.002V11.3809C22.002 11.1759 21.7955 11 21.5605 11C21.2665 11 20.0397 11.7871 18.9297 11.7871C18.6997 11.7871 18.4941 11.7579 18.2891 11.6699C17.2961 11.2929 16.4205 11 15.3105 11C14.8208 11 14.3191 11.0772 13.8281 11.1953C13.9477 10.9668 14.0063 10.7112 13.9983 10.4534C13.9903 10.1956 13.9159 9.94425 13.7824 9.72356C13.6489 9.50287 13.4607 9.32034 13.2361 9.19359C13.0115 9.06685 12.7579 9.00017 12.5 9Z" fill="black"/>
</g>
</svg>
