<svg width="32" height="32" viewBox="0 0 32 32" fill="none" xmlns="http://www.w3.org/2000/svg">
<g id="football-ball-solid">
<path id="Vector" d="M21.0313 4C20.293 4.01562 19.5156 4.08594 18.7188 4.21875C15.5313 4.75 11.9609 6.28125 9.09376 9.09375C6.27735 11.9648 4.75001 15.5508 4.21876 18.75C3.68751 21.9492 3.9961 24.8086 5.59376 26.4062C7.1836 27.9961 10.0469 28.332 13.25 27.8125C16.4531 27.293 20.0352 25.7773 22.9063 22.9062C25.7266 20.0859 27.25 16.5156 27.7813 13.3125C28.3125 10.1094 28.0078 7.23047 26.4375 5.59375H26.4063V5.5625C25.5898 4.78125 24.4414 4.33594 23.125 4.125C22.4648 4.01953 21.7695 3.98437 21.0313 4ZM21.0313 6.03125C21.6641 6.03125 22.2578 6.07031 22.7813 6.15625C23.8086 6.32812 24.5781 6.64062 24.9688 7C24.9766 7.00781 24.9922 7.02344 25 7.03125C25.7227 7.8164 26.2773 10.1992 25.8125 13C25.3438 15.8242 23.9805 19.0195 21.5 21.5C18.9688 24.0312 15.7578 25.3867 12.9375 25.8437C10.1172 26.3008 7.71094 25.7109 7.00001 25C6.29688 24.2969 5.71876 21.8867 6.18751 19.0625C6.65626 16.2383 8.01563 13.0312 10.5 10.5C13.0313 8.01562 16.2188 6.65625 19.0313 6.1875C19.7344 6.07031 20.3984 6.03125 21.0313 6.03125ZM21.2813 9.28125L19 11.5625L17.2188 9.78125L15.7813 11.2187L17.5625 13L16 14.5625L14.2188 12.7812L12.7813 14.2187L14.5625 16L13 17.5625L11.2188 15.7812L9.78126 17.2187L11.5625 19L9.28126 21.2812L10.7188 22.7187L13 20.4375L14.7813 22.2187L16.2188 20.7812L14.4375 19L16 17.4375L17.7813 19.2187L19.2188 17.7812L17.4375 16L19 14.4375L20.7813 16.2187L22.2188 14.7812L20.4375 13L22.7188 10.7187L21.2813 9.28125Z" fill="black"/>
</g>
</svg>
