<svg width="32" height="32" viewBox="0 0 32 32" fill="none" xmlns="http://www.w3.org/2000/svg">
<g id="fort-awesome">
<path id="Vector" d="M15.5 4C15.225 4 15 4.225 15 4.5V10V11.5V12H13V10H11V12H8.99414V10H7V19H5V17H3V27H13V24C13 22.343 14.343 21 16 21C17.657 21 19 22.343 19 24V27H29V17H27V19H25V10H22.9941V12H21V10H19V12H17V10H16V7.90625C16.275 7.80625 16.7254 7.67797 17.2754 7.66797C18.0374 7.65797 18.4116 7.86703 19.2246 7.95703C19.5716 8.00003 20.0692 8.02917 20.6992 7.95117C20.8692 7.93017 21 7.77842 21 7.60742V4.43164C21 4.33164 20.8867 4.26125 20.7617 4.28125C20.0997 4.36125 19.5866 4.33102 19.2246 4.29102C18.4116 4.20102 18.0374 3.98195 17.2754 4.00195C16.7254 4.01195 16.275 4.14023 16 4.24023V4.5C16 4.225 15.775 4 15.5 4ZM11 14H13V18H11V14ZM19 14H21V18H19V14Z" fill="black"/>
</g>
</svg>
