<svg width="32" height="32" viewBox="0 0 32 32" fill="none" xmlns="http://www.w3.org/2000/svg">
<g id="fort-awesome-alt">
<path id="Vector" d="M15.5 3C8.607 3 3 8.607 3 15.5C3 22.393 8.607 28 15.5 28C22.393 28 28 22.393 28 15.5C28 8.607 22.393 3 15.5 3ZM15.5 5C21.29 5 26 9.71 26 15.5C26 21.29 21.29 26 15.5 26C9.71 26 5 21.29 5 15.5C5 9.71 9.71 5 15.5 5ZM15 8V12V13H14V12H13V13H12V12H11V18H9V17H8V18V19.4902C9.206 21.7462 11.4 23.3934 14 23.8594V20.5C14 19.675 14.675 19 15.5 19C16.325 19 17 19.675 17 20.5V23.8594C19.6 23.3944 21.794 21.7472 23 19.4902V18V17H22V18H20V12H19V13H18V12H17V13H16V12V10C16 10 16.3904 9.76953 16.9004 9.76953C17.4004 9.76953 17.6798 10 18.0898 10C18.6398 10 19 9.76953 19 9.76953V8C19 8 18.6398 8.23047 18.0898 8.23047C17.6798 8.23047 17.4004 8 16.9004 8C16.3904 8 16 8.23047 16 8.23047V8H15ZM13 15H14V17H13V15ZM17 15H18V17H17V15Z" fill="black"/>
</g>
</svg>
