<svg width="32" height="32" viewBox="0 0 32 32" fill="none" xmlns="http://www.w3.org/2000/svg">
<g id="forumbee">
<path id="Vector" d="M16 2.96875C8.8125 2.96875 2.96875 8.8125 2.96875 16C2.96875 16.9883 3.07031 17.9492 3.28125 18.875C5.97656 11.8594 11.4219 5.97266 18.7188 3.25C17.8359 3.0625 16.9375 2.96875 16 2.96875ZM23.375 5.28125C19.8789 6.29297 9.45703 10.3359 5.28125 23.4062C6.00781 24.4492 6.88281 25.3984 7.875 26.1875C12.3633 12.6289 22.6289 8.83203 26.1875 7.90625C25.3906 6.90234 24.4297 6.01172 23.375 5.28125ZM27.9688 10.875C16.3828 14.6016 12.1562 24.3242 10.9375 27.9688C11.9805 28.4062 13.0898 28.7188 14.25 28.875C15.4766 25.7852 19.3867 18.0547 28.875 14.1875C28.7148 13.0273 28.4141 11.918 27.9688 10.875ZM28.875 17.8438C27.6758 18.4414 25.707 19.6523 23.0312 22.1562C19.9922 25.0039 18.5742 27.4609 17.9688 28.8438C19.707 28.5742 21.3438 27.9766 22.7812 27.0938L29 29C29 29 27.7656 24.4023 27.1562 22.6562C28.0234 21.207 28.625 19.5859 28.875 17.8438Z" fill="black"/>
</g>
</svg>
