<svg width="32" height="32" viewBox="0 0 32 32" fill="none" xmlns="http://www.w3.org/2000/svg">
<g id="foursquare">
<path id="Vector" d="M10 5C8.90625 5 8 5.90625 8 7V25.7188C8 26.2266 8.35938 26.6914 8.78125 26.8438C9.19531 26.9922 9.76562 26.8711 10.0938 26.5L16.4062 19H19.8438C20.793 19 21.6289 18.3047 21.8125 17.375L23.75 7.375C23.9844 6.16016 23.0195 5 21.7812 5H10ZM10 7H21.7812L21 11H14.4688C14.2188 11 14 11.2188 14 11.4688V12.5312C14 12.7812 14.2188 13 14.4688 13H20.625L19.8438 17H15.9062C15.6094 16.9922 15.3203 17.1172 15.125 17.3438L10 23.5V7Z" fill="black"/>
</g>
</svg>
