<svg width="32" height="32" viewBox="0 0 32 32" fill="none" xmlns="http://www.w3.org/2000/svg">
<g id="freebsd">
<path id="Vector" d="M5 5V6C5 7.85156 5.62109 9.85547 6.5 11.4688C5.55469 13.0938 5 14.9883 5 17C5 23.0625 9.9375 28 16 28C21.6953 28 26.3867 23.6484 26.9375 18.0938C26.9727 17.7305 27 17.3711 27 17C27 15.4258 26.6641 13.9023 26.0312 12.5C25.9805 12.5859 25.9492 12.6484 25.9062 12.7188C25.5625 13.4844 25.1641 14.293 24.75 14.9688C24.9062 15.6328 25 16.3008 25 17C25 17.3047 24.9961 17.6094 24.9688 17.9062C24.5156 22.457 20.6797 26 16 26C11.0156 26 7 21.9844 7 17C7 12.0156 11.0156 8 16 8C16.4297 8 16.8359 8.03516 17.25 8.09375C17.4922 7.76953 17.7422 7.48047 17.9688 7.21875V7.1875L18.1562 7C18.375 6.76172 18.582 6.55859 18.7812 6.375C17.8789 6.13672 16.9531 6 16 6C14.6055 6 13.2617 6.27344 12.0312 6.75C11.7422 6.54688 11.3906 6.32031 10.9375 6.09375C9.81641 5.53516 8.16797 5 6 5H5ZM26 5C23.832 5 22.1836 5.53516 21.0625 6.09375C19.9414 6.65234 19.2812 7.28125 19.2812 7.28125L19 7.59375V8.03125C19 8.03125 19.0234 9.24219 19.6562 10.4688C20.2891 11.6953 21.7188 13 24 13H24.5312L24.8438 12.5625C24.8438 12.5625 27 9.44531 27 6V5H26ZM7.21875 7.15625C8.3125 7.29688 9.25 7.54688 9.90625 7.84375C9.16016 8.33984 8.50781 8.93359 7.90625 9.59375C7.60938 8.8125 7.35547 7.96484 7.21875 7.15625ZM24.7188 7.15625C24.3906 8.91406 23.8086 10.293 23.4688 10.875C22.3711 10.707 21.7734 10.1875 21.4375 9.53125C21.1562 8.98828 21.1602 8.72266 21.125 8.4375C21.2969 8.29297 21.3555 8.19922 21.9375 7.90625C22.582 7.58594 23.5742 7.30859 24.7188 7.15625Z" fill="black"/>
</g>
</svg>
