<svg width="32" height="32" viewBox="0 0 32 32" fill="none" xmlns="http://www.w3.org/2000/svg">
<g id="frog-solid">
<path id="Vector" d="M21 7C19.875 7 18.8867 7.63281 18.375 8.5625C18.0352 8.76172 17.3516 9.19531 16.5938 10.0312C15.6602 10.0469 13.918 10.1172 11.9375 10.75C9.82031 11.4258 7.55078 12.7969 6.28125 15.3125C6.26953 15.3398 6.23047 15.3477 6.21875 15.375C6.16797 15.4297 5.68359 15.9297 5.15625 16.7188C4.60547 17.5469 4 18.6328 4 19.9062C4 20.8242 4.32031 21.7461 5 22.4062C5.22266 22.625 5.51172 22.7773 5.8125 22.9062C5.69531 23.0625 5.57031 23.2148 5.46875 23.375C5.23828 23.7344 5 23.9883 5 24.6562C5 25.0742 5.30469 25.4727 5.53125 25.625C5.75781 25.7773 5.91797 25.8359 6.09375 25.875C6.44141 25.9531 6.80469 25.9609 7.21875 25.9688C8.05078 25.9805 9.13281 25.9336 10.3438 25.875C12.7695 25.7578 15.7344 25.6523 17.8438 26L18.1562 24C17.1562 23.8359 16.0469 23.7695 14.9375 23.75C15.5508 23.0977 16 22.2812 16 21.2812C16 19.6836 14.9688 18.4727 13.7812 17.8438C12.5938 17.2148 11.2148 17 10 17V19C10.9414 19 12.0703 19.2148 12.8438 19.625C13.6172 20.0352 14 20.4727 14 21.2812C14 21.9336 13.4688 22.5508 12.5938 23.0625C11.7188 23.5742 10.5508 23.8438 10.1875 23.8438V23.875C9.10547 23.9258 8.18359 23.9688 7.5 23.9688C7.60547 23.8281 7.69922 23.7031 7.8125 23.5625C8.30469 22.957 8.8125 22.4375 8.8125 22.4375L7.34375 21.0625L7.3125 21.125C6.80859 21.2734 6.58984 21.1758 6.375 20.9688C6.16016 20.7617 6 20.3359 6 19.9062C6 19.375 6.39453 18.5195 6.84375 17.8438C7.29297 17.168 7.71875 16.6875 7.71875 16.6875L7.84375 16.5625L7.90625 16.4062C8.83594 14.3438 10.6797 13.2578 12.5625 12.6562C14.4453 12.0547 16.3047 12 17 12H17.5L17.8125 11.5938C17.9492 11.4062 18.0977 11.2734 18.25 11.125C18.7031 12.2148 19.7578 13 21 13C22.5898 13 23.8828 11.7266 23.9688 10.1562C24.4258 10.2695 24.8789 10.4219 25.25 10.625C25.5703 10.8008 25.8281 10.9961 25.9688 11.125C25.9609 11.1641 25.9531 11.1445 25.9375 11.1875C25.8711 11.3711 25.7344 11.5859 25.5625 11.8438C25.2148 12.3555 24.6406 12.9453 23.625 13.3438L23 13.5938V14.2812C23 15.6836 22.875 19.1328 20.9375 20.5L22.0938 22.125C24.9023 20.1406 24.9375 16.5625 24.9375 14.875C25.9805 14.3359 26.7578 13.6484 27.2188 12.9688C27.4922 12.5625 27.6914 12.1836 27.8125 11.8438C27.9336 11.5039 28 11.2344 28 10.9062C28 10.1328 27.6172 9.9375 27.3125 9.65625C27.0078 9.375 26.625 9.11328 26.1875 8.875C25.375 8.43359 24.3516 8.08203 23.25 8.03125C22.6992 7.40234 21.8945 7 21 7ZM21 9C21.5625 9 22 9.4375 22 10C22 10.5625 21.5625 11 21 11C20.4375 11 20 10.5625 20 10C20 9.4375 20.4375 9 21 9ZM19 16.375C18.3281 17.3242 18.0273 18.2852 17.9062 19.0625C17.7852 19.8398 17.8164 20.5586 17.8125 20.5938C17.8125 20.6055 17.8125 20.6133 17.8125 20.625C17.8125 20.8867 17.8594 20.9219 17.875 20.9688C17.8906 21.0156 17.8945 21.0312 17.9062 21.0625C17.9297 21.125 17.9688 21.1836 18 21.25C18.0586 21.3789 18.125 21.5312 18.2188 21.7188C18.4102 22.0938 18.6797 22.5859 18.9688 23.0938C19.5508 24.1055 20.1328 25.1523 20.9062 25.8125C21.0234 25.918 21.1602 25.9922 21.3125 26.0312C21.7734 26.1367 21.9766 26.0156 22.1875 25.9688C22.3984 25.9219 22.6055 25.8828 22.8438 25.8438C23.3164 25.7695 23.8984 25.7383 24.7188 25.9688L25.2812 24.0312C24.1602 23.7188 23.1992 23.7695 22.5312 23.875C22.2891 23.9141 22.1289 23.9648 21.9688 24C21.6914 23.6719 21.1602 22.918 20.6875 22.0938C20.4141 21.6172 20.1719 21.1523 20 20.8125C19.918 20.6523 19.8555 20.5273 19.8125 20.4375C19.8086 20.4297 19.8164 20.4102 19.8125 20.4062C19.8164 20.0938 19.8086 19.8086 19.875 19.375C19.9609 18.8242 20.1641 18.1836 20.625 17.5312L19 16.375Z" fill="black"/>
</g>
</svg>
