<svg width="32" height="32" viewBox="0 0 32 32" fill="none" xmlns="http://www.w3.org/2000/svg">
<g id="frown-open-solid">
<path id="Vector" d="M16 4C9.38281 4 4 9.38281 4 16C4 22.6172 9.38281 28 16 28C22.6172 28 28 22.6172 28 16C28 9.38281 22.6172 4 16 4ZM16 6C21.5352 6 26 10.4648 26 16C26 21.5352 21.5352 26 16 26C10.4648 26 6 21.5352 6 16C6 10.4648 10.4648 6 16 6ZM11.5 11C10.6719 11 10 12.1211 10 13.5C10 14.8789 10.6719 16 11.5 16C12.3281 16 13 14.8789 13 13.5C13 12.1211 12.3281 11 11.5 11ZM20.5 11C19.6719 11 19 12.1211 19 13.5C19 14.8789 19.6719 16 20.5 16C21.3281 16 22 14.8789 22 13.5C22 12.1211 21.3281 11 20.5 11ZM16 17C13.707 17 12 18.8555 12 21C12 21.9883 12.3555 22.9727 13.1562 23.4688C13.957 23.9648 14.8438 24 16 24C17.1562 24 18.043 23.9648 18.8438 23.4688C19.6445 22.9727 20 21.9883 20 21C20 18.8555 18.293 17 16 17ZM16 19C17.293 19 18 19.8281 18 21C18 21.668 17.9609 21.6914 17.8125 21.7812C17.6641 21.8711 17.0547 22 16 22C14.9453 22 14.3359 21.8711 14.1875 21.7812C14.0391 21.6914 14 21.668 14 21C14 19.8281 14.707 19 16 19Z" fill="black"/>
</g>
</svg>
