<svg width="32" height="32" viewBox="0 0 32 32" fill="none" xmlns="http://www.w3.org/2000/svg">
<g id="funnel-dollar-solid">
<path id="Vector" d="M5 4V6.34375L5.21875 6.625L13 16.3438V28.0312L14.5938 26.7812L16.1562 25.5938C16.9052 29.2337 20.145 32 24 32C28.406 32 32 28.406 32 24C32 19.594 28.406 16 24 16C22.113 16 20.371 16.6803 19 17.7812V16.3438L26.7812 6.62305L27 6.34375V4H5ZM7.28125 6H24.7188L17.5312 15H14.4688L7.28125 6ZM15 17H17V20.125C16.488 21.047 16.1453 22.0895 16.0312 23.1875L15 24V17ZM24 18C27.324 18 30 20.676 30 24C30 27.324 27.324 30 24 30C20.676 30 18 27.324 18 24C18 20.676 20.676 18 24 18ZM23 19V20.0625C21.875 20.2505 21 21.205 21 22.377C21 23.131 21.4177 23.8202 22.0938 24.1562L25 25.625C25 25.848 24.848 26 24.625 26H23.375C23.152 26 23 25.848 23 25.625V25H21V25.625C21 26.797 21.875 27.7495 23 27.9375V29H25V27.9375C26.125 27.7495 27 26.795 27 25.623C27 24.869 26.5823 24.1838 25.9062 23.8438L23 22.375C23 22.152 23.152 22 23.375 22H24.625C24.848 22 25 22.152 25 22.375V23H27V22.375C27 21.203 26.125 20.2505 25 20.0625V19H23Z" fill="black"/>
</g>
</svg>
