<svg width="32" height="32" viewBox="0 0 32 32" fill="none" xmlns="http://www.w3.org/2000/svg">
<g id="futbol-solid">
<path id="Vector" d="M16 3C8.83203 3 3 8.83203 3 16C3 23.168 8.83203 29 16 29C23.168 29 29 23.168 29 16C29 8.83203 23.168 3 16 3ZM16 5C16.6016 5 17.1758 5.0625 17.75 5.15625L16 6.40625L14.25 5.15625C14.8203 5.06641 15.4023 5 16 5ZM11.8125 5.84375L15.4062 8.46875L16 8.90625L16.5938 8.46875L20.1875 5.84375C21.7852 6.50781 23.1953 7.52344 24.3125 8.8125L22.9375 13.0938L22.7188 13.7812L23.3125 14.1875L26.9375 16.8438C26.8047 18.6055 26.2656 20.2578 25.4062 21.6875H20.125L19.9062 22.375L18.5 26.7188C17.6992 26.9062 16.8594 27 16 27C15.1055 27 14.2383 26.8867 13.4062 26.6875L12.0312 22.4062L11.8125 21.7188H6.59375C5.71875 20.2812 5.19922 18.6211 5.0625 16.8438L8.65625 14.2188L9.25 13.8125L9.03125 13.125L7.625 8.875C8.75 7.55469 10.1836 6.51562 11.8125 5.84375ZM16 10.0938L15.4062 10.5312L10.8438 13.8438L10.2812 14.2812L10.5 14.9688L12.25 20.3125L12.4688 21H19.5312L19.75 20.3125L21.5 14.9688L21.7188 14.2812L21.1562 13.8438L16.5938 10.5312L16 10.0938ZM25.75 10.9062C26.2969 11.9531 26.6562 13.1016 26.8438 14.3125L25.0625 13.0312L25.75 10.9062ZM6.21875 10.9688L6.90625 13.0312L5.15625 14.3125C5.33984 13.125 5.6875 12 6.21875 10.9688ZM16 12.5938L19.375 15.0312L18.0938 19H13.9062L12.625 15.0312L16 12.5938ZM21.5938 23.6875H23.8438C22.9922 24.5664 22.0117 25.293 20.9062 25.8438L21.5938 23.6875ZM8.15625 23.7188H10.3438L11.0312 25.8125C9.96094 25.2695 8.98828 24.5625 8.15625 23.7188Z" fill="black"/>
</g>
</svg>
