<svg width="32" height="32" viewBox="0 0 32 32" fill="none" xmlns="http://www.w3.org/2000/svg">
<g id="galactic-senate">
<path id="Vector" d="M15.6406 3V4.5293C14.8436 5.7393 14.2391 10.903 14.2031 17.168C14.8921 16.251 15.3262 15.2129 15.3262 14.3379V13.3457C15.3242 13.0337 15.3701 12.7277 15.4551 12.4277C15.4931 12.3017 15.5374 12.1889 15.6094 12.0859C15.6814 11.9829 15.811 11.8633 16.002 11.8633C16.192 11.8633 16.3206 11.9839 16.3926 12.0859C16.4646 12.1889 16.5089 12.3017 16.5469 12.4277C16.6309 12.7277 16.6778 13.0337 16.6758 13.3457V14.3379C16.6758 15.2129 17.1098 16.251 17.7988 17.168C17.7618 10.903 17.1564 5.7393 16.3594 4.5293V3H15.6406ZM14.0938 11.6738C13.5347 11.7998 12.9964 11.9771 12.4824 12.2051C13.0044 13.1511 13.055 14.1225 12.582 14.3945C12.113 14.6655 11.3002 14.1455 10.7422 13.2305C10.0622 13.7465 9.45822 14.3656 8.94922 15.0566C9.81322 15.6216 10.2914 16.4015 10.0234 16.8555C9.75744 17.3075 8.84841 17.2738 7.94141 16.7988C7.60241 17.5768 7.36981 18.4121 7.25781 19.2871C7.82581 19.2981 8.35492 19.4286 8.79492 19.6426C9.83992 19.6246 10.7189 19.5265 11.1719 19.3945C11.4979 17.8485 12.5217 16.5643 13.8887 15.9023C13.9317 14.4033 13.9998 12.9878 14.0938 11.6738ZM17.9043 11.6738C17.9973 12.9888 18.0664 14.4033 18.1094 15.9023C19.4774 16.5633 20.5021 17.8475 20.8281 19.3945C21.2811 19.5275 22.1601 19.6246 23.2031 19.6426C23.6441 19.4276 24.1722 19.2981 24.7402 19.2871C24.6282 18.4121 24.3966 17.5758 24.0566 16.7988C23.1506 17.2738 22.2416 17.3075 21.9746 16.8555C21.7066 16.4015 22.1848 15.6206 23.0488 15.0566C22.5398 14.3656 21.9349 13.7465 21.2559 13.2305C20.6979 14.1455 19.885 14.6655 19.416 14.3945C18.944 14.1215 18.9936 13.1511 19.5156 12.2051C18.9976 11.9751 18.4573 11.7988 17.9043 11.6738ZM16.002 12.1777C15.813 12.1777 15.6575 12.6947 15.6445 13.3477H15.6406V14.3379C15.6406 16.7689 12.7643 19.9141 10.1543 19.9141C7.1133 19.9141 2.98295 19.8324 1.00195 21.6094V21.8125C1.54995 22.8025 2.19578 23.7328 2.92578 24.5898C3.66078 23.3518 5.95267 22.1861 9.26367 22.1621C11.9447 22.2221 13.9018 23.3555 14.5898 24.5605V24.5625C15.0398 24.6885 15.521 24.754 16.002 24.752C16.483 24.753 16.9621 24.6875 17.4121 24.5625V24.5605C18.1011 23.3555 20.0583 22.2211 22.7383 22.1621C26.0503 22.1851 28.3412 23.3518 29.0762 24.5898C29.8062 23.7328 30.453 22.8015 31.002 21.8125V21.6094H31C29.019 19.8324 24.8887 19.9141 21.8477 19.9141C19.2377 19.9141 16.3613 16.7679 16.3613 14.3379V13.3477H16.3574C16.3434 12.6947 16.191 12.1777 16.002 12.1777ZM16 17.8438C17.316 17.8438 18.3828 18.9106 18.3828 20.2266C18.3828 21.5426 17.316 22.6133 16 22.6133C14.684 22.6133 13.6172 21.5426 13.6172 20.2266C13.6172 18.9106 14.684 17.8438 16 17.8438ZM16 18.293C14.932 18.293 14.0664 19.1596 14.0664 20.2266C14.0664 21.2946 14.933 22.1602 16 22.1602C17.067 22.1602 17.9336 21.2936 17.9336 20.2266C17.9336 19.1596 17.068 18.293 16 18.293ZM16 18.6543C16.869 18.6543 17.5742 19.3595 17.5742 20.2285C17.5742 21.0975 16.869 21.8027 16 21.8027C15.131 21.8027 14.4258 21.0975 14.4258 20.2285C14.4258 19.3595 15.131 18.6543 16 18.6543ZM9.26367 22.5664C8.66567 22.5704 7.99466 22.5861 7.47266 22.6621C7.49766 22.9211 7.56262 23.7562 7.89062 24.4102C8.42562 24.2602 8.96772 24.1816 9.51172 24.1816C11.9347 24.2366 13.7055 26.1968 14.1035 28.5508L14.1094 28.8262C14.7204 28.9392 15.355 29 16.002 29C16.649 29 17.2806 28.9392 17.8906 28.8262L17.8965 28.5508C18.2945 26.1968 20.0672 24.2366 22.4902 24.1816C23.0332 24.1816 23.5763 24.2602 24.1113 24.4102C24.4403 23.7572 24.5023 22.9221 24.5273 22.6621C24.0053 22.5861 23.3363 22.5704 22.7383 22.5664C21.6373 22.5914 20.6737 22.8118 19.8867 23.1348C19.1507 24.0758 18.1756 24.8952 16.9766 25.0742C16.9716 25.0752 16.9669 25.0771 16.9609 25.0781L16.9512 25.0801C16.6442 25.1431 16.328 25.1758 16.002 25.1758C15.676 25.1758 15.3578 25.1431 15.0508 25.0801L15.043 25.0781C15.037 25.0771 15.0314 25.0752 15.0254 25.0742C13.8274 24.8962 12.8522 24.0758 12.1152 23.1348C11.3272 22.8128 10.3647 22.5914 9.26367 22.5664Z" fill="black"/>
</g>
</svg>
