<svg width="32" height="32" viewBox="0 0 32 32" fill="none" xmlns="http://www.w3.org/2000/svg">
<g id="galactic-republic">
<path id="Vector" d="M27.5938 12.8945C27.0391 10.8281 25.9531 8.98438 24.4844 7.51562C23.0195 6.04688 21.1719 4.96094 19.1016 4.40625C18.1133 4.14062 17.0742 4 16 4C14.9258 4 13.8828 4.14062 12.8906 4.40625C10.8242 4.96094 8.98047 6.05078 7.51172 7.51562C6.04688 8.98438 4.95703 10.8281 4.40625 12.8945C4.14062 13.8867 4 14.9258 4 16C4 17.0742 4.14062 18.1133 4.40625 19.1016C4.95703 21.168 6.04297 23.0117 7.51172 24.4805C8.98047 25.9492 10.8281 27.0391 12.8945 27.5938C13.8828 27.8594 14.9258 28 16 28C17.0742 28 18.1133 27.8594 19.1055 27.5938C21.1719 27.043 23.0156 25.9531 24.4844 24.4844C25.9492 23.0195 27.0391 21.1758 27.5898 19.1094C27.8555 18.1172 28 17.0742 28 16C28 14.9258 27.8594 13.8828 27.5938 12.8945ZM16.4062 5.34375C17.2188 5.37109 18.0039 5.49219 18.7578 5.69531C20.5938 6.18359 22.2344 7.15234 23.5391 8.46094C24.0781 8.99609 24.5625 9.59375 24.9766 10.2383L24.543 10.4883C24.1523 9.88281 23.6953 9.32031 23.1875 8.8125L22.293 9.70703C21.2031 8.61719 19.832 7.80859 18.3008 7.39844L18.6289 6.17578C17.9141 5.98437 17.1719 5.87109 16.4062 5.83984V5.34375ZM19.6016 16C19.6016 16.3242 19.5547 16.6367 19.4766 16.9375L23.1641 17.9258C22.8203 19.1992 22.1484 20.3398 21.2422 21.2461L18.5469 18.5469C18.1055 18.9844 17.5508 19.3125 16.9297 19.4766L17.918 23.1641C17.3047 23.3281 16.6641 23.418 16 23.418C15.3359 23.418 14.6914 23.3281 14.0781 23.1641L15.0664 19.4766C14.4453 19.3125 13.8906 18.9844 13.4492 18.5391L10.75 21.2383C9.84375 20.332 9.17578 19.1914 8.83594 17.9141L12.5195 16.9258C12.4414 16.6328 12.3984 16.3203 12.3984 16C12.3984 15.6797 12.4414 15.3672 12.5234 15.0703L8.83594 14.082C9.17578 12.8047 9.84766 11.6641 10.7539 10.7578L13.4531 13.457C13.8906 13.0156 14.4453 12.6875 15.0664 12.5234L14.0781 8.83594C14.6914 8.67188 15.3359 8.58203 16 8.58203C16.6641 8.58203 17.3047 8.67188 17.918 8.83594L16.9297 12.5195C17.5508 12.6875 18.1055 13.0117 18.5469 13.4531L21.2461 10.7539C22.1523 11.6602 22.8242 12.8047 23.1641 14.0781L19.4766 15.0664C19.5586 15.3633 19.6016 15.6758 19.6016 16ZM8.45703 8.46094C9.76172 7.15625 11.4023 6.1875 13.2383 5.69531C13.9336 5.50781 14.6602 5.39062 15.4062 5.35156V5.85156C14.7031 5.89062 14.0234 6.00391 13.3672 6.17969L13.6953 7.40234C12.1602 7.8125 10.793 8.62109 9.70312 9.71094L8.80859 8.8125C8.30078 9.32031 7.84766 9.88281 7.45703 10.4883L7.02344 10.2383C7.43359 9.59375 7.91797 9 8.45703 8.46094ZM6.51953 20.8945C6.17187 20.2227 5.89453 19.5039 5.69531 18.7578C5.46094 17.8789 5.33203 16.9531 5.33203 16C5.33203 15.0469 5.46094 14.1211 5.69531 13.2383C5.89453 12.4922 6.17187 11.7773 6.51953 11.1055L6.95312 11.3555C6.62891 11.9883 6.36719 12.6641 6.17969 13.3672L7.40234 13.6953C7.20313 14.4297 7.10156 15.2031 7.10156 16C7.10156 16.7969 7.20312 17.5664 7.39844 18.3008L6.17578 18.6289C6.36328 19.332 6.625 20.0078 6.95312 20.6445L6.51953 20.8945ZM15.4062 26.6484C14.6602 26.6094 13.9375 26.4922 13.2383 26.3047C11.3984 25.8125 9.75781 24.8438 8.45312 23.5352C7.91406 22.9961 7.43359 22.4023 7.01953 21.7617L7.45312 21.5117C7.84766 22.1133 8.30078 22.6758 8.80469 23.1836L9.70312 22.2891C10.7891 23.3789 12.1602 24.1875 13.6953 24.5977L13.3672 25.8203C14.0234 25.9961 14.707 26.1094 15.4062 26.1484V26.6484ZM23.5391 23.543C22.2344 24.8477 20.5938 25.8125 18.7578 26.3047C18.0039 26.5078 17.2188 26.6289 16.4062 26.6562V26.1562C17.1719 26.1289 17.9141 26.0117 18.6289 25.8242L18.3008 24.5977C19.832 24.1914 21.2031 23.3828 22.293 22.293L23.1875 23.1914C23.6953 22.6797 24.1523 22.1172 24.543 21.5117L24.9766 21.7617C24.5625 22.4062 24.082 23.0039 23.5391 23.543ZM25.4805 20.8945L25.0469 20.6445C25.3711 20.0117 25.6328 19.3398 25.8203 18.6367L24.5977 18.3086C24.793 17.5703 24.8984 16.8008 24.8984 16C24.8984 15.2031 24.7969 14.4297 24.5977 13.6953L25.8203 13.3672C25.6328 12.6641 25.3711 11.9883 25.0469 11.3555L25.4805 11.1055C25.8281 11.7773 26.1055 12.4922 26.3047 13.2383C26.5391 14.1172 26.6641 15.0469 26.6641 16C26.6641 16.957 26.5391 17.8828 26.3047 18.7656C26.1055 19.5117 25.8242 20.2227 25.4805 20.8945Z" fill="black"/>
</g>
</svg>
