<svg width="32" height="32" viewBox="0 0 32 32" fill="none" xmlns="http://www.w3.org/2000/svg">
<g id="gas-pump-solid">
<path id="Vector" d="M8 5C6.35547 5 5 6.35547 5 8V27H19V20H21V24C21 25.6445 22.3555 27 24 27C25.6445 27 27 25.6445 27 24V13.8125C27 13.0156 26.6875 12.2812 26.125 11.7188L21.4062 7L20 8.40625L22.8438 11.25C21.7695 11.707 21 12.7656 21 14C21 15.6445 22.3555 17 24 17C24.3516 17 24.6836 16.9258 25 16.8125V24C25 24.5664 24.5664 25 24 25C23.4336 25 23 24.5664 23 24V20C23 18.9062 22.0938 18 21 18H19V8C19 6.35547 17.6445 5 16 5H8ZM8 7H16C16.5664 7 17 7.43359 17 8V12H7V8C7 7.43359 7.43359 7 8 7ZM24 13C24.5625 13 25 13.4375 25 14C25 14.5625 24.5625 15 24 15C23.4375 15 23 14.5625 23 14C23 13.4375 23.4375 13 24 13ZM7 14H17V25H7V14Z" fill="black"/>
</g>
</svg>
