<svg width="32" height="32" viewBox="0 0 32 32" fill="none" xmlns="http://www.w3.org/2000/svg">
<g id="gavel-solid">
<path id="Vector" d="M15.9688 1.59375L15.25 2.28125L8.25 9.3125L7.53125 10L11.9688 14.4375L12.6562 13.7188L13 13.375L15.0938 15.4688L3.28125 27.2812L4.71875 28.7188L16.5312 16.9062L18.5938 18.9688L18.25 19.3125L17.5312 20L21.9688 24.4375L22.6562 23.7188L30.375 16L29.6562 15.3125L26.6562 12.2812L25.9688 11.5938L25.25 12.2812L24.9688 12.5625L19.375 7L20.375 6L19.6562 5.3125L16.6562 2.28125L15.9688 1.59375ZM15.9688 4.40625L17.5625 6L11.9688 11.5938L10.375 10L15.9688 4.40625ZM18 8.4375L23.5625 14L20 17.5625L14.4375 12L18 8.4375ZM25.9688 14.4062L27.5625 16L21.9688 21.5938L20.375 20L25.9688 14.4062Z" fill="black"/>
</g>
</svg>
