<svg width="32" height="32" viewBox="0 0 32 32" fill="none" xmlns="http://www.w3.org/2000/svg">
<g id="gem">
<path id="Vector" d="M9.53125 6L4.21875 12.375L3.71875 12.9688L4.21875 13.625L15.2188 27.625L16 28.625L16.7812 27.625L27.7812 13.625L28.2812 12.9688L27.7812 12.375L22.4688 6H9.53125ZM10.4688 8H14.125L11.4375 12H7.125L10.4688 8ZM17.875 8H21.5312L24.875 12H20.5625L17.875 8ZM16 8.84375L18.125 12H13.875L16 8.84375ZM7.03125 14H11.25L13.625 22.4062L7.03125 14ZM13.3125 14H18.6562L16 23.3125L13.3125 14ZM20.75 14H24.9688L18.375 22.375L20.75 14Z" fill="black"/>
</g>
</svg>
