<svg width="32" height="32" viewBox="0 0 32 32" fill="none" xmlns="http://www.w3.org/2000/svg">
<g id="get-pocket">
<path id="Vector" d="M7 5C5.35547 5 4 6.35547 4 8V15C4 21.6172 9.38281 27 16 27C22.6172 27 28 21.6172 28 15V8C28 6.35547 26.6445 5 25 5H7ZM7 7H25C25.5664 7 26 7.43359 26 8V15C26 20.5352 21.5352 25 16 25C10.4648 25 6 20.5352 6 15V8C6 7.43359 6.43359 7 7 7ZM10.6562 11.4062C10.2734 11.4062 9.88672 11.582 9.59375 11.875C9.00781 12.4609 9.00781 13.3828 9.59375 13.9688L15 19.375C15.2812 19.6562 15.6641 19.8125 16.0625 19.8125C16.4609 19.8125 16.8438 19.6562 17.125 19.375L22.4062 14.125C22.9922 13.5391 22.9922 12.5859 22.4062 12C21.8203 11.4141 20.8672 11.4141 20.2812 12L16.0625 16.2188L11.7188 11.875C11.4258 11.582 11.0391 11.4062 10.6562 11.4062Z" fill="black"/>
</g>
</svg>
