<svg width="32" height="32" viewBox="0 0 32 32" fill="none" xmlns="http://www.w3.org/2000/svg">
<g id="gg-circle">
<path id="Vector" d="M16 3C8.832 3 3 8.832 3 16C3 23.168 8.832 29 16 29C23.168 29 29 23.168 29 16C29 8.832 23.168 3 16 3ZM16 5C22.065 5 27 9.935 27 16C27 22.065 22.065 27 16 27C9.935 27 5 22.065 5 16C5 9.935 9.935 5 16 5ZM18.5449 9.48633L14.6914 13.3398L18.6562 17.3066L19.9102 16.0527L17.1816 13.3359L18.543 11.9746L22.5098 15.9414L18.543 19.9062L17.9727 19.3379L16.7344 20.5898L18.543 22.3984L25 15.9453L18.5449 9.48633ZM13.457 9.59766L7 16.0547L13.457 22.5117L17.3086 18.6504L13.3438 14.6836L12.0898 15.9375L14.8184 18.6543L13.4512 20.0195L9.48633 16.0547L13.4512 12.0879L14.0215 12.6582L15.2656 11.4141L13.457 9.59766Z" fill="black"/>
</g>
</svg>
