<svg width="32" height="32" viewBox="0 0 32 32" fill="none" xmlns="http://www.w3.org/2000/svg">
<g id="gg">
<path id="Vector" d="M12 6.59375L11.2812 7.28125L3.28125 15.2812L2.59375 16L3.28125 16.7188L11.2812 24.7188L12 25.4062L12.7188 24.7188L16.7188 20.7188L17.4062 20L16.7188 19.2812L11.7188 14.2812L10.2812 15.7188L14.5625 20L12 22.5625L5.4375 16L12 9.4375L13.2812 10.7188L14.7188 9.28125L12.7188 7.28125L12 6.59375ZM20 6.59375L19.2812 7.28125L15.2812 11.2812L14.5938 12L15.2812 12.7188L20.2812 17.7188L21.7188 16.2812L17.4375 12L20 9.4375L26.5625 16L20 22.5625L18.7188 21.2812L17.2812 22.7188L19.2812 24.7188L20 25.4062L20.7188 24.7188L28.7188 16.7188L29.4062 16L28.7188 15.2812L20.7188 7.28125L20 6.59375Z" fill="black"/>
</g>
</svg>
