<svg width="32" height="32" viewBox="0 0 32 32" fill="none" xmlns="http://www.w3.org/2000/svg">
<g id="ghost-solid">
<path id="Vector" d="M16 3C14.0625 3 12.5703 3.50781 11.5 4.34375C10.4297 5.17969 9.8125 6.30469 9.375 7.34375C8.9375 8.38281 8.65625 9.37891 8.375 10.0938C8.09375 10.8086 7.85938 11.0859 7.65625 11.1562C4.82812 12.1602 3 14.8633 3 18V19H4C5.34766 19 6.00391 19.2812 6.3125 19.5312C6.62109 19.7812 6.74219 20.0664 6.8125 20.5625C6.88281 21.0586 6.84766 21.6641 6.9375 22.3438C6.98438 22.6836 7.05469 23.0664 7.28125 23.4375C7.50781 23.8086 7.91797 24.1289 8.375 24.2812C9.43359 24.6328 10.1133 24.8555 10.5312 25.0938C10.9492 25.332 11.1992 25.5469 11.5312 26.25C11.8477 26.918 12.2734 27.6484 13.0312 28.1875C13.7891 28.7266 14.8086 29.0156 16.0938 29C18.1953 28.9727 19.4492 27.8867 20.0938 26.9375C20.418 26.4609 20.6445 26.0508 20.8438 25.7812C21.043 25.5117 21.1641 25.4062 21.375 25.3438C22.7305 24.9375 23.6055 24.25 24.0938 23.4688C24.582 22.6875 24.6758 21.9219 24.8125 21.4062C24.9492 20.8906 25.0469 20.6875 25.375 20.4688C25.7031 20.25 26.4531 20 28 20H29V19C29 17.6211 29.0469 16.0156 28.4375 14.5C27.8281 12.9844 26.4414 11.6445 24.1562 11.125C24.1328 11.1211 24.1055 11.1328 24 11C23.8945 10.8672 23.7344 10.6016 23.5938 10.25C23.3125 9.55078 23.043 8.52734 22.5938 7.46875C22.1445 6.41016 21.5039 5.26953 20.4375 4.40625C19.3711 3.54297 17.9062 3 16 3ZM16 5C17.5391 5 18.4805 5.39453 19.1875 5.96875C19.8945 6.54297 20.3672 7.34766 20.75 8.25C21.1328 9.15234 21.4023 10.1289 21.75 11C21.9219 11.4336 22.1094 11.8398 22.4062 12.2188C22.7031 12.5977 23.1367 12.9688 23.6875 13.0938C25.4883 13.5039 26.1562 14.2422 26.5625 15.25C26.8711 16.0156 26.8789 17.0664 26.9062 18.0938C25.7969 18.1875 24.8867 18.3867 24.25 18.8125C23.4062 19.3789 23.0508 20.25 22.875 20.9062C22.6992 21.5625 22.6328 22.043 22.4062 22.4062C22.1797 22.7695 21.8086 23.1289 20.7812 23.4375C20.0703 23.6523 19.5586 24.1406 19.2188 24.5938C18.8789 25.0469 18.6758 25.4609 18.4375 25.8125C17.9609 26.5156 17.6172 26.9805 16.0625 27C15.0781 27.0117 14.5508 26.8203 14.1875 26.5625C13.8242 26.3047 13.5586 25.9297 13.3125 25.4062C12.8672 24.4609 12.2695 23.7656 11.5312 23.3438C10.793 22.9219 10.0234 22.7148 9 22.375C8.99219 22.3594 8.93359 22.2852 8.90625 22.0938C8.85547 21.7109 8.88672 21.0352 8.78125 20.2812C8.67578 19.5273 8.36719 18.6133 7.5625 17.9688C7 17.5156 6.19531 17.2891 5.25 17.1562C5.54297 15.2305 6.55469 13.6562 8.3125 13.0312C9.375 12.6562 9.89844 11.7305 10.25 10.8438C10.6016 9.95703 10.8516 8.96875 11.2188 8.09375C11.5859 7.21875 12.0195 6.48047 12.7188 5.9375C13.418 5.39453 14.4023 5 16 5ZM13 9C12.4492 9 12 9.67188 12 10.5C12 11.3281 12.4492 12 13 12C13.5508 12 14 11.3281 14 10.5C14 9.67188 13.5508 9 13 9ZM17 9C16.4492 9 16 9.67188 16 10.5C16 11.3281 16.4492 12 17 12C17.5508 12 18 11.3281 18 10.5C18 9.67188 17.5508 9 17 9Z" fill="black"/>
</g>
</svg>
