<svg width="32" height="32" viewBox="0 0 32 32" fill="none" xmlns="http://www.w3.org/2000/svg">
<g id="gifts-solid">
<path id="Vector" d="M9 4V7.23438L5.51562 5.14258L4.48438 6.85742L6.38867 8H3V27H9V25H5V10H13.0273C13.8603 9.38 14.884 9 16 9C16.352 9 16.682 9.04156 17 9.10156V8H13.6113L15.5156 6.85742L14.4844 5.14258L11 7.23438V4H9ZM16 11C14.355 11 13 12.355 13 14C13 14.352 13.0745 14.684 13.1875 15H11V17V27H29V17V15H26.8125C26.9265 14.684 27 14.352 27 14C27 12.355 25.645 11 24 11C22.25 11 21.0623 12.3275 20.2812 13.4375C20.1763 13.5855 20.093 13.732 20 13.877C19.906 13.732 19.8237 13.5865 19.7188 13.4375C18.9368 12.3275 17.75 11 16 11ZM16 13C16.625 13 17.4375 13.6715 18.0625 14.5625C18.2145 14.7815 18.1915 14.794 18.3125 15.002H16C15.434 15.002 15 14.568 15 14.002C15 13.436 15.434 13 16 13ZM24 13C24.566 13 25 13.434 25 14C25 14.566 24.566 15 24 15H21.6875C21.8095 14.793 21.7855 14.7805 21.9375 14.5625C22.5625 13.6715 23.375 13 24 13ZM13 17H19V25H13V17ZM21 17H27V25H21V17Z" fill="black"/>
</g>
</svg>
