<svg width="32" height="32" viewBox="0 0 32 32" fill="none" xmlns="http://www.w3.org/2000/svg">
<g id="gift-solid">
<path id="Vector" d="M12 5C10.3555 5 9 6.35547 9 8C9 8.35156 9.07422 8.68359 9.1875 9H4V15H5V28H27V15H28V9H22.8125C22.9258 8.68359 23 8.35156 23 8C23 6.35547 21.6445 5 20 5C18.25 5 17.0625 6.32812 16.2812 7.4375C16.1758 7.58594 16.0938 7.73047 16 7.875C15.9062 7.73047 15.8242 7.58594 15.7188 7.4375C14.9375 6.32812 13.75 5 12 5ZM12 7C12.625 7 13.4375 7.67188 14.0625 8.5625C14.2148 8.78125 14.1914 8.79297 14.3125 9H12C11.4336 9 11 8.56641 11 8C11 7.43359 11.4336 7 12 7ZM20 7C20.5664 7 21 7.43359 21 8C21 8.56641 20.5664 9 20 9H17.6875C17.8086 8.79297 17.7852 8.78125 17.9375 8.5625C18.5625 7.67188 19.375 7 20 7ZM6 11H26V13H17V12H15V13H6V11ZM7 15H25V26H17V16H15V26H7V15Z" fill="black"/>
</g>
</svg>
