<svg width="32" height="32" viewBox="0 0 32 32" fill="none" xmlns="http://www.w3.org/2000/svg">
<g id="git-square">
<path id="Vector" d="M5 5V27H27V5H5ZM7 7H25V25H7V7ZM16.8711 10.3613C16.2391 10.3613 15.8691 10.6991 15.8691 11.3301C15.8691 11.9731 16.2401 12.332 16.8711 12.332C17.5131 12.332 17.8828 11.9721 17.8828 11.3301C17.8828 10.6981 17.5131 10.3613 16.8711 10.3613ZM19.9844 11.416C19.8644 12.624 19.4729 13.1137 18.5039 13.2227V14.2148C19.3969 14.2148 19.3633 14.1803 19.3633 14.3223V17.2402C19.3633 18.4922 19.8654 19 21.1934 19C21.8244 19 22.521 18.8201 23 18.5801L22.6953 17.5977C20.9103 18.2727 21 17.0541 21 16.8691V14.2129H22.6953V13.1035H21V11.416H19.9844ZM11.7285 13.2148C10.571 13.2199 9.17383 13.6821 9.17383 15.3809C9.17383 16.1969 9.58881 16.7739 10.1328 17.0469C9.44681 17.6769 9.11914 17.9708 9.11914 18.3848C9.11914 18.6898 9.25037 18.96 9.60938 19.123C9.22837 19.483 9 19.7568 9 20.2578C9 21.1288 9.77239 21.6406 11.7754 21.6406C13.7134 21.6406 14.8359 20.9214 14.8359 19.6484C14.8359 18.0374 13.6055 18.103 10.6875 17.918L11.0566 17.3281C11.7966 17.5351 14.3008 17.6015 14.3008 15.4785C14.3008 14.9665 14.0937 14.6074 13.8867 14.3574L14.9102 14.2812V13.332H12.7441C12.4719 13.2613 12.1143 13.2132 11.7285 13.2148ZM15.5547 13.2246L15.4336 14.1289C16.1196 14.3679 16.1738 14.3335 16.1738 14.5625V17.8398C16.1738 18.0798 16.1626 18.0368 15.4336 18.1348V19H18.6016V18.1348L18.0352 18.0586C17.8722 18.0366 17.8613 18.0138 17.8613 17.8398V13.2246H15.5547ZM11.8203 14.3223C13.1803 14.3223 13.2131 16.2617 11.7871 16.2617C10.3501 16.2617 10.4153 14.3223 11.8203 14.3223ZM10.5996 19.418C12.7226 19.571 13.1797 19.5164 13.1797 19.9414C13.1797 20.8234 10.3164 20.8229 10.3164 20.0059C10.3164 19.7879 10.4576 19.603 10.5996 19.418Z" fill="black"/>
</g>
</svg>
