<svg width="32" height="32" viewBox="0 0 32 32" fill="none" xmlns="http://www.w3.org/2000/svg">
<g id="git">
<path id="Vector" d="M16 2C15.4961 2 15.0039 2.18359 14.625 2.5625L11.8125 5.40625C11.6602 5.48828 11.5312 5.60547 11.4375 5.75L2.5625 14.625C1.80469 15.3789 1.80469 16.6172 2.5625 17.375L14.625 29.4375C15.3828 30.1914 16.6172 30.1914 17.375 29.4375L29.4375 17.375C30.1953 16.6211 30.1953 15.3828 29.4375 14.625L17.375 2.5625C16.9961 2.18359 16.5039 2 16 2ZM16 4.03125L27.9688 16L16 27.9688L4.03125 16L12.3125 7.71875L14.0625 9.46875C14.0156 9.63672 14 9.81641 14 10C14 10.7383 14.4023 11.3711 15 11.7188V20.2812C14.4023 20.6289 14 21.2617 14 22C14 23.1055 14.8945 24 16 24C17.1055 24 18 23.1055 18 22C18 21.2617 17.5977 20.6289 17 20.2812V12.4375L20.0625 15.5C20.0195 15.6602 20 15.8281 20 16C20 17.1055 20.8945 18 22 18C23.1055 18 24 17.1055 24 16C24 14.8945 23.1055 14 22 14C21.8281 14 21.6602 14.0195 21.5 14.0625L17.9375 10.5C17.9805 10.3398 18 10.1719 18 10C18 8.89453 17.1055 8 16 8C15.8164 8 15.6367 8.01562 15.4688 8.0625L13.7188 6.3125L16 4.03125Z" fill="black"/>
</g>
</svg>
