<svg width="32" height="32" viewBox="0 0 32 32" fill="none" xmlns="http://www.w3.org/2000/svg">
<g id="github-square">
<path id="Vector" d="M5 5V27H27V5H5ZM7 7H25V25H7V7ZM15.9082 9C11.9892 9 9 11.9748 9 15.8848C9 19.0178 10.9672 21.6996 13.7832 22.6426C14.1482 22.7066 14.2754 22.4828 14.2754 22.3008C14.2754 22.1268 14.2676 21.1595 14.2676 20.5645C14.2676 20.5645 12.2831 20.9917 11.8711 19.7227C11.8711 19.7227 11.5479 18.9054 11.0879 18.6914C11.0879 18.6914 10.4448 18.2479 11.1348 18.2559C11.1348 18.2559 11.8337 18.3123 12.2227 18.9863C12.8407 20.0813 13.8782 19.7621 14.2832 19.5801C14.3462 19.1281 14.5303 18.8109 14.7363 18.6289C13.1573 18.4549 11.5625 18.2247 11.5625 15.5117C11.5625 14.7337 11.7765 14.3457 12.2285 13.8457C12.1565 13.6627 11.9118 12.9018 12.3008 11.9258C12.8958 11.7428 14.252 12.6875 14.252 12.6875C14.815 12.5365 15.4243 12.4492 16.0273 12.4492C16.6303 12.4492 17.2417 12.5365 17.8047 12.6875C17.8047 12.6875 19.1609 11.7438 19.7559 11.9258C20.1439 12.9098 19.8972 13.6637 19.8262 13.8457C20.2782 14.3457 20.5566 14.7347 20.5566 15.5117C20.5566 18.2397 18.8905 18.4549 17.3125 18.6289C17.5745 18.8509 17.7969 19.2715 17.7969 19.9375C17.7969 20.8895 17.7891 22.0727 17.7891 22.3027C17.7891 22.4847 17.9164 22.7056 18.2734 22.6426C21.0884 21.6986 23 19.0178 23 15.8848C23 11.9748 19.8272 9 15.9082 9ZM11.5625 18.4863C11.5065 18.4703 11.4594 18.4797 11.4434 18.5117C11.4274 18.5437 11.4499 18.5891 11.5059 18.6211C11.5539 18.6451 11.609 18.6377 11.625 18.5977C11.641 18.5657 11.6185 18.5173 11.5625 18.4863ZM11.8164 18.7227C11.7897 18.7167 11.7641 18.7202 11.7441 18.7402C11.7041 18.7722 11.7118 18.8346 11.7598 18.8906C11.8078 18.9306 11.8702 18.9541 11.9102 18.9141C11.9502 18.8821 11.9425 18.8197 11.8945 18.7637C11.8705 18.7437 11.8432 18.7287 11.8164 18.7227ZM12.1133 19.0898C12.0845 19.0798 12.0533 19.0817 12.0293 19.0977C11.9813 19.1297 11.9813 19.2026 12.0293 19.2656C12.0773 19.3286 12.1495 19.3601 12.1895 19.3281C12.2365 19.2961 12.2365 19.2163 12.1895 19.1543C12.1695 19.1223 12.142 19.0998 12.1133 19.0898ZM12.4375 19.4863C12.4049 19.4823 12.3755 19.4936 12.3555 19.5176C12.3165 19.5576 12.3315 19.6354 12.3945 19.6914C12.4575 19.7554 12.5362 19.7648 12.5762 19.7168C12.6162 19.6848 12.5931 19.597 12.5371 19.541C12.5056 19.509 12.4701 19.4903 12.4375 19.4863ZM12.9824 19.8027C12.9114 19.7867 12.8246 19.8092 12.8086 19.8652C12.7926 19.9212 12.8487 19.986 12.9277 20.002C12.9987 20.034 13.0856 20.0003 13.1016 19.9453C13.1256 19.8903 13.0694 19.8267 12.9824 19.8027ZM14.0527 19.8281C13.9737 19.8441 13.9178 19.8999 13.9258 19.9629C13.9338 20.0179 14.0128 20.0492 14.0918 20.0332C14.1788 20.0172 14.2347 19.9622 14.2188 19.9062C14.2107 19.8503 14.1327 19.8191 14.0527 19.8281ZM13.5293 19.8906C13.4413 19.8906 13.3789 19.9381 13.3789 19.9941C13.3789 20.0571 13.4421 20.1057 13.5371 20.0977C13.6251 20.0977 13.6875 20.0501 13.6875 19.9941C13.6875 19.9301 13.6093 19.8826 13.5293 19.8906Z" fill="black"/>
</g>
</svg>
