<svg width="32" height="32" viewBox="0 0 32 32" fill="none" xmlns="http://www.w3.org/2000/svg">
<g id="github-alt">
<path id="Vector" d="M5.6875 5C5.6875 5 5 6.20703 5 8.25C5 9.60547 5.30859 10.3203 5.53125 10.6875C3.96875 12.3125 3 14.5156 3 17.3438C3 24.5859 7.58984 27 16 27C24.4102 27 29 24.5859 29 17.3438C29 14.418 28.0859 12.2188 26.5938 10.625C26.9648 9.51562 27.3828 7.42188 26.3438 5C23.2422 5 20.6562 7.38281 20.5625 7.46875C19.1133 7.15234 17.5742 7 16 7C14.3945 7 12.8203 7.19531 11.3438 7.5625C9.26562 5.50391 6.75781 5 5.6875 5ZM20.6875 15.4375C21.5312 15.4297 22.3125 15.5 23 15.7188C24.832 16.3008 26 17.9844 26 19.875C26 25.1094 23.1914 26 16 26C10.6562 26 6.3125 25.0586 6.3125 20.0625C6.3125 18.1562 7.34766 17.0781 8.09375 16.4062C9.73438 14.9297 12.3242 15.6562 16 15.6562C17.6719 15.6562 19.2773 15.4531 20.6875 15.4375ZM10.5 18C9.67188 18 9 18.8945 9 20C9 21.1055 9.67188 22 10.5 22C11.3281 22 12 21.1055 12 20C12 18.8945 11.3281 18 10.5 18ZM21.5 18C20.6719 18 20 18.8945 20 20C20 21.1055 20.6719 22 21.5 22C22.3281 22 23 21.1055 23 20C23 18.8945 22.3281 18 21.5 18ZM10.3438 18.8438C10.5781 18.8438 10.75 19.043 10.75 19.2812C10.75 19.5195 10.5781 19.7188 10.3438 19.7188C10.1094 19.7188 9.90625 19.5195 9.90625 19.2812C9.90625 19.043 10.1094 18.8438 10.3438 18.8438ZM21.3438 18.8438C21.5781 18.8438 21.75 19.043 21.75 19.2812C21.75 19.5195 21.5781 19.7188 21.3438 19.7188C21.1094 19.7188 20.9062 19.5195 20.9062 19.2812C20.9062 19.043 21.1094 18.8438 21.3438 18.8438Z" fill="black"/>
</g>
</svg>
