<svg width="32" height="32" viewBox="0 0 32 32" fill="none" xmlns="http://www.w3.org/2000/svg">
<g id="gitkraken">
<path id="Vector" d="M21.1191 5.00196C20.9118 4.98255 20.7018 5.09243 20.6035 5.29493C20.4815 5.54693 20.5774 5.85333 20.8164 5.98633C23.8814 7.70633 25.957 11.0192 25.957 14.8262C25.957 19.0952 23.3425 22.7466 19.6465 24.2246V20.0059C20.2875 19.7999 20.7715 19.1957 20.7715 18.4727C20.7715 17.8737 20.4642 17.3562 19.9902 17.0762C20.3652 13.4382 21.998 14.3963 21.998 13.2383V12.5645C21.998 10.8255 18.0308 5.1613 16.1758 5.0293C16.0628 5.0203 15.949 5.0203 15.832 5.0293C13.972 5.1663 10.0059 10.8265 10.0059 12.5645V13.2422C10.0059 14.4002 11.6456 13.4381 12.0156 17.0801C11.5376 17.3591 11.2344 17.8766 11.2344 18.4766C11.2344 19.1996 11.7125 19.8038 12.3535 20.0098V24.2285C8.65652 22.7555 6.04297 19.1041 6.04297 14.8301C6.04297 11.0281 8.11859 7.71524 11.1836 5.99024C11.4276 5.85324 11.5185 5.55083 11.3965 5.29883C11.2655 5.02883 10.9397 4.92432 10.6777 5.07032C7.29274 6.97032 5 10.6291 5 14.8301C5 20.0781 8.57463 24.477 13.3906 25.666V20.9063C13.7336 21.0203 14.0737 21.1174 14.4297 21.1914V26.8516C8.57069 26.0746 4.03711 20.9891 4.03711 14.8301C4.03711 13.3291 4.30878 11.8895 4.80078 10.5625C4.89978 10.2975 4.77458 10.0045 4.51758 9.89453C4.24658 9.77553 3.93017 9.91132 3.82617 10.1953C3.29317 11.6363 3 13.1961 3 14.8301C3 21.9271 8.53466 27.716 15.4727 28V21.3242C15.7797 21.3422 16.1483 21.3472 16.5273 21.3242V27.9941C23.4653 27.7151 29 21.9271 29 14.8301C29 13.1961 28.7068 11.6374 28.1738 10.1914C28.0698 9.91241 27.7534 9.76968 27.4824 9.88868C27.2254 9.99868 27.0992 10.2956 27.1992 10.5566C27.6912 11.8836 27.9629 13.3252 27.9629 14.8262C27.9629 20.9852 23.4343 26.0697 17.5703 26.8477V21.1875C17.9273 21.1185 18.2714 21.0213 18.6094 20.9023V25.6621C23.4254 24.4771 27 20.0752 27 14.8262C27 10.6252 24.7073 6.96541 21.3223 5.06641C21.258 5.02991 21.1883 5.00843 21.1191 5.00196ZM12.8457 17.3906C13.4367 17.3906 13.9141 17.8756 13.9141 18.4746C13.9141 19.0686 13.4417 19.5586 12.8457 19.5586C12.2497 19.5586 11.7754 19.0686 11.7754 18.4746C11.7754 17.8806 12.2497 17.3906 12.8457 17.3906ZM19.1543 17.3926C19.7413 17.3926 20.2246 17.8726 20.2246 18.4766C20.2246 19.0756 19.7463 19.5605 19.1543 19.5605C18.5673 19.5605 18.0859 19.0806 18.0859 18.4766C18.0859 17.8776 18.5633 17.3926 19.1543 17.3926Z" fill="black"/>
</g>
</svg>
