<svg width="32" height="32" viewBox="0 0 32 32" fill="none" xmlns="http://www.w3.org/2000/svg">
<g id="gitlab">
<path id="Vector" d="M8.38281 1.97266L4.07812 13.4531L3.83594 14.1055L1.79688 19.543L16 29.875L30.2031 19.543L28.1641 14.1055L23.6133 1.97266L19.8828 13.4531H12.1172L8.38281 1.97266ZM8.25 8.02734L10.0156 13.4531H6.21484L8.25 8.02734ZM23.75 8.02734L25.7852 13.4531H21.9844L23.75 8.02734ZM5.46484 15.4531H10.6641L14.0938 26.0156L4.20312 18.8203L5.46484 15.4531ZM12.7656 15.4531H19.2344L16 25.4023L12.7656 15.4531ZM21.3359 15.4531H26.5312L27.7969 18.8203L17.9023 26.0156L21.3359 15.4531Z" fill="black"/>
</g>
</svg>
