<svg width="32" height="32" viewBox="0 0 32 32" fill="none" xmlns="http://www.w3.org/2000/svg">
<g id="glasses-solid">
<path id="Vector" d="M5.0625 6L4.8125 6.65625L1.3125 16H0V18H1V20C1 23.2969 3.70312 26 7 26H9C12.2969 26 15 23.2969 15 20V17C15 16.4336 15.4336 16 16 16C16.5664 16 17 16.4336 17 17V20C17 23.2969 19.7031 26 23 26H25C28.2969 26 31 23.2969 31 20V18H32V16H30.6875L27.1875 6.65625L26.9375 6H25L24.7188 6.375L22.2188 9.375L23.7812 10.625L25.6875 8.3125L28.5625 16H18.8125C18.3945 14.8438 17.293 14 16 14C14.707 14 13.6055 14.8438 13.1875 16H3.4375L6.3125 8.3125L8.21875 10.625L9.78125 9.375L7.28125 6.375L7 6H5.0625ZM3 18H13V20C13 22.2031 11.2031 24 9 24H7C4.79688 24 3 22.2031 3 20V18ZM19 18H29V20C29 22.2031 27.2031 24 25 24H23C20.7969 24 19 22.2031 19 20V18Z" fill="black"/>
</g>
</svg>
