<svg width="32" height="32" viewBox="0 0 32 32" fill="none" xmlns="http://www.w3.org/2000/svg">
<g id="glass-cheers-solid">
<path id="Vector" d="M24.8438 4.0625L23.875 4.34375L16.1875 6.53125L15.25 6.8125L15.4375 7.5L8.21875 5.40625L7.25 5.125L6.96875 6.09375L4.15625 15.6562C3.81641 16.8398 3.60938 18.2539 4 19.625C4.31641 20.7344 5.10938 21.8008 6.34375 22.4375L5.4375 25.7188L2.5625 24.875L2 26.8125L9.6875 29.0312L10.25 27.0938L7.375 26.25L8.28125 23C9.66406 23.1133 10.8906 22.6133 11.75 21.8438C12.8125 20.8906 13.4102 19.6211 13.75 18.4375L16.2188 10.1875L18.25 17.4062V17.4375C18.5898 18.6211 19.1875 19.8906 20.25 20.8438C21.1172 21.6211 22.3281 22.0898 23.7188 21.9688L24.625 25.25L21.75 26.0938L22.3125 28.0312L30 25.8125L29.4375 23.875L26.5625 24.7188L25.625 21.4375C26.8594 20.8008 27.6523 19.7344 27.9688 18.625C28.3594 17.2539 28.1836 15.8398 27.8438 14.6562L25.125 5.03125L24.8438 4.0625ZM23.5 6.53125L24.75 11H18.5L17.7188 8.1875L23.5 6.53125ZM8.625 7.625L14.375 9.25L13.5625 12H7.3125L8.625 7.625ZM19.0625 13H25.3125L25.9375 15.2188C26.207 16.1484 26.3008 17.2539 26.0625 18.0938C25.8242 18.9336 25.3711 19.5234 24.1562 19.875C22.9414 20.2266 22.2422 19.957 21.5938 19.375C20.9453 18.793 20.4258 17.8047 20.1562 16.875L19.0625 13ZM6.71875 14H12.9688L11.8438 17.875H11.8125C11.543 18.8047 11.0547 19.793 10.4062 20.375C9.75781 20.957 9.05859 21.2266 7.84375 20.875C6.62891 20.5234 6.17578 19.9336 5.9375 19.0938C5.69922 18.2539 5.79297 17.1484 6.0625 16.2188L6.71875 14Z" fill="black"/>
</g>
</svg>
