<svg width="32" height="32" viewBox="0 0 32 32" fill="none" xmlns="http://www.w3.org/2000/svg">
<g id="glide">
<path id="Vector" d="M5 5V27H27V5H5ZM7 7H25V25H7V7ZM15.9219 9C12.7829 9 11.1934 12.0982 11.1934 14.4062C11.1934 16.8013 12.5937 18.1289 14.9707 18.1289C15.2987 18.1289 15.2734 18.1015 15.2734 18.2285C14.8134 21.7435 12.8008 21.8576 12.8008 20.8066C12.8008 19.7386 14.0261 19.2086 14.0391 19.1426C14.0301 18.8096 12.7556 18.3906 12.4316 18.3906C11.5076 18.3906 11 19.8355 11 20.6055C11 22.0195 11.892 23 13.332 23C15.442 23 16.9839 20.8243 17.4609 18.9863C17.8729 17.3363 17.766 17.2606 17.998 17.1426C18.874 16.7006 19.2239 16.4082 20.2129 16.4082C20.6989 16.4082 21.0453 16.5097 21.8203 16.6367C21.8993 16.6397 22 16.5604 22 16.4824C22 16.2594 21.0898 14.8329 20.8848 14.7539C20.7888 14.7149 20.5698 14.6523 20.4648 14.6523C19.4538 14.6523 19.1138 15.1128 18.2598 15.5938L18.2363 15.5703C18.4243 14.2833 18.877 13.0661 18.877 11.7441C18.877 9.79114 17.8349 9 15.9219 9ZM16.0605 10.5156C16.5605 10.5156 16.5996 10.8788 16.5996 11.2988C16.5996 11.6838 16.5282 12.0721 16.4492 12.4531C16.1952 13.6701 15.9424 14.8963 15.6934 16.1133C15.6324 16.3893 15.3308 16.3281 15.0938 16.3281C14.0518 16.3281 13.7578 15.1919 13.7578 14.3379C13.7578 13.0549 14.2484 11.3562 15.4434 10.6992C15.6314 10.5902 15.8465 10.5156 16.0605 10.5156Z" fill="black"/>
</g>
</svg>
