<svg width="32" height="32" viewBox="0 0 32 32" fill="none" xmlns="http://www.w3.org/2000/svg">
<g id="glide-g">
<path id="Vector" d="M16.0352 3C10.1902 3 7 8.77322 7 13.0742C7 17.5382 9.83653 20.0117 14.2695 20.0117C14.8785 20.0117 14.8281 19.9611 14.8281 20.2051C13.9701 26.7511 10.2168 26.9648 10.2168 25.0098C10.2168 23.0188 12.9662 22.5243 12.9922 22.4023C12.9762 21.7823 10.604 21 10 21C8.279 21.005 7 23.1082 7 24.5352C7 27.1712 8.5408 29 11.2168 29C15.1468 29 18.0213 25.0482 18.9043 21.6152C19.6713 18.5432 19.4733 18.4026 19.9043 18.1836C21.5393 17.3606 22.825 17.5723 24.668 17.5723C25.572 17.5723 26.2162 17.761 27.6582 18C27.8052 18 27.998 17.8531 27.998 17.7051C27.999 17.2991 26.381 14.3404 26 14.1934C25.822 14.1224 25.4118 14 25.2188 14C23.3347 14 21.9816 14.3842 20.3926 15.2832L20.3477 15.2383C20.7037 12.8363 22 10.2853 22 7.82227C22 4.19127 19.6002 3 16.0352 3ZM16.2891 5.82812C17.2341 5.82812 17.7656 6.218 17.7656 7C17.7606 7.726 17.6285 8.44634 17.4805 9.15234C17.0085 11.4223 16.0764 13.9898 15.6094 16.2598C15.4924 16.7778 14.9342 16.6543 14.4922 16.6543C12.5472 16.6543 12 14.5324 12 12.9434C12 10.5564 12.9186 7.39392 15.1426 6.16992C15.4976 5.96192 15.8931 5.82812 16.2891 5.82812Z" fill="black"/>
</g>
</svg>
