<svg width="32" height="32" viewBox="0 0 32 32" fill="none" xmlns="http://www.w3.org/2000/svg">
<g id="globe-asia-solid">
<path id="Vector" d="M16 4C9.38281 4 4 9.38281 4 16C4 22.6172 9.38281 28 16 28C22.6172 28 28 22.6172 28 16C28 9.38281 22.6172 4 16 4ZM16.4062 6.03125C17.3672 6.07031 18.2852 6.21094 19.1562 6.5L18.6875 7.15625L19.0625 7.9375L18.5625 8.9375L20.6875 9.21875L21.4688 12.8438L23.1875 15.1875L24.7188 16.1562L24.125 14.5L24.6875 13.8125L25.8438 14.125C25.957 14.7305 26 15.3633 26 16C26 16.1484 25.9766 16.293 25.9688 16.4375L25.875 16.25L24.9062 16.6562L24.6562 17.2812L24.125 17.4688L24.3125 19.0938L24.7188 19.6875L24.4375 20.4688L22.9375 22.8438L22.8125 23.3125C21.0273 24.9727 18.6406 26 16 26C12.9336 26 10.207 24.6289 8.375 22.4688L6.96875 19L7.78125 17.625L6.5625 16.9375L7.9375 16.2812L8 15.5312L7.59375 14.4688L8.375 14.5625L9.15625 15.75L9.875 16.0938L9.65625 15.2812L10.4062 14.5312L11.625 15.4062L12.2812 14.875L12 13.5L12.9688 12.125L12.8438 10.75L14.0312 10.0312L13.2188 8.03125L15.4688 7.90625L16.7188 6.3125L16.4062 6.03125ZM15 15.5938L12.3438 17.5938L12.5312 20.0938L13.2188 20.6875L14.75 19.875L15.5312 20.0938L16.875 21.5312L17.6875 21.3125L18.5312 19.3125L18 17.9375L16.9375 15.875L16.1562 17.125L15 15.5938ZM20 19.8125L19.8125 19.875L19.75 21.1562L19.3125 21.75L19.8125 22.2188L20.4375 21.5L20 19.8125ZM18.9062 22.25L17.625 23.7188L17.9688 24.0938L19.4688 22.6562L18.9062 22.25Z" fill="black"/>
</g>
</svg>
