<svg width="32" height="32" viewBox="0 0 32 32" fill="none" xmlns="http://www.w3.org/2000/svg">
<g id="globe-europe-solid">
<path id="Vector" d="M16 3C8.832 3 3 8.832 3 16C3 23.168 8.832 29 16 29C23.168 29 29 23.168 29 16C29 8.832 23.168 3 16 3ZM16 5C18.103 5 20.0633 5.60481 21.7363 6.63281L21.5 7.19922L22.6758 8.375L21.5742 9.47461L20 8H18L16 10.5L17 12.6992L18 12V11H19L20.0996 11.9004L19 13L15 15H14V17H15L17 16L18 17H20V16L20.8008 14.8008L23 14V16H21V17H23L25 20L26 19V18H25V17H26L26.9609 16.793C26.8149 18.835 26.113 20.7207 25 22.3047V22H23.9004L21.5 18L19 19L16 18L13 19L12 22L13 24H15L16 23L17 24V26.9492C16.67 26.9792 16.338 27 16 27C9.935 27 5 22.065 5 16C5 15.073 5.1287 14.1774 5.3457 13.3164L5.90039 13H7V9.69531C7.167 9.45831 7.33748 9.223 7.52148 9H8.41992L8.85742 7.65039C9.48542 7.11239 10.1722 6.64481 10.9102 6.25781L10 9H12L14 7V6H13L12 7V5.76367C13.242 5.27667 14.588 5 16 5ZM14 11V13H15V11H14Z" fill="black"/>
</g>
</svg>
