<svg width="32" height="32" viewBox="0 0 32 32" fill="none" xmlns="http://www.w3.org/2000/svg">
<g id="globe-solid">
<path id="Vector" d="M16 4C9.38281 4 4 9.38281 4 16C4 22.6172 9.38281 28 16 28C22.6172 28 28 22.6172 28 16C28 9.38281 22.6172 4 16 4ZM16 6C17.9688 6 19.7969 6.58594 21.3438 7.5625L20.5312 7.65625L20.7188 9.65625L19.6562 9.1875L18.7812 9.9375L18.9375 12L21.0938 11.3125L23.7812 12.1875L23.0938 13.4375L21.4688 12.4375L19.7188 12.6875L18 13.9688L17.0312 16.9688L18.9688 18.5625C18.9688 18.5625 20.957 18.2188 21.0625 18.2188C21.168 18.2188 21.9062 20.0312 21.9062 20.0312L20.3125 25.0312C19.0117 25.6523 17.543 26 16 26C15.6836 26 15.3711 25.9648 15.0625 25.9375L13.9688 24.0312L15.0312 20.0312L11 17H7.28125L6.3125 15.0312L9 12.9062L13 11L12.4062 8.34375L14.125 7.96875L14.9375 9.09375L17.9375 8.53125L17.4062 6.21875L15.1875 6.0625C15.4531 6.04297 15.7266 6 16 6ZM14.875 6.0625L13.3125 6.71875L12.5625 6.59375C13.3008 6.32422 14.0664 6.15234 14.875 6.0625ZM6.0625 16.7812L7.03125 17.9062V19.9688L8.90625 22.0312H10.0625L12.9062 25.5312C9.13281 24.3086 6.37891 20.8906 6.0625 16.7812Z" fill="black"/>
</g>
</svg>
