<svg width="32" height="32" viewBox="0 0 32 32" fill="none" xmlns="http://www.w3.org/2000/svg">
<g id="globe-africa-solid">
<path id="Vector" d="M16 3C8.832 3 3 8.832 3 16C3 23.168 8.832 29 16 29C23.168 29 29 23.168 29 16C29 8.832 23.168 3 16 3ZM16 5C16.338 5 16.67 5.02078 17 5.05078V7H15L14 10H13V11H18L19 12H20V13L19 14L15 13L11 16V19L13 21H16V23.5L17 26H18L21 22V21L22 19V18H21L20 16L21 15L22.5 16L25 15V14H26.8086C26.9286 14.65 27 15.316 27 16C27 22.065 22.065 27 16 27C9.935 27 5 22.065 5 16C5 9.935 9.935 5 16 5Z" fill="black"/>
</g>
</svg>
