<svg width="32" height="32" viewBox="0 0 32 32" fill="none" xmlns="http://www.w3.org/2000/svg">
<g id="globe-americas-solid">
<path id="Vector" d="M16 3C8.832 3 3 8.832 3 16C3 23.168 8.832 29 16 29C23.168 29 29 23.168 29 16C29 8.832 23.168 3 16 3ZM16 5C16.338 5 16.67 5.02078 17 5.05078V6H19V5.42578C21.458 6.12478 23.566 7.65431 25 9.69531V13L26 15V16H27C27 16.366 26.9803 16.7289 26.9453 17.0859C26.9363 17.1819 26.9163 17.2741 26.9043 17.3691C26.8713 17.6321 26.8372 17.8934 26.7852 18.1504C26.7662 18.2464 26.7407 18.3405 26.7188 18.4355C26.6607 18.6895 26.5984 18.9425 26.5234 19.1895C26.4974 19.2745 26.4675 19.3574 26.4395 19.4414C26.3555 19.6954 26.2661 19.9474 26.1641 20.1934C26.1341 20.2654 26.1013 20.3353 26.0703 20.4062C25.9583 20.6612 25.8409 20.9123 25.7109 21.1562C25.6799 21.2153 25.6463 21.2731 25.6133 21.3301C25.4733 21.5821 25.325 21.8264 25.166 22.0664C25.135 22.1134 25.1023 22.162 25.0703 22.209C24.9023 22.454 24.7241 22.6919 24.5371 22.9219C24.5061 22.9599 24.4783 22.9962 24.4473 23.0332C24.2533 23.2662 24.0479 23.4891 23.8359 23.7051C23.8049 23.7361 23.7751 23.7698 23.7441 23.8008C23.5271 24.0158 23.3004 24.222 23.0664 24.418C23.0334 24.446 23.0047 24.475 22.9707 24.502C22.7367 24.694 22.4912 24.8729 22.2422 25.0449C22.2032 25.0719 22.1679 25.1029 22.1289 25.1289C21.8899 25.2899 21.6407 25.4361 21.3887 25.5781C20.2147 26.2371 18.9096 26.6909 17.5176 26.8809L21.5293 23.8574L22.6289 22.7578L24 20V19L22 18H21L19 16H17L16 17V18L15 19V21L17 22.5996L15.0234 26.9512C9.41444 26.4532 5 21.735 5 16C5 12.592 6.559 9.54148 9 7.52148V8L8 9V11.1992L9 15L14 17H15V16L12 15V13H15L16 10.5L18 9V8L15 6L13.5625 5.28125C14.3475 5.10325 15.161 5 16 5ZM15 14V15H17V14H15Z" fill="black"/>
</g>
</svg>
