<svg width="32" height="32" viewBox="0 0 32 32" fill="none" xmlns="http://www.w3.org/2000/svg">
<g id="gofore">
<path id="Vector" d="M17 4C10.373 4 5 9.373 5 16C5 22.627 10.373 28 17 28C20.585 28 23.7815 26.4081 25.9785 23.9141C25.8625 22.1191 24.49 20.0767 22 20.0117V20.8652C20.729 22.1742 18.964 23 17 23C13.14 23 10 19.86 10 16C10 12.14 13.14 9 17 9C18.692 9 20.245 9.60442 21.457 10.6074L24.9629 7.03906C22.8429 5.15406 20.059 4 17 4ZM16 13V18H22C24.21 18 25.418 18.796 26 20C26 17.369 26.002 13 22 13H16Z" fill="black"/>
</g>
</svg>
