<svg width="32" height="32" viewBox="0 0 32 32" fill="none" xmlns="http://www.w3.org/2000/svg">
<g id="golf-ball-solid">
<path id="Vector" d="M16 3C10.4883 3 6 7.48828 6 13C6 16.6836 8.02344 19.8906 11 21.625V22L10.9688 23H11C11.0469 23 11.9883 23.0273 12.9688 23.625C13.8359 24.1523 14.7461 25.0352 14.9688 27H7V29H25V27H17.0312C17.2539 25.0352 18.1641 24.1523 19.0312 23.625C20.0117 23.0273 20.9531 23 21 23H21.0312L21 22V21.625C23.9766 19.8906 26 16.6836 26 13C26 7.48828 21.5117 3 16 3ZM16 5C20.4297 5 24 8.57031 24 13C24 17.4297 20.4297 21 16 21C11.5703 21 8 17.4297 8 13C8 8.57031 11.5703 5 16 5ZM19 11C18.4492 11 18 11.4492 18 12C18 12.5508 18.4492 13 19 13C19.5508 13 20 12.5508 20 12C20 11.4492 19.5508 11 19 11ZM17 13C16.4492 13 16 13.4492 16 14C16 14.5508 16.4492 15 17 15C17.5508 15 18 14.5508 18 14C18 13.4492 17.5508 13 17 13ZM20 14C19.4492 14 19 14.4492 19 15C19 15.5508 19.4492 16 20 16C20.5508 16 21 15.5508 21 15C21 14.4492 20.5508 14 20 14ZM15 15C14.4492 15 14 15.4492 14 16C14 16.5508 14.4492 17 15 17C15.5508 17 16 16.5508 16 16C16 15.4492 15.5508 15 15 15ZM18 16C17.4492 16 17 16.4492 17 17C17 17.5508 17.4492 18 18 18C18.5508 18 19 17.5508 19 17C19 16.4492 18.5508 16 18 16ZM15.2812 23H16.7188C16.457 23.2969 16.2188 23.6211 16 24C15.7812 23.6211 15.543 23.2969 15.2812 23Z" fill="black"/>
</g>
</svg>
