<svg width="32" height="32" viewBox="0 0 32 32" fill="none" xmlns="http://www.w3.org/2000/svg">
<g id="goodreads">
<path id="Vector" d="M5 5V27H27V5H5ZM7 7H25V25H7V7ZM15.5 9C13.019 9 11 11.243 11 14C11 16.757 13.019 19 15.5 19C16.921 19 18.175 18.2495 19 17.1035V18.5C19 20.43 17.43 22 15.5 22C14.109 22 12.9156 21.178 12.3516 20H11.2754C11.8964 21.742 13.547 23 15.5 23C17.981 23 20 20.981 20 18.5V10H19V10.8965C18.175 9.75048 16.921 9 15.5 9ZM15.5 10C17.43 10 19 11.794 19 14C19 16.206 17.43 18 15.5 18C13.57 18 12 16.206 12 14C12 11.794 13.57 10 15.5 10Z" fill="black"/>
</g>
</svg>
