<svg width="32" height="32" viewBox="0 0 32 32" fill="none" xmlns="http://www.w3.org/2000/svg">
<g id="goodreads-g">
<path id="Vector" d="M16 3C11.589 3 8 7.262 8 12.5C8 17.738 11.589 22 16 22C18.39 22 20.533 20.7427 22 18.7637V22C22 24.757 19.309 27 16 27C13.545 27 11.4329 25.764 10.5059 24H8.33789C9.32389 26.887 12.383 29 16 29C20.411 29 24 25.859 24 22V4H22V6.23633C20.533 4.25733 18.39 3 16 3ZM16 5C19.309 5 22 8.364 22 12.5C22 16.636 19.309 20 16 20C12.691 20 10 16.636 10 12.5C10 8.364 12.691 5 16 5Z" fill="black"/>
</g>
</svg>
