<svg width="32" height="32" viewBox="0 0 32 32" fill="none" xmlns="http://www.w3.org/2000/svg">
<g id="google">
<path id="Vector" d="M18.6836 15.4062C18.6836 13.4297 21.8945 13.2578 21.8945 9.39453C21.8945 6.59766 19.9492 5.25781 19.75 5.13672H21.6875L23.625 4H17.3477C10.9609 4 9.9375 8.46875 9.9375 9.94922C9.9375 12.1562 11.6641 14.8984 15.1367 14.8984C15.4531 14.8984 15.7891 14.8789 16.1445 14.8398C16.0859 15.0039 15.8359 15.5664 15.8359 16.0742C15.8359 17.1367 16.5156 17.8125 16.75 18.2227C12.9492 18.1875 8.375 19.8359 8.375 23.5039C8.375 24.8438 9.52734 28 14.9414 28C21.1172 28 22.9883 24.1875 22.9883 22.0508C22.9844 17.9688 18.6836 17.293 18.6836 15.4062ZM16.5859 14.043C14.4258 14.043 12.6016 11.3242 12.6016 8.41797C12.6016 7.55469 13.0156 5.04688 15.4062 5.04688C18.4844 5.04688 19.2344 9.60938 19.2344 10.8516C19.2344 11.1406 19.4375 14.043 16.5859 14.043ZM16.4375 26.6797C14.457 26.6797 11.0391 25.8359 11.0391 22.8359C11.0391 21.7969 11.6445 19.082 16.9023 19.082C17.1719 19.082 17.4062 19.0938 17.6055 19.1133C18.6992 19.9297 20.9648 21.1094 20.9648 23.2812C20.9648 24.2656 20.3789 26.6797 16.4375 26.6797Z" fill="black"/>
</g>
</svg>
