<svg width="32" height="32" viewBox="0 0 32 32" fill="none" xmlns="http://www.w3.org/2000/svg">
<g id="google-drive">
<path id="Vector" d="M11.4375 5L11.1562 5.46875L3.15625 18.4688L2.84375 18.9688L3.125 19.5L7.125 26.5L7.40625 27H24.5938L24.875 26.5L28.875 19.5L29.1562 18.9688L28.8438 18.4688L20.8438 5.46875L20.5625 5H11.4375ZM13.7812 7H19.4375L26.2188 18H20.5625L13.7812 7ZM12 7.90625L14.9688 12.75L8.03125 24.0312L5.15625 19L12 7.90625ZM16.1562 14.6562L18.2188 18H14.0938L16.1562 14.6562ZM12.875 20H26.2812L23.4062 25H9.78125L12.875 20Z" fill="black"/>
</g>
</svg>
