<svg width="32" height="32" viewBox="0 0 32 32" fill="none" xmlns="http://www.w3.org/2000/svg">
<g id="google-play">
<path id="Vector" d="M7.75 3.00003C7.67578 2.99222 7.60938 3.02737 7.53125 3.03128C7.46484 3.03519 7.41016 3.01956 7.34375 3.03128C7.33203 3.03128 7.32422 3.03128 7.3125 3.03128C7.28125 3.03128 7.25 3.03128 7.21875 3.03128C7.10938 3.05472 7.00391 3.09769 6.90625 3.15628C6.80078 3.21097 6.70312 3.28519 6.625 3.37503C6.23438 3.70316 6 4.21097 6 4.68753V27.4688C6 27.961 6.21875 28.5547 6.75 28.8438C6.78906 28.8633 6.83594 28.8594 6.875 28.875C6.90625 28.8867 6.9375 28.8985 6.96875 28.9063C7.44531 29.0664 7.94141 28.9727 8.3125 28.75C8.32422 28.75 8.33203 28.75 8.34375 28.75C8.77344 28.4883 17.75 23 17.75 23L22.5312 20.125C22.5312 20.125 26.5859 17.6719 27.125 17.3438C27.582 17.0664 28.0078 16.5391 28 15.9063C27.9922 15.2735 27.5547 14.8047 27.125 14.5625C26.9883 14.4844 25.7852 13.7617 24.6875 13.0938C23.6367 12.4532 22.7148 11.8985 22.625 11.8438C22.5938 11.8203 22.5625 11.8008 22.5312 11.7813L17.75 8.87503C17.75 8.87503 9.05078 3.59769 8.53125 3.28128C8.30078 3.14456 8.02734 3.03128 7.75 3.00003ZM8 6.09378L17.4375 15.9375L8 25.7813V6.09378ZM12.8125 8.21878C14.5781 9.28909 16.7188 10.5938 16.7188 10.5938L20.4062 12.8438L18.8125 14.5L12.8125 8.21878ZM22.1562 13.9063C22.5391 14.1407 22.8906 14.3477 23.6562 14.8125C24.4922 15.3203 25.0742 15.6446 25.5625 15.9375C24.6445 16.4922 22.9023 17.5664 22.1875 18L20.2188 15.9375L22.1562 13.9063ZM18.8125 17.4063L20.4062 19.0625L16.7188 21.3125C16.7188 21.3125 14.5273 22.6289 12.7812 23.6875L18.8125 17.4063Z" fill="black"/>
</g>
</svg>
