<svg width="32" height="32" viewBox="0 0 32 32" fill="none" xmlns="http://www.w3.org/2000/svg">
<g id="google-wallet">
<path id="Vector" d="M22 3.5C21.4219 3.5 20.8555 3.66016 20.3438 3.9375C18.6523 4.85938 18.0234 6.96094 18.9375 8.65625C18.9414 8.66797 19.3867 9.60156 19.8125 11.125C17.6875 8.0625 15.4219 6.44922 15.3125 6.375C15.2969 6.35938 15.2656 6.35938 15.25 6.34375C15.2188 6.32031 15.1875 6.30078 15.1562 6.28125C14.543 5.79297 13.7969 5.5 13 5.5C12.2891 5.5 11.6172 5.72266 11.0312 6.125C9.44922 7.21484 9.04297 9.37891 10.125 10.9688C10.125 10.9688 10.3789 11.418 10.6562 12.0625C10.3008 11.7852 9.94531 11.5312 9.59375 11.3125C8.18359 10.4414 7.00391 10 6 10C4.35547 10 3 11.3555 3 13C3 14.0078 3.61328 14.7891 4.28125 15.3438C4.94922 15.8984 5.73438 16.3672 6.53125 16.9062C8.01562 17.9062 9.50391 19.1055 10.3438 21.375C10.1211 21.8984 9.94141 22.3047 9.9375 22.3125C9 23.9727 9.60547 26.082 11.2812 27.0312C11.8047 27.3281 12.3984 27.5 13 27.5C14.2578 27.5 15.4102 26.8125 16.0312 25.7188C16.1953 25.4297 17.1445 23.6641 17.8125 21.125C18.2344 22.3867 18.5977 24.0234 18.5 25.9375C18.4609 26.1367 18.4805 26.3438 18.5625 26.5312C18.5664 26.5508 18.5586 26.5742 18.5625 26.5938C18.7578 27.6992 19.4648 28.6953 20.5625 29.1875C21.0117 29.3906 21.5039 29.5 22 29.5C23.3789 29.5 24.625 28.6953 25.1875 27.4375C25.4219 26.9062 27.5 22.0977 27.5 16.0938C27.5 9.94922 25.3125 5.76562 25.0625 5.3125C24.4492 4.19141 23.2773 3.5 22 3.5ZM22 5.5C22.5312 5.5 23.0391 5.78516 23.3125 6.28125C23.4023 6.44531 25.5 10.3359 25.5 16.0938C25.5 21.7891 23.4609 26.4297 23.375 26.625C23.125 27.1836 22.5742 27.5 22 27.5C21.7969 27.5 21.5742 27.4648 21.375 27.375C20.6172 27.0352 20.2891 26.1328 20.625 25.375C20.6523 25.3125 22.2617 21.6211 22.4688 17.0312C22.5273 16.8594 22.5391 16.6758 22.5 16.5C22.5039 16.3633 22.5 16.2305 22.5 16.0938C22.5 11.1445 20.707 7.75391 20.6875 7.71875C20.293 6.99219 20.5547 6.08203 21.2812 5.6875C21.5117 5.5625 21.7578 5.5 22 5.5ZM13 7.5C13.3555 7.5 13.6914 7.63672 13.9688 7.875C13.9805 7.88672 13.9883 7.89453 14 7.90625C14.0781 7.98047 14.1562 8.0625 14.2188 8.15625C14.3125 8.28906 16.5 11.4766 16.5 16.1875C16.5 20.8242 14.4023 24.5938 14.3125 24.75C14.0352 25.2383 13.5234 25.5 13 25.5C12.75 25.5 12.4844 25.4453 12.25 25.3125C11.5312 24.9062 11.2812 23.9727 11.6875 23.25C11.7148 23.2031 13.5 20 13.5 16.1875C13.5 12.457 11.7969 9.87109 11.7812 9.84375C11.3164 9.16016 11.4766 8.25 12.1562 7.78125C12.4141 7.60156 12.707 7.5 13 7.5ZM17.9688 11.9688C18.918 13.2734 19.8359 14.8672 20.4688 16.7812C20.4102 18.3906 20.168 19.875 19.875 21.125C19.3281 19.2188 18.668 18.0547 18.4375 17.6875C18.4805 17.1914 18.5 16.707 18.5 16.1875C18.5 14.6172 18.2773 13.1992 17.9688 11.9688ZM6 12C6.10156 12 7.35938 12.3086 8.53125 13.0312C9.625 13.707 10.7539 14.6992 11.5 16.0312C11.5 16.082 11.5 16.1328 11.5 16.1875C11.5 17.0703 11.3867 17.9102 11.2188 18.6875C10.168 17.0977 8.82031 16.0352 7.65625 15.25C6.79688 14.6719 6.02734 14.1992 5.5625 13.8125C5.09766 13.4258 5 13.2422 5 13C5 12.4336 5.43359 12 6 12Z" fill="black"/>
</g>
</svg>
