<svg width="32" height="32" viewBox="0 0 32 32" fill="none" xmlns="http://www.w3.org/2000/svg">
<g id="google-plus-square">
<path id="Vector" d="M5 5V27H27V5H5ZM7 7H25V25H7V7ZM13.5938 11C11.0557 11 9 13.056 9 15.584C9 18.122 11.0557 20.1777 13.5938 20.1777C16.2378 20.1777 18 18.3212 18 15.6992C18 15.4062 17.969 15.231 17.916 15H13.5938V16.5176H16.1953C16.0913 17.1886 15.4088 18.4902 13.5938 18.4902C12.0308 18.4902 10.752 17.2007 10.752 15.5957C10.752 13.9907 12.0308 12.6895 13.5938 12.6895C14.4847 12.6895 15.0839 13.0773 15.4199 13.4023L16.668 12.2051C15.861 11.4501 14.8317 11 13.5938 11ZM20.3301 14V15.3301H19V16.6699H20.3301V18H21.6699V16.6699H23V15.3301H21.6699V14H20.3301Z" fill="black"/>
</g>
</svg>
