<svg width="32" height="32" viewBox="0 0 32 32" fill="none" xmlns="http://www.w3.org/2000/svg">
<g id="google-plus-g">
<path id="Vector" d="M11 7C6.02734 7 2 11.0273 2 16C2 20.9727 6.02734 25 11 25C15.9727 25 20 20.9727 20 16C20 15.3828 19.9336 14.7812 19.8125 14.1992L19.7656 14H11V17H17C16.5234 19.8359 13.9727 22 11 22C7.6875 22 5 19.3125 5 16C5 12.6875 7.6875 10 11 10C12.5 10 13.8672 10.5547 14.9219 11.4648L17.0703 9.35938C15.4688 7.89453 13.3398 7 11 7ZM25 11V14H22V16H25V19H27V16H30V14H27V11H25Z" fill="black"/>
</g>
</svg>
