<svg width="32" height="32" viewBox="0 0 32 32" fill="none" xmlns="http://www.w3.org/2000/svg">
<g id="gopuram-solid">
<path id="Vector" d="M9 5V10H8V14H6V20H4V27H9V20H10V14H11V10H13V14H12V20H11V27H13V25C13 23.343 14.343 22 16 22C17.657 22 19 23.343 19 25V27H21V20H20V14H19V10H21V14H22V20H23V27H28V20H26V14H24V10H23V5H21V7H19V5H17V7H15V5H13V7H11V5H9ZM16 11C16.552 11 17 11.448 17 12V14H15V12C15 11.448 15.448 11 16 11ZM16 16C17.105 16 18 16.895 18 18V20H14V18C14 16.895 14.895 16 16 16Z" fill="black"/>
</g>
</svg>
