<svg width="32" height="32" viewBox="0 0 32 32" fill="none" xmlns="http://www.w3.org/2000/svg">
<g id="graduation-cap-solid">
<path id="Vector" d="M16 4.875L15.5312 5.125L2.03125 12.125L0.3125 13L2 13.8438V22.2812C1.40234 22.6289 1 23.2617 1 24C1 25.1055 1.89453 26 3 26C4.10547 26 5 25.1055 5 24C5 23.2617 4.59766 22.6289 4 22.2812V14.875L6 15.9062V21C6 21.4414 6.20312 21.8398 6.4375 22.0938C6.67188 22.3477 6.95703 22.5 7.25 22.6562C7.83984 22.9648 8.53906 23.1836 9.40625 23.375C11.1406 23.7617 13.4531 24 16 24C18.5469 24 20.8594 23.7617 22.5938 23.375C23.4609 23.1836 24.1602 22.9648 24.75 22.6562C25.043 22.5 25.3281 22.3477 25.5625 22.0938C25.7969 21.8398 26 21.4414 26 21V15.9062L29.9688 13.875L31.6875 13L29.9688 12.125L16.4688 5.125L16 4.875ZM16 7.125L27.3125 13L25.5312 13.9062C25.3047 13.668 25.0312 13.4922 24.75 13.3438C24.1641 13.0352 23.4609 12.8164 22.5938 12.625C20.8633 12.2383 18.5586 12 16 12C13.4414 12 11.1367 12.2383 9.40625 12.625C8.53906 12.8164 7.83594 13.0352 7.25 13.3438C6.96875 13.4922 6.69531 13.668 6.46875 13.9062L4.6875 13L16 7.125ZM16 14C18.4414 14 20.6367 14.2227 22.1562 14.5625C22.9141 14.7305 23.5234 14.9258 23.8438 15.0938C23.9453 15.1484 23.9609 15.1875 24 15.2188V19.0312C23.582 18.8789 23.125 18.7422 22.5938 18.625C20.8594 18.2383 18.5469 18 16 18C13.4531 18 11.1406 18.2383 9.40625 18.625C8.875 18.7422 8.41797 18.8789 8 19.0312V15.2188C8.03906 15.1875 8.05469 15.1484 8.15625 15.0938C8.47656 14.9258 9.08594 14.7305 9.84375 14.5625C11.3633 14.2227 13.5586 14 16 14ZM16 20C18.4258 20 20.6328 20.2227 22.1562 20.5625C22.7891 20.7031 23.1875 20.8516 23.5312 21C23.1875 21.1484 22.7891 21.2969 22.1562 21.4375C20.6328 21.7773 18.4258 22 16 22C13.5742 22 11.3672 21.7773 9.84375 21.4375C9.21094 21.2969 8.8125 21.1484 8.46875 21C8.8125 20.8516 9.21094 20.7031 9.84375 20.5625C11.3672 20.2227 13.5742 20 16 20Z" fill="black"/>
</g>
</svg>
