<svg width="32" height="32" viewBox="0 0 32 32" fill="none" xmlns="http://www.w3.org/2000/svg">
<g id="gratipay">
<path id="Vector" d="M16 4C9.38281 4 4 9.38281 4 16C4 22.6172 9.38281 28 16 28C22.6172 28 28 22.6172 28 16C28 9.38281 22.6172 4 16 4ZM16 6C21.5352 6 26 10.4648 26 16C26 21.5352 21.5352 26 16 26C10.4648 26 6 21.5352 6 16C6 10.4648 10.4648 6 16 6ZM12.5 12C11.1172 12 10 13.1172 10 14.5C10 15.0273 10.1562 15.5352 10.4375 15.9375C10.4375 15.9414 10.4688 15.9375 10.4688 15.9375L16 22.25L21.5312 15.9375L21.5625 15.9062C21.8438 15.5039 22 15.0273 22 14.5C22 13.1172 20.8828 12 19.5 12C17.7344 12 17.3125 13.6875 16 13.6875C14.6875 13.6875 14.2656 12 12.5 12Z" fill="black"/>
</g>
</svg>
