<svg width="32" height="32" viewBox="0 0 32 32" fill="none" xmlns="http://www.w3.org/2000/svg">
<g id="grav">
<path id="Vector" d="M16 3C8.832 3 3 8.832 3 16C3 23.168 8.832 29 16 29C23.168 29 29 23.168 29 16C29 8.832 23.168 3 16 3ZM16 5C22.065 5 27 9.935 27 16C27 22.065 22.065 27 16 27C9.935 27 5 22.065 5 16C5 9.935 9.935 5 16 5ZM15.8906 7.01953C15.6259 7.02428 15.3467 7.17045 15.1797 7.50195C15.1837 7.49395 15.1933 7.48447 15.1973 7.48047C14.9863 7.98347 15.4089 9.96506 16.1699 11.2891C16.0639 11.3481 15.997 11.4053 15.832 11.5703C14.919 11.9803 13.4551 14.1211 13.4551 14.1211C12.2631 14.5781 10.1917 15.9412 10.4707 17.1582C10.4837 17.2852 10.5297 17.3906 10.5977 17.4746C10.4797 17.5676 10.3641 17.6862 10.2461 17.8262C9.74309 18.4102 10.0221 19.3134 10.9941 18.8574C11.6621 18.5534 12.2463 18.0033 12.5293 17.5723C12.5293 17.5723 12.2978 17.3617 11.8418 17.3867C13.0128 17.1077 13.3069 17.2789 13.7949 17.3359C14.1329 17.5009 14.1328 15.8848 14.1328 15.8848C14.1328 15.2628 14.0401 14.5749 13.6641 14.1309C14.1931 14.6469 14.8937 15.5124 14.8477 16.6914C14.8137 17.4654 14.2051 17.6641 14.2051 17.6641C13.8201 18.3661 12.3779 20.4515 12.9199 22.1465C12.9199 22.1465 12.5093 21.5179 12.4883 21.2129C11.7523 22.0329 10.5232 23.4245 11.4492 23.9395C12.5742 24.5615 16.0502 20.1929 16.7852 17.9219C18.2482 17.0419 19.1273 15.9228 19.4863 15.1738C20.4143 17.0148 23.6964 18.9131 23.9414 17.4121C24.0474 16.7311 23.087 16.7092 22.875 16.3242C22.3 15.3052 21.5227 15.0259 20.3887 15.2969C20.8797 14.9589 21.3828 15.0391 21.3828 15.0391C21.3958 14.7681 21.3833 14.4893 20.9863 13.9863C21.1513 13.4573 20.998 13.0391 20.998 13.0391C21.653 12.6751 22.1315 12.0079 22.2285 11.2129C22.3805 9.90189 21.434 8.70964 20.123 8.55664C19.188 8.45064 18.2742 8.88158 17.8262 9.64258C16.8452 11.3386 17.8854 12.6419 18.7734 13.0859C18.1644 13.0269 17.3241 12.5818 17.0781 11.6348C16.8371 10.6958 17.1007 9.80758 17.3438 9.26758C17.3438 9.26758 16.7995 8.81364 16.6465 8.68164C16.6465 8.68164 16.0615 8.68225 15.6055 8.90625C16.1085 8.26325 16.6719 8.29688 16.6719 8.29688C16.6719 8.02588 16.6465 7.66777 16.5195 7.38477C16.4055 7.15227 16.1554 7.01478 15.8906 7.01953ZM19.4707 9.29297C19.8878 9.33797 20.2913 9.60973 20.6953 9.99023C21.1983 10.4682 21.9339 11.0423 21.4219 12.0273C20.8929 13.0213 19.5159 13.4319 18.6699 12.8359C17.8289 12.2269 17.24 11.0081 18.166 9.95508C18.6225 9.42858 19.0536 9.24797 19.4707 9.29297ZM20.3789 10.8281C20.0645 10.869 19.7838 11.343 20.0312 11.6348C20.3433 12.0158 21.3875 11.7361 20.6855 10.9531C20.5915 10.8474 20.4837 10.8145 20.3789 10.8281ZM17.1797 13.4102C17.3071 13.4102 17.4357 13.4578 17.5352 13.5508L17.9805 14.0078C18.1665 14.1938 18.1665 14.5093 17.9805 14.6953L17.5703 15.1055C17.3843 15.3045 17.0662 15.3045 16.8672 15.1055L16.4238 14.6621C16.2378 14.4631 16.2378 14.1599 16.4238 13.9609L16.834 13.5508C16.927 13.4578 17.0523 13.4102 17.1797 13.4102Z" fill="black"/>
</g>
</svg>
