<svg width="32" height="32" viewBox="0 0 32 32" fill="none" xmlns="http://www.w3.org/2000/svg">
<g id="grin-squint-tears">
<path id="Vector" d="M16 3C8.832 3 3 8.832 3 16C3 19.88 4.71788 23.3582 7.42188 25.7422C7.61387 25.2522 7.90359 24.6236 8.30859 23.8516C6.26959 21.8536 5 19.073 5 16C5 9.935 9.935 5 16 5C19.073 5 21.8536 6.26959 23.8516 8.30859C24.6246 7.90359 25.2522 7.61287 25.7422 7.42188C23.3582 4.71788 19.88 3 16 3ZM27.5 9C26.672 9 24 10.5 24 10.5C24 10.5 26.672 12 27.5 12C28.328 12 29 11.328 29 10.5C29 9.672 28.328 9 27.5 9ZM19.293 9.29297L15.293 13.293L16.707 14.707L20.707 10.707L19.293 9.29297ZM23.5703 13.4297L13.4297 23.5703C14.2397 23.8503 15.1 24 16 24C20.42 24 24 20.42 24 16C24 15.1 23.8503 14.2397 23.5703 13.4297ZM28.791 13.7461C28.391 13.9061 27.957 14 27.5 14C27.379 14 27.1649 13.9971 26.7969 13.9141C26.9269 14.5901 27 15.286 27 16C27 22.065 22.065 27 16 27C15.286 27 14.5901 26.9269 13.9141 26.7969C13.9971 27.1649 14 27.379 14 27.5C14 27.957 13.9061 28.391 13.7461 28.791C14.4801 28.92 15.23 29 16 29C23.168 29 29 23.168 29 16C29 15.23 28.92 14.4801 28.791 13.7461ZM13.293 15.293L9.29297 19.293L10.707 20.707L14.707 16.707L13.293 15.293ZM10.5 24C10.5 24 9 26.672 9 27.5C9 28.328 9.672 29 10.5 29C11.328 29 12 28.328 12 27.5C12 26.672 10.5 24 10.5 24Z" fill="black"/>
</g>
</svg>
