<svg width="32" height="32" viewBox="0 0 32 32" fill="none" xmlns="http://www.w3.org/2000/svg">
<g id="grin-hearts">
<path id="Vector" d="M16 4C9.38281 4 4 9.38281 4 16C4 22.6172 9.38281 28 16 28C22.6172 28 28 22.6172 28 16C28 9.38281 22.6172 4 16 4ZM16 6C21.5352 6 26 10.4648 26 16C26 21.5352 21.5352 26 16 26C10.4648 26 6 21.5352 6 16C6 10.4648 10.4648 6 16 6ZM10.5 11C9.67188 11 9 11.6719 9 12.5C9 12.5938 9.00781 12.6836 9.03125 12.7812C9.07422 13.0195 9.17188 13.2227 9.3125 13.4062C10.0625 14.6992 12 16 12 16C12 16 15 14.0938 15 12.5C15 11.6719 14.3281 11 13.5 11C12.6719 11 12 11.6719 12 12.5C12 11.6719 11.3281 11 10.5 11ZM18.5 11C17.6719 11 17 11.6719 17 12.5C17 12.5938 17.0078 12.6836 17.0312 12.7812C17.0742 13.0195 17.1719 13.2227 17.3125 13.4062C18.0625 14.6992 20 16 20 16C20 16 21.9883 14.7109 22.7188 13.375C22.8789 13.0781 23 12.7891 23 12.5C23 11.6719 22.3281 11 21.5 11C20.6719 11 20 11.6719 20 12.5C20 11.6719 19.3281 11 18.5 11ZM10.8125 19L9.09375 20C10.4766 22.3867 13.0469 24 16 24C18.9531 24 21.5234 22.3867 22.9062 20L21.1875 19C20.1484 20.793 18.2266 22 16 22C13.7734 22 11.8516 20.793 10.8125 19Z" fill="black"/>
</g>
</svg>
