<svg width="32" height="32" viewBox="0 0 32 32" fill="none" xmlns="http://www.w3.org/2000/svg">
<g id="grin-beam-sweat-solid">
<path id="Vector" d="M16 3C8.832 3 3 8.832 3 16C3 23.168 8.832 29 16 29C23.168 29 29 23.168 29 16C29 13.946 28.5082 12.0083 27.6562 10.2793C27.3563 10.9863 26.8649 11.5867 26.2559 12.0527C26.7299 13.2797 27 14.608 27 16C27 22.065 22.065 27 16 27C9.935 27 5 22.065 5 16C5 9.935 9.935 5 16 5C17.351 5 18.6409 5.25612 19.8379 5.70312C20.0979 5.11112 20.3978 4.50244 20.7148 3.89844C19.2508 3.32644 17.664 3 16 3ZM23.5 3C23.5 3 21 7.27461 21 8.59961C21 9.92461 22.12 11 23.5 11C24.88 11 26 9.92461 26 8.59961C26 7.27461 23.5 3 23.5 3ZM9 14V16H14V14H9ZM18 14V16H23V14H18Z" fill="black"/>
</g>
</svg>
