<svg width="32" height="32" viewBox="0 0 32 32" fill="none" xmlns="http://www.w3.org/2000/svg">
<g id="grin-tongue-wink-solid">
<path id="Vector" d="M16 3C8.832 3 3 8.832 3 16C3 23.168 8.832 29 16 29C23.168 29 29 23.168 29 16C29 8.832 23.168 3 16 3ZM16 5C22.065 5 27 9.935 27 16C27 22.065 22.065 27 16 27C9.935 27 5 22.065 5 16C5 9.935 9.935 5 16 5ZM11.5 12C11.1022 12 10.7206 12.158 10.4393 12.4393C10.158 12.7206 10 13.1022 10 13.5C10 13.8978 10.158 14.2794 10.4393 14.5607C10.7206 14.842 11.1022 15 11.5 15C11.8978 15 12.2794 14.842 12.5607 14.5607C12.842 14.2794 13 13.8978 13 13.5C13 13.1022 12.842 12.7206 12.5607 12.4393C12.2794 12.158 11.8978 12 11.5 12ZM18 13V15H23V13H18ZM11.7656 17.3574L10.2324 18.6426C11.1092 19.6872 12.4514 20.4263 14 20.7734V22C14 23.1 14.9 24 16 24C17.1 24 18 23.1 18 22V20.7734C19.5486 20.4263 20.8896 19.6879 21.7656 18.6426L20.2324 17.3574C19.3844 18.3714 17.763 19 16 19C14.237 19 12.6146 18.3704 11.7656 17.3574Z" fill="black"/>
</g>
</svg>
