<svg width="32" height="32" viewBox="0 0 32 32" fill="none" xmlns="http://www.w3.org/2000/svg">
<g id="grin-squint">
<path id="Vector" d="M16 3C8.832 3 3 8.832 3 16C3 23.168 8.832 29 16 29C23.168 29 29 23.168 29 16C29 8.832 23.168 3 16 3ZM16 5C22.065 5 27 9.935 27 16C27 22.065 22.065 27 16 27C9.935 27 5 22.065 5 16C5 9.935 9.935 5 16 5ZM10.0547 11.168L8.94531 12.832L10.6973 14L8.94531 15.168L10.0547 16.832L14.3027 14L10.0547 11.168ZM21.9453 11.168L17.6973 14L21.9453 16.832L23.0547 15.168L21.3027 14L23.0547 12.832L21.9453 11.168ZM9 19C9 19 10.605 24 16 24C21.395 24 23 19 23 19H9Z" fill="black"/>
</g>
</svg>
