<svg width="32" height="32" viewBox="0 0 32 32" fill="none" xmlns="http://www.w3.org/2000/svg">
<g id="grin-alt-solid">
<path id="Vector" d="M16 3C8.832 3 3 8.832 3 16C3 23.168 8.832 29 16 29C23.168 29 29 23.168 29 16C29 8.832 23.168 3 16 3ZM16 5C22.065 5 27 9.935 27 16C27 22.065 22.065 27 16 27C9.935 27 5 22.065 5 16C5 9.935 9.935 5 16 5ZM11.5 11C11.1022 11 10.7206 11.3161 10.4393 11.8787C10.158 12.4413 10 13.2044 10 14C10 14.7956 10.158 15.5587 10.4393 16.1213C10.7206 16.6839 11.1022 17 11.5 17C11.8978 17 12.2794 16.6839 12.5607 16.1213C12.842 15.5587 13 14.7956 13 14C13 13.2044 12.842 12.4413 12.5607 11.8787C12.2794 11.3161 11.8978 11 11.5 11ZM20.5 11C20.1022 11 19.7206 11.3161 19.4393 11.8787C19.158 12.4413 19 13.2044 19 14C19 14.7956 19.158 15.5587 19.4393 16.1213C19.7206 16.6839 20.1022 17 20.5 17C20.8978 17 21.2794 16.6839 21.5607 16.1213C21.842 15.5587 22 14.7956 22 14C22 13.2044 21.842 12.4413 21.5607 11.8787C21.2794 11.3161 20.8978 11 20.5 11ZM9 19C9 19 10.605 24 16 24C21.395 24 23 19 23 19H9Z" fill="black"/>
</g>
</svg>
