<svg width="32" height="32" viewBox="0 0 32 32" fill="none" xmlns="http://www.w3.org/2000/svg">
<g id="grin-tears">
<path id="Vector" d="M16 3C8.86999 3 3.06685 8.77167 3.00585 15.8887C3.57985 15.6587 4.25901 15.4273 5.04101 15.1973C5.45401 9.50627 10.205 5 16 5C21.795 5 26.546 9.50627 26.959 15.1973C27.741 15.4273 28.4201 15.6587 28.9941 15.8887C28.9331 8.77167 23.13 3 16 3ZM8.99999 14V16H14V14H8.99999ZM18 14V16H23V14H18ZM5.99999 17C5.99999 17 3.0304 17.8348 2.4414 18.4238C1.8524 19.0128 1.8524 19.9696 2.4414 20.5586C3.0304 21.1476 3.98716 21.1476 4.57616 20.5586C5.16516 19.9696 5.99999 17 5.99999 17ZM26 17C26 17 26.8348 19.9696 27.4238 20.5586C28.0128 21.1476 28.9696 21.1476 29.5586 20.5586C30.1476 19.9696 30.1476 19.0128 29.5586 18.4238C28.9696 17.8348 26 17 26 17ZM8.99999 19C8.99999 19 10.61 24 16 24C21.39 24 23 19 23 19H8.99999ZM6.42773 21.4004C6.28173 21.6334 6.13423 21.8287 5.99023 21.9727C5.66923 22.2937 5.29562 22.5408 4.89062 22.7148C7.17162 26.4748 11.291 29 16 29C20.709 29 24.8284 26.4748 27.1094 22.7148C26.7044 22.5408 26.3308 22.2947 26.0098 21.9727C25.8648 21.8277 25.7183 21.6324 25.5723 21.4004C23.6813 24.7384 20.103 27 16 27C11.897 27 8.31873 24.7384 6.42773 21.4004Z" fill="black"/>
</g>
</svg>
