<svg width="32" height="32" viewBox="0 0 32 32" fill="none" xmlns="http://www.w3.org/2000/svg">
<g id="grin-stars">
<path id="Vector" d="M16 3C8.832 3 3 8.832 3 16C3 23.168 8.832 29 16 29C23.168 29 29 23.168 29 16C29 8.832 23.168 3 16 3ZM16 5C22.065 5 27 9.935 27 16C27 22.065 22.065 27 16 27C9.935 27 5 22.065 5 16C5 9.935 9.935 5 16 5ZM12 10.2676L11.125 12.2324L9 12.4648L10.5898 13.8926L10.1426 16L12 14.9297L13.8574 16L13.4102 13.8926L15 12.4648L12.875 12.2324L12 10.2676ZM20 10.2676L19.125 12.2324L17 12.4648L18.5898 13.8926L18.1426 16L20 14.9297L21.8574 16L21.4102 13.8926L23 12.4648L20.875 12.2324L20 10.2676ZM10.8105 19L9.08984 20C9.26359 20.2987 9.455 20.5847 9.66406 20.8574C9.87313 21.1302 10.1005 21.3893 10.3418 21.6328C10.583 21.8763 10.8391 22.1054 11.1094 22.3164C11.65 22.7385 12.2447 23.0925 12.8828 23.3652C13.2019 23.5016 13.5323 23.6168 13.8711 23.7109C14.5486 23.8992 15.2625 24 16 24C18.2125 24 20.2107 23.0939 21.6582 21.6328C21.8995 21.3893 22.1269 21.1302 22.3359 20.8574C22.545 20.5847 22.7364 20.2987 22.9102 20L21.1895 19C20.2795 20.5662 18.696 21.6892 16.8203 21.9453C16.5524 21.9819 16.2788 22 16 22C15.7212 22 15.4476 21.9819 15.1797 21.9453C14.9117 21.9087 14.6495 21.8539 14.3945 21.7832C13.8847 21.6418 13.4034 21.435 12.959 21.1719C12.7368 21.0403 12.5228 20.8946 12.3203 20.7363C11.9154 20.4197 11.553 20.0514 11.2402 19.6426C11.0838 19.4382 10.9405 19.2237 10.8105 19Z" fill="black"/>
</g>
</svg>
