<svg width="32" height="32" viewBox="0 0 32 32" fill="none" xmlns="http://www.w3.org/2000/svg">
<g id="gripfire">
<path id="Vector" d="M15.6855 1C15.7065 1.2 15.7168 1.39961 15.7168 1.59961C15.7168 7.17761 7 10.9215 7 17.8555C7 20.8665 9.48567 22.8814 11.5137 24.6484C15.3757 27.4704 16.1426 28.7342 16.1426 29.6562C16.1426 30.2673 16 30.678 16 31C16.768 29.989 16.8572 29.0743 16.8672 28.1973C16.8672 26.4083 15.6094 24.7881 14.2754 22.9551C13.3264 21.6101 11.7695 20.3779 11.7695 18.7559C11.7695 14.2889 18 11.3448 18 6.4668C18 3.6218 15.9835 1.144 15.6855 1ZM19.375 9L19.6152 9.43359C19.7562 9.74459 19.8203 10.0878 19.8203 10.4648C19.8203 13.1578 16.3375 17.17 16.1855 17.502C16.0545 17.812 16 18.1451 16 18.4551C16 19.6741 16.9112 21.0039 17.0742 21.0039C17.2162 21.0039 20.484 17.6561 20.582 15.7051C20.962 16.4141 21.125 17.0687 21.125 17.7227C21.125 20.2057 18.6055 23.5742 18.6055 23.5742C18.6055 24.2722 20.5271 26.7773 20.7441 26.7773C20.8091 26.7773 20.8855 26.7008 20.9395 26.6348C23.2295 24.2628 25 21.503 25 18.377C25 17.9 24.9561 17.4006 24.8691 16.8906C24.1411 12.8676 20.374 9.388 19.375 9Z" fill="black"/>
</g>
</svg>
