<svg width="32" height="32" viewBox="0 0 32 32" fill="none" xmlns="http://www.w3.org/2000/svg">
<g id="grunt">
<path id="Vector" d="M17.1191 3.00391C15.6221 3.53191 15.2458 4.33736 15.1348 5.06836C14.7488 4.79436 14.7945 3.89697 14.7695 3.66797C14.3885 3.71397 13.2888 4.77914 13.3398 6.11914C13.2378 6.14414 13.1401 6.17508 13.0391 6.20508C12.7091 5.75808 11.7662 4.60694 10.5332 4.21094C10.1312 4.09694 9.71936 4.0293 9.31836 4.0293C7.84636 4.0293 6.97875 4.90797 6.96875 4.91797L6.55859 5.39453L7.18164 5.51758C7.19164 5.51758 8.2273 5.73516 8.6543 6.41016C8.7253 6.52216 8.74463 6.74442 8.76562 6.98242C8.77562 7.12442 8.7467 7.26253 8.7207 7.39453C8.7007 7.49053 8.67883 7.59236 8.67383 7.69336C8.28283 7.71036 7.95259 7.78683 7.68359 7.92383C7.31859 8.11183 7.06975 8.40916 6.96875 8.78516C6.71475 9.70916 7.53736 10.7404 7.56836 10.7754C7.66436 10.9484 7.70542 12.1866 7.48242 12.6836C7.45242 12.7546 7.36967 12.8202 7.26367 12.9062C7.22767 12.9312 7.19334 12.9622 7.15234 12.9922C6.84234 13.2252 6.36914 13.5853 6.36914 14.4023C6.36914 15.5243 7.50692 16.1341 8.41992 16.6211C8.57192 16.7021 8.7148 16.7775 8.8418 16.8535C8.9788 16.9345 9.46094 17.4337 9.46094 18.1797C9.46094 18.5297 9.42948 20.1937 9.27148 21.3457C8.68248 20.8437 8.14444 20.032 8.02344 19.123C8.02344 19.123 6.54152 20.2708 6.97852 22.7168C7.24252 24.2138 8.15528 25.0562 9.36328 25.4922C9.81028 26.4612 10.8553 27.8118 12.7793 28.0098C13.5103 28.6088 14.5258 28.998 16.0078 28.998H16.0176C17.4946 28.998 18.5101 28.6088 19.2461 28.0098C21.1691 27.8118 22.2151 26.4612 22.6621 25.4922C23.8701 25.0502 24.7779 24.2138 25.0469 22.7168C25.4629 20.2618 23.9766 19.1191 23.9766 19.1191C23.8546 20.0271 23.3165 20.8349 22.7285 21.3379C22.5715 20.1859 22.5391 18.5199 22.5391 18.1699C22.5391 17.4239 23.0212 16.9277 23.1582 16.8457C23.2852 16.7697 23.4331 16.6923 23.5801 16.6113C24.4941 16.1243 25.6309 15.5165 25.6309 14.3945C25.6309 13.5725 25.1577 13.2164 24.8477 12.9824C24.8067 12.9524 24.7723 12.9265 24.7363 12.8965C24.6293 12.8105 24.5476 12.7448 24.5176 12.6738C24.2946 12.1768 24.3346 10.9376 24.4316 10.7656C24.4616 10.7356 25.2803 9.70534 25.0312 8.77734C24.9293 8.40134 24.6805 8.10206 24.3145 7.91406C24.0455 7.77706 23.7102 7.70055 23.3242 7.68555C23.3192 7.58355 23.3003 7.48772 23.2793 7.38672C23.2493 7.25472 23.2224 7.11856 23.2324 6.97656C23.2524 6.73756 23.2747 6.51834 23.3457 6.40234C23.7717 5.72734 24.8064 5.50977 24.8164 5.50977L25.4414 5.38867L25.0293 4.90625C25.0243 4.89625 24.1517 4.01758 22.6797 4.01758C22.2787 4.01758 21.868 4.0848 21.457 4.2168C20.229 4.6128 19.2792 5.76394 18.9492 6.21094C18.7922 6.15994 18.6299 6.11522 18.4629 6.07422C18.2499 5.27222 18.9199 4.11914 18.9199 4.11914C18.9199 4.11914 18.2309 3.96763 17.2109 4.89062C17.0789 4.56062 16.7991 3.85191 17.1191 3.00391ZM9.32812 4.79297C9.63812 4.79297 9.93756 4.83869 10.2266 4.92969C11.1296 5.22369 11.8316 6.10659 12.1406 6.55859C12.0596 6.59459 11.9785 6.62892 11.8965 6.66992C11.7695 6.73092 11.6462 6.79642 11.5352 6.85742C11.4032 6.58342 11.1144 6.1627 10.4844 5.7207C10.0634 5.4267 9.56144 5.26953 9.02344 5.26953C8.85244 5.27453 8.68841 5.29445 8.56641 5.31445C8.39941 5.20345 8.23122 5.11092 8.07422 5.04492C8.31822 4.94392 8.76912 4.79297 9.32812 4.79297ZM22.666 4.79297C23.224 4.79297 23.6759 4.94488 23.9199 5.04688C23.7629 5.11788 23.5947 5.20745 23.4277 5.31445C23.3057 5.29445 23.1439 5.27344 22.9609 5.27344C22.4279 5.27344 21.9209 5.43156 21.5039 5.72656C20.8799 6.16856 20.5901 6.58428 20.4531 6.86328C20.3411 6.79728 20.2257 6.73678 20.0938 6.67578C20.0127 6.63478 19.9355 6.5985 19.8535 6.5625C20.1635 6.1005 20.8646 5.21869 21.7676 4.92969C22.0516 4.83869 22.357 4.79297 22.666 4.79297ZM22.834 5.85156C22.793 5.90256 22.7528 5.95867 22.7168 6.01367C22.5498 6.27767 22.5191 6.60397 22.4941 6.91797C22.4691 7.24297 22.4385 7.5503 22.2715 7.7793C22.0585 7.8203 21.8605 7.86697 21.6875 7.91797C21.5705 7.76097 21.4033 7.56261 21.1543 7.34961C21.2253 7.10561 21.4338 6.53203 21.8398 6.20703C22.1238 5.98903 22.458 5.86656 22.834 5.85156ZM9.16016 5.85742C9.53616 5.87242 9.87139 5.98989 10.1504 6.21289C10.5564 6.53289 10.7649 7.10661 10.8359 7.34961C10.5869 7.56261 10.4147 7.75597 10.3027 7.91797C10.1297 7.87197 9.93275 7.8203 9.71875 7.7793C9.55175 7.5563 9.52795 7.24883 9.50195 6.92383C9.47695 6.60883 9.44434 6.28353 9.27734 6.01953C9.24134 5.96353 9.20116 5.90842 9.16016 5.85742ZM15.9961 6.65039C17.4121 6.65039 18.6816 6.92013 19.7676 7.45312C20.4886 7.80312 20.7623 8.07175 20.8633 8.21875C19.1373 8.98475 18.1799 10.5631 18.1699 10.5781L17.9902 10.873L18.2754 10.6758C18.2754 10.6758 18.2849 10.6702 18.2949 10.6602C18.7369 10.3152 20.2748 9.14709 21.5488 8.74609C21.9038 8.63409 22.5938 8.44141 23.2188 8.44141C23.5387 8.44141 23.7914 8.49384 23.9844 8.58984C24.1624 8.68084 24.2732 8.81138 24.3242 8.98438C24.4512 9.44637 24.0147 10.1329 23.8477 10.3359C23.8227 10.3659 23.8013 10.4013 23.7812 10.4473C23.7663 10.2143 23.7556 9.9658 23.7656 9.7168C23.5626 10.1638 23.4368 11.3154 23.5078 11.8984C23.6908 13.3854 24.3047 14.1465 24.3047 14.1465C24.2637 14.0655 24.214 13.7556 24.168 13.3906C24.204 13.4206 24.2433 13.4505 24.2793 13.4805L24.3047 13.502C24.5377 13.69 24.7559 13.8618 24.7559 14.4258C24.7559 15.1468 23.9737 15.5667 23.2227 15.9727C23.0757 16.0487 22.9339 16.1291 22.7969 16.2051C22.3549 16.4591 21.8831 17.0534 21.8281 17.9414C21.7821 18.6824 21.875 20.4749 22.002 21.7949C21.373 22.0389 20.6463 22.1187 19.9863 22.1387C19.8843 21.9307 19.788 21.7086 19.707 21.4746C19.671 21.3726 18.7122 18.8804 18.3672 18.3164C18.6462 20.2954 19.2555 22.0563 19.5605 22.8633C19.3825 22.8383 19.1908 22.8281 18.9668 22.8281H13.0273C12.8043 22.8281 12.6066 22.8423 12.4336 22.8633C12.7386 22.0563 13.353 20.2954 13.627 18.3164C13.282 18.8844 12.3231 21.3776 12.2871 21.4746C12.2061 21.7076 12.1088 21.9307 12.0078 22.1387C11.3478 22.1187 10.6272 22.0379 9.99219 21.7949C10.1192 20.4749 10.211 18.6874 10.166 17.9414C10.12 17.0574 9.64217 16.4581 9.20117 16.2051C9.06417 16.1241 8.91739 16.0487 8.77539 15.9727C8.01939 15.5667 7.24219 15.1468 7.24219 14.4258C7.24219 13.8628 7.46131 13.685 7.69531 13.502L7.7207 13.4805C7.7567 13.4505 7.79103 13.4206 7.83203 13.3906C7.78603 13.7556 7.73631 14.0655 7.69531 14.1465C7.69531 14.1465 8.30919 13.3854 8.49219 11.8984C8.56319 11.3144 8.43542 10.1578 8.23242 9.7168C8.24242 9.9658 8.23375 10.2133 8.21875 10.4473C8.19875 10.4063 8.17734 10.3669 8.15234 10.3359C7.99034 10.1329 7.55378 9.44637 7.67578 8.98438C7.72178 8.80638 7.83263 8.68084 8.01562 8.58984C8.20862 8.49384 8.46225 8.44141 8.78125 8.44141C9.40525 8.44141 10.0952 8.62909 10.4512 8.74609C11.7252 9.15209 13.2621 10.3152 13.7031 10.6602C13.7131 10.6702 13.7246 10.6758 13.7246 10.6758L14.0078 10.873L13.8301 10.5781C13.8201 10.5631 12.8619 8.98475 11.1309 8.21875C11.2329 8.07175 11.5066 7.80813 12.2266 7.45312C13.3126 6.92013 14.5851 6.65039 15.9961 6.65039ZM14.6094 11.6387C14.6114 11.6387 15.3482 12.531 15.9922 12.541H16.002C16.647 12.536 17.3828 11.6387 17.3828 11.6387C16.8808 11.9437 16.4281 12.0486 15.9961 12.0586C15.5651 12.0486 15.1124 11.9427 14.6094 11.6387ZM9.81445 11.7031C9.56528 11.7088 9.30669 11.7399 9.03906 11.8047C9.25593 11.8554 9.48891 11.9283 9.7207 12.0137C9.5067 12.1157 9.38928 12.3731 9.36328 12.6211C9.30728 13.1291 9.62891 13.5918 9.62891 13.5918C9.66491 13.2108 9.73908 12.94 9.83008 12.748C9.85008 13.271 9.99247 13.9425 10.4805 14.4805C10.8305 14.8665 12.2886 15.6621 13.2676 14.7891C13.3186 14.9111 13.3749 15.0587 13.4199 15.2207C13.5669 15.7437 13.2812 16.5059 13.2812 16.5059C13.2812 16.5059 14.0473 15.6365 13.9863 14.8555C14.5343 14.8305 15.0736 14.4292 15.0586 13.8652C15.0586 13.8652 14.0989 14.3949 13.2559 13.4199C12.8254 12.9229 11.5587 11.6632 9.81445 11.7031ZM22.1777 11.7129C20.4306 11.6728 19.1688 12.9318 18.7383 13.4297C17.8903 14.4037 16.9355 13.877 16.9355 13.877C16.9255 14.43 17.4637 14.8345 18.0117 14.8555C17.9507 15.6425 18.7168 16.5059 18.7168 16.5059C18.7168 16.5059 18.4331 15.7437 18.5801 15.2207C18.6261 15.0587 18.6824 14.9151 18.7324 14.7891C19.7124 15.6671 21.1687 14.8665 21.5137 14.4805C22.0007 13.9425 22.1361 13.271 22.1621 12.748C22.2531 12.941 22.3352 13.2118 22.3652 13.5918C22.3652 13.5918 22.6919 13.1281 22.6309 12.6211C22.6009 12.3671 22.4834 12.1144 22.2754 12.0234H22.2695C22.5025 11.9324 22.7371 11.8605 22.9551 11.8145C22.6867 11.7497 22.4273 11.7186 22.1777 11.7129ZM10.8008 12.5312C11.7908 13.0892 12.6991 13.8342 13.0801 14.4082C12.7911 14.5752 11.9784 14.9363 11.1504 14.3223C10.6274 13.9363 10.6528 12.9932 10.8008 12.5312ZM21.1934 12.5312C21.3454 12.9932 21.3678 13.9371 20.8398 14.3281C20.0128 14.9421 19.205 14.5812 18.916 14.4082C19.296 13.8292 20.2044 13.0892 21.1934 12.5312ZM7.83008 20.5508C8.38308 22.2968 10.2264 22.7975 11.6074 22.8535C11.4704 23.0665 11.343 23.2393 11.252 23.3613L11.1816 23.4336C10.8166 23.8296 10.7447 24.3719 10.9727 25.0469C9.82066 25.0409 8.62353 24.5488 8.01953 23.5488C7.40553 22.5338 7.57608 20.8038 7.83008 20.5508ZM24.1699 20.5547C24.4229 20.8097 24.5956 22.5388 23.9766 23.5488C23.3676 24.5488 22.1693 25.0366 21.0273 25.0566C21.2553 24.3816 21.1834 23.8324 20.8184 23.4414C20.7984 23.4164 20.773 23.3902 20.748 23.3652C20.657 23.2432 20.5296 23.0714 20.3926 22.8574C21.7726 22.7964 23.6169 22.3007 24.1699 20.5547ZM12.9824 23.4785H19.0117C19.7777 23.4785 20.1178 23.6768 20.2598 23.8438C20.4728 24.0877 20.4867 24.4826 20.3047 25.0156C19.9707 25.9696 19.0721 28.2958 15.9961 28.3008C12.9201 28.2958 12.0225 25.9756 11.6875 25.0156C11.4995 24.4826 11.5154 24.0917 11.7344 23.8438C11.8814 23.6768 12.2164 23.4785 12.9824 23.4785ZM17.6328 24.25C17.4198 24.25 17.2667 24.2957 17.1797 24.3867C17.0677 24.5037 17.1048 24.6506 17.1348 24.7266C17.1858 24.8586 17.4139 25.3 17.7949 25.707C17.9319 25.854 18.1286 25.9355 18.3516 25.9355C18.5746 25.9355 18.7942 25.8547 18.9512 25.7227C19.0682 25.6207 19.4695 25.2547 19.6465 24.8027C19.7125 24.6357 19.6966 24.4983 19.5996 24.4023C19.5346 24.3363 19.397 24.255 19.123 24.25H17.6328ZM12.8809 24.2559C12.6019 24.2559 12.4644 24.3363 12.3984 24.4023C12.3024 24.5043 12.2875 24.6405 12.3535 24.8125C12.5315 25.2745 12.9328 25.6508 13.0488 25.7578C13.2058 25.8948 13.4285 25.9746 13.6465 25.9746C13.8695 25.9746 14.0681 25.8892 14.2051 25.7422C14.5861 25.3262 14.8092 24.8733 14.8652 24.7363C14.8952 24.6603 14.9304 24.5096 14.8184 24.3926C14.7284 24.3006 14.581 24.2559 14.373 24.2559H12.8809ZM10.3398 25.7578C10.6448 25.8138 10.9582 25.8529 11.2832 25.8789C11.4612 26.2849 11.6582 26.6858 11.9062 27.0508C11.1753 26.7518 10.6698 26.2398 10.3398 25.7578ZM21.6562 25.7578C21.3263 26.2398 20.8189 26.7518 20.0879 27.0508C20.3369 26.6858 20.5359 26.2849 20.7129 25.8789C21.0379 25.8539 21.3512 25.8138 21.6562 25.7578Z" fill="black"/>
</g>
</svg>
