<svg width="32" height="32" viewBox="0 0 32 32" fill="none" xmlns="http://www.w3.org/2000/svg">
<g id="guitar-solid">
<path id="Vector" d="M26.5937 3.0625C26.4883 3.0625 26.3867 3.11328 26.2812 3.21875L25.5312 3.96875L25.2187 3.65625L24.7812 4.0625L25.125 4.40625L24.6875 4.8125L24.375 4.5L23.9375 4.9375L24.25 5.25L23.5312 6C23.3164 6.21484 23.3164 6.41016 23.5312 6.625L19.3437 10.8125C18.4101 10.0664 17.4141 9.5 16.4687 9.21875C14.7109 8.69922 13.1484 9.07422 11.9375 10.2812C11.4023 10.8164 11.0742 11.4688 10.9375 12.25C10.7187 13.5156 9.60155 14.5039 8.28124 14.5938C6.83983 14.6914 5.57421 15.2695 4.62499 16.2188C2.12108 18.7227 2.57421 23.2656 5.65624 26.3438C7.40624 28.0938 9.63671 29 11.6875 29C13.25 29 14.6992 28.457 15.7812 27.375C16.7305 26.4258 17.3086 25.1602 17.4062 23.7188C17.4961 22.3984 18.4531 21.2812 19.7187 21.0625C20.5 20.9258 21.1836 20.5977 21.7187 20.0625C22.9258 18.8555 23.3008 17.2891 22.7812 15.5312C22.6094 14.9453 22.3008 14.3477 21.9375 13.75L20.4687 15.2188C20.625 15.5195 20.7578 15.8086 20.8437 16.0938C21.1523 17.1328 20.9883 17.9805 20.3125 18.6562C20.0703 18.8945 19.7812 19.0273 19.4062 19.0938C17.2422 19.4688 15.5547 21.3672 15.4062 23.5938C15.3437 24.543 14.9766 25.3633 14.375 25.9688C12.6484 27.6914 9.39452 27.2383 7.09374 24.9375C4.79296 22.6367 4.30858 19.3477 6.03124 17.625C6.63671 17.0234 7.45702 16.6562 8.40624 16.5938C10.6328 16.4453 12.5273 14.7578 12.9062 12.5938C12.9726 12.2188 13.1016 11.9297 13.3437 11.6875C13.8086 11.2227 14.3398 11 14.9687 11C15.2539 11 15.582 11.0586 15.9062 11.1562C16.5351 11.3438 17.2383 11.7148 17.9062 12.2188L14.5625 15.5625C14.3828 15.5195 14.1953 15.5 14 15.5C12.6211 15.5 11.5 16.6211 11.5 18C11.5 19.3789 12.6211 20.5 14 20.5C15.3789 20.5 16.5 19.3789 16.5 18C16.5 17.8477 16.4648 17.707 16.4375 17.5625L25.5312 8.4375C25.7461 8.65234 25.9726 8.65234 26.1875 8.4375L26.9375 7.6875L27.25 8L27.6562 7.59375L27.3437 7.28125L27.7812 6.84375L28 7.28125L28.4062 6.84375L28.0937 6.53125L28.8437 5.78125C29.0586 5.56641 29.0586 5.33984 28.8437 5.125L26.9375 3.21875C26.832 3.11328 26.6992 3.0625 26.5937 3.0625ZM26.5 4.28125L26.9375 4.71875L25 6.625L24.5937 6.21875L26.5 4.28125ZM27.3437 5.03125L27.7812 5.46875L25.8437 7.375L25.4375 6.9375L27.3437 5.03125ZM9.09374 19.6875L7.68749 21.0938L10.9062 24.3125L12.3125 22.9062L9.09374 19.6875Z" fill="black"/>
</g>
</svg>
