<svg width="32" height="32" viewBox="0 0 32 32" fill="none" xmlns="http://www.w3.org/2000/svg">
<g id="gulp">
<path id="Vector" d="M22.1543 0.999958C22.1135 1.00154 22.0818 1.01291 22.0605 1.03316L18.3457 5.44527L17.5879 8.05074C17.0729 8.03374 16.5411 8.0273 15.9961 8.0273C12.1351 8.0273 9 8.43632 9 8.94332C9 10.1533 22.9902 10.1533 22.9902 8.94332C22.9902 8.56832 21.3154 8.25152 18.9004 8.10152L19.5 5.95699L22.9746 1.7773L22.9805 1.77144C23.0585 1.69044 22.9062 1.44733 22.6582 1.23433C22.4722 1.07383 22.2766 0.995223 22.1543 0.999958ZM17.3027 9.07613L17.2891 9.11715C17.2831 9.12215 17.2832 9.12872 17.2832 9.13472C17.2832 9.20972 17.5861 9.27144 17.9551 9.27144C18.3241 9.27144 18.6289 9.20972 18.6289 9.13472L18.6406 9.08785C18.7376 9.12285 18.791 9.16294 18.791 9.20894C18.791 9.32994 18.4162 9.42879 17.9492 9.42379C17.4952 9.42379 17.1191 9.3319 17.1191 9.2109C17.1191 9.1589 17.1937 9.11113 17.3027 9.07613ZM22.9121 9.41988C21.0611 10.4069 10.9498 10.4136 9.0918 9.43355L9.91406 16.666C10.2711 15.513 11.1739 13.9563 12.3359 13.4843C12.7169 13.3283 13.1038 13.3291 13.4668 13.5371C13.7818 13.7101 14.0481 14.0728 14.0781 14.2168C14.1511 14.5918 13.9576 14.7402 13.8066 14.7402C13.6246 14.7402 13.4855 14.4763 13.3945 14.3203C13.1465 13.8993 12.7711 13.8812 12.3711 14.1582C11.9531 14.4462 11.5899 14.9305 11.3359 15.3515C11.0269 15.8585 10.7664 16.4175 10.6094 16.9765C10.5184 17.2995 10.4352 17.817 10.5742 18.123C10.6352 18.25 10.7251 18.33 10.8711 18.33C11.1741 18.33 11.6142 17.95 11.8262 17.748C12.0982 17.489 12.449 17.0851 12.582 16.8261L12.8984 15.9336C13.0554 15.5416 13.4961 15.6106 13.4961 15.9336C13.4961 16.5216 13.2736 16.7176 12.8926 17.9336C12.5416 19.0576 12.4316 19.4218 12.4316 19.4218C12.3896 19.5828 12.2258 19.8535 12.0508 19.8535C11.9778 19.8535 11.9245 19.8292 11.8945 19.7832C11.8335 19.7022 11.8397 19.4798 11.8457 19.4218C11.8577 19.2378 12.2261 18.1417 12.2871 17.9687C12.1661 18.0957 12.0394 18.2236 11.9004 18.3496C11.5734 18.6436 11.0476 19.0293 10.5996 19.0293C10.3936 19.0293 10.2618 18.9766 10.1348 18.8906L10.5938 23.4785C10.7148 23.7665 12.9666 24.4648 15.9316 24.4648C18.9026 24.4648 21.1526 23.7615 21.2676 23.4785L21.9277 18.0273C21.5827 18.3273 21.1842 18.6968 20.7422 18.8808C20.4152 19.0138 19.6895 19.0987 19.6895 18.5507C19.6895 18.2507 20.2405 17.6985 20.5605 17.3125C20.6455 17.2145 20.8438 16.9727 20.8438 16.8457C20.8438 16.6787 20.4817 16.7172 20.1367 16.9882C19.9427 17.1442 19.7604 17.3528 19.6094 17.5488C19.3494 17.8948 19.2107 18.1934 19.0957 18.4414C18.7207 19.2594 18.8479 18.9369 18.5449 19.7089C18.2419 20.4759 18.2915 20.3886 18.2305 20.5156C18.1765 20.6256 18.0973 20.7183 17.9883 20.7753C17.8733 20.8333 17.7161 20.8268 17.6191 20.7578C17.5651 20.7228 17.5391 20.6479 17.5391 20.5449C17.5391 20.4929 17.5466 20.4406 17.5586 20.3886C17.6496 20.0366 18.0308 19.3461 18.4668 18.4121C18.5638 18.1991 18.5267 18.2623 18.5137 18.2793C18.1387 18.6253 17.8536 18.7927 17.6426 18.8847C17.2916 19.0347 16.8556 19.0344 16.7656 18.6484C16.7596 18.6254 16.7599 18.6011 16.7539 18.5781C16.0399 19.1081 15.2839 19.2523 15.5449 18.1113C15.2669 18.5843 14.7815 18.9707 14.1875 18.9707C13.9395 18.9707 13.758 18.8907 13.668 18.6777C13.529 18.3607 13.7463 17.8176 13.9453 17.3046C14.0483 17.0456 14.189 16.7341 14.377 16.3711C14.474 16.1751 14.6299 16.0593 14.8359 16.1113C14.8719 16.1233 14.9036 16.1353 14.9336 16.1523C15.0906 16.2563 15.0302 16.4104 14.9512 16.5664C14.7212 16.9984 14.5217 17.3156 14.3887 17.7656C14.3347 17.9556 14.2665 18.2851 14.4785 18.2851C14.6235 18.2851 14.7625 18.2384 14.8965 18.1464C15.1745 17.9504 15.3984 17.6571 15.5684 17.3691C15.6894 17.1621 15.8352 16.8911 15.9082 16.6601C15.9382 16.5621 15.9756 16.4698 16.0176 16.3828C16.0846 16.2388 16.174 16.0898 16.332 16.0898C16.411 16.0898 16.4764 16.1187 16.5254 16.1757C16.6284 16.3027 16.6058 16.4332 16.5508 16.5722C16.4298 16.8952 16.2668 17.1841 16.1328 17.5351C16.0538 17.7371 15.9688 17.9959 15.9688 18.2089C15.9688 18.4049 16.1929 18.3583 16.3809 18.2773C16.5259 18.2143 16.671 18.1175 16.793 18.0195C16.866 17.7375 16.8466 17.7998 18.3906 14.0878C18.4696 13.8978 18.6148 13.8164 18.7598 13.8164C18.8328 13.8164 18.8921 13.8408 18.9531 13.8808C19.0561 13.9558 19.0576 14.1153 19.0156 14.2363C18.9736 14.3463 18.9782 14.3118 18.7422 14.8418C18.4272 15.5388 18.2224 16.0416 17.9434 16.6816C17.8284 16.9466 17.478 17.7708 17.418 17.9668C17.382 18.0938 17.3385 18.3007 17.4785 18.3007C17.8055 18.3007 18.647 17.5453 18.877 17.3203C18.889 17.3033 18.9076 17.2971 18.9316 17.2851C18.9676 17.1751 19.0032 17.0727 19.0332 16.9687C19.1182 16.7497 19.1975 16.4944 19.3555 16.3164C19.4035 16.2584 19.4576 16.2246 19.5176 16.2246C19.6866 16.2246 19.7715 16.293 19.7715 16.455C19.7715 16.518 19.7301 16.7495 19.7051 16.8125C19.7901 16.7265 19.8796 16.6406 19.9766 16.5546C20.8846 15.7536 21.5312 16.1624 21.5312 16.5664C21.5312 16.9924 20.9933 17.585 20.6973 17.914C20.6003 18.024 20.4005 18.2252 20.3945 18.2832C20.3945 18.3582 20.4483 18.3886 20.5273 18.3886C20.6483 18.3886 20.9147 18.1861 21.0117 18.1171C21.3147 17.8921 21.7246 17.5466 22.0156 17.3046L22.9121 9.41988ZM10.9297 24.0312L11.832 25.4961L12.1836 30.0722C12.1836 30.5852 13.896 31 16.002 31C18.108 31 19.8203 30.5852 19.8203 30.0722L20.0996 25.4492L20.9512 24.0312C18.5542 24.9942 13.4237 25.0282 10.9297 24.0312Z" fill="black"/>
</g>
</svg>
