<svg width="32" height="32" viewBox="0 0 32 32" fill="none" xmlns="http://www.w3.org/2000/svg">
<g id="hackerrank">
<path id="Vector" d="M15.9981 3C14.2251 3 5.53521 7.98391 4.65821 9.50391C3.78021 11.0249 3.78021 20.983 4.65821 22.498C5.53921 24.017 14.2291 29 15.9981 29C17.7621 29 26.4519 24.02 27.3359 22.502C28.2229 20.98 28.2229 11.014 27.3359 9.49805V9.49609C26.4449 7.97909 17.7561 3 15.9981 3ZM15.9961 5.01172C17.6931 5.36472 24.4177 9.21677 25.5957 10.5098C26.1357 12.1508 26.1347 19.8443 25.5957 21.4883C24.4257 22.7793 17.6951 26.6363 15.9961 26.9883C14.2981 26.6383 7.5724 22.7832 6.4004 21.4902C5.8654 19.8422 5.8654 12.1558 6.4004 10.5098C7.5694 9.21677 14.2971 5.36172 15.9961 5.01172ZM13 9L11 11H12V21H14V17H18V21H17L19 23L21 21H20V12H18V15H14V11H15L13 9Z" fill="black"/>
</g>
</svg>
