<svg width="32" height="32" viewBox="0 0 32 32" fill="none" xmlns="http://www.w3.org/2000/svg">
<g id="hamburger-solid">
<path id="Vector" d="M11 5C7.69922 5 5 7.69922 5 11V11.25L3.875 12.75C4.23047 13.0156 4.60156 13.1914 5 13.3125V15.7812C4.39062 16.332 4 17.1211 4 18C4 18.8789 4.39062 19.668 5 20.2188V23C5 24.0938 5.90625 25 7 25H25C26.0938 25 27 24.0938 27 23V20.2188C27.6094 19.668 28 18.8789 28 18C28 17.1211 27.6094 16.332 27 15.7812V13.3125C27.3984 13.1914 27.7695 13.0156 28.125 12.75L27 11.2188V11C27 7.69922 24.3008 5 21 5H11ZM11 7H12C12 7.55078 12.4492 8 13 8C13.5508 8 14 7.55078 14 7H21C23.2188 7 25 8.78125 25 11V11.5C24.7422 11.4297 24.5039 11.293 24.2812 11.125L23.75 10.75L23.1562 11.0938L22.4062 11.5312C21.707 11.9492 20.8555 11.9492 20.1562 11.5312L19.4062 11.0938L18.9375 10.8125L18.4375 11.0312L17 11.7812C16.3789 12.0898 15.6523 12.0898 15.0312 11.7812L13.5625 11.0312L13.0625 10.8125L12.5938 11.0938L11.8438 11.5312C11.1445 11.9492 10.293 11.9492 9.59375 11.5312L8.84375 11.0938L8.25 10.75L7.71875 11.125C7.49609 11.293 7.25391 11.4297 7 11.5V11C7 8.78125 8.78125 7 11 7ZM11 8C10.4492 8 10 8.44922 10 9C10 9.55078 10.4492 10 11 10C11.5508 10 12 9.55078 12 9C12 8.44922 11.5508 8 11 8ZM15 8C14.4492 8 14 8.44922 14 9C14 9.55078 14.4492 10 15 10C15.5508 10 16 9.55078 16 9C16 8.44922 15.5508 8 15 8ZM8.15625 13L8.5625 13.25C9.89062 14.0469 11.5469 14.0469 12.875 13.25L13.1562 13.0625L14.125 13.5625C15.3047 14.1523 16.6953 14.1523 17.875 13.5625L18.8438 13.0625L19.125 13.25C20.4531 14.0469 22.1094 14.0469 23.4375 13.25L23.8438 13C24.2188 13.1797 24.6016 13.293 25 13.375V15H7V13.375C7.39844 13.293 7.78125 13.1797 8.15625 13ZM7 17H25C25.5664 17 26 17.4336 26 18C26 18.5664 25.5664 19 25 19H7C6.43359 19 6 18.5664 6 18C6 17.4336 6.43359 17 7 17ZM7 21H25V23H7V21Z" fill="black"/>
</g>
</svg>
