<svg width="32" height="32" viewBox="0 0 32 32" fill="none" xmlns="http://www.w3.org/2000/svg">
<g id="hammer-solid">
<path id="Vector" d="M7.0625 2L9.5625 3.8125C14.2773 7.21094 15.707 10.543 16 11.2812L15.0938 12.1875V12.2188L14.4062 12.9062L2.6875 25.0625L2 25.7812L6.25 30.0312L6.96875 29.2812L19.375 16.4375L19.6875 16.0625L19.7812 16L20.75 15.6562L20.9375 15.8438L20.5625 16.75L20.2812 17.375L23.5938 20.6875L29.9688 14.3125L27.125 11.4688L26.6562 11.0312L26.0625 11.25L25.1562 11.5938L24.9375 11.375L25.25 10.375L25.375 9.96875L25.1875 9.59375C25.1875 9.59375 24.1328 7.63672 21.75 5.75C19.3672 3.86328 15.5938 2 10.1562 2H7.0625ZM13.0938 4.25C16.4609 4.75 18.8906 6.01562 20.5312 7.3125C22.2969 8.71094 23 9.84375 23.2188 10.2188L22.8438 11.375L22.6875 11.9375L23.0938 12.375L24.6875 13.9688L25.3125 13.7188L26.1875 13.375L27.125 14.3125L23.5938 17.8438L22.6562 16.9062L23.0312 16L23.3125 15.375L22.8125 14.9062L21.6875 13.7812L21.25 13.3125L20.625 13.5312L18.8438 14.25L18.6562 14.3125L17.9375 13.625L17.2188 12.9062L18.375 11.75L18.1562 11.1562C18.1562 11.1562 16.8125 7.76172 13.0938 4.25ZM15.8125 14.3125L17.25 15.75L6.21875 27.1562L4.8125 25.75L15.8125 14.3125Z" fill="black"/>
</g>
</svg>
