<svg width="32" height="32" viewBox="0 0 32 32" fill="none" xmlns="http://www.w3.org/2000/svg">
<g id="hamsa-solid">
<path id="Vector" d="M16 3C14.3218 3 12.8878 4.04179 12.2949 5.50977C11.7683 5.19228 11.1585 5 10.5 5C8.57 5 7 6.57 7 8.5V15V17H5.5C4.121 17 3 18.121 3 19.5C3 20.184 3.27348 20.8228 3.77148 21.3008L8.72266 26.0605C10.6917 27.9565 13.276 29 16 29C18.724 29 21.3074 27.9565 23.2754 26.0605L28.2305 21.3008C28.7275 20.8228 29 20.184 29 19.5C29 18.121 27.879 17 26.5 17H25V15V8.5C25 6.57 23.43 5 21.5 5C20.8415 5 20.2317 5.19228 19.7051 5.50977C19.1122 4.04179 17.6782 3 16 3ZM16 5C17.103 5 18 5.897 18 7V15H20V8.5C20 7.673 20.673 7 21.5 7C22.327 7 23 7.673 23 8.5V15V18V19H26.5C26.775 19 27 19.225 27 19.5C27 19.682 26.9027 19.8044 26.8457 19.8594L21.8906 24.6172C20.2946 26.1532 18.203 27 16 27C13.797 27 11.7044 26.1532 10.1074 24.6172L5.15625 19.8594C5.09825 19.8044 5 19.682 5 19.5C5 19.225 5.225 19 5.5 19H9V18V15V8.5C9 7.673 9.673 7 10.5 7C11.327 7 12 7.673 12 8.5V15H14V8.5V7C14 5.897 14.897 5 16 5ZM16 17C12.505 17 10.262 20.3053 10.168 20.4453L9.79883 21L10.168 21.5547C10.262 21.6947 12.505 25 16 25C19.495 25 21.738 21.6947 21.832 21.5547L22.2012 21L21.832 20.4453C21.738 20.3053 19.495 17 16 17ZM16 19C17.697 19 19.0586 20.248 19.7246 21C19.0576 21.752 17.695 23 16 23C14.303 23 12.9414 21.752 12.2754 21C12.9424 20.248 14.305 19 16 19ZM16 20C15.7348 20 15.4804 20.1054 15.2929 20.2929C15.1054 20.4804 15 20.7348 15 21C15 21.2652 15.1054 21.5196 15.2929 21.7071C15.4804 21.8946 15.7348 22 16 22C16.2652 22 16.5196 21.8946 16.7071 21.7071C16.8946 21.5196 17 21.2652 17 21C17 20.7348 16.8946 20.4804 16.7071 20.2929C16.5196 20.1054 16.2652 20 16 20Z" fill="black"/>
</g>
</svg>
