<svg width="32" height="32" viewBox="0 0 32 32" fill="none" xmlns="http://www.w3.org/2000/svg">
<g id="hand-holding-usd-solid">
<path id="Vector" d="M17 4V5.18945C16.855 5.24195 16.7141 5.30611 16.5801 5.37891C16.3121 5.52449 16.0691 5.70855 15.8574 5.92383C15.6457 6.1391 15.4654 6.38465 15.3262 6.6543C15.1173 7.05877 15 7.51625 15 8C15 8.205 15.0221 8.40547 15.0625 8.59961C15.1433 8.98789 15.3005 9.35039 15.5176 9.66992C15.6261 9.82969 15.7485 9.97898 15.8848 10.1152C16.021 10.2515 16.1703 10.3739 16.3301 10.4824C16.8094 10.808 17.385 11 18 11C18.1425 11 18.276 11.027 18.3965 11.0762C18.517 11.1254 18.6235 11.1977 18.7129 11.2871C18.8023 11.3765 18.8746 11.483 18.9238 11.6035C18.973 11.724 19 11.8575 19 12C19 12.4275 18.7579 12.7762 18.3965 12.9238C18.276 12.973 18.1425 13 18 13C17.8575 13 17.724 12.973 17.6035 12.9238C17.483 12.8746 17.3765 12.8023 17.2871 12.7129C17.1977 12.6235 17.1254 12.517 17.0762 12.3965C17.027 12.276 17 12.1425 17 12H15C15 12.1613 15.0138 12.3203 15.0391 12.4746C15.0643 12.629 15.1 12.7783 15.1484 12.9238C15.2938 13.3605 15.5398 13.7533 15.8574 14.0762C15.9633 14.1838 16.0763 14.2838 16.1973 14.375C16.3182 14.4662 16.4461 14.5483 16.5801 14.6211C16.7141 14.6939 16.855 14.758 17 14.8105V16H19V14.8105C20.16 14.3905 21 13.29 21 12C21 10.565 19.9586 9.34523 18.5996 9.0625C18.4055 9.02211 18.205 9 18 9C17.8575 9 17.724 8.97305 17.6035 8.92383C17.483 8.87461 17.3765 8.80227 17.2871 8.71289C17.1977 8.62352 17.1254 8.51695 17.0762 8.39648C17.027 8.27602 17 8.1425 17 8C17 7.8575 17.027 7.72398 17.0762 7.60352C17.1254 7.48305 17.1977 7.37648 17.2871 7.28711C17.4659 7.10836 17.715 7 18 7C18.57 7 19 7.43 19 8H21C21 7.83875 20.9862 7.67975 20.9609 7.52539C20.9357 7.37104 20.9 7.22172 20.8516 7.07617C20.5609 6.20289 19.87 5.50445 19 5.18945V4H17ZM10.5156 18C9.48462 18.004 8.69922 18.2656 8.69922 18.2656L8.67969 18.2734L3.00781 20.4492L4.99219 26.0195L9.92188 24.1289L17.0586 28.0586L29.3828 22.9531L28.6172 21.1094L17.1797 25.8438L10.0781 21.9336L6.1875 23.4219L5.54688 21.6172L9.34375 20.1602C9.35275 20.1562 9.81962 20 10.5156 20C11.2186 20 12.0383 20.1561 12.7383 20.7891L12.752 20.7969L12.7559 20.8008C13.7869 21.6958 14.5645 22.3212 15.6465 22.6602C16.7285 23.0002 17.9559 23.0392 20.0059 23.0312L19.9961 21.0312C17.9841 21.0392 16.9331 20.968 16.2461 20.75C15.5581 20.539 15.0701 20.1598 14.0781 19.3008L14.0664 19.293C12.9094 18.254 11.5346 17.996 10.5156 18Z" fill="black"/>
</g>
</svg>
