<svg width="32" height="32" viewBox="0 0 32 32" fill="none" xmlns="http://www.w3.org/2000/svg">
<g id="hand-pointer">
<path id="Vector" d="M13 2C11.3555 2 10 3.35547 10 5V16.8125L9.34375 16.125L9.09375 15.9062C7.94141 14.7539 6.05859 14.7539 4.90625 15.9062C3.75391 17.0586 3.75391 18.9414 4.90625 20.0938V20.125L13.0938 28.2188L13.1562 28.25L13.1875 28.3125C14.5352 29.3242 16.2539 30 18.1875 30H19.9062C24.4414 30 28.0938 26.3477 28.0938 21.8125V14C28.0938 12.3555 26.7383 11 25.0938 11C24.668 11 24.2734 11.1172 23.9062 11.2812C23.5781 9.98047 22.3945 9 21 9C20.2344 9 19.5312 9.30078 19 9.78125C18.4688 9.30078 17.7656 9 17 9C16.6484 9 16.3164 9.07422 16 9.1875V5C16 3.35547 14.6445 2 13 2ZM13 4C13.5547 4 14 4.44531 14 5V16H16V12C16 11.4453 16.4453 11 17 11C17.5547 11 18 11.4453 18 12V16H20V12C20 11.4453 20.4453 11 21 11C21.5547 11 22 11.4453 22 12V16H24.0938V14C24.0938 13.4453 24.5391 13 25.0938 13C25.6484 13 26.0938 13.4453 26.0938 14V21.8125C26.0938 25.2773 23.3711 28 19.9062 28H18.1875C16.7227 28 15.457 27.4766 14.4062 26.6875L6.3125 18.6875C5.86719 18.2422 5.86719 17.7578 6.3125 17.3125C6.75781 16.8672 7.24219 16.8672 7.6875 17.3125L12 21.625V5C12 4.44531 12.4453 4 13 4Z" fill="black"/>
</g>
</svg>
