<svg width="32" height="32" viewBox="0 0 32 32" fill="none" xmlns="http://www.w3.org/2000/svg">
<g id="hand-middle-finger-solid">
<path id="Vector" d="M16 2C14.3555 2 13 3.35547 13 5V10.1875C12.6836 10.0742 12.3516 10 12 10C10.3555 10 9 11.3555 9 13V16.6562L6.90625 19.3438C5.6289 20.9961 5.71484 23.3672 7.09375 24.9375L9.46875 27.625C10.7969 29.1367 12.707 30 14.7187 30H20C23.8555 30 27 26.8555 27 23V14C27 12.3555 25.6445 11 24 11C23.4648 11 22.9687 11.1562 22.5312 11.4062C21.9961 10.5625 21.0625 10 20 10C19.6484 10 19.3164 10.0742 19 10.1875V5C19 3.35547 17.6445 2 16 2ZM16 4C16.5664 4 17 4.43359 17 5V15H19V13C19 12.4336 19.4336 12 20 12C20.5664 12 21 12.4336 21 13V15H23V14C23 13.4336 23.4336 13 24 13C24.5664 13 25 13.4336 25 14V23C25 25.7734 22.7734 28 20 28H14.7187C13.2812 28 11.918 27.3945 10.9687 26.3125L8.59375 23.5938C7.83984 22.7344 7.80078 21.5 8.5 20.5938L9 19.9375V21H11V13C11 12.4336 11.4336 12 12 12C12.5664 12 13 12.4336 13 13V15H15V5C15 4.43359 15.4336 4 16 4Z" fill="black"/>
</g>
</svg>
