<svg width="32" height="32" viewBox="0 0 32 32" fill="none" xmlns="http://www.w3.org/2000/svg">
<g id="hand-point-up-solid">
<path id="Vector" d="M13 2C11.3555 2 10 3.35547 10 5V15.75L9.25 15.5625C9.09375 15.3594 9.02734 15.2305 8.625 14.9375C7.98438 14.4688 6.99219 14 5.65625 14C4.23047 14 3 15.2891 3 16.9062V17.3125L3.28125 17.625L10 24.4062V30H26V13.1562C26 11.7461 25.0039 10.5156 23.625 10.2188L16 8.5625V5C16 3.35547 14.6445 2 13 2ZM13 4C13.5664 4 14 4.43359 14 5V10.1875L14.7812 10.375L23.2188 12.1562C23.6875 12.2578 24 12.6797 24 13.1562V23H11.4062L5.09375 16.5938C5.17578 16.1719 5.34766 16 5.65625 16C6.55859 16 7.11719 16.2734 7.46875 16.5312C7.82031 16.7891 7.90625 16.9688 7.90625 16.9688L8.09375 17.3125L8.5 17.4375L10.75 18.0312L12 18.3438V5C12 4.43359 12.4336 4 13 4ZM12 25H24V28H12V25Z" fill="black"/>
</g>
</svg>
