<svg width="32" height="32" viewBox="0 0 32 32" fill="none" xmlns="http://www.w3.org/2000/svg">
<g id="handshake">
<path id="Vector" d="M19.3125 6.9687C18.7578 6.9726 18.207 6.99995 17.625 7.1562C17.043 7.31245 16.4609 7.56245 15.8438 7.9687C15.0781 7.51948 14.3359 7.14838 13.625 7.06245C12.7422 6.95307 11.9219 7.01166 10.9688 7.0312C9.83984 7.05463 9.10156 7.63276 7.90625 8.0937C6.71094 8.55463 5.17188 8.99995 3 8.99995H2V18.6249L2.5625 18.9062L4.40625 19.8124L10.9688 27.1249L11 27.1562C11.75 27.8984 12.7617 28.082 13.6562 28.0312C14.5508 27.9804 15.3906 27.7187 16.0625 27.3124C17.5391 26.4218 21.5625 23.6249 21.5625 23.6249L21.6562 23.5624L21.7188 23.4999C22.1953 23.0273 22.4336 22.4492 22.5938 21.8437L26.4375 19.9062L29.3125 18.9374L30 18.7187V8.99995H29C26.832 8.99995 25.2891 8.5312 24.0938 8.06245C22.8984 7.5937 22.1719 7.02338 21.0312 6.99995C20.4219 6.98823 19.8672 6.96479 19.3125 6.9687ZM19.3438 8.9687C19.793 8.96479 20.3125 8.98823 20.9688 8.99995C21.0742 9.00385 22.0352 9.41401 23.375 9.93745C24.5078 10.3828 26.082 10.7773 28 10.9062V17.2812L25.6875 18.0624H25.625L25.5625 18.0937L22.5312 19.6249C22.3633 19.1679 22.1328 18.746 21.7812 18.3749L21.7188 18.2812L17.4688 13.0624L16.8438 12.2812L16.0625 12.9062L13.375 15.0937C12.4727 15.7187 11.7422 15.539 11 15.1874C10.7852 15.0859 10.7969 15.0546 10.625 14.9374L15.1875 11.1562L15.25 11.0937C16.6055 9.74995 17.4375 9.2851 18.1562 9.0937C18.5156 8.99604 18.8945 8.9726 19.3438 8.9687ZM12.375 8.99995C12.7578 8.99213 13.0781 8.99604 13.375 9.0312C13.6367 9.06245 13.9336 9.2851 14.1875 9.37495C14.0859 9.4687 14.0117 9.52338 13.9062 9.62495C13.8828 9.64838 13.8672 9.66401 13.8438 9.68745L8.375 14.2187L7.53125 14.9062L8.28125 15.6874C8.28125 15.6874 9.00391 16.4687 10.125 16.9999C11.2461 17.5312 12.9766 17.832 14.5312 16.7499L14.5938 16.6874L16.5312 15.0937L20.2188 19.6249L20.25 19.6874L20.2812 19.7187C20.9414 20.371 20.9258 21.3984 20.2812 22.0624C20.2734 22.0703 20.2891 22.0859 20.2812 22.0937C20.2734 22.0976 20.1406 22.1757 20.125 22.1874L18.8125 20.4062L17.1875 21.5937L18.4688 23.3124C17.9492 23.664 17.7148 23.8476 17.1562 24.2187L15.8125 22.4062L14.1875 23.5937L15.4688 25.3124C15.3555 25.3828 15.1211 25.539 15.0312 25.5937C14.7148 25.7851 14.1055 25.9999 13.5625 26.0312C13.0508 26.0585 12.6602 25.9414 12.4688 25.7812L12.4375 25.7499L5.75 18.3437L5.625 18.1874L4 17.3749V10.9062C5.91016 10.7812 7.49609 10.4023 8.625 9.9687C9.96094 9.45698 10.9141 9.0351 11.0312 9.0312C11.543 9.01948 11.9922 9.00776 12.375 8.99995Z" fill="black"/>
</g>
</svg>
