<svg width="32" height="32" viewBox="0 0 32 32" fill="none" xmlns="http://www.w3.org/2000/svg">
<g id="hand-holding-solid">
<path id="Vector" d="M10.5156 18C9.48462 18.004 8.69922 18.2657 8.69922 18.2657L8.67969 18.2735L3.00781 20.4493L4.99219 26.0196L9.92188 24.129L17.0586 28.0586L29.3828 22.9532L28.6172 21.1094L17.1797 25.8438L10.0781 21.9336L6.1875 23.4219L5.54688 21.6153L9.34375 20.1582C9.35275 20.1552 9.81962 20 10.5156 20C11.2186 20 12.0383 20.1561 12.7383 20.7891L12.752 20.7969L12.7559 20.8008C13.7869 21.6958 14.5645 22.3212 15.6465 22.6602C16.7285 23.0002 17.9559 23.0393 20.0059 23.0313L19.9961 21.0313C17.9841 21.0393 16.9331 20.968 16.2461 20.75C15.5581 20.539 15.0701 20.1598 14.0781 19.3008L14.0664 19.293C12.9094 18.254 11.5346 17.996 10.5156 18Z" fill="black"/>
</g>
</svg>
