<svg width="32" height="32" viewBox="0 0 32 32" fill="none" xmlns="http://www.w3.org/2000/svg">
<g id="hand-rock">
<path id="Vector" d="M15 6C13.9375 6 13.0039 6.5625 12.4688 7.40625C12.0313 7.15625 11.5352 7 11 7C9.35548 7 8.00001 8.35547 8.00001 10V13.6562L5.90626 16.3438C4.62892 17.9961 4.71486 20.3672 6.09376 21.9375L8.46876 24.625C9.79689 26.1367 11.707 27 13.7188 27H19C22.8555 27 26 23.8555 26 20V11C26 9.35547 24.6445 8 23 8C22.4649 8 21.9688 8.15625 21.5313 8.40625C20.9961 7.5625 20.0625 7 19 7C18.4649 7 17.9688 7.15625 17.5313 7.40625C16.9961 6.5625 16.0625 6 15 6ZM15 8C15.5664 8 16 8.43359 16 9V12H18V10C18 9.43359 18.4336 9 19 9C19.5664 9 20 9.43359 20 10V12H22V11C22 10.4336 22.4336 10 23 10C23.5664 10 24 10.4336 24 11V20C24 22.7734 21.7735 25 19 25H13.7188C12.2813 25 10.918 24.3945 9.96876 23.3125L7.59376 20.5938C6.83986 19.7344 6.80079 18.5 7.50001 17.5938L8.00001 16.9375V18H10V10C10 9.43359 10.4336 9 11 9C11.5664 9 12 9.43359 12 10V12H14V9C14 8.43359 14.4336 8 15 8Z" fill="black"/>
</g>
</svg>
