<svg width="32" height="32" viewBox="0 0 32 32" fill="none" xmlns="http://www.w3.org/2000/svg">
<g id="hand-point-right-solid">
<path id="Vector" d="M14.6875 3L14.375 3.28125L7.59375 10H2V26H18.8438C20.2539 26 21.4844 25.0039 21.7812 23.625L23.4375 16H27C28.6445 16 30 14.6445 30 13C30 11.3555 28.6445 10 27 10H16.25L16.4375 9.25C16.6406 9.09375 16.7695 9.02734 17.0625 8.625C17.5312 7.98438 18 6.99219 18 5.65625C18 4.23047 16.7109 3 15.0938 3H14.6875ZM15.4062 5.09375C15.8281 5.17578 16 5.34766 16 5.65625C16 6.55859 15.7266 7.11719 15.4688 7.46875C15.2109 7.82031 15.0312 7.90625 15.0312 7.90625L14.6875 8.09375L14.5625 8.5L13.9688 10.75L13.6562 12H27C27.5664 12 28 12.4336 28 13C28 13.5664 27.5664 14 27 14H21.8125L21.625 14.7812L19.8438 23.2188C19.7422 23.6875 19.3203 24 18.8438 24H9V11.4062L15.4062 5.09375ZM4 12H7V24H4V12Z" fill="black"/>
</g>
</svg>
