<svg width="32" height="32" viewBox="0 0 32 32" fill="none" xmlns="http://www.w3.org/2000/svg">
<g id="hand-spock-solid">
<path id="Vector" d="M12.4062 1.99993C12.2109 2.00384 12.0117 2.01556 11.8125 2.06243C10.4727 2.36712 9.53125 3.55853 9.46875 4.87493C9.10156 4.81634 8.72266 4.82025 8.34375 4.90618C6.73828 5.26946 5.69922 6.89446 6.0625 8.49993L8 16.9062V17.7499L7.125 16.8749C5.96094 15.7109 4.03906 15.7109 2.875 16.8749C1.71094 18.039 1.71094 19.9609 2.875 21.1249L9.65625 27.9062C10.832 29.0781 12.457 29.9999 14.375 29.9999H19C22.8555 29.9999 26 26.8554 26 22.9999V15.9999L26.9375 11.2812C27.2539 9.6679 26.1758 8.06634 24.5625 7.74993C24.2227 7.68353 23.8867 7.67181 23.5625 7.71868L23.7812 6.59368C24.0977 4.9804 23.0195 3.37884 21.4062 3.06243C19.793 2.74603 18.2227 3.82415 17.9062 5.43743L16.9062 10.1874L15.375 4.34368C15.3711 4.33587 15.3789 4.32025 15.375 4.31243H15.3438C15.0078 2.93353 13.7734 1.9765 12.4062 1.99993ZM12.25 4.03118C12.8008 3.90618 13.3125 4.2304 13.4375 4.78118V4.81243L15.9375 14.4062L16.125 15.1562H17.9062L18.0938 14.3437L19.8438 5.84368V5.81243C19.9531 5.25775 20.4766 4.92181 21.0312 5.03118C21.5859 5.14056 21.9219 5.664 21.8125 6.21868L20 15.3437L21.9688 15.7187L23 10.5312H23.0312C23.1406 9.9765 23.6328 9.60931 24.1875 9.71868C24.7422 9.82806 25.0781 10.3515 24.9688 10.9062L24.0312 15.8124L24 15.9062V22.9999C24 25.7734 21.7734 27.9999 19 27.9999H14.375C13.1016 27.9999 12.0078 27.3788 11.0938 26.4687L4.28125 19.7187C3.88281 19.3202 3.88281 18.6796 4.28125 18.2812C4.67969 17.8827 5.32031 17.8827 5.71875 18.2812L8.28125 20.8749L10 22.5937V16.7812L9.96875 16.6874L8.03125 8.06243C7.90625 7.51165 8.23047 6.96868 8.78125 6.84368C9.33203 6.71868 9.84375 7.07415 9.96875 7.62493L11.75 15.5624L13.7188 15.1249L11.9375 7.15618C11.9336 7.14446 11.9414 7.13665 11.9375 7.12493L11.5 5.21868C11.375 4.6679 11.6992 4.15618 12.25 4.03118Z" fill="black"/>
</g>
</svg>
