<svg width="32" height="32" viewBox="0 0 32 32" fill="none" xmlns="http://www.w3.org/2000/svg">
<g id="hand-peace">
<path id="Vector" d="M15 2C13.3555 2 12 3.35547 12 5V6.53125L11.875 6.125C11.3984 4.55078 9.69922 3.64844 8.125 4.125C6.55078 4.60156 5.64844 6.30078 6.125 7.875L8.71875 16.3125C8.53125 16.3867 8.32812 16.4727 8.125 16.5938C7.28906 17.0938 6.34375 18.1055 6.0625 19.7188C5.85156 20.9141 6.08203 21.9648 6.25 22.5312C6.25 22.543 6.25 22.5508 6.25 22.5625L7.03125 25.0625C7.93359 27.9961 10.6523 30 13.7187 30H19C22.8555 30 26 26.8555 26 23V13.0938C26 13.0508 26 13.0117 26 12.9688C26 12.9492 26 12.9258 26 12.9062C26 12.8945 26 12.8867 26 12.875C25.9922 12.8438 25.9805 12.8125 25.9688 12.7812C25.8789 11.6797 25.2109 10.6523 24.125 10.2188C23.3711 9.91797 22.5781 9.96094 21.875 10.25C21.5508 9.63672 21.0273 9.11719 20.3437 8.84375C19.5586 8.53125 18.7227 8.58203 18 8.90625V5C18 3.35547 16.6445 2 15 2ZM15 4C15.5664 4 16 4.43359 16 5V11.5938L14.9687 14.2188C14.8203 14.5898 14.75 14.9922 14.75 15.375L10.6562 15.9062L8.0625 7.28125C7.89844 6.74219 8.17969 6.19531 8.71875 6.03125C9.25781 5.86719 9.80469 6.17969 9.96875 6.71875L12.0312 13.5625L13.1562 13.2188H14V5C14 4.43359 14.4336 4 15 4ZM19.1875 10.625C19.3164 10.6211 19.4648 10.6367 19.5937 10.6875C20.1172 10.8984 20.3672 11.4766 20.1562 12L19.0937 14.6562V14.6875L18.6875 15.7188C18.668 15.7734 18.6211 15.7969 18.5937 15.8438C18.0859 15.4492 17.4453 15.1953 16.7812 15.1875C16.793 15.1133 16.7812 15.043 16.8125 14.9688L18.3125 11.25C18.4687 10.8555 18.8008 10.6328 19.1875 10.625ZM22.9688 12C23.1016 12 23.2422 12.0117 23.375 12.0625C23.7695 12.2188 23.9922 12.5742 24 12.9688C24 12.9805 24 12.9883 24 13C24 13.1211 23.9844 13.2539 23.9375 13.375L22.8125 16.1562C22.6016 16.6797 22.0234 16.9297 21.5 16.7188C20.9766 16.5078 20.7578 15.9297 20.9687 15.4062L22.0312 12.75C22.0469 12.7109 22.0469 12.6641 22.0625 12.625C22.168 12.3633 22.3594 12.1641 22.5938 12.0625C22.7109 12.0117 22.8359 12 22.9688 12ZM16.5 17.1562C17.0273 17.0312 17.5312 17.3477 17.6562 17.875C17.7344 18.1992 17.6914 18.3633 17.5937 18.5312C17.4961 18.6992 17.2891 18.9062 16.8437 19.0625L12 20.3125C11.7031 20.3906 11.4609 20.6016 11.3398 20.8789C11.2187 21.1602 11.2305 21.4805 11.375 21.75L12.2812 23.4062C12.5469 23.8906 13.1562 24.0664 13.6406 23.7969C14.125 23.5312 14.3008 22.9219 14.0312 22.4375L13.75 21.9375L17.4375 20.9688C17.4687 20.9609 17.5 20.9492 17.5312 20.9375C18.3047 20.668 18.9258 20.207 19.3125 19.5625C19.6289 19.0352 19.75 18.4219 19.6875 17.8125C19.9805 18.1289 20.3555 18.3906 20.7812 18.5625C21.9258 19.0195 23.1836 18.7305 24 17.9062V23C24 25.7734 21.7734 28 19 28H13.7187C11.5195 28 9.58594 26.5703 8.9375 24.4688L8.1875 21.9688C8.10547 21.6992 7.94141 20.7539 8.0625 20.0625C8.25 18.9883 8.71875 18.5742 9.15625 18.3125C9.59375 18.0508 9.90625 18.0312 9.90625 18.0312C9.92578 18.0312 9.94922 18.0312 9.96875 18.0312L16.4062 17.1875C16.4375 17.1797 16.4687 17.168 16.5 17.1562Z" fill="black"/>
</g>
</svg>
