<svg width="32" height="32" viewBox="0 0 32 32" fill="none" xmlns="http://www.w3.org/2000/svg">
<g id="hand-point-left">
<path id="Vector" d="M16.9062 3C15.2891 3 14 4.23047 14 5.65625C14 6.99219 14.4688 7.98438 14.9375 8.625C15.2305 9.02734 15.3594 9.09375 15.5625 9.25L15.75 10H5C3.35547 10 2 11.3555 2 13C2 14.6445 3.35547 16 5 16H8.5625L10.2188 23.625C10.5156 25.0039 11.7461 26 13.1562 26H30V10H24.4062L17.625 3.28125L17.3125 3H16.9062ZM16.5938 5.09375L23 11.4062V24H13.1562C12.6797 24 12.2578 23.6875 12.1562 23.2188L10.375 14.7812L10.1875 14H5C4.43359 14 4 13.5664 4 13C4 12.4336 4.43359 12 5 12H18.3438L18.0312 10.75L17.4375 8.5L17.3125 8.09375L16.9688 7.90625C16.9688 7.90625 16.7891 7.82031 16.5312 7.46875C16.2734 7.11719 16 6.55859 16 5.65625C16 5.34766 16.1719 5.17578 16.5938 5.09375ZM25 12H28V24H25V12Z" fill="black"/>
</g>
</svg>
