<svg width="32" height="32" viewBox="0 0 32 32" fill="none" xmlns="http://www.w3.org/2000/svg">
<g id="hand-lizard">
<path id="Vector" d="M14.3125 4C12.5352 4 10.8633 4.93359 9.96875 6.46875L4.6875 15.5625C4.24219 16.3281 4 17.207 4 18.0938V28H14V23.6875C16.6289 22.8984 17.9844 21.5156 18.4062 21H24.7188C25.9961 21 26.9648 19.7383 26.6562 18.5L26.5312 18.0312C26.0859 16.2578 24.4844 15 22.6562 15H15.7812L15.2812 13H21.6562C23.4844 13 25.0859 11.7422 25.5312 9.96875L25.875 8.65625C27.0547 8.25 28 7.30859 28 6V4H14.3125ZM14.3125 6H26C26 6.56641 25.5664 7 25 7H16L15 9H23.7188L23.5938 9.5C23.3711 10.3945 22.5781 11 21.6562 11H15.2812C14.0039 11 13.0352 12.2617 13.3438 13.5L13.8438 15.5C14.0664 16.3867 14.8672 17 15.7812 17H22.6562C23.5781 17 24.3711 17.6055 24.5938 18.5L24.7188 19H17.5L17.1875 19.4062C17.1875 19.4062 15.7461 21.4531 12.8125 22.0312L12 22.1875V26H6V18.0938C6 17.5625 6.13672 17.0234 6.40625 16.5625L11.7188 7.5C12.2578 6.57812 13.2422 6 14.3125 6Z" fill="black"/>
</g>
</svg>
