<svg width="32" height="32" viewBox="0 0 32 32" fill="none" xmlns="http://www.w3.org/2000/svg">
<g id="hand-paper-solid">
<path id="Vector" d="M16 2C14.6172 2 13.4688 2.96875 13.125 4.25C12.7734 4.10547 12.4023 4 12 4C10.3555 4 9 5.35547 9 7V17.75L8.125 16.875C6.96094 15.7109 5.03906 15.7109 3.875 16.875C2.71094 18.0391 2.71094 19.9609 3.875 21.125L10.6562 27.9062C11.832 29.0781 13.457 30 15.375 30H20C23.8555 30 27 26.8555 27 23V11C27 9.35547 25.6445 8 24 8C23.6484 8 23.3164 8.07422 23 8.1875V7C23 5.35547 21.6445 4 20 4C19.5977 4 19.2266 4.10547 18.875 4.25C18.5312 2.96875 17.3828 2 16 2ZM16 4C16.5664 4 17 4.43359 17 5V15H19V7C19 6.43359 19.4336 6 20 6C20.5664 6 21 6.43359 21 7V15H23V11C23 10.4336 23.4336 10 24 10C24.5664 10 25 10.4336 25 11V23C25 25.7734 22.7734 28 20 28H15.375C14.1016 28 13.0078 27.3789 12.0938 26.4688L5.28125 19.7188C4.88281 19.3203 4.88281 18.6797 5.28125 18.2812C5.67969 17.8828 6.32031 17.8828 6.71875 18.2812L9.28125 20.875L11 22.5938V7C11 6.43359 11.4336 6 12 6C12.5664 6 13 6.43359 13 7V15H15V5C15 4.43359 15.4336 4 16 4Z" fill="black"/>
</g>
</svg>
