<svg width="32" height="32" viewBox="0 0 32 32" fill="none" xmlns="http://www.w3.org/2000/svg">
<g id="hand-point-down">
<path id="Vector" d="M10 2V7.59375L3.28125 14.375L3 14.6875V15.0938C3 16.7109 4.23047 18 5.65625 18C6.99219 18 7.98438 17.5312 8.625 17.0625C9.02734 16.7695 9.09375 16.6406 9.25 16.4375L10 16.25V27C10 28.6445 11.3555 30 13 30C14.6445 30 16 28.6445 16 27V23.4375L23.625 21.7812C25.0039 21.4844 26 20.2539 26 18.8438V2H10ZM12 4H24V7H12V4ZM11.4062 9H24V18.8438C24 19.3203 23.6875 19.7422 23.2188 19.8438L14.7812 21.625L14 21.8125V27C14 27.5664 13.5664 28 13 28C12.4336 28 12 27.5664 12 27V13.6562L10.75 13.9688L8.5 14.5625L8.09375 14.6875L7.90625 15.0312C7.90625 15.0312 7.82031 15.2109 7.46875 15.4688C7.11719 15.7266 6.55859 16 5.65625 16C5.34766 16 5.17578 15.8281 5.09375 15.4062L11.4062 9Z" fill="black"/>
</g>
</svg>
