<svg width="32" height="32" viewBox="0 0 32 32" fill="none" xmlns="http://www.w3.org/2000/svg">
<g id="hands-solid">
<path id="Vector" d="M3 5V16.4062L3.28125 16.7188L9 22.4375V28H15V22.0312V22C15.004 21.945 15.1455 18.8445 12.5625 17.1875C12.5545 17.1835 12.5705 17.1602 12.5625 17.1562C12.5545 17.1523 12.5393 17.1602 12.5312 17.1562C11.3472 16.3833 10.1252 15.7507 9.28125 15.0938C8.43025 14.4347 8 13.887 8 13H6C6 14.617 6.94525 15.8435 8.03125 16.6875C9.11725 17.5315 10.3795 18.1528 11.4375 18.8438H11.4688C13.0708 19.8477 13 21.9688 13 21.9688V26H11V21.5938L10.7188 21.2812L5 15.5625V5H3ZM27 5V15.5625L21.2812 21.2812L21 21.5938V26H19V21.9375C19 21.9375 18.9303 19.8477 20.5312 18.8438H20.5625C21.6175 18.1528 22.8827 17.5305 23.9688 16.6875C25.0548 15.8445 26 14.617 26 13H24C24 13.887 23.5697 14.4338 22.7188 15.0938C21.8748 15.7498 20.6528 16.3822 19.4688 17.1562C19.4608 17.1602 19.4455 17.1523 19.4375 17.1562V17.1875C16.8745 18.8275 16.996 21.895 17 22V22.0625V28H23V22.4375L28.7188 16.7188L29 16.4062V5H27Z" fill="black"/>
</g>
</svg>
