<svg width="32" height="32" viewBox="0 0 32 32" fill="none" xmlns="http://www.w3.org/2000/svg">
<g id="hand-scissors">
<path id="Vector" d="M11.4062 6.96877C10.5781 6.95314 9.89062 7.12502 9.46875 7.25002C9.45703 7.25002 9.44922 7.25002 9.4375 7.25002L6.9375 8.03127C4.00391 8.93361 2 11.6524 2 14.7188V20C2 23.8555 5.14453 27 9 27H18.9062C20.125 27.0274 21.3047 26.3125 21.7812 25.125C22.082 24.3711 22.0391 23.5781 21.75 22.875C22.3633 22.5508 22.8828 22.0274 23.1562 21.3438C23.4688 20.5586 23.418 19.7227 23.0938 19H27C28.6445 19 30 17.6445 30 16C30 14.3555 28.6445 13 27 13H25.4688L25.875 12.875C27.4492 12.3985 28.3516 10.6992 27.875 9.12502C27.3984 7.5508 25.6992 6.64846 24.125 7.12502L15.6875 9.71877C15.6133 9.53127 15.5273 9.32814 15.4062 9.12502C14.9062 8.28908 13.8945 7.34377 12.2812 7.06252C11.9805 7.01174 11.6836 6.97267 11.4062 6.96877ZM25.125 9.00002C25.5156 9.04299 25.8477 9.31252 25.9688 9.71877C26.1328 10.2578 25.8203 10.8047 25.2812 10.9688L18.4375 13.0313L18.7812 14.1563V15H27C27.5664 15 28 15.4336 28 16C28 16.5664 27.5664 17 27 17H20.4062L17.7812 15.9688C17.4023 15.8164 17.0117 15.7422 16.625 15.75L16.0938 11.6563L24.7188 9.03127C24.8555 8.9883 24.9961 8.98439 25.125 9.00002ZM11.375 9.03127C11.5664 9.03127 11.7656 9.03127 11.9375 9.06252C13.0117 9.25002 13.4258 9.71877 13.6875 10.1563C13.9492 10.5938 13.9688 10.9063 13.9688 10.9063C13.9688 10.9258 13.9688 10.9492 13.9688 10.9688L14.8125 17.4063C14.8203 17.4375 14.832 17.4688 14.8438 17.5C14.9688 18.0274 14.6523 18.5313 14.125 18.6563C13.8008 18.7344 13.6367 18.6914 13.4688 18.5938C13.3008 18.4961 13.0938 18.2891 12.9375 17.8438L11.6875 13C11.6094 12.7031 11.3984 12.461 11.1211 12.3399C10.8398 12.2188 10.5195 12.2305 10.25 12.375L8.59375 13.2813C8.10938 13.5469 7.93359 14.1563 8.20312 14.6406C8.46875 15.125 9.07812 15.3008 9.5625 15.0313L10.0625 14.75L11.0312 18.4375C11.0391 18.4688 11.0508 18.5 11.0625 18.5313C11.332 19.3047 11.793 19.9258 12.4375 20.3125C12.9648 20.6289 13.5781 20.75 14.1875 20.6875C13.8711 20.9805 13.6094 21.3555 13.4375 21.7813C12.9805 22.9258 13.2695 24.1836 14.0938 25H9C6.22656 25 4 22.7735 4 20V14.7188C4 12.5195 5.42969 10.586 7.53125 9.93752L10.0312 9.18752C10.2344 9.12502 10.8047 9.03127 11.375 9.03127ZM16.8125 17.7813C16.8867 17.793 16.957 17.7813 17.0312 17.8125L20.75 19.3125C21.2734 19.5235 21.5234 20.0703 21.3125 20.5938C21.1016 21.1172 20.5234 21.3672 20 21.1563L16.2812 19.6875C16.2266 19.668 16.2031 19.6211 16.1562 19.5938C16.5508 19.086 16.8047 18.4453 16.8125 17.7813ZM16.1875 21.9063C16.3203 21.9063 16.4609 21.918 16.5938 21.9688L17.9375 22.5L19.25 23.0313L19.375 23.0625C19.8984 23.2735 20.1484 23.8516 19.9375 24.375C19.7852 24.7578 19.4453 24.9805 19.0625 25C19.0508 25 19.043 25 19.0312 25C18.8984 25.0039 18.7578 24.9883 18.625 24.9375L15.8438 23.8125C15.3203 23.6016 15.0703 23.0235 15.2812 22.5C15.3867 22.2383 15.5781 22.0703 15.8125 21.9688C15.9297 21.918 16.0547 21.9063 16.1875 21.9063Z" fill="black"/>
</g>
</svg>
