<svg width="32" height="32" viewBox="0 0 32 32" fill="none" xmlns="http://www.w3.org/2000/svg">
<g id="hand-holding-heart-solid">
<path id="Vector" d="M14.5 3C12.567 3 11 4.567 11 6.5C11 10 17 13 17 13C17 13 23 10 23 6.5C23 4.567 21.433 3 19.5 3C18.519 3 17.635 3.40664 17 4.05664C16.365 3.40664 15.481 3 14.5 3ZM14.5 5C14.904 5 15.2843 5.16013 15.5703 5.45312L16.1035 6H17.8965L18.4297 5.45312C18.7157 5.16013 19.096 5 19.5 5C20.327 5 21 5.673 21 6.5C21 7.761 18.894 9.57584 17 10.7148C15.105 9.57484 13 7.761 13 6.5C13 5.673 13.673 5 14.5 5ZM19.2188 13.9785L17.582 15.127L20.1914 18.8496L16.5898 21.3438L14.0469 20.0273C15.2219 19.4357 16.7406 18.671 16.7461 18.668L16.7578 18.6602L16.7676 18.6543C17.73 18.0879 18.2231 16.9198 17.9023 15.8086V15.8066C17.5227 14.4927 16.1232 13.721 14.8086 14.0996H14.8066L7.69531 16.082L2.98828 19.3164L4.88281 27.0371L9.92773 25.2148L17.0742 28.9141L28.9434 20.6973L27.8066 19.0527L16.9258 26.5859L10.0723 23.0352L6.29492 24.4004L5.26172 20.1836L8.55469 17.918L15.3574 16.0215H15.3613C15.6382 15.9415 15.9003 16.0859 15.9805 16.3633C16.0472 16.5944 15.9429 16.8154 15.7559 16.9277C15.7232 16.9446 13.0727 18.279 11.3984 19.1211L9.64844 20L16.7402 23.6738L22.9844 19.3496L19.2188 13.9785Z" fill="black"/>
</g>
</svg>
