<svg width="32" height="32" viewBox="0 0 32 32" fill="none" xmlns="http://www.w3.org/2000/svg">
<g id="hanukiah-solid">
<path id="Vector" d="M16 4C16 4 15 6.01562 15 7C15 7.55078 15.4492 8 16 8C16.5508 8 17 7.55078 17 7C17 6.0625 16 4 16 4ZM13 5C13 5 12 7.0625 12 8C12 8.55078 12.4492 9 13 9C13.5508 9 14 8.55078 14 8C14 7.01562 13 5 13 5ZM19 5C19 5 18 7.01562 18 8C18 8.55078 18.4492 9 19 9C19.5508 9 20 8.55078 20 8C20 7.0625 19 5 19 5ZM10 6C10 6 9 8.0625 9 9C9 9.55078 9.44922 10 10 10C10.5508 10 11 9.55078 11 9C11 8.01562 10 6 10 6ZM22 6C22 6 21 8.01562 21 9C21 9.55078 21.4492 10 22 10C22.5508 10 23 9.55078 23 9C23 8.0625 22 6 22 6ZM7 7C7 7 6 9.0625 6 10C6 10.5508 6.44922 11 7 11C7.55078 11 8 10.5508 8 10C8 9.01562 7 7 7 7ZM25 7C25 7 24 9.01562 24 10C24 10.5508 24.4492 11 25 11C25.5508 11 26 10.5508 26 10C26 9.0625 25 7 25 7ZM4 8C4 8 3 10.0625 3 11C3 11.5508 3.44922 12 4 12C4.55078 12 5 11.5508 5 11C5 10.0156 4 8 4 8ZM28 8C28 8 27 10.0156 27 11C27 11.5508 27.4492 12 28 12C28.5508 12 29 11.5508 29 11C29 10.0625 28 8 28 8ZM15 9V18H14.9688C14.4141 18 14 17.5859 14 17.0312V10H12V17.0312C12 17.3711 12.0508 17.6953 12.1562 18H11.9688C11.418 18 11 17.582 11 17.0312V11H9V17.0312C9 17.3711 9.08203 17.6953 9.1875 18H9.0625C8.46875 18 8 17.5312 8 16.9375V12H6V16.9375C6 17.3125 6.09375 17.668 6.21875 18H6.03125C5.45312 18 5 17.5469 5 16.9688V13H3V16.9688C3 18.6289 4.37109 20 6.03125 20H15V26H10V28H22V26H17V20H25.9688C27.6289 20 29 18.6289 29 16.9688V13H27V16.9688C27 17.5469 26.5469 18 25.9688 18H25.7812C25.9062 17.668 26 17.3125 26 16.9375V12H24V16.9375C24 17.5312 23.5312 18 22.9375 18H22.8125C22.918 17.6953 23 17.3711 23 17.0312V11H21V17.0312C21 17.582 20.582 18 20.0312 18H19.8438C19.9492 17.6953 20 17.3711 20 17.0312V10H18V17.0312C18 17.5859 17.5859 18 17.0312 18H17V9H15Z" fill="black"/>
</g>
</svg>
