<svg width="32" height="32" viewBox="0 0 32 32" fill="none" xmlns="http://www.w3.org/2000/svg">
<g id="hard-hat-solid">
<path id="Vector" d="M13 7V8.40625C8.03516 9.6875 4.41016 14.082 4.125 19.375C2.95312 19.7852 2 20.6953 2 22V25H30V22C30 20.6953 29.0469 19.7852 27.875 19.375C27.5898 14.082 23.9648 9.6875 19 8.40625V7H13ZM15.0312 9H17C16.9805 9.11328 16.9805 9.23047 17 9.34375V15H19V10.5C22.7383 11.6797 25.5664 14.9727 25.9688 19H24V21H27C27.5664 21 28 21.4336 28 22V23H4V22C4 21.4336 4.43359 21 5 21H8V19H6.03125C6.43359 14.9727 9.26172 11.6797 13 10.5V15H15V9.5C15.0508 9.33984 15.0625 9.16797 15.0312 9Z" fill="black"/>
</g>
</svg>
