<svg width="32" height="32" viewBox="0 0 32 32" fill="none" xmlns="http://www.w3.org/2000/svg">
<g id="hat-wizard-solid">
<path id="Vector" d="M16 28C9.79688 28 7.53516 25.9453 7.29687 25.7109L6.82422 25.2461L15.3242 4H22.9414L18.2148 7.36328L25.1719 25.25L24.7031 25.7109C24.4648 25.9453 22.2031 28 16 28ZM9.22266 24.6367C10.1016 25.1367 12.1758 26 16 26C19.8281 26 21.8984 25.1367 22.7812 24.6328L16.1016 7.44531L9.22266 24.6367ZM18 24C16.3438 24 15 22.6562 15 21C15 19.3438 16.3438 18 18 18C18.2617 18 18.5078 18.043 18.75 18.1055C18.0312 17.4258 17.0664 17 16 17C13.7891 17 12 18.7891 12 21C12 23.2109 13.7891 25 16 25C17.0664 25 18.0312 24.5742 18.75 23.8945C18.5078 23.957 18.2617 24 18 24ZM16 13C16.5508 13 17 13.4492 17 14C17 14.5508 16.5508 15 16 15C15.4492 15 15 14.5508 15 14C15 13.4492 15.4492 13 16 13ZM19 20C19.5508 20 20 20.4492 20 21C20 21.5508 19.5508 22 19 22C18.4492 22 18 21.5508 18 21C18 20.4492 18.4492 20 19 20Z" fill="black"/>
</g>
</svg>
