<svg width="32" height="32" viewBox="0 0 32 32" fill="none" xmlns="http://www.w3.org/2000/svg">
<g id="hat-cowboy-side-solid">
<path id="Vector" d="M19.2109 7.00978C18.9536 7.00211 18.6899 7.0167 18.4219 7.05666C17.7369 7.15862 17.0939 7.41381 16.4336 7.62502C15.7733 7.83622 15.1191 8.00002 14.6309 8.00002C14.3196 8.00002 13.7572 7.99186 13.1895 7.99806C12.6217 8.00426 12.0787 8.01225 11.5996 8.09963C10.7533 8.25423 10.0203 8.62552 9.50587 9.19142C8.99139 9.75732 8.71769 10.4674 8.59181 11.2051C8.59112 11.2096 8.59047 11.2142 8.58985 11.2188L7.98829 15.0352C4.84442 15.213 2.56663 17.1447 1.33204 19.7383C0.789517 20.8774 0.923948 22.1368 1.52345 23.0586C2.12294 23.9804 3.11433 24.605 4.25391 24.8516C12.4267 26.6199 19.4291 26.0794 27.0469 24.9981C27.0521 24.9981 27.0573 24.9981 27.0625 24.9981C27.0658 24.9981 27.069 24.9981 27.0723 24.9981V24.9961C27.0873 24.9951 27.1023 24.9938 27.1172 24.9922C27.1252 24.9911 27.1327 24.9914 27.1406 24.9902C27.1472 24.989 27.1537 24.9877 27.1602 24.9863C27.2586 24.97 27.3541 24.9391 27.4434 24.8945C28.7354 24.6253 29.7004 24.0829 30.2578 23.3477C30.8608 22.5524 31 21.66 31 20.9824C31 17.5816 28.3823 13.4819 23.5547 12.1797L22.9688 9.90627C22.9669 9.89974 22.9649 9.89322 22.9629 9.88673C22.5017 8.2375 21.0123 7.06351 19.2109 7.00978ZM19.1856 8.99416C20.2131 8.97975 20.7785 9.50932 21.0352 10.4238L21.0371 10.4258L21.7305 13.1074L21.7324 13.1133C21.7425 13.2038 21.7648 13.2925 21.7988 13.377L21.9629 14.0098C21.9683 14.0374 21.9748 14.0648 21.9824 14.0918C22.0946 14.4936 21.7391 15.2928 21.2676 15.5684C20.9803 15.736 19.8668 16.1591 18.5723 16.4629C17.3597 16.7474 15.9391 16.961 14.6426 16.9863C13.398 16.091 11.9309 15.3587 10.0039 15.1016L10.5645 11.543C10.6466 11.0617 10.7911 10.7497 10.9844 10.5371C11.1777 10.3245 11.4423 10.1608 11.959 10.0664C12.1269 10.0358 12.679 10.0039 13.2109 9.99806C13.7429 9.99226 14.2841 10 14.6309 10C15.5116 10 16.3268 9.76031 17.043 9.53127C17.7591 9.30222 18.4008 9.08025 18.7168 9.03322C18.8829 9.00845 19.0388 8.99621 19.1856 8.99416ZM24.1524 14.4903C27.3839 15.8586 29 18.8797 29 20.9824C29 21.3929 28.92 21.803 28.6641 22.1406C28.412 22.4732 27.9331 22.8196 26.8672 23C23.845 23.2117 21.9147 22.6809 20.3867 21.793C21.6467 21.5265 22.774 21.1239 23.5215 20.6875C23.5221 20.6869 23.5228 20.6862 23.5234 20.6856C24.672 20.0142 25.2501 18.645 24.8926 17.3594L24.1524 14.4903ZM22.7305 16.9824L22.9609 17.877C22.9622 17.8828 22.9635 17.8887 22.9649 17.8945C23.0802 18.3083 22.9145 18.7247 22.5137 18.959C21.8416 19.3514 19.8693 19.9985 18.1387 20.0801C17.9574 19.913 17.7769 19.7469 17.5957 19.5742C17.3394 19.33 17.0614 19.0744 16.7969 18.8223C17.5747 18.7173 18.332 18.5738 19.0293 18.4102C20.443 18.0784 21.5517 17.7173 22.2754 17.2949C22.276 17.2949 22.2767 17.2949 22.2774 17.2949C22.4362 17.2021 22.5883 17.0971 22.7305 16.9824ZM8.44923 17C10.8157 17 12.3141 17.6723 13.6152 18.6602C13.7009 18.7566 13.8043 18.8355 13.9199 18.8926C14.6909 19.5198 15.4078 20.2524 16.2149 21.0215C16.4657 21.2605 16.7281 21.4995 17.0039 21.7344C17.0924 21.8411 17.2022 21.9282 17.3262 21.9902C17.3281 21.9916 17.3301 21.9929 17.332 21.9942C18.066 22.5896 18.8794 23.1591 19.8125 23.6465C14.9028 24.0175 10.0356 24.0582 4.67579 22.8985C3.99437 22.751 3.46323 22.3747 3.19923 21.9688C2.93523 21.5628 2.86625 21.1675 3.13673 20.5996C4.20328 18.3591 5.80635 17 8.44923 17Z" fill="black"/>
</g>
</svg>
