<svg width="32" height="32" viewBox="0 0 32 32" fill="none" xmlns="http://www.w3.org/2000/svg">
<g id="haykal-solid">
<path id="Vector" d="M16 3C15.628 3 15.2571 3.21639 15.1191 3.65039L13.3887 9.09375L8.75586 6.39844C8.59486 6.29644 8.42567 6.25 8.26367 6.25C7.65867 6.25 7.13729 6.88088 7.40429 7.54688L9.38672 12.5L3.80078 13.2832C2.90978 13.4082 2.69914 14.6179 3.49414 15.0449L8.47851 17.7188L4.32617 22.0137C3.77217 22.6357 4.23995 23.584 5.00195 23.584C5.06895 23.584 5.13798 23.5765 5.20898 23.5605L11.2109 22.3086L11.002 28.0234C10.98 28.6154 11.4525 28.998 11.9375 28.998C12.1995 28.998 12.4652 28.8878 12.6582 28.6348L16 24.1191L19.3437 28.6348C19.5367 28.8868 19.8025 28.998 20.0645 28.998C20.5485 28.998 21.02 28.6154 20.998 28.0234L20.7891 22.3086L26.832 23.5605C26.903 23.5755 26.9731 23.584 27.0391 23.584C27.8031 23.584 28.2688 22.6347 27.7148 22.0137L23.5215 17.7188L28.5078 15.0449C29.3018 14.6189 29.0902 13.4102 28.1992 13.2852L22.6133 12.5L24.5957 7.54688C24.8627 6.88088 24.3413 6.25 23.7363 6.25C23.5733 6.25 23.4051 6.29644 23.2441 6.39844L18.6133 9.09375L16.8828 3.65039C16.7438 3.21739 16.372 3 16 3ZM16 10.8672L16.8613 13.5762L19.5723 11.998L18.3848 14.9688L21.502 15.4043L18.5254 17.002L20.6797 19.207L17.752 18.5879L17.8613 21.6074L16 19.1836L14.1406 21.6094L14.252 18.582L11.3086 19.209L13.4531 16.9902L10.5 15.4062L13.6152 14.9688L12.4277 12L15.1387 13.5762L16 10.8672Z" fill="black"/>
</g>
</svg>
