<svg width="32" height="32" viewBox="0 0 32 32" fill="none" xmlns="http://www.w3.org/2000/svg">
<g id="headset-solid">
<path id="Vector" d="M16 3C9.95312 3 5 7.95312 5 14V20C5 21.293 5.84375 22.3945 7 22.8125V23C7 25.7461 9.25391 28 12 28H13.2812C13.6289 28.5977 14.2617 29 15 29H17C18.1016 29 19 28.1016 19 27C19 25.8984 18.1016 25 17 25H15C14.2617 25 13.6289 25.4023 13.2812 26H12C10.3438 26 9 24.6562 9 23H11V14H7C7 9.04688 11.0469 5 16 5C20.9531 5 25 9.04688 25 14H21V23H24C25.6445 23 27 21.6445 27 20V14C27 7.95312 22.0469 3 16 3ZM7 16H9V21H8C7.44531 21 7 20.5547 7 20V16ZM23 16H25V20C25 20.5547 24.5547 21 24 21H23V16Z" fill="black"/>
</g>
</svg>
