<svg width="32" height="32" viewBox="0 0 32 32" fill="none" xmlns="http://www.w3.org/2000/svg">
<g id="heart-broken-solid">
<path id="Vector" d="M9.5 4C5.36218 4 2 7.40352 2 11.5C2 12.9283 2.65179 14.1534 3.25195 15.0488C3.85211 15.9442 4.46484 16.5449 4.46484 16.5449L16 28.082L27.5352 16.5449C27.5352 16.5449 30 14.3574 30 11.5C30 7.40352 26.6378 4 22.5 4C20.9303 4 19.5269 4.52328 18.3906 5.14844L18.0605 5.33008L16.0039 11H19.625L16 17.2148V13H12.4531L13.998 5.35938L13.3262 5.01367C12.2494 4.45945 10.9521 4 9.5 4ZM9.5 6C10.2781 6 10.9965 6.30863 11.707 6.60156L10.0078 15H14V21H16.1094L22 10.8945V9H18.8555L19.6484 6.81641C20.522 6.37368 21.4865 6 22.5 6C25.5422 6 28 8.49648 28 11.5C28 13.0446 26.1309 15.1211 26.1309 15.1211L26.1289 15.123L16 25.252L5.87109 15.123L5.86914 15.1211C5.86914 15.1211 5.3974 14.6567 4.91406 13.9355C4.43072 13.2145 4 12.2717 4 11.5C4 8.49648 6.45782 6 9.5 6Z" fill="black"/>
</g>
</svg>
