<svg width="32" height="32" viewBox="0 0 32 32" fill="none" xmlns="http://www.w3.org/2000/svg">
<g id="heartbeat-solid">
<path id="Vector" d="M10.7812 5C6.49219 5 3 8.30078 3 12.3594C3 12.5781 3.01953 12.7852 3.03516 13H5.03906C5.01953 12.7891 5 12.5781 5 12.3594C5 9.40625 7.59375 7 10.7812 7C12.2383 7 13.6289 7.50391 14.6992 8.41797L16 9.53125L17.3008 8.41797C18.3672 7.50391 19.7578 7 21.2188 7C24.4062 7 27 9.40625 27 12.3594C27 17.4805 22.1758 20.5156 18.2969 22.957C17.4102 23.5117 16.6328 24.0039 16 24.4688C15.3672 24.0039 14.5898 23.5117 13.7031 22.957C11.8945 21.8203 9.88281 20.5508 8.24609 19H5.53125C7.51172 21.4102 10.3164 23.1875 12.6406 24.6523C13.6133 25.2617 14.4492 25.7891 15.043 26.2539C15.043 26.2539 15.9922 26.9922 16 27C16.0039 26.9922 16.9531 26.2539 16.9531 26.2539C17.5469 25.7891 18.3828 25.2617 19.3594 24.6523C23.4258 22.0898 29 18.5859 29 12.3594C29 8.30078 25.5078 5 21.2188 5C19.2695 5 17.4219 5.67969 16 6.89844C14.5781 5.67969 12.7266 5 10.7812 5ZM11.9688 9.38672L9.63281 15.2188L9.41406 15H3V17H8.58594L10.3633 18.7812L12.0312 14.6133L15.0312 21.6133L17.1016 16.4375L17.3828 17H19.2695C19.6289 17.6172 20.2852 18 21 18C22.1055 18 23 17.1055 23 16C23 14.8945 22.1055 14 21 14C20.2852 14 19.625 14.3828 19.2695 15H18.6172L16.8984 11.5625L14.9688 16.3867L11.9688 9.38672Z" fill="black"/>
</g>
</svg>
