<svg width="32" height="32" viewBox="0 0 32 32" fill="none" xmlns="http://www.w3.org/2000/svg">
<g id="heart">
<path id="Vector" d="M9.5 5C5.36328 5 2 8.40234 2 12.5C2 13.9297 2.64844 15.168 3.25 16.0625C3.85156 16.957 4.46875 17.5312 4.46875 17.5312L15.2812 28.375L16 29.0938L16.7188 28.375L27.5312 17.5312C27.5312 17.5312 30 15.3555 30 12.5C30 8.40234 26.6367 5 22.5 5C19.0664 5 16.8555 7.06641 16 7.9375C15.1445 7.06641 12.9336 5 9.5 5ZM9.5 7C12.4883 7 15.25 9.90625 15.25 9.90625L16 10.75L16.75 9.90625C16.75 9.90625 19.5117 7 22.5 7C25.543 7 28 9.49609 28 12.5C28 14.043 26.125 16.125 26.125 16.125L16 26.25L5.875 16.125C5.875 16.125 5.39062 15.6602 4.90625 14.9375C4.42188 14.2148 4 13.2734 4 12.5C4 9.49609 6.45703 7 9.5 7Z" fill="black"/>
</g>
</svg>
