<svg width="32" height="32" viewBox="0 0 32 32" fill="none" xmlns="http://www.w3.org/2000/svg">
<g id="highlighter-solid">
<path id="Vector" d="M23.625 3.0625L22.9062 3.6875L7.5625 17L7.0625 17.4688L7.3125 18.125C7.3125 18.125 8.4375 21.125 6.28125 23.2812V23.3125L6.25 23.3438L6.09375 23.5312L5.96875 23.6562L2 27.5312L7.375 29L9.4375 26.9375L9.65625 26.75L9.6875 26.7188H9.71875C11.875 24.5625 14.875 25.6875 14.875 25.6875L15.5312 25.9375L16 25.4375L29.3125 10.0938L29.9375 9.375L23.625 3.0625ZM23.5 5.8125L27.1875 9.5L18.4375 19.5625L13.4375 14.5625L23.5 5.8125ZM11.9375 15.875L17.125 21.0625L15.1875 23.3125L9.6875 17.8125L11.9375 15.875ZM9.5625 20.5L12.5 23.4375C11.2578 23.4844 9.75391 23.875 8.34375 25.25C8.32422 25.2695 8.30078 25.2617 8.28125 25.2812L8.03125 25.5L7.5 24.9688L7.71875 24.7188L7.75 24.6562C9.125 23.2461 9.51562 21.7422 9.5625 20.5Z" fill="black"/>
</g>
</svg>
