<svg width="32" height="32" viewBox="0 0 32 32" fill="none" xmlns="http://www.w3.org/2000/svg">
<g id="hiking-solid">
<path id="Vector" d="M16.5 4C14.5781 4 13 5.57812 13 7.5C13 9.42188 14.5781 11 16.5 11C18.4219 11 20 9.42188 20 7.5C20 5.57812 18.4219 4 16.5 4ZM16.5 6C17.3399 6 18 6.66016 18 7.5C18 8.33984 17.3399 9 16.5 9C15.6602 9 15 8.33984 15 7.5C15 6.66016 15.6602 6 16.5 6ZM11.0938 10.5C10.8359 10.4883 10.5703 10.4883 10.3125 10.5312C9.79298 10.6172 9.28126 10.8477 8.84376 11.2188C7.96876 11.9609 7.46094 13.1406 7.09376 14.875C6.97657 15.4336 7.01173 16.0117 7.28126 16.4688C7.55079 16.9258 7.97266 17.2031 8.34376 17.375C9.08985 17.7188 9.82032 17.7852 10.2188 17.875L10.6875 15.9375C10.0859 15.8008 9.46876 15.6914 9.18751 15.5625C9.04688 15.4961 9.02735 15.457 9.03126 15.4688C9.02344 15.4453 9.01173 15.3828 9.03126 15.2812C9.35157 13.7656 9.81641 13.0352 10.1563 12.75C10.4961 12.4648 10.7774 12.418 11.4063 12.5625L11.8438 10.5938C11.5977 10.5391 11.3516 10.5117 11.0938 10.5ZM12.8438 10.8125L11.375 17.5C11.2109 18.25 11.5195 19.0625 12.125 19.5312L15.6563 22.2812L16.5313 28H18.5625L17.625 21.9688C17.5469 21.4609 17.2813 21.0039 16.875 20.6875L13.3438 17.9375L14.375 13.2812L15.4063 13.5625L17.1875 15.2812C17.7656 15.8398 18.6367 15.9727 19.375 15.6562L21 14.9688V28H23V11H21V12.8125L18.5938 13.8438L16.8125 12.125C16.5664 11.8867 16.2656 11.7109 15.9375 11.625L12.8438 10.8125ZM11.5313 20.625L10.6875 23.1562L8.18751 28H10.4375L12.4688 24.0938C12.5195 23.9961 12.5625 23.8828 12.5938 23.7812L13.2188 21.9375L11.5313 20.625Z" fill="black"/>
</g>
</svg>
