<svg width="32" height="32" viewBox="0 0 32 32" fill="none" xmlns="http://www.w3.org/2000/svg">
<g id="hippo-solid">
<path id="Vector" d="M16.1602 4.00381C15.9428 3.99194 15.7234 4.00322 15.5039 4.03897C14.0769 4.27097 13 5.59133 13 7.10733V8.99991H9.13672C5.35862 8.99991 2.26476 12.13 2.02344 16.0702L2 15.9999L1 20.9999L2.30664 19.6933C2.49614 20.9275 2.75381 22.2258 3.0293 23.2421L4.21875 27.9999H9V24.5526C9.739 24.8016 10.627 24.9999 11.5 24.9999C11.89 24.9999 12.918 24.9613 14 24.6073V27.9999H18.7812L19.9434 23.33C19.9764 23.235 20.7002 21.1239 20.9512 16.9999H26C28.206 16.9999 30 15.2059 30 12.9999V10.8222C30 8.57217 28.4183 7.00186 26.1543 7.00186C24.8633 7.00186 23.8814 7.34088 23.2344 7.66788C22.5294 6.92988 21.204 5.99991 19 5.99991H18.8281C18.6531 5.50591 18.3514 5.06275 17.9414 4.71475C17.4382 4.2865 16.8123 4.03944 16.1602 4.00381ZM15.8242 6.01358C16.1282 5.96458 16.4195 6.04423 16.6465 6.23623C16.8715 6.42723 17 6.70591 17 6.99991V7.99991H19C21.298 7.99991 22.0805 9.40017 22.1055 9.44717L22.6855 10.578L23.6562 9.75381C23.6922 9.72281 24.5613 9.00186 26.1543 9.00186C27.3103 9.00186 28 9.68117 28 10.8222V12.9999C28 14.1029 27.103 14.9999 26 14.9999H19.0391L19.002 15.9608C18.828 20.3818 18.0623 22.6507 18.0293 22.7577L17.2188 25.9999H16V20.9999L14.4004 22.1991C13.3854 22.9611 11.806 22.9999 11.5 22.9999C10.188 22.9999 8.82756 22.3601 8.60156 22.1991L7 20.998V25.9999H5.78125L4.96484 22.7401C4.45984 20.8721 4 17.9264 4 16.5624C4 13.4944 6.30472 10.9999 9.13672 10.9999H15V7.10733C15 6.56933 15.3612 6.08958 15.8242 6.01358ZM20 8.99991C19.7348 8.99991 19.4804 9.10526 19.2929 9.2928C19.1054 9.48034 19 9.73469 19 9.99991C19 10.2651 19.1054 10.5195 19.2929 10.707C19.4804 10.8945 19.7348 10.9999 20 10.9999C20.2652 10.9999 20.5196 10.8945 20.7071 10.707C20.8946 10.5195 21 10.2651 21 9.99991C21 9.73469 20.8946 9.48034 20.7071 9.2928C20.5196 9.10526 20.2652 8.99991 20 8.99991Z" fill="black"/>
</g>
</svg>
