<svg width="32" height="32" viewBox="0 0 32 32" fill="none" xmlns="http://www.w3.org/2000/svg">
<g id="hips">
<path id="Vector" d="M11.4785 7C10.6885 7 10.0391 7.67023 10.0391 8.49023C10.0391 9.29023 10.6685 9.98047 11.4785 9.98047C12.2885 9.98047 12.9297 9.30023 12.9297 8.49023C12.9297 7.65023 12.2785 7 11.4785 7ZM0.253906 7.25977C0.163906 7.25977 0.123047 7.30039 0.123047 7.40039V21.7891C0.123047 21.8891 0.163906 21.9395 0.253906 21.9395H2.30469C2.40469 21.9395 2.44336 21.8891 2.44336 21.7891V14.7793C2.44336 14.7293 2.30437 13.3809 4.73438 13.3809C7.16438 13.3809 7.02344 14.7293 7.02344 14.7793V21.0996C7.02344 21.5596 7.39375 21.9395 7.84375 21.9395H9.21484C9.30484 21.9395 9.34375 21.8891 9.34375 21.7891V14.7793C9.34275 13.5693 8.88336 12.6199 7.94336 11.9199C7.14336 11.3199 6.13359 11 4.93359 11C4.02359 10.99 3.20336 11.1901 2.44336 11.5801V7.40039C2.44336 7.30039 2.39469 7.25977 2.30469 7.25977H0.253906ZM18.8809 11C17.3189 11 13.7637 12.0124 13.7637 16.2344V25.5234C13.7637 25.5724 13.7936 25.6621 13.8926 25.6621H15.9043C15.9923 25.6621 16.043 25.6224 16.043 25.5234V21.0352C16.848 21.6732 17.7991 21.998 18.8691 21.998C21.8451 21.998 24.2129 19.543 24.2129 16.498C24.2139 13.445 21.8469 11 18.8809 11ZM28.6035 11C27.2985 11 26.3765 11.2854 25.7285 11.7754C25.7085 11.7954 24.3341 12.7852 24.6191 14.4922C24.7861 15.4832 25.3934 16.2202 26.4434 16.7012L29.0742 17.8887C29.6442 18.1447 29.8208 18.555 29.6738 18.957C29.4868 19.418 29.025 19.6445 27.877 19.6445C26.69 19.6445 25.6887 19.1936 25.0117 18.6836C24.9137 18.6156 24.7969 18.6928 24.7969 18.8008V20.5371C24.7969 21.0671 25.0407 21.4109 25.5117 21.5879C26.2777 21.8629 27.063 22 27.877 22C28.505 22 29.1431 21.9402 29.6641 21.7832C29.6931 21.7632 31.4294 21.3328 31.9004 19.4688C32.0664 18.7817 32.0172 18.1233 31.7422 17.4863C31.4092 16.6913 30.8402 16.1228 30.0352 15.7598L27.2109 14.4844C26.7889 14.2984 26.758 13.9149 27.082 13.6699C27.445 13.3849 29.2501 12.9637 31.2031 14.0137C31.2811 14.0627 31.3984 13.9925 31.3984 13.8945V11.6289C31.3984 11.5599 31.3698 11.52 31.3008 11.5C30.4378 11.167 29.5355 11 28.6035 11ZM10.459 11.2402C10.379 11.2402 10.3281 11.3206 10.3281 11.3906V21.7891C10.3281 21.8691 10.379 21.9395 10.459 21.9395H12.5098C12.5998 21.9395 12.6484 21.8891 12.6484 21.7891V11.3906C12.6484 11.2906 12.5998 11.2402 12.5098 11.2402H10.459ZM18.8809 13.3477C20.5699 13.3477 21.9336 14.752 21.9336 16.5C21.9356 18.238 20.5899 19.6523 18.8809 19.6523C18.0359 19.6523 17.3107 19.3375 16.7207 18.7285C16.1217 18.1095 15.8262 17.374 15.8262 16.5C15.8262 14.752 17.1819 13.3477 18.8809 13.3477Z" fill="black"/>
</g>
</svg>
