<svg width="32" height="32" viewBox="0 0 32 32" fill="none" xmlns="http://www.w3.org/2000/svg">
<g id="hire-a-helper">
<path id="Vector" d="M7.91016 5L7.81445 5.89258C7.70845 6.87958 6.88348 7.70264 5.89648 7.80664L5 7.89844V24.1895L5.86914 24.3047C6.89314 24.4387 7.65931 25.1672 7.82031 26.1602L7.95703 27H24.2695L24.3438 26.082C24.4207 25.153 25.1793 24.3716 26.1113 24.2676L27 24.168V7.94922L26.1602 7.81445C25.1712 7.65445 24.4067 6.86453 24.3027 5.89453L24.207 5H7.91016ZM9.60352 7H22.5137C22.9147 8.171 23.829 9.1145 25 9.5625V22.4883C23.854 22.9063 22.935 23.848 22.543 25H9.57031C9.12531 23.838 8.188 22.9364 7 22.5254V9.59961C8.218 9.18561 9.18652 8.217 9.60352 7ZM10.2754 10C10.0824 10 9.89728 10.3866 10.2383 10.4746C10.8713 10.6406 11.3438 10.8863 11.3438 11.7812V15.8594C11.3438 19.2204 11.3351 20.4898 11.0371 21.0098C10.7201 21.4248 10.5932 21.4275 10.1992 21.5645C9.97522 21.5645 9.89422 22 10.1992 22C11.6022 22 10.9251 21.9199 12.3281 21.9199C13.7111 21.9199 13.1391 22 14.4961 22C14.7281 22 14.6851 21.6695 14.4961 21.6055C13.6151 21.2995 13.6129 21.1908 13.5469 21.0898C13.1449 20.4618 13.3184 17.6856 13.3184 16.4766C13.3184 16.2626 13.5656 15.9609 13.8516 15.9609H18.1484C18.4344 15.9609 18.6816 16.2626 18.6816 16.4766C18.6816 17.6856 18.8551 20.4608 18.4531 21.0898C18.3871 21.1948 18.3849 21.2995 17.5039 21.6055C17.3149 21.6705 17.2759 22 17.5039 22C18.8599 22 18.2879 21.9199 19.6719 21.9199C21.0749 21.9199 20.3978 22 21.8008 22C22.1028 22 22.0248 21.5645 21.8008 21.5645C21.4028 21.4275 21.2799 21.4208 20.9629 21.0098C20.6619 20.4898 20.6562 19.2204 20.6562 15.8594V11.7812C20.6562 10.8903 21.1277 10.6396 21.7617 10.4746C22.1057 10.3866 21.9117 10 21.7227 10C20.3117 10 20.9266 10.0801 19.5156 10.0801C18.2526 10.0801 18.8792 10 17.6152 10C17.4882 10 17.2862 10.3345 17.5762 10.4355C17.7662 10.5005 18.6445 10.5845 18.6445 12.0195C18.6445 13.8565 18.6515 14.2065 18.6055 14.7305C18.6055 14.7835 18.5154 15.2461 18.1094 15.2461H13.8906C13.4846 15.2461 13.3945 14.7825 13.3945 14.7305C13.3475 14.2075 13.3555 13.8565 13.3555 12.0195C13.3555 10.5845 14.2348 10.4995 14.4238 10.4355C14.7138 10.3345 14.5128 10 14.3848 10C13.1218 10 13.7464 10.0801 12.4824 10.0801C11.0714 10.0801 11.6864 10 10.2754 10Z" fill="black"/>
</g>
</svg>
