<svg width="32" height="32" viewBox="0 0 32 32" fill="none" xmlns="http://www.w3.org/2000/svg">
<g id="hockey-puck-solid">
<path id="Vector" d="M16 7C9.043 7 2 8.718 2 12V20C2 23.282 9.043 25 16 25C22.957 25 30 23.282 30 20V12C30 8.718 22.957 7 16 7ZM16 9C23.444 9 28 10.942 28 12C28 12.9257 24.5113 14.5279 18.6523 14.9141C17.8154 14.9692 16.9305 15 16 15C8.556 15 4 13.058 4 12C4 10.942 8.556 9 16 9ZM4 14.707C4.05931 14.7417 4.13379 14.7708 4.19531 14.8047C4.41936 14.9283 4.65623 15.0469 4.9082 15.1602C5.00738 15.2046 5.10578 15.2482 5.20898 15.291C5.5546 15.435 5.91545 15.5732 6.30273 15.6992C7.11565 15.9637 8.02764 16.1789 8.98438 16.3633C9.27263 16.4179 9.57093 16.4625 9.86914 16.5098C10.7193 16.6473 11.5946 16.7566 12.502 16.834C13.6514 16.932 14.8207 17 16 17C17.1793 17 18.3486 16.932 19.498 16.834C20.4054 16.7566 21.2807 16.6473 22.1309 16.5098C22.4291 16.4625 22.7274 16.4179 23.0156 16.3633C23.9724 16.1789 24.8843 15.9637 25.6973 15.6992C26.0845 15.5732 26.4454 15.435 26.791 15.291C26.8942 15.2482 26.9926 15.2046 27.0918 15.1602C27.3438 15.0469 27.5806 14.9283 27.8047 14.8047C27.8662 14.7708 27.9407 14.7417 28 14.707V20C28 21.058 23.444 23 16 23C8.556 23 4 21.058 4 20V14.707Z" fill="black"/>
</g>
</svg>
