<svg width="32" height="32" viewBox="0 0 32 32" fill="none" xmlns="http://www.w3.org/2000/svg">
<g id="holly-berry-solid">
<path id="Vector" d="M16 3C13.794 3 12 4.794 12 7C12 7.74967 12.22 8.4427 12.5801 9.04297C10.5737 9.25626 9 10.9379 9 13C9 14.1846 9.52699 15.2397 10.3477 15.9727C10.2213 15.9802 10.0951 15.9978 9.96875 16.002C9.64575 16.012 9.3342 16.012 9.0332 16.002L8.07812 15.9688L8.00391 16.9219C7.95391 17.5539 7.76525 18.5059 7.15625 19.4629C6.72725 20.1379 6.14189 20.7222 5.46289 21.1562L4.72656 21.627L5.0918 22.4199C5.6358 23.5969 5.94195 24.8178 6.00195 26.0488C6.01795 26.3628 6.01695 26.6642 6.00195 26.9512L5.92773 28.4668L7.34961 27.9375C8.88361 27.3665 10.4592 27.052 12.0352 27C12.3562 26.989 12.6677 26.99 12.9688 27L13.9238 27.0312L13.998 26.0801C14.048 25.4481 14.2367 24.4941 14.8457 23.5371C15.2747 22.8621 15.8601 22.2778 16.5391 21.8438L17.3398 21.334L16.8711 20.5078C16.4041 19.6848 16.1082 18.8 15.9922 17.877C15.9384 17.4451 15.9382 17.0066 15.9648 16.5684C16.0259 16.6185 16.1119 16.6861 16.2305 16.75C16.2705 16.77 16.2998 16.7905 16.3398 16.8105C16.4998 16.8805 16.5694 16.9099 16.6094 16.9199L16.6504 16.9395C18.3904 17.5795 20.1807 17.94 21.9707 18H22.1309C22.1409 18.01 22.1406 18.0193 22.1406 18.0293C22.3306 18.9193 22.6802 19.7791 23.1602 20.5391C23.5902 21.2191 24.1395 21.8298 24.7695 22.3398C24.3595 23.4198 24.1095 24.5209 24.0195 25.6309C22.7095 25.2509 21.3693 25.04 20.0293 25H19.8691C19.6791 24.1 19.3298 23.2309 18.8398 22.4609C18.7938 22.3889 18.7306 22.3249 18.6816 22.2539L17.3438 23.1074C17.2458 23.1704 17.1336 23.2498 17.0176 23.3418C17.0636 23.4078 17.1152 23.4711 17.1582 23.5391C17.7682 24.4891 17.948 25.4481 17.998 26.0781L18.0781 27.0293L19.0293 27C19.3293 26.99 19.6507 26.99 19.9707 27C21.5407 27.05 23.1204 27.3695 24.6504 27.9395L26.0703 28.4707L26 26.9492C25.98 26.6592 25.98 26.3608 26 26.0508C26.06 24.8208 26.3602 23.5999 26.9102 22.4199L27.2695 21.6309L26.5391 21.1602C25.8591 20.7202 25.2698 20.1409 24.8398 19.4609C24.2298 18.5109 24.05 17.5499 24 16.9199L23.9199 15.9707L22.9707 16C22.7707 16.01 22.5596 16.0098 22.3496 16.0098C22.2396 15.9998 22.1393 16 22.0293 16C21.9038 15.9959 21.778 15.9801 21.6523 15.9727C22.473 15.2397 23 14.1846 23 13C23 10.9379 21.4263 9.25626 19.4199 9.04297C19.78 8.4427 20 7.74967 20 7C20 4.794 18.206 3 16 3ZM16 5C17.103 5 18 5.897 18 7C18 8.103 17.103 9 16 9C14.897 9 14 8.103 14 7C14 5.897 14.897 5 16 5ZM13 11C14.103 11 15 11.897 15 13C15 14.103 14.103 15 13 15C11.897 15 11 14.103 11 13C11 11.897 11.897 11 13 11ZM19 11C20.103 11 21 11.897 21 13C21 14.103 20.103 15 19 15C17.897 15 17 14.103 17 13C17 11.897 17.897 11 19 11ZM13.9434 17.3945C13.9544 17.6385 13.9759 17.882 14.0059 18.125C14.1179 19.013 14.3596 19.8734 14.7246 20.6914C14.1126 21.1964 13.5773 21.7979 13.1543 22.4629C12.6633 23.2339 12.3178 24.0971 12.1328 24.9961C12.0778 24.9971 12.0238 25 11.9668 25.002C10.6288 25.045 9.29252 25.2559 7.97852 25.6289C7.89252 24.5159 7.64147 23.4137 7.23047 22.3438C7.86047 21.8318 8.4098 21.2181 8.8418 20.5371C9.3328 19.7661 9.67828 18.9029 9.86328 18.0039C9.91828 18.0029 9.97425 18 10.0312 17.998C11.3422 17.956 12.6534 17.7535 13.9434 17.3945Z" fill="black"/>
</g>
</svg>
