<svg width="32" height="32" viewBox="0 0 32 32" fill="none" xmlns="http://www.w3.org/2000/svg">
<g id="hooli">
<path id="Vector" d="M1.73438 10.8573C0.909756 10.8823 0.373522 11.1596 0.166022 11.6171C0.166022 11.6171 -1.07913 13.2571 3.25587 17.1581V20.8437H6.1504V19.412C5.8254 19.202 5.50165 18.9773 5.18165 18.7323C4.44165 18.1723 3.81173 17.652 3.26173 17.162V15.6132C3.91673 16.3482 4.78665 17.1838 5.93165 18.1288L6.15626 18.3085V16.8183C6.15626 16.4733 6.24032 15.9081 6.69532 15.9081C7.15032 15.9081 7.22657 16.2531 7.22657 16.6581V19.0937C8.12657 19.7037 9.09134 20.1972 10.1113 20.5722V15.8769C10.1113 14.9419 9.44008 14.0077 8.08008 14.0077C7.29008 14.0027 6.55626 14.4165 6.15626 15.1015V12.3866C8.25126 13.4316 10.3524 14.7126 11.1524 15.3026C10.6424 16.0326 10.6875 16.7062 10.6875 17.4862C10.6875 18.4212 10.6174 19.2012 11.5274 20.1112C12.4374 21.0212 14.0469 20.9667 14.0469 20.9667C14.0469 20.9667 15.6614 21.0212 16.5664 20.1112C17.4764 19.2012 17.4023 18.4212 17.4023 17.4862C17.4033 16.5612 17.4784 15.776 16.5684 14.871C15.6584 13.961 14.0488 14.0175 14.0488 14.0175C14.0488 14.0175 12.4374 13.961 11.5274 14.871C11.4324 14.966 11.3437 15.0668 11.2637 15.1718C9.35368 13.6918 7.63726 12.8471 6.15626 12.1171V11.0819L5.03126 11.6112C3.67126 11.0587 2.55901 10.8323 1.73438 10.8573ZM28.3145 11.0761L25.4199 12.4413V20.8437H28.3145V11.0761ZM2.45704 11.3007C3.09161 11.2557 3.87618 11.4401 4.7168 11.7558L3.25587 12.4413V15.6073C0.820866 12.8823 1.3111 11.8053 1.4961 11.6503C1.74923 11.4365 2.0763 11.3277 2.45704 11.3007ZM30.5547 12.1464C29.7597 12.1464 29.1094 12.576 29.1094 13.371C29.1094 14.166 29.7547 14.8163 30.5547 14.8163C31.3497 14.8163 32 14.171 32 13.371C32 12.571 31.3547 12.1464 30.5547 12.1464ZM21.3496 14.0175C21.3496 14.0175 19.7331 13.961 18.8281 14.871C17.9181 15.781 17.9883 16.5669 17.9883 17.5019C17.9883 18.4369 17.9181 19.2169 18.8281 20.1269C19.7381 21.0369 21.3496 20.9823 21.3496 20.9823C21.3496 20.9823 22.9641 21.0369 23.8691 20.1269C24.7791 19.2169 24.709 18.4369 24.709 17.5019C24.704 16.5619 24.7741 15.776 23.8691 14.871C22.9591 13.961 21.3496 14.0175 21.3496 14.0175ZM29.1055 15.3163V20.8437H32V15.3163H29.1055ZM14.0488 15.9022C14.2188 15.9022 14.582 16.0072 14.582 16.4472V18.4687C14.582 18.6487 14.4938 19.0937 14.0488 19.0937C13.6038 19.0937 13.5137 18.6487 13.5137 18.4687V16.4472C13.5137 16.0122 13.8788 15.9022 14.0488 15.9022ZM21.3438 15.9022C21.5138 15.9022 21.8789 16.0072 21.8789 16.4472V18.4687C21.8789 18.6487 21.7888 19.0937 21.3438 19.0937C20.8988 19.0937 20.8086 18.6487 20.8086 18.4687V16.4472C20.8086 16.0122 21.1738 15.9022 21.3438 15.9022ZM7.22266 20.0429V20.8437L9.13673 20.8827C8.47673 20.6527 7.83766 20.3729 7.22266 20.0429ZM9.13673 20.8827C10.9617 21.5077 12.6321 21.5921 13.8731 21.2421C12.8771 21.2521 11.5824 21.113 10.1074 20.578V20.8437L9.13673 20.8827Z" fill="black"/>
</g>
</svg>
