<svg width="32" height="32" viewBox="0 0 32 32" fill="none" xmlns="http://www.w3.org/2000/svg">
<g id="hornbill">
<path id="Vector" d="M10.5195 3C9.13953 3 8.01953 4.12 8.01953 5.5C8.01953 6.73 8.91008 7.75094 10.0801 7.96094C8.80008 10.0809 8.01953 12.9 8.01953 16H9.01953C9.01953 12.97 10.9406 10.3899 13.6406 9.41992C14.1006 7.31992 14.7695 6 15.5195 6C16.0095 6 16.4598 6.55953 16.8398 7.51953C18.4598 7.53953 20.34 7.6893 22 8.0293C20.54 5.5593 18.3995 4 16.0195 4C14.9295 4 13.8992 4.32016 12.9492 4.91016C12.6892 3.81016 11.6995 3 10.5195 3ZM16 8V9C19.03 9 21.6101 10.9191 22.5801 13.6191C24.6801 14.0791 26 14.75 26 15.5C26 15.99 25.4405 16.4403 24.4805 16.8203C24.4605 18.4403 24.3107 20.3205 23.9707 21.9805C26.4407 20.5205 28 18.38 28 16C28 14.91 27.6798 13.8797 27.0898 12.9297C28.1898 12.6697 29 11.68 29 10.5C29 9.12 27.88 8 26.5 8C25.27 8 24.2491 8.89055 24.0391 10.0605C21.9191 8.78055 19.1 8 16 8ZM8.0293 10.0195C5.5593 11.4795 4 13.62 4 16C4 17.09 4.32016 18.1203 4.91016 19.0703C3.81016 19.3303 3 20.32 3 21.5C3 22.88 4.12 24 5.5 24C6.73 24 7.75094 23.1095 7.96094 21.9395C10.0809 23.2195 12.9 24 16 24V23C12.97 23 10.3899 21.0809 9.41992 18.3809C7.31992 17.9209 6 17.25 6 16.5C6 16.01 6.55953 15.5597 7.51953 15.1797C7.53953 13.5597 7.6893 11.6795 8.0293 10.0195ZM22.9805 16C22.9805 19.03 21.0594 21.6101 18.3594 22.5801C17.8994 24.6801 17.2305 26 16.4805 26C15.9905 26 15.5402 25.4405 15.1602 24.4805C13.5402 24.4605 11.66 24.3107 10 23.9707C11.46 26.4407 13.6005 28 15.9805 28C17.0705 28 18.1008 27.6798 19.0508 27.0898C19.3108 28.1898 20.3005 29 21.4805 29C22.8605 29 23.9805 27.88 23.9805 26.5C23.9805 25.27 23.0899 24.2491 21.9199 24.0391C23.1999 21.9191 23.9805 19.1 23.9805 16H22.9805Z" fill="black"/>
</g>
</svg>
