<svg width="32" height="32" viewBox="0 0 32 32" fill="none" xmlns="http://www.w3.org/2000/svg">
<g id="horse-solid">
<path id="Vector" d="M23.25 4C21.9883 4 20.9062 4.45703 20.125 5.125C19.3438 5.79297 18.8281 6.66016 18.4688 7.46875C17.9062 8.73438 17.8711 9.49219 17.8125 9.96875C17.3555 10.1602 16.1758 10.625 15 10.625C13.4688 10.625 12.3906 10 10.375 10C9.12891 10 8.00781 10.4609 7.21875 11.2812C7.14453 11.3594 7.07031 11.4453 7 11.5312C6.72656 11.457 6.34766 11.375 5.875 11.375C5.16797 11.375 4.53906 11.7266 4.0625 12.1875C3.58594 12.6484 3.23438 13.2227 2.9375 13.9062C2.34375 15.2734 2 17.043 2 19H4C4 17.2773 4.30469 15.7422 4.75 14.7188C4.97266 14.207 5.22656 13.832 5.4375 13.625C5.64844 13.418 5.78906 13.375 5.875 13.375C6.01172 13.375 6.0625 13.3945 6.15625 13.4062C6.07812 13.7695 6 14.1406 6 14.5312C6 16.918 7.44141 18.3633 7.96875 18.8438C7.96484 19.2227 7.92578 20.4023 7.1875 21.4062L7 21.6562V28H9V22.125C10.0469 20.3438 10 18.4062 10 18.4062L9.96875 18L9.65625 17.7188C9.65625 17.7188 8 16.1719 8 14.5312C8 13.6758 8.26562 13.0625 8.65625 12.6562C9.04688 12.25 9.58203 12 10.375 12C11.9141 12 12.9922 12.625 15 12.625C17.1133 12.625 19.0625 11.625 19.0625 11.625L19.5625 11.375L19.625 10.8125C19.625 10.8125 19.7266 9.53125 20.2812 8.28125C20.5586 7.65625 20.9648 7.05859 21.4375 6.65625C21.8555 6.29688 22.3359 6.04688 23 6V7C24.5078 7 25.0938 8.40625 25.0938 8.40625L25.1562 8.5625L25.2812 8.71875L27 10.4062L26.8125 10.625C26.3711 10.5078 25.8711 10.3828 25.6562 10.3125L25.3125 10.1875L24.9688 10.3125C24.9492 10.3203 24.375 10.457 23.9375 10.375C23.5 10.293 23.1758 10.1836 22.9375 9.53125L21.0625 10.2188C21.2148 10.6367 21.4297 10.9883 21.6875 11.2812C21.5977 11.7461 21.6055 12.1992 21.6562 12.625C21.7656 13.5742 22 14.4766 22 15.2188C22 16.5117 20.4062 17.8438 20.4062 17.8438L20 18.1562V28H22V19.0938C22.5625 18.6602 24 17.418 24 15.2188C24 14.1133 23.7383 13.1328 23.6562 12.4062C23.6523 12.3828 23.6602 12.3672 23.6562 12.3438C24.2852 12.4453 24.7148 12.3281 25.1562 12.2188C25.75 12.4023 26.875 12.7188 26.875 12.7188L27.4688 12.875L27.875 12.4062L28.5312 11.6875C29.207 10.9375 29.1836 9.77734 28.4688 9.0625L26.7188 7.28125L26.6875 7.3125C26.5312 7.00391 26.0273 6.08203 25 5.5V4H23.25ZM12 17V18C12 20.457 10.375 21.7188 10.375 21.7188L10 22V28H12V22.8438C12.418 22.4492 13.2539 21.4922 13.7188 19.625C14.4258 19.9414 15.5352 20.1602 17 20.25V28H19V18.3438H18C15.9688 18.3438 14.9062 18.0273 14.4062 17.7812C14.1562 17.6562 14.0391 17.543 14 17.5L13.7812 17H12Z" fill="black"/>
</g>
</svg>
