<svg width="32" height="32" viewBox="0 0 32 32" fill="none" xmlns="http://www.w3.org/2000/svg">
<g id="hot-tub-solid">
<path id="Vector" d="M11.2188 4.375C10.3906 5.39844 10.0078 6.27344 10 7.125C9.99219 7.97656 10.3711 8.63672 10.625 9.0625C10.8789 9.48828 10.9922 9.70312 11 9.9375C11.0078 10.1719 10.9297 10.582 10.3125 11.375L11.875 12.625C12.6562 11.6172 13.0273 10.7109 13 9.875C12.9727 9.03906 12.5898 8.44141 12.3438 8.03125C12.0977 7.62109 11.9961 7.40234 12 7.15625C12.0039 6.91016 12.1094 6.45312 12.7812 5.625L11.2188 4.375ZM16.2188 4.375C15.3906 5.39844 15.0078 6.27344 15 7.125C14.9922 7.97656 15.3711 8.63672 15.625 9.0625C15.8789 9.48828 15.9922 9.70312 16 9.9375C16.0078 10.1719 15.9297 10.582 15.3125 11.375L16.875 12.625C17.6562 11.6172 18.0273 10.7109 18 9.875C17.9727 9.03906 17.5898 8.44141 17.3438 8.03125C17.0977 7.62109 16.9961 7.40234 17 7.15625C17.0039 6.91016 17.1094 6.45312 17.7812 5.625L16.2188 4.375ZM21.2188 4.375C20.3906 5.39844 20.0078 6.27344 20 7.125C19.9922 7.97656 20.3711 8.63672 20.625 9.0625C20.8789 9.48828 20.9922 9.70312 21 9.9375C21.0078 10.1719 20.9297 10.582 20.3125 11.375L21.875 12.625C22.6562 11.6172 23.0273 10.7109 23 9.875C22.9727 9.03906 22.5898 8.44141 22.3438 8.03125C22.0977 7.62109 21.9961 7.40234 22 7.15625C22.0039 6.91016 22.1094 6.45312 22.7812 5.625L21.2188 4.375ZM3 14V16H4.1875L5.71875 23.5938V23.625C5.94922 24.6562 6.71484 25.5039 7.71875 25.8438L7 28H9L9.65625 26H22.3438L23 28H25L24.2812 25.8438C25.3281 25.5234 26.1406 24.6836 26.375 23.625V23.5938L27.8125 16H29V14H3ZM6.21875 16H25.8125L24.4062 23.2188C24.2891 23.6523 23.9219 24 23.4062 24H8.6875C8.15234 24 7.78906 23.6445 7.6875 23.1875L6.21875 16Z" fill="black"/>
</g>
</svg>
