<svg width="32" height="32" viewBox="0 0 32 32" fill="none" xmlns="http://www.w3.org/2000/svg">
<g id="hotdog-solid">
<path id="Vector" d="M24.2188 4C22.9844 4 22.2539 4.49609 21.7188 5.3125C21.2305 5.24219 20.7617 5.1875 20.375 5.1875C19.125 5.1875 18.0586 5.81641 17.3125 6.625C16.5898 7.40625 16.1211 8.35938 15.7188 9.3125C15.7148 9.31641 15.6914 9.30859 15.6875 9.3125C14.6484 11.2656 13.543 13.832 9.78125 15.5938C6.98047 16.9141 5.62109 18.8438 5.28125 20.75C4.48828 21.2461 4 21.9805 4 23.3125C4 25.3906 5.5 26.5938 7.375 27.125C8.4375 28.2656 9.85938 29 11.625 29C14.6953 29 18.3008 26.9805 22.625 22.5H22.6562C27.4336 17.7188 29 13.7539 29 10.9375C29 9.10547 28.4922 7.80078 27.5312 7.15625C27.8086 4.87891 25.7109 4 24.2188 4ZM20.375 7.1875C20.5039 7.1875 20.6758 7.20703 20.8438 7.21875C20.0352 9.49609 19.2148 12.6641 16.125 15.75C13.168 18.7734 10 19.3242 7.625 19.9062C8.08203 19.0352 8.96094 18.1914 10.625 17.4062C14.9492 15.3789 16.457 12.1172 17.4375 10.2812C17.4609 10.25 17.4805 10.2188 17.5 10.1875C17.8594 9.31641 18.293 8.49609 18.7812 7.96875C19.2695 7.44141 19.7461 7.1875 20.375 7.1875ZM24.9688 9C25.4727 8.97656 26.043 9.06641 26.7188 9.3125C26.8594 9.65234 27 10.1641 27 10.9375C27 13.0078 25.8008 16.543 21.25 21.0938C21.2383 21.1055 21.2305 21.1133 21.2188 21.125C18.2578 24.1953 15.7383 25.8516 13.75 26.5625C11.418 26.4141 8.83203 24.6172 17.875 18C21.5352 15.3242 21.4297 9.17578 24.9688 9Z" fill="black"/>
</g>
</svg>
