<svg width="32" height="32" viewBox="0 0 32 32" fill="none" xmlns="http://www.w3.org/2000/svg">
<g id="hotel-solid">
<path id="Vector" d="M10 4L8 6L10 8L12 6L10 4ZM12 6L14 8L16 6L14 4L12 6ZM16 6L18 8L20 6L18 4L16 6ZM20 6L22 8L24 6L22 4L20 6ZM22 8H5V28H27V8H22ZM7 10H25V26H19V21H13V26H7V10ZM9 12V14H11V12H9ZM13 12V14H15V12H13ZM17 12V14H19V12H17ZM21 12V14H23V12H21ZM9 15V17H11V15H9ZM13 15V17H15V15H13ZM17 15V17H19V15H17ZM21 15V17H23V15H21ZM9 18V20H11V18H9ZM13 18V20H15V18H13ZM17 18V20H19V18H17ZM21 18V20H23V18H21ZM9 21V23H11V21H9ZM21 21V23H23V21H21ZM15 23H17V26H15V23Z" fill="black"/>
</g>
</svg>
