<svg width="32" height="32" viewBox="0 0 32 32" fill="none" xmlns="http://www.w3.org/2000/svg">
<g id="hotjar">
<path id="Vector" d="M9 4L10.7266 5.9082C10.7416 5.9252 12.1813 7.58911 11.9473 9.53711C11.7983 10.7811 10.9869 11.9304 9.54492 12.9414C5.30592 15.8134 4.02034 19.6768 5.77734 23.4258C7.09934 26.2478 9.99728 28 13.1133 28H14.9277L13.791 26.3887C12.883 25.2147 12.9002 23.873 13.1172 22.873C14.6622 24.042 16.4667 23.8927 17.7207 23.0938C18.8717 22.3598 19.6859 21.0379 19.7129 19.4609C19.9709 19.8689 20.1839 20.3441 20.3359 20.8711C20.7779 22.4021 20.7241 24.7373 19.1211 26.2793L17.4512 28H19.0254C19.9164 28 20.8104 27.8335 21.6074 27.4375C24.0964 26.2025 25.7761 23.9465 26.6621 20.6855C27.3831 18.0305 26.9225 14.5239 25.3965 11.7949C21.8575 5.44392 11.999 4.29795 11.582 4.25195L9 4ZM13.4531 6.61523C16.3601 7.26923 21.5143 8.93353 23.6523 12.7695C24.9153 15.0265 25.3266 17.8675 24.7266 20.1875C24.2296 22.1285 23.4481 23.5786 22.3301 24.5996C22.7251 23.1016 22.6158 21.5584 22.2578 20.3164C21.6028 18.0484 20.0501 16.4035 18.2031 16.0215L16 15.5605L17.1426 17.5117C18.2036 19.2957 17.6285 20.7803 16.6465 21.4062C15.8635 21.9053 14.5838 21.9535 13.5508 20.4375L12.5977 19.0371L11.832 20.5488C11.567 21.0718 10.5404 23.3311 11.2324 25.7051C9.77242 25.2311 8.29725 24.1712 7.53125 22.4512C5.91025 18.8132 8.34269 16.1719 10.6797 14.5879C12.6277 13.2229 13.7245 11.5959 13.9375 9.75391C14.0755 8.56291 13.8121 7.47923 13.4531 6.61523Z" fill="black"/>
</g>
</svg>
