<svg width="32" height="32" viewBox="0 0 32 32" fill="none" xmlns="http://www.w3.org/2000/svg">
<g id="hryvnia-solid">
<path id="Vector" d="M14.2109 5C13.2209 5 12.2625 5.29084 11.4375 5.83984L9.44531 7.16797L10.5547 8.83203L12.5469 7.50391C13.0419 7.17391 13.6169 7 14.2109 7H18.5957C19.9217 7 21 8.0783 21 9.4043C21 10.1203 20.6848 10.7949 20.1348 11.2539L19.2402 12H8V14H16.8398L13.2383 17H8V19H10.8398L10.5859 19.2109C9.57894 20.0509 9 21.2847 9 22.5957C9 25.0247 10.9753 27 13.4043 27H17.7891C18.7791 27 19.7385 26.7092 20.5625 26.1602L22.5547 24.832L21.4453 23.168L19.4531 24.4961C18.9581 24.8261 18.3831 25 17.7891 25H13.4043C12.0783 25 11 23.9217 11 22.5957C11 21.8797 11.3152 21.2051 11.8652 20.7461L13.9609 19H24V17H16.3613L19.9609 14H24V12H22.1504C22.6961 11.2537 23 10.3501 23 9.4043C23 6.9753 21.0247 5 18.5957 5H14.2109Z" fill="black"/>
</g>
</svg>
