<svg width="32" height="32" viewBox="0 0 32 32" fill="none" xmlns="http://www.w3.org/2000/svg">
<g id="hubspot">
<path id="Vector" d="M7.5 4C6.83696 4 6.20107 4.26339 5.73223 4.73223C5.26339 5.20107 5 5.83696 5 6.5C5 7.16304 5.26339 7.79893 5.73223 8.26777C6.20107 8.73661 6.83696 9 7.5 9C7.97179 8.99873 8.43359 8.86398 8.83203 8.61133L16.3184 14.252C15.4948 15.2792 15 16.5808 15 18C15 19.5517 15.5941 20.9603 16.5605 22.0254L13.5156 25.0703C13.3475 25.0245 13.1742 25.0009 13 25C12.4696 25 11.9609 25.2107 11.5858 25.5858C11.2107 25.9609 11 26.4696 11 27C11 27.5304 11.2107 28.0391 11.5858 28.4142C11.9609 28.7893 12.4696 29 13 29C13.3064 28.9996 13.6086 28.9288 13.8832 28.7931C14.1579 28.6574 14.3977 28.4604 14.5842 28.2173C14.7707 27.9742 14.8988 27.6915 14.9587 27.3911C15.0186 27.0906 15.0087 26.7804 14.9297 26.4844L18.1387 23.2754C18.1392 23.2757 18.1401 23.2751 18.1406 23.2754C18.9908 23.7372 19.9644 24 21 24C24.314 24 27 21.314 27 18C27 15.0276 24.8367 12.5669 22 12.0898V8.73047C22.3805 8.50999 22.6777 8.17024 22.8457 7.76381C23.0136 7.35738 23.0429 6.90692 22.9291 6.48216C22.8152 6.05739 22.5645 5.68199 22.2158 5.41406C21.8671 5.14613 21.4398 5.0006 21 5C20.5602 5.0006 20.1329 5.14613 19.7842 5.41406C19.4355 5.68199 19.1848 6.05739 19.0709 6.48216C18.9571 6.90692 18.9864 7.35738 19.1543 7.76381C19.3223 8.17024 19.6195 8.50999 20 8.73047V12.0898C19.2215 12.2208 18.4956 12.5023 17.8496 12.9023L9.95703 6.95508C10.0238 6.59445 10.0104 6.22355 9.91777 5.86868C9.82516 5.51382 9.6556 5.18367 9.42112 4.90166C9.18664 4.61966 8.89299 4.39269 8.56098 4.23687C8.22898 4.08104 7.86675 4.00018 7.5 4ZM21 15C22.654 15 24 16.346 24 18C24 19.654 22.654 21 21 21C19.346 21 18 19.654 18 18C18 16.346 19.346 15 21 15Z" fill="black"/>
</g>
</svg>
