<svg width="32" height="32" viewBox="0 0 32 32" fill="none" xmlns="http://www.w3.org/2000/svg">
<g id="ice-cream-solid">
<path id="Vector" d="M16 4C13.8438 4 12.0078 5.38281 11.3125 7.3125C9.39062 8.00781 8 9.83984 8 12C8 12.0625 7.99609 12.125 8 12.1875C6.84375 12.6055 6 13.707 6 15C6 16.6445 7.35547 18 9 18H9.375L13.6875 26.5C13.6953 26.5156 13.7109 26.5156 13.7188 26.5312C14.1406 27.418 15.0156 28 16 28C16.9844 28 17.8594 27.418 18.2812 26.5312H18.3125C18.3164 26.5234 18.3086 26.5078 18.3125 26.5L22.625 18H23C24.6445 18 26 16.6445 26 15C26 13.6875 25.1211 12.5898 23.9375 12.1875C23.6562 10.4922 22.5078 9.07031 20.9688 8.40625C20.668 5.9375 18.5469 4 16 4ZM16 6C17.3203 6 18.4375 6.82812 18.8438 8C16.5078 8.07422 14.5508 9.77734 14.0938 12H10C10 10.3477 11.3477 9 13 9C13.2773 9 13.5547 9.05469 13.8125 9.125C14.2539 8.53906 14.7656 8.00391 15.375 7.59375C14.8633 7.31641 14.3047 7.14844 13.7188 7.0625C14.2617 6.41406 15.0781 6 16 6ZM19 10C20.3203 10 21.4375 10.8281 21.8438 12H16.1562C16.5625 10.8281 17.6797 10 19 10ZM9 14H23C23.5664 14 24 14.4336 24 15C24 15.5664 23.5664 16 23 16H12.625L13.6562 18H20.375L16.5312 25.625L16.5 25.6562V25.6875C16.4102 25.8867 16.2188 26 16 26C15.7812 26 15.5898 25.8867 15.5 25.6875V25.6562L15.4688 25.625L10.9062 16.5625L10.625 16H9C8.43359 16 8 15.5664 8 15C8 14.4336 8.43359 14 9 14Z" fill="black"/>
</g>
</svg>
