<svg width="32" height="32" viewBox="0 0 32 32" fill="none" xmlns="http://www.w3.org/2000/svg">
<g id="icicles-solid">
<path id="Vector" d="M6 5V7.375L6.8125 7.65625C7.54688 8.26953 8 9.15625 8 10.125V21C8 22.6445 9.35547 24 11 24C12.6445 24 14 22.6445 14 21V18.875C14 18.1445 14.6602 17.6797 15.3438 17.9375C15.7383 18.0859 16 18.4531 16 18.875V25C16 26.6445 17.3555 28 19 28C20.6445 28 22 26.6445 22 25V16.0312C22 14.7578 22.9805 13.7969 24.1875 13.75H24.2188L26 14.375V12L6 5ZM9.8125 8.71875L21.5 12.8125C20.5938 13.5938 20 14.7305 20 16.0312V25C20 25.5664 19.5664 26 19 26C18.4336 26 18 25.5664 18 25V18.875C18 17.6289 17.2305 16.5 16.0625 16.0625C14.1328 15.3398 12 16.8125 12 18.875V21C12 21.5664 11.5664 22 11 22C10.4336 22 10 21.5664 10 21V10.125C10 9.64453 9.9375 9.17188 9.8125 8.71875Z" fill="black"/>
</g>
</svg>
