<svg width="32" height="32" viewBox="0 0 32 32" fill="none" xmlns="http://www.w3.org/2000/svg">
<g id="id-card-alt-solid">
<path id="Vector" d="M15 5C13.9062 5 13 5.90625 13 7V8H4V26H28V8H19V7C19 5.90625 18.0938 5 17 5H15ZM15 7H17V9H15V7ZM6 10H13V11H19V10H26V24H6V10ZM16 12C13.8008 12 12 13.8008 12 16C12 17.1172 12.4688 18.1289 13.2148 18.8555C11.8789 19.7578 11 21.2812 11 23H13C13 21.332 14.332 20 16 20C17.668 20 19 21.332 19 23H21C21 21.2812 20.1211 19.7578 18.7852 18.8555C19.5312 18.1289 20 17.1172 20 16C20 13.8008 18.1992 12 16 12ZM16 14C17.1172 14 18 14.8828 18 16C18 17.1172 17.1172 18 16 18C14.8828 18 14 17.1172 14 16C14 14.8828 14.8828 14 16 14Z" fill="black"/>
</g>
</svg>
