<svg width="32" height="32" viewBox="0 0 32 32" fill="none" xmlns="http://www.w3.org/2000/svg">
<g id="id-card-solid">
<path id="Vector" d="M5 6C3.35547 6 2 7.35547 2 9V23C2 24.6445 3.35547 26 5 26H27C28.6445 26 30 24.6445 30 23V9C30 7.35547 28.6445 6 27 6H5ZM5 8H27C27.5664 8 28 8.43359 28 9V23C28 23.5664 27.5664 24 27 24H5C4.43359 24 4 23.5664 4 23V9C4 8.43359 4.43359 8 5 8ZM11 10C8.80078 10 7 11.8008 7 14C7 15.1133 7.47656 16.1172 8.21875 16.8438C6.88672 17.7461 6 19.2812 6 21H8C8 19.332 9.33203 18 11 18C12.668 18 14 19.332 14 21H16C16 19.2812 15.1133 17.7461 13.7812 16.8438C14.5234 16.1172 15 15.1133 15 14C15 11.8008 13.1992 10 11 10ZM18 11V13H26V11H18ZM11 12C12.1172 12 13 12.8828 13 14C13 15.1172 12.1172 16 11 16C9.88281 16 9 15.1172 9 14C9 12.8828 9.88281 12 11 12ZM18 15V17H26V15H18ZM18 19V21H23V19H18Z" fill="black"/>
</g>
</svg>
