<svg width="32" height="32" viewBox="0 0 32 32" fill="none" xmlns="http://www.w3.org/2000/svg">
<g id="igloo-solid">
<path id="Vector" d="M16 6C8.832 6 3 11.832 3 19V26H29V19C29 11.832 23.168 6 16 6ZM16 8C16.3375 8 16.6701 8.02087 17 8.05078V12H7.52344C9.54277 9.55917 12.5924 8 16 8ZM19 8.42773C21.1716 9.04501 23.0741 10.3048 24.4766 12H19V8.42773ZM6.21484 14H8V19H5C5 17.1987 5.44389 15.5023 6.21484 14ZM10 14H22V19H20.5781C19.8047 17.2366 18.0456 16 16 16C13.9544 16 12.1953 17.2366 11.4219 19H10V14ZM24 14H25.7852C26.5561 15.5023 27 17.1987 27 19H24V14ZM16 18C17.654 18 19 19.346 19 21V24H13V21C13 19.346 14.346 18 16 18ZM5 21H11V24H5V21ZM21 21H27V24H21V21Z" fill="black"/>
</g>
</svg>
