<svg width="32" height="32" viewBox="0 0 32 32" fill="none" xmlns="http://www.w3.org/2000/svg">
<g id="imdb">
<path id="Vector" d="M0 7V25H32V7H0ZM2 9H30V23H2V9ZM5 11.6875V20.3125H7V11.6875H5ZM8.09375 11.6875V20.3125H10V15.5L10.9062 20.3125H12.1875L13 15.5V20.3125H14.8125V11.6875H12L11.5 15.8125L10.8125 11.6875H8.09375ZM15.9062 11.6875V20.1875H18.3125C19.6133 20.1875 20.1016 19.9883 20.5 19.6875C20.8984 19.4883 21.0938 19 21.0938 18.5V13.3125C21.0938 12.7109 20.8984 12.1992 20.5 12C20 11.8008 19.8125 11.6875 18.3125 11.6875H15.9062ZM22.0938 11.8125V20.3125H23.9062C23.9062 20.3125 23.9922 19.7109 24.0938 19.8125C24.293 19.8125 25.1016 20.1875 25.5 20.1875C26 20.1875 26.1992 20.1953 26.5 20.0938C26.8984 19.8945 27 19.6133 27 19.3125V14.3125C27 13.6133 26.2891 13.0938 25.6875 13.0938C25.0859 13.0938 24.5117 13.4883 24.3125 13.6875V11.8125H22.0938ZM18 13C18.3984 13 18.8125 13.0078 18.8125 13.4062V18.4062C18.8125 18.8047 18.3008 18.8125 18 18.8125V13ZM24.5938 14C24.6953 14 24.8125 14.1055 24.8125 14.4062V18.6875C24.8125 18.8867 24.793 19.0938 24.5938 19.0938C24.4922 19.0938 24.4062 18.9883 24.4062 18.6875V14.4062C24.4062 14.207 24.3945 14 24.5938 14Z" fill="black"/>
</g>
</svg>
