<svg width="32" height="32" viewBox="0 0 32 32" fill="none" xmlns="http://www.w3.org/2000/svg">
<g id="industry-solid">
<path id="Vector" d="M20 5V10.4688L17 12.25V9.21875L15.5 10.1562L12 12.25V9.21875L10.5 10.1562L5.5 13.1562L5 13.4375V27H27V5H20ZM22 7H25V25H7V14.5312L10 12.75V15.7812L11.5 14.8438L15 12.75V15.7812L16.5 14.8438L21.5 11.8438L22 11.5625V7ZM9 17V19H11V17H9ZM13 17V19H15V17H13ZM17 17V19H19V17H17ZM21 17V19H23V17H21ZM9 21V23H11V21H9ZM13 21V23H15V21H13ZM17 21V23H19V21H17ZM21 21V23H23V21H21Z" fill="black"/>
</g>
</svg>
