<svg width="32" height="32" viewBox="0 0 32 32" fill="none" xmlns="http://www.w3.org/2000/svg">
<g id="infinity-solid">
<path id="Vector" d="M9 9C5.14453 9 2 12.1445 2 16C2 19.8594 5.14062 23 9 23C11.9297 23 13.7188 21.3906 15.0938 19.4062C14.6836 18.7461 14.3398 18.0938 14 17.4688C12.7734 19.4961 11.3984 21 9 21C6.24219 21 4 18.7578 4 16C4 13.2266 6.22656 11 9 11C10.6172 11 11.6445 11.5781 12.5938 12.5625C13.543 13.5469 14.3438 14.9688 15.1562 16.4688C15.9688 17.9688 16.793 19.5469 18 20.8125C19.207 22.0781 20.8711 23 23 23C26.8555 23 30 19.8555 30 16C30 12.1406 26.8594 9 23 9C20.0859 9 18.2852 10.5586 16.9062 12.5C17.3164 13.1484 17.6914 13.7852 18.0312 14.4062C19.25 12.4375 20.6094 11 23 11C25.7578 11 28 13.2422 28 16C28 18.7734 25.7734 21 23 21C21.4102 21 20.4102 20.4219 19.4688 19.4375C18.5273 18.4531 17.7227 17.0312 16.9062 15.5312C16.0898 14.0312 15.25 12.4531 14.0312 11.1875C12.8125 9.92188 11.1484 9 9 9Z" fill="black"/>
</g>
</svg>
