<svg width="32" height="32" viewBox="0 0 32 32" fill="none" xmlns="http://www.w3.org/2000/svg">
<g id="instagram">
<path id="Vector" d="M11.4688 5C7.91797 5 5 7.91406 5 11.4688V20.5312C5 24.082 7.91406 27 11.4688 27H20.5312C24.082 27 27 24.0859 27 20.5312V11.4688C27 7.91797 24.0859 5 20.5312 5H11.4688ZM11.4688 7H20.5312C23.0039 7 25 8.99609 25 11.4688V20.5312C25 23.0039 23.0039 25 20.5312 25H11.4688C8.99609 25 7 23.0039 7 20.5312V11.4688C7 8.99609 8.99609 7 11.4688 7ZM21.9062 9.1875C21.4023 9.1875 21 9.58984 21 10.0938C21 10.5977 21.4023 11 21.9062 11C22.4102 11 22.8125 10.5977 22.8125 10.0938C22.8125 9.58984 22.4102 9.1875 21.9062 9.1875ZM16 10C12.6992 10 10 12.6992 10 16C10 19.3008 12.6992 22 16 22C19.3008 22 22 19.3008 22 16C22 12.6992 19.3008 10 16 10ZM16 12C18.2227 12 20 13.7773 20 16C20 18.2227 18.2227 20 16 20C13.7773 20 12 18.2227 12 16C12 13.7773 13.7773 12 16 12Z" fill="black"/>
</g>
</svg>
