<svg width="32" height="32" viewBox="0 0 32 32" fill="none" xmlns="http://www.w3.org/2000/svg">
<g id="internet-explorer">
<path id="Vector" d="M27.6992 8.81252C30.1445 2.57033 25.3984 3.00783 25.3984 3.00783C22.3516 3.00783 18.543 5.7383 18.543 5.7383C18.543 5.7383 14 4.53127 9.45703 7.2344C4.50781 10.3399 4.67188 15.8555 4.67188 15.8555C8.69531 10.1836 14.3008 7.87893 14.3008 7.87893V8.25393C6.02735 13.8164 4.07031 21.9571 3.58203 23.6172C3.08984 25.2774 3.41797 29 6.89844 29C10.3828 29 13.918 26.2383 13.918 26.2383C13.918 26.2383 14.6797 26.4024 16.7461 26.4024C25.4531 26.4024 27.5195 18.8516 27.5195 18.8516H19.793C19.793 18.8516 19.25 21.3164 16.4766 21.3164C12.6641 21.3164 12.8828 17.4063 12.8828 17.4063H27.6289C28.3359 7.34377 19.4141 5.89846 19.4141 5.89846C19.4141 5.89846 22.5664 3.70315 25.2891 3.70315C29.6016 3.70315 27.5625 8.6758 27.5625 8.6758L27.6992 8.81252ZM13.4844 26.1289C13.4844 26.1289 8.17188 29.3008 5.78516 27.1016C4.51172 24.9024 6.58594 21.7891 6.58594 21.7891C6.58594 21.7891 8.34375 24.9961 13.4844 26.1289ZM19.875 13.9805H12.8633C12.8633 13.9805 12.7734 10.6172 16.457 10.6172C20.0156 10.6172 19.875 13.9805 19.875 13.9805Z" fill="black"/>
</g>
</svg>
