<svg width="32" height="32" viewBox="0 0 32 32" fill="none" xmlns="http://www.w3.org/2000/svg">
<g id="intercom">
<path id="Vector" d="M5 5V27H27V5H5ZM7 7H25V25H7V7ZM16.002 9C15.6837 9 15.3652 9.21131 15.3652 9.63281V18.8496C15.3652 19.6926 16.6387 19.6926 16.6387 18.8496V9.63281C16.6387 9.21131 16.3202 9 16.002 9ZM12.8223 9.31836C12.504 9.31836 12.1855 9.52967 12.1855 9.95117V18.4434C12.1855 19.2864 13.457 19.2864 13.457 18.4434V9.95117C13.457 9.52967 13.1405 9.31836 12.8223 9.31836ZM19.1777 9.31836C18.8595 9.31836 18.541 9.52967 18.541 9.95117V18.4434C18.541 19.2864 19.8145 19.2864 19.8145 18.4434V9.95117C19.8145 9.52967 19.496 9.31836 19.1777 9.31836ZM9.64062 10.5918C9.32237 10.5918 9.00586 10.8031 9.00586 11.2246V16.9414C9.00586 17.7844 10.2773 17.7844 10.2773 16.9414V11.2246C10.2773 10.8031 9.95888 10.5918 9.64062 10.5918ZM22.3574 10.5918C22.0392 10.5918 21.7207 10.8031 21.7207 11.2246V16.9414C21.7207 17.7844 22.9941 17.7844 22.9941 16.9414V11.2246C22.9941 10.8031 22.6757 10.5918 22.3574 10.5918ZM22.4316 19.7988C22.2748 19.7769 22.1041 19.8178 21.9453 19.9551C19.2553 22.2501 12.8616 22.3091 10.0566 19.9551C9.41764 19.4101 8.59147 20.3769 9.23047 20.9219C12.4825 23.7059 19.6725 23.6039 22.7715 20.9219C23.2477 20.5101 22.9021 19.8646 22.4316 19.7988Z" fill="black"/>
</g>
</svg>
