<svg width="32" height="32" viewBox="0 0 32 32" fill="none" xmlns="http://www.w3.org/2000/svg">
<g id="invision">
<path id="Vector" d="M5 5V27H27V5H5ZM7 7H25V25H7V7ZM12.9023 10C12.3338 10.0037 11.7681 10.3828 11.7656 11.1328C11.7656 11.7728 12.2869 12.2832 12.9219 12.2832C13.1009 12.2782 14.0717 12.1122 14.0547 11.1152C14.0422 10.3672 13.4708 9.99625 12.9023 10ZM19.6035 13.2031C18.7547 13.2741 17.8269 13.862 17.1797 15.0684L17.5586 13.3438H14.627L14.2148 14.8594H15.5898L14.7461 18.2441C14.0431 19.8081 12.3008 20.1234 12.3008 19.2324C12.3138 18.7514 12.2692 19.0417 13.7012 13.3438H10.4453L10.0332 14.8613H11.3887C10.4467 18.7003 10.4122 18.6879 10.4082 19.2969C10.4082 21.3719 13.0975 21.6875 14.4395 19.4805L14.0938 20.8652H16.0156L17.1152 16.4629C17.7422 13.9189 20.269 14.4566 19.668 16.4336C19.28 17.8236 17.9364 20.9766 20.7324 20.9766C21.7464 20.9766 22.553 20.3238 23 18.7598L22.2383 18.4746C21.6293 20.1576 20.8828 19.8544 20.8828 19.1934C20.8958 18.8484 20.9126 18.8655 21.5176 16.6875C22.2126 14.4025 21.0182 13.0848 19.6035 13.2031Z" fill="black"/>
</g>
</svg>
