<svg width="32" height="32" viewBox="0 0 32 32" fill="none" xmlns="http://www.w3.org/2000/svg">
<g id="ioxhost">
<path id="Vector" d="M16 4C9.38281 4 4 9.38281 4 16C4 17.0391 4.15625 18.0352 4.40625 19H2C1.44922 19 1 19.4492 1 20C1 20.5508 1.44922 21 2 21H5.09375C6.99609 25.1211 11.1719 28 16 28C22.6172 28 28 22.6172 28 16C28 14.9609 27.8438 13.9648 27.5938 13H30C30.5508 13 31 12.5508 31 12C31 11.4492 30.5508 11 30 11H26.9062C25.0039 6.87891 20.8281 4 16 4ZM16 6C19.7148 6 22.9297 8.00391 24.6562 11H11C10.4492 11 10 11.4492 10 12C10 12.5508 10.4492 13 11 13H25.5625C25.8594 13.9492 26 14.9531 26 16C26 21.5352 21.5352 26 16 26C12.2852 26 9.07031 23.9961 7.34375 21H21C21.5508 21 22 20.5508 22 20C22 19.4492 21.5508 19 21 19H6.4375C6.14062 18.0508 6 17.0469 6 16C6 10.4648 10.4648 6 16 6ZM11 15C10.4492 15 10 15.4492 10 16C10 16.5508 10.4492 17 11 17H21C21.5508 17 22 16.5508 22 16C22 15.4492 21.5508 15 21 15H11Z" fill="black"/>
</g>
</svg>
