<svg width="32" height="32" viewBox="0 0 32 32" fill="none" xmlns="http://www.w3.org/2000/svg">
<g id="italic-solid">
<path id="Vector" d="M11.75 5L11.6875 5.9375L11.5 8.9375L11.4375 10H13.4375L12.5625 22H10.5625L10.5 22.9375L10.3125 25.9375L10.2188 27H20.25L20.3125 26.0625L20.5 23.0625L20.5625 22H18.5625L19.4375 10H21.4375L21.5 9.0625L21.6875 6.0625L21.7812 5H11.75ZM13.625 7H19.625L19.5625 8H17.5625L17.5 8.9375L16.5 22.9375L16.4375 24H18.4375L18.375 25H12.375L12.4375 24H14.4375L14.5 23.0625L15.5 9.0625L15.5625 8H13.5625L13.625 7Z" fill="black"/>
</g>
</svg>
