<svg width="32" height="32" viewBox="0 0 32 32" fill="none" xmlns="http://www.w3.org/2000/svg">
<g id="itch-io">
<path id="Vector" d="M16 5C12.748 5 8.31211 5.05086 7.41211 5.13086C6.40211 5.73686 4.40281 8.03095 4.38281 8.62695V9.62695C4.38281 10.89 5.56572 12 6.63672 12C7.91972 12 8.99023 10.93 8.99023 9.66797C8.99023 10.93 10.0305 12 11.3125 12C12.6055 12 13.6055 10.931 13.6055 9.66797C13.6055 10.93 14.6953 12 15.9883 12H16.0098C17.3028 12 18.3926 10.931 18.3926 9.66797C18.3926 10.93 19.4025 12 20.6855 12C21.9685 12 23.0098 10.931 23.0098 9.66797C23.0098 10.93 24.0803 12 25.3633 12C26.4343 12 27.6152 10.89 27.6152 9.62695V8.62695C27.5952 8.03095 25.5959 5.73686 24.5859 5.13086C21.4439 5.01986 19.252 5 16 5ZM13.5508 11.7422C12.4978 13.5522 9.85231 13.5739 8.82031 11.7539C8.19031 12.8459 6.7643 13.2675 6.1543 13.0605C5.9763 14.9595 5.85348 24.7087 7.14648 26.3438C10.9435 27.2288 21.1645 27.2097 24.8535 26.3438C26.3485 24.8197 26.0137 14.8215 25.8457 13.0605C25.2357 13.2675 23.8095 12.8459 23.1895 11.7539C22.1465 13.5739 19.5012 13.5522 18.4492 11.7422C18.1242 12.3322 17.367 13.1094 16 13.1094C14.997 13.1484 14.0518 12.6072 13.5508 11.7422ZM11.4199 14C12.2199 14 12.9501 14.0005 13.8301 14.9805C15.2801 14.8305 16.7199 14.8305 18.1699 14.9805C19.0599 14.0105 19.7801 14.0098 20.5801 14.0098C23.1601 14.0098 23.7809 17.8196 24.7109 21.0996C25.5509 24.1496 24.4291 24.2305 23.0391 24.2305C20.9691 24.1505 19.8203 22.6506 19.8203 21.1406C17.8903 21.4606 14.8097 21.5806 12.1797 21.1406C12.1797 22.6506 11.0309 24.1505 8.96094 24.2305C7.57094 24.2305 6.44906 24.1496 7.28906 21.0996C8.21906 17.7996 8.83992 14.0098 11.4199 14.0098V14ZM16 16.877C16 16.877 14.306 18.4394 14 18.9844L15.1074 18.9434V19.9102C15.1074 19.9682 15.926 19.918 16 19.918C16.447 19.935 16.8926 19.9512 16.8926 19.9102V18.9434L18 18.9844C17.694 18.4384 16 16.877 16 16.877Z" fill="black"/>
</g>
</svg>
