<svg width="32" height="32" viewBox="0 0 32 32" fill="none" xmlns="http://www.w3.org/2000/svg">
<g id="itunes-note">
<path id="Vector" d="M23.0684 5.00597C22.8904 5.00597 21.6258 5.25538 11.2578 7.19738C11.1768 7.19738 10.7892 7.29867 10.5762 7.47667C10.3672 7.64467 10.2558 7.86892 10.2148 8.13292C10.0418 8.82392 10.5931 21.2813 10.0801 21.8653C9.85608 22.1143 9.46125 22.1863 9.15625 22.2423C7.33225 22.5623 6.11791 22.7298 5.25391 23.5528C3.76491 25.0058 4.53642 27.5412 6.73242 27.9532C7.55542 28.1052 9.10108 27.8989 9.95508 27.4259C10.7071 27.0389 11.2772 26.3431 11.4902 25.4181C11.6732 24.6251 11.6172 25.1733 11.6172 13.2443C11.6172 12.6593 11.7808 12.5066 12.2988 12.3946C12.2988 12.3946 21.3193 10.7078 21.7363 10.6368C22.3203 10.5348 22.5996 10.6928 22.5996 11.2618C22.5996 19.3488 22.702 19.1908 22.377 19.5568C22.153 19.8057 21.887 19.8758 21.582 19.9318C19.757 20.2517 18.655 20.308 17.791 21.131C16.698 22.198 16.7127 23.8902 17.9277 24.9122C18.8327 25.6022 19.8488 25.7721 21.0938 25.5431C22.5118 25.2781 23.5695 24.4947 23.8945 23.1017C24.0415 22.4667 23.9943 23.4065 23.9883 5.9005C23.9883 5.3105 23.6524 4.96497 23.0684 5.00597Z" fill="black"/>
</g>
</svg>
