<svg width="32" height="32" viewBox="0 0 32 32" fill="none" xmlns="http://www.w3.org/2000/svg">
<g id="itunes">
<path id="Vector" d="M10.0488 5C7.25483 5 5 7.25483 5 10.0488V21.9512C5 24.7452 7.25483 27 10.0488 27H21.9512C24.7502 27 27 24.7452 27 21.9512V10.0488C27 7.25483 24.7452 5 21.9512 5H10.0488ZM15.9805 7C20.9505 7 24.9805 11.03 24.9805 16C24.9805 20.97 20.9505 25 15.9805 25C11.0105 25 6.98047 20.97 6.98047 16C6.98047 11.03 11.0105 7 15.9805 7ZM15.9805 8.02539C11.5685 8.02539 8 11.6028 8 16.0098C8 20.4168 11.5685 24 15.9805 24C20.3925 24 23.9648 20.4236 23.9648 16.0156C23.9648 11.6036 20.3885 8.02539 15.9805 8.02539ZM19.3164 11C19.5784 10.982 19.7305 11.1384 19.7305 11.4004C19.7265 19.2364 19.7486 18.5226 19.6836 18.8066C19.5366 19.4316 19.0637 19.7814 18.4297 19.9004C17.8737 20.0014 17.4098 20.0289 16.9648 19.6699C16.4228 19.2109 16.4134 18.4575 16.9004 17.9805C17.2864 17.6135 17.8335 17.5396 18.6465 17.3926C18.7845 17.3696 18.903 17.3377 19 17.2227C19.147 17.0577 19.1016 17.4217 19.1016 13.8027C19.1016 13.5457 18.9768 13.4755 18.7148 13.5215C18.5308 13.5535 14.4941 14.3066 14.4941 14.3066C14.2641 14.3576 14.1855 14.4255 14.1855 14.6875C14.1855 20.0195 14.2089 19.4868 14.1309 19.8398C14.0349 20.2528 13.7823 20.5643 13.4473 20.7383C13.0663 20.9493 12.3729 21.0425 12.0059 20.9785C11.0229 20.7945 10.6778 19.6598 11.3438 19.0078C11.7298 18.6408 12.2768 18.5669 13.0898 18.4199C13.2278 18.3969 13.3464 18.365 13.4434 18.25C13.6734 17.988 13.4845 12.7074 13.5625 12.4004C13.5805 12.2814 13.6307 12.1814 13.7227 12.1074C13.8187 12.0294 13.9893 11.9824 14.0312 11.9824C18.6702 11.1094 19.2344 11 19.3164 11Z" fill="black"/>
</g>
</svg>
