<svg width="32" height="32" viewBox="0 0 32 32" fill="none" xmlns="http://www.w3.org/2000/svg">
<g id="jedi-solid">
<path id="Vector" d="M15.498 4C15.299 4 15.1389 4.15457 15.1309 4.35157L14.6016 18.0566L13.2031 17.1074C13.0591 17.0104 12.8701 17.0226 12.7441 17.1426C12.6191 17.2616 12.5926 17.4496 12.6816 17.5996L13.6055 19.1504L11.6719 19.5508C11.5019 19.5848 11.3789 19.7362 11.3789 19.9102C11.3789 20.0842 11.5019 20.2365 11.6719 20.2715L13.6055 20.6719L12.6797 22.2246C12.5917 22.3726 12.6181 22.5616 12.7441 22.6816C12.8631 22.7946 13.0661 22.8068 13.2031 22.7148L14.4512 21.8652L14.3379 24.8652C11.7209 24.3302 9.74609 22.0207 9.74609 19.2617C9.74609 17.6497 10.4187 16.1547 11.6387 15.0527C11.8097 14.8987 11.9016 14.6801 11.8906 14.4551C11.8796 14.2301 11.766 14.0237 11.582 13.8867C9.89703 12.6387 8.93164 10.7322 8.93164 8.65821C8.93164 7.85121 9.08281 7.05874 9.38281 6.30274C9.47681 6.06974 9.45054 5.81638 9.31054 5.60938C9.16854 5.40138 8.93645 5.27735 8.68945 5.27735C8.53745 5.27735 8.39067 5.32407 8.26367 5.41407C5.69567 7.23007 3.96078 9.89029 3.30078 12.8633L5.20312 14.7656H3.0332C3.0042 15.2216 2.98776 15.6796 3.00976 16.1426C3.03776 16.7596 3.12614 17.3611 3.24414 17.9531L5.9375 20.6465H4.10351C5.99951 24.7935 10.1302 27.7663 14.9082 27.9863C15.1062 27.9953 15.302 28 15.498 28C20.569 28 24.9355 24.9745 26.8945 20.6465H25.0586L27.7637 17.9414C27.9147 17.1694 28 16.3746 28 15.5586C28 15.2916 27.9682 15.0287 27.9512 14.7637H25.7949L27.6895 12.8691C27.0235 9.89215 25.2805 7.21411 22.7305 5.41211C22.6035 5.32211 22.4576 5.2754 22.3066 5.2754C22.0596 5.2754 21.8275 5.39943 21.6855 5.60743C21.5455 5.81343 21.5183 6.06679 21.6113 6.30079C21.9123 7.05679 22.0645 7.85021 22.0645 8.65821C22.0645 10.7322 21.0991 12.6377 19.4141 13.8867C19.2291 14.0237 19.1165 14.2301 19.1055 14.4551C19.0945 14.6811 19.1864 14.8997 19.3574 15.0547C20.8704 16.4217 21.5339 18.4336 21.1309 20.4356C20.6829 22.6576 18.8862 24.4371 16.6582 24.8691L16.5449 21.8672L17.793 22.7168C17.93 22.8118 18.1339 22.7947 18.2539 22.6797C18.3789 22.5607 18.4025 22.3707 18.3145 22.2227L17.3906 20.6738L19.3242 20.2715C19.4942 20.2375 19.6172 20.0861 19.6172 19.9121C19.6172 19.7391 19.4932 19.5887 19.3242 19.5527L17.3906 19.1504L18.3164 17.5996C18.4044 17.4516 18.3789 17.2635 18.2539 17.1445C18.1299 17.0275 17.933 17.0114 17.793 17.1074L16.3965 18.0566L15.8652 4.35352C15.8582 4.15552 15.696 3.999 15.498 4Z" fill="black"/>
</g>
</svg>
