<svg width="32" height="32" viewBox="0 0 32 32" fill="none" xmlns="http://www.w3.org/2000/svg">
<g id="jedi-order">
<path id="Vector" d="M15.4863 3C15.4863 3 15.1739 14.9495 15.0449 19.8535L13.293 17.293L14.4199 20.3887L10.9277 20.8965L14.4199 21.4043L13.0703 24.0488L14.9941 22.0293C14.8941 25.8673 14.8711 26.8105 14.8711 26.8105C14.8711 26.8105 6.25792 22.8107 11.0449 13.9727C11.0449 13.9727 5.07542 7.38203 10.4824 3.33203C10.4824 3.33203 1.24942 8.90747 7.10742 18.4805C7.10742 18.4805 2.26388 13.7498 4.79688 8.96875C4.79688 8.96875 0.406813 15.1607 5.75781 21.9727C5.75781 21.9727 4.29595 21.0757 3.00195 17.6387C3.00195 17.6387 3.94372 27.865 15.3867 27.998H15.6152C27.0512 27.866 28 17.6406 28 17.6406C26.683 21.0716 25.2168 21.9746 25.2168 21.9746C30.5668 15.1626 26.1758 8.9707 26.1758 8.9707C28.7088 13.7577 23.8652 18.4824 23.8652 18.4824C29.7232 8.91442 20.4902 3.33594 20.4902 3.33594C25.8962 7.39194 19.9277 13.9746 19.9277 13.9746C24.7147 22.8116 16.1016 26.8125 16.1016 26.8125C16.1016 26.8125 16.0795 25.8692 15.9785 22.0312C16.2185 22.2822 17.9023 24.0508 17.9023 24.0508L16.5527 21.4062L20.0469 20.8984L16.5527 20.3906L17.6797 17.2949L15.9277 19.8555C15.8037 14.9615 15.4923 3.1 15.4863 3Z" fill="black"/>
</g>
</svg>
