<svg width="32" height="32" viewBox="0 0 32 32" fill="none" xmlns="http://www.w3.org/2000/svg">
<g id="jenkins">
<path id="Vector" d="M17.4258 1.89464C13.2852 1.98448 10.918 3.84776 10.7852 3.95323C10.6797 3.98839 7.94531 4.92589 7.39062 7.3712C7.30469 7.40636 7.28125 7.40245 7.15625 7.47667C6.90625 7.64073 6.59375 7.91026 6.33984 8.34386C5.85547 9.16808 5.65234 10.5821 6.17969 12.7814C5.44531 13.3478 5.04687 14.2345 5.03906 15.172C5.03125 16.2618 5.40234 17.4025 6.14844 18.1993C6.81641 18.9142 7.46484 19.2228 7.96484 19.3282C8.16016 19.3712 8.16797 19.3321 8.3125 19.3282C8.40234 19.797 8.74219 21.1525 9.47266 22.5587C9.05078 22.797 7.84375 23.4728 6.42187 24.297C5.62109 24.7618 4.83203 25.2267 4.23437 25.5939C3.9375 25.7814 3.69141 25.9415 3.50391 26.0704C3.41016 26.1368 3.33594 26.1915 3.26562 26.2501C3.23047 26.2775 3.19922 26.3048 3.16016 26.3478C3.12109 26.3946 3.04297 26.422 3.01562 26.6603L2.97656 27.0431L4.16406 30.0001H27.8672L27.9766 29.6485C27.9766 29.6485 28.25 28.7814 28.5117 27.8009C28.6445 27.3126 28.7734 26.797 28.8711 26.34C28.9648 25.879 29.0352 25.5079 29.0156 25.1681C29 24.9728 28.9375 24.9025 28.8906 24.8282C28.8398 24.754 28.7891 24.6915 28.7305 24.6251C28.6133 24.4923 28.4688 24.3556 28.2969 24.1993C27.957 23.8907 27.5234 23.5314 27.0898 23.1837C26.3906 22.6251 25.9453 22.297 25.6992 22.1095C25.9102 21.8478 26.3633 21.3751 26.9414 19.9103C27.6484 18.129 28.2773 15.422 28.0156 11.715C27.7656 8.20714 26.5547 5.76573 24.7695 4.20323C23.3242 2.94542 21.5352 2.28136 19.6367 2.02355V2.01573C19.6211 2.01573 19.6094 2.01964 19.5938 2.01573C19.1602 1.96105 18.7227 1.91808 18.2773 1.89855C17.9844 1.89073 17.7031 1.88683 17.4258 1.89464ZM18.5156 3.01573C18.8359 2.9962 19.168 3.00011 19.5117 3.01573C21.2539 3.25401 22.8516 3.85558 24.1133 4.96105C24.8047 5.56651 25.4023 6.33214 25.8789 7.27745C25.5078 7.13292 25.1367 7.07823 24.8086 7.09386C23.9609 7.14073 23.3398 7.54308 23.3398 7.54308L23.875 8.39073C23.875 8.39073 24.3086 8.1212 24.8594 8.09386C25.3984 8.06651 26.0117 8.20714 26.6016 9.21886C26.8008 9.98058 26.9453 10.8165 27.0156 11.7579C26.9844 11.7032 26.9609 11.6564 26.9219 11.5939C26.8086 11.3829 26.6602 11.1212 26.5156 10.8673C26.2188 10.3595 25.9297 9.8712 25.9297 9.8712L25.0703 10.379C25.0703 10.379 25.3555 10.8634 25.6445 11.3673C25.793 11.6173 25.9375 11.8751 26.0469 12.0743C26.082 12.1329 26.1016 12.172 26.125 12.2189C26.082 12.2423 26.0625 12.2579 25.9688 12.2775C25.6641 12.3439 25.1562 12.336 24.668 12.1915L24.3906 13.1564C25.0312 13.34 25.6602 13.3673 26.1758 13.254C26.4375 13.1993 26.6719 13.1173 26.8789 12.9415C26.9453 12.8868 27.0039 12.8048 27.0586 12.7189C27.1523 15.7931 26.6055 18.0431 26.0156 19.5431C25.3633 21.1915 24.6875 21.9103 24.6875 21.9103L24.3125 22.3204V22.3243C23.7656 22.8595 22.5234 23.8048 20.4219 23.9571C17.5 24.172 15.5 22.3439 14.5352 21.3165C13.6133 20.34 13.4844 19.5939 13.4844 19.5939L12.5 19.7853C12.5 19.7853 12.7305 20.8595 13.8086 22.004C14.2383 22.461 14.8984 23.09 15.7539 23.6564C15.6914 23.6603 15.625 23.6525 15.5586 23.6642C15.168 23.7306 14.7812 23.9103 14.5117 24.2423C13.0938 24.1603 12.0977 23.7501 11.4648 23.34C10.7852 22.8946 10.5273 22.5118 10.5195 22.5001C9.85156 21.4142 9.45703 19.8907 9.29687 19.172C9.56641 19.0353 9.90234 18.7892 10.25 18.3634L9.47266 17.7306C9.19922 18.0626 8.97266 18.215 8.82812 18.2892C8.82031 18.2931 8.82812 18.2892 8.82031 18.2931L8.57031 18.3712C8.57031 18.3712 8.47266 18.4142 8.17578 18.3517C7.87891 18.2892 7.42578 18.1017 6.87891 17.5157C6.35156 16.9532 6.03125 16.0235 6.03906 15.1837C6.04687 14.34 6.35156 13.6603 6.92187 13.3712L6.9375 13.3595C7.61328 12.9845 8.0625 12.9337 8.36719 12.9962C8.67188 13.0587 8.88281 13.2345 9.0625 13.4884C9.42578 14.0001 9.53125 14.7696 9.53125 14.7696L9.60156 15.3907L11.6289 14.6915L11.5781 14.2892C11.5781 14.2892 11.4844 13.5978 11.1875 12.7501C11.0039 12.2384 11.0859 11.5743 11.2812 10.8868C11.4727 10.1993 11.7578 9.51964 11.875 8.89855C12 8.2423 11.8398 7.77355 11.6602 7.45323C12.0195 6.72667 13.9336 3.27745 18.5156 3.01573ZM14.1406 3.41026C12.4492 4.48839 11.4375 5.88292 10.9492 6.68761L10.8125 6.70323C9.88672 6.78917 9.08594 6.93761 8.48437 7.06651C9.17969 5.58605 11.1562 4.87511 11.1562 4.87511L11.2461 4.84386L11.3164 4.78526C11.3164 4.78526 12.3008 3.97276 14.1406 3.41026ZM16.4531 7.32042C15.4062 7.37511 14.6914 7.89464 14.3086 8.47667C13.793 9.25401 13.7656 10.0978 13.7656 10.0978L14.7617 10.1525C14.7617 10.1525 14.8047 9.53526 15.1406 9.02745C15.4766 8.51964 15.9922 8.07823 17.3789 8.40245L17.6094 7.4298C17.1875 7.33214 16.8008 7.30089 16.4531 7.32042ZM10.6484 7.7423C10.8516 7.96886 11.0117 8.08605 10.8945 8.71105C10.8125 9.14855 10.5273 9.85167 10.3125 10.6212C10.1016 11.3868 9.94922 12.2501 10.2422 13.0821C10.4297 13.6134 10.4453 13.8126 10.4844 14.0314L10.3125 14.09C10.25 13.7462 10.2617 13.4454 9.88281 12.9103C9.59766 12.5118 9.16406 12.1368 8.5625 12.0157C8.11719 11.9259 7.60937 11.9845 7.03906 12.2071C6.64453 10.3634 6.89844 9.3673 7.20312 8.85167C7.36719 8.56651 7.55469 8.41026 7.69141 8.32433C7.82812 8.23839 7.88281 8.22667 7.88281 8.22667H7.89062C7.89062 8.22667 9.25781 7.90636 10.6484 7.7423ZM18.6484 10.0275L17.7266 10.4142C17.7266 10.4142 18.4062 12.0235 18.8555 12.8165C18.8242 12.836 18.8203 12.8478 18.7148 12.8712C18.3789 12.9454 17.7383 12.9103 17.0117 12.5939L16.6094 13.5118C17.5 13.8985 18.3086 13.9845 18.9258 13.8478C19.2344 13.7814 19.5156 13.6681 19.7188 13.4103C19.9258 13.1525 19.9453 12.715 19.7695 12.4259C19.457 11.9064 18.6484 10.0275 18.6484 10.0275ZM22.5195 10.6251L21.5195 10.6368C21.5195 10.6368 21.5469 13.0157 23.4531 14.7423H23.4492C24.25 15.4689 24.5859 15.9415 24.6406 16.1095C24.668 16.1954 24.6602 16.1876 24.6445 16.2189C24.6328 16.2501 24.5742 16.3282 24.457 16.4376C24.3086 16.5704 23.7227 16.8634 23.0898 17.0548C22.457 17.2462 21.7461 17.3712 21.2969 17.3595C21.1289 17.3517 21.1055 17.3204 21.0781 17.2931C21.0469 17.2618 21.0156 17.1954 21 17.09C20.9688 16.8829 21.0273 16.6173 21.0273 16.6173L20.0547 16.3712C20.0547 16.3712 19.9414 16.7735 20.0117 17.2384C20.0469 17.4728 20.1328 17.7423 20.3438 17.9728C20.5586 18.2032 20.8984 18.3478 21.2695 18.3595C21.9102 18.3751 22.6719 18.2267 23.3789 18.0118C24.0859 17.797 24.7109 17.5548 25.125 17.1798C25.2891 17.0314 25.4531 16.8634 25.5586 16.6251C25.6641 16.3868 25.6797 16.0782 25.5938 15.8009C25.4141 15.254 24.9609 14.7657 24.1211 14.0001C22.5508 12.5782 22.5195 10.6251 22.5195 10.6251ZM7.6875 13.9142C7.36719 13.9337 7.03125 14.0782 6.72656 14.3282L7.28906 15.004C7.15234 15.4142 7.01562 16.0157 7.12891 16.6368L8.11328 16.4571C8.05859 16.1603 8.14062 15.7579 8.23047 15.422C8.35547 15.6759 8.45312 15.9259 8.45312 15.9259L9.41797 15.672C9.41797 15.672 9.27344 15.0626 8.88281 14.547C8.68359 14.2892 8.40625 14.0235 8 13.9376C7.89844 13.9142 7.79297 13.9064 7.6875 13.9142ZM25.2852 17.7657C24.5234 18.629 23.1289 18.7462 23.1289 18.7462L23.1875 19.7462C23.1875 19.7462 24.9297 19.6876 26.0352 18.422L25.2852 17.7657ZM18.5742 18.1212L17.9414 18.8946C20.0625 20.6173 22.625 19.879 22.625 19.879L22.3477 18.922C22.3477 18.922 20.2812 19.504 18.5742 18.1212ZM18.2969 19.7228L17.332 19.9962C17.5273 20.6915 18.0117 21.1876 18.5625 21.4962C19.1094 21.8048 19.7305 21.9493 20.3164 22.0275C21.4883 22.1798 22.5508 22.0353 22.5508 22.0353L22.4219 21.0431C22.4219 21.0431 21.457 21.1681 20.4492 21.0353C19.9414 20.9728 19.4336 20.84 19.0469 20.6251C18.6641 20.4064 18.4102 20.1407 18.2969 19.7228ZM25.1133 22.922C25.3633 23.1134 25.7891 23.4259 26.4648 23.965C26.8906 24.3048 27.3164 24.6564 27.625 24.9376C27.7812 25.0821 27.9102 25.2071 27.9844 25.2931C27.9961 25.3048 27.9961 25.3048 28.0039 25.3126C28 25.4415 27.9727 25.7423 27.8906 26.1329C27.8008 26.5626 27.6719 27.0665 27.5469 27.5431C27.3359 28.3126 27.1992 28.7579 27.125 29.0001H25.9492L25.9141 28.715C25.8711 28.3321 25.6641 28.0978 25.4531 27.9376C25.4922 27.8634 25.543 27.7931 25.5664 27.7189C25.6719 27.4103 25.7031 27.086 25.7031 26.7696C25.7109 26.1329 25.5977 25.4923 25.5547 25.1407C25.4883 24.5665 25.2695 24.0743 24.9023 23.7384C24.7734 23.6251 24.6289 23.5392 24.4727 23.4689C24.7383 23.2696 24.957 23.0782 25.1133 22.922ZM9.88281 23.4728C10.0352 23.8243 10.3008 24.3595 10.9844 25.2462C11.9453 26.4962 13.5312 26.9337 14.2773 27.0743C14.3203 27.5392 14.375 27.9845 14.4961 28.3868C14.5586 28.6017 14.6484 28.8087 14.7695 29.0001H4.83594L4.00781 26.9376C4.03516 26.9181 4.04297 26.9103 4.07422 26.8907C4.23047 26.7814 4.47266 26.6251 4.76562 26.4493C5.34375 26.09 6.125 25.6251 6.92187 25.1642C8.29687 24.3673 9.38672 23.754 9.88281 23.4728ZM23.6953 24.3478C23.9336 24.3009 24.0859 24.3517 24.2305 24.4845C24.375 24.6134 24.5156 24.8634 24.5625 25.2579C24.6094 25.6642 24.707 26.254 24.7031 26.7657C24.7031 27.0196 24.6719 27.2501 24.625 27.3946C24.5742 27.5431 24.5234 27.59 24.4688 27.6173C24.0703 27.8204 23.3398 27.7775 22.7188 27.6251C22.4336 27.5548 22.1875 27.4689 21.9922 27.3985C22.0508 27.2423 22.0898 27.0743 22.0898 26.8985C22.0898 26.4532 21.8828 26.0587 21.5664 25.7853C21.9023 25.5196 22.2695 25.2267 22.6523 24.9571C22.8945 24.7892 23.125 24.6329 23.3164 24.5235C23.5117 24.4142 23.6797 24.3517 23.6953 24.3478ZM11.7227 24.547C12.375 24.8556 13.1562 25.1212 14.1523 25.2228C14.1406 25.3868 14.1406 25.5587 14.1602 25.7423C14.1719 25.8282 14.1758 25.9103 14.1836 26.0001C13.4922 25.8165 12.3867 25.4337 11.7734 24.6368C11.7305 24.5821 11.7617 24.6017 11.7227 24.547ZM16.125 24.6407C16.5703 24.672 17.1289 24.8282 17.5781 25.0509L19.4336 26.0196C19.2461 26.2657 19.1289 26.5704 19.1289 26.8985C19.1289 27.1642 19.207 27.4103 19.332 27.629C18.6758 28.004 17.4062 28.6564 16.3594 28.7345C16.0156 28.7579 15.8516 28.6954 15.7383 28.6095C15.6289 28.5235 15.5312 28.3712 15.4531 28.1017C15.293 27.5626 15.2734 26.6446 15.1562 25.6251C15.1055 25.2189 15.1797 25.0079 15.2656 24.8868C15.3555 24.7657 15.4883 24.6876 15.7188 24.6525C15.8359 24.6329 15.9727 24.629 16.125 24.6407ZM21.1367 24.8595C20.9805 24.9806 20.7852 25.1212 20.6602 25.2189C20.707 25.1837 20.5312 25.2579 20.3555 25.254C20.2109 25.254 20.1328 25.2423 20.0938 25.2345L19.5625 24.9571C19.8633 24.9767 20.1719 24.9767 20.4922 24.9532C20.7227 24.9376 20.9219 24.8946 21.1367 24.8595ZM20.6094 26.422C20.8789 26.422 21.0898 26.629 21.0898 26.8985C21.0898 27.1681 20.8789 27.3751 20.6094 27.3751C20.3398 27.3751 20.1289 27.1681 20.1289 26.8985C20.1289 26.629 20.3398 26.422 20.6094 26.422ZM21.4414 28.2384C21.5977 28.3087 21.8867 28.4415 22.4297 28.5782V29.0001H20.7031L20.375 28.3517C20.4531 28.3634 20.5312 28.3751 20.6094 28.3751C20.6406 28.3751 20.668 28.3673 20.6992 28.3673C20.8594 28.4181 21.0117 28.4532 21.1328 28.4181C21.3203 28.3595 21.332 28.3165 21.4414 28.2384ZM24.6719 28.6095V28.6251C24.6719 28.6251 24.9102 28.7267 24.9219 28.8282L24.9414 29.0001H23.4297V28.7501C23.8398 28.7814 24.2656 28.754 24.6719 28.6095ZM19.4414 28.7267L19.582 29.0001H18.9102C19.1016 28.9064 19.2852 28.8126 19.4414 28.7267Z" fill="black"/>
</g>
</svg>
