<svg width="32" height="32" viewBox="0 0 32 32" fill="none" xmlns="http://www.w3.org/2000/svg">
<g id="jira">
<path id="Vector" d="M16.0215 2.19922L3.58006 14.6016C2.81106 15.3686 2.80906 16.6233 3.58006 17.4043L16.0215 29.8008L16.7285 29.0977C20.3675 25.4727 22.5941 23.2525 23.9101 21.9375L25.2656 20.5801C25.3426 20.5041 25.4287 20.4163 25.5137 20.3203C25.5497 20.2853 25.5778 20.2601 25.5918 20.2461L25.5859 20.2383C25.6069 20.2123 25.6274 20.1872 25.6484 20.1602C26.5794 19.2302 27.8501 17.9623 28.4121 17.4023C28.7911 17.0283 29 16.531 29 16C29 15.47 28.792 14.9736 28.414 14.5996C26.751 12.9396 24.8342 11.017 22.9062 9.08398C20.7462 6.91798 18.5725 4.73834 16.7285 2.90234L16.0215 2.19922ZM16.0215 5.02344C17.7015 6.69944 19.6012 8.60309 21.4902 10.4961C23.4132 12.4241 25.3253 14.341 26.9863 15.998C25.6323 17.348 24.6784 18.3003 24.0254 18.9883C23.9014 19.1013 23.7745 19.2255 23.6445 19.3535C23.4205 19.5735 23.2013 19.786 23.1523 19.832L23.1699 19.8516C21.9309 21.0896 19.5634 23.4496 16.0234 26.9766L4.99217 16.0156L16.0215 5.02344ZM16.0215 10.9258L10.9277 16L16.0215 21.0742L21.1172 16L16.0215 10.9258ZM16.0215 13.748L18.2832 16L16.0215 18.252L13.7617 16L16.0215 13.748Z" fill="black"/>
</g>
</svg>
