<svg width="32" height="32" viewBox="0 0 32 32" fill="none" xmlns="http://www.w3.org/2000/svg">
<g id="joget">
<path id="Vector" d="M16 3C8.832 3 3 8.832 3 16C3 23.168 8.832 29 16 29C23.168 29 29 23.168 29 16C29 8.832 23.168 3 16 3ZM16 5C22.065 5 27 9.935 27 16C27 16.4028 26.976 16.7997 26.9336 17.1914C24.4116 17.1894 17.4732 17.2335 14.9531 17.168C11.8721 17.099 10.4189 16.013 11.7109 14.502C12.9919 12.979 14.226 12.2286 15.207 11.6406C16.199 11.0636 16.6841 9.80639 13.8691 10.0254C8.3649 10.3994 6.06258 13.4403 5.00586 15.8672C5.07804 9.86378 9.97981 5 16 5ZM21.582 12C20.589 12 18.9166 13.4195 17.4746 14.3535C15.7326 15.4955 13.8516 16.0957 13.8516 16.0957L23.2559 16.0039L25.9883 14.6641C25.9883 14.6641 26.1847 14.1335 24.9277 13.8105C23.6697 13.4755 21.6168 14.4694 19.9668 15.3574C18.3168 16.2344 18.248 15.8066 18.248 15.8066C18.248 15.8066 20.8312 13.8697 21.4082 13.5117C21.9972 13.1547 23.1852 12.7384 22.1582 12.1504C21.9732 12.0464 21.778 12 21.582 12ZM26.0918 20.3672C24.3981 24.265 20.5134 27 16 27C15.2988 27 14.6143 26.9268 13.9492 26.8008C13.5658 26.1685 13.1957 25.5067 13.0371 25.1406C12.7031 24.3676 11.4689 22.5667 14.8379 21.3438C17.5322 20.3687 23.5884 20.3922 26.0918 20.3672Z" fill="black"/>
</g>
</svg>
