<svg width="32" height="32" viewBox="0 0 32 32" fill="none" xmlns="http://www.w3.org/2000/svg">
<g id="joint-solid">
<path id="Vector" d="M14.9062 3.99219C14.545 4.35346 14.2823 4.79207 13.9707 5.47461C13.6591 6.15715 13.3777 7.01752 13.375 7.97266C13.3723 8.92779 13.7022 10.007 14.5625 10.8301C15.4228 11.6531 16.7197 12.1964 18.5488 12.4297C20.0737 12.6242 21.0712 12.8939 21.6289 13.2285C22.1866 13.5632 22.4193 13.8978 22.5996 14.7168L24.5527 14.2852C24.293 13.1051 23.6525 12.1103 22.6582 11.5137C21.6639 10.9171 20.4298 10.6528 18.8027 10.4453C17.2453 10.2466 16.3901 9.81031 15.9453 9.38477C15.5005 8.95922 15.3735 8.52325 15.375 7.97852C15.3765 7.43378 15.5612 6.80799 15.791 6.30469C16.0208 5.80139 16.3751 5.35148 16.3203 5.40625L14.9062 3.99219ZM20.4297 4.3125V6.3125C21.0505 6.3125 21.8728 6.38899 22.4824 6.73438C23.092 7.07976 23.5974 7.60848 23.7207 9.07031L23.7969 9.98633H24.7168C25.2331 9.98633 26.3144 10.1534 26.8477 10.6191C27.1143 10.852 27.2949 11.1208 27.3574 11.6445C27.4199 12.1683 27.3261 12.9734 26.8555 14.1191L28.7051 14.8809C29.263 13.5226 29.4607 12.3876 29.3438 11.4082C29.2268 10.4288 28.7567 9.63264 28.1621 9.11328C27.2521 8.31841 26.2582 8.13598 25.4531 8.06836C25.1072 6.62304 24.3995 5.5215 23.4688 4.99414C22.3473 4.35877 21.1718 4.3125 20.4297 4.3125ZM30 16L2 17V23L30 24V16ZM28 18.0723V21.9277L26 21.8555V18.1445L28 18.0723ZM24 18.2148V21.7852L22 21.7129V18.2871L24 18.2148ZM20 18.3574V21.6426L4 21.0703V18.9297L20 18.3574Z" fill="black"/>
</g>
</svg>
