<svg width="32" height="32" viewBox="0 0 32 32" fill="none" xmlns="http://www.w3.org/2000/svg">
<g id="joomla">
<path id="Vector" d="M6.02344 8.6875C6.02344 7.21094 7.22266 6.01172 8.69922 6.01172C10.0312 6.01172 11.1328 6.98437 11.3398 8.25391C12.7812 7.91406 14.3633 8.30859 15.4883 9.43359L15.6406 9.58984L13.668 11.5625L13.5156 11.4062C12.875 10.7656 11.8359 10.7656 11.1953 11.4102C10.5508 12.0508 10.5508 13.0937 11.1914 13.7305L15.6406 18.1797L13.668 20.1523L11.5781 18.0625L9.60156 16.0898L9.21875 15.7031C8.02344 14.5117 7.65625 12.8086 8.10938 11.2969C6.91406 11.0273 6.02344 9.96484 6.02344 8.6875ZM11.8125 13.8828L13.7852 15.8594L15.875 13.7734L18.2344 11.4141C18.8789 10.7695 19.9141 10.7695 20.5547 11.4102C21.1953 12.0508 21.1953 13.0898 20.5547 13.7305L20.4023 13.8828L22.375 15.8594L22.5273 15.7031C23.7109 14.5234 24.0859 12.8398 23.6523 11.3437C24.9648 11.1719 25.9766 10.0469 25.9766 8.6875C25.9766 7.21094 24.7812 6.01172 23.3008 6.01172C21.9492 6.01172 20.832 7.01562 20.6523 8.32031C19.1445 7.87891 17.4531 8.25391 16.2656 9.4375L15.8789 9.82422L13.9023 11.7969L11.8125 13.8828ZM23.6992 20.6641C24.0547 19.2109 23.6641 17.6133 22.5273 16.4805L22.1406 16.0898L20.168 14.1172L18.0859 12.0312L16.1094 14.0039L18.1953 16.0938L20.5547 18.4531C21.1992 19.0977 21.1953 20.1328 20.5586 20.7734C19.918 21.4141 18.8789 21.4141 18.2383 20.7695L18.0859 20.6211L16.1133 22.5977L16.2617 22.7461C17.4648 23.9492 19.1836 24.3164 20.7031 23.8477C20.9492 25.0703 22.0312 25.9922 23.3242 25.9922C24.8008 25.9922 26 24.793 26 23.3164C26 21.9648 25 20.8477 23.6992 20.6641ZM19.9336 18.3008L17.9609 16.3242L15.875 18.4102L13.9023 20.3867L13.5156 20.7734C12.875 21.4141 11.8359 21.4141 11.1914 20.7695C10.5508 20.1289 10.5508 19.0938 11.1914 18.4492L11.3438 18.3008L9.37109 16.3242L9.21875 16.4766C8.07031 17.6211 7.68359 19.2422 8.05859 20.707C6.87891 20.9844 6 22.0469 6 23.3125C6 24.7891 7.19922 25.9883 8.67578 25.9883C9.94531 25.9844 11.0117 25.1016 11.2852 23.9102C12.7422 24.2734 14.3516 23.8867 15.4883 22.7461L15.8789 22.3594L17.8516 20.3828L19.9336 18.3008Z" fill="black"/>
</g>
</svg>
