<svg width="32" height="32" viewBox="0 0 32 32" fill="none" xmlns="http://www.w3.org/2000/svg">
<g id="journal-whills-solid">
<path id="Vector" d="M9 4C7.355 4 6 5.355 6 7V25C6 26.645 7.355 28 9 28H26V4H9ZM9 6H24V22H9C8.648 22 8.316 22.0735 8 22.1875V7C8 6.434 8.434 6 9 6ZM16 8.21484C15.886 8.21484 15.7902 8.30492 15.7852 8.41992L15.5371 14.3574L14.8945 13.9199C14.8105 13.8649 14.7 13.8714 14.627 13.9414C14.554 14.0094 14.5388 14.121 14.5898 14.207L15.0488 14.9746L14.0879 15.1738C13.9879 15.1948 13.918 15.2818 13.918 15.3828C13.918 15.4838 13.9879 15.5728 14.0879 15.5938L15.0488 15.793L14.5898 16.5586C14.5388 16.6446 14.554 16.7552 14.627 16.8242C14.668 16.8622 14.7194 16.8828 14.7734 16.8828C14.8154 16.8828 14.8575 16.8697 14.8945 16.8457L15.4512 16.4688L15.3789 18.2207C14.0209 17.9337 13 16.7282 13 15.2852C13 14.4792 13.3228 13.7519 13.8398 13.2129C13.0718 12.5839 12.5703 11.6393 12.5703 10.5703C12.5703 9.91331 12.7649 9.30716 13.0859 8.78516C12.0079 9.39016 11.1376 10.3038 10.6016 11.4238L12.0176 12.8398C12.1846 13.0068 12.1846 13.2783 12.0176 13.4453C11.9336 13.5283 11.8248 13.5703 11.7148 13.5703C11.6048 13.5703 11.4942 13.5293 11.4102 13.4453L10.2715 12.3066C10.1115 12.8476 9.999 13.408 10 14C10 14.028 10.0088 14.0521 10.0098 14.0801L11.9961 15.8203C12.1741 15.9753 12.1931 16.2478 12.0371 16.4258C11.9521 16.5228 11.8338 16.5703 11.7148 16.5703C11.6108 16.5703 11.5096 16.5338 11.4316 16.4648L10.168 15.3594C10.786 18.0164 13.156 20 16 20C18.844 20 21.214 18.0154 21.832 15.3594L20.5684 16.4668C20.4874 16.5378 20.3862 16.5723 20.2852 16.5723C20.1612 16.5723 20.0439 16.5188 19.9629 16.4258V16.4238C19.8079 16.2458 19.8259 15.9753 20.0039 15.8203L21.9922 14.0801C21.9922 14.0521 22 14.028 22 14C22 13.408 21.8865 12.8476 21.7285 12.3066L20.5898 13.4453C20.5058 13.5283 20.3971 13.5703 20.2871 13.5703C20.1771 13.5703 20.0684 13.5293 19.9844 13.4453C19.8174 13.2783 19.8174 13.0068 19.9844 12.8398L21.3984 11.4238C20.8624 10.3038 19.9921 9.38916 18.9141 8.78516C19.2341 9.30716 19.4297 9.91331 19.4297 10.5703C19.4297 11.6403 18.9282 12.5839 18.1602 13.2129C18.6772 13.7519 19 14.4792 19 15.2852C19 16.7282 17.979 17.9318 16.623 18.2188L16.5469 16.3828L17.2266 16.8438C17.2636 16.8687 17.3057 16.8809 17.3477 16.8809C17.3997 16.8809 17.4531 16.8613 17.4941 16.8223C17.5671 16.7543 17.5822 16.6446 17.5312 16.5586L17.0723 15.791L18.0332 15.5918C18.1332 15.5708 18.2031 15.4838 18.2031 15.3828C18.2031 15.2818 18.1332 15.1929 18.0332 15.1719L17.0723 14.9727L17.5312 14.2051C17.5822 14.1191 17.5671 14.0104 17.4941 13.9414C17.4201 13.8734 17.3106 13.8649 17.2266 13.9199L16.4648 14.4355L16.2148 8.41992C16.2098 8.30592 16.115 8.21484 16 8.21484ZM9 24H24V26H9C8.434 26 8 25.566 8 25C8 24.434 8.434 24 9 24Z" fill="black"/>
</g>
</svg>
