<svg width="32" height="32" viewBox="0 0 32 32" fill="none" xmlns="http://www.w3.org/2000/svg">
<g id="js-square">
<path id="Vector" d="M5 5V27H27V5H5ZM7 7H25V25H7V7ZM20.2441 15C18.8191 15 17.8984 15.9121 17.8984 17.1191C17.8984 18.4301 18.6672 19.0568 19.8262 19.5508L20.2266 19.7227C20.9586 20.0457 21.3945 20.2342 21.3945 20.7852C21.3945 21.2502 20.9677 21.584 20.3027 21.584C19.5147 21.584 19.0666 21.1665 18.7246 20.6055L17.4141 21.3555C17.8791 22.2865 18.8478 23 20.3398 23C21.8598 23 23 22.2116 23 20.7676C23 19.4186 22.2303 18.8192 20.8613 18.2402L20.4629 18.0684C19.7699 17.7644 19.4746 17.5648 19.4746 17.0898C19.4746 16.6998 19.7691 16.3965 20.2441 16.3965C20.7101 16.3965 21.0033 16.5958 21.2793 17.0898L22.5352 16.2832C22.0032 15.3522 21.2701 15 20.2441 15ZM14.3945 15.0957V20.5586C14.3945 21.3566 14.0523 21.5645 13.5293 21.5645C12.9783 21.5645 12.7411 21.1853 12.4941 20.7383L11.1836 21.5273C11.5636 22.3353 12.3127 23 13.5957 23C15.0207 23 16 22.2392 16 20.5762V15.0957H14.3945Z" fill="black"/>
</g>
</svg>
