<svg width="32" height="32" viewBox="0 0 32 32" fill="none" xmlns="http://www.w3.org/2000/svg">
<g id="js">
<path id="Vector" d="M0 7V25H32V7H0ZM2 9H30V23H2V9ZM12 12V17.5C12 17.7148 11.7148 18 11.5 18C11.2852 18 11 17.7148 11 17.5V17H9V17.5C9 18.8828 10.1172 20 11.5 20C12.8828 20 14 18.8828 14 17.5V12H12ZM18.5 12C17.1172 12 16 13.1172 16 14.5C16 15.8828 17.1172 17 18.5 17C18.7148 17 19 17.2852 19 17.5C19 17.8008 18.8828 18 18.5 18C18.1328 18 18.0742 17.9219 18.0625 17.9062C18.0508 17.8906 18 17.8281 18 17.5938H16C16 18.1602 16.1641 18.7969 16.625 19.2812C17.0859 19.7656 17.7695 20 18.5 20C19.918 20 21 18.8008 21 17.5C21 16.1172 19.8828 15 18.5 15C18.2852 15 18 14.7148 18 14.5C18 14.2852 18.2852 14 18.5 14C18.7656 14 18.8477 14.0625 18.9062 14.125C18.9648 14.1875 19 14.293 19 14.4062H21C21 13.8164 20.7852 13.2148 20.3438 12.75C19.9023 12.2852 19.2344 12 18.5 12Z" fill="black"/>
</g>
</svg>
