<svg width="32" height="32" viewBox="0 0 32 32" fill="none" xmlns="http://www.w3.org/2000/svg">
<g id="jsfiddle">
<path id="Vector" d="M25.9922 14.3477C25.9102 9.72266 22.1406 6 17.5 6C14.0273 6 11.043 8.08594 9.72656 11.0742C9.48828 11.0312 9.24609 11 9 11C6.85938 11 5.12891 12.6836 5.01953 14.7969C3.21875 15.832 2 17.7734 2 20C2 23.3125 4.6875 26 8 26H24C27.3125 26 30 23.3125 30 20C30 17.3867 28.3242 15.168 25.9922 14.3477ZM20.8906 23C18.9766 23 17.1445 21.3555 15.375 19.7656C13.8633 18.4062 12.3008 17 11.1094 17C9.92578 17 9 17.8789 9 19C9 20.0859 9.96875 21 11.1094 21C12.0977 21 12.9883 20.5898 13.8398 19.7422L15.25 21.1562C14.0234 22.3828 12.6328 23 11.1094 23C8.84375 23 7 21.207 7 19C7 16.793 8.84375 15 11.1094 15C13.0664 15 14.9219 16.6641 16.7109 18.2773C18.1992 19.6133 19.7422 21 20.8867 21C22.0547 21 23 20.1016 23 19C23 17.8789 22.0742 17 20.8906 17C19.5352 17 18.3281 17.9023 18.0117 18.2188L16.5977 16.8086C16.668 16.7344 18.4258 15 20.8906 15C23.1562 15 25 16.793 25 19C25 21.207 23.1562 23 20.8906 23Z" fill="black"/>
</g>
</svg>
