<svg width="32" height="32" viewBox="0 0 32 32" fill="none" xmlns="http://www.w3.org/2000/svg">
<g id="kaaba-solid">
<path id="Vector" d="M16 5C15.786 5 15.5722 5.03452 15.3672 5.10352L5.02539 8.55078C4.41239 8.75478 4 9.32666 4 9.97266V22.8906C4 23.5786 4.46872 24.1787 5.13672 24.3457L15.5156 26.9395C15.6746 26.9795 15.837 27 16 27C16.163 27 16.3254 26.9795 16.4844 26.9395L26.8633 24.3457C27.5313 24.1797 28 23.5796 28 22.8906V9.97266C28 9.32666 27.5876 8.75478 26.9746 8.55078L16.6328 5.10352C16.4278 5.03452 16.214 5 16 5ZM16 7L26 10.332V12.877L16.8008 10.1191C16.2758 9.96114 15.7242 9.96114 15.1992 10.1191L6 12.877V10.332L16 7ZM16 11.6328C16.1614 11.6328 16.3239 11.6552 16.4824 11.7012L26 14.5586V22.5L16 25L6 22.5V14.5586L15.5254 11.7012C15.6794 11.6552 15.8386 11.6328 16 11.6328ZM15.2207 13.0059C15.1797 12.9974 15.1355 12.9975 15.0918 13.0098L11.7598 13.918C11.6428 13.952 11.5586 14.0605 11.5586 14.1855V14.7676C11.5586 14.9516 11.7332 15.0772 11.9082 15.0352L15.2422 14.127C15.3592 14.094 15.4414 13.9766 15.4414 13.8516V13.2773C15.4414 13.1401 15.3438 13.0312 15.2207 13.0059ZM16.7812 13.0059C16.6582 13.031 16.5586 13.1401 16.5586 13.2773V13.8535C16.5586 13.9865 16.6428 14.0959 16.7598 14.1289L20.0918 15.0352C20.2668 15.0852 20.4414 14.9525 20.4414 14.7695V14.1855C20.4414 14.0605 20.3582 13.9529 20.2422 13.9199L16.9082 13.0117C16.8645 12.9992 16.8223 12.9975 16.7812 13.0059ZM10.2207 14.3711C10.1797 14.3627 10.1355 14.3645 10.0918 14.377L7.31641 15.1348C7.19141 15.1688 7.10938 15.2773 7.10938 15.4023V15.9766C7.10938 16.1606 7.28398 16.2941 7.45898 16.2441L10.2422 15.4863C10.3592 15.4523 10.4414 15.3438 10.4414 15.2188V14.6445C10.4414 14.5073 10.3438 14.3963 10.2207 14.3711ZM21.7812 14.3711C21.6582 14.3963 21.5586 14.5073 21.5586 14.6445V15.2188C21.5586 15.3438 21.6428 15.4533 21.7598 15.4863L24.543 16.2441C24.718 16.2941 24.8926 16.1596 24.8926 15.9766V15.4023C24.8926 15.2773 24.8076 15.1688 24.6836 15.1348L21.9082 14.377C21.8645 14.3645 21.8223 14.3627 21.7812 14.3711Z" fill="black"/>
</g>
</svg>
