<svg width="32" height="32" viewBox="0 0 32 32" fill="none" xmlns="http://www.w3.org/2000/svg">
<g id="kaggle">
<path id="Vector" d="M10.3516 4C10.1176 4 10 4.11656 10 4.35156V27.6445C10 27.8785 10.1166 27.9961 10.3516 27.9961H12.6484C12.8824 27.9961 13.002 27.8795 13.002 27.6445V22.8086L14.8105 21.0859L20.0488 27.75C20.1908 27.915 20.3549 28 20.5449 28H23.7168C23.8828 28 23.977 27.9524 24 27.8574L23.9336 27.498L17.0234 18.9102L23.6504 12.498C23.7734 12.37 23.7304 12 23.3984 12H20.1172C19.9512 12 19.7851 12.086 19.6191 12.252L13 18.9746V4.35156C13 4.11656 12.8834 4 12.6484 4H10.3516Z" fill="black"/>
</g>
</svg>
