<svg width="32" height="32" viewBox="0 0 32 32" fill="none" xmlns="http://www.w3.org/2000/svg">
<g id="key-solid">
<path id="Vector" d="M20 3C15.0547 3 11 7.05469 11 12C11 12.5195 11.0859 12.9766 11.1562 13.4375L3.28125 21.2812L3 21.5938V29H10V26H13V23H16V20.0312C17.1797 20.6094 18.5547 21 20 21C24.9453 21 29 16.9453 29 12C29 7.05469 24.9453 3 20 3ZM20 5C23.8555 5 27 8.14453 27 12C27 15.8555 23.8555 19 20 19C18.7891 19 17.543 18.6445 16.5938 18.125L16.3438 18H14V21H11V24H8V27H5V22.4375L12.9062 14.5L13.2812 14.1562L13.1875 13.625C13.0859 13.0234 13 12.4883 13 12C13 8.14453 16.1445 5 20 5ZM22 8C20.8945 8 20 8.89453 20 10C20 11.1055 20.8945 12 22 12C23.1055 12 24 11.1055 24 10C24 8.89453 23.1055 8 22 8Z" fill="black"/>
</g>
</svg>
