<svg width="32" height="32" viewBox="0 0 32 32" fill="none" xmlns="http://www.w3.org/2000/svg">
<g id="keybase">
<path id="Vector" d="M14.7168 4C14.1778 4.75 13.7833 5.29066 13.4043 5.84766C13.1003 5.48366 12.6595 5.26233 12.1875 5.23633C10.6665 5.14033 10.7507 5.14648 10.6817 5.14648C9.76465 5.15148 9.00728 5.86616 8.94728 6.78516L8.86329 8.18945V8.19531C8.81129 9.15531 9.5401 9.97906 10.4961 10.0391L11.5586 10.1035C11.4676 11.0035 11.6116 11.8454 11.9746 12.5684C10.5916 13.1474 9.33812 13.9973 8.28712 15.0703C4.93812 18.4183 5.00587 22.5886 5.00587 26.6016L6.2754 25.252C6.5384 26.22 6.93795 27.145 7.46095 28H8.9961C8.1521 26.854 7.58209 25.528 7.33009 24.127L9.46095 21.8594L8.45118 25.0371C10.6982 23.3981 14.1517 20.3328 20.9707 22.3418C22.7737 22.8668 24.6937 22.3798 25.5527 20.7988C25.9847 22.9148 25.6114 25.9201 24.3574 27.9941H25.8145C26.5935 26.4351 27 24.5606 27 22.4766C27 19.8396 25.8739 17.1713 23.9219 15.1562C22.2619 13.4462 20.5394 12.7079 19.5254 12.3809C19.5704 12.2749 19.6105 12.1656 19.6465 12.0566C20.3515 9.91564 19.1955 7.60744 17.0645 6.89844C16.0775 6.56644 15.5439 6.59375 15.3359 6.59375C15.3299 6.58875 15.0904 6.20244 15.8164 4.64844L14.7168 4ZM10.6875 6.42773C10.7095 6.42773 10.5923 6.41767 12.1133 6.51367C12.6463 6.55067 12.5343 7.14691 12.5293 7.25391C12.2453 7.75391 12.0101 8.28113 11.8301 8.82812L10.5762 8.75391C10.3242 8.73691 10.1315 8.51963 10.1445 8.26562L10.2285 6.86133C10.2415 6.61733 10.4435 6.42673 10.6875 6.42773ZM14.1465 7.04297C14.3505 7.55997 14.8572 7.89028 15.4102 7.86328C15.8052 7.84728 17.5726 8.0035 18.3086 9.5625C18.6976 10.3985 18.7721 11.8172 17.6621 12.8242L17.2149 12.2734C15.9189 10.9664 14.3965 12.0749 14.3965 13.2109C13.9045 12.9779 13.491 12.6047 13.207 12.1387C12.161 10.3917 13.4155 8.17997 14.1465 7.04297ZM10.9551 7.1875L10.9024 8.02344L11.7344 8.07812L11.7871 7.24219L10.9551 7.1875ZM16.0078 12.9688C16.0851 12.9718 16.1638 13.0076 16.2266 13.0879C16.9636 13.9989 15.7837 12.5403 19.1777 16.7363C19.4337 17.0523 18.9583 17.449 18.6973 17.127L18.4043 16.7637L17.3574 17.6191C17.2554 17.7031 17.1055 17.6899 17.0215 17.5879L16.5469 17.0039C16.4639 16.9019 16.4761 16.752 16.5781 16.668L17.6309 15.8047L17.2031 15.2773L16.6856 15.707C16.4296 15.916 16.0441 15.4071 16.2891 15.2031L16.8027 14.7793C16.7287 14.6883 15.8471 13.6015 15.7461 13.4785C15.5496 13.2415 15.7761 12.9595 16.0078 12.9688ZM18.8106 13.4844C19.2266 13.6144 19.6333 13.7683 20.0313 13.9453C21.6743 14.6793 23.0453 15.9116 23.9473 17.1816C24.7633 18.3386 24.9025 19.5234 24.3125 20.3574C23.7305 21.1884 22.5832 21.4716 21.3242 21.1016C17.4072 19.9446 13.877 20.207 10.793 21.873L12.3867 16.8594C6.09573 23.5574 6.7427 22.8719 6.3047 23.3379C6.3637 21.7679 6.57025 20.1219 7.36525 18.5039C8.07425 17.0679 9.7945 14.7262 12.7715 13.6172C13.6245 14.4322 14.6648 14.6937 15.0488 14.7637C14.8168 15.3027 14.9129 15.9271 15.2949 16.3711C15.1359 16.8641 15.2346 17.4066 15.5606 17.8086L16.0352 18.3926C16.3232 18.7496 16.7579 18.9561 17.2149 18.9551C17.8609 18.9551 18.2454 18.5488 18.4004 18.4258C19.2484 18.7358 19.8783 18.2211 19.9473 18.1621C20.6253 17.6041 20.7259 16.6 20.1719 15.918L18.4688 13.8164C18.5898 13.7144 18.7046 13.6034 18.8106 13.4844ZM19.4063 24.4043C18.8813 24.4043 18.457 24.8324 18.457 25.3594C18.457 25.8864 18.8813 26.3125 19.4063 26.3125C19.9313 26.3125 20.3574 25.8864 20.3574 25.3594C20.3554 24.8324 19.9303 24.4053 19.4063 24.4043ZM13.5059 24.4102C12.9809 24.4102 12.5567 24.8363 12.5567 25.3633C12.5567 25.8903 12.9809 26.3184 13.5059 26.3184C14.0309 26.3184 14.4551 25.8903 14.4551 25.3633C14.4531 24.8363 14.0299 24.4112 13.5059 24.4102Z" fill="black"/>
</g>
</svg>
