<svg width="32" height="32" viewBox="0 0 32 32" fill="none" xmlns="http://www.w3.org/2000/svg">
<g id="keyboard">
<path id="Vector" d="M3 7C1.90625 7 1 7.90625 1 9V23C1 24.0938 1.90625 25 3 25H29C30.0938 25 31 24.0938 31 23V9C31 7.90625 30.0938 7 29 7H3ZM3 9H29V23H3V9ZM5 11V13H7V11H5ZM9 11V13H11V11H9ZM13 11V13H15V11H13ZM17 11V13H19V11H17ZM21 11V13H23V11H21ZM25 11V13H27V11H25ZM5 15V17H9V15H5ZM11 15V17H13V15H11ZM15 15V17H17V15H15ZM19 15V17H21V15H19ZM23 15V17H27V15H23ZM5 19V21H9V19H5ZM11 19V21H21V19H11ZM23 19V21H27V19H23Z" fill="black"/>
</g>
</svg>
