<svg width="32" height="32" viewBox="0 0 32 32" fill="none" xmlns="http://www.w3.org/2000/svg">
<g id="keycdn">
<path id="Vector" d="M25.793 4.39258C24.573 4.39258 23.5254 5.4002 23.5254 6.6582C23.5254 6.8892 23.5658 7.1208 23.6328 7.3418L21.7012 9.14648C20.1562 7.84048 18.2174 7.11073 16.1914 7.05273C14.3864 7.01473 12.63 7.49561 11.123 8.47461L12.1113 9.50195C13.3213 8.77295 14.7243 8.41708 16.1543 8.45508C18.5063 8.51308 20.5697 9.55852 22.0957 11.6035L25.043 8.80078C25.139 8.83878 25.495 8.89672 25.793 8.88672C27.012 8.88672 28 7.86939 28 6.65039C28 5.44039 27.012 4.39358 25.793 4.39258ZM7.88281 6.06641C7.52519 6.05678 7.16862 6.18327 6.89062 6.44727C6.32363 6.98527 6.30403 7.86955 6.83203 8.43555C7.14903 8.77155 7.59978 8.92442 8.05078 8.85742L9.23047 10.0957C7.86747 11.6697 7.05191 13.6863 7.00391 15.7793C6.95591 17.5073 7.40855 19.1975 8.31055 20.6855L9.34766 19.6758C8.69466 18.4948 8.37725 17.1696 8.40625 15.8066C8.45425 14.0216 9.12641 12.3223 10.3164 10.9883C10.7584 10.4803 11.1618 10.1722 11.3828 9.99023L9.23242 7.73438C9.31942 7.29238 9.19395 6.83186 8.87695 6.50586C8.59845 6.22236 8.24044 6.07603 7.88281 6.06641ZM16.0293 10.0156C12.9763 10.0246 10.4153 12.2205 10.0273 15.2715C9.62234 18.5555 11.9494 21.5548 15.2344 21.9688C18.5194 22.3738 21.5215 20.0479 21.9355 16.7559C22.3415 13.4809 20.0128 10.4714 16.7188 10.0664C16.4948 10.0324 16.2623 10.0156 16.0293 10.0156ZM23.623 11.373L22.5957 12.3516C23.2387 13.5236 23.6149 14.8472 23.5859 16.2012C23.5279 18.2942 22.5665 20.4263 20.5605 22.0293C20.5605 22.0293 21.4735 22.9983 22.6445 24.2363C22.5575 24.6873 22.681 25.1486 22.998 25.4746C23.535 26.0316 24.4203 26.0514 24.9863 25.5234C25.5523 24.9864 25.5712 24.1012 25.0352 23.5352C24.7272 23.1992 24.2752 23.0463 23.8242 23.1133C23.8052 23.0943 22.7104 21.9331 22.6914 21.9141C24.0834 20.3491 24.9186 18.3422 24.9766 16.2402C25.0146 14.5312 24.525 12.832 23.623 11.373ZM15.998 13C17.25 13.024 18.232 13.982 18.248 15.25C18.24 16.145 17.7731 16.8495 16.9961 17.2695L17.498 19H14.498L15.002 17.2695C14.218 16.8655 13.7642 16.129 13.7402 15.25C13.7802 13.959 14.754 13.024 15.998 13ZM9.82617 20.4355L6.99414 23.1992C5.55414 22.6812 4 23.7288 4 25.3418C4 26.5988 4.97056 27.6055 6.22656 27.6055C7.78256 27.6055 8.83848 26.0795 8.39648 24.6875C8.41548 24.6685 10.1912 22.9121 10.2012 22.9121C11.7562 24.2081 13.6947 24.9361 15.7207 24.9941C17.5257 25.0321 19.2821 24.5442 20.7891 23.5742C20.6741 23.4592 20.0505 22.7969 19.8105 22.5469C18.5915 23.2669 17.1898 23.6227 15.7598 23.5938C13.1578 23.5268 11.3332 22.4415 9.82617 20.4355Z" fill="black"/>
</g>
</svg>
