<svg width="32" height="32" viewBox="0 0 32 32" fill="none" xmlns="http://www.w3.org/2000/svg">
<g id="khanda-solid">
<path id="Vector" d="M15.4922 3L12.6133 5.57812C12.3933 5.78413 12.3255 6.09133 12.4395 6.36133L12.6934 6.92188C11.1034 7.87787 10.0273 9.6037 10.0273 11.5957C10.0273 13.6347 11.1556 15.3891 12.8086 16.3301L12.4258 17.1738C12.3188 17.4268 12.3715 17.7149 12.5625 17.9199L14.7129 19.6816V20.6523L10.9727 18.0488C8.81066 16.6058 7.51386 14.1927 7.50586 11.5957C7.50586 10.0777 8.08758 8.44597 8.89258 7.16797C9.08158 6.86597 9.00962 6.49437 8.76562 6.23438C8.52162 5.97438 8.09806 5.93252 7.78906 6.10352C3.95406 8.19552 1.91134 13.0251 3.65234 17.4531C3.99734 18.3311 4.52762 19.1326 5.14062 19.8496L7.77148 22.7363C8.00948 23.0143 8.40847 23.09 8.73047 22.918L12.7051 21.1602L14.1328 22.1543L11.4141 23.707C11.3321 23.689 11.2569 23.6582 11.1699 23.6582C10.5229 23.6582 9.99805 24.1821 9.99805 24.8301C9.99905 25.4751 10.5249 26 11.1719 26C11.7629 26 12.2305 25.5553 12.3105 24.9863L14.7129 23.6523V25.1133C14.2549 25.3863 14 25.8655 14 26.4375C14 27.3005 14.6302 28 15.4922 28C16.3552 28 17 27.3005 17 26.4375C17 25.8655 16.7314 25.3872 16.2734 25.1152V23.6426L18.6895 24.9863C18.7705 25.5543 19.2371 26 19.8281 26C20.4751 26 21 25.4751 21 24.8281C21 24.1811 20.4751 23.6562 19.8281 23.6562C19.7411 23.6562 19.666 23.6871 19.584 23.7051L16.8672 22.1523L18.293 21.1582L22.2695 22.916C22.5925 23.088 22.9915 23.0114 23.2285 22.7344L25.6895 20.0469C26.6105 18.9719 27.3491 17.7275 27.7031 16.3555C28.7611 12.2705 26.7572 8.06266 23.1582 6.09766C22.8472 5.92666 22.4578 5.98314 22.2148 6.24414C21.9698 6.50314 21.9301 6.89527 22.1211 7.19727C22.9261 8.47427 23.4961 10.0758 23.4961 11.5898C23.4871 14.1898 22.1886 16.6037 20.0156 18.0547L16.2734 20.6602V19.6797L18.4258 17.918C18.6168 17.713 18.6695 17.4249 18.5625 17.1719L18.1797 16.3301C19.8317 15.3901 20.959 13.6318 20.959 11.5938C20.959 9.60175 19.884 7.87787 18.293 6.92188L18.5488 6.36133C18.6628 6.09133 18.592 5.78312 18.373 5.57812L15.4922 3ZM17.4492 8.67188C18.3842 9.32788 19 10.3869 19 11.5879C19 12.8439 18.3313 13.9497 17.3223 14.5957L16.9941 13.8965C16.4851 12.5155 16.4851 11.0216 16.9941 9.64062L17.4492 8.67188ZM13.543 8.68945L13.9941 9.65234C14.5001 11.0253 14.5001 12.5088 13.9941 13.8828L13.668 14.5781C12.665 13.9361 12 12.8369 12 11.5879C12 10.3939 12.613 9.34145 13.543 8.68945Z" fill="black"/>
</g>
</svg>
