<svg width="32" height="32" viewBox="0 0 32 32" fill="none" xmlns="http://www.w3.org/2000/svg">
<g id="kickstarter">
<path id="Vector" d="M5 5V27H27V5H5ZM7 7H25V25H7V7ZM13.6328 11C12.5798 11 12 11.8084 12 12.8164V19.1328C12 20.1858 12.5593 20.9922 13.6523 20.9922C14.5293 20.9922 15.252 20.4218 15.252 19.1328V17.4277L17.7227 20.5156C18.2247 21.1236 19.314 21.2006 20 20.5156C20.596 19.8996 20.6031 19.0159 20.1621 18.4609L18.1602 15.8984L19.7324 13.4805C20.1164 12.9295 20.1219 12.0735 19.5059 11.4785C18.8369 10.8295 17.685 10.7717 17 11.7637L15.252 14.4258V12.8398C15.252 11.5868 14.5348 11 13.6328 11Z" fill="black"/>
</g>
</svg>
