<svg width="32" height="32" viewBox="0 0 32 32" fill="none" xmlns="http://www.w3.org/2000/svg">
<g id="kickstarter-k">
<path id="Vector" d="M11 5.00008C9.343 5.00008 8 6.34308 8 8.00008V24.0001C8 25.6571 9.343 27.0001 11 27.0001C12.657 27.0001 14 25.6571 14 24.0001V19.4141L19.7422 25.9766C20.3352 26.6536 21.167 27.0001 22.002 27.0001C22.703 27.0001 23.4066 26.7559 23.9766 26.2579C25.2236 25.1669 25.3488 23.2725 24.2578 22.0255L18.8594 15.8555L23.4004 9.80086C24.3944 8.47586 24.1268 6.59369 22.8008 5.59969C21.4758 4.60569 19.5936 4.8733 18.5996 6.1993L14 12.3341V8.00008C14 6.34308 12.657 5.00008 11 5.00008Z" fill="black"/>
</g>
</svg>
