<svg width="32" height="32" viewBox="0 0 32 32" fill="none" xmlns="http://www.w3.org/2000/svg">
<g id="kiss-wink-heart">
<path id="Vector" d="M16 3C8.832 3 3 8.832 3 16C3 23.168 8.832 29 16 29C18.369 29 20.583 28.3532 22.498 27.2422L21.0566 25.7598C19.5406 26.5478 17.823 27 16 27C9.935 27 5 22.065 5 16C5 9.935 9.935 5 16 5C22.065 5 27 9.935 27 16C27 16.026 26.9961 16.0512 26.9961 16.0762C27.7151 16.1922 28.3811 16.4593 28.9551 16.8633C28.9741 16.5763 29 16.292 29 16C29 8.832 23.168 3 16 3ZM11.5 12C11.1022 12 10.7206 12.158 10.4393 12.4393C10.158 12.7206 10 13.1022 10 13.5C10 13.8978 10.158 14.2794 10.4393 14.5607C10.7206 14.842 11.1022 15 11.5 15C11.8978 15 12.2794 14.842 12.5607 14.5607C12.842 14.2794 13 13.8978 13 13.5C13 13.1022 12.842 12.7206 12.5607 12.4393C12.2794 12.158 11.8978 12 11.5 12ZM20 12C17.906 12 16.3906 13.207 16.3906 13.207L17.6094 14.793C17.6094 14.793 18.693 14 20.002 14C21.311 14 22.3926 14.793 22.3926 14.793L23.6113 13.207C23.6093 13.207 22.094 12 20 12ZM15 17.0078V18.498C15.902 18.498 16.4766 18.9129 16.4766 19.1289C16.4766 19.344 15.9045 19.7545 15.0098 19.7578C15.0064 19.7578 15.0033 19.7578 15 19.7578V19.7598V21.248V21.25C15.0033 21.25 15.0064 21.25 15.0098 21.25C15.9055 21.2533 16.4766 21.6638 16.4766 21.8789C16.4766 22.0949 15.901 22.5098 15 22.5098V24C16.669 24 17.9766 23.0679 17.9766 21.8789C17.9766 21.3466 17.7049 20.8726 17.2656 20.5039C17.7049 20.1352 17.9766 19.6612 17.9766 19.1289C17.9766 17.9399 16.669 17.0078 15 17.0078ZM22.75 18C21.22 18 20 19.2908 20 20.8008C20 21.6788 20.5051 22.3252 20.8691 22.6992L24.5 26.4297L28.1406 22.6992C28.5046 22.3262 29 21.8088 29 20.8008C29 19.2908 27.78 18 26.25 18C25.52 18 24.92 18.25 24.5 18.5C24.08 18.25 23.48 18 22.75 18ZM22.75 20C22.989 20 23.2326 20.0737 23.4766 20.2188L24.5 20.8281L25.5234 20.2188C25.7674 20.0737 26.011 20 26.25 20C26.65 20 27 20.3748 27 20.8008C27 20.9878 26.992 21.0127 26.709 21.3027L24.502 23.5645L22.3027 21.3047C22.1897 21.1887 22 20.9688 22 20.8008C22 20.3748 22.35 20 22.75 20Z" fill="black"/>
</g>
</svg>
