<svg width="32" height="32" viewBox="0 0 32 32" fill="none" xmlns="http://www.w3.org/2000/svg">
<g id="kiss-solid">
<path id="Vector" d="M16 3C8.832 3 3 8.832 3 16C3 23.168 8.832 29 16 29C23.168 29 29 23.168 29 16C29 8.832 23.168 3 16 3ZM16 5C22.065 5 27 9.935 27 16C27 22.065 22.065 27 16 27C9.935 27 5 22.065 5 16C5 9.935 9.935 5 16 5ZM11.5 12C11.1022 12 10.7206 12.158 10.4393 12.4393C10.158 12.7206 10 13.1022 10 13.5C10 13.8978 10.158 14.2794 10.4393 14.5607C10.7206 14.842 11.1022 15 11.5 15C11.8978 15 12.2794 14.842 12.5607 14.5607C12.842 14.2794 13 13.8978 13 13.5C13 13.1022 12.842 12.7206 12.5607 12.4393C12.2794 12.158 11.8978 12 11.5 12ZM20.5 12C20.1022 12 19.7206 12.158 19.4393 12.4393C19.158 12.7206 19 13.1022 19 13.5C19 13.8978 19.158 14.2794 19.4393 14.5607C19.7206 14.842 20.1022 15 20.5 15C20.8978 15 21.2794 14.842 21.5607 14.5607C21.842 14.2794 22 13.8978 22 13.5C22 13.1022 21.842 12.7206 21.5607 12.4393C21.2794 12.158 20.8978 12 20.5 12ZM15 17.0078V18.498C15.901 18.498 16.4766 18.9129 16.4766 19.1289C16.4766 19.344 15.9045 19.7545 15.0098 19.7578C15.0064 19.7578 15.0033 19.7578 15 19.7578V19.7598V21.248V21.25C15.0033 21.25 15.0064 21.25 15.0098 21.25C15.9045 21.2533 16.4766 21.6638 16.4766 21.8789C16.4766 22.0949 15.901 22.5098 15 22.5098V24C16.669 24 17.9766 23.0679 17.9766 21.8789C17.9766 21.3464 17.7031 20.8727 17.2637 20.5039C17.7031 20.1351 17.9766 19.6614 17.9766 19.1289C17.9766 17.9399 16.669 17.0078 15 17.0078Z" fill="black"/>
</g>
</svg>
