<svg width="32" height="32" viewBox="0 0 32 32" fill="none" xmlns="http://www.w3.org/2000/svg">
<g id="kiss-beam">
<path id="Vector" d="M16 3C8.832 3 3 8.832 3 16C3 23.168 8.832 29 16 29C23.168 29 29 23.168 29 16C29 8.832 23.168 3 16 3ZM16 5C22.065 5 27 9.935 27 16C27 22.065 22.065 27 16 27C9.935 27 5 22.065 5 16C5 9.935 9.935 5 16 5ZM11 12C8.906 12 7.39062 13.207 7.39062 13.207L8.60938 14.793C8.60938 14.793 9.69295 14 11.002 14C12.311 14 13.3926 14.793 13.3926 14.793L14.6113 13.207C14.6093 13.207 13.094 12 11 12ZM21 12C18.906 12 17.3906 13.207 17.3906 13.207L18.6094 14.793C18.6094 14.793 19.693 14 21.002 14C22.311 14 23.3926 14.793 23.3926 14.793L24.6113 13.207C24.6093 13.207 23.094 12 21 12ZM15 17.0078V18.498C15.902 18.498 16.4766 18.9129 16.4766 19.1289C16.4766 19.344 15.9045 19.7545 15.0098 19.7578C15.0064 19.7578 15.0033 19.7578 15 19.7578V19.7598V21.248V21.25C15.0033 21.25 15.0064 21.25 15.0098 21.25C15.9055 21.2533 16.4766 21.6638 16.4766 21.8789C16.4766 22.0949 15.901 22.5098 15 22.5098V24C16.669 24 17.9766 23.0679 17.9766 21.8789C17.9766 21.3466 17.7049 20.8726 17.2656 20.5039C17.7049 20.1352 17.9766 19.6612 17.9766 19.1289C17.9766 17.9399 16.669 17.0078 15 17.0078Z" fill="black"/>
</g>
</svg>
