<svg width="32" height="32" viewBox="0 0 32 32" fill="none" xmlns="http://www.w3.org/2000/svg">
<g id="kiwi-bird-solid">
<path id="Vector" d="M11.4805 4C6.41406 4.11328 2.11328 8.41406 2 13.4805C1.93359 16.7578 3.52734 19.5938 6 21.2969V27.5352L9.44531 29.832L10.5547 28.168L8 26.4648V22.3477C8.63672 22.5938 9.30469 22.7695 10 22.875V25.7188L13.6836 26.9492L14.3164 25.0508L12 24.2812V22.9805C16.3828 22.8789 17.1758 21.5664 18.4727 21.0273C20.9883 20.0117 21.9102 18.6875 22.3672 17.7891C22.5938 17.3398 22.7227 17.0781 22.8945 16.9023C23.0664 16.7266 23.332 16.543 24.0312 16.375L24.0352 16.3711C24.6758 16.2188 25.2266 16.0312 25.7148 15.8203C25.8125 16.1133 25.9219 16.457 26.0312 16.8828C26.5078 18.6602 27 21.5742 27 26H29C29 21.4258 28.4922 18.3398 27.9688 16.3672C27.7852 15.6797 27.6016 15.1641 27.4258 14.7188C27.6328 14.5195 27.8125 14.3086 27.957 14.0938C28.6055 13.1172 28.5977 12.0977 28.5977 11.5977C28.5977 10.4336 28.3125 9.23438 27.5117 8.29688C26.707 7.36328 25.4141 6.80078 23.8008 6.80078C22.0078 6.80078 20.3984 7.77734 19.5469 9.27344C18.1875 6.05469 15.375 4 11.5 4H11.4805ZM11.5156 6C15.1523 6.00781 17.2305 7.70703 18.1367 10.9688L18.3398 11.6992H20.793L20.9727 10.9297C21.2617 9.70703 22.4453 8.80078 23.8008 8.80078C24.9883 8.80078 25.5938 9.13672 25.9883 9.60156C26.3867 10.0664 26.5977 10.7656 26.5977 11.5977C26.5977 12.0977 26.5938 12.5312 26.293 12.9844C25.9922 13.4336 25.3164 14.0156 23.5703 14.4258H23.5625C22.6211 14.6562 21.9336 15.0234 21.4648 15.5039C20.9922 15.9883 20.7812 16.4961 20.582 16.8867C20.1875 17.6641 19.9102 18.2891 17.7227 19.1719L17.7188 19.1758C15.6719 20.0195 16.0312 21 11.5 21C7.21484 21 3.91016 17.7852 4 13.5195C4.08594 9.58984 7.58203 6.09375 11.5156 6Z" fill="black"/>
</g>
</svg>
