<svg width="32" height="32" viewBox="0 0 32 32" fill="none" xmlns="http://www.w3.org/2000/svg">
<g id="language-solid">
<path id="Vector" d="M4 4V22H10V28H28V10H22V4H4ZM6 6H20V10.5625L10.5625 20H6V6ZM11 8V9H8V11H12.9375C12.8086 12.1484 12.457 13.0547 11.875 13.6875C11.5312 13.5742 11.2227 13.4336 10.9688 13.2812C10.2656 12.8633 10 12.418 10 12H8C8 13.1914 8.73438 14.1836 9.71875 14.8438C9.22656 14.9492 8.65625 15 8 15V17C9.77344 17 11.25 16.5938 12.375 15.8438C12.8984 15.9336 13.4297 16 14 16V14.125C14.543 13.2148 14.832 12.1523 14.9375 11H16V9H13V8H11ZM21.4375 12H26V26H12V21.4375L21.4375 12ZM20 13.8438L19.0625 16.6875L17.0625 22.6875L17 22.8438V24H19V23.125L19.0312 23H20.9688L21 23.125V24H23V22.8438L22.9375 22.6875L20.9375 16.6875L20 13.8438ZM20 20.125L20.2812 21H19.7188L20 20.125Z" fill="black"/>
</g>
</svg>
