<svg width="32" height="32" viewBox="0 0 32 32" fill="none" xmlns="http://www.w3.org/2000/svg">
<g id="laptop-medical-solid">
<path id="Vector" d="M5 6V19.5625L2.71875 21.877C2.26575 22.329 2 22.9527 2 23.5938C2 24.9137 3.08625 26 4.40625 26H27.5938C28.9137 26 30 24.9137 30 23.5938C30 22.9527 29.7342 22.328 29.2812 21.875L27 19.5625V6H5ZM7 8H25V19H7V8ZM15 10V13H12V15H15V18H17V15H20V13H17V10H15ZM6.4375 21H25.5625L27.875 23.2812C27.953 23.3592 28 23.4837 28 23.5938C28 23.8358 27.8358 24 27.5938 24H4.40625C4.16425 24 4 23.8358 4 23.5938C4 23.4848 4.047 23.3603 4.125 23.2812L6.4375 21Z" fill="black"/>
</g>
</svg>
