<svg width="32" height="32" viewBox="0 0 32 32" fill="none" xmlns="http://www.w3.org/2000/svg">
<g id="laptop-code-solid">
<path id="Vector" d="M5 6V19.5625L2.71875 21.877C2.26575 22.329 2 22.9527 2 23.5938C2 24.9137 3.08625 26 4.40625 26H27.5938C28.9137 26 30 24.9137 30 23.5938C30 22.9527 29.7342 22.328 29.2812 21.875L27 19.5625V6H5ZM7 8H25V19H7V8ZM16 9L14.5 18H16L17.5 9H16ZM12.0859 11L10.3672 13.0684L10 13.5L10.3672 13.9316L12.0859 16L13.1719 15.1367L11.8105 13.5L13.1719 11.8633L12.0859 11ZM19.9141 11L18.8281 11.8633L20.1895 13.5L18.8281 15.1367L19.9141 16L21.6328 13.9316L22 13.5L21.6328 13.0684L19.9141 11ZM6.4375 21H25.5625L27.875 23.2812C27.953 23.3592 28 23.4837 28 23.5938C28 23.8358 27.8358 24 27.5938 24H4.40625C4.16425 24 4 23.8358 4 23.5938C4 23.4848 4.047 23.3603 4.125 23.2812L6.4375 21Z" fill="black"/>
</g>
</svg>
