<svg width="32" height="32" viewBox="0 0 32 32" fill="none" xmlns="http://www.w3.org/2000/svg">
<g id="laravel">
<path id="Vector" d="M7.55664 5.00579C6.89964 5.03379 1.8892 5.45912 1.5332 5.49212C1.1772 5.52112 0.784626 5.68576 1.14063 6.54876C1.49663 7.41176 7.1857 19.9513 7.3457 20.3163C7.5047 20.6803 7.91781 21.2751 8.88281 21.0351C9.87181 20.7911 13.3027 19.874 15.1777 19.371C16.1667 21.207 18.1875 24.9289 18.5625 25.4609C19.0595 26.1749 19.4059 26.0534 20.1699 25.8144C20.7699 25.6274 29.5259 22.4071 29.9199 22.2441C30.3139 22.0761 30.5561 21.9616 30.2891 21.5546C30.0921 21.2576 27.7813 18.0925 26.5723 16.4335C27.4023 16.2085 30.3501 15.4073 30.6641 15.3163C31.0331 15.2193 31.0848 15.0385 30.8828 14.8085C30.6858 14.5785 27.94 11.0646 27.457 10.4706C26.974 9.87664 26.7345 9.98037 26.4395 10.0234C26.1395 10.0664 22.6667 10.6654 22.2637 10.7324C21.8607 10.8044 21.6075 10.9672 21.8555 11.3222C22.0755 11.6382 24.3592 14.9526 24.8652 15.6816L15.7852 17.9042L8.56055 5.56048C8.27455 5.12448 8.21264 4.97179 7.55664 5.00579ZM7.44336 5.86322C7.61236 5.85322 7.5933 5.89103 7.6543 5.99603C7.6543 5.99603 14.3196 17.7607 14.4316 17.9667C14.5536 18.1727 14.485 18.2357 14.377 18.2597C14.269 18.2837 9.18216 19.5287 8.91016 19.5917C8.63816 19.6537 8.63847 19.6252 8.60547 19.5292C8.57247 19.4332 2.56056 6.74487 2.47656 6.58587C2.39256 6.42787 2.39656 6.30267 2.47656 6.30267C2.55656 6.30267 7.27936 5.87222 7.44336 5.86322ZM26.7715 10.8456C26.8389 10.8613 26.9096 10.9117 26.9941 11.0292C27.1631 11.2642 29.4598 14.2404 29.5488 14.3554C29.6328 14.4664 29.4822 14.534 29.2852 14.582C29.0882 14.625 25.8359 15.4492 25.8359 15.4492L23.1777 11.7206C23.1027 11.6106 23.0425 11.5044 23.2305 11.4804C23.4175 11.4564 26.4363 10.8942 26.5723 10.8652C26.6403 10.8482 26.7041 10.83 26.7715 10.8456ZM25.5273 16.6171C25.5901 16.6242 25.6429 16.6687 25.7129 16.7812C25.8499 17.0122 28.6388 20.8817 28.7188 21.0117C28.7988 21.1407 28.881 21.2273 28.623 21.3183C28.37 21.4143 20.0145 24.2951 19.8555 24.3671C19.6915 24.4391 19.5634 24.4623 19.3574 24.1503C19.1514 23.8383 16.4336 19.0312 16.4336 19.0312L25.2813 16.6777C25.3913 16.6417 25.4646 16.61 25.5273 16.6171Z" fill="black"/>
</g>
</svg>
