<svg width="32" height="32" viewBox="0 0 32 32" fill="none" xmlns="http://www.w3.org/2000/svg">
<g id="lastfm">
<path id="Vector" d="M14.3477 22.0781L13.3203 19.2891C13.3203 19.2891 11.6523 21.1484 9.15234 21.1484C6.94141 21.1484 5.36719 19.2227 5.36719 16.1445C5.36719 12.1992 7.35547 10.7891 9.3125 10.7891C12.1367 10.7891 13.0312 12.6172 13.8047 14.957L14.8281 18.1641C15.8555 21.2773 17.7812 23.7773 23.3281 23.7773C27.3047 23.7773 30 22.5586 30 19.3516C30 16.7539 28.5234 15.4062 25.7656 14.7656L23.7109 14.3164C22.3008 13.9961 21.8828 13.418 21.8828 12.457C21.8828 11.3672 22.75 10.7227 24.1602 10.7227C25.6992 10.7227 26.5352 11.3008 26.6641 12.6797L29.8711 12.2969C29.6133 9.41016 27.625 8.22266 24.3516 8.22266C21.4688 8.22266 18.6445 9.3125 18.6445 12.8086C18.6445 14.9883 19.7031 16.3672 22.3633 17.0117L24.5469 17.5234C26.1797 17.9102 26.7266 18.582 26.7266 19.5117C26.7266 20.6992 25.5703 21.1797 23.3906 21.1797C20.1523 21.1797 18.8047 19.4805 18.0352 17.1406L16.9766 13.9336C15.6289 9.76172 13.4805 8.22266 9.21484 8.22266C4.50391 8.22266 2 11.2031 2 16.2734C2 21.1484 4.50391 23.7773 8.99219 23.7773C12.6172 23.7773 14.3477 22.0781 14.3477 22.0781Z" fill="black"/>
</g>
</svg>
