<svg width="32" height="32" viewBox="0 0 32 32" fill="none" xmlns="http://www.w3.org/2000/svg">
<g id="lastfm-square">
<path id="Vector" d="M5 5V27H27V5H5ZM7 7H25V25H7V7ZM12.6113 12.1074C10.2513 12.1074 9 13.6017 9 16.1367C9 18.5747 10.251 19.8926 12.498 19.8926C14.31 19.8926 15.1777 19.043 15.1777 19.043L14.666 17.6465C14.666 17.6465 13.834 18.5781 12.582 18.5781C11.474 18.5781 10.6855 17.6152 10.6855 16.0742C10.6855 14.1002 11.6792 13.3965 12.6602 13.3965C14.4772 13.3965 14.704 14.8529 15.418 17.0859C15.93 18.6399 16.8949 19.8926 19.6699 19.8926C21.6569 19.8926 23.004 19.2837 23 17.6777C23 15.6857 21.2884 15.4702 19.8574 15.1602C19.1524 14.9982 18.9414 14.7105 18.9414 14.2285C18.9414 13.6815 19.3751 13.3613 20.0801 13.3613C20.8501 13.3613 21.266 13.6498 21.332 14.3418L22.9395 14.1484C22.8125 12.7034 21.8186 12.1094 20.1816 12.1094C18.7416 12.1094 17.3262 12.6513 17.3262 14.4023C17.3262 15.4923 17.8565 16.1839 19.1875 16.5039C20.4175 16.7929 21.3711 16.8849 21.3711 17.7559C21.3711 18.3509 20.7931 18.5918 19.7031 18.5918C18.0831 18.5918 17.4104 17.7414 17.0254 16.5684C16.1494 13.9194 15.8293 12.1074 12.6113 12.1074Z" fill="black"/>
</g>
</svg>
