<svg width="32" height="32" viewBox="0 0 32 32" fill="none" xmlns="http://www.w3.org/2000/svg">
<g id="laugh-beam">
<path id="Vector" d="M16 3C8.832 3 3 8.832 3 16C3 23.168 8.832 29 16 29C23.168 29 29 23.168 29 16C29 8.832 23.168 3 16 3ZM16 5C22.065 5 27 9.935 27 16C27 22.065 22.065 27 16 27C9.935 27 5 22.065 5 16C5 9.935 9.935 5 16 5ZM11 12C8.906 12 7.39062 13.207 7.39062 13.207L8.60938 14.793C8.60938 14.793 9.69295 14 11.002 14C12.311 14 13.3926 14.793 13.3926 14.793L14.6113 13.207C14.6093 13.207 13.094 12 11 12ZM21 12C18.906 12 17.3906 13.207 17.3906 13.207L18.6094 14.793C18.6094 14.793 19.693 14 21.002 14C22.311 14 23.3926 14.793 23.3926 14.793L24.6113 13.207C24.6093 13.207 23.094 12 21 12ZM9 19C9 19 10.605 24 16 24C21.395 24 23 19 23 19H9Z" fill="black"/>
</g>
</svg>
