<svg width="32" height="32" viewBox="0 0 32 32" fill="none" xmlns="http://www.w3.org/2000/svg">
<g id="leaf-solid">
<g clip-path="url(#clip0)">
<path id="Vector" d="M25.0312 4L24 4.46875C20.8203 5.87109 16.2266 6.39844 12.3125 7.78125C10.3555 8.47266 8.54297 9.39453 7.1875 10.875C5.83203 12.3555 5 14.3945 5 17C5 19.6953 6.58594 21.543 8.0625 22.5938C8.69141 23.043 9.30078 23.3672 9.8125 23.5938C9.19531 24.7383 8.73828 25.7695 8.4375 26.6562C7.89062 28.2539 7.80469 29.5039 7.84375 30.4062C7.88281 31.3086 8 31.9258 8 31.9062L10 32.0938C10.0625 31.3711 9.875 30.9922 9.84375 30.3125C9.8125 29.6328 9.87109 28.6992 10.3438 27.3125C11.2891 24.543 13.9102 19.9844 20.7188 12.6875L19.2812 11.3125C15.1992 15.6875 12.5625 19.0977 10.8438 21.8438C10.4062 21.668 9.82031 21.3984 9.21875 20.9688C8.05859 20.1445 7 18.9375 7 17C7 14.7969 7.62891 13.3438 8.65625 12.2188C9.68359 11.0938 11.1797 10.2891 12.9688 9.65625C16.207 8.51172 20.2148 7.93359 23.6562 6.65625C23.9766 7.87109 25 12.0312 25 18.5312C25 22.2188 24.1367 24.332 23.125 25.5C22.1133 26.668 20.8945 27 19.8125 27C18.7344 27 17.5703 26.4492 16.5625 25.75C15.5547 25.0508 14.8594 24.3203 14.1562 23.875L13.0938 25.5625C13.2734 25.6758 14.2695 26.5977 15.4375 27.4062C16.6055 28.2148 18.0859 29 19.8125 29C21.3516 29 23.2344 28.457 24.6562 26.8125C26.0781 25.168 27 22.5273 27 18.5312C27 10.7109 25.3438 5.09375 25.3438 5.09375L25.0312 4Z" fill="black"/>
</g>
</g>
<defs>
<clipPath id="clip0">
<rect width="32" height="32" fill="white"/>
</clipPath>
</defs>
</svg>
