<svg width="32" height="32" viewBox="0 0 32 32" fill="none" xmlns="http://www.w3.org/2000/svg">
<g id="leanpub">
<path id="Vector" d="M10.3438 6C6.95312 6 3.40625 7.90625 3.40625 7.90625L2.9375 8.15625L2.875 8.6875L1 24.875L0.8125 26.5938L2.40625 25.9062C2.40625 25.9062 6.52344 24.1875 10.4062 24.1875C12.707 24.1875 15.4688 25.8438 15.4688 25.8438L16 26.1875L16.5312 25.8438C16.5312 25.8438 19.293 24.1875 21.5938 24.1875C25.4766 24.1875 29.5938 25.9062 29.5938 25.9062L31.1875 26.5938L31 24.875L29.125 8.6875L29.0625 8.15625L28.5938 7.90625C28.5938 7.90625 25.0469 6 21.6562 6C18.7773 6 16.6836 7.25781 16 7.6875C15.3164 7.25781 13.2227 6 10.3438 6ZM10.3438 8C12.9297 8 15.4375 9.625 15.4375 9.625L16 10L16.5625 9.625C16.5625 9.625 19.0703 8 21.6562 8C23.9336 8 26.5195 9.1875 27.1875 9.5L28.8125 23.5312C27.2812 22.9805 24.7578 22.1875 21.5938 22.1875C18.8711 22.1875 16.6758 23.4648 16 23.875C15.3242 23.4648 13.1289 22.1875 10.4062 22.1875C7.24219 22.1875 4.71875 22.9805 3.1875 23.5312L4.8125 9.5C5.48047 9.1875 8.06641 8 10.3438 8ZM10.3438 9.5C8.89844 9.5 7.10547 10.1328 6.1875 10.5L4.9375 21.4375C6.89844 20.9492 8.73047 20.6875 10.4062 20.6875C12.5352 20.6875 14.5859 21.4648 16 22.1562C17.5078 21.4219 19.7812 20.6055 22.0312 20.7188L20.7812 9.59375C18.9688 9.87109 17.3945 10.8633 17.375 10.875L16 11.8125L14.5938 10.875C14.5742 10.8633 12.4922 9.5 10.3438 9.5Z" fill="black"/>
</g>
</svg>
