<svg width="32" height="32" viewBox="0 0 32 32" fill="none" xmlns="http://www.w3.org/2000/svg">
<g id="lemon-solid">
<path id="Vector" d="M13 4C10.418 4 8.12109 5.4375 6.53125 7.625C4.94141 9.8125 4 12.7656 4 16C4 19.2344 4.94141 22.1875 6.53125 24.375C8.12109 26.5625 10.418 28 13 28C21.2305 28 25.6172 23.293 26.6875 18.3438C27.4414 17.8008 28 16.9961 28 16C28 15.0039 27.4414 14.1992 26.6875 13.6562C25.5586 8.58203 20.3125 4 13 4ZM13 6C14.8359 6 16.5391 7.01562 17.8438 8.8125C19.1484 10.6094 20 13.1602 20 16C20 18.8398 19.1484 21.3906 17.8438 23.1875C16.5391 24.9844 14.8359 26 13 26C11.1641 26 9.46094 24.9844 8.15625 23.1875C6.85156 21.3906 6 18.8398 6 16C6 13.1602 6.85156 10.6094 8.15625 8.8125C9.46094 7.01562 11.1641 6 13 6ZM19.375 7.53125C22.4141 9.14062 24.3672 11.7891 24.8438 14.375L24.9375 14.875L25.4062 15.0938C25.7539 15.2539 26 15.5898 26 16C26 16.4102 25.7539 16.7461 25.4062 16.9062L24.9375 17.125L24.8438 17.625C24.3125 20.5195 22.5664 23.3594 19.0625 24.875C19.1992 24.7109 19.3398 24.5508 19.4688 24.375C21.0586 22.1875 22 19.2344 22 16C22 12.7656 21.0586 9.8125 19.4688 7.625C19.4414 7.58984 19.4023 7.56641 19.375 7.53125ZM13 8C12.2852 8 11.6133 8.25781 11 8.6875L13.0312 13.4688L15.0938 8.71875C14.4609 8.25391 13.7422 8 13 8ZM9.5 10.2812C8.71484 11.5117 8.17578 13.1602 8.03125 15H11.5L9.5 10.2812ZM16.5625 10.375L14.5312 15H17.9688C17.8281 13.2031 17.3203 11.5977 16.5625 10.375ZM8.03125 17C8.17188 18.7969 8.67969 20.4023 9.4375 21.625L11.4688 17H8.03125ZM14.5 17L16.5 21.7188C17.2852 20.4883 17.8242 18.8398 17.9688 17H14.5ZM12.9688 18.5312L10.9062 23.2812C11.5391 23.7461 12.2578 24 13 24C13.7148 24 14.3867 23.7422 15 23.3125L12.9688 18.5312Z" fill="black"/>
</g>
</svg>
