<svg width="32" height="32" viewBox="0 0 32 32" fill="none" xmlns="http://www.w3.org/2000/svg">
<g id="less">
<path id="Vector" d="M3.25586 9.15039C1.83586 9.15039 1.20508 9.70016 1.20508 11.4102C1.20508 12.5402 1.36523 13.1706 1.36523 14.1406C1.36523 14.6906 1.02695 15.2703 0.00195312 15.3203V16.6855C1.02695 16.7105 1.36523 17.2918 1.36523 17.8418C1.36523 18.8118 1.20508 19.3915 1.20508 20.5215C1.20508 22.2315 1.83547 22.7812 3.23047 22.7812H4.25586V21.5703H3.94141C3.28641 21.5703 3.07617 21.3064 3.07617 20.4414C3.07617 19.5764 3.15625 18.8352 3.15625 17.8652C3.15625 16.6552 2.76156 16.187 1.97656 16.002V15.9219C2.76656 15.7369 3.15625 15.2666 3.15625 14.0566C3.15625 13.1116 3.07617 12.3455 3.07617 11.4805C3.07617 10.6155 3.26141 10.377 3.94141 10.377H4.64648V17.918C4.64648 19.523 5.19578 20.5723 6.80078 20.5723C7.30078 20.5723 7.69547 20.4917 7.98047 20.3867L7.7168 18.6777C7.5618 18.7187 7.48625 18.7188 7.40625 18.7188C7.22125 18.7188 6.98633 18.5575 6.98633 18.0625V9.15039H3.25586ZM27.7441 9.15625V10.3672H28.0605C28.7705 10.3672 28.9258 10.6027 28.9258 11.4727C28.9258 12.2877 28.8457 13.1019 28.8457 14.0469C28.8457 15.2569 29.2404 15.7271 30.0254 15.9121V15.9922C29.2354 16.1772 28.8457 16.6474 28.8457 17.8574C28.8457 18.8024 28.9258 19.5666 28.9258 20.4316C28.9258 21.3266 28.7405 21.5625 28.0605 21.5625V21.5879H27.7441V22.8477H28.7695C30.1595 22.8477 30.7949 22.2979 30.7949 20.5879C30.7949 19.4579 30.6348 18.8774 30.6348 17.8574C30.6348 17.3074 30.975 16.7277 32 16.6777V15.3125C30.975 15.2775 30.6348 14.6965 30.6348 14.1465C30.6348 13.1215 30.7949 12.518 30.7949 11.418C30.7949 9.70797 30.1645 9.15625 28.7695 9.15625H27.7441ZM11.2422 12.3066C9.32219 12.3066 7.48516 13.9126 7.53516 16.4336C7.53516 19.0336 9.24595 20.5586 11.502 20.5586C12.447 20.5586 13.4975 20.2191 14.3125 19.6641L13.5215 18.2734C12.9415 18.6134 12.3925 18.7734 11.8125 18.7734C10.7625 18.7734 9.94633 18.2745 9.73633 17.0645H14.498C14.523 16.8795 14.5781 16.5138 14.5781 16.0938C14.6071 13.9618 13.4472 12.3066 11.2422 12.3066ZM18.3086 12.332C16.5236 12.332 15.3125 13.3577 15.3125 14.8027C15.3125 16.0877 16.4437 16.7463 17.3887 17.1113C18.2037 17.4263 18.9922 17.6918 18.9922 18.2168C18.9922 18.6118 18.6787 18.8711 17.9688 18.8711C17.3137 18.8711 16.6534 18.6066 15.9434 18.0566L14.918 19.582C15.708 20.237 16.9121 20.6875 17.9121 20.6875C20.0121 20.6875 21.1445 19.5817 21.1445 18.1367C21.1485 16.6927 20.0172 16.0871 18.9922 15.7461C18.1772 15.4311 17.4434 15.2477 17.4434 14.7227C17.4434 14.3277 17.7579 14.0918 18.3379 14.0918C18.9179 14.0918 19.4426 14.3261 20.0176 14.7461L21.0684 13.3574C20.4134 12.8574 19.5186 12.332 18.3086 12.332ZM24.6934 12.332C22.9084 12.332 21.6992 13.3577 21.6992 14.8027C21.6992 16.0877 22.8284 16.7463 23.7734 17.1113C24.5884 17.4263 25.3789 17.6918 25.3789 18.2168C25.3789 18.6118 25.0635 18.8711 24.3535 18.8711C23.6985 18.8711 23.0381 18.6066 22.3281 18.0566L21.2793 19.582C22.0693 20.237 23.2734 20.6875 24.2734 20.6875C26.3734 20.6875 27.5059 19.5817 27.5059 18.1367C27.5059 16.6917 26.3785 16.0871 25.3535 15.7461C24.5635 15.4311 23.8281 15.2477 23.8281 14.7227C23.8281 14.3277 24.1446 14.0918 24.7246 14.0918C25.3046 14.0918 25.8293 14.3261 26.4043 14.7461L27.4531 13.3574C26.7981 12.8574 25.9034 12.332 24.6934 12.332ZM11.2676 14.0664C12.2126 14.0664 12.582 14.7222 12.582 15.6172H9.74219C9.90219 14.5672 10.5326 14.0664 11.2676 14.0664Z" fill="black"/>
</g>
</svg>
