<svg width="32" height="32" viewBox="0 0 32 32" fill="none" xmlns="http://www.w3.org/2000/svg">
<g id="life-ring-solid">
<path id="Vector" d="M16 4C9.38281 4 4 9.38281 4 16C4 22.6172 9.38281 28 16 28C22.6172 28 28 22.6172 28 16C28 9.38281 22.6172 4 16 4ZM16 6C16.3359 6 16.6719 6.03125 17 6.0625V9.09375C16.6719 9.04688 16.3398 9 16 9C15.6602 9 15.3281 9.04688 15 9.09375V6.0625C15.3281 6.03125 15.6641 6 16 6ZM13 6.4375V9.6875C11.5469 10.3828 10.3789 11.5469 9.6875 13H6.46875C7.44141 9.875 9.88281 7.41406 13 6.4375ZM19 6.4375C22.1133 7.41406 24.5859 9.88672 25.5625 13H22.3125C21.6211 11.5469 20.4531 10.3789 19 9.6875V6.4375ZM16 11C18.7734 11 21 13.2266 21 16C21 18.7734 18.7734 21 16 21C13.2266 21 11 18.7734 11 16C11 13.2266 13.2266 11 16 11ZM6.0625 15H9.0625C9.01562 15.3242 9 15.6641 9 16C9 16.3398 9.04688 16.6719 9.09375 17H6.0625C6.03125 16.6719 6 16.3359 6 16C6 15.6641 6.03125 15.3281 6.0625 15ZM22.9062 15H25.9375C25.9688 15.3281 26 15.6641 26 16C26 16.3359 25.9688 16.6719 25.9375 17H22.9062C22.9531 16.6719 23 16.3398 23 16C23 15.6602 22.9531 15.3281 22.9062 15ZM6.4375 19H9.6875C10.3789 20.4531 11.5469 21.6211 13 22.3125V25.5625C9.88672 24.5859 7.41406 22.1133 6.4375 19ZM22.3125 19H25.5625C24.5859 22.1133 22.1133 24.5859 19 25.5625V22.3125C20.4531 21.6211 21.6211 20.4531 22.3125 19ZM15 22.9062C15.3281 22.9531 15.6602 23 16 23C16.3398 23 16.6719 22.9531 17 22.9062V25.9375C16.6719 25.9688 16.3359 26 16 26C15.6641 26 15.3281 25.9688 15 25.9375V22.9062Z" fill="black"/>
</g>
</svg>
