<svg width="32" height="32" viewBox="0 0 32 32" fill="none" xmlns="http://www.w3.org/2000/svg">
<g id="lightbulb-solid">
<path id="Vector" d="M16 4C11.043 4 7 8.04297 7 13C7 14.918 7.84375 16.9062 9 18.6875C9.85938 20.0117 10.8867 21.2305 12 22.1562V25C12 26.0938 12.9062 27 14 27L15 28H17L18 27C19.0938 27 20 26.0938 20 25V22.1562C21.1133 21.2305 22.1406 20.0117 23 18.6875C24.1562 16.9062 25 14.918 25 13C25 8.04297 20.957 4 16 4ZM16 6C19.8789 6 23 9.12109 23 13C23 14.3086 22.3555 16.0352 21.3438 17.5938C20.4414 18.9844 19.2539 20.2227 18.1562 21H13.8438C12.7461 20.2227 11.5586 18.9844 10.6562 17.5938C9.64453 16.0352 9 14.3086 9 13C9 9.12109 12.1211 6 16 6ZM14.25 23H17.75C17.8281 23.0547 17.9102 23.0938 18 23.125V25H14V23.125C14.0898 23.0938 14.1719 23.0547 14.25 23Z" fill="black"/>
</g>
</svg>
