<svg width="32" height="32" viewBox="0 0 32 32" fill="none" xmlns="http://www.w3.org/2000/svg">
<g id="line">
<path id="Vector" d="M9.625 5C7.08984 5 5 7.08984 5 9.625V22.375C5 24.9102 7.08984 27 9.625 27H22.375C24.9102 27 27 24.9102 27 22.375V9.625C27 7.08984 24.9102 5 22.375 5H9.625ZM9.625 7H22.375C23.8281 7 25 8.17188 25 9.625V22.375C25 23.8281 23.8281 25 22.375 25H9.625C8.17188 25 7 23.8281 7 22.375V9.625C7 8.17188 8.17188 7 9.625 7ZM16 9.21875C11.9844 9.21875 8.71875 11.8672 8.71875 15.125C8.71875 18.0469 11.3125 20.4766 14.8125 20.9375C15.0508 20.9883 15.3555 21.1094 15.4375 21.3125C15.5117 21.4961 15.4922 21.7812 15.4688 21.9688C15.4688 21.9688 15.3945 22.4844 15.375 22.5938C15.3438 22.7773 15.2227 23.3281 16 23C16.7773 22.6719 20.1914 20.5078 21.7188 18.75C22.7734 17.5938 23.2812 16.4297 23.2812 15.125C23.2812 11.8672 20.0156 9.21875 16 9.21875ZM11.7188 13.4062C11.9297 13.4062 12.0938 13.5703 12.0938 13.7812V16.2812H13.1562C13.3672 16.2812 13.5312 16.4766 13.5312 16.6875C13.5312 16.8984 13.3672 17.0625 13.1562 17.0625H11.7188C11.5078 17.0625 11.3125 16.8984 11.3125 16.6875V13.7812C11.3125 13.5703 11.5078 13.4062 11.7188 13.4062ZM14.2812 13.4062C14.4922 13.4062 14.6562 13.5703 14.6562 13.7812V16.6875C14.6562 16.8984 14.4922 17.0625 14.2812 17.0625C14.0703 17.0625 13.875 16.8984 13.875 16.6875V13.7812C13.875 13.5703 14.0703 13.4062 14.2812 13.4062ZM15.4688 13.4062C15.5078 13.3945 15.5547 13.4062 15.5938 13.4062C15.7109 13.4062 15.8047 13.4648 15.875 13.5625L17.375 15.5625V13.7812C17.375 13.5703 17.5391 13.4062 17.75 13.4062C17.9609 13.4062 18.125 13.5703 18.125 13.7812V16.6875C18.125 16.8516 18.0312 16.9805 17.875 17.0312C17.8359 17.043 17.7891 17.0625 17.75 17.0625C17.6328 17.0625 17.5078 17.0039 17.4375 16.9062L15.9688 14.875V16.6875C15.9688 16.8984 15.8047 17.0625 15.5938 17.0625C15.3828 17.0625 15.1875 16.8984 15.1875 16.6875V13.7812C15.1875 13.6172 15.3125 13.457 15.4688 13.4062ZM19.0312 13.4062H20.4688C20.6797 13.4062 20.8438 13.5703 20.8438 13.7812C20.8438 13.9922 20.6797 14.1562 20.4688 14.1562H19.4062V14.8438H20.4688C20.6797 14.8438 20.8438 15.0078 20.8438 15.2188C20.8438 15.4297 20.6797 15.625 20.4688 15.625H19.4062V16.2812H20.4688C20.6797 16.2812 20.8438 16.4766 20.8438 16.6875C20.8438 16.8984 20.6797 17.0625 20.4688 17.0625H19.0312C18.8203 17.0625 18.6562 16.8984 18.6562 16.6875V13.7812C18.6562 13.5703 18.8203 13.4062 19.0312 13.4062Z" fill="black"/>
</g>
</svg>
