<svg width="32" height="32" viewBox="0 0 32 32" fill="none" xmlns="http://www.w3.org/2000/svg">
<g id="link-solid">
<path id="Vector" d="M21.75 4C20.0781 4 18.4922 4.66016 17.3125 5.84375L15.8438 7.3125C14.6602 8.49609 14 10.0781 14 11.75C14 12.543 14.1523 13.3164 14.4375 14.0312L16.0625 12.4062C15.8594 11.1094 16.2539 9.71484 17.25 8.71875L18.7188 7.25C19.5234 6.44531 20.6133 6 21.75 6C22.8867 6 23.9453 6.44531 24.75 7.25C26.4102 8.91016 26.4102 11.6211 24.75 13.2812L23.2812 14.75C22.4766 15.5547 21.3867 16 20.25 16C20.0273 16 19.8086 15.9766 19.5938 15.9375L17.9688 17.5625C18.6836 17.8477 19.457 18 20.25 18C21.9219 18 23.5078 17.3398 24.6875 16.1562L26.1562 14.6875C27.3398 13.5039 28 11.9219 28 10.25C28 8.57812 27.3398 7.02734 26.1562 5.84375C24.9766 4.66016 23.4219 4 21.75 4ZM19.2812 11.2812L11.2812 19.2812L12.7188 20.7188L20.7188 12.7188L19.2812 11.2812ZM11.75 14C10.0781 14 8.49219 14.6602 7.3125 15.8438L5.84375 17.3125C4.66016 18.4961 4 20.0781 4 21.75C4 23.4219 4.66016 24.9727 5.84375 26.1562C7.02344 27.3398 8.57812 28 10.25 28C11.9219 28 13.5078 27.3398 14.6875 26.1562L16.1562 24.6875C17.3398 23.5039 18 21.9219 18 20.25C18 19.457 17.8477 18.6836 17.5625 17.9688L15.9375 19.5938C16.1406 20.8906 15.7461 22.2852 14.75 23.2812L13.2812 24.75C12.4766 25.5547 11.3867 26 10.25 26C9.11328 26 8.05469 25.5547 7.25 24.75C5.58984 23.0898 5.58984 20.3789 7.25 18.7188L8.71875 17.25C9.52344 16.4453 10.6133 16 11.75 16C11.9727 16 12.1914 16.0234 12.4062 16.0625L14.0312 14.4375C13.3164 14.1523 12.543 14 11.75 14Z" fill="black"/>
</g>
</svg>
