<svg width="32" height="32" viewBox="0 0 32 32" fill="none" xmlns="http://www.w3.org/2000/svg">
<g id="linkedin">
<path id="Vector" d="M7.5 5C6.13281 5 5 6.13281 5 7.5V24.5C5 25.8672 6.13281 27 7.5 27H24.5C25.8672 27 27 25.8672 27 24.5V7.5C27 6.13281 25.8672 5 24.5 5H7.5ZM7.5 7H24.5C24.7852 7 25 7.21484 25 7.5V24.5C25 24.7852 24.7852 25 24.5 25H7.5C7.21484 25 7 24.7852 7 24.5V7.5C7 7.21484 7.21484 7 7.5 7ZM10.4375 8.71875C9.48828 8.71875 8.71875 9.48828 8.71875 10.4375C8.71875 11.3867 9.48828 12.1562 10.4375 12.1562C11.3867 12.1562 12.1562 11.3867 12.1562 10.4375C12.1562 9.48828 11.3867 8.71875 10.4375 8.71875ZM19.4688 13.2812C18.0352 13.2812 17.082 14.0664 16.6875 14.8125H16.625V13.5H13.8125V23H16.75V18.3125C16.75 17.0742 16.9961 15.875 18.5312 15.875C20.043 15.875 20.0625 17.2734 20.0625 18.375V23H23V17.7812C23 15.2266 22.457 13.2812 19.4688 13.2812ZM9 13.5V23H11.9688V13.5H9Z" fill="black"/>
</g>
</svg>
