<svg width="32" height="32" viewBox="0 0 32 32" fill="none" xmlns="http://www.w3.org/2000/svg">
<g id="linode">
<path id="Vector" d="M11.5 3L5.53125 4.90625L9.875 7.5625L16.25 5.15625L11.875 3.0625C11.7695 3.00781 11.6055 3 11.5 3ZM5 5.84375L6.3125 12.1875C6.3125 12.293 6.42578 12.3945 6.53125 12.5L10.3438 15.5L9.3125 8.46875L5 5.84375ZM16.7188 6.09375L10.4062 8.46875L11.4688 15.4375L16.7188 12.7188C16.875 12.6641 16.9688 12.4609 16.9688 12.25L16.7188 6.09375ZM22.9688 12.2188C22.875 12.2188 22.7656 12.2617 22.6875 12.3125L19.7188 14.1875L23.1875 16.3438L26.375 14.0312L23.2188 12.3125C23.1406 12.2617 23.0625 12.2188 22.9688 12.2188ZM6.71875 13.9688L7.84375 19.5312C7.84375 19.6367 7.89453 19.7578 8 19.8125L11.4688 23.0625L10.625 17.0625L6.71875 13.9688ZM17.0312 13.9688L11.7812 16.9688L12.5 23.0625L17.0312 20.0312C17.1875 19.9258 17.3047 19.7422 17.25 19.5312L17.0312 13.9688ZM27 14.875L26.9062 14.9688C26.8516 15.0234 26.8633 15.0938 26.8125 15.0938L23.5938 17.2812L23.4375 20.6562V20.8438L26.3125 18.5938C26.418 18.4883 26.4805 18.3867 26.5312 18.2812L27 14.875ZM18.5938 14.9375C18.4961 14.9375 18.3867 14.9805 18.2812 15.0312L18.1875 15.0938L18.3438 19.5312C18.3438 19.6367 18.3359 19.8008 18.2812 19.9062L22.0625 17.125L18.875 15.0312C18.7969 14.9805 18.6914 14.9375 18.5938 14.9375ZM22.6562 17.9688L18.4375 20.9062L18.5625 24.5312V24.8125L22.2188 21.9062C22.3242 21.8008 22.4375 21.6875 22.4375 21.5312L22.6562 17.9688ZM8.3125 21.2188L9.09375 25.4375C9.09375 25.543 9.14453 25.582 9.25 25.6875L12.4062 29L12.3125 28.7812L11.625 24.4375L8.3125 21.2188ZM17.4375 21.2812L12.7188 24.3125L13.3438 28.6875L13.4062 29L17.3438 25.8438C17.5 25.7383 17.5625 25.5938 17.5625 25.4375L17.4375 21.2812Z" fill="black"/>
</g>
</svg>
