<svg width="32" height="32" viewBox="0 0 32 32" fill="none" xmlns="http://www.w3.org/2000/svg">
<g id="list-alt-solid">
<path id="Vector" d="M10.2812 5.28125L7 8.5625L5.71875 7.28125L4.28125 8.71875L6.28125 10.7188L7 11.4062L7.71875 10.7188L11.7188 6.71875L10.2812 5.28125ZM15 7V9H28V7H15ZM10.2812 13.2812L7 16.5625L5.71875 15.2812L4.28125 16.7188L6.28125 18.7188L7 19.4062L7.71875 18.7188L11.7188 14.7188L10.2812 13.2812ZM15 15V17H28V15H15ZM10.2812 21.2812L7 24.5625L5.71875 23.2812L4.28125 24.7188L6.28125 26.7188L7 27.4062L7.71875 26.7188L11.7188 22.7188L10.2812 21.2812ZM15 23V25H28V23H15Z" fill="black"/>
</g>
</svg>
