<svg width="32" height="32" viewBox="0 0 32 32" fill="none" xmlns="http://www.w3.org/2000/svg">
<g id="list-ol-solid">
<path id="Vector" d="M5.96875 3L5.65625 3.34375C5.65625 3.34375 4.89844 4 4.40625 4V6C5.08594 6 5.55469 5.72266 6 5.46875V10H8V3H5.96875ZM11 6V8H28V6H11ZM6.5 12C5.11719 12 4 13.1172 4 14.5V15H6V14.5C6 14.2852 6.28516 14 6.5 14C6.71484 14 7 14.2852 7 14.5L6.90625 14.5938L4.3125 17.0938L4 17.375V19H9V17H7.28125L8.15625 16.125L8.28125 16.0312L8.25 16C8.75 15.5898 9 14.9805 9 14.5C9 13.1172 7.88281 12 6.5 12ZM11 15V17H28V15H11ZM4 21V23H5.375L5.125 23.4062L5 23.625V25H6.5C6.71484 25 7 25.2852 7 25.5C7 25.7148 6.71484 26 6.5 26H4V28H6.5C7.88281 28 9 26.8828 9 25.5C9 24.4961 8.32031 23.8047 7.46875 23.4062L7.875 22.7188L8 22.4688V21H4ZM11 24V26H28V24H11Z" fill="black"/>
</g>
</svg>
