<svg width="32" height="32" viewBox="0 0 32 32" fill="none" xmlns="http://www.w3.org/2000/svg">
<g id="low-vision-solid">
<path id="Vector" d="M3.71875 2.28125L2.28125 3.71875L28.2812 29.7188L29.7188 28.2812L23.125 21.6875C26.4375 19.6211 28.6367 16.9023 28.7812 16.7188L29 16.4375V15.5312L28.75 15.25C28.4961 14.9531 22.5234 8 16 8C14.0977 8 12.3203 8.53125 10.7188 9.28125L3.71875 2.28125ZM16 10C20.6484 10 25.2812 14.4805 26.75 16.0312C25.9375 16.9492 24.0977 18.832 21.6875 20.25L19.4375 18C20.3359 16.4688 20.1289 14.4727 18.8125 13.1562C17.4961 11.8398 15.5312 11.6641 14 12.5625L12.25 10.8125C13.4336 10.3359 14.6836 10 16 10ZM7.75 11.0312C5.07031 12.957 3.34766 15.1211 3.21875 15.2812L3 15.5312V16.4688L3.25 16.75C3.51172 17.0469 9.71875 24 16 24C17.3984 24 18.75 23.7266 20 23.2812L7.75 11.0312ZM8.375 13.0938L17.1875 21.9062C16.8008 21.9609 16.3984 22 16 22C15.5156 22 15.0195 21.9414 14.5312 21.8438L6.96875 14.25C7.38281 13.8711 7.86328 13.4883 8.375 13.0938ZM6.21875 14.9375L12.5312 21.2188C9.28906 19.8672 6.37891 17.1211 5.25 15.9688C5.48438 15.7031 5.82031 15.332 6.21875 14.9375Z" fill="black"/>
</g>
</svg>
