<svg width="32" height="32" viewBox="0 0 32 32" fill="none" xmlns="http://www.w3.org/2000/svg">
<g id="lyft">
<path id="Vector" d="M2 8V19C2 20.657 3.343 22 5 22H7.0625C6.4095 21.363 6 20.478 6 19.5V16V9.5V8H2ZM22.5 8C19.462 8 17 10.462 17 13.5V15V16V22C19.209 22 21 20.209 21 18H23V14H21V13.5C21 12.672 21.672 12 22.5 12C23.328 12 24 12.672 24 13.5V16V17C24 19.761 26.239 22 29 22H30V18C28.895 18 28 17.105 28 16H30V12H27.7871C27.1331 9.693 25.017 8 22.5 8ZM7 12V19C7 20.65 8.35 22 10 22H10.5C11.209 22 11.867 21.7858 12.418 21.4238C12.287 21.6208 12.1387 21.8057 11.9707 21.9707C11.3407 22.6107 10.46 23 9.5 23C8.96 23 8.45 22.8804 8 22.6504V25.5801C8.61 25.8501 9.29 26 10 26H11C13.75 26 16 23.75 16 21V12H12V17.5C12 17.775 11.775 18 11.5 18C11.225 18 11 17.775 11 17.5V12H7Z" fill="black"/>
</g>
</svg>
