<svg width="32" height="32" viewBox="0 0 32 32" fill="none" xmlns="http://www.w3.org/2000/svg">
<g id="magic-solid">
<path id="Vector" d="M20.875 2.5625L20.1875 3.3125L18.5 5.09375H14.9062V8.59375L13.1875 10.4062L12.5 11.125L14.6875 13.3125L3.03125 25L2.3125 25.7188L3.03125 26.4062L6.3125 29.6875L7 28.9688L18.6875 17.3125L20.875 19.5L21.5938 18.8125L23.4062 17.0938H26.9062V13.5L28.6875 11.8125L29.4375 11.125L26.9062 8.59375V5.09375H23.4062L20.875 2.5625ZM20.9062 5.4375L22.2812 6.8125L22.5938 7.09375H24.9062V9.40625L25.1875 9.71875L26.5625 11.0938L25.2188 12.375L24.9062 12.6562V15.0938H22.5938L22.3125 15.375L20.9062 16.7188L20.0938 15.9062L24.625 11.375L20.6562 7.40625L19.9375 8.09375L16.125 11.9375L15.2812 11.0938L16.625 9.6875L16.9062 9.40625V7.09375H19.3438L19.625 6.78125L20.9062 5.4375ZM20.6562 10.2188L21.7812 11.375L6.3125 26.875L5.15625 25.7188L20.6562 10.2188ZM19 21V22H18V24H19V25H21V24H22V22H21V21H19ZM25 23V25H23V27H25V29H27V27H29V25H27V23H25Z" fill="black"/>
</g>
</svg>
