<svg width="32" height="32" viewBox="0 0 32 32" fill="none" xmlns="http://www.w3.org/2000/svg">
<g id="mailchimp">
<path id="Vector" d="M14.7285 4.00782C10.1972 4.34178 1.94584 14.2853 5.10547 16.9531L5.89453 17.6231C5.68153 18.1941 5.60678 18.8081 5.67578 19.4141C5.85578 21.1991 7.59916 22.6446 9.28516 22.6426C12.3712 29.7556 23.6057 29.7667 26.5137 22.8027C26.6057 22.5627 27 21.4852 27 20.5352C27 19.5852 26.4602 19.1856 26.1152 19.1856C25.9362 18.5586 25.8205 18.4864 25.6035 18.1914C25.7345 17.9954 26.4205 16.9079 25.4395 15.8789C24.8835 15.2949 23.7756 14.8922 23.3906 14.7852C23.3106 14.1762 23.6392 11.6467 22.2402 10.3477C23.3512 9.19666 24.002 7.92885 24 6.83985C23.997 4.74685 21.4707 4.11284 18.3027 5.42384L17.6309 5.70899C17.6279 5.70599 16.4164 4.51991 16.3984 4.50391C15.9471 4.11016 15.3758 3.96011 14.7285 4.00782ZM15.1406 4.87306C15.2704 4.87934 15.3937 4.89888 15.5078 4.9297C15.8048 5.0137 16.7871 6.15235 16.7871 6.15235C16.7871 6.15235 14.9615 7.16418 13.2695 8.57618C10.9885 10.3332 9.26637 12.8853 8.23437 15.6543C7.42437 15.8123 6.70848 16.2722 6.27148 16.9082C6.01048 16.6902 5.52445 16.2665 5.43945 16.1055C4.74445 14.7775 6.19975 12.2031 7.21875 10.7481C9.57937 7.37868 13.1935 4.77872 15.1406 4.87306ZM18.3262 8.14259C18.3492 8.14059 18.3671 8.15965 18.3691 8.18165C18.3701 8.19565 18.3645 8.20781 18.3535 8.2168C18.1995 8.3358 18.0604 8.47587 17.9414 8.63087C17.9284 8.64887 17.9332 8.67255 17.9512 8.68555C17.9582 8.69056 17.9656 8.69237 17.9746 8.69337C18.6326 8.69837 19.559 8.92859 20.166 9.26759C20.207 9.29059 20.1788 9.36938 20.1328 9.35938C16.4148 8.50738 13.5524 10.3519 12.9414 10.7949C12.9224 10.8069 12.8987 10.8003 12.8867 10.7813C12.8767 10.7663 12.8777 10.7484 12.8887 10.7344H12.8848C13.7798 9.70038 14.8821 8.80188 15.8691 8.29688C15.8881 8.28588 15.9109 8.29155 15.9219 8.31055C15.9289 8.32256 15.9289 8.33662 15.9219 8.34962C15.8439 8.49162 15.6925 8.7954 15.6445 9.0254C15.6395 9.0474 15.6538 9.06923 15.6758 9.07423C15.6868 9.07723 15.698 9.07437 15.707 9.06837C16.321 8.64937 17.3902 8.20059 18.3262 8.14259ZM21.5078 11.3613C21.6316 11.3818 21.7514 11.4271 21.8594 11.4961C22.3944 11.8511 22.4681 12.7109 22.4961 13.3399C22.5121 13.6989 22.5553 14.5684 22.5703 14.8164C22.6043 15.3864 22.7546 15.4675 23.0586 15.5645C23.2296 15.6205 23.3861 15.6625 23.6191 15.7285C24.3251 15.9265 24.5933 16.2312 24.8613 16.4902C24.9973 16.6242 25.0872 16.7973 25.1152 16.9863C25.1982 17.5943 24.7923 18.2418 23.3223 18.9238C20.8253 20.0828 18.3142 19.6953 17.9512 19.6543C16.8742 19.5093 16.2602 20.9025 16.9062 21.8555C18.1162 23.6415 23.4481 22.9249 24.9961 20.7149C25.0331 20.6619 25.002 20.6282 24.957 20.6602C22.724 22.1882 19.7708 22.7028 18.0918 22.0508C17.8368 21.9518 17.3033 21.7072 17.2383 21.1602C19.5693 21.8812 21.0332 21.1992 21.0332 21.1992C21.0332 21.1992 21.1419 21.0485 21.0039 21.0625C21.0039 21.0625 19.0931 21.3446 17.2871 20.6836C17.6191 19.6056 18.7295 21.0093 22.4395 19.9453C23.2565 19.7113 24.1816 19.3544 25.0176 18.6934C25.2646 18.9504 25.4739 19.4427 25.5469 19.8887C25.7429 19.8537 26.3082 19.8595 26.1582 20.8555C25.9822 21.9175 25.5324 22.7802 24.7734 23.5742C24.2994 24.0882 23.7344 24.5103 23.1074 24.8203C22.7584 25.0033 22.3955 25.1563 22.0215 25.2793C19.1615 26.2133 16.2312 25.1865 15.2852 22.9805C15.2082 22.8125 15.1457 22.638 15.0957 22.459C14.6927 21.005 15.0355 19.2601 16.1035 18.1621C16.1695 18.0921 16.2363 18.0103 16.2363 17.9063C16.2273 17.8173 16.1908 17.7331 16.1328 17.6641C15.7588 17.1231 14.4666 16.1991 14.7266 14.4121C14.9136 13.1291 16.035 12.2253 17.082 12.2793L17.3496 12.2949C17.8026 12.3219 18.1983 12.3795 18.5723 12.3945C19.1973 12.4215 19.7588 12.3314 20.4238 11.7774C20.6488 11.5904 20.8288 11.428 21.1328 11.377C21.2568 11.346 21.3841 11.3408 21.5078 11.3613ZM21.3066 13.5293C20.9736 13.5833 20.9611 13.9974 21.0801 14.5684C21.1471 14.8894 21.2664 15.162 21.4004 15.332C21.5654 15.311 21.7315 15.311 21.8965 15.332C21.9855 15.127 22.0019 14.7756 21.9219 14.3926C21.8029 13.8226 21.6396 13.4753 21.3066 13.5293ZM17.4883 15.084C17.2062 15.118 16.9318 15.223 16.6953 15.3965C16.5353 15.5135 16.3842 15.6754 16.4062 15.7734C16.4512 15.9734 16.9422 15.6289 17.6152 15.5879C17.9892 15.5649 18.2991 15.6812 18.5371 15.7852C18.7761 15.8922 18.9225 15.9604 18.9805 15.9004C19.0815 15.7964 18.794 15.3972 18.332 15.1992C18.061 15.0867 17.7704 15.05 17.4883 15.084ZM21.7891 15.8789V15.8809C21.3801 15.8739 21.3644 16.7254 21.7754 16.7324C22.1864 16.7394 22.2011 15.8869 21.7891 15.8789ZM18.0566 16.0606C17.5716 16.1366 17.2539 16.4086 17.3359 16.5996C17.3839 16.6176 17.3983 16.6426 17.6133 16.5566C17.9323 16.4366 18.2782 16.4011 18.6152 16.4531C18.7712 16.4711 18.8449 16.4817 18.8789 16.4277C18.9569 16.3087 18.5746 15.9996 18.0566 16.0606ZM20.4102 16.4512C20.3159 16.4622 20.2327 16.5069 20.1875 16.5996C20.0059 16.9687 20.7677 17.3391 20.9512 16.9746C21.0869 16.6994 20.6929 16.4182 20.4102 16.4512ZM8.89648 16.4805C9.86668 16.5111 10.817 17.1962 11.0449 18.668C11.2879 20.252 10.7947 21.7948 9.2207 21.7578L9.22266 21.7598C8.00266 21.7268 6.68569 20.6282 6.55469 19.3262C6.36906 17.4829 7.64908 16.4411 8.89648 16.4805ZM8.82617 17.4004C8.4668 17.3896 8.12123 17.5497 7.92773 17.7637C7.46173 18.2767 7.46116 19.0218 7.66016 19.0508C7.88816 19.0808 7.87869 18.7057 8.05469 18.4297C8.26069 18.1117 8.68591 18.0206 9.00391 18.2266C9.00591 18.2276 9.00776 18.2285 9.00976 18.2305C9.62976 18.6365 9.08186 19.1788 9.13086 19.7598C9.20486 20.6518 10.1162 20.6342 10.2852 20.2402C10.3072 20.2002 10.3024 20.1512 10.2734 20.1152C10.2754 20.1632 10.3107 20.0477 10.0957 20.0957L10.0937 20.0977C10.0227 20.1147 9.77262 20.1767 9.64062 19.9727C9.36262 19.5447 10.2348 18.8836 9.80078 18.0606C9.55778 17.5936 9.18555 17.4111 8.82617 17.4004Z" fill="black"/>
</g>
</svg>
