<svg width="32" height="32" viewBox="0 0 32 32" fill="none" xmlns="http://www.w3.org/2000/svg">
<g id="mail-bulk-solid">
<path id="Vector" d="M6 5V15H2V28H19V24H30V11H23V5H6ZM8 7H21V11H12V15H8V7ZM14 13H28V22H19V15H14V13ZM23 15V17H26V15H23ZM4 17H6H13H17V18.1133L10.9609 21.8672C10.6819 22.0412 10.3191 22.0422 10.0391 21.8672L4 18.1152V17ZM17 20.4688V26H4V20.4707L8.98242 23.5664C9.45042 23.8574 9.976 24.0039 10.5 24.0039C11.024 24.0039 11.5486 23.8575 12.0156 23.5645L17 20.4688Z" fill="black"/>
</g>
</svg>
