<svg width="32" height="32" viewBox="0 0 32 32" fill="none" xmlns="http://www.w3.org/2000/svg">
<g id="male-solid">
<path id="Vector" d="M16 2C13.8008 2 12 3.80078 12 6C12 7.06641 12.4336 8.03125 13.125 8.75C11.2734 9.77344 10 11.7461 10 14V19.4062L10.2812 19.7188L12 21.4375V30H14V20.5938L13.7188 20.2812L12 18.5625V14C12 11.7812 13.7812 10 16 10C18.2188 10 20 11.7812 20 14V18.5625L18.2812 20.2812L18 20.5938V30H20V21.4375L21.7188 19.7188L22 19.4062V14C22 11.7461 20.7266 9.77344 18.875 8.75C19.5664 8.03125 20 7.06641 20 6C20 3.80078 18.1992 2 16 2ZM16 4C17.1172 4 18 4.88281 18 6C18 7.11719 17.1172 8 16 8C14.8828 8 14 7.11719 14 6C14 4.88281 14.8828 4 16 4Z" fill="black"/>
</g>
</svg>
