<svg width="32" height="32" viewBox="0 0 32 32" fill="none" xmlns="http://www.w3.org/2000/svg">
<g id="mandalorian">
<path id="Vector" d="M19.6465 2L19.3945 2.12305C19.1505 2.24405 19.1315 2.24948 18.5605 2.27148L17.9726 2.29297L17.7344 2.42383C17.5124 2.54583 17.4866 2.55067 17.3496 2.51367C17.2546 2.48467 17.1622 2.44453 17.0762 2.39453C16.9742 2.34153 16.863 2.30602 16.748 2.29102C16.64 2.27702 16.5327 2.2518 16.4297 2.2168C16.3287 2.1748 16.282 2.17728 16.082 2.23828C15.976 2.27328 15.8679 2.29855 15.7559 2.31055C15.6159 2.32955 15.4768 2.36034 15.3418 2.40234C15.1668 2.45334 14.9874 2.48466 14.9394 2.47266C14.8194 2.44266 14.545 2.57122 14.457 2.69922C14.297 2.97322 13.9999 3.42405 14.1269 3.74805C14.3129 3.99405 14.9847 3.80761 14.9687 4.22461C14.8517 4.71461 14.6661 5.1842 14.4961 5.6582L13.8769 5.51953C14.2859 4.13953 14.2235 4.66559 13.1055 3.93359C13.1345 3.80459 13.1783 3.67955 13.2363 3.56055C13.3893 3.33755 13.5312 3.10036 13.5312 3.06836C13.5462 3.02136 13.5725 2.97841 13.6055 2.94141C13.6955 2.82641 13.7051 2.56156 13.6211 2.47656C13.5371 2.39156 13.4494 2.38258 12.9824 2.39258C12.6034 2.39858 12.5423 2.40995 12.3613 2.50195C12.2463 2.56095 11.9972 2.75789 11.7812 2.96289L11.4043 3.32031L11.416 4.03125L11.4277 4.74219L11.5605 5.01562C11.6925 5.28863 11.8367 5.44088 12.1777 5.67188C12.2297 5.70388 12.2782 5.7393 12.3242 5.7793C12.3352 5.7923 12.4472 5.88533 12.5762 5.98633C12.7042 6.08733 12.8608 6.20867 12.9238 6.26367C13.1398 6.45067 13.3853 6.59536 13.6523 6.69336C14.1393 6.86636 14.2694 7.03653 14.3594 7.64453C14.4064 7.95753 14.5439 8.40662 14.6289 8.51562C14.6529 8.54462 14.7145 8.78062 14.8535 9.39062C14.8755 9.49062 14.9002 9.63017 14.9082 9.70117C14.9162 9.77217 14.939 9.90314 14.959 9.99414C15.017 10.3171 15.0544 10.6437 15.0684 10.9707C15.0684 11.1047 15.0543 11.1322 14.9453 11.1992C14.8903 11.2362 14.8287 11.2624 14.7637 11.2754C14.6837 11.2754 14.5368 10.977 14.4648 10.668C14.3558 10.184 14.201 9.97955 13.918 9.93555C13.681 9.89855 13.2731 9.59967 12.6621 9.01367C12.5841 8.94867 12.4973 8.89642 12.4043 8.85742C11.9963 8.68742 11.7543 8.52025 11.5723 8.28125C11.4593 8.13325 11.4492 8.09791 11.4492 7.87891C11.4562 7.67491 11.4769 7.47053 11.5059 7.26953C11.5759 6.78953 11.573 6.51786 11.5 6.25586C11.406 5.92786 11.1584 5.79242 10.9844 5.98242C10.8274 6.15342 10.5313 6.96808 10.4043 7.58008C10.3473 7.85608 10.2841 8.01197 10.1621 8.16797C10.1111 8.22597 10.0923 8.30586 10.1133 8.38086C10.1403 8.52286 10.3684 9.03419 10.4414 9.11719C10.4944 9.18819 10.542 9.2638 10.584 9.3418L10.6758 9.50586L10.6016 9.75977C10.4796 10.1778 10.4788 10.1532 10.6328 10.2852C10.7098 10.3502 11.0488 10.6798 11.3848 11.0078C12.0868 11.6998 12.2044 11.7687 12.6894 11.8027C12.9894 11.8247 13.1112 11.8687 13.1562 11.9707C13.1692 12.0017 13.1844 12.2989 13.1894 12.6309C13.2124 14.0269 13.2083 14.0072 13.5293 14.4492L13.709 14.6992L13.7578 15.1758C13.8178 15.7498 13.8178 17.5453 13.7578 18.4043L13.7168 19.002L13.8242 19.1543C13.8822 19.2383 14.2013 19.5801 14.5293 19.9121C14.9863 20.3711 15.1599 20.573 15.2539 20.752L15.3769 20.9863L15.3535 21.9023C15.3405 22.4063 15.312 22.8763 15.291 22.9473C15.27 23.0183 15.2283 23.455 15.1973 23.918C15.1453 24.707 15.0997 25.3083 15.0547 25.8203C15.0437 25.9413 15.018 26.2546 14.998 26.5156C14.94 27.2996 14.8544 28.1348 14.8164 28.2988C14.7524 28.5808 14.7676 28.6318 14.9726 28.8438C15.2166 29.0938 15.6212 29.4013 15.6562 29.3613C15.7172 29.2913 15.7691 28.6859 15.7891 27.7949C15.8011 27.2719 15.8153 26.7516 15.8223 26.6426C15.8303 26.4666 15.8596 25.5789 15.9316 23.2949C15.9426 22.9529 15.9597 22.5267 15.9707 22.3477C15.9917 22.0167 15.9618 21.7691 15.8398 21.2461C15.7968 21.0591 15.7661 20.8707 15.7461 20.6797C15.7281 20.5117 15.6898 20.3465 15.6328 20.1875C15.5838 20.0675 15.5535 19.9621 15.5625 19.9531C15.5715 19.9441 15.563 19.9071 15.543 19.8711C15.486 19.7641 15.4376 19.1695 15.4336 18.5195C15.4296 17.8695 15.3804 17.5995 15.1934 17.2305C15.0994 17.0455 14.6154 16.3485 14.4394 16.1465L14.3301 16.0234L14.3496 15.3555C14.3716 14.6505 14.4167 14.3163 14.5137 14.1523C14.5947 14.0143 14.6677 14.0393 14.7617 14.2363C14.8497 14.4213 14.9373 14.5175 15.3203 14.8555C15.6053 15.1055 15.7266 15.2655 15.7266 15.3965C15.7116 15.4855 15.6798 15.5704 15.6348 15.6484C15.4968 15.9144 15.5104 16.2009 15.6894 16.7969C15.7684 17.0599 15.8434 17.3542 15.8574 17.4492C15.8694 17.5402 15.8965 17.627 15.9375 17.709C15.9875 17.788 15.9938 17.7933 16.0488 17.7383C16.0948 17.6683 16.1248 17.5889 16.1348 17.5059C16.1478 17.4089 16.1762 17.2057 16.2012 17.0547C16.2262 16.9037 16.2602 16.7025 16.2812 16.6055C16.3452 16.3275 16.3312 16.0366 16.2422 15.7656C16.1982 15.6296 16.1479 15.509 16.1289 15.498C16.0829 15.469 16.0847 15.2482 16.1367 15.0742C16.1887 14.9002 16.3701 14.7197 16.8281 14.3867C17.0211 14.2467 17.2252 14.0634 17.2812 13.9824C17.3382 13.9014 17.3981 13.8359 17.4141 13.8359C17.5301 13.8359 17.5185 14.3357 17.3945 14.6777C17.2945 14.9457 17.2133 15.22 17.1523 15.5C17.1133 15.694 17.0244 16.0958 16.9004 16.6348C16.7854 17.1418 16.5967 17.6482 16.4297 17.9062C16.3407 18.0443 16.3274 18.0965 16.3164 18.4355C16.3054 18.7745 16.3851 19.5781 16.4941 20.2891C16.5171 20.5201 16.5237 20.7524 16.5137 20.9844C16.5017 21.3994 16.5084 21.4824 16.5684 21.6094C16.6884 21.8634 16.7117 22.0638 16.7187 22.9648C16.7227 23.4478 16.7389 23.9567 16.7559 24.0977C16.7909 24.3857 16.8025 25.8552 16.7695 25.9102C16.7475 25.9462 16.6248 26.7391 16.5898 27.0781C16.5678 27.2991 16.5437 27.7833 16.5137 28.6523C16.4977 29.1287 16.5351 29.8113 16.5898 29.9922C16.6403 30.0322 17.2813 29.5331 17.4258 29.3242L17.5254 29.1797V28.1387C17.5254 27.4967 17.5084 27.0185 17.4824 26.8945C17.4594 26.7835 17.4328 26.5992 17.4238 26.4902C17.4118 26.3612 17.3903 26.2334 17.3633 26.1074C17.3153 25.8944 17.3051 25.1374 17.3301 23.6934C17.3491 22.5874 17.3418 22.5371 17.0898 21.6621C17.0518 21.5031 17.0303 21.3407 17.0273 21.1777L17.0234 20.8926L17.2422 20.7012C17.8722 20.1462 18.0327 19.8191 17.8457 19.4531C17.7267 19.2141 17.6943 18.8555 17.7363 18.1875C17.7553 17.8565 17.7895 17.4596 17.8105 17.3086C17.8315 17.1576 17.8552 16.941 17.8652 16.832C17.9202 16.205 18.0446 15.6992 18.1426 15.6992C18.2006 15.6992 18.3614 15.288 18.3984 15.043C18.4584 14.655 18.4305 13.8604 18.3535 13.7734C18.3155 13.7264 18.2866 13.6722 18.2676 13.6152C18.2356 13.5252 18.1983 13.4376 18.1543 13.3516C18.0913 13.2286 18.0604 13.0911 18.0664 12.9531C18.0664 12.6881 18.1338 12.5332 18.3008 12.4062C18.3648 12.3562 18.5937 12.1559 18.8027 11.9609L19.1855 11.6055L19.3105 11.2109C19.4365 10.8139 19.6701 10.2716 19.7891 10.1016C19.8241 10.0526 19.9323 9.85506 20.0293 9.66406C20.2423 9.24406 20.4783 8.93842 20.9453 8.48242L21.2988 8.13867L21.2539 8.00391C21.2299 7.92891 21.2061 7.6612 21.2031 7.4082L21.1973 6.94727L20.9531 6.72461L20.7109 6.5L20.7441 6.0957C20.7631 5.8747 20.7973 5.51959 20.8223 5.30859C20.8993 4.65459 20.8293 4.48584 20.5723 4.71484C20.4233 4.84684 20.3226 5.05375 20.2676 5.34375C20.2416 5.48575 20.1874 5.62214 20.1094 5.74414C20.0264 5.87114 19.9721 6.01697 19.9531 6.16797C19.7971 7.10197 19.639 7.50728 19.25 7.98828C19.029 8.26528 18.743 8.48495 18.418 8.62695C18.277 8.69395 18.0452 8.81553 17.9062 8.89453C17.7672 8.97353 17.5204 9.11036 17.3594 9.19336C16.8094 9.47536 16.7245 9.57995 16.6055 10.127C16.4735 10.733 16.4566 10.7761 16.3476 10.7891C16.2706 10.7981 16.2399 10.7771 16.1719 10.6621C16.1039 10.5471 16.0918 10.4721 16.0918 10.2051C16.0888 10.0411 16.1074 9.87775 16.1484 9.71875C16.2274 9.48475 16.2184 9.37838 16.1094 9.23438C15.9864 9.07438 15.9631 8.85894 16.0351 8.71094C16.1071 8.56294 16.1071 8.34081 16.0351 8.13281C16.0001 8.02781 15.974 7.91955 15.957 7.81055C15.938 7.67355 15.9475 7.63459 16.0195 7.55859C16.0515 7.51959 16.0917 7.48875 16.1367 7.46875C16.1857 7.44675 16.2306 7.41595 16.2676 7.37695C16.3216 7.32195 16.5153 7.17683 16.6973 7.04883C16.8313 6.95983 16.9591 6.85991 17.0801 6.75391C17.1171 6.71291 17.1638 6.68116 17.2148 6.66016C17.2768 6.62416 17.3236 6.56895 17.3496 6.50195C17.4076 6.39695 17.4898 6.30723 17.5898 6.24023C17.6748 6.18423 17.7504 6.11416 17.8144 6.03516C17.8434 5.98016 17.8925 5.9668 18.0625 5.9668C18.2765 5.9668 18.4462 5.91359 18.9492 5.68359C19.3592 5.49559 19.4555 5.38291 19.7285 4.75391C19.7545 4.70191 19.7731 4.64684 19.7871 4.58984C19.7871 4.51184 20.0529 4.15812 20.1719 4.07812C20.3039 3.99012 20.3197 3.93622 20.3027 3.69922C20.2897 3.62322 20.2655 3.54947 20.2305 3.48047C20.1825 3.37647 20.1442 3.2692 20.1152 3.1582C20.0712 2.9892 20.0731 2.94159 20.1211 2.80859C20.1761 2.65559 20.1759 2.65325 20.0469 2.40625C19.9539 2.22725 19.8772 2.13313 19.7812 2.07812L19.6465 2ZM16.5898 29.9922C16.5886 29.9912 16.5786 29.9977 16.5781 29.9961H16.5898C16.5896 29.9955 16.59 29.9928 16.5898 29.9922ZM21.7832 9.14062C20.6302 10.3266 20.2753 11.239 20.1113 12.084C22.1573 14.198 23.6289 15.8027 23.6289 15.8027C25.5859 18.6187 24.181 21.0596 21.082 20.6836V20.6855C22.536 22.2975 27.0768 21.1735 26.8418 17.3105C26.8168 16.8865 26.6622 12.6136 21.7832 9.14062ZM9.55273 10.8926V10.8965C5.00873 14.6895 4.86679 18.9732 6.21679 21.1582C7.34779 22.9922 10.8373 23.0267 11.6133 21.4277C7.85327 22.2137 6.48563 19.5002 8.18163 16.6562C8.60263 15.9452 9.98895 14.7583 12.3769 12.7812C12.1429 12.2483 11.8223 12.0944 11.1113 11.8594C10.5293 11.6674 10.7047 11.5916 9.55273 10.8926ZM13.7656 20.3184C13.7316 20.3524 13.7403 21.5252 13.7773 21.8652C13.7963 22.0472 13.8164 22.2276 13.8164 22.2676C13.8204 22.3616 13.9489 23.1579 14.0039 23.4199C14.0269 23.5299 14.0592 23.7635 14.0762 23.9375C14.0842 24.0575 14.1019 24.177 14.1309 24.293C14.1739 24.488 14.2056 24.6848 14.2266 24.8828C14.2476 25.0808 14.2783 25.2777 14.3203 25.4727C14.3213 25.4767 14.3252 25.4795 14.3262 25.4805C14.3402 25.4935 14.36 25.4945 14.373 25.4805C14.412 25.4415 14.4765 24.6825 14.5195 23.7305C14.5375 23.3285 14.5603 22.9164 14.5703 22.8164C14.5803 22.7164 14.5974 22.4278 14.6074 22.1758C14.6174 21.9238 14.6364 21.5602 14.6504 21.3652L14.6758 21.0117L14.3867 20.7246C14.1297 20.4696 13.8206 20.2634 13.7656 20.3184ZM18.2207 20.6719C18.1792 20.6769 18.1111 20.7211 17.9941 20.8066C17.7601 20.9776 17.7051 21.0737 17.7051 21.3047C17.7051 21.5037 17.8331 22.4117 17.8691 22.4707C17.9361 22.5807 18.0057 23.2601 18.0137 23.9121C18.0187 24.3141 18.0405 24.7367 18.0625 24.8457C18.1375 25.2237 18.1875 25.9615 18.1875 26.7305C18.1875 27.1525 18.1951 27.5113 18.2051 27.5273H18.2129C18.2479 27.5853 18.3614 27.4372 18.4004 27.2852C18.4744 26.9822 18.5188 26.0883 18.5098 25.0273C18.5008 24.1503 18.5094 23.8597 18.5644 23.4727C18.6524 22.8377 18.6532 22.8199 18.6582 22.5039C18.6622 22.2049 18.6525 22.1415 18.4375 21.3145C18.3745 21.0745 18.3099 20.8276 18.2949 20.7676C18.2779 20.7011 18.2622 20.6669 18.2207 20.6719Z" fill="black"/>
</g>
</svg>
