<svg width="32" height="32" viewBox="0 0 32 32" fill="none" xmlns="http://www.w3.org/2000/svg">
<g id="map-marked-alt-solid">
<path id="Vector" d="M22 3C18.6992 3 16 5.69922 16 9C16 9.99219 16.3828 11.0039 16.875 12.125C17.3672 13.2461 17.9883 14.4336 18.625 15.5312C19.8984 17.7266 21.1875 19.5625 21.1875 19.5625L22 20.75L22.8125 19.5625C22.8125 19.5625 24.1016 17.7266 25.375 15.5312C26.0117 14.4336 26.6328 13.2461 27.125 12.125C27.6172 11.0039 28 9.99219 28 9C28 5.69922 25.3008 3 22 3ZM11.9688 4.9375L4 8.34375V27.5312L12.0312 24.0625L20.0312 27.0625L28 23.6562V14.9375C27.3633 16.1602 26.6562 17.332 26 18.375V22.3438L21 24.4688V22.8438L19.5312 20.7188C19.375 20.4922 19.1914 20.2227 19 19.9375V24.5625L13 22.3125V7.4375L14.0938 7.84375C14.1914 7.16797 14.3672 6.51562 14.625 5.90625L11.9688 4.9375ZM22 5C24.2188 5 26 6.78125 26 9C26 9.38672 25.7578 10.3008 25.3125 11.3125C24.8672 12.3242 24.2383 13.4727 23.625 14.5312C22.8086 15.9375 22.457 16.4375 22 17.125C21.543 16.4375 21.1914 15.9375 20.375 14.5312C19.7617 13.4727 19.1328 12.3242 18.6875 11.3125C18.2422 10.3008 18 9.38672 18 9C18 6.78125 19.7812 5 22 5ZM11 7.5V22.3438L6 24.4688V9.65625L11 7.5ZM22 7.5C21.1719 7.5 20.5 8.17188 20.5 9C20.5 9.82812 21.1719 10.5 22 10.5C22.8281 10.5 23.5 9.82812 23.5 9C23.5 8.17188 22.8281 7.5 22 7.5Z" fill="black"/>
</g>
</svg>
