<svg width="32" height="32" viewBox="0 0 32 32" fill="none" xmlns="http://www.w3.org/2000/svg">
<g id="map-marked-solid">
<path id="Vector" d="M22 3C18.699 3 16 5.699 16 9C16 9.992 16.383 11.004 16.875 12.125C17.367 13.246 17.988 14.4342 18.625 15.5312C19.898 17.7262 21.1875 19.5625 21.1875 19.5625L22 20.75L22.8125 19.5625C22.8125 19.5625 24.101 17.7262 25.375 15.5312C26.012 14.4333 26.633 13.246 27.125 12.125C27.617 11.004 28 9.992 28 9C28 5.699 25.301 3 22 3ZM11.9688 4.9375L4 8.34375V27.5312L12.0312 24.0625L20.0312 27.0625L28 23.6562V14.9375C27.363 16.1605 26.656 17.332 26 18.375V22.3438L21 24.4688V22.8438L19.5312 20.7188C19.3752 20.4918 19.191 20.2225 19 19.9375V24.5625L13 22.3125V7.4375L14.0938 7.84375C14.1917 7.16775 14.367 6.51625 14.625 5.90625L11.9688 4.9375ZM22 5C24.219 5 26 6.781 26 9C26 9.387 25.7585 10.3005 25.3125 11.3125C24.8675 12.3245 24.238 13.4722 23.625 14.5312C22.809 15.9373 22.457 16.439 22 17.127C21.543 16.439 21.191 15.9373 20.375 14.5312C19.762 13.4722 19.1335 12.3245 18.6875 11.3125C18.2425 10.3005 18 9.387 18 9C18 6.781 19.781 5 22 5ZM11 7.5V22.3438L6 24.4688V9.65625L11 7.5Z" fill="black"/>
</g>
</svg>
