<svg width="32" height="32" viewBox="0 0 32 32" fill="none" xmlns="http://www.w3.org/2000/svg">
<g id="markdown">
<path id="Vector" d="M2.875 6C1.32031 6 0 7.25391 0 8.8125V23.1875C0 24.7461 1.32031 26 2.875 26H29.125C30.6797 26 32 24.7461 32 23.1875V8.8125C32 7.25391 30.6797 6 29.125 6H2.875ZM2.875 8H29.125C29.6406 8 30 8.38281 30 8.8125V23.1875C30 23.6172 29.6406 24 29.125 24H2.875C2.35938 24 2 23.6172 2 23.1875V8.8125C2 8.38281 2.35938 8 2.875 8ZM5 11V21H8V14.3438L11 18.3125L14 14.3438V21H17V11H14L11 15L8 11H5ZM22 11V16H19L23.5 21L28 16H25V11H22Z" fill="black"/>
</g>
</svg>
