<svg width="32" height="32" viewBox="0 0 32 32" fill="none" xmlns="http://www.w3.org/2000/svg">
<g id="mars-double-solid">
<path id="Vector" d="M14 3V5H19.5625L14.1562 10.4062C12.957 9.51172 11.5234 9 10 9C8.12891 9 6.38281 9.74219 5.0625 11.0625C3.74219 12.3828 3 14.1289 3 16C3 17.8711 3.74219 19.6133 5.0625 20.9375C6.38281 22.2617 8.12891 23 10 23C11.8711 23 13.6172 22.2578 14.9375 20.9375C15.75 20.125 16.3516 19.1562 16.6875 18.0938C15.9141 17.9688 15.0977 18.0664 14.375 18.375C14.1484 18.793 13.8789 19.1875 13.5312 19.5312C12.5859 20.4766 11.3359 21 10 21C8.66406 21 7.41406 20.4766 6.46875 19.5312C5.52344 18.5859 5 17.3359 5 16C5 14.6641 5.52344 13.4141 6.46875 12.4688C7.41406 11.5234 8.66406 11 10 11C11.3359 11 12.5859 11.5234 13.5312 12.4688C14.0117 12.9492 14.3789 13.5117 14.625 14.125C15.0742 14.0469 15.5352 14 16 14C16.2422 14 16.4805 14.0117 16.7188 14.0312C16.4883 13.2383 16.0898 12.5117 15.5938 11.8438L21 6.4375V11H25.5625L20.1562 16.4062C18.957 15.5117 17.5234 15 16 15C14.1289 15 12.3828 15.7422 11.0625 17.0625C10.25 17.875 9.64844 18.8438 9.3125 19.9062C10.0859 20.0312 10.9023 19.9336 11.625 19.625C11.8516 19.207 12.1211 18.8125 12.4688 18.4688C13.4141 17.5234 14.6641 17 16 17C17.3359 17 18.5859 17.5234 19.5312 18.4688C20.4766 19.4141 21 20.6641 21 22C21 23.3359 20.4766 24.5859 19.5312 25.5312C18.5859 26.4766 17.3359 27 16 27C14.6641 27 13.4141 26.4766 12.4688 25.5312C11.9883 25.0508 11.6211 24.4883 11.375 23.875C10.9258 23.9531 10.4648 24 10 24C9.75781 24 9.51953 23.9883 9.28125 23.9688C9.60547 25.0859 10.2188 26.0938 11.0625 26.9375C12.3828 28.2578 14.1289 29 16 29C17.8672 29 19.6172 28.2578 20.9375 26.9375C22.2578 25.6172 23 23.8711 23 22C23 20.4766 22.4883 19.043 21.5938 17.8438L27 12.4375V18H29V9H23V3H14Z" fill="black"/>
</g>
</svg>
