<svg width="32" height="32" viewBox="0 0 32 32" fill="none" xmlns="http://www.w3.org/2000/svg">
<g id="mars-stroke-h-solid">
<path id="Vector" d="M10 8C5.59375 8 2 11.5938 2 16C2 20.4062 5.59375 24 10 24C14.0664 24 17.4375 20.9336 17.9375 17H20V20H22V17H26.5625L22.2812 21.2812L23.7188 22.7188L29.7188 16.7188L30.4062 16L29.7188 15.2812L23.7188 9.28125L22.2812 10.7188L26.5625 15H22V12H20V15H17.9375C17.4375 11.0664 14.0664 8 10 8ZM10 10C13.3242 10 16 12.6758 16 16C16 19.3242 13.3242 22 10 22C6.67578 22 4 19.3242 4 16C4 12.6758 6.67578 10 10 10Z" fill="black"/>
</g>
</svg>
