<svg width="32" height="32" viewBox="0 0 32 32" fill="none" xmlns="http://www.w3.org/2000/svg">
<g id="mars-stroke-v-solid">
<path id="Vector" d="M16 1.59375L15.2812 2.28125L9.28125 8.28125L10.7188 9.71875L15 5.4375V10H12V12H15V14.0625C11.0664 14.5625 8 17.9336 8 22C8 26.4062 11.5938 30 16 30C20.4062 30 24 26.4062 24 22C24 17.9336 20.9336 14.5625 17 14.0625V12H20V10H17V5.4375L21.2812 9.71875L22.7188 8.28125L16.7188 2.28125L16 1.59375ZM16 16C19.3242 16 22 18.6758 22 22C22 25.3242 19.3242 28 16 28C12.6758 28 10 25.3242 10 22C10 18.6758 12.6758 16 16 16Z" fill="black"/>
</g>
</svg>
