<svg width="32" height="32" viewBox="0 0 32 32" fill="none" xmlns="http://www.w3.org/2000/svg">
<g id="mask-solid">
<path id="Vector" d="M16.0293 7C11.0773 7 7.21769 8.0603 4.55469 10.1543C2.26269 11.9553 1 14.4722 1 17.2422C1 22.0702 4.63266 26 9.09766 26C11.1677 26 13.137 24.9094 14.377 23.0664L15.4883 21.332C15.6283 21.124 15.8203 21.0117 16.0293 21.0117C16.2373 21.0117 16.4306 21.1255 16.5586 21.3145L17.6953 23.0859C18.9233 24.9109 20.8929 26 22.9629 26C27.3199 26 31 21.9179 31 17.0859C31 14.3389 29.7495 11.8548 27.4805 10.0898C24.8435 8.04084 20.9913 7 16.0293 7ZM16.0293 9C20.4733 9 24.0079 9.92297 26.2539 11.668C28.5229 13.433 29 15.5889 29 17.0859C29 20.7699 26.1799 24 22.9629 24C21.5599 24 20.2092 23.2413 19.3652 21.9863L18.2285 20.2168C17.7205 19.4628 16.8993 19.0117 16.0293 19.0117C15.1603 19.0117 14.3374 19.4604 13.8164 20.2344L12.7031 21.9688C11.8481 23.2407 10.5007 24 9.09766 24C5.45066 24 3 20.5052 3 17.2422C3 15.0992 3.99006 13.1406 5.78906 11.7266C8.05906 9.94256 11.6003 9 16.0293 9ZM10 12C7.624 12 6.1013 13.4639 5.4043 14.3359C4.8653 15.0109 4.8653 15.9901 5.4043 16.6641C6.1013 17.5371 7.625 19 10 19C12.376 19 13.8987 17.5361 14.5957 16.6641C15.1347 15.9891 15.1347 15.0099 14.5957 14.3359C13.8987 13.4629 12.375 12 10 12ZM22 12C19.624 12 18.1013 13.4639 17.4043 14.3359C16.8653 15.0109 16.8653 15.9901 17.4043 16.6641C18.1013 17.5371 19.625 19 22 19C24.376 19 25.8987 17.5361 26.5957 16.6641C27.1347 15.9891 27.1347 15.0099 26.5957 14.3359C25.8987 13.4629 24.375 12 22 12ZM10 14C11.467 14 12.4648 14.903 12.9648 15.5C12.4658 16.097 11.468 17 10 17C8.533 17 7.53516 16.097 7.03516 15.5C7.53416 14.903 8.532 14 10 14ZM22 14C23.467 14 24.4648 14.903 24.9648 15.5C24.4658 16.097 23.468 17 22 17C20.533 17 19.5352 16.097 19.0352 15.5C19.5342 14.903 20.532 14 22 14Z" fill="black"/>
</g>
</svg>
