<svg width="32" height="32" viewBox="0 0 32 32" fill="none" xmlns="http://www.w3.org/2000/svg">
<g id="mastodon">
<path id="Vector" d="M15.9375 4.03131C12.917 4.04356 9.91792 4.42704 8.35742 5.14654C8.35742 5.14654 5 6.67492 5 11.8809C5 18.0779 4.9955 25.8603 10.5625 27.3653C12.6945 27.9383 14.528 28.0616 16.002 27.9766C18.677 27.8256 20 27.0059 20 27.0059L19.9102 25.0294C19.9102 25.0294 18.1763 25.6404 16.0293 25.5704C13.9023 25.4954 11.6615 25.3357 11.3125 22.6797C11.2805 22.4327 11.2646 22.1827 11.2656 21.9337C15.7726 23.0527 19.6158 22.421 20.6738 22.293C23.6278 21.934 26.1993 20.0817 26.5273 18.3887C27.0413 15.7207 26.998 11.8809 26.998 11.8809C26.998 6.67492 23.6465 5.14654 23.6465 5.14654C22.001 4.37804 18.958 4.01906 15.9375 4.03131ZM12.7051 8.00201C13.74 8.02976 14.7626 8.49276 15.3926 9.47076L16.002 10.5059L16.6094 9.47076C17.8744 7.50376 20.7096 7.6265 22.0586 9.1485C23.3026 10.5965 23.0254 11.5311 23.0254 18.0001V18.002H20.5781V12.3731C20.5781 9.73811 17.2188 9.63634 17.2188 12.7383V16.0001H14.7871V12.7383C14.7871 9.63634 11.4297 9.73615 11.4297 12.3712V18.0001H8.97656C8.97656 11.5261 8.70436 10.5855 9.94336 9.1485C10.6229 8.3825 11.6702 7.97426 12.7051 8.00201Z" fill="black"/>
</g>
</svg>
