<svg width="32" height="32" viewBox="0 0 32 32" fill="none" xmlns="http://www.w3.org/2000/svg">
<g id="mdb">
<path id="Vector" d="M1.08008 9L0.0800781 21H2.08789L2.64453 14.3047L5.32227 21H6.67773L9.35547 14.3047L9.91211 21H11.9199L10.9199 9H9.32227L6 17.3086L2.67773 9H1.08008ZM14 9V21H16C19.3016 21 22 18.3016 22 15C22 11.6984 19.3016 9 16 9H14ZM24 9V14V16V21.0117H28.4941C30.4186 21.0117 32 19.4303 32 17.5059C32 16.236 31.2772 15.1642 30.2559 14.5488C30.6921 13.965 31 13.2785 31 12.5C31 10.5788 29.4212 9 27.5 9H24ZM16 11C18.2204 11 20 12.7796 20 15C20 17.2204 18.2204 19 16 19V11ZM26 11H27.5C28.3408 11 29 11.6592 29 12.5C29 13.3408 28.3408 14 27.5 14H26V11ZM26 16H27.5H28.4941C29.3377 16 30 16.6623 30 17.5059C30 18.3494 29.3377 19.0117 28.4941 19.0117H26V16Z" fill="black"/>
</g>
</svg>
