<svg width="32" height="32" viewBox="0 0 32 32" fill="none" xmlns="http://www.w3.org/2000/svg">
<g id="medium">
<path id="Vector" d="M26 10.3594H25.2109C24.9141 10.3594 24.5 10.7852 24.5 11.0586V20.9922C24.5 21.2695 24.9141 21.6406 25.2109 21.6406H26V24H18.832V21.6406H20.332V11.1992H20.2617L16.7578 24H14.0469L10.5859 11.1992H10.5V21.6406H12V24H6V21.6406H6.76953C7.08594 21.6406 7.5 21.2695 7.5 20.9922V11.0586C7.5 10.7852 7.08594 10.3594 6.76953 10.3594H6V8H13.5039L15.9648 17.2617H16.0352L18.5195 8H26V10.3594Z" fill="black"/>
</g>
</svg>
