<svg width="32" height="32" viewBox="0 0 32 32" fill="none" xmlns="http://www.w3.org/2000/svg">
<g id="medrt">
<path id="Vector" d="M14.8535 3C7.74552 3 2 8.814 2 16C2 23.186 7.74552 29 14.8535 29C15.8905 29 16.8954 28.8797 17.8574 28.6387C12.1974 27.6837 7 22.385 7 16C7 9.615 12.34 4.31533 18 3.36133C17.039 3.12033 15.8905 3 14.8535 3ZM17.5391 7C15.7178 7.00693 13.8306 7.59958 12.2031 8.80664C12.1281 8.85964 12.064 8.91184 12 8.96484C15.291 8.06584 18.9561 9.16553 21.1641 12.0195C22.9971 14.3985 23.3629 17.41 22.4199 20C25.3249 17.167 25.8816 12.8235 23.5566 9.81055C22.1155 7.9498 19.8806 6.99109 17.5391 7ZM27.1758 10.0254C27.7038 11.2444 28 12.587 28 14C28 19.523 23.523 24 18 24C15.058 24 12.4218 22.7212 10.5918 20.6992C10.8898 21.3732 11.3768 22.106 11.8008 22.707C14.9858 27.279 21.2369 28.3725 25.7539 25.1445C30.2819 21.9165 31.3549 15.6013 28.1699 11.0293C27.8289 10.5383 27.5338 10.3134 27.1758 10.0254ZM14.5 12C14.224 12 14 12.224 14 12.5V14.5C14 14.776 13.776 15 13.5 15H11.5C11.224 15 11 15.224 11 15.5V16.5C11 16.776 11.224 17 11.5 17H13.5C13.776 17 14 17.224 14 17.5V19.5C14 19.776 14.224 20 14.5 20H15.5C15.776 20 16 19.776 16 19.5V17.5C16 17.224 16.224 17 16.5 17H18.5C18.776 17 19 16.776 19 16.5V15.5C19 15.224 18.776 15 18.5 15H16.5C16.224 15 16 14.776 16 14.5V12.5C16 12.224 15.776 12 15.5 12H14.5Z" fill="black"/>
</g>
</svg>
