<svg width="32" height="32" viewBox="0 0 32 32" fill="none" xmlns="http://www.w3.org/2000/svg">
<g id="meetup">
<g clip-path="url(#clip0)">
<path id="Vector" d="M9.5 1C9.36739 1 9.24021 1.05268 9.14645 1.14645C9.05268 1.24021 9 1.36739 9 1.5C9 1.63261 9.05268 1.75979 9.14645 1.85355C9.24021 1.94732 9.36739 2 9.5 2C9.63261 2 9.75979 1.94732 9.85355 1.85355C9.94732 1.75979 10 1.63261 10 1.5C10 1.36739 9.94732 1.24021 9.85355 1.14645C9.75979 1.05268 9.63261 1 9.5 1ZM18.5 2C18.1022 2 17.7206 2.15804 17.4393 2.43934C17.158 2.72064 17 3.10218 17 3.5C17 3.89782 17.158 4.27936 17.4393 4.56066C17.7206 4.84196 18.1022 5 18.5 5C18.8978 5 19.2794 4.84196 19.5607 4.56066C19.842 4.27936 20 3.89782 20 3.5C20 3.10218 19.842 2.72064 19.5607 2.43934C19.2794 2.15804 18.8978 2 18.5 2ZM14 5C11.383 5 9.16375 6.67863 8.34375 9.01562C5.93275 9.09962 4 11.068 4 13.5C4 14.207 4.17775 14.8679 4.46875 15.4629C3.56175 16.3679 3 17.618 3 19C3 21.422 4.72277 23.4414 7.00977 23.9004C7.00877 23.9344 7 23.966 7 24C7 26.761 9.239 29 12 29C13.213 29 14.3098 28.551 15.1758 27.832C15.8998 28.554 16.898 29 18 29C19.868 29 21.4243 27.7134 21.8633 25.9824C24.7303 25.7934 27 23.415 27 20.5C27 19.348 26.6451 18.2795 26.0391 17.3965C26.6311 16.7695 27 15.93 27 15C27 13.599 26.1714 12.3998 24.9824 11.8398C24.9894 11.7268 25 11.615 25 11.5C25 8.462 22.538 6 19.5 6C18.877 6 18.2807 6.10783 17.7227 6.29883C16.6997 5.48783 15.407 5 14 5ZM7 6C6.73478 6 6.48043 6.10536 6.29289 6.29289C6.10536 6.48043 6 6.73478 6 7C6 7.26522 6.10536 7.51957 6.29289 7.70711C6.48043 7.89464 6.73478 8 7 8C7.26522 8 7.51957 7.89464 7.70711 7.70711C7.89464 7.51957 8 7.26522 8 7C8 6.73478 7.89464 6.48043 7.70711 6.29289C7.51957 6.10536 7.26522 6 7 6ZM27 9C26.7348 9 26.4804 9.10536 26.2929 9.29289C26.1054 9.48043 26 9.73478 26 10C26 10.2652 26.1054 10.5196 26.2929 10.7071C26.4804 10.8946 26.7348 11 27 11C27.2652 11 27.5196 10.8946 27.7071 10.7071C27.8946 10.5196 28 10.2652 28 10C28 9.73478 27.8946 9.48043 27.7071 9.29289C27.5196 9.10536 27.2652 9 27 9ZM17.0059 9.99219C17.1521 9.97906 17.3147 9.98658 17.5039 10.0176C18.0149 10.0916 18.3112 10.4415 18.6992 10.8105C19.0132 11.1305 19.2409 10.9331 19.4199 10.8281C19.6969 10.6681 19.9133 10.5279 20.7383 10.5469C21.6003 10.5649 22.5859 10.8794 22.7949 12.3574C23.0229 14.0144 20.1401 18.2692 20.3301 20.2402C20.4651 21.6262 22.7944 20.6392 22.9844 21.9082C23.2324 23.5572 20.0858 22.9428 19.3828 22.5918C18.2558 22.0248 17.5666 20.7426 17.8496 19.4746C18.0836 18.5266 20.1581 14.6532 20.2441 14.0742C20.3181 13.4582 19.9996 13.4023 19.8086 13.4023C19.5436 13.3843 19.3529 13.5085 19.0879 13.8965C18.8599 14.2475 16.2719 19.5122 16.0449 19.9492C15.3239 21.3412 13.458 21.1131 13.668 19.7031C13.723 19.2841 15.3793 15.5169 15.4473 14.9199C15.5023 14.5689 15.4301 14.1793 15.0781 13.9883C14.7271 13.8093 14.3027 14.0937 14.1797 14.3027C14.0007 14.6047 11.6786 20.7823 11.4316 21.2383C10.9946 22.0263 10.5502 22.2735 9.86719 22.3105C8.26619 22.4025 7.0667 21.0462 7.5957 19.4082C7.8237 18.6692 9.36811 13.1141 10.1621 11.7031C10.6921 10.7551 12.1523 10.0357 13.1562 10.4727C13.6862 10.7007 14.4258 11.0688 14.6348 11.1738C15.1278 11.4078 15.6552 10.7913 15.8652 10.6133C16.2762 10.2578 16.5672 10.0316 17.0059 9.99219ZM30.5 13C30.3674 13 30.2402 13.0527 30.1464 13.1464C30.0527 13.2402 30 13.3674 30 13.5C30 13.6326 30.0527 13.7598 30.1464 13.8536C30.2402 13.9473 30.3674 14 30.5 14C30.6326 14 30.7598 13.9473 30.8536 13.8536C30.9473 13.7598 31 13.6326 31 13.5C31 13.3674 30.9473 13.2402 30.8536 13.1464C30.7598 13.0527 30.6326 13 30.5 13ZM1.5 14C1.10218 14 0.720644 14.158 0.43934 14.4393C0.158035 14.7206 0 15.1022 0 15.5C0 15.8978 0.158035 16.2794 0.43934 16.5607C0.720644 16.842 1.10218 17 1.5 17C1.89782 17 2.27936 16.842 2.56066 16.5607C2.84196 16.2794 3 15.8978 3 15.5C3 15.1022 2.84196 14.7206 2.56066 14.4393C2.27936 14.158 1.89782 14 1.5 14ZM29 16C28.7348 16 28.4804 16.1054 28.2929 16.2929C28.1054 16.4804 28 16.7348 28 17C28 17.2652 28.1054 17.5196 28.2929 17.7071C28.4804 17.8946 28.7348 18 29 18C29.2652 18 29.5196 17.8946 29.7071 17.7071C29.8946 17.5196 30 17.2652 30 17C30 16.7348 29.8946 16.4804 29.7071 16.2929C29.5196 16.1054 29.2652 16 29 16ZM5.5 25C5.36739 25 5.24021 25.0527 5.14645 25.1464C5.05268 25.2402 5 25.3674 5 25.5C5 25.6326 5.05268 25.7598 5.14645 25.8536C5.24021 25.9473 5.36739 26 5.5 26C5.63261 26 5.75979 25.9473 5.85355 25.8536C5.94732 25.7598 6 25.6326 6 25.5C6 25.3674 5.94732 25.2402 5.85355 25.1464C5.75979 25.0527 5.63261 25 5.5 25ZM23.5 27C23.1022 27 22.7206 27.158 22.4393 27.4393C22.158 27.7206 22 28.1022 22 28.5C22 28.8978 22.158 29.2794 22.4393 29.5607C22.7206 29.842 23.1022 30 23.5 30C23.8978 30 24.2794 29.842 24.5607 29.5607C24.842 29.2794 25 28.8978 25 28.5C25 28.1022 24.842 27.7206 24.5607 27.4393C24.2794 27.158 23.8978 27 23.5 27ZM15 29C14.7348 29 14.4804 29.1054 14.2929 29.2929C14.1054 29.4804 14 29.7348 14 30C14 30.2652 14.1054 30.5196 14.2929 30.7071C14.4804 30.8946 14.7348 31 15 31C15.2652 31 15.5196 30.8946 15.7071 30.7071C15.8946 30.5196 16 30.2652 16 30C16 29.7348 15.8946 29.4804 15.7071 29.2929C15.5196 29.1054 15.2652 29 15 29Z" fill="black"/>
</g>
</g>
<defs>
<clipPath id="clip0">
<rect width="32" height="32" fill="white"/>
</clipPath>
</defs>
</svg>
