<svg width="32" height="32" viewBox="0 0 32 32" fill="none" xmlns="http://www.w3.org/2000/svg">
<g id="megaport">
<path id="Vector" d="M16 3C8.832 3 3 8.832 3 16C3 23.168 8.832 29 16 29C23.168 29 29 23.168 29 16C29 8.832 23.168 3 16 3ZM16 5C22.065 5 27 9.935 27 16C27 22.065 22.065 27 16 27C9.935 27 5 22.065 5 16C5 9.935 9.935 5 16 5ZM16 7L15 8V10.6719L13 12.6719V15.707L10 18.1055V19.5859V22L11 23L12 22V19.5859V19.0664L13.5 17.8652L15 19.0664V22L16 23L17 22V19.5859V19.0664L18.5 17.8652L20 19.0664V22L21 23L22 22V19.5859V18.1055L19 15.707V12.6719L17 10.6719V8L16 7ZM16 12.5L17 13.5V16.1719L16 17.1719L15 16.1719V13.5L16 12.5Z" fill="black"/>
</g>
</svg>
