<svg width="32" height="32" viewBox="0 0 32 32" fill="none" xmlns="http://www.w3.org/2000/svg">
<g id="meh-rolling-eyes">
<path id="Vector" d="M16 3C8.832 3 3 8.832 3 16C3 23.168 8.832 29 16 29C23.168 29 29 23.168 29 16C29 8.832 23.168 3 16 3ZM16 5C22.065 5 27 9.935 27 16C27 22.065 22.065 27 16 27C9.935 27 5 22.065 5 16C5 9.935 9.935 5 16 5ZM11 10C8.794 10 7 11.794 7 14C7 16.206 8.794 18 11 18C13.206 18 15 16.206 15 14C15 11.794 13.206 10 11 10ZM21 10C18.794 10 17 11.794 17 14C17 16.206 18.794 18 21 18C23.206 18 25 16.206 25 14C25 11.794 23.206 10 21 10ZM10.0195 12.2676C9.98598 12.4815 9.99914 12.7001 10.0581 12.9084C10.1171 13.1168 10.2204 13.3099 10.3611 13.4745C10.5017 13.6391 10.6764 13.7713 10.873 13.862C11.0696 13.9527 11.2835 13.9998 11.5 14C11.7734 13.9995 12.0414 13.9242 12.2752 13.7824C12.5089 13.6406 12.6994 13.4376 12.8262 13.1953C12.9355 13.4422 13 13.713 13 14C13 15.103 12.103 16 11 16C9.897 16 9 15.103 9 14C9 13.2551 9.41415 12.6117 10.0195 12.2676ZM21.9805 12.2676C22.5859 12.6117 23 13.2551 23 14C23 15.103 22.103 16 21 16C19.897 16 19 15.103 19 14C19 13.713 19.0645 13.4422 19.1738 13.1953C19.3006 13.4376 19.4911 13.6406 19.7248 13.7824C19.9586 13.9242 20.2266 13.9995 20.5 14C20.7165 13.9998 20.9304 13.9527 21.127 13.862C21.3236 13.7713 21.4983 13.6391 21.6389 13.4745C21.7796 13.3099 21.8829 13.1168 21.9419 12.9084C22.0009 12.7001 22.014 12.4815 21.9805 12.2676ZM12 20V22H20V20H12Z" fill="black"/>
</g>
</svg>
