<svg width="32" height="32" viewBox="0 0 32 32" fill="none" xmlns="http://www.w3.org/2000/svg">
<g id="meh-solid">
<path id="Vector" d="M16 4C9.38281 4 4 9.38281 4 16C4 22.6172 9.38281 28 16 28C22.6172 28 28 22.6172 28 16C28 9.38281 22.6172 4 16 4ZM16 6C21.5352 6 26 10.4648 26 16C26 21.5352 21.5352 26 16 26C10.4648 26 6 21.5352 6 16C6 10.4648 10.4648 6 16 6ZM11.5 12C10.6719 12 10 12.6719 10 13.5C10 14.3281 10.6719 15 11.5 15C12.3281 15 13 14.3281 13 13.5C13 12.6719 12.3281 12 11.5 12ZM20.5 12C19.6719 12 19 12.6719 19 13.5C19 14.3281 19.6719 15 20.5 15C21.3281 15 22 14.3281 22 13.5C22 12.6719 21.3281 12 20.5 12ZM11 20V22H21V20H11Z" fill="black"/>
</g>
</svg>
