<svg width="32" height="32" viewBox="0 0 32 32" fill="none" xmlns="http://www.w3.org/2000/svg">
<g id="mendeley">
<g clip-path="url(#clip0)">
<path id="Vector" d="M9.6582 7.20125C6.0462 7.16125 4.20412 10.8327 5.32812 13.6817C5.93212 16.8477 5.34717 18.5273 3.20117 18.5763C2.15117 18.4623 1.36721 18.8985 0.574214 19.6915C-0.411786 20.6675 -0.381458 24.3885 2.68554 24.7755C5.01954 25.0675 6.64574 22.5219 5.71874 20.4259C3.37474 15.2879 15.0731 15.1686 13.1211 20.0196C13.1161 20.0246 13.1105 20.0291 13.1055 20.0391C11.7775 22.1601 13.4435 24.8669 16.0195 24.7579C18.6005 24.8619 20.2496 22.1501 18.9316 20.0391C18.9266 20.0291 18.923 20.0246 18.918 20.0196C16.966 15.1686 28.6633 15.2879 26.3203 20.4259C26.0923 20.9209 25.9871 21.4806 26.0371 22.0606C26.2801 24.7066 29.4423 25.7328 31.2363 23.8048C32.1193 23.0708 32.3803 20.5548 31.2363 19.4298C30.6273 18.8158 29.7658 18.4773 28.8398 18.5763C26.6948 18.5263 26.0669 16.8477 26.6719 13.6817C27.8019 10.8327 25.9348 7.16625 22.3418 7.20125C18.5068 7.23625 18.4575 11.2638 16.0195 11.2638C13.6365 11.2638 13.4682 7.23625 9.6582 7.20125ZM16.0059 12.2598H16.0352C17.7542 12.2598 19.1465 13.6512 19.1465 15.3712C19.1465 16.6102 18.1952 18.4825 16.0352 18.4825H16.0059C13.8559 18.4825 12.8926 16.6252 12.8926 15.3712C12.8926 13.6522 14.2909 12.2598 16.0059 12.2598Z" fill="black"/>
</g>
</g>
<defs>
<clipPath id="clip0">
<rect width="32" height="32" fill="white"/>
</clipPath>
</defs>
</svg>
