<svg width="32" height="32" viewBox="0 0 32 32" fill="none" xmlns="http://www.w3.org/2000/svg">
<g id="menorah-solid">
<path id="Vector" d="M4 5C4 5 3 7.01562 3 8C3 8.55078 3.44922 9 4 9C4.55078 9 5 8.55078 5 8C5 7.0625 4 5 4 5ZM8 5C8 5 7 7.01562 7 8C7 8.55078 7.44922 9 8 9C8.55078 9 9 8.55078 9 8C9 7.0625 8 5 8 5ZM12 5C12 5 11 7.01562 11 8C11 8.55078 11.4492 9 12 9C12.5508 9 13 8.55078 13 8C13 7.0625 12 5 12 5ZM16 5C16 5 15 7.01562 15 8C15 8.55078 15.4492 9 16 9C16.5508 9 17 8.55078 17 8C17 7.0625 16 5 16 5ZM20 5C20 5 19 7.01562 19 8C19 8.55078 19.4492 9 20 9C20.5508 9 21 8.55078 21 8C21 7.0625 20 5 20 5ZM24 5C24 5 23 7.01562 23 8C23 8.55078 23.4492 9 24 9C24.5508 9 25 8.55078 25 8C25 7.0625 24 5 24 5ZM28 5C28 5 27 7.01562 27 8C27 8.55078 27.4492 9 28 9C28.5508 9 29 8.55078 29 8C29 7.0625 28 5 28 5ZM3 10C3 16.8047 8.32031 22.4141 15 22.9375V25H10V27H22V25H17V22.9375C23.6797 22.4141 29 16.8047 29 10H27C27 15.7188 22.5898 20.4297 17 20.9375V18.9375C21.4766 18.4297 25 14.6055 25 10H23C23 13.5156 20.3828 16.418 17 16.9062V14.9062C19.2695 14.4375 21 12.4023 21 10H19C19 11.3008 18.1562 12.3945 17 12.8125V10H15V12.8125C13.8438 12.3945 13 11.3008 13 10H11C11 12.4023 12.7305 14.4375 15 14.9062V16.9062C11.6172 16.418 9 13.5156 9 10H7C7 14.6055 10.5234 18.4297 15 18.9375V20.9375C9.41016 20.4297 5 15.7188 5 10H3Z" fill="black"/>
</g>
</svg>
