<svg width="32" height="32" viewBox="0 0 32 32" fill="none" xmlns="http://www.w3.org/2000/svg">
<g id="mercury-solid">
<path id="Vector" d="M11 2C11 3.47656 11.6602 4.80078 12.6875 5.71875C9.92969 6.98438 8 9.77734 8 13C8 17.0664 11.0664 20.4375 15 20.9375V24H11V26H15V30H17V26H21V24H17V20.9375C20.9336 20.4375 24 17.0664 24 13C24 9.77734 22.0703 6.98438 19.3125 5.71875C20.3398 4.80078 21 3.47656 21 2H19C19 3.66797 17.668 5 16 5C14.332 5 13 3.66797 13 2H11ZM16 7C19.3242 7 22 9.67578 22 13C22 16.3242 19.3242 19 16 19C12.6758 19 10 16.3242 10 13C10 9.67578 12.6758 7 16 7Z" fill="black"/>
</g>
</svg>
