<svg width="32" height="32" viewBox="0 0 32 32" fill="none" xmlns="http://www.w3.org/2000/svg">
<g id="meteor-solid">
<path id="Vector" d="M30.3438 1.59375L26.4375 4.15625L20.1875 8.25L20.5625 7.59375L22.1875 4.65625L19.2188 6.21875C19.2188 6.21875 16.4922 7.67969 13.2813 9.59375C10.0703 11.5078 6.41406 13.8242 4.40625 15.7812C1.14063 19.0469 1.13281 24.3164 4.40625 27.5H4.4375C7.70703 30.75 12.918 30.7695 16.0938 27.5V27.4688C17.7969 25.7617 19.9023 22.6562 21.625 19.9062C23.3516 17.1484 24.6562 14.7812 24.6562 14.7812L26.0625 12.3125L23.4375 13.375L22.625 13.6875L27.8438 5.53125L30.3438 1.59375ZM23.625 8.40625L19.25 15.25L17.5625 17.9062L20.4688 16.7188L21.4062 16.3438C20.8672 17.2656 20.75 17.4961 19.9062 18.8438C18.207 21.5586 16.082 24.6992 14.6875 26.0938C12.2695 28.6016 8.33984 28.6211 5.8125 26.0938H5.78125C3.27344 23.6758 3.28516 19.7461 5.8125 17.2188C7.50391 15.5742 11.1484 13.1992 14.3125 11.3125C15.8398 10.4023 16.0625 10.2773 17.125 9.6875L16.5313 10.8125L14.5938 14.3438L17.9375 12.125L23.625 8.40625ZM10 18C7.78906 18 6 19.7891 6 22C6 24.2109 7.78906 26 10 26C12.2109 26 14 24.2109 14 22C14 19.7891 12.2109 18 10 18ZM10 20C11.1914 20 12 20.8086 12 22C12 23.1914 11.1914 24 10 24C8.80859 24 8 23.1914 8 22C8 20.8086 8.80859 20 10 20Z" fill="black"/>
</g>
</svg>
