<svg width="32" height="32" viewBox="0 0 32 32" fill="none" xmlns="http://www.w3.org/2000/svg">
<g id="microphone-slash-solid">
<path id="Vector" d="M3.71875 2.28125L2.28125 3.71875L28.2812 29.7188L29.7188 28.2812L23.4375 22C24.3984 20.9375 25 19.543 25 18V14H23V18C23 18.9922 22.6367 19.8984 22.0312 20.5938L20.625 19.1875C20.8633 18.8594 21 18.4375 21 18V6C21 4.89844 20.1016 4 19 4H13C11.8984 4 11 4.89844 11 6V9.5625L3.71875 2.28125ZM13 6H19V17.5625L13 11.5625V6ZM7 14V18C7 21.3086 9.69141 24 13 24H15V26H11V28H21V26H17V24H19C19.2539 24 19.5039 23.9688 19.75 23.9375L17.8125 22H13C10.793 22 9 20.207 9 18V14H7ZM11 15.1875V18C11 19.1016 11.8984 20 13 20H15.8125L13.8125 18H13V17.1875L11 15.1875Z" fill="black"/>
</g>
</svg>
