<svg width="32" height="32" viewBox="0 0 32 32" fill="none" xmlns="http://www.w3.org/2000/svg">
<g id="microphone-alt-solid">
<path id="Vector" d="M21 4C17.4219 4 14.4688 6.71484 14.0625 10.1875L6 21.5938L5.53125 22.2812L6.09375 22.875L6.90625 23.6875L4.28125 26.2812L5.71875 27.7188L8.28125 25.125L9.65625 26.5L10.375 26L21.8438 17.9375C25.3047 17.5195 28 14.5703 28 11C28 7.14453 24.8555 4 21 4ZM21 6C23.7734 6 26 8.22656 26 11C26 12.0156 25.7031 12.9648 25.1875 13.75L18.25 6.8125C19.0352 6.29688 19.9844 6 21 6ZM16.8125 8.25L23.75 15.1875C22.9648 15.7031 22.0156 16 21 16C18.2266 16 16 13.7734 16 11C16 9.98438 16.2969 9.03516 16.8125 8.25ZM14.375 13.1875C15.0703 15.2617 16.707 16.9219 18.7812 17.625L9.90625 23.9062L8.125 22.0625L14.375 13.1875Z" fill="black"/>
</g>
</svg>
