<svg width="32" height="32" viewBox="0 0 32 32" fill="none" xmlns="http://www.w3.org/2000/svg">
<g id="microphone-alt-slash-solid">
<path id="Vector" d="M3.7207 2.2793L2.2793 3.7207L11.8613 13.3027L13.2891 14.7285L17.2617 18.7012L18.7031 20.1445L28.2793 29.7207L29.7207 28.2793L20.3965 18.9551L21.8438 17.9375C25.3057 17.5205 28 14.57 28 11C28 7.145 24.855 4 21 4C17.422 4 14.4695 6.7145 14.0625 10.1875L13.0547 11.6133L3.7207 2.2793ZM21 6C23.773 6 26 8.227 26 11C26 12.016 25.7035 12.965 25.1875 13.75L18.25 6.8125C19.035 6.2965 19.984 6 21 6ZM16.8125 8.25L23.75 15.1875C22.965 15.7025 22.016 16 21 16C18.227 16 16 13.773 16 11C16 9.984 16.2975 9.035 16.8125 8.25ZM10.7227 14.9121L6 21.5938L5.53125 22.2812L6.09375 22.875L6.90625 23.6875L4.28125 26.2812L5.71875 27.7188L8.28125 25.125L9.65625 26.5L10.375 26L17.0898 21.2793L15.6504 19.8418L9.90625 23.9062L8.125 22.0625L12.1523 16.3438L10.7227 14.9121Z" fill="black"/>
</g>
</svg>
