<svg width="32" height="32" viewBox="0 0 32 32" fill="none" xmlns="http://www.w3.org/2000/svg">
<g id="microscope-solid">
<path id="Vector" d="M17 4V6H21V4H17ZM16 7V9H14C11.2539 9 9 11.2539 9 14V18.1875C7.84375 18.6055 7 19.707 7 21C7 22.293 7.84375 23.3945 9 23.8125V26H7V28H24V26H11V23.8125C11.8438 23.5078 12.5078 22.8438 12.8125 22H24V20H12.8125C12.5078 19.1602 11.8398 18.4922 11 18.1875V14C11 12.3438 12.3438 11 14 11H16V17H22V7H16ZM18 9H20V15H18V9ZM10 20C10.5625 20 11 20.4375 11 21C11 21.5625 10.5625 22 10 22C9.4375 22 9 21.5625 9 21C9 20.4375 9.4375 20 10 20Z" fill="black"/>
</g>
</svg>
