<svg width="32" height="32" viewBox="0 0 32 32" fill="none" xmlns="http://www.w3.org/2000/svg">
<g id="mitten-solid">
<path id="Vector" d="M19 3C14.6055 3 11 6.60547 11 11V13.625C9.27734 12.6172 7.03906 12.957 5.8125 14.5938C4.49219 16.3516 4.83594 18.8711 6.59375 20.1875V20.2188H6.625L12 24.1562V29H26V23.7188C26.0195 23.6797 26.0391 23.6445 26.0625 23.5938C26.1758 23.3672 26.2969 23.0469 26.4375 22.625C26.7187 21.7852 27 20.5703 27 19V11C27 6.60547 23.3945 3 19 3ZM19 5C22.3047 5 25 7.69531 25 11V19C25 20.3438 24.7812 21.3438 24.5625 22C24.4531 22.3281 24.3242 22.5664 24.25 22.7188C24.2109 22.793 24.207 22.8438 24.1875 22.875C24.1797 22.8906 24.1602 22.9023 24.1562 22.9062L24.3125 23H13.8437L13.5937 22.8125L7.8125 18.5938C6.91797 17.9258 6.73828 16.7031 7.40625 15.8125C8.07812 14.918 9.29687 14.7383 10.1875 15.4062H10.2187L11.4375 16.25L13 17.3438V11C13 7.69531 15.6953 5 19 5ZM14 25H24V27H14V25Z" fill="black"/>
</g>
</svg>
