<svg width="32" height="32" viewBox="0 0 32 32" fill="none" xmlns="http://www.w3.org/2000/svg">
<g id="mix">
<path id="Vector" d="M5 5V25C5 26.654 6.346 28 8 28C9.654 28 11 26.654 11 25V13C11 12.448 11.448 12 12 12C12.552 12 13 12.448 13 13V21C13 22.654 14.346 24 16 24C17.654 24 19 22.654 19 21V15C19 14.448 19.448 14 20 14C20.552 14 21 14.448 21 15V17C21 18.654 22.346 20 24 20C25.654 20 27 18.654 27 17V5H5ZM7 7H25V17C25 17.552 24.552 18 24 18C23.448 18 23 17.552 23 17V15C23 13.346 21.654 12 20 12C18.346 12 17 13.346 17 15V21C17 21.552 16.552 22 16 22C15.448 22 15 21.552 15 21V13C15 11.346 13.654 10 12 10C10.346 10 9 11.346 9 13V25C9 25.552 8.552 26 8 26C7.448 26 7 25.552 7 25V7Z" fill="black"/>
</g>
</svg>
