<svg width="32" height="32" viewBox="0 0 32 32" fill="none" xmlns="http://www.w3.org/2000/svg">
<g id="mixcloud">
<path id="Vector" d="M12.8457 6C9.2217 6 6.00747 8.33066 4.85547 11.7227C2.11347 12.1237 0 14.4742 0 17.3262C0 20.4482 2.5435 23 5.6875 23H20.2344C22.8564 23 25 20.8681 25 18.2461C25 15.9751 23.3876 14.0743 21.2656 13.6133C20.8446 9.35128 17.2317 6 12.8457 6ZM12.8496 8C16.3846 8 19.252 10.8985 19.252 14.4395C19.252 15.1335 19.1407 15.8177 18.9277 16.4707C18.4717 17.8787 20.5696 18.4596 20.9746 17.1426C21.1166 16.7246 21.2278 16.2867 21.2988 15.8477C22.2818 16.2247 23 17.1832 23 18.3262C23 19.7952 21.8052 21 20.3262 21H5.60547C3.62047 21 2 19.3887 2 17.3887C2 15.3887 3.62047 13.7754 5.60547 13.7754C6.55747 13.7754 7.45967 14.1549 8.13867 14.8379C9.15167 15.8579 10.6929 14.3162 9.66992 13.2852C8.93092 12.5502 8.01839 12.0402 7.02539 11.7852C8.03839 9.51916 10.3166 8 12.8496 8ZM29.4688 12.0078C28.6924 11.9049 27.866 12.7907 28.4473 13.6367C29.3993 15.0687 29.9199 16.7569 29.9199 18.5039C29.9199 20.2409 29.3993 21.9389 28.4473 23.3809C27.9663 24.0779 28.4958 25 29.3008 25C29.6448 25 29.9698 24.8331 30.1758 24.5391C31.3728 22.7531 32 20.6629 32 18.5039C32 16.3349 31.3718 14.2445 30.1738 12.4785C29.9801 12.1865 29.7275 12.0421 29.4688 12.0078ZM26.4766 13.7012C25.6946 13.5994 24.8738 14.4775 25.4551 15.3242C26.1021 16.2662 26.4258 17.3659 26.4258 18.5039C26.4258 19.6429 26.1031 20.7318 25.4551 21.6738C24.9841 22.3608 25.4744 23.293 26.3184 23.293C26.6614 23.293 26.9854 23.1456 27.1914 22.8516C28.0644 21.5566 28.5078 20.0539 28.5078 18.5039C28.5078 16.9439 28.0644 15.443 27.1914 14.168C26.9927 13.8785 26.7372 13.7351 26.4766 13.7012Z" fill="black"/>
</g>
</svg>
