<svg width="32" height="32" viewBox="0 0 32 32" fill="none" xmlns="http://www.w3.org/2000/svg">
<g id="mizuni">
<path id="Vector" d="M16 3C8.832 3 3 8.832 3 16C3 23.168 8.832 29 16 29C23.168 29 29 23.168 29 16C29 8.832 23.168 3 16 3ZM16 5C22.065 5 27 9.935 27 16C27 22.065 22.065 27 16 27C9.935 27 5 22.065 5 16C5 9.935 9.935 5 16 5ZM11.5 10C10.67 10 10 10.67 10 11.5V22C10.79 21.22 11.82 20.5892 13 20.1992V11.5C13 10.67 12.33 10 11.5 10ZM16 10C15.17 10 14.5 10.67 14.5 11.5V19.8301C14.99 19.7501 15.4898 19.7109 16.0098 19.7109C16.5198 19.7109 17.01 19.7501 17.5 19.8301V11.5C17.5 10.67 16.83 10 16 10ZM20.5 10C19.67 10 19 10.67 19 11.5V20.1895C20.18 20.5895 21.21 21.2102 22 21.9902V11.5C22 10.67 21.33 10 20.5 10Z" fill="black"/>
</g>
</svg>
