<svg width="32" height="32" viewBox="0 0 32 32" fill="none" xmlns="http://www.w3.org/2000/svg">
<g id="mobile-solid">
<path id="Vector" d="M11 4C9.35547 4 8 5.35547 8 7V25C8 26.6445 9.35547 28 11 28H21C22.6445 28 24 26.6445 24 25V7C24 5.35547 22.6445 4 21 4H11ZM11 6H21C21.5547 6 22 6.44531 22 7V25C22 25.5547 21.5547 26 21 26H11C10.4453 26 10 25.5547 10 25V7C10 6.44531 10.4453 6 11 6ZM16 23C15.4492 23 15 23.4492 15 24C15 24.5508 15.4492 25 16 25C16.5508 25 17 24.5508 17 24C17 23.4492 16.5508 23 16 23Z" fill="black"/>
</g>
</svg>
