<svg width="32" height="32" viewBox="0 0 32 32" fill="none" xmlns="http://www.w3.org/2000/svg">
<g id="modx">
<path id="Vector" d="M7 4.24219V16.2344L8.85547 17.4473L3.88867 25H16.375L17.5215 23.2852L25 27.7656V15.4395L23.1797 14.3242L27.8164 7H15.4805L14.3477 8.60742L7 4.24219ZM9 7.75781L13.1914 10.248L19.3203 13.8906L10.1934 15.9316L9 15.1523V7.75781ZM16.5195 9H24.1836L21.6758 12.9609L16.0723 9.63281L16.5195 9ZM20.1523 15.7559L15.3066 23H7.59766L11.0195 17.7969L20.1523 15.7559ZM22.3105 16.1367L23 16.5605V24.2344L18.6719 21.6445L22.3105 16.1367Z" fill="black"/>
</g>
</svg>
