<svg width="32" height="32" viewBox="0 0 32 32" fill="none" xmlns="http://www.w3.org/2000/svg">
<g id="money-bill-solid">
<path id="Vector" d="M2 7V24H30V7H2ZM6 9H26C26 10.105 26.895 11 28 11V20C26.895 20 26 20.895 26 22H6C6 20.895 5.105 20 4 20V11C5.105 11 6 10.105 6 9ZM16 11C13.789 11 12 13.016 12 15.5C12 17.984 13.789 20 16 20C18.211 20 20 17.984 20 15.5C20 13.016 18.211 11 16 11ZM16 13C17.102 13 18 14.121 18 15.5C18 16.879 17.102 18 16 18C14.898 18 14 16.879 14 15.5C14 14.121 14.898 13 16 13ZM8.5 14C7.672 14 7 14.672 7 15.5C7 16.328 7.672 17 8.5 17C9.328 17 10 16.328 10 15.5C10 14.672 9.328 14 8.5 14ZM23.5 14C22.672 14 22 14.672 22 15.5C22 16.328 22.672 17 23.5 17C24.328 17 25 16.328 25 15.5C25 14.672 24.328 14 23.5 14Z" fill="black"/>
</g>
</svg>
