<svg width="32" height="32" viewBox="0 0 32 32" fill="none" xmlns="http://www.w3.org/2000/svg">
<g id="monero">
<path id="Vector" d="M16 3C8.832 3 3 8.832 3 16C3 23.168 8.832 29 16 29C23.168 29 29 23.168 29 16C29 8.832 23.168 3 16 3ZM16 5C22.065 5 27 9.935 27 16C27 17.0409 26.8437 18.0449 26.5723 19H22V10.9766L16 17.2617L10 10.9766V19H5.42773C5.15625 18.0449 5 17.0409 5 16C5 9.935 9.935 5 16 5ZM12 15.9688L16 20.1562L20 15.9688V21H25.7852C23.9603 24.5559 20.2637 27 16 27C11.7363 27 8.03967 24.5559 6.21484 21H12V15.9688Z" fill="black"/>
</g>
</svg>
