<svg width="32" height="32" viewBox="0 0 32 32" fill="none" xmlns="http://www.w3.org/2000/svg">
<g id="money-check-alt-solid">
<path id="Vector" d="M2 7V25H30V7H2ZM4 9H28V23H4V9ZM6 11V13H16V11H6ZM22 11V12.0625C20.875 12.25 20 13.2031 20 14.375C20 15.1289 20.418 15.8203 21.0938 16.1562L24 17.625C24 17.8477 23.8477 18 23.625 18H22.375C22.1523 18 22 17.8477 22 17.625V17H20V17.625C20 18.7969 20.875 19.75 22 19.9375V21H24V19.9375C25.125 19.75 26 18.7969 26 17.625C26 16.8711 25.582 16.1836 24.9062 15.8438L22 14.375C22 14.1523 22.1523 14 22.375 14H23.625C23.8477 14 24 14.1523 24 14.375V15H26V14.375C26 13.2031 25.125 12.25 24 12.0625V11H22ZM6 14V16H13V14H6ZM8.5 17C7.89453 17 7.46875 17.3438 7.1875 17.6562C6.90625 17.9688 6.69922 18.3164 6.53125 18.6875C6.19531 19.4336 6 20.2383 6 21H8C8 20.6797 8.15625 19.9844 8.375 19.5C8.4375 19.3594 8.5 19.3125 8.5625 19.2188C8.63672 19.3203 8.69141 19.3867 8.78125 19.5312C8.92578 19.7656 9.08594 20.0469 9.28125 20.3125C9.47656 20.5781 9.71484 21.0156 10.4688 21.0312C11.0625 21.043 11.2461 20.8281 11.4375 20.6875C11.6289 20.5469 11.7617 20.4141 11.9062 20.2812C12.0039 20.1914 12.082 20.125 12.1562 20.0625C12.1836 20.1016 12.293 20.168 12.8438 20.4062C13.5117 20.6992 14.5234 21 16 21V19C14.7695 19 14.1289 18.8008 13.6562 18.5938C13.1836 18.3867 12.8242 18 12 18C11.3984 18 11.2461 18.2344 11.0625 18.375C10.8984 18.5 10.7852 18.6328 10.6562 18.75C10.5977 18.6562 10.5703 18.6094 10.5 18.5C10.332 18.2266 10.1328 17.918 9.84375 17.625C9.55469 17.332 9.09766 17 8.5 17Z" fill="black"/>
</g>
</svg>
