<svg width="32" height="32" viewBox="0 0 32 32" fill="none" xmlns="http://www.w3.org/2000/svg">
<g id="money-check-solid">
<path id="Vector" d="M2 7V25H30V7H2ZM4 9H28V23H4V9ZM6 11V13H16V11H6ZM20 11V16H26V11H20ZM6 14V16H13V14H6ZM8.5 17C7.895 17 7.4695 17.3442 7.1875 17.6562C6.9065 17.9692 6.69925 18.3165 6.53125 18.6875C6.19525 19.4345 6 20.238 6 21H8C8 20.68 8.156 19.984 8.375 19.5C8.437 19.359 8.5005 19.3118 8.5625 19.2188C8.6365 19.3208 8.69125 19.3862 8.78125 19.5312C8.92625 19.7653 9.08625 20.0475 9.28125 20.3125C9.47625 20.5785 9.71475 21.0153 10.4688 21.0312C11.0627 21.0433 11.2455 20.8285 11.4375 20.6875C11.6285 20.5465 11.7612 20.4143 11.9062 20.2812C12.0042 20.1912 12.0822 20.1255 12.1562 20.0625C12.1833 20.1015 12.2947 20.1672 12.8457 20.4062C13.5127 20.6982 14.523 21 16 21V19C14.77 19 14.1292 18.8007 13.6562 18.5938C13.1833 18.3868 12.824 18 12 18C11.398 18 11.2465 18.234 11.0625 18.375C10.8985 18.5 10.7852 18.633 10.6562 18.75C10.5972 18.656 10.57 18.609 10.5 18.5C10.332 18.227 10.1327 17.918 9.84375 17.625C9.55475 17.332 9.098 17 8.5 17ZM20 19V21H26V19H20Z" fill="black"/>
</g>
</svg>
