<svg width="32" height="32" viewBox="0 0 32 32" fill="none" xmlns="http://www.w3.org/2000/svg">
<g id="money-bill-wave-alt-solid">
<path id="Vector" d="M22.8535 6.00784C20.1641 6.08164 18.0788 6.81235 16.0488 7.5176C13.8778 8.2716 11.8282 8.98274 8.99023 9.01174C7.09323 9.04174 5.19317 8.71439 3.32617 8.06839L2 7.6094V24.6914L2.66602 24.9278C4.40502 25.5428 6.18313 25.8974 7.95312 25.9824C8.23413 25.9954 8.5093 26.002 8.7793 26.002C11.7923 26.002 14.0989 25.2027 16.3359 24.4297C18.6939 23.6137 20.9181 22.8434 23.9531 22.9864C25.5271 23.0614 27.112 23.3797 28.666 23.9297L30 24.4024V7.31448L29.3418 7.07424C27.6168 6.44924 25.8349 6.0946 24.0449 6.0176C23.6344 5.99935 23.2377 5.9973 22.8535 6.00784ZM22.9082 7.99417C23.2471 7.98367 23.5958 7.98382 23.957 7.99807C24.331 8.0143 24.7052 8.04818 25.0781 8.09182C25.3449 9.18553 26.324 10 27.5 10C27.671 10 27.838 9.98124 28 9.94924V19.0508C27.838 19.0188 27.671 19 27.5 19C26.2642 19 25.2451 19.8982 25.043 21.0762C24.7109 21.0414 24.3785 21.0178 24.0469 21.002C20.6319 20.852 18.1137 21.7107 15.6797 22.5547C13.3187 23.3727 11.0818 24.146 8.04883 24.002C7.673 23.9839 7.29652 23.9478 6.91992 23.9024C6.65097 22.8117 5.67385 22 4.5 22C4.329 22 4.162 22.0188 4 22.0508V12.9492C4.162 12.9812 4.329 13 4.5 13C5.74448 13 6.76716 12.0887 6.95898 10.8985C7.6439 10.9701 8.32948 11.0115 9.01172 11C12.1767 10.968 14.4781 10.1666 16.7051 9.3926C18.666 8.7101 20.5357 8.06761 22.9082 7.99417ZM16 12C16 13.439 15.439 14 14 14V16C14.7758 16 15.4368 15.8489 16 15.5879V20H18V12H16ZM23.5 13C23.1022 13 22.7206 13.1581 22.4393 13.4394C22.158 13.7207 22 14.1022 22 14.5C22 14.8979 22.158 15.2794 22.4393 15.5607C22.7206 15.842 23.1022 16 23.5 16C23.8978 16 24.2794 15.842 24.5607 15.5607C24.842 15.2794 25 14.8979 25 14.5C25 14.1022 24.842 13.7207 24.5607 13.4394C24.2794 13.1581 23.8978 13 23.5 13ZM8.5 16C8.10218 16 7.72064 16.1581 7.43934 16.4394C7.15804 16.7207 7 17.1022 7 17.5C7 17.8979 7.15804 18.2794 7.43934 18.5607C7.72064 18.842 8.10218 19 8.5 19C8.89782 19 9.27936 18.842 9.56066 18.5607C9.84196 18.2794 10 17.8979 10 17.5C10 17.1022 9.84196 16.7207 9.56066 16.4394C9.27936 16.1581 8.89782 16 8.5 16Z" fill="black"/>
</g>
</svg>
