<svg width="32" height="32" viewBox="0 0 32 32" fill="none" xmlns="http://www.w3.org/2000/svg">
<g id="money-bill-alt-solid">
<path id="Vector" d="M2 7V24H30V7H2ZM6 9H26C26 10.105 26.895 11 28 11V20C26.895 20 26 20.895 26 22H6C6 20.895 5.105 20 4 20V11C5.105 11 6 10.105 6 9ZM15 11C15 12.439 14.439 13 13 13V15C13.7758 15 14.4368 14.8488 15 14.5879V20H17V11H15ZM8.5 14C7.672 14 7 14.672 7 15.5C7 16.328 7.672 17 8.5 17C9.328 17 10 16.328 10 15.5C10 14.672 9.328 14 8.5 14ZM23.5 14C22.672 14 22 14.672 22 15.5C22 16.328 22.672 17 23.5 17C24.328 17 25 16.328 25 15.5C25 14.672 24.328 14 23.5 14Z" fill="black"/>
</g>
</svg>
