<svg width="32" height="32" viewBox="0 0 32 32" fill="none" xmlns="http://www.w3.org/2000/svg">
<g id="moon-solid">
<path id="Vector" d="M5 5V7H3V9H5V11H7V9H9V7H7V5H5ZM20.2812 7.9375L18.625 8C13.2812 8.19141 9 12.5781 9 17.9688C9 23.4805 13.4883 27.9688 19 27.9688C24.3906 27.9688 28.7773 23.6875 28.9688 18.3438L29.0312 16.7188L27.5625 17.4062C26.7812 17.7773 25.9141 17.9688 25 17.9688C21.6758 17.9688 19 15.293 19 11.9688C19 11.0547 19.2227 10.2188 19.5938 9.4375L20.2812 7.9375ZM17.375 10.3125C17.25 10.8672 17 11.375 17 11.9688C17 16.375 20.5938 19.9688 25 19.9688C25.6055 19.9688 26.1211 19.7227 26.6875 19.5938C25.9258 23.2188 22.8594 25.9688 19 25.9688C14.5703 25.9688 11 22.3984 11 17.9688C11 14.1172 13.7578 11.082 17.375 10.3125Z" fill="black"/>
</g>
</svg>
