<svg width="32" height="32" viewBox="0 0 32 32" fill="none" xmlns="http://www.w3.org/2000/svg">
<g id="mortar-pestle-solid">
<path id="Vector" d="M22.4062 3.0001C21.5586 3.03917 20.6797 3.65635 20.2812 4.6251V4.65635H20.25C19.8281 5.77745 19.2344 6.94932 18.5625 8.09385C17.7383 8.02745 16.8828 8.0001 16 8.0001C12.8633 8.0001 10.0195 8.4376 7.875 9.21885C6.80469 9.60948 5.91016 10.0899 5.21875 10.6876C4.60937 11.211 4.16797 11.9024 4.0625 12.6876C4.03125 12.7696 4.01172 12.8517 4 12.9376C3.99609 12.9884 3.99609 13.0431 4 13.0939C4 13.379 4 13.754 4.03125 14.2189C4.03516 14.2501 4.02734 14.2814 4.03125 14.3126C4.04687 14.5392 4.09375 14.7696 4.125 15.0314C4.15625 15.2774 4.17969 15.5157 4.21875 15.7501C4.42578 17.1017 4.83203 18.7071 5.65625 20.2814C6.23828 21.3946 7.04297 22.4884 8.125 23.4064C8.15625 23.4376 8.27734 23.5899 8.28125 23.5939C9.29688 24.6095 11.3086 25.6837 14.5312 25.9376C14.6758 25.9493 14.8203 25.961 14.9688 25.9689C15.3008 25.9884 15.6406 26.0001 16 26.0001C16.5117 26.0001 17.0078 25.9806 17.4688 25.9376C17.543 25.9298 17.6133 25.9142 17.6875 25.9064C18.0078 25.8712 18.3008 25.8321 18.5938 25.7814C18.6445 25.7735 18.6992 25.7579 18.75 25.7501C18.8047 25.7384 18.8516 25.7306 18.9062 25.7189C19.6445 25.5704 20.3086 25.3751 20.9375 25.1251C21.3594 24.9649 21.6953 24.797 22.0312 24.6251C22.1914 24.5392 22.3477 24.4649 22.5 24.3751C22.9375 24.1251 23.2969 23.9064 23.5625 23.7189C23.9961 23.4103 25.0547 22.5353 26.0938 20.7814C27.0078 19.2345 27.8281 17.0314 27.9688 14.2189C28 13.7384 28 13.3517 28 13.0626C28 13.0431 28 13.0235 28 13.0001C28 12.9884 28 12.9806 28 12.9689C28 12.9493 28 12.9259 28 12.9064C28 12.8751 27.9727 12.8439 27.9688 12.8126C27.9688 12.7814 27.9688 12.7501 27.9688 12.7189C27.8516 11.7228 27.1562 10.9142 26.2812 10.3126C25.6562 9.88292 24.8906 9.52354 24.0312 9.21885C24.3438 8.83604 24.6523 8.45323 25 8.09385C25.0312 8.0626 25.0625 8.03135 25.0938 8.0001L25.0625 7.96885C25.8008 7.30088 26.1289 6.3126 25.9062 5.53135C25.6719 4.71104 25.1055 4.13292 24.5312 3.71885C23.9609 3.30479 23.2539 2.96104 22.4062 3.0001ZM22.5 5.0001C22.6641 4.99229 23.0547 5.10948 23.375 5.34385C23.6953 5.57432 23.9531 5.89854 24 6.0626C24.0469 6.22667 24.1172 6.23448 23.75 6.53135L23.6875 6.5626L23.6562 6.59385C20.582 9.73448 18.8008 13.4532 18.2812 15.9064C17.5508 15.9649 16.7812 16.0001 16 16.0001C15.6914 16.0001 15.3945 15.9806 15.0938 15.9689C17.5977 13.504 20.6094 9.42198 22.125 5.3751C22.3086 4.92979 22.3359 5.00792 22.5 5.0001ZM16 10.0001C16.4492 10.0001 16.8828 10.0118 17.3125 10.0314C15.5625 12.5782 13.6016 14.7696 12.3438 15.7501C10.8945 15.5509 9.58984 15.2501 8.5625 14.8751C7.64453 14.5392 6.95312 14.172 6.53125 13.8126C6.10937 13.4532 6 13.1798 6 13.0001C6 12.9689 6 12.9376 6 12.9064C6.03125 12.7306 6.17187 12.4962 6.53125 12.1876C6.95312 11.8282 7.64453 11.461 8.5625 11.1251C10.3984 10.4571 13.0625 10.0001 16 10.0001ZM22.7812 10.9376C23.7812 11.2462 24.6133 11.5978 25.1562 11.9689C25.8203 12.4259 26 12.7814 26 13.0001C26 13.0196 26 13.0431 26 13.0626C25.9805 13.2423 25.8477 13.4845 25.4688 13.8126C25.0469 14.172 24.3555 14.5392 23.4375 14.8751C22.6055 15.1759 21.5859 15.4337 20.4688 15.6251C20.8672 14.379 21.6562 12.6681 22.7812 10.9376ZM25.6875 16.0626C25.5977 16.5196 25.5234 16.9845 25.375 17.4689C25.3398 17.5743 25.3164 17.6798 25.2812 17.7814C25.2578 17.8556 25.2148 17.9259 25.1875 18.0001C24.9336 18.6642 24.6406 19.2501 24.3438 19.7501C23.4688 21.2306 22.4375 22.0704 22.4062 22.0939C21.6953 22.5978 20.5352 23.3946 18.5312 23.7814C18.418 23.8009 18.3008 23.8243 18.1875 23.8439C17.543 23.9493 16.8164 24.0001 16 24.0001C15.6797 24.0001 15.3867 23.9845 15.0938 23.9689C14.9648 23.961 14.8438 23.9493 14.7188 23.9376C14.2656 23.8985 13.8594 23.8517 13.4688 23.7814C13.1602 23.7228 12.875 23.672 12.5938 23.5939C12.4023 23.5431 12.2344 23.4923 12.0625 23.4376C11.3008 23.1837 10.6328 22.8556 10.0625 22.4689C9.94141 22.379 9.82812 22.297 9.75 22.2189L9.71875 22.1876C9.55078 22.0196 9.32812 21.8439 8.96875 21.4376C8.60938 21.0314 8.15625 20.4337 7.71875 19.6876C7.22656 18.8517 6.73437 17.8087 6.40625 16.5314C6.37109 16.379 6.33984 16.2423 6.3125 16.0939C6.77734 16.3595 7.30469 16.5743 7.875 16.7814C10.0195 17.5626 12.8633 18.0001 16 18.0001C19.1367 18.0001 21.9805 17.5626 24.125 16.7814C24.7031 16.5704 25.2188 16.3282 25.6875 16.0626Z" fill="black"/>
</g>
</svg>
