<svg width="32" height="32" viewBox="0 0 32 32" fill="none" xmlns="http://www.w3.org/2000/svg">
<g id="mosque-solid">
<path id="Vector" d="M6.4375 4.15625L5.53125 6.65625L4.0625 10.6562L4 10.8125V28H15V25C15 24.4102 15.1016 24.1523 15.1875 24C15.2734 23.8477 15.3711 23.7578 15.5938 23.5938C15.707 23.5117 15.8398 23.418 16 23.2812C16.1602 23.418 16.293 23.5117 16.4062 23.5938C16.6289 23.7578 16.7266 23.8477 16.8125 24C16.8984 24.1523 17 24.4102 17 25V28H28V10.8125L27.9375 10.625L26.4062 6.625L25.4375 4.15625L24.5312 6.65625L23.0625 10.6562L23 10.8125V17H22.9062C22.5859 14.2891 21.0195 12.6367 19.5625 11.6562C18.75 11.1094 17.9805 10.7266 17.5 10.4062C17.2617 10.2461 17.0938 10.1055 17.0312 10.0312C16.9688 9.95703 17 9.98828 17 10V9H15V10C15 9.98828 15.0312 9.95312 14.9688 10.0312C14.9062 10.1094 14.7422 10.2734 14.5 10.4375C14.0195 10.7656 13.25 11.168 12.4375 11.7188C10.9883 12.7031 9.42188 14.3359 9.09375 17H9V10.8125L8.9375 10.625L7.40625 6.625L6.4375 4.15625ZM6.46875 9.875L7 11.2188V26H6V11.1875L6.46875 9.875ZM25.4688 9.875L26 11.2188V26H25V11.1875L25.4688 9.875ZM16 11.7812C16.125 11.8789 16.2461 11.9766 16.375 12.0625C17.0195 12.4922 17.75 12.8828 18.4375 13.3438C19.6172 14.1406 20.6367 15.0781 20.9062 17H11.0938C11.3633 15.1016 12.3789 14.1484 13.5625 13.3438C14.25 12.875 14.9805 12.5 15.625 12.0625C15.7539 11.9727 15.875 11.8789 16 11.7812ZM9 19H23V26H19V25C19 24.1758 18.8516 23.5117 18.5625 23C18.2734 22.4883 17.8711 22.168 17.5938 21.9688C17.3164 21.7695 17.1836 21.6719 17.125 21.5938C17.0664 21.5156 17 21.4141 17 21H15C15 21.4141 14.9336 21.5156 14.875 21.5938C14.8164 21.6719 14.6836 21.7695 14.4062 21.9688C14.1289 22.168 13.7266 22.4883 13.4375 23C13.1484 23.5117 13 24.1758 13 25V26H9V19Z" fill="black"/>
</g>
</svg>
