<svg width="32" height="32" viewBox="0 0 32 32" fill="none" xmlns="http://www.w3.org/2000/svg">
<g id="motorcycle-solid">
<path id="Vector" d="M22.5 6C21.8438 6 21.2969 6.41406 21.0938 7H17V9H21.25L21.5625 10H18C15.3906 10 14.0781 11.4062 13.5938 12H10.2188C9.83203 11.7734 8.44922 11 6.5 11C4.33984 11 2.5625 11.8438 2.5625 11.8438L3.4375 13.6562C3.4375 13.6562 4.86719 13 6.5 13C7.30859 13 8.07031 13.2461 8.625 13.4688L7.75 15.2812C7.19922 15.1133 6.60547 15 6 15C2.69141 15 0 17.6914 0 21C0 24.3086 2.69141 27 6 27C8.97266 27 11.4336 24.8398 11.9062 22H15.375C16.1328 22 16.8516 21.5586 17.1875 20.875H17.1562L18.25 18.6562C19.9141 17.8906 21.2695 16.5625 22.2188 15.3125C22.4805 14.9688 22.7031 14.6523 22.9062 14.3438L25.0312 21.2812L26.9688 20.7188L25.8438 17.0312C25.8984 17.0273 25.9453 17 26 17C28.207 17 30 18.793 30 21C30 23.207 28.207 25 26 25C23.793 25 22 23.207 22 21C22 19.9336 22.4102 18.9688 23.0938 18.25L22.4688 16.1562C20.9766 17.25 20 19.0156 20 21C20 24.3086 22.6914 27 26 27C29.3086 27 32 24.3086 32 21C32 17.6914 29.3086 15 26 15C25.7344 15 25.4766 15.0273 25.2188 15.0625L23.375 9H25V6H22.5ZM18 12H22C21.8516 12.2695 21.4062 13.0664 20.625 14.0938C19.6953 15.3125 18.4023 16.6094 17.1562 17.0625L16.75 17.1875L16.5938 17.5625L15.375 20H6V22H9.84375C9.39844 23.7227 7.85938 25 6 25C3.79297 25 2 23.207 2 21C2 18.793 3.79297 17 6 17C7.47266 17 8.74219 17.8086 9.4375 19H11.6562C11.25 17.8516 10.4961 16.8633 9.53125 16.1562L10.625 14H14.5312L14.8438 13.5625C14.8438 13.5625 15.8125 12 18 12Z" fill="black"/>
</g>
</svg>
