<svg width="32" height="32" viewBox="0 0 32 32" fill="none" xmlns="http://www.w3.org/2000/svg">
<g id="music-solid">
<path id="Vector" d="M27 3.78125L25.8125 4.03125L9.8125 7.03125L9 7.15625V20.5625C8.40625 20.2148 7.73438 20 7 20C4.80078 20 3 21.8008 3 24C3 26.1992 4.80078 28 7 28C9.19922 28 11 26.1992 11 24V12.8125L25 10.1875V17.5625C24.4062 17.2148 23.7344 17 23 17C20.8008 17 19 18.8008 19 21C19 23.1992 20.8008 25 23 25C25.1992 25 27 23.1992 27 21V3.78125ZM25 6.1875V8.1875L11 10.8125V8.8125L25 6.1875ZM23 19C24.1172 19 25 19.8828 25 21C25 22.1172 24.1172 23 23 23C21.8828 23 21 22.1172 21 21C21 19.8828 21.8828 19 23 19ZM7 22C8.11719 22 9 22.8828 9 24C9 25.1172 8.11719 26 7 26C5.88281 26 5 25.1172 5 24C5 22.8828 5.88281 22 7 22Z" fill="black"/>
</g>
</svg>
