<svg width="32" height="32" viewBox="0 0 32 32" fill="none" xmlns="http://www.w3.org/2000/svg">
<g id="napster">
<path id="Vector" d="M16 4C12.6949 4 9.75225 5.54103 7.83008 7.9375C6.91802 7.59738 6.30249 7.43915 6.25 7.42578L5.00586 7.11133L5.00391 11.0117C3.79419 11.9279 3 13.367 3 15C3 16.654 3.81448 18.1094 5.05078 19.0234C5.56866 24.61 10.2736 29 15.9941 29C21.7124 29 26.4211 24.6112 26.9414 19.0273C28.1816 18.1137 29 16.6571 29 15C29 13.368 28.2065 11.9299 26.998 11.0137L27 7.10938L25.7598 7.42578C25.7071 7.4392 25.0877 7.59856 24.1699 7.94141C22.2478 5.54351 19.3062 4 16 4ZM16 6C18.5562 6 20.8474 7.02936 22.4844 8.6543C21.9257 8.91822 21.3319 9.22705 20.7266 9.58984C17.8166 8.02384 14.1912 8.02384 11.2812 9.58984C10.6737 9.22562 10.0779 8.91688 9.51758 8.65234C11.1544 7.02854 13.4448 6 16 6ZM7 9.76562C7.957 10.1156 9.3477 10.7087 10.7207 11.5957L11.2539 11.9395L11.793 11.6055C14.338 10.0215 17.6737 10.0215 20.2188 11.6055L20.7578 11.9395L21.2891 11.5957C22.6591 10.7097 24.042 10.1186 25 9.76758V18C25 22.963 20.9571 27 15.9941 27C11.0311 27 6.99414 22.964 6.99414 18.002L7 9.76562ZM10.4395 18.0059C10.0043 18.0024 9.52625 18.006 9 18.0098C9.04 18.4598 8.99062 19.7603 10.3906 20.5703C10.6206 20.7003 11.2 20.8899 11.75 20.9199C13.09 20.9799 15 21 15 21C14.426 18.3733 13.4858 18.0303 10.4395 18.0059ZM21.5566 18.0059C18.5037 18.0303 17.5653 18.3733 17 21C17 21 18.91 20.9799 20.25 20.9199C20.8 20.8899 21.3794 20.7003 21.6094 20.5703C23.0094 19.7503 22.96 18.4498 23 18.0098C22.4725 18.006 21.9928 18.0024 21.5566 18.0059ZM13.3594 22C14.0994 22.78 15 23.38 16 23.75C17 23.38 17.8906 22.78 18.6406 22H13.3594ZM14.0098 24.4355C14.0098 24.4355 13.8599 24.5152 13.6699 24.7852C13.5299 25.0052 13.4805 25.2949 13.4805 25.2949C15.0105 26.2349 16.9995 26.2349 18.5195 25.2949C18.5195 25.2949 18.5096 25.0842 18.3496 24.8242C18.1796 24.5442 17.9902 24.4355 17.9902 24.4355C16.6902 24.8255 15.2498 24.8055 14.0098 24.4355Z" fill="black"/>
</g>
</svg>
