<svg width="32" height="32" viewBox="0 0 32 32" fill="none" xmlns="http://www.w3.org/2000/svg">
<g id="neos">
<path id="Vector" d="M8.28711 5L6 6.70117V26H6.66797H10.6621L14.0039 23.5566L14.002 19.5234L18.3672 26H21.7871L25 24V5H20.3379L17 7.41992V11.3496L12.7676 5H8.28711ZM9.38867 6H12.2324L21 19.1504V6H24V23H20.7207L9.38867 6ZM8.32812 6.21484L20.1855 24H23.041L21.4746 25H18.9844L14 17.748V17.7344H13.9902L10 11.9297V22.25L7 24.5V7.20312L8.32812 6.21484ZM20 6.48047V15.8496L18 12.8496V7.92969L20 6.48047ZM11 15.0703L13 18.0371L13.0039 23.0488L10.3379 25H8L11 22.75V15.0703Z" fill="black"/>
</g>
</svg>
