<svg width="32" height="32" viewBox="0 0 32 32" fill="none" xmlns="http://www.w3.org/2000/svg">
<g id="network-wired-solid">
<path id="Vector" d="M13 4V6H9C7.35547 6 6 7.35547 6 9V13H4V19H10V13H8V9C8 8.43359 8.43359 8 9 8H13V10H19V4H13ZM15 6H17V8H15V6ZM20 6V8H23C23.5664 8 24 8.43359 24 9V13H22V19H28V13H26V9C26 7.35547 24.6445 6 23 6H20ZM6 15H8V17H6V15ZM24 15H26V17H24V15ZM6 20V23C6 24.6445 7.35547 26 9 26H13V28H19V22H13V24H9C8.43359 24 8 23.5664 8 23V20H6ZM24 20V23C24 23.5664 23.5664 24 23 24H20V26H23C24.6445 26 26 24.6445 26 23V20H24ZM15 24H17V26H15V24Z" fill="black"/>
</g>
</svg>
