<svg width="32" height="32" viewBox="0 0 32 32" fill="none" xmlns="http://www.w3.org/2000/svg">
<g id="newspaper-solid">
<path id="Vector" d="M3 5V23C3 25.2109 4.78906 27 7 27H25C27.2109 27 29 25.2109 29 23V12H23V5H3ZM5 7H21V23C21 23.7305 21.2227 24.4102 21.5625 25H7C5.80859 25 5 24.1914 5 23V7ZM7 9V14H19V9H7ZM9 11H17V12H9V11ZM23 14H27V23C27 24.1914 26.1914 25 25 25C23.8086 25 23 24.1914 23 23V14ZM7 15V17H12V15H7ZM14 15V17H19V15H14ZM7 18V20H12V18H7ZM14 18V20H19V18H14ZM7 21V23H12V21H7ZM14 21V23H19V21H14Z" fill="black"/>
</g>
</svg>
