<svg width="32" height="32" viewBox="0 0 32 32" fill="none" xmlns="http://www.w3.org/2000/svg">
<g id="nimblr">
<path id="Vector" d="M7 1V19H7.02539C7.01667 19.1665 7 19.3314 7 19.5C7 24.738 11.262 29 16.5 29C21.738 29 26 24.738 26 19.5C26 14.262 21.738 10 16.5 10C13.6935 10 11.1743 11.2303 9.43359 13.1719L7 1ZM16.5 12C20.636 12 24 15.364 24 19.5C24 23.636 20.636 27 16.5 27C12.364 27 9 23.636 9 19.5C9 15.364 12.364 12 16.5 12ZM13.5 17C13.1022 17 12.7206 17.158 12.4393 17.4393C12.158 17.7206 12 18.1022 12 18.5C12 18.8978 12.158 19.2794 12.4393 19.5607C12.7206 19.842 13.1022 20 13.5 20C13.8978 20 14.2794 19.842 14.5607 19.5607C14.842 19.2794 15 18.8978 15 18.5C15 18.1022 14.842 17.7206 14.5607 17.4393C14.2794 17.158 13.8978 17 13.5 17ZM19.5 17C19.1022 17 18.7206 17.158 18.4393 17.4393C18.158 17.7206 18 18.1022 18 18.5C18 18.8978 18.158 19.2794 18.4393 19.5607C18.7206 19.842 19.1022 20 19.5 20C19.8978 20 20.2794 19.842 20.5607 19.5607C20.842 19.2794 21 18.8978 21 18.5C21 18.1022 20.842 17.7206 20.5607 17.4393C20.2794 17.158 19.8978 17 19.5 17Z" fill="black"/>
</g>
</svg>
