<svg width="32" height="32" viewBox="0 0 32 32" fill="none" xmlns="http://www.w3.org/2000/svg">
<g id="node">
<path id="Vector" d="M21.3008 6C21.1438 6 21 6.12578 21 6.30078V11.7969L19.7539 11.0703C19.6759 11.0243 19.588 11.002 19.5 11.002C19.412 11.002 19.3241 11.0243 19.2461 11.0703L16.252 12.8164C16.096 12.9064 16 13.073 16 13.252V16.748C16 16.928 16.096 17.0936 16.252 17.1836L19.2461 18.9297C19.3241 18.9757 19.412 18.998 19.5 18.998C19.588 18.998 19.6759 18.9757 19.7539 18.9297L22.748 17.1836C22.904 17.0936 23 16.927 23 16.748V15V13.252V7.23047C23 7.05247 22.905 6.88883 22.752 6.79883L21.4492 6.04102C21.4002 6.01302 21.3508 6 21.3008 6ZM11.5 11.002C11.4122 11.002 11.3246 11.0248 11.2461 11.0703L8.25195 12.8164C8.09595 12.9064 8 13.073 8 13.252V16.748C8 16.928 8.09595 17.0936 8.25195 17.1836L11.2461 18.9297C11.4031 19.0207 11.5969 19.0207 11.7539 18.9297L14.748 17.1836C14.904 17.0936 15 16.927 15 16.748V13.252C15 13.072 14.904 12.9064 14.748 12.8164L11.7539 11.0703C11.6754 11.0248 11.5878 11.002 11.5 11.002ZM27.5 11.002C27.412 11.002 27.3241 11.0243 27.2461 11.0703L24.252 12.8164C24.096 12.9064 24 13.073 24 13.252V16.748C24 16.928 24.096 17.0936 24.252 17.1836L27.1562 18.9395C27.3123 19.0345 27.508 19.0354 27.666 18.9434L29.0938 18.1133C29.2418 18.0283 29.2428 17.8136 29.0938 17.7266L26 15.9043V14.1094L27.5 13.2363L29 14.1094V15.3594C29 15.5264 29.1404 15.5521 29.2344 15.4961C29.6124 15.2741 30.752 14.6133 30.752 14.6133C30.905 14.5243 31 14.3596 31 14.1816V13.252C31 13.072 30.904 12.9064 30.748 12.8164L27.7539 11.0703C27.6749 11.0243 27.588 11.002 27.5 11.002ZM3.5 11.0039C3.412 11.0039 3.32409 11.0263 3.24609 11.0723L0.251953 12.8164C0.0959531 12.9074 0 13.0739 0 13.2539V17.7168C0 17.9348 0.235828 18.0699 0.423828 17.9609L1.75195 17.1875C1.90495 17.0975 2 16.9339 2 16.7559V14.1133L3.5 13.2383L5 14.1133V16.7559C5 16.9339 5.09505 17.0975 5.24805 17.1875L6.57617 17.9609C6.76417 18.0709 7 17.9348 7 17.7168V13.2539C7 13.0739 6.90405 12.9074 6.74805 12.8164L3.75391 11.0723C3.67591 11.0263 3.588 11.0039 3.5 11.0039ZM19.5 13.2363L21 14.1113V15V15.8887L19.5 16.7637L18 15.8887V14.1113L19.5 13.2363ZM27.5 14.0039L26.6426 14.5039V15.502L27.5 16L28.3574 15.502V14.5039L27.5 14.0039ZM15.4062 17.998C15.3034 17.998 15.1994 18.0232 15.1094 18.0742L12.2969 19.6992C12.1119 19.8012 12 20.0019 12 20.2109V23.457C12 23.666 12.1169 23.8627 12.2969 23.9688L13.0371 24.3906C13.3921 24.5656 13.5226 24.5664 13.6836 24.5664C14.2136 24.5664 14.5156 24.2495 14.5156 23.6895V20.4824C14.5156 20.4334 14.4776 20.3984 14.4336 20.3984H14.0781C14.0291 20.3984 13.9941 20.4384 13.9941 20.4824V23.6895C13.9941 23.9325 13.7374 24.1817 13.3184 23.9727L12.5488 23.5293C12.5238 23.5143 12.5059 23.4841 12.5059 23.4551V20.209C12.5059 20.18 12.5198 20.1459 12.5488 20.1309L15.3613 18.5098C15.3913 18.4948 15.4252 18.4948 15.4492 18.5098L18.2637 20.1309C18.2927 20.1459 18.3066 20.175 18.3066 20.209V23.4551C18.3066 23.4891 18.2877 23.5182 18.2637 23.5332L15.4492 25.1602C15.4242 25.1752 15.3853 25.1752 15.3613 25.1602L14.6426 24.7324C14.6236 24.7224 14.5932 24.7166 14.5742 24.7266C14.3752 24.8436 14.3354 24.8589 14.1504 24.9219C14.1014 24.9369 14.0348 24.9669 14.1758 25.0449L15.1094 25.5996C15.2024 25.6486 15.3042 25.6777 15.4062 25.6777C15.5133 25.6777 15.6172 25.6487 15.6992 25.5957L18.5117 23.9688C18.6967 23.8668 18.8086 23.666 18.8086 23.457V20.2109C18.8086 20.0019 18.6917 19.8062 18.5117 19.6992L15.6992 18.0742C15.6117 18.0232 15.5091 17.998 15.4062 17.998ZM19.793 19.4961C19.506 19.4961 19.2539 19.7282 19.2539 20.0352C19.2539 20.3322 19.496 20.5762 19.793 20.5762C20.09 20.5762 20.332 20.3322 20.332 20.0352C20.332 19.7282 20.085 19.4911 19.793 19.4961ZM19.7871 19.582C20.0411 19.582 20.2461 19.7822 20.2461 20.0352C20.2461 20.2832 20.0401 20.4881 19.7871 20.4941C19.5381 20.4941 19.3359 20.2882 19.3359 20.0352C19.3359 19.7822 19.5391 19.582 19.7871 19.582ZM19.5898 19.7285V20.3359H19.7051V20.0938H19.8125C19.8565 20.0938 19.867 20.1125 19.877 20.1465C19.877 20.1515 19.8954 20.3089 19.9004 20.3379H20.0254C20.0114 20.3089 20.0011 20.2258 19.9961 20.1758C19.9821 20.0978 19.9775 20.0441 19.8945 20.0391C19.9385 20.0241 20.0117 20.0007 20.0117 19.8887C20.0117 19.7277 19.8718 19.7285 19.7988 19.7285H19.5898ZM19.7051 19.8262H19.8027C19.8327 19.8262 19.8906 19.8252 19.8906 19.9082C19.8906 19.9422 19.8759 19.9971 19.7969 19.9961H19.7051V19.8262ZM16.1602 20.3223C15.3572 20.3223 14.8809 20.6645 14.8809 21.2285C14.8809 21.8465 15.358 22.0118 16.127 22.0898C17.047 22.1818 17.1191 22.3141 17.1191 22.4941C17.1191 22.8101 16.8655 22.9414 16.2715 22.9414C15.5265 22.9414 15.3626 22.7567 15.3086 22.3867C15.3036 22.3477 15.2686 22.3184 15.2246 22.3184H14.8594C14.8154 22.3184 14.7773 22.3533 14.7773 22.4023C14.7773 22.8743 15.0346 23.4395 16.2656 23.4395C17.1686 23.4385 17.6797 23.0886 17.6797 22.4746C17.6797 21.8666 17.2703 21.7049 16.4043 21.5879C15.5283 21.4709 15.4414 21.412 15.4414 21.207C15.4414 21.037 15.5132 20.8145 16.1602 20.8145C16.7392 20.8145 16.955 20.9411 17.043 21.3301C17.053 21.3691 17.0801 21.3926 17.1191 21.3926H17.4844C17.5084 21.3926 17.529 21.3831 17.543 21.3691C17.558 21.3501 17.5675 21.3306 17.5625 21.3066C17.5045 20.6346 17.0612 20.3223 16.1602 20.3223Z" fill="black"/>
</g>
</svg>
