<svg width="32" height="32" viewBox="0 0 32 32" fill="none" xmlns="http://www.w3.org/2000/svg">
<g id="ns8">
<g clip-path="url(#clip0)">
<path id="Vector" d="M29.0195 10.0215C26.9864 10.0199 24.8649 11.1758 25.4512 13.0352V13.0391C23.2612 13.4741 21.7372 14.3792 20.7422 15.4492C20.5922 14.9592 20.063 14.6191 19.043 14.6191H14.6621C14.1971 14.6191 14.0179 14.505 14.0879 14.25C14.1679 13.975 14.1815 13.9106 14.2715 13.6406C14.3765 13.3206 14.6625 13.2852 14.9375 13.2852H21.6113L22.0977 11.7109C15.1127 11.7109 14.8728 11.6845 14.0918 11.7695C13.4768 11.8345 12.9155 12.0095 12.5605 12.5195C12.2205 13.0145 11.8416 14.3 11.6816 14.875C11.4116 15.845 11.6503 16.3047 13.3203 16.3047H17.6855C18.0755 16.3047 18.1253 16.4398 18.0703 16.6348C18.0153 16.8548 17.9307 17.1352 17.8457 17.3652C17.7657 17.5752 17.6112 17.7344 17.1562 17.7344H10.8164L10.2363 19.7109C17.2313 19.7109 17.5002 19.6807 18.2812 19.5957C18.6112 19.5607 18.932 19.4896 19.207 19.3496C19.217 19.5346 19.2326 19.7156 19.2676 19.8906C19.5376 21.4156 20.6374 22.5052 22.1074 22.8652C24.5374 23.4602 27.5413 22.0248 28.8613 19.4648C29.7963 17.6548 29.5664 15.6545 28.6914 14.1895H28.6973C30.1773 13.8945 32.2124 13.0902 31.9824 11.6602C31.8374 10.7602 30.787 10.2557 29.877 10.0957C29.5982 10.047 29.31 10.0217 29.0195 10.0215ZM28.6602 10.998C28.8086 10.9957 28.9555 11.0091 29.0918 11.0391C29.8568 11.2091 30.0779 11.8348 29.3379 12.2598C28.8029 12.5648 28.157 12.6652 27.627 12.7402C27.417 12.4402 27.137 11.8158 27.502 11.4258C27.7532 11.1558 28.2148 11.0051 28.6602 10.998ZM9.35547 11.7031V11.7051L7.64648 17.3906L4.91992 11.7051H2.44922L0 19.7109H2.24414L3.80078 14.3848L6.33008 19.7109H9.17578L11.5996 11.7031H9.35547ZM26.1777 14.5059C26.5127 15.2099 26.6921 16.1055 26.5371 16.8965C26.2421 18.3715 24.707 19.2868 23.457 19.0918C21.912 18.8518 21.532 17.1166 22.752 15.8516C23.562 15.0116 25.0127 14.6509 26.1777 14.5059Z" fill="black"/>
</g>
</g>
<defs>
<clipPath id="clip0">
<rect width="32" height="32" fill="white"/>
</clipPath>
</defs>
</svg>
