<svg width="32" height="32" viewBox="0 0 32 32" fill="none" xmlns="http://www.w3.org/2000/svg">
<g id="nutritionix">
<path id="Vector" d="M10 2C10 9 15.5703 8.42578 15.5703 8.42578C15.4483 3.99978 11.9012 2.80488 11.4512 2.67188C15.3762 2.97888 16.4297 8.00781 16.4297 8.00781C18.6887 4.83881 20.8242 5.39062 20.8242 5.39062C18.0642 5.49262 17.2871 8.42578 17.2871 8.42578C21.0481 9.38678 22 5.42188 22 5.42188C17.453 3.80587 16.4805 7.59766 16.4805 7.59766C17.0005 1.99966 10 2 10 2ZM16 9C12.536 9 9.52336 9.98327 7.19336 11.6973C5.96536 13.7503 5 16.312 5 19C5 21.688 5.53591 24.279 6.75391 26.332C9.08391 28.047 12.536 29 16 29C19.464 29 22.9161 28.047 25.2461 26.332C26.4641 24.279 27 21.688 27 19C27 16.312 26.0346 13.7503 24.8066 11.6973C22.4766 9.97327 19.464 9 16 9ZM16 10.3008C19.004 10.3008 21.9116 10.9775 24.0996 12.1035C24.5826 13.1765 24.721 13.9911 25 15.2461C22.619 14.8061 19.443 14.4199 16 14.4199C12.557 14.4199 9.381 14.8061 7 15.2461C7.279 14.0021 7.40739 13.1975 7.90039 12.1035C10.0884 10.9775 12.996 10.3008 16 10.3008ZM10.4434 16C11.2384 16 11.8867 16.6384 11.8867 17.4434C11.8867 18.2384 11.2384 18.877 10.4434 18.877C9.64836 18.877 9 18.2384 9 17.4434C9 16.6384 9.64836 16 10.4434 16ZM14.1445 16.002C14.9495 16.002 15.5879 16.6384 15.5879 17.4434C15.5889 18.2374 14.9505 18.877 14.1445 18.877C13.3495 18.877 12.7109 18.2384 12.7109 17.4434C12.7109 16.6384 13.3495 16.002 14.1445 16.002ZM17.8555 16.002C18.6505 16.002 19.2891 16.6384 19.2891 17.4434C19.2891 18.2374 18.6505 18.877 17.8555 18.877C17.0505 18.877 16.4121 18.2384 16.4121 17.4434C16.4121 16.6384 17.0505 16.002 17.8555 16.002ZM21.5566 16.002C22.3516 16.002 23 16.6384 23 17.4434C23 18.2384 22.3516 18.877 21.5566 18.877C20.7616 18.877 20.1133 18.2384 20.1133 17.4434C20.1133 16.6384 20.7616 16.002 21.5566 16.002ZM10.4434 19.5742C11.2384 19.5742 11.8867 20.2126 11.8867 21.0176C11.8867 21.8126 11.2384 22.4512 10.4434 22.4512C9.64836 22.4512 9 21.8126 9 21.0176C9 20.2126 9.64836 19.5742 10.4434 19.5742ZM14.1445 19.5742C14.9495 19.5742 15.5879 20.2126 15.5879 21.0176C15.5889 21.8126 14.9505 22.4512 14.1445 22.4512C13.3495 22.4512 12.7109 21.8126 12.7109 21.0176C12.7109 20.2126 13.3495 19.5742 14.1445 19.5742ZM17.8555 19.5742C18.6505 19.5742 19.2891 20.2126 19.2891 21.0176C19.2891 21.8126 18.6505 22.4512 17.8555 22.4512C17.0505 22.4512 16.4121 21.8126 16.4121 21.0176C16.4121 20.2126 17.0505 19.5742 17.8555 19.5742ZM21.5566 19.5742C22.3516 19.5742 23 20.2126 23 21.0176C23 21.8126 22.3516 22.4512 21.5566 22.4512C20.7616 22.4512 20.1133 21.8126 20.1133 21.0176C20.1133 20.2126 20.7616 19.5742 21.5566 19.5742ZM10.4434 23.123C11.2384 23.123 11.8867 23.7614 11.8867 24.5664C11.8867 25.3614 11.2384 26 10.4434 26C9.64836 26 9 25.3614 9 24.5664C9 23.7614 9.64836 23.123 10.4434 23.123ZM14.1445 23.123C14.9495 23.123 15.5879 23.7614 15.5879 24.5664C15.5889 25.3614 14.9505 26 14.1445 26C13.3495 26 12.7109 25.3614 12.7109 24.5664C12.7109 23.7614 13.3495 23.123 14.1445 23.123ZM17.8555 23.123C18.6505 23.123 19.2891 23.7614 19.2891 24.5664C19.2891 25.3614 18.6505 26 17.8555 26C17.0505 26 16.4121 25.3614 16.4121 24.5664C16.4121 23.7614 17.0505 23.123 17.8555 23.123ZM21.5566 23.123C22.3516 23.123 23 23.7614 23 24.5664C23 25.3614 22.3516 26 21.5566 26C20.7616 26 20.1133 25.3614 20.1133 24.5664C20.1133 23.7614 20.7616 23.123 21.5566 23.123Z" fill="black"/>
</g>
</svg>
