<svg width="32" height="32" viewBox="0 0 32 32" fill="none" xmlns="http://www.w3.org/2000/svg">
<g id="odnoklassniki-square">
<path id="Vector" d="M5 5V27H27V5H5ZM7 7H25V25H7V7ZM16 9C14.07 9 12.5 10.57 12.5 12.5C12.5 14.43 14.07 16 16 16C17.93 16 19.5 14.43 19.5 12.5C19.5 10.57 17.93 9 16 9ZM16 11C16.827 11 17.5 11.673 17.5 12.5C17.5 13.327 16.827 14 16 14C15.173 14 14.5 13.327 14.5 12.5C14.5 11.673 15.173 11 16 11ZM12.8594 16.0098C12.606 16.0456 12.3667 16.1779 12.2012 16.3984C11.8692 16.8394 11.9574 17.4668 12.3984 17.7988C13.0983 18.3258 13.8942 18.6714 14.7344 18.8516L12.293 21.293C11.902 21.684 11.902 22.316 12.293 22.707C12.684 23.098 13.316 23.098 13.707 22.707L16 20.4141L18.293 22.707C18.488 22.902 18.744 23 19 23C19.256 23 19.512 22.902 19.707 22.707C20.098 22.316 20.098 21.684 19.707 21.293L17.2656 18.8516C18.105 18.6715 18.8992 18.3262 19.5996 17.8008C20.0406 17.4688 20.1298 16.8414 19.7988 16.4004C19.4678 15.9574 18.8424 15.8692 18.3984 16.2012C17.0054 17.2482 14.9906 17.2462 13.5996 16.2012C13.3796 16.0352 13.1128 15.9739 12.8594 16.0098Z" fill="black"/>
</g>
</svg>
