<svg width="32" height="32" viewBox="0 0 32 32" fill="none" xmlns="http://www.w3.org/2000/svg">
<g id="odnoklassniki">
<path id="Vector" d="M15 8.32812C16.2969 8.32812 17.3516 9.38281 17.3516 10.6797C17.3516 11.9727 16.2969 13.0273 15 13.0273C13.7031 13.0273 12.6484 11.9727 12.6484 10.6797C12.6484 9.38281 13.7031 8.32812 15 8.32812ZM15 16.3555C18.1328 16.3555 20.6797 13.8086 20.6797 10.6797C20.6797 7.54688 18.1328 5 15 5C11.8672 5 9.32421 7.54688 9.32421 10.6797C9.32421 13.8086 11.8672 16.3555 15 16.3555ZM17.2969 20.9883C18.4531 20.7227 19.5664 20.2656 20.5937 19.6211C21.3711 19.1328 21.6055 18.1055 21.1172 17.3281C20.625 16.5469 19.6016 16.3125 18.8203 16.8047C16.4961 18.2656 13.5039 18.2656 11.1758 16.8047C10.3984 16.3125 9.37109 16.5469 8.88281 17.3281C8.39452 18.1055 8.6289 19.1328 9.40624 19.6211C10.4336 20.2656 11.5469 20.7227 12.7031 20.9883L9.52734 24.1602C8.8789 24.8086 8.8789 25.8633 9.52734 26.5117C9.85546 26.8359 10.2773 27 10.7031 27C11.1289 27 11.5547 26.8359 11.8828 26.5117L15 23.3945L18.1211 26.5117C18.7695 27.1641 19.8203 27.1641 20.4726 26.5117C21.1211 25.8633 21.1211 24.8086 20.4726 24.1602L17.2969 20.9883Z" fill="black"/>
</g>
</svg>
