<svg width="32" height="32" viewBox="0 0 32 32" fill="none" xmlns="http://www.w3.org/2000/svg">
<g id="oil-can-solid">
<path id="Vector" d="M11 9V11H13V13H7.5625L5.84375 10.4375L5.53125 10H1V15.6875L6 17.6875V25H20.5312L20.8125 24.5625L29.5 12H31V10H27.6562L27.4062 10.1875L21 15V13H15V11H17V9H11ZM3 12H4.4375L6 14.3438V15.5L3 14.3125V12ZM25.7812 13.9375L19.5 23H8V15H19V19L20.5938 17.8125L25.7812 13.9375ZM29.5 16C29.5 16 28 18.6719 28 19.5C28 20.3281 28.6719 21 29.5 21C30.3281 21 31 20.3281 31 19.5C31 18.6719 29.5 16 29.5 16Z" fill="black"/>
</g>
</svg>
