<svg width="32" height="32" viewBox="0 0 32 32" fill="none" xmlns="http://www.w3.org/2000/svg">
<g id="old-republic">
<path id="Vector" d="M16.5371 3.00781C16.1441 2.99781 15.7524 2.99571 15.3594 3.01172C15.2314 3.01972 15.1017 3.02511 14.9727 3.03711C14.7867 3.05611 14.5991 3.06575 14.4141 3.09375C14.2761 3.11375 14.137 3.12539 14 3.15039C13.816 3.18239 13.6313 3.21109 13.4473 3.24609C12.5613 3.42609 11.6903 3.69173 10.8613 4.05273C10.4473 4.22673 10.0453 4.43043 9.65235 4.64843C8.17535 5.47643 6.8605 6.59382 5.8125 7.92382C5.2045 8.68382 4.68763 9.51462 4.26563 10.3906C4.19963 10.5406 4.12445 10.6888 4.06445 10.8418C3.70845 11.6518 3.44367 12.5012 3.26367 13.3672C3.22067 13.5732 3.18935 13.7793 3.15235 13.9863C3.12535 14.1323 3.1128 14.2827 3.0918 14.4297C3.0678 14.5947 3.06092 14.7617 3.04492 14.9277C3.02592 15.1117 3.01481 15.2945 3.00781 15.4785C2.99781 15.9765 2.9912 16.4767 3.0332 16.9727C3.0552 17.1817 3.0647 17.3897 3.0957 17.5977C3.1137 17.7217 3.12353 17.8477 3.14453 17.9707C3.19953 18.2977 3.25589 18.6253 3.33789 18.9473C3.44789 19.4213 3.5841 19.8877 3.7461 20.3457C4.5291 22.5617 5.93005 24.5559 7.74805 26.0449C8.27505 26.4769 8.83388 26.8698 9.42188 27.2148C9.53088 27.2818 9.64191 27.3423 9.75391 27.4023C10.2699 27.6903 10.8094 27.9324 11.3594 28.1484C11.7964 28.3114 12.2394 28.4602 12.6914 28.5742C12.9114 28.6332 13.1344 28.6834 13.3574 28.7324C13.5724 28.7764 13.7879 28.8116 14.0039 28.8496C14.1459 28.8746 14.2886 28.8862 14.4316 28.9062C14.6026 28.9302 14.7753 28.945 14.9473 28.957C15.3033 28.992 15.6615 29 16.0195 28.998C16.3715 29 16.7232 28.9901 17.0742 28.9551C17.3522 28.9391 17.6273 28.9002 17.9023 28.8652C18.1473 28.8262 18.3927 28.7824 18.6367 28.7344C18.9897 28.6634 19.3405 28.5717 19.6875 28.4727C19.8745 28.4197 20.0562 28.3559 20.2402 28.2949C20.5762 28.1819 20.9045 28.0462 21.2305 27.9062C22.3025 27.4352 23.3059 26.8221 24.2129 26.0801C25.6959 24.8771 26.9035 23.3382 27.7305 21.6172C28.1605 20.7222 28.4862 19.7766 28.7012 18.8066C28.7622 18.5386 28.8046 18.268 28.8516 17.998C28.8766 17.856 28.8882 17.7133 28.9082 17.5703C28.9322 17.3943 28.9479 17.218 28.9609 17.041C28.9859 16.781 28.994 16.5208 28.998 16.2598C29.002 15.8208 29.003 15.3804 28.959 14.9434C28.946 14.7404 28.9255 14.5389 28.8965 14.3379C28.8785 14.1719 28.8542 14.0068 28.8242 13.8418C28.7152 13.1688 28.5471 12.5054 28.3301 11.8594C28.2161 11.5104 28.0806 11.1671 27.9336 10.8301C27.8796 10.6911 27.811 10.5598 27.752 10.4238C27.114 9.07982 26.2375 7.84987 25.1875 6.79687C24.1025 5.71287 22.8256 4.82364 21.4336 4.18164C20.8266 3.90464 20.2006 3.67223 19.5586 3.49023C19.1536 3.37923 18.746 3.27703 18.332 3.20703C18.179 3.18103 18.027 3.15386 17.873 3.13086C17.617 3.09986 17.3615 3.05892 17.1035 3.04492C16.9145 3.02792 16.7261 3.01481 16.5371 3.00781ZM15.8066 4.0039C16.2046 3.9969 16.602 4.00515 16.998 4.03515C17.208 4.05815 17.4209 4.06956 17.6309 4.10156C18.0569 4.16156 18.4824 4.23779 18.9004 4.34179C20.5754 4.74579 22.156 5.52756 23.502 6.60156C24.454 7.36156 25.2887 8.26734 25.9707 9.27734C26.4577 10.0023 26.8636 10.7827 27.1836 11.5957C27.5606 12.5567 27.8058 13.5668 27.9258 14.5918C27.9438 14.8008 27.9645 15.0097 27.9805 15.2187C28.0155 15.9457 28.0052 16.6764 27.9102 17.4004C27.8482 17.9534 27.7328 18.4991 27.5938 19.0371C27.4068 19.7291 27.1615 20.4038 26.8555 21.0508C26.7375 21.2938 26.6114 21.5354 26.4824 21.7734C26.3194 22.0574 26.1488 22.3354 25.9668 22.6074C25.8078 22.8354 25.6516 23.0652 25.4766 23.2812C24.8236 24.1142 24.0628 24.863 23.2148 25.498C22.0338 26.383 20.6847 27.0494 19.2617 27.4434C19.0427 27.5054 18.8197 27.5544 18.5977 27.6074C18.4047 27.6534 18.2087 27.6847 18.0137 27.7207C17.7757 27.7637 17.5359 27.7844 17.2969 27.8164C16.5559 27.8934 15.8084 27.8978 15.0664 27.8398C14.9104 27.8248 14.7537 27.809 14.5977 27.793C13.9737 27.715 13.357 27.5851 12.752 27.4121C12.474 27.3371 12.2046 27.2415 11.9336 27.1465C11.5246 26.9985 11.1273 26.8179 10.7363 26.6289C9.64633 26.0819 8.63767 25.3715 7.76367 24.5215C7.16267 23.9395 6.6183 23.2986 6.1543 22.6016C5.4253 21.5246 4.87706 20.3244 4.53906 19.0684C4.46906 18.8224 4.41638 18.5723 4.35938 18.3223C4.28738 17.9453 4.2205 17.5656 4.1875 17.1836C4.1415 16.8026 4.1271 16.4192 4.1211 16.0352C4.1201 15.5542 4.13827 15.0737 4.19727 14.5957C4.24527 14.1317 4.32555 13.6717 4.43555 13.2187C4.92255 11.1077 6.00939 9.1417 7.52539 7.5957C7.65539 7.4687 7.77711 7.33679 7.91211 7.21679C8.16511 6.97879 8.42817 6.75306 8.70117 6.53906C8.91217 6.36606 9.14024 6.21168 9.36524 6.05468C9.88024 5.70468 10.4243 5.39786 10.9863 5.13086C11.6833 4.80386 12.4112 4.54346 13.1582 4.35547C13.5442 4.26446 13.9322 4.18104 14.3242 4.12304C14.8152 4.05604 15.3106 4.0089 15.8066 4.0039ZM12.5703 5.79687C11.7723 6.04887 10.9978 6.38947 10.3008 6.85547C9.91278 7.10847 9.55361 7.40351 9.22461 7.72851C8.64961 8.30651 8.17766 8.98646 7.84766 9.73046C7.66166 10.1315 7.52116 10.5515 7.41016 10.9785C7.20916 11.7785 7.12902 12.6086 7.16602 13.4336C7.17202 13.6686 7.20252 13.8998 7.22852 14.1328C7.30852 14.6768 7.44035 15.2157 7.65235 15.7227C7.70735 15.8637 7.78471 15.9948 7.84571 16.1328C7.89571 16.2428 7.95572 16.3471 8.01172 16.4531C8.25472 16.9011 8.54081 17.327 8.88281 17.707C9.12981 17.987 9.40994 18.237 9.71094 18.457C9.98794 18.663 10.2924 18.8307 10.6074 18.9727C11.1354 19.1977 11.7053 19.3359 12.2813 19.3359C12.3293 19.3369 12.3778 19.3341 12.4258 19.3281C12.4348 19.2431 12.4297 19.1553 12.4277 19.0703C12.4217 18.9173 12.4259 18.7663 12.4199 18.6133C12.4149 18.3103 12.4201 18.0071 12.4121 17.7051C12.4101 17.5811 12.4122 17.457 12.4082 17.332C12.4012 17.147 12.4093 16.9614 12.4023 16.7754C12.3983 16.5604 12.4014 16.3459 12.4004 16.1309C12.3994 15.9679 12.4122 15.8006 12.3652 15.6426C12.3072 15.4266 12.1878 15.2345 12.0508 15.0605C11.9488 14.9305 11.8328 14.8123 11.7148 14.6973C11.4678 14.4613 11.1837 14.2661 10.9297 14.0371C10.4717 13.6211 10.0678 13.1454 9.75781 12.6094C9.39881 11.9944 9.17302 11.2902 9.16602 10.5742C9.15902 10.3152 9.17756 10.0548 9.22656 9.80078C9.29056 9.40678 9.41589 9.02211 9.58789 8.66211C9.81089 8.18111 10.1225 7.74642 10.4785 7.35742C10.9435 6.85442 11.4823 6.42422 12.0703 6.07422C12.2323 5.97422 12.4043 5.88987 12.5703 5.79687ZM19.4941 5.80078C19.5871 5.86078 19.6911 5.90207 19.7891 5.95507C20.4631 6.33107 21.0825 6.80795 21.6035 7.37695C21.8825 7.68495 22.1329 8.01981 22.3359 8.38281C22.4839 8.65881 22.615 8.94414 22.707 9.24414C22.825 9.63914 22.8974 10.048 22.8984 10.459C22.9014 10.692 22.8907 10.9253 22.8457 11.1543C22.7917 11.4883 22.6857 11.812 22.5547 12.123C22.3137 12.668 21.9733 13.1665 21.5703 13.6055C21.3323 13.8705 21.0652 14.1111 20.7832 14.3301C20.4362 14.6081 20.0914 14.9041 19.8574 15.2871C19.7884 15.4031 19.7303 15.5272 19.6953 15.6582C19.6553 15.8112 19.673 15.9719 19.668 16.1289C19.659 16.3939 19.6692 16.6598 19.6602 16.9258C19.6562 17.0498 19.6602 17.1738 19.6582 17.2988C19.6482 17.6668 19.6584 18.0343 19.6484 18.4023C19.6504 18.5973 19.6406 18.7923 19.6426 18.9883C19.6436 19.1013 19.6295 19.2151 19.6445 19.3281C19.7405 19.3411 19.8385 19.335 19.9355 19.332C20.1235 19.326 20.3101 19.3055 20.4941 19.2695C21.1631 19.1465 21.8006 18.8648 22.3496 18.4648C22.8846 18.0798 23.3391 17.5861 23.7031 17.0371C23.9211 16.7181 24.1045 16.3753 24.2715 16.0273C24.4555 15.6773 24.5806 15.299 24.6836 14.918C24.8306 14.327 24.9122 13.7174 24.9082 13.1074C24.9072 12.8684 24.9058 12.6306 24.8848 12.3926C24.8198 11.5376 24.6259 10.6904 24.2949 9.89843C24.2329 9.75143 24.1627 9.61079 24.0957 9.46679C23.7597 8.79879 23.3123 8.18801 22.7773 7.66601C22.2263 7.13301 21.5854 6.69542 20.8984 6.35742C20.5824 6.19442 20.251 6.06145 19.918 5.93945C19.778 5.89045 19.6381 5.83978 19.4941 5.80078ZM14.373 9.04687C14.313 9.10187 14.2619 9.16261 14.2109 9.22461C13.9569 9.52161 13.7377 9.8475 13.5527 10.1875C13.4487 10.3875 13.3495 10.5917 13.2695 10.8027C13.1145 11.1857 12.9971 11.5823 12.9141 11.9863C12.8851 12.1393 12.8536 12.2942 12.8496 12.4512C12.9306 12.4612 13.0108 12.4634 13.0898 12.4844C13.3708 12.5564 13.6173 12.7257 13.8203 12.9277C14.0453 13.1447 14.2363 13.3961 14.4023 13.6621C14.6233 14.0181 14.809 14.4006 14.916 14.8066C14.999 15.1066 15.0421 15.4166 15.0801 15.7246C15.1111 16.0696 15.1384 16.4157 15.1484 16.7617C15.1504 17.0277 15.1632 16.9332 15.1602 17.1992C15.1592 17.3232 15.1592 17.4473 15.1602 17.5723C15.1612 17.7993 15.1494 18.0279 15.1484 18.2559C15.1484 18.3539 15.1388 18.4518 15.1348 18.5488C15.1178 19.1078 15.0636 19.6647 15.0176 20.2227C14.9926 20.4307 14.9782 20.6406 14.9492 20.8496C14.8812 21.3436 14.8269 21.8392 14.7109 22.3242C14.6369 22.6772 14.5455 23.028 14.4395 23.373C14.3625 23.604 14.2936 23.8386 14.1836 24.0566C14.1536 24.1156 14.1185 24.1778 14.0625 24.2168C13.9985 24.1958 13.9608 24.135 13.9258 24.082C13.8598 23.972 13.7981 23.8572 13.7461 23.7402C13.6891 23.6102 13.6215 23.4864 13.5605 23.3594C13.4765 23.1834 13.3767 23.0154 13.2637 22.8574C13.1087 22.6444 12.918 22.4447 12.668 22.3477C12.473 22.2657 12.2499 22.2664 12.0469 22.3164C11.9399 22.3424 11.8336 22.3659 11.7246 22.3789C11.5346 22.4009 11.3453 22.4275 11.1543 22.4355C10.8893 22.4455 10.6244 22.4464 10.3594 22.4434C10.2134 22.4374 10.0669 22.4427 9.92188 22.4277C9.75688 22.4107 9.58878 22.4247 9.42578 22.3867C8.95978 22.2927 8.53467 22.0656 8.13867 21.8086C7.58267 21.4396 7.08038 20.9954 6.60938 20.5254C6.45938 20.3734 6.31697 20.2135 6.16797 20.0605C6.22197 20.1685 6.28094 20.2739 6.33594 20.3809C6.52394 20.7209 6.71097 21.0597 6.91797 21.3887C7.30897 22.0207 7.74267 22.6291 8.26367 23.1621C8.45967 23.3521 8.66463 23.5354 8.89063 23.6894C9.23963 23.9364 9.64431 24.1102 10.0703 24.1602C10.3783 24.1912 10.6922 24.1816 10.9922 24.1016C11.2412 24.0366 11.4858 23.9509 11.7168 23.8379C11.9108 23.7529 12.0934 23.6472 12.2734 23.5352C12.1744 23.6662 12.0662 23.7912 11.9492 23.9062C11.7062 24.1372 11.4319 24.3363 11.1309 24.4863C10.8189 24.6483 10.4827 24.7642 10.1367 24.8262C10.2217 24.9072 10.322 24.972 10.418 25.041C10.831 25.323 11.2696 25.5617 11.7266 25.7637C12.2376 25.9957 12.7715 26.1744 13.3145 26.3164C13.8855 26.4584 14.4677 26.5616 15.0547 26.6016C15.3137 26.6286 15.5749 26.6307 15.8359 26.6367C16.0799 26.6367 16.3244 26.6302 16.5684 26.6172C17.7514 26.5452 18.9226 26.2685 20.0156 25.8125C20.5756 25.5735 21.119 25.2942 21.623 24.9512C21.694 24.9022 21.766 24.8549 21.832 24.7969C21.754 24.7899 21.6766 24.7846 21.5996 24.7656C21.3616 24.7076 21.1367 24.6046 20.9277 24.4766C20.6717 24.3236 20.4369 24.1364 20.2129 23.9394C20.0549 23.7955 19.8998 23.6483 19.7578 23.4883C19.9188 23.6073 20.0856 23.7186 20.2656 23.8086C20.4036 23.8766 20.5415 23.9509 20.6875 24.0019C20.8665 24.0639 21.0454 24.1223 21.2324 24.1523C21.6934 24.2233 22.1716 24.1575 22.6016 23.9805C23.0396 23.8025 23.4293 23.5221 23.7773 23.2051C24.0293 22.9681 24.2656 22.7144 24.4766 22.4414C24.8286 21.9894 25.1363 21.503 25.4063 20.998C25.4813 20.851 25.5649 20.7106 25.6309 20.5586C25.7089 20.3956 25.7847 20.2305 25.8477 20.0605C25.7847 20.1325 25.729 20.2112 25.668 20.2852C25.218 20.8322 24.6928 21.3232 24.0918 21.7012C23.8368 21.8642 23.5671 22.0002 23.2891 22.1172C22.8731 22.2902 22.4304 22.3973 21.9824 22.4453C21.7864 22.4633 21.5905 22.4659 21.3945 22.4609C21.1995 22.4479 21.0035 22.4167 20.8105 22.3867C20.4725 22.3287 20.1302 22.2571 19.7852 22.2891C19.6212 22.3011 19.4635 22.352 19.3125 22.416C19.2005 22.465 19.092 22.5235 19 22.6055C18.941 22.6575 18.9022 22.7259 18.8652 22.7949C18.6472 23.2009 18.4308 23.6086 18.2188 24.0176C18.1908 24.0696 18.1679 24.1259 18.1309 24.1719C18.1109 24.1979 18.072 24.2142 18.041 24.2012C18.024 24.1912 18.0081 24.1771 17.9941 24.1641C17.8771 24.0471 17.7668 23.9232 17.6758 23.7852C17.4358 23.4202 17.2678 23.0136 17.1348 22.5996C17.0508 22.3536 16.9848 22.1026 16.9258 21.8496C16.8068 21.3836 16.7352 20.9095 16.6582 20.4355C16.6232 20.2215 16.6062 20.005 16.5762 19.791C16.5532 19.629 16.5463 19.4657 16.5273 19.3027C16.5053 19.1227 16.4994 18.9417 16.4824 18.7617C16.4644 18.5727 16.4514 18.3824 16.4414 18.1934C16.4364 18.1164 16.4447 18.0398 16.4297 17.9648C16.4187 18.1718 16.4279 18.377 16.4199 18.584C16.4189 18.898 16.42 19.2114 16.418 19.5254C16.41 19.7314 16.4172 19.9385 16.4102 20.1445C16.4052 20.3335 16.4113 20.5229 16.4043 20.7129C16.4023 21.0269 16.4024 21.3403 16.4004 21.6543C16.3924 21.8653 16.4006 22.0781 16.3926 22.2891C16.3886 22.4781 16.3937 22.6674 16.3867 22.8574C16.3857 23.1664 16.3868 23.4742 16.3848 23.7832C16.3768 23.9942 16.384 24.207 16.377 24.418C16.372 24.534 16.3896 24.6536 16.3496 24.7656C16.3176 24.8536 16.2785 24.9405 16.2285 25.0195C16.1865 25.0835 16.1278 25.1443 16.0488 25.1543C15.9868 25.1623 15.9278 25.1298 15.8828 25.0898C15.8088 25.0228 15.7618 24.9347 15.7168 24.8477C15.6828 24.7777 15.6457 24.7089 15.6387 24.6309C15.6327 24.5609 15.6367 24.489 15.6367 24.418C15.6377 20.555 15.6377 17.0534 15.6387 13.1914C15.6467 13.0094 15.5463 12.8405 15.4063 12.7305C15.2623 12.6125 15.0946 12.5314 14.9316 12.4434C14.8366 12.3934 14.7373 12.3502 14.6523 12.2832C14.5123 12.1752 14.3941 12.0424 14.2891 11.9004C14.0561 11.5714 13.8871 11.193 13.8281 10.793C13.8071 10.662 13.8085 10.5285 13.8125 10.3965C13.8155 10.2185 13.8563 10.0421 13.9023 9.87109C13.9813 9.62209 14.1085 9.3905 14.2715 9.1875C14.3065 9.1425 14.341 9.09587 14.373 9.04687ZM15.9043 9.30273C15.8853 9.30673 15.8676 9.3095 15.8496 9.3125C15.7936 9.5705 15.7289 9.82698 15.6699 10.084C15.6649 10.105 15.6564 10.1245 15.6504 10.1445C15.4744 10.1525 15.2971 10.1414 15.1211 10.1484C14.8541 10.1574 14.5854 10.1443 14.3184 10.1543L14.3242 10.2129C14.4162 10.2549 14.5154 10.2736 14.6094 10.3066C14.7724 10.3616 14.9376 10.4108 15.1016 10.4648C15.1686 10.4858 15.2387 10.5022 15.3027 10.5312C15.3067 10.5602 15.3067 10.5901 15.3047 10.6191C15.2387 10.6621 15.1609 10.6742 15.0879 10.6992C14.9089 10.7602 14.7269 10.813 14.5469 10.873C14.4769 10.898 14.401 10.9113 14.334 10.9453C14.312 10.9593 14.3242 10.9878 14.3262 11.0078C14.4132 11.0148 14.5009 11.0088 14.5879 11.0098C14.8529 11.0108 15.1178 11.0088 15.3828 11.0098C15.4728 11.0108 15.5633 11.0065 15.6523 11.0195C15.6783 11.0985 15.689 11.1817 15.709 11.2617C15.756 11.4587 15.7957 11.6565 15.8457 11.8535C15.8647 11.8535 15.8833 11.8554 15.9023 11.8574C15.9173 11.7664 15.9092 11.673 15.9102 11.582V9.58398C15.9102 9.49098 15.9143 9.39673 15.9043 9.30273ZM16.1621 9.30273C16.1521 9.39673 16.1573 9.49098 16.1563 9.58398V11.5859C16.1563 11.6779 16.1491 11.7684 16.1641 11.8594C16.1831 11.8574 16.2017 11.8565 16.2207 11.8555C16.2737 11.6705 16.3045 11.478 16.3535 11.291C16.3765 11.202 16.3871 11.1114 16.4141 11.0234C16.4981 11.0114 16.584 11.0137 16.668 11.0117C16.94 11.0097 17.2095 11.0127 17.4805 11.0117C17.5675 11.0117 17.6532 11.0168 17.7402 11.0098C17.7442 10.9888 17.7534 10.9613 17.7324 10.9473C17.7144 10.9353 17.6938 10.9289 17.6738 10.9219C17.4168 10.8459 17.1623 10.7597 16.9063 10.6797C16.8563 10.6647 16.8077 10.648 16.7617 10.623C16.7587 10.593 16.7596 10.5622 16.7676 10.5332C16.7966 10.5212 16.8255 10.509 16.8555 10.5C17.0515 10.438 17.2474 10.3765 17.4434 10.3125C17.5424 10.2795 17.6452 10.2588 17.7402 10.2148C17.7412 10.1958 17.7441 10.1752 17.7461 10.1562C17.7061 10.1542 17.667 10.1513 17.627 10.1523C17.356 10.1543 17.0845 10.1544 16.8145 10.1484C16.6815 10.1444 16.5471 10.1555 16.4141 10.1465C16.3891 10.0735 16.3803 9.99587 16.3613 9.92187C16.3103 9.71987 16.2698 9.5145 16.2188 9.3125C16.1998 9.3085 16.1811 9.30573 16.1621 9.30273ZM6.58789 10.9609C6.51989 11.0689 6.46916 11.1878 6.41016 11.3008C6.13716 11.8718 5.9071 12.4632 5.7461 13.0762C5.6641 13.3672 5.60374 13.6639 5.55274 13.9629C5.52774 14.1129 5.51319 14.2641 5.49219 14.4141C5.44919 14.7361 5.44155 15.0608 5.43555 15.3848C5.43855 15.6728 5.46086 15.9591 5.50586 16.2441C5.52386 16.3581 5.53655 16.4739 5.56055 16.5859C5.59455 16.7419 5.6192 16.8987 5.65821 17.0527C5.7052 17.2627 5.76713 17.4707 5.82813 17.6777C5.92013 17.9807 6.03711 18.2754 6.16211 18.5664C6.45011 19.2084 6.82469 19.8151 7.30469 20.3301C7.43869 20.4821 7.59114 20.6179 7.74414 20.7519C8.10114 21.0539 8.49888 21.3088 8.92188 21.5098C9.10688 21.6078 9.304 21.6819 9.5 21.7559C10.006 21.9319 10.5411 22.0364 11.0781 22.0234C11.2961 22.0184 11.5174 22.0078 11.7324 21.9668C12.0994 21.9078 12.4539 21.7886 12.7949 21.6426C12.7989 21.6026 12.7932 21.5624 12.7852 21.5234C12.7542 21.3654 12.7239 21.2067 12.6719 21.0547C12.5609 20.6977 12.3947 20.3502 12.1367 20.0762C11.9497 19.8762 11.7151 19.7168 11.4531 19.6348C11.2571 19.5668 11.0506 19.5422 10.8496 19.4922C10.5756 19.4222 10.306 19.3384 10.043 19.2324C9.86297 19.1654 9.69249 19.0743 9.52149 18.9883C9.23049 18.8303 8.95708 18.6369 8.70508 18.4219C8.32208 18.0899 7.98702 17.7084 7.66602 17.3164C7.44902 17.0394 7.27224 16.7339 7.11524 16.4199C6.65924 15.4739 6.42414 14.4298 6.36914 13.3848C6.35214 12.9788 6.35644 12.572 6.39844 12.168C6.43544 11.762 6.49289 11.3569 6.58789 10.9609ZM25.4766 10.9629C25.5736 11.3729 25.6338 11.7909 25.6738 12.2109C25.7088 12.5579 25.7072 12.9069 25.7012 13.2559C25.6962 13.5779 25.6593 13.8997 25.6133 14.2187C25.5883 14.3707 25.5662 14.5238 25.5332 14.6738C25.4802 14.9588 25.3955 15.2357 25.3125 15.5137C25.1085 16.1367 24.8275 16.7415 24.4355 17.2695C24.2715 17.4765 24.0969 17.676 23.9199 17.873C23.8409 17.961 23.7549 18.0449 23.6719 18.1289C23.2559 18.5519 22.7657 18.9044 22.2227 19.1484C21.8667 19.3094 21.4923 19.4256 21.1133 19.5156C20.9163 19.5606 20.7134 19.5831 20.5254 19.6621C20.3724 19.7261 20.2247 19.809 20.0977 19.916C19.8907 20.087 19.7256 20.3031 19.6016 20.5391C19.4616 20.8131 19.3637 21.1072 19.3027 21.4082C19.2877 21.4852 19.2624 21.5636 19.2734 21.6426C19.3724 21.6876 19.4781 21.7236 19.5801 21.7656C19.9701 21.9106 20.3819 21.9945 20.7969 22.0195C21.1369 22.0355 21.4795 22.0101 21.8145 21.9551C22.1335 21.8981 22.4431 21.8025 22.7461 21.6875C23.0741 21.5535 23.3934 21.3931 23.6934 21.2051C24.3664 20.7921 24.9313 20.2176 25.3613 19.5586C25.8023 18.8886 26.1142 18.1392 26.3262 17.3672C26.3802 17.1832 26.4249 16.9966 26.4629 16.8086C26.5629 16.3186 26.6359 15.8184 26.6289 15.3164C26.6269 15.2244 26.624 15.1311 26.623 15.0391C26.584 13.9771 26.3385 12.9283 25.9395 11.9453C25.8455 11.7053 25.733 11.4713 25.623 11.2383C25.577 11.1443 25.5346 11.0499 25.4766 10.9629Z" fill="black"/>
</g>
</svg>
