<svg width="32" height="32" viewBox="0 0 32 32" fill="none" xmlns="http://www.w3.org/2000/svg">
<g id="om-solid">
<path id="Vector" d="M29 19.1211C29 21.207 28.1563 26.5742 23.5898 26.5742C19.2383 26.5742 17.6523 22.7305 17.9531 21.3398C18.2031 21.7656 18.9961 23.957 23.2773 23.957C27.668 23.957 27.7148 19.0781 27.7148 19.0781C27.7148 19.0781 27.6406 15.6172 24.9648 15.6172C21.6992 15.6172 21.5898 20.8086 18.3086 20.8086C16.6641 20.8086 16.1133 19.9375 15.7813 19.6992C16.4883 21.8945 15.6523 27 10.2773 27C2.60547 27 3.00391 18.7227 3.00391 18.7227C3.00391 18.7227 4.28907 23.8242 10.1445 23.8242C13.7148 23.8242 14.1836 21.7852 14.1836 20.8516C14.1836 19.9219 13.4727 18.2812 10.2773 18.2812L9.57813 14.9648C9.57813 14.9648 10.5234 15.2734 11.6914 15.2734C13.2305 15.2734 13.582 14.2461 13.582 13.4023C13.582 12.5625 12.7578 11.7109 11.25 11.7109C8.91407 11.7109 7.03907 14.1094 7.03907 14.1094L5.22266 10.7383C5.22266 10.7383 6.91016 8.5625 10.3281 8.5625C13.7422 8.5625 15.293 11.3594 15.293 13C15.293 14.6406 14.5273 16 13.0742 16.7695C15.0352 17.6914 14.4414 18.3672 15.6914 18.3672C17.7617 18.3672 18.043 16.6758 19.0156 15.1406C19.9141 13.7305 21.1914 12.4687 23.4531 12.4687C27.9805 12.4687 29 17.0391 29 19.1211ZM20.1719 11.9805C22.4727 11.9805 24.2539 10.6484 24.2539 10.6484L22.3438 7.27734C22.3438 7.27734 21.0156 9.14062 18.4414 9.14062C15.8672 9.14062 13.7383 6.78906 13.7383 6.78906C13.7383 6.78906 14.7148 11.9805 20.1719 11.9805ZM20.5273 6.61328L18.6172 4.57031L16.4883 6.43359L18.3984 8.60937L20.5273 6.61328Z" fill="black"/>
</g>
</svg>
