<svg width="32" height="32" viewBox="0 0 32 32" fill="none" xmlns="http://www.w3.org/2000/svg">
<g id="opencart">
<path id="Vector" d="M1 5.25C3.93359 10.8164 9.11719 11.6836 15.4062 11.8125C19.1172 11.8906 27.2812 11.5742 27.2812 13.5625C27.2812 15.0547 21.8438 19.7305 21.8438 20.6875C21.8438 20.6875 25.6133 17.5 27.7188 15.625C29.8242 13.75 31 12.6406 31 11.5312C31 9.27344 22.2695 9.6875 15.2188 9.6875C8.16797 9.6875 4.3125 8.35156 1 5.25ZM8.875 22.5312C7.70703 22.5312 6.75 23.457 6.75 24.625C6.75 25.793 7.70703 26.75 8.875 26.75C10.043 26.75 10.9688 25.793 10.9688 24.625C10.9688 23.457 10.043 22.5312 8.875 22.5312ZM18.625 22.5312C17.457 22.5312 16.5312 23.457 16.5312 24.625C16.5312 25.793 17.457 26.75 18.625 26.75C19.793 26.75 20.75 25.793 20.75 24.625C20.75 23.457 19.793 22.5312 18.625 22.5312Z" fill="black"/>
</g>
</svg>
