<svg width="32" height="32" viewBox="0 0 32 32" fill="none" xmlns="http://www.w3.org/2000/svg">
<g id="opera">
<path id="Vector" d="M15.9688 4C9.67188 4 5 8.94531 5 15.9062C5 22.1914 9.46094 28 15.9688 28C22.5273 28 27 22.1914 27 15.9062C27 8.88281 22.2109 4 15.9688 4ZM15.9688 6C21.2109 6 25 9.75391 25 15.9062C25 21.2617 21.3438 26 15.9688 26C10.6523 26 7 21.2617 7 15.9062C7 9.79297 10.6758 6 15.9688 6ZM15.9688 6.3125C14.9258 6.3125 13.9727 6.71875 13.3125 7.375C12.6523 8.03125 12.2344 8.86719 11.9375 9.78125C11.3398 11.6133 11.2188 13.7969 11.2188 15.7188C11.2188 17.4805 11.2852 19.7266 11.8438 21.6562C12.1211 22.6211 12.5156 23.5352 13.1875 24.25C13.8594 24.9648 14.8555 25.4375 15.9688 25.4375C17.0898 25.4375 18.0664 24.9609 18.75 24.25C19.4336 23.5391 19.8398 22.6211 20.125 21.6562C20.6992 19.7266 20.7812 17.5 20.7812 15.7188C20.7812 13.6523 20.6211 11.4922 20 9.6875C19.6875 8.78516 19.2656 7.94141 18.5938 7.3125C17.9219 6.68359 16.9961 6.3125 15.9688 6.3125ZM15.9688 8.3125C16.5391 8.3125 16.875 8.46094 17.2188 8.78125C17.5625 9.10156 17.8828 9.61328 18.125 10.3125C18.6094 11.7148 18.7812 13.7539 18.7812 15.7188C18.7812 17.4375 18.6758 19.5469 18.2188 21.0938C17.9883 21.8672 17.6719 22.5 17.3125 22.875C16.9531 23.25 16.5938 23.4375 15.9688 23.4375C15.3594 23.4375 15.0078 23.25 14.6562 22.875C14.3047 22.5 13.9727 21.8711 13.75 21.0938C13.3008 19.5391 13.2188 17.4258 13.2188 15.7188C13.2188 13.8906 13.375 11.8516 13.8438 10.4062C14.0781 9.68359 14.4102 9.14844 14.75 8.8125C15.0898 8.47656 15.4141 8.3125 15.9688 8.3125Z" fill="black"/>
</g>
</svg>
