<svg width="32" height="32" viewBox="0 0 32 32" fill="none" xmlns="http://www.w3.org/2000/svg">
<g id="optin-monster">
<path id="Vector" d="M16.8438 3.25C14.7383 3.25 14 5.03125 14 5.03125C14 5.03125 15.0547 4.375 16.4062 4.375C18.7227 4.375 20.125 6.1875 20.125 6.1875C20.125 6.1875 20.0586 3.25 16.8438 3.25ZM14.875 5.53125C11.7695 5.53125 10.1562 6.03125 10.1562 6.03125C10.1562 6.03125 11.7734 6.29297 12.9375 6.8125C8.60547 7.41797 6.53125 10.0312 6.53125 10.0312C6.53125 10.0312 8.13672 9.75 8.71875 9.8125C8.17188 10.125 7.75 10.4766 7.40625 10.8125C7.34375 10.8125 7.27344 10.8164 7.21875 10.8125C6.51953 10.75 6.23828 10.7891 6.1875 10.0938C6.13672 9.39844 6.01953 9 5.375 9C4.73047 9 3.8125 10.4141 3.8125 11.8438C3.8125 13.4688 4.18359 14.875 7.03125 14.9688C7.02734 15 7.03125 15.0938 7.03125 15.0938C7.03125 15.0938 7.98828 15.1523 8.25 15.7188C8.37109 15.7539 8.47656 15.8242 8.59375 15.9062L7.78125 16C7.51953 15.6758 7.15625 15.625 6.8125 15.625C6.78516 15.4531 6.55078 15.0938 6.21875 15.0938C5.64844 15.0938 5.375 15.9062 5.375 15.9062C5.375 15.9062 4.125 16.2812 4.125 17.625C4.125 19.1758 5.51172 19.9375 6.40625 19.9375V20.9688C6.16406 20.7539 5.92578 20.625 5.71875 20.625C5.50781 20.625 5.28906 20.6562 5.09375 20.6875C4.99609 20.582 4.8125 20.4062 4.59375 20.4062C4.31641 20.4062 4.25781 20.7383 4.25 20.9375C3.96094 21.0586 3.67578 21.1992 3.4375 21.375C3.33984 21.3242 3.22656 21.2812 3.125 21.2812C2.95312 21.2812 2.9375 21.457 2.9375 21.5625C2.9375 21.6133 2.92188 21.7109 2.9375 21.8125C2.73047 22.0312 2.57422 22.2656 2.4375 22.5C2.35938 22.4727 2.23047 22.4375 2.15625 22.4375C2.03516 22.4375 2 22.4766 2 22.5625C2 22.625 2.07031 22.8984 2.15625 23.0938C2.08984 23.3008 2.0625 23.5039 2.0625 23.6875C2.0625 24.8398 3.89062 26.75 5.75 26.75C5.96094 26.75 7.15625 26.5469 7.65625 25.5938C7.76562 25.5977 13.2695 25.75 15.875 25.75C18.4688 25.75 24.1484 25.5664 24.3125 25.5625C24.8047 26.5391 26.0352 26.75 26.25 26.75C28.1094 26.75 29.9375 24.8398 29.9375 23.6875C29.9375 23.5039 29.9102 23.332 29.8438 23.125C29.9297 22.9297 30 22.625 30 22.5625C30 22.4766 29.9648 22.4375 29.8438 22.4375C29.7695 22.4375 29.6406 22.4727 29.5625 22.5C29.4258 22.2656 29.2695 22.0312 29.0625 21.8125C29.0781 21.7109 29.0625 21.6133 29.0625 21.5625C29.0625 21.457 29.0469 21.2812 28.875 21.2812C28.7734 21.2812 28.6602 21.3242 28.5625 21.375C28.3242 21.1992 28.0391 21.0586 27.75 20.9375C27.7422 20.7383 27.6836 20.4062 27.4062 20.4062C27.1875 20.4062 27.0039 20.582 26.9062 20.6875C26.7109 20.6562 26.4922 20.6562 26.2812 20.6562C26.0742 20.6562 25.8359 20.7539 25.5938 20.9688V19.9375C26.4883 19.9375 27.875 19.1758 27.875 17.625C27.875 16.2812 26.625 15.9062 26.625 15.9062C26.625 15.9062 26.3516 15.0938 25.7812 15.0938C25.4492 15.0938 25.2148 15.4531 25.1875 15.625C24.832 15.625 24.4492 15.6719 24.1875 16.0312C24.0195 16.0156 23.6992 15.9727 23.3125 15.9375C23.4414 15.8516 23.5781 15.7773 23.75 15.7188C24.1172 15.1602 24.9688 15.125 24.9688 15.125C24.9688 15.125 24.9688 15.0117 24.9688 14.9688C27.9023 14.9023 28.25 13.457 28.25 11.8125C28.25 10.3867 27.3633 9 26.7188 9C26.0742 9 25.9258 9.36719 25.875 10.0625C25.8242 10.7578 25.543 10.75 24.8438 10.8125C24.5938 10.8359 24.2812 10.8047 24.0625 10.7812C22.9375 8.23828 20.4414 5.53125 14.875 5.53125ZM16.0625 6.53125C18.1172 6.53125 19.7812 8.19531 19.7812 10.25C19.7812 12.3047 18.1172 13.9688 16.0625 13.9688C14.0078 13.9688 12.3125 12.3047 12.3125 10.25C12.3125 8.19531 14.0078 6.53125 16.0625 6.53125ZM16.125 9.09375C15.7812 9.09375 15.4531 9.13672 15.1562 9.25C15.6016 9.41406 15.9062 9.83594 15.9062 10.3125C15.9062 10.9336 15.3828 11.4375 14.7188 11.4375C14.2695 11.4375 13.8633 11.2188 13.6562 10.875C13.6094 11.0547 13.5938 11.2148 13.5938 11.4062C13.5938 12.6953 14.7305 13.75 16.125 13.75C17.5195 13.75 18.6562 12.6953 18.6562 11.4062C18.6562 10.1172 17.5195 9.09375 16.125 9.09375ZM5.46875 9.6875C5.70312 9.6875 5.70703 10.1328 5.71875 10.2812C5.73047 10.4297 5.8125 10.6562 5.8125 10.6562C4.69922 11.2109 4.47266 12.1094 4.3125 12.4375C4.3125 10.1211 5.23438 9.6875 5.46875 9.6875ZM26.5938 9.71875C26.8281 9.71875 27.7812 10.125 27.7812 12.4375C27.6211 12.1094 27.3633 11.207 26.25 10.6562C26.25 10.6562 26.332 10.4297 26.3438 10.2812C26.3555 10.1328 26.3594 9.71875 26.5938 9.71875ZM6.03125 11C6.14844 11.0977 6.25391 11.25 6.6875 11.2812C6.6875 11.2812 6.03125 12.2305 6.03125 13.2812C6.03125 14.332 6.125 14.3438 6.125 14.3438C6.125 14.3438 4.87109 14.1484 4.5625 13.4062C4.63672 12.293 5.09766 11.3281 6.03125 11ZM26.0625 11C26.9961 11.3281 27.4258 12.293 27.5 13.4062C27.1914 14.1484 25.9375 14.3438 25.9375 14.3438C25.9375 14.3438 26.0312 14.332 26.0312 13.2812C26.0312 12.2305 25.375 11.2812 25.375 11.2812C25.8086 11.25 25.9453 11.0938 26.0625 11ZM24.2812 11.3438H24.9062C24.9062 11.3438 25.6562 12.2656 25.6562 13.1562C25.6562 14.0469 25.5625 14.4375 25.5625 14.4375L24.9375 14.4688C24.8945 13.7812 24.7617 12.6367 24.2812 11.3438ZM7.875 11.4375L7.78125 11.9375L7.75 12C7.38281 12.875 7.18359 13.8438 7.09375 14.4688L6.53125 14.4375C6.53125 14.4375 6.40625 14.0469 6.40625 13.1562C6.40625 12.5898 6.67969 12.0938 6.90625 11.75C7.22656 11.625 7.57031 11.5234 7.875 11.4375ZM17.75 14.9375C18.2109 14.9375 19.0625 14.9688 19.0625 14.9688C19.0625 14.9688 19.125 15.4609 19.125 15.9688C19.125 16.25 19.1133 16.5312 19.0938 16.6875C19.0664 16.8906 19.0586 17.0938 18.5938 17.0938C18.0391 17.0938 18.1172 17.1562 17.75 17.1562C17.3828 17.1562 16.4297 17.1602 16.375 16.6562C16.3125 16.1016 16.25 14.9688 16.25 14.9688C16.25 14.9688 17.2891 14.9375 17.75 14.9375ZM15.5625 14.9688C15.5625 14.9688 15.6562 15.7578 15.6562 16.5C15.6562 17.2422 15.668 16.6016 15.625 17.2188C15.6016 17.5508 15.7578 17.7188 14.25 17.7188C12.6875 17.7188 12.6875 17.6289 12.6875 16.4375C12.6875 15.2461 12.7812 15 12.7812 15C12.7812 15 15.3398 15 15.5625 14.9688ZM19.75 14.9688C19.75 14.9688 21.5391 15.0352 21.6875 15.0625C21.6875 15.6094 21.3594 17.875 20.3438 17.875C19.9922 17.875 19.9844 16.6875 19.9375 16.1875C19.8828 15.5898 19.75 14.9688 19.75 14.9688ZM12.125 15C12.125 15 12.0195 16.4219 12 16.6875C11.9805 16.9531 11.9062 17.4766 11.9062 17.5312C11.9062 17.5859 11.8477 17.8438 11.6562 17.8438C11.4414 17.8438 10.25 17.4609 10.25 15.7812C10.25 15.4727 10.3125 15.0938 10.3125 15.0938L12.125 15ZM9.78125 16.4688C10.082 17.8203 11.2617 18.4062 11.7188 18.4062C12.1992 18.4062 12.2734 17.9453 12.3125 17.6875C12.6133 18.2109 13.4766 18.25 14.0625 18.25C16.2695 18.25 16.2422 17.7227 16.2812 17.5C16.2812 17.5 16.625 17.7188 17.5938 17.7188C19.5117 17.7188 19.625 17.25 19.625 17.25C19.625 17.25 19.8164 18.4688 20.375 18.4688C21.582 18.4688 22.125 16.5 22.125 16.5C22.2188 16.5039 22.3594 16.5156 22.625 16.5312H22.75C23.0039 16.5469 23.2383 16.5703 23.4375 16.5938C23.4102 16.6523 23.375 16.6992 23.375 16.75C23.375 17.0039 23.7812 17.1875 23.7812 17.1875C23.7812 17.1875 23.6602 17.2812 23.5625 17.4062C22.9922 17.9297 22.043 18.8242 21.2812 19.4688C20.3086 20.293 18.4766 21.6484 15.8125 22.4062C15.5547 22.3516 12.7969 21.2344 11.1875 19.9375C10.0586 19.0273 9.12109 18.1484 8.53125 17.5625C8.42969 17.3477 8.21875 17.1875 8.21875 17.1875C8.21875 17.1875 8.625 17.0039 8.625 16.75C8.625 16.6992 8.58984 16.6523 8.5625 16.5938L9.78125 16.4688ZM23.6562 18.25C23.8359 18.3828 24.0312 18.4375 24.0312 18.4375L24.0625 18.5938C24.0625 18.5938 23.7812 18.6914 23.7812 18.9688C23.7812 19.3398 24.5312 19.4688 24.5312 19.4688C24.5312 19.4688 24.6289 19.6484 24.875 19.7812V21.875C24.4648 22.5625 24.1758 23.4688 24.125 24.4375C22.5703 23.3594 19.2969 22.2617 18.5938 22.0312C19.418 21.6094 20.2539 21.0977 21.0625 20.5C22.043 19.7734 22.9883 18.8828 23.6562 18.25ZM8.3125 18.2812C8.74219 18.6797 10.0156 19.8398 10.8125 20.5C11.3203 20.9219 12.2461 21.4922 13.1875 22C10.5703 22.8281 8.13281 24.2539 7.875 24.4062C7.82031 23.4492 7.52734 22.5547 7.125 21.875V19.7812C7.37109 19.6484 7.46875 19.4688 7.46875 19.4688C7.46875 19.4688 8.21875 19.3398 8.21875 18.9688C8.21875 18.6914 7.9375 18.5938 7.9375 18.5938L7.96875 18.4375C7.96875 18.4375 8.14453 18.3945 8.3125 18.2812ZM5.6875 21.9375C6.92578 21.9375 7.59375 24.2852 7.59375 24.8125C7.59375 25.832 6.46094 26.4375 5.6875 26.4375C4.53516 26.4375 2.75 25.0508 2.75 24.5312C2.75 23.2852 4.375 21.9375 5.6875 21.9375ZM26.3125 21.9375C27.625 21.9375 29.25 23.2852 29.25 24.5312C29.25 25.0508 27.4648 26.4375 26.3125 26.4375C25.5391 26.4375 24.4062 25.832 24.4062 24.8125C24.4062 24.2852 25.0742 21.9375 26.3125 21.9375ZM5.71875 22.3438C5.01953 22.3438 3.21875 23.5703 3.21875 24.4375C3.21875 25.1914 4.20312 25.25 4.34375 25.25C4.83594 25.25 6.625 24.418 6.625 23.4375C6.625 23.2188 6.41797 22.3438 5.71875 22.3438ZM17.9375 22.3438C18.3125 22.4805 20.0273 23.1094 20.8438 23.4688C21.75 23.8672 23.5312 24.9375 23.5312 24.9375C23.5312 24.9375 19.2422 25.0938 16 25.0938C12.7578 25.0938 8.53125 24.9062 8.53125 24.9062C10.3438 23.6914 13.875 22.4609 14.0312 22.4062C14.7656 22.7656 15.4609 23.0898 15.8438 23.1562C16.4492 22.9805 17.1719 22.6992 17.9375 22.3438ZM26.2812 22.3438C25.582 22.3438 25.375 23.2188 25.375 23.4375C25.375 24.418 27.1641 25.25 27.6562 25.25C27.7969 25.25 28.7812 25.1914 28.7812 24.4375C28.7812 23.5703 26.9805 22.3438 26.2812 22.3438ZM6.8125 24.375C6.44531 24.375 5.3125 25.1523 5.3125 25.5938C5.3125 26.0352 5.89062 26.0938 6.0625 26.0938C6.23438 26.0938 7.21875 25.7109 7.21875 25.0312C7.21875 25.0312 7.17969 24.375 6.8125 24.375ZM25.1875 24.375C24.8203 24.375 24.7812 25.0312 24.7812 25.0312C24.7812 25.7109 25.7656 26.0938 25.9375 26.0938C26.1094 26.0938 26.6875 26.0352 26.6875 25.5938C26.6875 25.1523 25.5547 24.375 25.1875 24.375Z" fill="black"/>
</g>
</svg>
