<svg width="32" height="32" viewBox="0 0 32 32" fill="none" xmlns="http://www.w3.org/2000/svg">
<g id="orcid">
<path id="Vector" d="M16 3C8.83214 3 3 8.83214 3 16C3 23.1679 8.83214 29 16 29C23.1679 29 29 23.1679 29 16C29 8.83214 23.1679 3 16 3ZM16 5C22.087 5 27 9.91302 27 16C27 22.087 22.087 27 16 27C9.91302 27 5 22.087 5 16C5 9.91302 9.91302 5 16 5ZM11 8C10.7348 8 10.4804 8.10536 10.2929 8.29289C10.1054 8.48043 10 8.73478 10 9C10 9.26522 10.1054 9.51957 10.2929 9.70711C10.4804 9.89464 10.7348 10 11 10C11.2652 10 11.5196 9.89464 11.7071 9.70711C11.8946 9.51957 12 9.26522 12 9C12 8.73478 11.8946 8.48043 11.7071 8.29289C11.5196 8.10536 11.2652 8 11 8ZM10 11V22H12V11H10ZM14 11V12V22H18.5C21.5256 22 24 19.5256 24 16.5C24 13.4744 21.5256 11 18.5 11H14ZM16 13H18.5C20.4444 13 22 14.5556 22 16.5C22 18.4444 20.4444 20 18.5 20H16V13Z" fill="black"/>
</g>
</svg>
