<svg width="32" height="32" viewBox="0 0 32 32" fill="none" xmlns="http://www.w3.org/2000/svg">
<g id="osi">
<path id="Vector" d="M16 4C9.38281 4 4 9.38281 4 16C4 21.125 7.21484 25.5039 11.75 27.2188L12.6875 27.5938L13.0625 26.6562L15.5312 20.0938L15.875 19.1562L14.9375 18.8125C13.8047 18.3828 13 17.293 13 16C13 14.332 14.332 13 16 13C17.668 13 19 14.332 19 16C19 17.293 18.1953 18.3828 17.0625 18.8125L16.125 19.1562L16.4688 20.0938L18.9375 26.6562L19.3125 27.5938L20.25 27.2188C24.7852 25.5039 28 21.125 28 16C28 9.38281 22.6172 4 16 4ZM16 6C21.5352 6 26 10.4648 26 16C26 19.9219 23.6836 23.2031 20.4062 24.8438L18.5938 20.0625C19.9766 19.1719 21 17.7578 21 16C21 13.25 18.75 11 16 11C13.25 11 11 13.25 11 16C11 17.7578 12.0234 19.1719 13.4062 20.0625L11.5938 24.8438C8.31641 23.2031 6 19.9219 6 16C6 10.4648 10.4648 6 16 6Z" fill="black"/>
</g>
</svg>
