<svg width="32" height="32" viewBox="0 0 32 32" fill="none" xmlns="http://www.w3.org/2000/svg">
<g id="otter-solid">
<path id="Vector" d="M14.5 5C10.789 5 7.44325 6.58395 5.90625 9.00195C4.29525 9.05195 3 10.377 3 12C3 12.899 3.407 14.0214 4 14.8184V27H6V14.0684L5.73242 13.7812C5.30042 13.3142 5 12.469 5 12C5 11.448 5.448 11 6 11C6.065 11 6.14147 11.0113 6.23047 11.0312L7.01367 11.2188L7.36133 10.4902C8.34733 8.43523 11.283 7 14.5 7H17.5C20.717 7 23.6527 8.43523 24.6387 10.4902L24.9863 11.2188L25.7695 11.0312C25.8585 11.0113 25.935 11 26 11C26.552 11 27 11.448 27 12C27 12.469 26.6996 13.3142 26.2676 13.7812L26 14.0684V27H28V14.8184C28.593 14.0214 29 12.899 29 12C29 10.377 27.7048 9.05195 26.0938 9.00195C24.5567 6.58395 21.211 5 17.5 5H14.5ZM10 12C9.73478 12 9.48043 12.158 9.29289 12.4393C9.10536 12.7206 9 13.1022 9 13.5C9 13.8978 9.10536 14.2794 9.29289 14.5607C9.48043 14.842 9.73478 15 10 15C10.2652 15 10.5196 14.842 10.7071 14.5607C10.8946 14.2794 11 13.8978 11 13.5C11 13.1022 10.8946 12.7206 10.7071 12.4393C10.5196 12.158 10.2652 12 10 12ZM22 12C21.7348 12 21.4804 12.158 21.2929 12.4393C21.1054 12.7206 21 13.1022 21 13.5C21 13.8978 21.1054 14.2794 21.2929 14.5607C21.4804 14.842 21.7348 15 22 15C22.2652 15 22.5196 14.842 22.7071 14.5607C22.8946 14.2794 23 13.8978 23 13.5C23 13.1022 22.8946 12.7206 22.7071 12.4393C22.5196 12.158 22.2652 12 22 12ZM16 13.0176C15.085 13.0176 14.1701 13.3408 13.3711 13.9863C9.81409 16.8643 9.73037 16.9356 9.48438 17.1426L9.37695 17.2324C8.48895 17.9754 8 18.959 8 20C8 22.206 9.794 24 12 24C13.498 24 14.914 23.6391 16 22.9941C17.086 23.6391 18.502 24 20 24C22.206 24 24 22.206 24 20C24 18.959 23.511 17.9764 22.623 17.2324L22.5156 17.1426C22.2696 16.9356 22.1869 16.8634 18.6289 13.9844C17.8309 13.3399 16.915 13.0176 16 13.0176ZM16 15.0039C16.4634 15.0039 16.9266 15.1825 17.3711 15.541C20.8981 18.395 20.9836 18.4669 21.2266 18.6719L21.3398 18.7676C21.6408 19.0196 22 19.437 22 20C22 21.103 21.103 22 20 22C18.661 22 17.4009 21.6289 16.6289 21.0059L16.0332 20.5254C16.1078 19.6563 16.3862 19 17 19C18.105 19 19 18.7984 19 18.2734C19 17.5694 17.657 17 16 17C14.343 17 13 17.5694 13 18.2734C13 18.7984 13.895 19 15 19C15.6138 19 15.8922 19.6563 15.9668 20.5254L15.3711 21.0059C14.5991 21.6289 13.339 22 12 22C10.897 22 10 21.103 10 20C10 19.438 10.3591 19.0196 10.6621 18.7676L10.7754 18.6719C11.0194 18.4669 11.1029 18.396 14.6289 15.543C15.0739 15.1835 15.5366 15.0039 16 15.0039Z" fill="black"/>
</g>
</svg>
