<svg width="32" height="32" viewBox="0 0 32 32" fill="none" xmlns="http://www.w3.org/2000/svg">
<g id="page4">
<path id="Vector" d="M16 3C8.82 3 3 8.82 3 16C3 18.923 3.97552 21.6103 5.60352 23.7812L19.9023 3.59766C18.6703 3.20966 17.36 3 16 3ZM21 4V22H27.5254C28.4624 20.204 29 18.166 29 16C29 10.593 25.697 5.959 21 4ZM22.0508 8H22.0527H22.7871V9.70703H23.4531V8.14258H24.1797V9.70703H24.9141V8H25.6406V10.4844H22.0508V8ZM23.5156 11.2207H25.3867C26.1947 12.7557 25.6318 14.6484 23.8418 14.6484C21.7858 14.6484 21.5819 12.203 22.4199 11.293L23.0332 11.8457C22.3582 12.5007 22.6758 13.8184 23.8418 13.8184C24.8958 13.8184 25.2742 12.7965 24.8242 11.9785H24.2402V12.6113H23.5156V11.2207ZM16 11.543L8.60352 22H16V11.543ZM25.6328 14.8105V15.7012L24.8848 16.0078V17.4004L25.6328 17.6953V18.5762L22.0527 17.0215V16.3652L25.6328 14.8105ZM24.2109 16.2754L23.1055 16.7148L24.2109 17.1543V16.2754ZM23.1465 18.3203C23.9545 18.3203 24.2402 18.8314 24.2402 19.6504V20.2246H25.6406V21H22.0625V19.6816C22.0625 18.8736 22.3485 18.3203 23.1465 18.3203ZM23.1465 19.1387C22.7985 19.1387 22.7285 19.4755 22.7285 19.8125V20.2227H23.5879V19.6895C23.5869 19.3835 23.4635 19.1387 23.1465 19.1387ZM5.76758 24C8.14758 27.039 11.84 29 16 29V24H5.76758ZM21 24V28C23.073 27.135 24.8664 25.744 26.2324 24H21Z" fill="black"/>
</g>
</svg>
