<svg width="32" height="32" viewBox="0 0 32 32" fill="none" xmlns="http://www.w3.org/2000/svg">
<g id="pagelines">
<path id="Vector" d="M15.0938 4C15.0938 4 13.8867 5.66406 14.25 8.28125C14.5273 10.2617 16.1797 11.5039 17.0938 12.0312C17.125 12.9844 17.1016 13.957 17 14.9375C16.5391 13.8125 15.5078 11.8438 13.5938 11.1562C11.7344 10.4844 9.375 11.3438 9.375 11.3438C9.69141 13.6602 11.2109 15.4609 13.6875 15.9062C15.2734 16.1914 16.332 16.0078 16.875 15.875C16.625 17.5469 16.1641 19.1992 15.5 20.6875C15.1406 19.582 13.9883 17.3203 10.6562 16.9375C8.69922 16.7148 6.84375 17.9375 6.84375 17.9375C6.84375 17.9375 8.03516 22.2188 11.875 22.2188C13.4336 22.2188 14.4648 21.8633 15.0625 21.5938C15.0312 21.6562 15.0039 21.7188 14.9688 21.7812C13.2617 24.8633 10.5586 27 6.46875 27V28C10.9141 28 14.0117 25.5586 15.8438 22.25C15.957 22.0469 16.0508 21.8359 16.1562 21.625C16.4297 21.832 17.9141 22.875 20.8438 22.875C24.082 22.875 25.5312 19.2188 25.5312 19.2188C25.5312 19.2188 23.9141 17.875 21.4375 17.875C19.0938 17.875 17.3398 19.7422 16.5312 20.8125C17.1758 19.3047 17.6289 17.6797 17.875 16.0312C18.0508 16.0664 21.3945 16.668 23.2812 14.75C25.2188 12.7812 24.9062 10.9688 24.9062 10.9688C24.9062 10.9688 21.6484 10.5039 19.875 12.125C18.7578 13.1484 18.168 14.8477 17.9375 15.625C18.1133 14.2969 18.1523 12.9727 18.0938 11.6875C18.4492 11.0312 18.9375 9.91016 18.9375 8.4375C18.9375 5.24219 15.0938 4 15.0938 4Z" fill="black"/>
</g>
</svg>
