<svg width="32" height="32" viewBox="0 0 32 32" fill="none" xmlns="http://www.w3.org/2000/svg">
<g id="paint-brush-solid">
<path id="Vector" d="M24.8125 4.03125C23.9766 4.03125 23.1328 4.36719 22.5 5L9.8125 17.5L9.1875 18.0938C8.4375 18.2344 7.72266 18.6016 7.15625 19.2188C6.32422 20.1289 6.16016 21.2422 5.84375 22.4375C5.52734 23.6328 5.125 24.9648 4.15625 26.4375L3.15625 28H5C8.91406 28 11.4961 26.1289 12.8125 24.8125L12.8438 24.7812C13.4453 24.1641 13.7812 23.3867 13.9062 22.5938L14.4062 22.125L27.0938 9.625V9.59375C28.3594 8.32812 28.3594 6.26562 27.0938 5C26.4609 4.36719 25.6484 4.03125 24.8125 4.03125ZM24.8125 6C25.125 6 25.4219 6.14062 25.6875 6.40625C26.2227 6.94141 26.2227 7.65234 25.6875 8.1875L16.6562 17.125L14.8438 15.3125L23.9062 6.40625C24.1719 6.14062 24.5 6 24.8125 6ZM13.4062 16.7188L15.2188 18.5312L13.7188 20L11.9062 18.1875L13.4062 16.7188ZM9.96875 20.0312C10.4727 20.0469 11.0195 20.2422 11.4375 20.625C12.2148 21.3359 12.2344 22.5781 11.4062 23.4062C10.5391 24.2734 9 25.3906 6.75 25.8125C7.23047 24.7617 7.56641 23.7812 7.78125 22.9688C8.11328 21.7148 8.35938 20.8555 8.625 20.5625C8.97266 20.1836 9.46484 20.0156 9.96875 20.0312Z" fill="black"/>
</g>
</svg>
