<svg width="32" height="32" viewBox="0 0 32 32" fill="none" xmlns="http://www.w3.org/2000/svg">
<g id="palette-solid">
<path id="Vector" d="M15.5937 2.96874C15.0625 2.98437 14.5156 3.04296 13.9687 3.12499H13.9375C8.61328 3.99609 4.30078 8.1914 3.21874 13.5C2.89453 15.0117 2.91406 16.4219 3.12499 17.8125C3.13281 17.8164 3.12499 17.8359 3.12499 17.8437C3.45312 20.1914 6.49999 21.2187 8.21874 19.5C9.44921 18.2695 11.2695 18.2695 12.5 19.5C13.7305 20.7305 13.7305 22.5508 12.5 23.7812C10.7812 25.5 11.8086 28.5469 14.1562 28.875C14.1641 28.875 14.1836 28.8672 14.1875 28.875C15.5664 29.0859 16.9687 29.0976 18.4687 28.7812C18.4805 28.7812 18.4883 28.7812 18.5 28.7812C23.8242 27.7891 28.0078 23.375 28.875 18.0625V18.0312C30.0078 10.3906 24.4219 3.71874 17.1562 3.03124C16.6367 2.98046 16.125 2.95312 15.5937 2.96874ZM15.625 4.96874C16.0781 4.95312 16.5273 4.96093 16.9687 4.99999C23.1641 5.5664 27.875 11.2148 26.9062 17.75C26.1758 22.2266 22.5859 25.9922 18.125 26.8125H18.0937C16.8164 27.0859 15.6367 27.0898 14.4375 26.9062C13.6172 26.8047 13.2383 25.8867 13.9062 25.2187C15.875 23.25 15.875 20.0625 13.9062 18.0937C11.9375 16.125 8.74999 16.125 6.78124 18.0937C6.11328 18.7617 5.19531 18.3828 5.09374 17.5625C4.91015 16.3633 4.91406 15.1836 5.18749 13.9062C6.10546 9.41796 9.77343 5.82421 14.25 5.09374C14.7187 5.02343 15.1719 4.98437 15.625 4.96874ZM14 6.99999C12.8945 6.99999 12 7.89452 12 8.99999C12 10.1055 12.8945 11 14 11C15.1055 11 16 10.1055 16 8.99999C16 7.89452 15.1055 6.99999 14 6.99999ZM21 8.99999C19.8945 8.99999 19 9.89452 19 11C19 12.1055 19.8945 13 21 13C22.1055 13 23 12.1055 23 11C23 9.89452 22.1055 8.99999 21 8.99999ZM8.99999 11C7.89453 11 6.99999 11.8945 6.99999 13C6.99999 14.1055 7.89453 15 8.99999 15C10.1055 15 11 14.1055 11 13C11 11.8945 10.1055 11 8.99999 11ZM23 16C21.8945 16 21 16.8945 21 18C21 19.1055 21.8945 20 23 20C24.1055 20 25 19.1055 25 18C25 16.8945 24.1055 16 23 16ZM19 21C17.8945 21 17 21.8945 17 23C17 24.1055 17.8945 25 19 25C20.1055 25 21 24.1055 21 23C21 21.8945 20.1055 21 19 21Z" fill="black"/>
</g>
</svg>
