<svg width="32" height="32" viewBox="0 0 32 32" fill="none" xmlns="http://www.w3.org/2000/svg">
<g id="palfed">
<path id="Vector" d="M14 4C13.45 4 13 4.45 13 5V6C8.582 6 5 7.791 5 10H4C2.9 10 2 10.9 2 12C2 13.1 2.9 14 4 14H5.375L6.78125 25.248C6.90625 26.249 7.75663 27 8.76562 27H23.2344C24.2434 27 25.0947 26.249 25.2207 25.248L26.625 14H28C29.1 14 30 13.1 30 12C30 10.9 29.1 10 28 10H27C27 7.791 23.418 6 19 6V5C19 4.45 18.55 4 18 4H14ZM15.3281 8.1875C15.7088 8.22279 16.0487 8.50562 16.1406 8.96875C19.8036 7.84275 23 9.01809 23 12.6211C23 16.5741 19.085 20.3658 16 19.6348V24.709V24.7188C16.01 24.8918 16.0588 25.3525 15.7598 25.6875C15.2728 26.2255 14.0641 26.1956 13.9121 24.5566C13.7041 22.3036 13.9214 14.099 13.9824 12.252C12.8914 13.013 11.0156 14.8026 11.0156 16.1016C11.0256 16.2286 11.0349 16.3059 11.0449 16.3359C11.0549 16.3359 11.3753 16.1973 11.6133 16.1973C12.9633 16.1973 12.6638 18.4355 10.8828 18.4355C9.79281 18.4365 9 17.5199 9 16.2559C9 14.1249 11.1764 11.4039 14.1094 9.83594C14.1604 9.20694 14.2616 8.7193 14.6426 8.4043C14.8556 8.23292 15.0997 8.16632 15.3281 8.1875ZM18.5391 10.6836C17.7605 10.6923 16.9034 10.886 16.1504 11.1602C16.0854 13.1592 16.025 15.2562 16 17.2402C16.035 17.3822 16.1299 17.5547 16.7539 17.5547C18.5919 17.5547 20.9191 15.3828 20.9141 12.6738C20.9141 11.1701 19.8367 10.6691 18.5391 10.6836Z" fill="black"/>
</g>
</svg>
