<svg width="32" height="32" viewBox="0 0 32 32" fill="none" xmlns="http://www.w3.org/2000/svg">
<g id="parachute-box-solid">
<path id="Vector" d="M28 16C28 9.38281 22.6172 4 16 4C9.38281 4 4 9.38281 4 16V16.4531L12 23.4531V28H20V23.4531L28 16.4531V16ZM16 6.36328C16.8672 7.30469 18.4219 9.53516 18.8711 13.6562C18.1484 13.2812 17.207 13 16 13C14.793 13 13.8516 13.2812 13.1289 13.6562C13.5781 9.53125 15.1367 7.30078 16 6.36328ZM11.0859 16.3984L13.4844 22H13.375L6.33594 15.8398C6.71875 15.4492 7.39062 15 8.5 15C10.4023 15 11.0586 16.3516 11.0859 16.3984ZM15.6602 22L13.1406 16.125C13.5234 15.6914 14.3789 15 16 15C17.625 15 18.4844 15.6953 18.8594 16.1211L16.3398 22H15.6602ZM18.5156 22L20.9141 16.3984C20.9258 16.3828 21.5547 15 23.5 15C24.6016 15 25.2734 15.4531 25.6602 15.8438L18.625 22H18.5156ZM25.6602 13.4453C25.0781 13.1797 24.3672 13 23.5 13C22.3906 13 21.5352 13.293 20.8789 13.6836C20.5352 10.207 19.4688 7.82422 18.4766 6.32031C21.9766 7.21875 24.7383 9.95703 25.6602 13.4453ZM13.5195 6.32422C12.5312 7.82422 11.4648 10.207 11.1211 13.6836C10.4648 13.293 9.60938 13 8.5 13C7.63281 13 6.92188 13.1797 6.33984 13.4453C7.26172 9.95703 10.0234 7.21875 13.5195 6.32422ZM18 26H14V24H18V26Z" fill="black"/>
</g>
</svg>
