<svg width="32" height="32" viewBox="0 0 32 32" fill="none" xmlns="http://www.w3.org/2000/svg">
<g id="passport-solid">
<path id="Vector" d="M6 3V29H26V3H6ZM8 5H24V27H8V5ZM16 8C12.6992 8 10 10.6992 10 14C10 17.3008 12.6992 20 16 20C19.3008 20 22 17.3008 22 14C22 10.6992 19.3008 8 16 8ZM16.6875 10.0938C17.1719 10.1758 17.625 10.3242 18.0312 10.5625L18.0938 11.2812L17.625 11.0938L17.25 11.4062L17.3125 12.3125L18.2812 12.0312L19.4688 12.4062L19.1562 12.9375L18.4375 12.5L17.6562 12.625L16.9062 13.1875L16.4688 14.5L17.3125 15.1875C17.3125 15.1875 18.2031 15.0312 18.25 15.0312C18.2969 15.0312 18.625 15.8438 18.625 15.8438L18.125 17.375C17.5117 17.7578 16.7852 18 16 18C15.7656 18 15.5352 17.9453 15.3125 17.9062L15.125 17.5938L15.5938 15.8438L13.8125 14.5H12.1562L12.0312 14.25C12.0273 14.1641 12 14.0859 12 14C12 13.7852 12.0312 13.5781 12.0625 13.375L12.9062 12.7188L14.6875 11.875L14.4062 10.7188L15.1875 10.5625L15.5312 11.0625L16.875 10.8125L16.6875 10.0938ZM13.0625 16.7188H13.375L13.9688 17.4375C13.6289 17.2383 13.3281 17.0039 13.0625 16.7188ZM10 22V24H22V22H10Z" fill="black"/>
</g>
</svg>
