<svg width="32" height="32" viewBox="0 0 32 32" fill="none" xmlns="http://www.w3.org/2000/svg">
<g id="pastafarianism-solid">
<path id="Vector" d="M11 4C9.346 4 8 5.346 8 7C8 8.31874 8.86169 9.42902 10.0469 9.83008C10.1017 10.5184 10.2363 11.4963 10.584 12.4199C9.67206 12.8978 8.87415 13.4684 8.25977 14.0996C8.15866 14.1952 8.06925 14.3007 7.97852 14.4062C7.92151 14.4734 7.84931 14.5372 7.79688 14.6055L7.80859 14.6133C7.72983 14.7183 7.65817 14.8268 7.58984 14.9395C7.08934 14.8102 6.82434 14.4123 6.39453 13.5527C5.88553 12.5357 5.118 11 3 11V13C3.81 13 4.06947 13.3753 4.60547 14.4473C5.02496 15.2854 5.63361 16.4626 7.01562 16.8555C7.01383 16.9046 7 16.9504 7 17C7 17.9616 7.35456 18.8329 7.92188 19.5234C7.69011 20.3715 6.92068 21 6 21C4.897 21 4 20.103 4 19H2C2 21.206 3.794 23 6 23C7.58315 23 8.94188 22.0676 9.58984 20.7305C10.0302 20.8976 10.5017 21 11 21C11.1733 21 11.3383 20.9707 11.5059 20.9492C11.4292 21.2464 11.364 21.5444 11.3125 21.8086C10.9655 23.5916 10.69 25 8 25V27C12.339 27 12.9254 23.9904 13.2754 22.1914C13.3762 21.6735 13.457 21.367 13.5332 21.1348C14.2235 21.6777 15.0829 22 16 22C16.9169 22 17.7764 21.6775 18.4668 21.1348C18.543 21.367 18.6238 21.6731 18.7246 22.1914C19.0746 23.9904 19.661 27 24 27V25C21.31 25 21.0355 23.5916 20.6875 21.8086C20.6359 21.5439 20.5691 21.2452 20.4922 20.9473C20.6604 20.9689 20.826 21 21 21C21.4983 21 21.9698 20.8976 22.4102 20.7305C23.0581 22.0676 24.4169 23 26 23C28.206 23 30 21.206 30 19H28C28 20.103 27.103 21 26 21C25.0793 21 24.3099 20.3715 24.0781 19.5234C24.6454 18.8329 25 17.9616 25 17C25 16.9504 24.9862 16.9046 24.9844 16.8555C26.3664 16.4626 26.975 15.2854 27.3945 14.4473C27.9305 13.3753 28.19 13 29 13V11C26.882 11 26.1145 12.5357 25.6055 13.5527C25.1757 14.4123 24.9107 14.8102 24.4102 14.9395C24.3418 14.8268 24.2702 14.7183 24.1914 14.6133L24.2031 14.6055C24.1507 14.5372 24.0785 14.4734 24.0215 14.4062C23.9307 14.3007 23.8413 14.1952 23.7402 14.0996C23.1259 13.4684 22.3279 12.8978 21.416 12.4199C21.7637 11.4963 21.8983 10.5184 21.9531 9.83008C23.1383 9.42902 24 8.31874 24 7C24 5.346 22.654 4 21 4C19.346 4 18 5.346 18 7C18 8.28277 18.8142 9.37079 19.9492 9.79883C19.8953 10.3543 19.7904 11.0412 19.584 11.6309C18.4045 11.2335 17.1624 11 16 11C14.8379 11 13.5953 11.2317 12.416 11.6289C12.2115 11.041 12.1053 10.3538 12.0508 9.79883C13.1858 9.37079 14 8.28277 14 7C14 5.346 12.654 4 11 4ZM11 6C11.552 6 12 6.448 12 7C12 7.552 11.552 8 11 8C10.448 8 10 7.552 10 7C10 6.448 10.448 6 11 6ZM21 6C21.552 6 22 6.448 22 7C22 7.552 21.552 8 21 8C20.448 8 20 7.552 20 7C20 6.448 20.448 6 21 6ZM16 13C16.975 13 18.0274 13.2059 19.0215 13.5449C17.8205 14.2358 17 15.5175 17 17C17 17.7883 17.2358 18.5187 17.6309 19.1387C17.2622 19.6642 16.6626 20 16 20C15.3374 20 14.7374 19.6642 14.3691 19.1387C14.7642 18.5187 15 17.7883 15 17C15 15.5175 14.1795 14.2358 12.9785 13.5449C13.9726 13.2059 15.025 13 16 13ZM11 15C12.103 15 13 15.897 13 17C13 18.103 12.103 19 11 19C9.897 19 9 18.103 9 17C9 16.5276 9.17054 16.0984 9.44531 15.7559C9.50928 15.6765 9.58932 15.601 9.66211 15.5234C10.0172 15.2014 10.4838 15 11 15ZM21 15C21.5162 15 21.9828 15.2014 22.3379 15.5234C22.4107 15.601 22.4907 15.6765 22.5547 15.7559C22.8295 16.0984 23 16.5276 23 17C23 18.103 22.103 19 21 19C19.897 19 19 18.103 19 17C19 15.897 19.897 15 21 15Z" fill="black"/>
</g>
</svg>
