<svg width="32" height="32" viewBox="0 0 32 32" fill="none" xmlns="http://www.w3.org/2000/svg">
<g id="paypal">
<path id="Vector" d="M8.90625 5L8.71875 5.78125L5.03125 22.7812L4.75 24H9.625L9.03125 26.7812L8.75 28H15.7188L15.875 27.1875L16.9062 22.375H19.5938C23.3555 22.375 26.6602 19.9297 27.5 16C27.9414 13.9336 27.4727 12.1836 26.5 11C25.7109 10.0391 24.6406 9.46094 23.5312 9.1875C23.3164 8.19922 22.8633 7.35938 22.25 6.71875C21.1133 5.53516 19.5352 5 18.0625 5H8.90625ZM10.5312 7H18.0625C19.043 7 20.125 7.37891 20.8125 8.09375C21.5 8.80859 21.9023 9.82812 21.5312 11.5625C20.8711 14.6562 18.5352 16.375 15.5938 16.375H11.2812L11.125 17.1562L10.0938 22H7.25L10.5312 7ZM13.0625 8.46875L12.875 9.25L11.8438 13.875L11.5625 15.0938H15.0938C16.8711 15.0938 18.4062 13.8008 18.8438 12.0625H18.875C18.8789 12.043 18.8711 12.0195 18.875 12C19.0938 11.125 18.9531 10.2266 18.4688 9.5625C17.9727 8.88281 17.1367 8.46875 16.25 8.46875H13.0625ZM14.6562 10.4688H16.25C16.5625 10.4688 16.7266 10.5586 16.8438 10.7188C16.9609 10.8789 17.043 11.1367 16.9375 11.5312V11.5625C16.75 12.3711 15.793 13.0938 15.0938 13.0938H14.0625L14.6562 10.4688ZM23.5938 11.3438C24.1211 11.5586 24.6172 11.8516 24.9688 12.2812C25.5508 12.9883 25.8711 13.9648 25.5312 15.5625C24.8711 18.6562 22.5352 20.375 19.5938 20.375H15.2812L15.125 21.1562L14.0938 26H11.25L11.6875 24H11.7188L11.875 23.1875L12.9062 18.375H15.5938C19.3555 18.375 22.6602 15.9297 23.5 12C23.5469 11.7734 23.5664 11.5625 23.5938 11.3438Z" fill="black"/>
</g>
</svg>
