<svg width="32" height="32" viewBox="0 0 32 32" fill="none" xmlns="http://www.w3.org/2000/svg">
<g id="peace-solid">
<path id="Vector" d="M16 3C8.832 3 3 8.832 3 16C3 23.168 8.832 29 16 29C23.168 29 29 23.168 29 16C29 8.832 23.168 3 16 3ZM15 5.05078V15.5176L6.80078 22.0156C5.66534 20.2852 5 18.2196 5 16C5 10.2725 9.40244 5.55838 15 5.05078ZM17 5.05078C22.5976 5.55838 27 10.2725 27 16C27 18.2206 26.3336 20.2867 25.1973 22.0176L17 15.5176V5.05078ZM15 18.0703V26.9492C12.2745 26.7021 9.83901 25.4545 8.05078 23.5801L15 18.0703ZM17 18.0703L23.9492 23.5801C22.161 25.4545 19.7255 26.7021 17 26.9492V18.0703Z" fill="black"/>
</g>
</svg>
