<svg width="32" height="32" viewBox="0 0 32 32" fill="none" xmlns="http://www.w3.org/2000/svg">
<g id="pen-solid">
<path id="Vector" d="M23.9062 3.96875C22.8594 3.96875 21.8125 4.375 21 5.1875L5.1875 21L5.125 21.3125L4.03125 26.8125L3.71875 28.2812L5.1875 27.9688L10.6875 26.875L11 26.8125L26.8125 11C28.4375 9.375 28.4375 6.8125 26.8125 5.1875C26 4.375 24.9531 3.96875 23.9062 3.96875ZM23.9062 5.875C24.4102 5.875 24.918 6.10547 25.4062 6.59375C26.3789 7.56641 26.3789 8.62109 25.4062 9.59375L24.6875 10.2812L21.7188 7.3125L22.4062 6.59375C22.8945 6.10547 23.4023 5.875 23.9062 5.875ZM20.3125 8.71875L23.2812 11.6875L11.1875 23.7812C10.5312 22.5 9.5 21.4688 8.21875 20.8125L20.3125 8.71875ZM6.9375 22.4375C8.13672 22.9219 9.07812 23.8633 9.5625 25.0625L6.28125 25.7188L6.9375 22.4375Z" fill="black"/>
</g>
</svg>
