<svg width="32" height="32" viewBox="0 0 32 32" fill="none" xmlns="http://www.w3.org/2000/svg">
<g id="pen-alt-solid">
<path id="Vector" d="M19.1562 3.00004C18.3906 3.00394 17.6445 3.30082 17.0938 3.90629C17.0859 3.9141 17.1016 3.92972 17.0938 3.93754C15.8633 5.17582 15.3867 6.40629 14.9688 7.50004C14.7891 7.97269 14.6094 8.418 14.375 8.87504C13.9141 8.34379 13.25 8.00004 12.5 8.00004C11.1328 8.00004 10 9.13285 10 10.5C10 11.8672 11.1328 13 12.5 13C13.2422 13 13.8828 12.6485 14.3438 12.125L14.4062 12.1875L5.28125 21.2813L5 21.5938V25.5625L4 26.5938L5.40625 28L6.4375 27H10.4062L10.7188 26.7188L27.2812 10.125L27.3125 10.0938C28.4648 8.94144 28.4648 7.05863 27.3125 5.90629L26.0938 4.68754C25.5156 4.10941 24.7656 3.81254 24 3.81254C23.2852 3.81254 22.5898 4.08988 22.0312 4.59379L21.3125 3.90629C20.7227 3.31644 19.9336 2.99613 19.1562 3.00004ZM19.1875 5.00004C19.4336 5.00394 19.6992 5.1055 19.9062 5.31254L20.5938 6.00004L14.4688 12.0938C15.8242 10.6563 16.4219 9.32035 16.8438 8.21879C17.2734 7.09379 17.543 6.26957 18.5 5.31254L18.5625 5.25004C18.7109 5.08207 18.9414 4.99613 19.1875 5.00004ZM24 5.78129C24.2344 5.78129 24.4648 5.87113 24.6875 6.09379L25.9062 7.31254C26.3516 7.75785 26.3516 8.24222 25.9062 8.68754L25 9.56254L22.4375 7.00004L23.2188 6.21879L23.3125 6.09379C23.5352 5.87113 23.7656 5.78129 24 5.78129ZM21 8.43754L23.5625 11L16 18.5625L13.4375 16L21 8.43754ZM12.5 10C12.7891 10 13 10.211 13 10.5C13 10.7891 12.7891 11 12.5 11C12.2109 11 12 10.7891 12 10.5C12 10.211 12.2109 10 12.5 10ZM12 17.4375L14.5625 20L9.5625 25H7V22.4375L12 17.4375Z" fill="black"/>
</g>
</svg>
