<svg width="32" height="32" viewBox="0 0 32 32" fill="none" xmlns="http://www.w3.org/2000/svg">
<g id="pen-square-solid">
<path id="Vector" d="M5 5V27H27V5H5ZM7 7H25V25H7V7ZM20.127 8.87695C19.357 8.87695 18.584 9.16995 18.002 9.75195L9.73633 18.0176L9.70508 18.3301L9.23633 21.6445L9.01758 22.9883L10.3613 22.7695L13.6738 22.3008L13.9863 22.2695L22.2539 14.0039C23.4139 12.8439 23.4139 10.9139 22.2539 9.75391C21.6709 9.17091 20.897 8.87695 20.127 8.87695ZM20.127 10.877C20.381 10.877 20.6467 10.9592 20.8457 11.1582C21.2327 11.5452 21.244 12.1352 20.877 12.5332L20.8457 12.5645L13.0488 20.3926L11.3926 20.6113L11.6113 18.9551L19.4395 11.1582C19.6385 10.9592 19.874 10.877 20.127 10.877Z" fill="black"/>
</g>
</svg>
