<svg width="32" height="32" viewBox="0 0 32 32" fill="none" xmlns="http://www.w3.org/2000/svg">
<g id="pen-nib-solid">
<path id="Vector" d="M22 3.58594L17.4785 8.10742L10.7383 10.0352C9.41728 10.3922 8.3715 11.3805 7.9375 12.6855L3.85938 25.2734L5.29297 26.707L6.72656 28.1406L19.3203 24.0605C20.6183 23.6285 21.6069 22.5814 21.9609 21.2734L23.8887 14.5254L28.4141 10L22 3.58594ZM22 6.41406L25.5859 10L23 12.5859L19.4141 9L22 6.41406ZM17.7109 10.125L21.875 14.2891L20.0332 20.7383C19.8512 21.4103 19.3493 21.9422 18.6973 22.1602L7.68945 25.7246L13.4844 19.9297C13.6525 19.9755 13.8258 19.9991 14 20C14.5304 20 15.0391 19.7893 15.4142 19.4142C15.7893 19.0391 16 18.5304 16 18C16 17.4696 15.7893 16.9609 15.4142 16.5858C15.0391 16.2107 14.5304 16 14 16C13.6936 16.0004 13.3914 16.0712 13.1168 16.2069C12.8421 16.3426 12.6023 16.5396 12.4158 16.7827C12.2293 17.0258 12.1012 17.3085 12.0413 17.6089C11.9814 17.9094 11.9913 18.2196 12.0703 18.5156L6.27539 24.3105L9.83789 13.3105C10.0579 12.6495 10.5904 12.1489 11.2754 11.9629L17.7109 10.125Z" fill="black"/>
</g>
</svg>
