<svg width="32" height="32" viewBox="0 0 32 32" fill="none" xmlns="http://www.w3.org/2000/svg">
<g id="pen-fancy-solid">
<path id="Vector" d="M23.8125 4.03125C22.7227 4.03125 21.6133 4.44922 20.7812 5.28125L11.5 14.5625L6.03125 16.6562L5.5 16.875L5.40625 17.4375L4 26.8438L3.8125 28.1875L5.15625 28L14.5625 26.5938L15.125 26.5L15.3438 25.9688L17.3125 20.7812L17.8125 20.3125L26.8125 11.3125C28.4258 9.69922 28.457 7.10938 26.9375 5.4375L26.8125 5.28125C25.9805 4.44922 24.9023 4.03125 23.8125 4.03125ZM23.8125 6C24.375 6 24.9375 6.25 25.4062 6.71875C26.3438 7.65625 26.3438 8.96875 25.4062 9.90625L20.375 14.9375L17.1875 11.75L22.2188 6.71875C22.6875 6.25 23.25 6 23.8125 6ZM15.75 13.1875L18.9375 16.375L17.125 18.1875L13.9375 15L15.75 13.1875ZM12.4062 16.3438H12.4375L15.6562 19.5625L13.6875 24.7188L7.84375 25.5625L10.5312 22.875C10.5859 22.8789 10.6328 22.9062 10.6875 22.9062C11.5703 22.9062 12.3125 22.1953 12.3125 21.3125C12.3125 20.4297 11.5703 19.6875 10.6875 19.6875C9.80469 19.6875 9.09375 20.4297 9.09375 21.3125C9.09375 21.3672 9.12109 21.4141 9.125 21.4688L6.4375 24.1562L7.28125 18.3125L12.4062 16.3438Z" fill="black"/>
</g>
</svg>
