<svg width="32" height="32" viewBox="0 0 32 32" fill="none" xmlns="http://www.w3.org/2000/svg">
<g id="pencil-ruler-solid">
<path id="Vector" d="M8.8125 3L8.125 3.71875L3.71875 8.125L3 8.8125L10.1875 16L5.1875 21L5.125 21.3125L4.03125 26.8125L3.71875 28.2812L5.1875 27.9688L10.6875 26.875L11 26.8125L16 21.8125L23.1562 28.9688L23.8438 28.25L28.25 23.8438L28.9688 23.1562L21.8125 16L26.75 11.0625C28.3594 9.45312 28.3594 6.85938 26.75 5.25C25.9453 4.44531 24.8945 4.03125 23.8438 4.03125C22.793 4.03125 21.7422 4.44531 20.9375 5.25L16 10.1875L8.8125 3ZM8.8125 5.84375L10.75 7.8125L9.28125 9.28125L10.7188 10.7188L12.1875 9.25L14.5625 11.625L11.5938 14.5938L5.8125 8.8125L8.8125 5.84375ZM23.8438 5.96875C24.3633 5.96875 24.8906 6.20312 25.3438 6.65625C26.2461 7.55859 26.2461 8.72266 25.3438 9.625L24.6875 10.2812L21.7188 7.3125L22.375 6.65625C22.8281 6.20312 23.3242 5.96875 23.8438 5.96875ZM20.3125 8.71875L23.2812 11.6875L11.1875 23.7812C10.5273 22.5117 9.48828 21.4727 8.21875 20.8125L20.3125 8.71875ZM20.4062 17.4062L22.7812 19.7812L21.2812 21.2812L22.7188 22.7188L24.2188 21.2188L26.125 23.125L23.125 26.125L17.4062 20.4062L20.4062 17.4062ZM6.9375 22.4062C8.13672 22.9102 9.08984 23.8633 9.59375 25.0625L6.28125 25.7188L6.9375 22.4062Z" fill="black"/>
</g>
</svg>
