<svg width="32" height="32" viewBox="0 0 32 32" fill="none" xmlns="http://www.w3.org/2000/svg">
<g id="pencil-alt-solid">
<path id="Vector" d="M24.6875 4.03125C23.8516 4.03125 23.0391 4.36719 22.4062 5L22.3125 5.09375L21.6875 4.5L5.1875 21L5.125 21.3125L4.03125 26.8125L3.71875 28.2812L5.1875 27.9688L10.6875 26.875L11 26.8125L27.5 10.3125L26.9062 9.71875L26.9688 9.65625L27 9.59375C28.2656 8.32812 28.2656 6.26562 27 5C26.3672 4.36719 25.5234 4.03125 24.6875 4.03125ZM24.6875 6C25 6 25.3281 6.14062 25.5938 6.40625C26.1289 6.94141 26.1289 7.65234 25.5938 8.1875L25.5 8.28125L23.7188 6.5L23.8125 6.40625C24.0781 6.14062 24.375 6 24.6875 6ZM21.7188 7.3125L24.6875 10.2812L23.25 11.75L20.25 8.75L21.7188 7.3125ZM18.875 10.1875L21.8125 13.125L11.375 23.5938L10.9688 21.7812L10.8438 21.1562L10.2188 21.0312L8.40625 20.625L18.875 10.1875ZM6.96875 22.3438L9.15625 22.8438L9.65625 25.0312L7.625 25.4375L6.5625 24.375L6.96875 22.3438Z" fill="black"/>
</g>
</svg>
