<svg width="32" height="32" viewBox="0 0 32 32" fill="none" xmlns="http://www.w3.org/2000/svg">
<g id="penny-arcade">
<path id="Vector" d="M23.6875 7.00583C23.526 6.99071 23.3598 7.0036 23.1953 7.04685C19.6813 7.97285 21.2581 7.55691 16.4141 8.83591C15.9751 8.95191 15.6237 9.27229 15.4707 9.69529C7.2137 8.95229 0 10.9527 0 14.5527C0 16.2067 1.53392 17.8657 4.04492 19.2617L4.13281 20.1445C3.54881 20.3665 3.18319 20.9445 3.24219 21.5605L3.45703 23.7558C3.52703 24.4628 4.12966 25.001 4.84766 25C5.10666 25 4.69661 25.0876 10.9746 23.4316C11.6036 23.2656 12.0309 22.6898 12.0039 22.0488C22.8339 24.2948 32.103 21.7543 31.998 17.8613C31.999 16.4703 30.8896 14.5721 27.0996 12.7011L24.8262 7.80466C24.6124 7.34641 24.172 7.05121 23.6875 7.00583ZM23.5547 8.37302L26.8887 15.5566L27.9297 15.2812L28.1445 17.4765L22.7168 18.9082L22.5215 16.959L23.2656 16.7617L22.9355 16.0371L20.0469 16.7988L19.8418 17.664L20.8027 17.4101L21.0059 19.3633L15.3613 20.8476L15.1387 18.6543L16.1895 18.3789L17.8438 12.1347L16.9844 12.3594L16.7754 10.1621C21.4434 8.92809 20.0257 9.30202 23.5547 8.37302ZM13.168 11.2695C16.001 11.2135 16.3749 14.8168 15.2949 16.4258C14.6809 17.2648 13.7798 17.8558 12.7578 18.0898L11.6602 18.3789L9.24023 19.0156L9.36328 20.1797L10.3906 19.9062L10.6152 22.1054L4.84961 23.625L4.63477 21.4277L5.63672 21.1621L5.08008 15.5039L4.07422 15.7695L3.85547 13.5722C12.7635 11.2252 12.366 11.2805 13.168 11.2695ZM21.0957 11.4707C20.8707 12.4307 21.0268 11.7703 20.3418 14.6953L22.3281 14.1719C21.2101 11.7219 21.4627 12.2737 21.0957 11.4707ZM11.082 13.9433C10.9898 13.9507 10.8926 13.9664 10.791 13.9941C9.78102 14.2611 10.2246 14.1456 8.80859 14.5176L9.03125 16.7988C10.4403 16.4238 10.0634 16.5239 10.7734 16.3379C12.7572 15.8841 12.4652 13.8322 11.082 13.9433Z" fill="black"/>
</g>
</svg>
