<svg width="32" height="32" viewBox="0 0 32 32" fill="none" xmlns="http://www.w3.org/2000/svg">
<g id="people-carry-solid">
<path id="Vector" d="M8 5C6.346 5 5 6.346 5 8C5 9.654 6.346 11 8 11C9.654 11 11 9.654 11 8C11 6.346 9.654 5 8 5ZM24 5C22.346 5 21 6.346 21 8C21 9.654 22.346 11 24 11C25.654 11 27 9.654 27 8C27 6.346 25.654 5 24 5ZM8 7C8.552 7 9 7.448 9 8C9 8.552 8.552 9 8 9C7.448 9 7 8.552 7 8C7 7.448 7.448 7 8 7ZM24 7C24.552 7 25 7.448 25 8C25 8.552 24.552 9 24 9C23.448 9 23 8.552 23 8C23 7.448 23.448 7 24 7ZM6.84766 12C6.41666 12 6.03444 12.2746 5.89844 12.6836L4.12695 17.998C3.85395 18.815 4.13375 19.7141 4.84375 20.2461L8 22.5V28H10V22.5C10 21.873 9.70064 21.2737 9.18164 20.8867L6.02344 18.6328L7.44922 14.3594C7.78922 15.2544 8.35547 16.7012 8.35547 16.7012C8.59347 17.3182 9.0327 17.8425 9.5957 18.1855L12 20H20L22.4062 18.1855C22.9683 17.8435 23.4075 17.3181 23.6445 16.7051C23.6445 16.7051 24.2027 15.2775 24.5547 14.3535L25.9941 18.6191L22.8027 20.8984C22.3007 21.2734 22 21.873 22 22.5V28H24L23.9824 22.5137L27.1777 20.2324C27.8677 19.7144 28.146 18.816 27.873 18L26.1016 12.6836C25.9666 12.2746 25.5833 12 25.1523 12H24.5039C24.0519 12 23.2367 12.1579 22.8477 13.2109C22.5937 13.9069 21.7833 15.9755 21.7812 15.9805C21.6982 16.1945 21.5437 16.3753 21.3477 16.4883C21.3117 16.5083 21.2781 16.5307 21.2461 16.5547L20 17.4922V12H12V17.4922L10.7539 16.5547C10.7209 16.5307 10.6873 16.5093 10.6523 16.4883C10.4553 16.3743 10.3027 16.1946 10.2188 15.9766C10.2188 15.9766 9.40834 13.905 9.15234 13.207C8.76534 12.156 7.94809 12 7.49609 12H6.84766ZM14 14H18V18H14V14ZM4.25781 21.0566L4.05469 23.1055C4.03269 23.3265 3.97481 23.5392 3.88281 23.7402L1.93359 28H4.13281L5.70117 24.5723C5.88517 24.1713 5.99992 23.7447 6.04492 23.3027L6.13477 22.3965L4.26172 21.0605C4.26072 21.0595 4.25881 21.0576 4.25781 21.0566ZM27.7422 21.0566L25.8652 22.3965L25.9551 23.3047C26.0001 23.7447 26.1148 24.1703 26.2988 24.5723L27.8672 28H30.0664L28.1172 23.7402C28.0252 23.5392 27.9683 23.3255 27.9453 23.1055L27.7422 21.0566Z" fill="black"/>
</g>
</svg>
