<svg width="32" height="32" viewBox="0 0 32 32" fill="none" xmlns="http://www.w3.org/2000/svg">
<g id="pepper-hot-solid">
<path id="Vector" d="M28 5V3C26.0117 3 24.4609 3.55469 23.3945 4.64062C22.7773 5.26953 22.4453 5.96875 22.2539 6.57031C21.7461 6.21875 21.1562 6 20.5 6C17.9766 6 17.0234 8.00781 17 9.375C17 9.59375 16.9922 9.82422 16.9766 10.0625C16.3047 12.0508 15 10.7344 15 8C11.7773 11.4219 15.25 12.6836 13.2695 14.6641C12.8477 15.0859 11.8398 15.25 11.2109 14.4766C10.3789 13.4883 12.0703 11.8633 10.4688 10.6484C10.7617 12.4766 9.35156 12.0977 8.875 11.707C8.25391 11.1992 7.125 10.082 9 7C7.08203 7.875 5.92578 9.65234 6 11C6.19922 14.5352 11.6641 17.6055 9.45703 19.668C8.34375 20.7109 6.15625 19.3008 7 17C5.94922 17.5352 4.71484 18.8086 5.10938 20.7891C5.38281 22.1602 7.375 25.25 4 27C4 27 4.01563 27.0039 4.04297 27.0117L3.95703 29C4.02344 29.0039 4.29297 29.0117 4.72656 29.0117C7.53906 29.0117 17.2734 28.5781 23.2656 22.8398C26.4062 19.832 28 15.8477 28 11C28 9.61719 27.3711 7 25 7C24.707 7 24.4336 7.03906 24.1758 7.10156C24.2891 6.76562 24.4844 6.38281 24.8203 6.03906C25.5 5.35156 26.5664 5 28 5ZM25 9C25.9453 9 26 10.9844 26 11C26 15.2773 24.6133 18.7734 21.8867 21.3906C17.4609 25.6328 10.4883 26.6836 6.70313 26.9336C7.625 26.7227 8.73438 26.293 9.94922 25.4727C15.8008 22.2656 18.8789 14.7031 18.9922 9.66797H19V9.39453C19.0039 9.16016 19.0977 8 20.5 8C21.3555 8 22 9.21484 22 10H24C24 9.57031 24.1055 9 25 9Z" fill="black"/>
</g>
</svg>
