<svg width="32" height="32" viewBox="0 0 32 32" fill="none" xmlns="http://www.w3.org/2000/svg">
<g id="percentage-solid">
<path id="Vector" d="M5 5V27H27V5H5ZM7 7H25V25H7V7ZM12 9C10.3555 9 9 10.3555 9 12V13C9 14.6445 10.3555 16 12 16C13.6445 16 15 14.6445 15 13V12C15 10.3555 13.6445 9 12 9ZM19.5938 9L10 23H12.4062L22 9H19.5938ZM12 11C12.5664 11 13 11.4336 13 12V13C13 13.5664 12.5664 14 12 14C11.4336 14 11 13.5664 11 13V12C11 11.4336 11.4336 11 12 11ZM20 16C18.3555 16 17 17.3555 17 19V20C17 21.6445 18.3555 23 20 23C21.6445 23 23 21.6445 23 20V19C23 17.3555 21.6445 16 20 16ZM20 18C20.5664 18 21 18.4336 21 19V20C21 20.5664 20.5664 21 20 21C19.4336 21 19 20.5664 19 20V19C19 18.4336 19.4336 18 20 18Z" fill="black"/>
</g>
</svg>
