<svg width="32" height="32" viewBox="0 0 32 32" fill="none" xmlns="http://www.w3.org/2000/svg">
<g id="periscope">
<path id="Vector" d="M16.1406 3C9.94838 3 5 7.93721 5 13.9043C5 17.1971 7.11116 20.7848 9.43945 23.6973C10.6036 25.1535 11.8363 26.4256 12.9609 27.3613C13.5232 27.8292 14.0565 28.2148 14.5664 28.5C15.0763 28.7852 15.5471 29 16.1406 29C16.7429 29 17.1671 28.7703 17.6465 28.4844C18.1259 28.1984 18.6339 27.8163 19.1738 27.3496C20.2536 26.4162 21.4569 25.146 22.6016 23.6914C24.8908 20.7822 27 17.1971 27 13.9043C27 7.93721 22.0786 3 16.1406 3ZM16.1406 5C20.9667 5 25 9.03938 25 13.9043C25 16.2695 23.1731 19.7308 21.0293 22.4551C19.9574 23.8172 18.8202 25.0104 17.8652 25.8359C17.3877 26.2487 16.9543 26.57 16.623 26.7676C16.2918 26.9652 16.0348 27 16.1406 27C16.1672 27 15.8977 26.9523 15.543 26.7539C15.1882 26.5555 14.733 26.2358 14.2383 25.8242C13.2488 25.001 12.0896 23.8097 11.002 22.4492C8.82674 19.7282 7 16.2695 7 13.9043C7 9.03938 11.0049 5 16.1406 5ZM16 10C15.939 10 15.8823 10.0146 15.8223 10.0176C15.9303 10.3266 16 10.654 16 11C16 12.657 14.657 14 13 14C12.654 14 12.3266 13.9303 12.0176 13.8223C12.0146 13.8823 12 13.939 12 14C12 16.209 13.791 18 16 18C18.209 18 20 16.209 20 14C20 11.791 18.209 10 16 10Z" fill="black"/>
</g>
</svg>
