<svg width="32" height="32" viewBox="0 0 32 32" fill="none" xmlns="http://www.w3.org/2000/svg">
<g id="person-booth-solid">
<path id="Vector" d="M7.5 4C5.578 4 4 5.578 4 7.5C4 9.422 5.578 11 7.5 11C9.422 11 11 9.422 11 7.5C11 5.578 9.422 4 7.5 4ZM12 4V11.8438C12.232 12.1287 12.4433 12.4325 12.6133 12.7715L13.5684 14.6836L14 15.0059V6H15.1328L16.9824 18.9473L16.0293 22.7578L16 23.5C16 24.879 17.121 26 18.5 26C19.141 26 19.7191 25.7505 20.1621 25.3535C20.6721 25.7515 21.304 26 22 26C22.771 26 23.468 25.6997 24 25.2207C24.532 25.7007 25.229 26 26 26C26.352 26 26.686 25.9284 27 25.8164V28H29V4H28H27H14H13H12ZM7.5 6C8.34 6 9 6.66 9 7.5C9 8.34 8.34 9 7.5 9C6.66 9 6 8.34 6 7.5C6 6.66 6.66 6 7.5 6ZM17.1523 6H27V23C27 23.552 26.552 24 26 24C25.448 24 25 23.552 25 23H23C23 23.552 22.552 24 22 24C21.448 24 21 23.552 21 23H19V23.5C19 23.771 18.771 24 18.5 24C18.229 24 18 23.771 18 23.5V23.123L19.0176 19.0527L17.1523 6ZM7 12C4.793 12 3 13.793 3 16V21.25L5 22.25V28H7V21L5 20V16C5 14.898 5.898 14 7 14H8.15625C8.91825 14 9.5975 14.4097 9.9375 15.0938L11.2188 17.6562L13.8672 19.6289L15 18L12.7812 16.3438L11.7188 14.2188C11.0347 12.8547 9.68025 12 8.15625 12H7ZM12 20.4844V28H14V21.9727L13.2715 21.4297L12 20.4844ZM8 21V28H10V21H8Z" fill="black"/>
</g>
</svg>
