<svg width="32" height="32" viewBox="0 0 32 32" fill="none" xmlns="http://www.w3.org/2000/svg">
<g id="phabricator">
<path id="Vector" d="M15.9453 4.99992C13.1928 5.01492 10.4452 6.08912 8.34571 8.22062C5.47271 11.1426 6.77636 9.8176 2.94336 13.6796C1.68437 14.9576 1.68437 17.0432 2.94336 18.3202C6.88937 22.2962 5.56241 20.9549 8.44141 23.8769L8.44727 23.871C12.6863 28.07 19.4787 28.0472 23.6777 23.7792C26.5567 20.8632 25.2526 22.1803 29.0566 18.3183C30.3156 17.0413 30.3156 14.9566 29.0566 13.6796L23.5801 8.12101L23.5742 8.12882C21.4547 6.02932 18.6978 4.98492 15.9453 4.99992ZM16.0098 7.01554C18.3098 7.01629 20.6102 7.89435 22.3672 9.64835C25.8752 13.1564 25.8812 18.8453 22.3672 22.3593C18.8532 25.8673 13.1703 25.8614 9.65626 22.3534C6.14226 18.8454 6.14226 13.1564 9.65626 9.64835C11.4103 7.89135 13.7098 7.01479 16.0098 7.01554ZM17.6406 9.99992C17.5536 9.96291 16.3496 11.3105 16.3496 11.3105L15.5313 11.2987C15.5313 11.2987 14.254 9.96387 14.166 10.0019L12.9199 10.5194C12.8329 10.5504 12.9316 12.3202 12.9316 12.3202L12.3633 12.8886C12.3633 12.8886 10.5427 12.833 10.5117 12.914L10.0059 14.1484C9.96887 14.2354 11.3164 15.4589 11.3164 15.4589L11.3223 16.2636C11.3223 16.2636 9.96887 17.4989 10.0059 17.5859L10.5977 18.8319C10.6347 18.9189 12.4375 18.8632 12.4375 18.8632L13.0234 19.4433C13.0234 19.4433 13.0126 21.4259 13.0996 21.4569L14.3535 21.9745C14.4405 22.0115 15.6445 20.5097 15.6445 20.5097L16.4609 20.5214C16.4609 20.5214 17.7383 22.0055 17.8203 21.9745L19.0684 21.5058C19.1554 21.4688 19.0566 19.5038 19.0566 19.5038L19.6231 18.9355C19.6231 18.9355 21.4456 18.9912 21.4766 18.9042L21.9805 17.6698C22.0245 17.6028 20.6777 16.3808 20.6777 16.3808L20.6719 15.5702C20.6719 15.5702 22.0253 14.335 21.9883 14.248L21.3945 12.9999C21.3575 12.9129 19.5547 12.9687 19.5547 12.9687L18.9688 12.3886C18.9688 12.3886 18.9815 10.6121 18.8945 10.5741L17.6406 9.99992ZM15.8262 13.8788C16.9722 13.8258 17.9521 14.7069 17.9981 15.8319C18.0441 16.9639 17.1519 17.9235 16.0059 17.9765C14.8609 18.0295 13.879 17.1495 13.832 16.0175C13.785 14.8855 14.6802 13.9248 15.8262 13.8788Z" fill="black"/>
</g>
</svg>
