<svg width="32" height="32" viewBox="0 0 32 32" fill="none" xmlns="http://www.w3.org/2000/svg">
<g id="phoenix-framework">
<path id="Vector" d="M6.69141 6.00006C4.78212 6.01395 2.61727 6.56466 1.10352 7.66803C1.06652 7.69703 1.033 7.72402 1 7.75202C1.005 7.76102 1.00577 7.76645 1.00977 7.77545C1.04777 7.77545 1.08309 7.76969 1.12109 7.76569C1.41609 7.71869 1.70805 7.72836 1.99805 7.77936C3.11405 7.98136 4.23319 8.8623 4.61719 11.3653C4.86519 12.9733 4.58419 13.7474 4.99219 15.4024C5.88319 19.0164 9.25947 20.4467 10.9805 20.3907C11.1585 20.3857 12.0487 20.3242 12.1797 20.2872C12.0667 20.1652 10.1362 20.241 8.99219 17.963C8.79019 17.56 8.63941 17.137 8.69141 16.668C8.82741 15.473 10.2339 15.2618 11.1289 15.8008C12.8169 16.8128 14.096 20.0812 16.459 20.3712C18.193 20.5822 20.4253 19.5733 21.5312 18.2423C21.5033 18.2373 21.4934 18.2343 21.4844 18.2383C21.4654 18.2433 21.4456 18.247 21.4316 18.252C19.8706 18.819 17.0112 18.7077 15.1172 17.5587C13.3542 16.4897 12.6285 14.8056 12.6895 14.0606C12.7735 13.0626 13.763 12.9746 14.373 13.1426C15.048 13.3256 15.5163 13.9668 16.1953 14.4258C16.9263 14.9128 17.7386 15.0673 18.6016 14.9083C19.2996 14.7813 20.2135 14.3316 20.3125 14.2286C20.2605 14.2236 20.2283 14.2248 20.1953 14.2208C19.9043 14.1928 19.6141 14.1837 19.3281 14.1407C14.1161 13.3677 13.2862 6.47045 7.49219 6.02545C7.23256 6.00558 6.96416 5.99808 6.69141 6.00006ZM6.18555 6.97467C6.13355 7.66367 5.1433 7.97303 4.5293 7.29303C4.4863 7.24603 4.48675 7.23728 4.46875 7.19928C5.03575 7.07728 5.60355 7.00767 6.18555 6.97467ZM13.4922 8.70319C13.5382 8.75519 13.5638 8.78456 13.5918 8.81256C14.2948 9.54856 15.095 10.1572 16 10.6212C17.083 11.1702 18.2184 11.4658 19.4414 11.3438C19.8584 11.3058 20.2606 11.1978 20.6406 11.0098C20.6686 10.9958 20.6966 10.9722 20.7246 10.9532C20.6966 10.9392 20.6733 10.9345 20.6543 10.9395C20.4523 10.9635 20.2567 11.0006 20.0547 11.0196C19.4457 11.0756 18.8696 10.9827 18.3496 10.6407C17.5056 10.0827 16.9191 9.47272 15.9961 9.09772C14.8851 8.64772 13.8482 8.70319 13.4922 8.70319ZM15.2402 11.002C15.1882 11.07 15.2697 11.1055 15.3027 11.1465C17.4827 13.7555 21.2407 14.1575 23.5938 13.3165C25.3608 12.6885 26.5297 13.675 26.7637 14.67C26.7677 14.688 26.7762 14.7106 26.7852 14.7286C26.7942 14.7236 26.8055 14.7227 26.8145 14.7227C26.8145 14.3157 26.7382 13.8508 26.5742 13.4258C26.2972 12.7078 25.8253 12.1554 25.0703 11.8614C23.8893 11.4044 22.7221 11.7748 21.9531 12.0098C20.7671 12.3758 19.637 12.5212 18.209 12.2462C17.177 12.0512 16.2308 11.6666 15.3828 11.0606C15.3398 11.0286 15.2452 10.993 15.2402 11.002ZM23.7207 15.4434C23.4248 15.431 23.1102 15.4479 22.7734 15.4962C21.3544 15.7022 20.5443 16.3443 19.5293 16.9493C18.6603 17.4603 18.1389 17.4007 17.0059 17.2227C17.0059 17.2317 17 17.2352 17 17.2442C17.018 17.2532 17.0309 17.2645 17.0449 17.2735C18.0009 17.7605 18.8197 17.8075 20.0527 17.6485C21.4447 17.4655 22.099 16.968 22.873 16.504C23.806 15.946 24.6752 16.1105 25.9902 16.3165C25.9942 16.3075 25.995 16.2962 26 16.2872C25.331 15.7809 24.6084 15.4805 23.7207 15.4434ZM25.6094 16.9337C24.1334 17.0435 23.2502 17.9351 22.4531 18.7637C22.1031 19.1287 21.7577 19.496 21.3887 19.838C20.6877 20.494 20.131 20.5453 20 20.6153V20.6348C20.29 20.6538 21.2477 20.6106 22.0977 20.4376C25.3597 19.7666 25.4255 17.427 26.9395 17.418C27.2905 17.418 27.63 17.4453 27.957 17.5723C27.966 17.5773 27.977 17.5723 28 17.5723C27.986 17.5533 27.9808 17.5403 27.9668 17.5313C27.6488 17.3203 27.3583 17.0196 26.2793 16.9356C26.0428 16.9169 25.8202 16.918 25.6094 16.9337ZM27.8926 18.2149C27.321 18.1621 26.7764 18.3213 26.2559 18.6446C26.2419 18.6546 26.2272 18.674 26.1992 18.711C26.5362 18.735 27.0486 18.7495 27.5176 19.1055C28.0846 19.5375 28.421 20.0514 28.998 20.2344C29.936 20.5304 30.836 20.1314 31 19.9864C30.991 19.9674 30.9855 19.9639 30.9805 19.9669C30.8815 19.9389 30.4044 19.9617 29.8984 19.4747C29.3734 18.9737 29.0587 18.5369 28.4727 18.3399C28.2759 18.2732 28.0831 18.2325 27.8926 18.2149ZM7.01953 20.0001L7 20.0176C7.085 20.1626 7.66191 20.8512 7.87891 21.0782C9.36791 22.6492 11.6928 23.9134 13.7148 23.8594C15.1888 23.8184 16.211 23.4881 17.377 23.5801C18.502 23.6611 19.0484 23.934 19.2754 24.002C19.2804 23.993 19.2899 23.9876 19.2949 23.9786C19.2009 23.8466 18.9314 23.5833 18.8184 23.4923C17.2024 22.2143 15.4626 22.9039 14.2246 22.3419C13.6766 22.0929 13.6535 21.7616 13.8945 21.5626C14.0785 21.4036 14.1533 21.3771 15.0273 21.2051C14.9273 21.0511 14.0632 20.6533 12.9902 21.0743C11.8802 21.5083 10.7514 21.5397 9.60742 21.2227C8.23242 20.8427 7.33153 20.1861 7.01953 20.0001ZM16.6875 24.0508C16.6745 24.0508 16.6597 24.0594 16.6367 24.0684C16.9517 24.1524 17.8605 24.303 18.8555 25.461C19.4445 26.146 20.1472 26.436 20.9922 26.502C20.9972 26.478 21.0258 26.4643 20.9258 26.4083C20.6968 26.2773 20.5083 26.1137 20.3613 25.8887C20.0603 25.4247 19.6179 24.5325 18.4629 24.2325C17.8789 24.0825 17.2855 24.0558 16.6875 24.0508Z" fill="black"/>
</g>
</svg>
