<svg width="32" height="32" viewBox="0 0 32 32" fill="none" xmlns="http://www.w3.org/2000/svg">
<g id="phoenix-squadron">
<path id="Vector" d="M16.1172 4.10353C13.1482 4.02853 10.175 5.03258 7.83398 6.85158C5.05798 8.98758 3.198 12.321 3 15.832V17.4102C3.103 19.0402 3.53739 20.6319 4.27539 22.0899C5.32339 24.1369 6.91591 25.8557 8.87891 27.0567C12.5709 29.3727 17.4232 29.6209 21.3652 27.7969C23.8412 26.6699 25.9506 24.7414 27.2656 22.3574C28.1056 20.8404 28.6129 19.1636 28.7559 17.4356C28.7809 16.7946 28.7809 16.1527 28.7559 15.5117C28.5869 13.6037 28.044 11.7165 26.998 10.1055C27.747 11.7535 27.9558 13.5792 27.6738 15.3672C27.4048 16.8852 26.7194 18.2992 25.6934 19.4492C25.8004 18.8992 25.9899 18.3704 26.0859 17.8164C26.2059 17.1044 26.269 16.3753 26.168 15.6563C26.075 14.5923 25.9557 13.2349 25.5527 12.2539C25.5577 12.6309 25.5267 13.0087 25.5527 13.3867C25.6217 15.1057 24.9724 17.1902 23.9434 18.5762C22.9584 19.9332 21.5162 21.0137 19.8652 21.3887C19.1392 21.5377 18.3277 21.5358 17.6777 21.1328C17.0647 20.7638 16.723 20.0621 16.625 19.3731C16.488 18.2751 16.7487 17.1609 17.2188 16.1699C17.8038 14.9459 18.7041 13.8996 19.8301 13.1426C20.0631 12.9796 20.3386 12.8629 20.5156 12.6309C21.1526 11.8409 21.8042 11.0605 22.5352 10.3555C23.2722 9.60748 23.977 8.93819 24.752 8.32619C23.284 8.28519 22.0772 8.88234 20.7832 9.48634C19.2022 10.2633 17.7026 11.1965 16.3066 12.2715C15.4186 12.9555 14.935 13.6262 13.916 14.1152C13.328 14.4052 12.6596 14.4776 12.0156 14.3906C13.0196 14.7776 14.1356 14.6626 15.1426 14.3516C15.7676 14.1526 16.0207 14.0006 16.5957 13.6856C16.6917 13.6146 16.8051 13.6549 16.9121 13.6719C16.9071 13.8909 16.9722 14.1525 16.7812 14.3145C16.3112 14.8025 15.7499 15.1922 15.1699 15.5352C14.4889 15.9222 13.7526 16.2334 12.9746 16.3574C12.3246 16.4814 11.6519 16.3615 11.0859 16.0195C10.3509 15.5575 10.0699 14.6347 10.0879 13.8047C10.1399 12.5827 10.6351 11.4158 11.3301 10.4238C12.3891 8.94084 13.9418 7.8285 15.6758 7.2715C16.3748 7.0185 17.1138 6.92712 17.8398 6.78712C16.8508 6.66812 15.8495 6.58442 14.8555 6.69142C13.8615 6.77042 12.8857 7.04151 11.9727 7.43751C11.7097 7.54751 11.453 7.68244 11.168 7.73244C12.618 6.11944 14.6408 5.02092 16.7988 4.75392C18.0258 4.55792 18.785 4.50334 20 4.73634C18.6 4.23434 17.6062 4.08453 16.1172 4.10353ZM20.3379 10.1055C20.2829 10.3715 20.0684 10.5809 19.8164 10.6699C19.5564 10.7739 19.2877 10.8495 19.0117 10.8965C19.4317 10.6055 19.8859 10.3575 20.3379 10.1055Z" fill="black"/>
</g>
</svg>
