<svg width="32" height="32" viewBox="0 0 32 32" fill="none" xmlns="http://www.w3.org/2000/svg">
<g id="phone-solid">
<path id="Vector" d="M8.65625 3C8.13281 3 7.61719 3.1875 7.1875 3.53125L7.125 3.5625L7.09375 3.59375L3.96875 6.8125L4 6.84375C3.03516 7.73438 2.73828 9.06641 3.15625 10.2188C3.16016 10.2266 3.15234 10.2422 3.15625 10.25C4.00391 12.6758 6.17187 17.3594 10.4062 21.5938C14.6562 25.8438 19.4023 27.9258 21.75 28.8438H21.7812C22.9961 29.25 24.3125 28.9609 25.25 28.1562L28.4062 25C29.2344 24.1719 29.2344 22.7344 28.4062 21.9062L24.3438 17.8438L24.3125 17.7812C23.4844 16.9531 22.0156 16.9531 21.1875 17.7812L19.1875 19.7812C18.4648 19.4336 16.7422 18.543 15.0937 16.9688C13.457 15.4062 12.6211 13.6094 12.3125 12.9062L14.3125 10.9062C15.1523 10.0664 15.168 8.66797 14.2812 7.84375L14.3125 7.8125L14.2187 7.71875L10.2187 3.59375L10.1875 3.5625L10.125 3.53125C9.69531 3.1875 9.17969 3 8.65625 3ZM8.65625 5C8.73047 5 8.80469 5.03516 8.875 5.09375L12.875 9.1875L12.9687 9.28125C12.9609 9.27344 13.0273 9.37891 12.9062 9.5L10.4062 12L9.9375 12.4375L10.1562 13.0625C10.1562 13.0625 11.3047 16.1367 13.7187 18.4375L13.9375 18.625C16.2617 20.7461 19 21.9062 19 21.9062L19.625 22.1875L22.5938 19.2188C22.7656 19.0469 22.7344 19.0469 22.9062 19.2188L27 23.3125C27.1719 23.4844 27.1719 23.4219 27 23.5938L23.9375 26.6562C23.4766 27.0508 22.9883 27.1328 22.4062 26.9375C20.1406 26.0469 15.7383 24.1133 11.8125 20.1875C7.85547 16.2305 5.78906 11.7422 5.03125 9.5625C4.87891 9.15625 4.98828 8.55469 5.34375 8.25L5.40625 8.1875L8.4375 5.09375C8.50781 5.03516 8.58203 5 8.65625 5Z" fill="black"/>
</g>
</svg>
