<svg width="32" height="32" viewBox="0 0 32 32" fill="none" xmlns="http://www.w3.org/2000/svg">
<g id="phone-square-solid">
<path id="Vector" d="M5 5V27H27V5H5ZM7 7H25V25H7V7ZM11.8711 9.00195C11.381 9.00195 10.8896 9.18755 10.5156 9.56055L9.56055 10.5156C9.03455 11.0436 8.86042 11.806 9.10742 12.502L9.15039 12.6328C9.31539 13.1358 9.70189 14.3127 10.9629 16.1797C11.5749 17.0877 12.2835 17.9373 13.0605 18.6953L13.2949 18.9297C14.0609 19.7137 14.9084 20.4212 15.8164 21.0352C17.6854 22.2962 18.8642 22.6817 19.3672 22.8477L19.498 22.8926C19.707 22.9656 19.9237 23.002 20.1367 23.002C20.6327 23.002 21.1154 22.8065 21.4844 22.4375L22.4395 21.4844C22.8015 21.1214 23 20.6419 23 20.1309C23 19.6189 22.8015 19.1364 22.4395 18.7754L21.2891 17.627C20.5661 16.904 19.3041 16.904 18.5801 17.627L16.873 19.334C16.102 18.807 15.3787 18.1994 14.7188 17.5234L14.4688 17.2734C13.7987 16.6194 13.194 15.897 12.668 15.127L14.375 13.4199C14.737 13.0589 14.9355 12.5755 14.9355 12.0645C14.9355 11.5535 14.737 11.0739 14.375 10.7109L13.2227 9.56055C12.8502 9.18855 12.3612 9.00195 11.8711 9.00195Z" fill="black"/>
</g>
</svg>
