<svg width="32" height="32" viewBox="0 0 32 32" fill="none" xmlns="http://www.w3.org/2000/svg">
<g id="phone-square-alt-solid">
<path id="Vector" d="M5 5V27H27V5H5ZM7 7H25V25H7V7ZM20.127 9C19.615 9 19.1344 9.19855 18.7734 9.56055L17.623 10.7109C16.9 11.4339 16.9 12.6959 17.623 13.4199L19.3301 15.127C18.8031 15.898 18.1975 16.6213 17.5215 17.2812L17.2695 17.5312C16.6155 18.2013 15.893 18.806 15.123 19.332L13.416 17.625C13.055 17.263 12.5735 17.0645 12.0625 17.0645C11.5515 17.0645 11.07 17.263 10.707 17.625L9.55664 18.7773C8.81264 19.5223 8.81259 20.7364 9.55859 21.4844L10.5117 22.4395C11.0397 22.9655 11.802 23.1396 12.498 22.8926L12.6289 22.8496C13.1319 22.6846 14.3107 22.2981 16.1777 21.0371C17.0857 20.4251 17.9354 19.7165 18.6934 18.9395L18.9277 18.7051C19.7117 17.9391 20.4192 17.0916 21.0332 16.1836C22.2942 14.3146 22.6797 13.1358 22.8457 12.6328L22.8887 12.502C22.9617 12.293 22.998 12.0763 22.998 11.8633C22.998 11.3673 22.8026 10.8846 22.4336 10.5156L21.4805 9.56055C21.1175 9.19855 20.638 9 20.127 9Z" fill="black"/>
</g>
</svg>
