<svg width="32" height="32" viewBox="0 0 32 32" fill="none" xmlns="http://www.w3.org/2000/svg">
<g id="phone-slash-solid">
<path id="Vector" d="M3.70703 2.29297L2.29297 3.70703L9.72461 11.1387L11.1406 12.5547L12.9902 14.4043V14.4062L28.293 29.707L29.707 28.293L15.8008 14.3867C17.1589 13.2056 18.5427 12.5628 19.1328 12.3066L21.1328 14.3066C21.1809 14.3547 21.259 14.3359 21.3105 14.3789L21.084 14.5996H21.8457C22.4219 14.8652 22.9656 14.8603 23.5332 14.5996H23.5371V14.5977C23.5415 14.5957 23.5464 14.5957 23.5508 14.5938L23.5371 14.5996H23.9453L28.4785 10.1719L28.5156 10.125C29.2044 9.27046 29.2044 8.02642 28.5156 7.17188L28.4766 7.12305L25.2344 3.97852L25.2949 4.04492C24.8459 3.52352 24.2665 3.19084 23.6504 3.04492C23.0362 2.89946 22.3872 2.94063 21.793 3.16406C19.498 3.95994 15.183 5.94494 11.1445 9.73047L3.70703 2.29297ZM22.8203 4.9707C23.1669 4.9546 23.5518 5.08322 23.7812 5.34961L23.8105 5.38281L26.959 8.4375C27.0647 8.57631 27.0657 8.72258 26.959 8.86133L22.748 12.9746C22.7497 12.9674 22.6649 13.0106 22.5469 12.8926L19.5898 9.93555L18.9863 10.1641C18.9863 10.1641 16.5467 11.0677 14.3867 12.9727L12.5586 11.1445C16.328 7.63141 20.4194 5.7532 22.4668 5.04492L22.4805 5.04102L22.4941 5.03516C22.5942 4.9973 22.7048 4.97607 22.8203 4.9707ZM8.40625 12.6504C6.29525 15.2554 4.54741 18.3062 3.19141 21.7832C2.78441 22.9992 3.03464 24.2616 3.93164 25.3066L7.0293 28.4043C7.4733 28.8483 8.02894 29.0703 8.58594 29.0703C9.14194 29.0703 9.69858 28.8473 10.1426 28.4043L14.2441 24.3066C15.1331 23.4176 15.1331 22.0785 14.2441 21.1895L12.2441 19.1875C12.4581 18.7635 12.7926 18.1488 13.2266 17.4688L11.7793 16.0215C10.7323 17.5875 10.1541 18.921 10.1191 19.002L9.85156 19.623L12.8301 22.6035C12.8981 22.6715 12.8981 22.8256 12.8301 22.8926L8.72852 26.9902C8.66152 27.0562 8.51136 27.0562 8.44336 26.9902L5.40039 23.9492C5.12939 23.6332 4.85531 23.1099 5.07031 22.4629C6.31031 19.2869 7.90417 16.4744 9.82617 14.0684L8.40625 12.6504Z" fill="black"/>
</g>
</svg>
