<svg width="32" height="32" viewBox="0 0 32 32" fill="none" xmlns="http://www.w3.org/2000/svg">
<g id="phone-volume-solid">
<g clip-path="url(#clip0)">
<path id="Vector" d="M19 0V2C25.065 2 30 6.935 30 13H32C32 5.832 26.168 0 19 0ZM8.65039 3.00586C8.12551 3.00586 7.6011 3.1771 7.17383 3.52148L7.125 3.56055L3.98047 6.80469L4.04688 6.74219C3.00624 7.63841 2.71945 9.05412 3.16602 10.2441C4.00869 12.6741 6.15685 17.373 10.3945 21.6055C14.6413 25.8574 19.3895 27.9134 21.7383 28.8301L21.7617 28.8379L21.7852 28.8457C22.9996 29.2528 24.3115 28.9624 25.252 28.1582L25.2813 28.1328L28.4063 25.0078C29.2358 24.1783 29.2358 22.724 28.4063 21.8945L24.3086 17.793C23.4767 16.9611 22.0233 16.9611 21.1914 17.793L19.207 19.7773C18.4966 19.4383 16.7488 18.5586 15.0879 16.9746C13.4486 15.4113 12.6117 13.6044 12.3086 12.9062L14.3086 10.9062C15.1862 10.0287 15.2361 8.52195 14.2246 7.7168L14.3164 7.80078L10.1738 3.56055L10.127 3.52148C9.69967 3.17713 9.17528 3.00586 8.65039 3.00586ZM19 4V6C22.859 6 26 9.14 26 13H28C28 8.038 23.963 4 19 4ZM8.65235 5C8.72361 4.99988 8.79391 5.02673 8.86328 5.08008L12.9297 9.24414L12.9785 9.2832C12.967 9.27405 13.0169 9.36978 12.8945 9.49219L9.9375 12.4492L10.166 13.0527C10.166 13.0527 11.2947 16.1214 13.707 18.4219C16.0793 20.6843 19.0039 21.9199 19.0039 21.9199L19.627 22.1855L22.6055 19.207C22.7736 19.0389 22.7264 19.0389 22.8945 19.207L26.9922 23.3086C27.1627 23.4791 27.1627 23.4233 26.9922 23.5938L23.9453 26.6406C23.4814 27.035 23.0021 27.1383 22.4258 26.9473C20.1637 26.0627 15.7393 24.1269 11.8086 20.1914C7.85066 16.2383 5.79973 11.7466 5.04688 9.57031L5.04297 9.55859L5.03711 9.54492C4.88569 9.14448 4.99637 8.56371 5.35157 8.25781L5.38477 8.22852L8.43946 5.08008C8.50886 5.02722 8.58108 5.00012 8.65235 5ZM19 8V10C20.654 10 22 11.346 22 13H24C24 10.243 21.757 8 19 8Z" fill="black"/>
</g>
</g>
<defs>
<clipPath id="clip0">
<rect width="32" height="32" fill="white"/>
</clipPath>
</defs>
</svg>
