<svg width="32" height="32" viewBox="0 0 32 32" fill="none" xmlns="http://www.w3.org/2000/svg">
<g id="phone-alt-solid">
<path id="Vector" d="M22.625 3.03121C22.3047 3.06246 21.9766 3.1484 21.6563 3.28121V3.24996C21.6406 3.25386 21.6094 3.2773 21.5938 3.28121C19.1602 4.13668 14.5 6.28121 10.2813 10.5C6.03125 14.75 3.98047 19.4961 3.0625 21.8437V21.875C2.65625 23.0898 2.94532 24.4062 3.75 25.3437L3.78125 25.375V25.4062L6.78125 28.375L6.90625 28.5C7.73438 29.3281 9.17188 29.3281 10 28.5L14.0938 24.4062C14.9219 23.5781 14.9219 22.1093 14.0938 21.2812L12.125 19.3125C12.4688 18.5976 13.3594 16.8398 14.9375 15.1875C16.5039 13.5468 18.3008 12.7109 19 12.4062L21.0625 14.4687L21.1563 14.5312C21.625 14.8437 22.1602 15.0195 22.7188 15C23.2422 14.9804 23.7852 14.7226 24.1875 14.2812L24.2188 14.3125L24.2813 14.2187L28.3125 10.2187C29.1406 9.39058 29.1406 7.92183 28.3125 7.09371L25.2188 3.99996C24.7813 3.56246 24.1914 3.23433 23.5625 3.09371C23.2578 3.0273 22.9453 2.99996 22.625 3.03121ZM22.7813 5.03121C23.1602 5.00386 23.5391 5.16402 23.7813 5.40621L26.9063 8.49996C27.0781 8.67183 27.0781 8.60933 26.9063 8.78121L22.7188 12.9687C22.7227 12.9648 22.7188 12.9961 22.625 13C22.5469 13.0039 22.4297 12.9375 22.3125 12.875H22.25L19.9063 10.5L19.4375 10.0312L18.8438 10.25C18.8438 10.25 15.7695 11.3984 13.4688 13.8125C11.207 16.1796 9.96875 19.0937 9.96875 19.0937L9.71875 19.7187L10.1875 20.2187L12.6875 22.7187C12.8594 22.8906 12.8594 22.8281 12.6875 23L8.59375 27.0937C8.42188 27.2656 8.48438 27.2656 8.3125 27.0937L5.25 24.0625C5.24219 24.0546 5.25782 24.039 5.25 24.0312L5.21875 24C4.8711 23.5664 4.76563 23.1054 4.9375 22.5625C4.94141 22.5507 4.9336 22.5429 4.9375 22.5312C5.82422 20.2734 7.77735 15.8476 11.7188 11.9062C15.6758 7.94918 20.1641 5.91402 22.3438 5.15621L22.375 5.12496H22.4063C22.5273 5.07027 22.6563 5.03902 22.7813 5.03121Z" fill="black"/>
</g>
</svg>
