<svg width="32" height="32" viewBox="0 0 32 32" fill="none" xmlns="http://www.w3.org/2000/svg">
<g id="photo-video-solid">
<path id="Vector" d="M10 2V9H12V4H14V5H16V4H25V5H27V4H29V16H27V15H25V18H31V2H10ZM14 7V9H16V7H14ZM25 7V9H27V7H25ZM2 11V29H23V11H2ZM25 11V13H27V11H25ZM4 13H21V22.7812L18.4062 20.1875L17.6875 19.5L14.875 22.3125L10.5938 18L9.90625 17.2812L4 23.1875V13ZM15.5 15C14.671 15 14 15.671 14 16.5C14 17.329 14.671 18 15.5 18C16.329 18 17 17.329 17 16.5C17 15.671 16.329 15 15.5 15ZM9.9043 20.125L14.9043 25.125L15.5938 24.4062L17.6875 22.3125L21 25.625V27H4V26.0312L9.9043 20.125Z" fill="black"/>
</g>
</svg>
