<svg width="32" height="32" viewBox="0 0 32 32" fill="none" xmlns="http://www.w3.org/2000/svg">
<g id="php">
<path id="Vector" d="M16 7.16797C7.165 7.16797 0 10.932 0 15.582C0 20.232 7.165 23.998 16 23.998C24.835 23.998 32 20.232 32 15.582C32 10.932 24.835 7.16797 16 7.16797ZM16 8.00781C24.57 8.00781 31.1602 11.617 31.1602 15.582C31.1602 19.547 24.565 23.1582 16 23.1582C7.43 23.1582 0.839844 19.547 0.839844 15.582C0.839844 11.617 7.435 8.00781 16 8.00781ZM14.0566 9.67578L12.4395 18.0156H14.2441L15.1758 13.2363C16.6448 13.2363 17.2525 13.1778 17.5195 13.4648C17.7965 13.7618 17.6546 14.0876 16.8926 18.0156H18.7227C19.5147 13.9546 19.8648 13.0929 19.1328 12.4199C18.4358 11.7769 16.9916 11.8906 15.4336 11.8906L15.8633 9.67578H14.0566ZM6.48828 11.8965L4.86914 20.2422H6.68555L7.11523 18.0254C9.14823 18.0254 10.4111 18.1731 11.5781 17.0801C12.8691 15.8931 13.2062 13.7807 12.2852 12.7227C11.8052 12.1687 11.0324 11.8965 9.98438 11.8965H6.48828ZM20.6797 11.8965L19.0586 20.2422H20.8789L21.3086 18.0254C23.4456 18.0254 24.6285 18.1491 25.7715 17.0801C27.0625 15.8931 27.3995 13.7807 26.4785 12.7227C25.9985 12.1687 25.2257 11.8965 24.1777 11.8965H20.6797ZM9.33594 13.2109C10.4708 13.2429 11.1202 13.4832 10.8457 14.9082C10.4547 16.9122 9.07591 16.7051 7.37891 16.7051L8.05664 13.2129C8.52664 13.2129 8.95766 13.2003 9.33594 13.2109ZM23.5293 13.2109C24.6655 13.2429 25.3077 13.4832 25.0332 14.9082C24.6372 16.9412 23.2184 16.7051 21.5664 16.7051L22.2441 13.2129C22.7166 13.2129 23.1505 13.2003 23.5293 13.2109Z" fill="black"/>
</g>
</svg>
