<svg width="32" height="32" viewBox="0 0 32 32" fill="none" xmlns="http://www.w3.org/2000/svg">
<g id="pied-piper-hat">
<path id="Vector" d="M31 4.96875L29.7812 5.28125C23.4922 6.79688 20.8633 12.4492 19.5625 15.4688C18.8086 14.7148 17.5781 14 15.8125 14C13.1562 14 11.1172 15.4961 9.59375 17.25C8.17188 18.8867 7.1875 20.7578 6.375 22.1562C4.74609 22.8398 1.96875 23 1.96875 23L0.46875 23.0312L1.09375 24.4062C1.09375 24.4062 1.44531 25.1523 2.21875 25.7812C2.99219 26.4102 4.24219 27 6 27C8.45703 27 11.7891 26 15 26H20V25.9375C20.5039 25.9492 21.0156 25.7578 21.2812 25.3125L23.7812 21.125H23.8125C24.3125 20.2812 23.7148 19.1094 22.75 19H21C20.6914 19 20.4531 19.0508 20.1562 19.0625C20.2578 18.8281 20.2617 18.8164 20.375 18.5625C20.4727 18.3398 20.5586 18.1523 20.6562 17.9375C20.6641 17.9219 20.6797 17.8906 20.6875 17.875C20.8398 17.5742 21.1719 16.9531 21.3438 16.5625C21.4141 16.5312 21.4805 16.5078 21.5938 16.4688C21.9375 16.3555 22.4219 16.2383 22.9375 16.0938C23.4531 15.9492 24 15.7812 24.5 15.5625C25 15.3438 25.5039 15.0977 25.8438 14.4688C26.2227 13.7734 26.3203 13.0586 26.4375 12.3438C26.5547 11.6289 26.6523 10.918 26.8438 10.4062C27.4492 8.79297 28.6016 7.91016 30.3438 7.25L31 7V4.96875ZM24.7188 10.9062C24.6406 11.2852 24.5234 11.6914 24.4688 12.0312C24.3555 12.7148 24.207 13.2773 24.0938 13.5C24.0664 13.5039 23.9375 13.6094 23.6875 13.7188C23.4062 13.8438 23.0039 13.9766 22.5938 14.0938C23.1836 12.9297 23.7734 12.0312 24.7188 10.9062ZM15.8125 16C17.125 16 17.8164 16.4766 18.25 16.9375C18.5547 17.2617 18.5625 17.3867 18.625 17.5312C18.5898 17.6094 18.5664 17.6719 18.5312 17.75C18.1914 18.5273 17.9961 18.9727 17.875 19.25C14.1797 19.7734 11.6484 21 10 21V23C13.1094 23 16.0039 21 21 21H21.5312L19.7188 24H15C11.3984 24 7.83594 25 6 25C5.29297 25 4.76562 24.8828 4.34375 24.7188C5.32422 24.5664 6.44922 24.3672 7.4375 23.9062L7.71875 23.7812L7.875 23.5C8.75 22.0156 9.77344 20.082 11.0938 18.5625C12.4141 17.043 13.9023 16 15.8125 16Z" fill="black"/>
</g>
</svg>
