<svg width="32" height="32" viewBox="0 0 32 32" fill="none" xmlns="http://www.w3.org/2000/svg">
<g id="pied-piper">
<path id="Vector" d="M13.4688 4C12.6211 4 11.8594 4.26953 11.125 4.59375H7V21L8.1875 20.75L11.7812 20.0312L12.5938 19.875V16.7188C12.7344 16.7422 12.8672 16.8047 13 16.8438V28.2188L14.1875 27.9688L17.7812 27.25L18.5938 27.0938V23.9375C18.8945 23.9844 19.1562 24.125 19.4688 24.125C22.8945 24.125 25.6562 21.1797 25.6562 17.6562C25.6562 14.1797 22.9609 11.2891 19.5938 11.2188C19.625 10.9609 19.6562 10.7031 19.6562 10.4375C19.6562 6.91406 16.8945 4 13.4688 4ZM13.4688 6C15.7578 6 17.6562 7.94141 17.6562 10.4375C17.6562 12.9336 15.7578 14.9062 13.4688 14.9062C12.9375 14.9062 12.4375 14.7891 11.9688 14.5938L10.5938 14.0312V18.2188L9 18.5625V6.59375H11.375L11.5938 6.46875C12.1602 6.16406 12.793 6 13.4688 6ZM12.625 6.78125C12.0664 6.78125 11.5469 6.95703 11.0938 7.21875L10.5938 7.5V13.3125L11.0938 13.5938C11.5469 13.8555 12.0703 14.0312 12.625 14.0312C14.5117 14.0312 15.9375 12.3281 15.9375 10.4062C15.9375 8.48438 14.5117 6.78125 12.625 6.78125ZM12.5938 8.78125C12.6055 8.78125 12.6133 8.78125 12.625 8.78125C13.2852 8.78125 13.9375 9.4375 13.9375 10.4062C13.9375 11.375 13.2852 12.0312 12.625 12.0312C12.6133 12.0312 12.6055 12.0312 12.5938 12.0312V8.78125ZM19.4688 13.2188C21.7578 13.2188 23.6562 15.1602 23.6562 17.6562C23.6562 20.1523 21.7578 22.125 19.4688 22.125C18.9375 22.125 18.4375 22.0078 17.9688 21.8125L16.5938 21.25V25.4375L15 25.7812V16.7188C15.5625 16.5664 16.1055 16.332 16.5938 16.0312V20.5312L17.0938 20.8125C17.5469 21.0742 18.0703 21.25 18.625 21.25C20.5117 21.25 21.9375 19.5469 21.9375 17.625C21.9375 15.7031 20.5117 14 18.625 14C18.7734 13.7656 18.8789 13.5039 19 13.25C19 13.2461 19.0312 13.2539 19.0312 13.25C19.1719 13.2305 19.3242 13.2188 19.4688 13.2188ZM18.5938 16C18.6055 16 18.6133 16 18.625 16C19.2852 16 19.9375 16.6562 19.9375 17.625C19.9375 18.5938 19.2852 19.25 18.625 19.25C18.6133 19.25 18.6055 19.25 18.5938 19.25V16Z" fill="black"/>
</g>
</svg>
