<svg width="32" height="32" viewBox="0 0 32 32" fill="none" xmlns="http://www.w3.org/2000/svg">
<g id="pied-piper-alt">
<path id="Vector" d="M30.1875 1.4375C29.1797 3.09375 27.4805 7.57031 19.75 9.71875V8.625C18.7812 8.73438 18.4336 7.52344 18.0937 7.375C17.3242 8.16406 16.8672 8.89062 16.0312 9.4375C15.0234 10.0977 13.8672 10.3242 13.625 11.2188C13.9141 11.1094 14.875 10.5938 17.4687 10.5938C19.125 10.5938 19.1055 10.7734 20 11.875C20.3047 11.793 20.3437 11.6367 20.4375 11.4375C19.9648 10.5898 19.7266 10.5352 19.7812 10.1875C22.4453 9.96484 28.9766 7.90625 30.1875 1.4375ZM17.0312 11.0312C15.1328 11.0312 14.5859 11.2461 14.5312 11.3125C14.4141 11.75 14.9492 12.7109 13.9375 13.9375C14.2773 14.0312 14.6172 14.1211 14.9687 14.2188C14.9258 14.293 14.8125 14.4961 14.8125 14.7812C14.8125 15.8555 17.0937 14.8789 17.0937 16.625C17.0937 17.1875 15.5664 19.75 14.0937 19.75C12.6953 18.5469 11.1562 16.9805 11.3437 16.2812C12.1602 16.0898 13.9766 15.7266 14.1875 15.6562C14.4375 15.5703 14.7227 15.2812 14.625 14.9375C14.5273 14.5938 14.207 14.3555 13.4687 14.5625C13.2773 14.6172 11.3437 15.0312 11.3437 15.0312C10.7539 13.8164 10.4102 14.4375 9.9375 14.5312C9.25 14.668 8.53515 14.8359 8.9375 15.5625C8.71484 15.6172 1.82422 17.1328 1.71875 17.1562C1.51953 17.1992 0.894528 17.4297 1.03125 17.9375C1.16406 18.418 1.55078 18.418 1.65625 18.4062C2.0664 18.3555 9.37109 16.707 9.5 16.6875C9.625 17.043 10.1523 17.1758 10.7812 18.0938C10.9609 18.3516 13.3164 21.7188 13.9375 21.7188C16.2227 21.7188 18.4375 19.0938 18.4375 19.0938C18.3945 19.9883 16.5937 21.5 16.5937 21.5C16.5937 21.9062 16.668 23.4375 16.6875 23.6562C16.7422 23.6562 17.2422 23.8125 18.5937 23.8125C19.9453 23.8125 20.8437 23.4688 20.8437 23.4688C20.8437 23.4688 21.3437 21.6133 21.3437 20.4375C21.3437 17.5391 20.5508 17.3711 19.2812 16.25C19.2812 16.25 19.4453 16.1406 19.6562 16.1562C24.1914 16.4531 22.3398 24.918 25.4687 28.4062C25.5664 28.375 29.8437 26.668 31 25.9062C25.4297 21.3984 25.3047 15.4648 19.125 15.4688C19.125 14 20.625 15.75 20.9375 13.5625C20.6797 13.6875 20.4492 13.793 20.2187 13.9062C19.2344 11.3867 19.4766 11.0312 17.0312 11.0312ZM12.9062 13.9062C12.6641 13.9102 12.4531 13.9805 12.2187 14.0312C12.1172 14.0547 12.0234 14.0938 11.9062 14.125C11.9609 14.2188 12.1836 14.6289 12.2187 14.6875C12.6992 14.5859 13.1641 14.4805 13.6562 14.375C13.4609 14.2852 13.0898 13.9023 12.9062 13.9062ZM13.7187 15.9062C13.4727 15.9688 13.2422 16.0352 13 16.0938C13.0391 16.168 14.1328 18.9609 14.2812 19.3438C14.6602 19.0977 15.0391 18.8633 15.4062 18.625C15.1875 18.3125 13.7695 15.957 13.7187 15.9062ZM20.8125 23.9375C20.4531 23.957 17.7031 24.2969 17.5 24.375L17.625 25.125C17.9961 25.0703 20.3945 24.5977 20.9687 24.4062C20.9453 24.3164 20.957 24.0391 20.8125 23.9375ZM16.6875 24.125C16.5898 24.4648 16.6445 25.3047 16.6875 25.5312C16.7852 25.5117 17.1602 25.4219 17.2812 25.375C17.2305 24.9609 17.1797 24.543 17.125 24.125H16.6875ZM21.125 24.9062C18.4961 25.0195 16.8086 25.8789 16.6875 26C16.6484 26.1914 17.0273 28.1445 17.0312 28.4062C20.5977 28.9141 22.5859 27.918 22.6875 27.875C22.5586 27.4609 21.2422 24.9023 21.125 24.9062Z" fill="black"/>
</g>
</svg>
