<svg width="32" height="32" viewBox="0 0 32 32" fill="none" xmlns="http://www.w3.org/2000/svg">
<g id="piggy-bank-solid">
<path id="Vector" d="M13.5 4C11.0273 4 9 6.02734 9 8.5C9 9.30078 9.22656 10.043 9.59375 10.6875C7.79297 11.7422 6.38281 13.2383 5.625 15H5.5C5.21484 15 5 14.7852 5 14.5C5 14.3242 5.08984 14.1836 5.21875 14.0938L4.0625 12.4688C3.41797 12.9219 3 13.6602 3 14.5C3 15.7305 3.91797 16.7383 5.09375 16.9375C5.04297 17.2891 5 17.6367 5 18C5 20.4922 6.32422 22.6523 8.25 24.25C8.00781 25.25 8.12891 26.3164 8.90625 27.0938C10.0898 28.2773 12.0352 28.2773 13.2188 27.0938L13.5938 26.7188C14.375 26.8633 15.1602 27 16 27C16.8398 27 17.625 26.8633 18.4062 26.7188L18.7812 27.0938C19.9648 28.2773 21.9102 28.2773 23.0938 27.0938C23.8555 26.332 23.9688 25.2969 23.75 24.3125C24.5664 23.6445 25.2461 22.8711 25.7812 22H28V14H25.7188C25.3594 13.418 24.9297 12.8672 24.4375 12.375L25 9.28125V8H24C24 8 21.5977 8.03906 19.5625 9.5625C19.0312 9.41016 18.4961 9.28516 17.9375 9.1875C17.9766 8.96484 18 8.73438 18 8.5C18 6.02734 15.9727 4 13.5 4ZM13.5 6C14.8906 6 16 7.10938 16 8.5C16 8.67188 15.9688 8.83594 15.9375 9C14.3242 9.00781 12.8008 9.32031 11.4062 9.84375C11.1484 9.45312 11 8.99609 11 8.5C11 7.10938 12.1094 6 13.5 6ZM22.75 10.1875C22.7656 10.1836 22.7656 10.1914 22.7812 10.1875L22.4062 12.4688L22.3125 13L22.75 13.375C23.4492 13.9922 23.9922 14.6836 24.375 15.4375L24.6562 16H26V20H24.6562L24.375 20.5625C23.8867 21.5273 23.1172 22.375 22.125 23.0938L21.4062 23.625L21.8438 24.4375C22.082 24.8398 22.0391 25.3359 21.6875 25.6875C21.2695 26.1055 20.6367 26.1055 20.2188 25.6875L19.5 24.9688L19.0938 24.5938L18.5625 24.7188C17.75 24.9062 16.8867 25 16 25C15.1133 25 14.2539 24.9062 13.4375 24.7188L12.9062 24.5938L12.5 24.9688L11.7812 25.6875C11.3633 26.1055 10.7305 26.1055 10.3125 25.6875C9.96094 25.3359 9.91797 24.8398 10.1562 24.4375L10.5938 23.625L9.875 23.0938C8.06641 21.7812 7 19.9883 7 18C7 14.2578 10.9102 11 16 11C17.2305 11 18.4023 11.1836 19.4688 11.5312L20 11.7188L20.4375 11.3438C21.1523 10.707 22.0352 10.3633 22.75 10.1875ZM22 16C21.4492 16 21 16.4492 21 17C21 17.5508 21.4492 18 22 18C22.5508 18 23 17.5508 23 17C23 16.4492 22.5508 16 22 16Z" fill="black"/>
</g>
</svg>
