<svg width="32" height="32" viewBox="0 0 32 32" fill="none" xmlns="http://www.w3.org/2000/svg">
<g id="pinterest">
<path id="Vector" d="M16 4C9.37109 4 4 9.37109 4 16C4 21.0859 7.16406 25.4258 11.6289 27.1758C11.5234 26.2266 11.4258 24.7695 11.668 23.7305C11.8867 22.7969 13.0742 17.7656 13.0742 17.7656C13.0742 17.7656 12.7188 17.0469 12.7188 15.9844C12.7188 14.3164 13.6836 13.0703 14.8867 13.0703C15.9102 13.0703 16.4062 13.8398 16.4062 14.7617C16.4062 15.793 15.75 17.332 15.4102 18.7578C15.1289 19.9531 16.0117 20.9258 17.1875 20.9258C19.3203 20.9258 20.9609 18.6758 20.9609 15.4297C20.9609 12.5586 18.8984 10.5508 15.9492 10.5508C12.5352 10.5508 10.5312 13.1094 10.5312 15.7578C10.5312 16.7891 10.9297 17.8945 11.4258 18.4961C11.5234 18.6133 11.5352 18.7188 11.5078 18.8398C11.4141 19.2188 11.2148 20.0352 11.1758 20.1992C11.1211 20.4219 11 20.4688 10.7734 20.3594C9.27344 19.6641 8.33594 17.4727 8.33594 15.7109C8.33594 11.9258 11.0859 8.44922 16.2656 8.44922C20.4297 8.44922 23.6641 11.4141 23.6641 15.3828C23.6641 19.5156 21.0547 22.8438 17.4375 22.8438C16.2227 22.8438 15.0781 22.2148 14.6875 21.4688C14.6875 21.4688 14.0859 23.7578 13.9375 24.3203C13.668 25.3633 12.9375 26.668 12.4453 27.4648C13.5703 27.8125 14.7617 28 16 28C22.6289 28 28 22.6289 28 16C28 9.37109 22.6289 4 16 4Z" fill="black"/>
</g>
</svg>
