<svg width="32" height="32" viewBox="0 0 32 32" fill="none" xmlns="http://www.w3.org/2000/svg">
<g id="pinterest-p">
<path id="Vector" d="M16.0938 4C11.0167 4 6 7.38333 6 12.8613C6 16.3443 7.95848 18.3242 9.14648 18.3242C9.63648 18.3242 9.91992 16.9583 9.91992 16.5723C9.91992 16.1123 8.74609 15.1318 8.74609 13.2168C8.74609 9.2388 11.7744 6.41992 15.6934 6.41992C19.0634 6.41992 21.5566 8.33356 21.5566 11.8516C21.5566 14.4786 20.5019 19.4062 17.0879 19.4062C15.8559 19.4062 14.8027 18.5162 14.8027 17.2402C14.8027 15.3702 16 13.5589 16 11.6289C16 8.35291 11.4629 8.94725 11.4629 12.9062C11.4629 13.7373 11.5665 14.6571 11.9375 15.4141C11.2555 18.3531 10 23.0374 10 26.0664C10 27.0014 10.1337 27.9214 10.2227 28.8574C10.3907 29.0454 10.3075 29.0256 10.5645 28.9316C13.0585 25.5176 12.8271 24.5442 13.9551 20.0762C14.5641 21.2342 16.1378 21.8574 17.3848 21.8574C22.6398 21.8574 25 16.7361 25 12.1191C25 7.20614 20.7547 4 16.0938 4Z" fill="black"/>
</g>
</svg>
