<svg width="32" height="32" viewBox="0 0 32 32" fill="none" xmlns="http://www.w3.org/2000/svg">
<g id="pinterest-square">
<path id="Vector" d="M5 5V27H27V5H5ZM7 7H25V25H13.5137C13.7655 24.4937 13.9921 23.9714 14.1152 23.4961C14.2492 22.9821 15 20.7402 15 20.7402C15.357 21.4232 16.4027 22 17.5137 22C20.8217 22 23 19.1071 23 15.3301C23 11.7101 20.0442 9 16.2402 9C11.5082 9 9 12.1748 9 15.6348C9 17.2418 9.85666 19.2419 11.2227 19.8809C11.4327 19.9789 11.5408 19.9334 11.5898 19.7324C11.6258 19.5804 11.8116 18.8362 11.8926 18.4922C11.9196 18.3802 11.9054 18.2877 11.8164 18.1797C11.3654 17.6297 11 16.6217 11 15.6797C11 13.2597 12.8302 10.9199 15.9512 10.9199C18.6432 10.9199 20.5312 12.7559 20.5312 15.3809C20.5312 18.3449 19.2362 20.252 17.2852 20.252C16.2092 20.252 15.205 19.51 15.459 18.416C15.767 17.112 16.3652 15.7057 16.3652 14.7637C16.3652 12.3977 12.998 12.7249 12.998 15.8809C12.998 16.8499 13.3203 17.5098 13.3203 17.5098C12.2575 22.2484 11.9556 23.2822 12.0488 25H7V7Z" fill="black"/>
</g>
</svg>
