<svg width="32" height="32" viewBox="0 0 32 32" fill="none" xmlns="http://www.w3.org/2000/svg">
<g id="place-of-worship-solid">
<path id="Vector" d="M16 4.40625L15.2188 5.375L11.2188 10.375L11 10.6562V16.9375L5.46875 20.4062L6.53125 22.0938L7 21.8125V27H15V23C15 22.4336 15.4336 22 16 22C16.5664 22 17 22.4336 17 23V27H25V21.8125L25.4688 22.0938L26.5312 20.4062L21 16.9375V10.6562L20.7812 10.375L16.7812 5.375L16 4.40625ZM16 7.59375L19 11.3438V15.6875L16.5312 14.1562L16 13.8125L15.4688 14.1562L13 15.6875V11.3438L16 7.59375ZM16 11C15.4492 11 15 11.4492 15 12C15 12.5508 15.4492 13 16 13C16.5508 13 17 12.5508 17 12C17 11.4492 16.5508 11 16 11ZM16 16.1875L23 20.5625V25H19V23C19 21.3555 17.6445 20 16 20C14.3555 20 13 21.3555 13 23V25H9V20.5625L16 16.1875Z" fill="black"/>
</g>
</svg>
