<svg width="32" height="32" viewBox="0 0 32 32" fill="none" xmlns="http://www.w3.org/2000/svg">
<g id="plane-arrival-solid">
<path id="Vector" d="M3.40625 3.96875L3.34375 5.25L3 14.0312L2.96875 14.8125L3.71875 15.0312L10.125 16.9688L4.6875 20.75L3.15625 21.8125L4.875 22.5L7.71875 23.625L8.09375 23.7812L8.46875 23.625L18.4688 19.4688L24.875 21.4062C26.5625 21.9141 28.3672 20.9336 28.875 19.25C29.3828 17.5625 28.4023 15.7578 26.7188 15.25L21.0312 13.5L17.25 7.25L17.0312 6.90625L16.6562 6.78125L14 6.0625L12.5312 5.6875L12.75 7.1875L13.2812 11.0938L9.03125 9.78125L7.40625 5.59375L7.21875 5.125L6.75 4.96875L4.625 4.34375L3.40625 3.96875ZM5.28125 6.625L5.71875 6.75L7.3125 10.9375L7.46875 11.4062L7.9375 11.5312L26.125 17.1562C26.7773 17.3516 27.1328 18.0078 26.9375 18.6562C26.7422 19.3086 26.0859 19.6641 25.4375 19.4688L18.6875 17.4375L18.3438 17.3438L18.0312 17.4688L8.09375 21.625L7.34375 21.3125L12.9688 17.4375L14.6875 16.25L12.6875 15.6562L5.03125 13.3438L5.28125 6.625ZM14.9062 8.40625L15.7188 8.625L18.1562 12.5938L15.3438 11.75L14.9062 8.40625ZM20.5 21C19.6719 21 19 21.6719 19 22.5C19 23.3281 19.6719 24 20.5 24C21.3281 24 22 23.3281 22 22.5C22 21.6719 21.3281 21 20.5 21ZM3 26V28H29V26H3Z" fill="black"/>
</g>
</svg>
