<svg width="32" height="32" viewBox="0 0 32 32" fill="none" xmlns="http://www.w3.org/2000/svg">
<g id="plane-departure-solid">
<path id="Vector" d="M25.7188 4.7813C25.332 4.81645 24.957 4.92973 24.5938 5.12505L19.875 7.62505L13.5 6.06255L13.125 5.9688L12.75 6.1563L10.5938 7.4063L9.3125 8.1563L10.5 9.06255L13.2188 11.125L9.8125 12.9375L6.15625 11.2813L5.71875 11.0938L5.28125 11.3125L3.53125 12.25L2.375 12.875L3.25 13.8125L8.65625 19.625L9.15625 20.2188L9.84375 19.8438L15 17.0938L13.9688 22.7813L13.625 24.5938L15.3438 23.875L17.9062 22.7813L18.2812 22.625L18.4375 22.25L22.1562 13.2188L27.4062 10.4063C28.8516 9.62895 29.4336 7.78911 28.6562 6.3438C28.2695 5.62114 27.6094 5.12895 26.875 4.9063C26.5078 4.79692 26.1055 4.74614 25.7188 4.7813ZM25.9062 6.7813C26.0312 6.77348 26.1602 6.77739 26.2812 6.81255C26.5234 6.88677 26.7422 7.0352 26.875 7.2813C27.1406 7.77739 26.9648 8.35942 26.4688 8.62505L20.875 11.6563L20.5625 11.8125L20.4375 12.1563L16.7188 21.0938L16.2812 21.2813L17.3438 15.375L17.7188 13.3438L15.9062 14.3125L9.59375 17.7188L5.625 13.4063L5.78125 13.3125L9.4375 14.9375L9.90625 15.1563L10.3125 14.9063L25.5312 6.87505C25.6562 6.80864 25.7812 6.78911 25.9062 6.7813ZM13.375 8.0938L17.2188 9.0313L15.1562 10.0938L12.9062 8.37505L13.375 8.0938ZM3 26V28H29V26H3Z" fill="black"/>
</g>
</svg>
