<svg width="32" height="32" viewBox="0 0 32 32" fill="none" xmlns="http://www.w3.org/2000/svg">
<g id="plane-solid">
<path id="Vector" d="M16 3C14.3555 3 13 4.35547 13 6V13.3438L4.59375 17.0938L4 17.3438V22.125L13 21.125V22.9688L10.4375 24.6875L10 24.9688V29.2188L11.1875 28.9688L16 28L20.8125 28.9688L22 29.2188V24.9688L21.5625 24.6875L19 22.9688V21.125L28 22.125V17.3438L27.4062 17.0938L19 13.3438V6C19 4.35547 17.6445 3 16 3ZM16 5C16.5664 5 17 5.43359 17 6V14.6562L17.5938 14.9062L26 18.6562V19.875L17 18.875V24.0625L17.4375 24.3438L20 26.0625V26.7812L16.1875 26.0312L16 25.9688L15.8125 26.0312L12 26.7812V26.0625L14.5625 24.3438L15 24.0625V18.875L6 19.875V18.6562L14.4062 14.9062L15 14.6562V6C15 5.43359 15.4336 5 16 5Z" fill="black"/>
</g>
</svg>
