<svg width="32" height="32" viewBox="0 0 32 32" fill="none" xmlns="http://www.w3.org/2000/svg">
<g id="playstation">
<path id="Vector" d="M12.9375 6V24.75L17 26V10.3438C17 9.92969 17.0469 9.64453 17.2188 9.46875C17.3906 9.23047 17.5703 9.21094 17.8125 9.3125C18.4023 9.48438 18.6563 9.98047 18.6563 10.8438V17.1562C19.9727 17.7773 21.168 17.8438 22.0313 17.1875C22.9336 16.5664 23.4063 15.4414 23.4063 13.7812C23.4063 12.0547 23.0781 10.7422 22.3125 9.875C21.6211 8.94141 20.3984 8.18359 18.5938 7.5625C16.3438 6.83594 14.4609 6.32031 12.9375 6ZM11.6875 17.3438L10.875 17.5938L5.84375 19.4062L4.96875 19.75C3.65235 20.3047 2.96485 20.8867 3 21.4062C3.07032 22.168 3.94141 22.7109 5.5 23.125C7.52344 23.6719 9.58594 23.7812 11.6875 23.4688V21.3438L10.875 21.6562L10 22L8.53125 22.2812L7.15625 22.0938C6.87891 21.918 6.82422 21.7344 7 21.5625C7.17188 21.457 7.41016 21.3242 7.6875 21.2188L8.625 20.875L11.6875 19.8125V17.3438ZM23.3438 18.3438C22.9688 18.3281 22.582 18.3555 22.2188 18.375C20.8711 18.4023 19.5 18.6406 18.0625 19.0938V21.5938L20.9063 20.5938L22.375 20.0938C22.375 20.0938 22.9375 19.9492 23.3438 19.8438C23.9648 19.6797 24.625 19.9062 24.625 19.9062C25.0039 19.9414 25.1797 20.0742 25.25 20.25C25.3203 20.457 25.082 20.6367 24.5625 20.8125L23.2813 21.3125L18.0625 23.1875V25.625L20.5 24.75L26.3438 22.6875L27.0625 22.375C28.4492 21.8555 29.0703 21.2852 29 20.5938C28.9648 19.9336 28.1992 19.418 26.8125 18.9688C25.6445 18.5781 24.4688 18.3867 23.3438 18.3438Z" fill="black"/>
</g>
</svg>
