<svg width="32" height="32" viewBox="0 0 32 32" fill="none" xmlns="http://www.w3.org/2000/svg">
<g id="play-circle">
<path id="Vector" d="M16 4C9.38281 4 4 9.38281 4 16C4 22.6172 9.38281 28 16 28C22.6172 28 28 22.6172 28 16C28 9.38281 22.6172 4 16 4ZM16 6C21.5352 6 26 10.4648 26 16C26 21.5352 21.5352 26 16 26C10.4648 26 6 21.5352 6 16C6 10.4648 10.4648 6 16 6ZM12 9.125V22.875L13.5 22L22.5 16.875L24 16L22.5 15.125L13.5 10L12 9.125ZM14 12.5625L19.9688 16L14 19.4375V12.5625Z" fill="black"/>
</g>
</svg>
