<svg width="32" height="32" viewBox="0 0 32 32" fill="none" xmlns="http://www.w3.org/2000/svg">
<g id="plug-solid">
<path id="Vector" d="M22 3.59375L18 7.5625L15.7188 5.28125L14.2812 6.71875L15.0312 7.46875L9.90625 12.5938C8.69531 13.8047 8.69531 15.7891 9.90625 17L11.75 18.8438L4.28125 26.2812L5.71875 27.7188L13.1562 20.25L15 22.0938C16.2109 23.3047 18.1953 23.3047 19.4062 22.0938L24.5312 16.9688L25.2812 17.7188L26.7188 16.2812L24.4375 14L28.4062 10L27 8.59375L23 12.5625L19.4375 9L23.4062 5L22 3.59375ZM16.4375 8.875L23.125 15.5625L18 20.6875C17.6133 21.0742 16.793 21.0742 16.4062 20.6875L11.3125 15.5938C10.9258 15.207 10.9258 14.3867 11.3125 14L16.4375 8.875Z" fill="black"/>
</g>
</svg>
