<svg width="32" height="32" viewBox="0 0 32 32" fill="none" xmlns="http://www.w3.org/2000/svg">
<g id="podcast-solid">
<path id="Vector" d="M16.5 3C10.159 3 5 8.159 5 14.5C5 19.149 7.77881 23.1538 11.7578 24.9648C11.6448 24.1208 11.5555 23.2832 11.5195 22.5742C8.81253 20.8982 7 17.911 7 14.5C7 9.262 11.262 5 16.5 5C21.738 5 26 9.262 26 14.5C26 17.911 24.1875 20.8982 21.4805 22.5742C21.4445 23.2822 21.3552 24.1208 21.2422 24.9648C25.2212 23.1538 28 19.149 28 14.5C28 8.159 22.841 3 16.5 3ZM16.5 7C12.364 7 9 10.364 9 14.5C9 16.854 10.0929 18.956 11.7949 20.332C12.0209 19.721 12.4025 19.1546 12.9375 18.6816C11.7545 17.6716 11 16.173 11 14.5C11 11.468 13.468 9 16.5 9C19.532 9 22 11.468 22 14.5C22 16.173 21.2455 17.6716 20.0625 18.6816C20.5975 19.1536 20.9801 19.72 21.2051 20.332C22.9071 18.956 24 16.854 24 14.5C24 10.364 20.636 7 16.5 7ZM16.5 11C14.57 11 13 12.57 13 14.5C13 16.43 14.57 18 16.5 18C18.43 18 20 16.43 20 14.5C20 12.57 18.43 11 16.5 11ZM16.5 13C17.327 13 18 13.673 18 14.5C18 15.327 17.327 16 16.5 16C15.673 16 15 15.327 15 14.5C15 13.673 15.673 13 16.5 13ZM16.5 19C13.341 19 13 21.0758 13 21.9688C13 23.6128 13.5371 26.9198 13.8301 28.1738C13.9591 28.7238 14.478 30 16.5 30C18.522 30 19.0409 28.7238 19.1699 28.1738C19.4629 26.9208 20 23.6128 20 21.9688C20 21.0758 19.659 19 16.5 19ZM16.5 21C18 21 18 21.5597 18 21.9688C18 23.3037 17.5297 26.3998 17.2227 27.7168C17.1977 27.8218 17.156 28 16.5 28C15.844 28 15.8023 27.8228 15.7773 27.7188C15.4713 26.4048 15 23.3048 15 21.9688C15 21.5597 15 21 16.5 21Z" fill="black"/>
</g>
</svg>
