<svg width="32" height="32" viewBox="0 0 32 32" fill="none" xmlns="http://www.w3.org/2000/svg">
<g id="poo-storm-solid">
<path id="Vector" d="M17 4C14.162 4 11 6.61328 11 10.3633V11H10C7.794 11 6 12.794 6 15C6 15.408 6.0645 15.8113 6.1875 16.1953C4.3455 16.7583 3 18.475 3 20.5C3 22.981 5.019 25 7.5 25H15V24.4102L10.7695 23H7.5C6.121 23 5 21.879 5 20.5C5 19.121 6.121 18 7.5 18H10.0352L8.52344 16.3281C8.18644 15.9541 8 15.483 8 15C8 13.897 8.897 13 10 13H13V10.3633C13 8.36228 14.4261 6.7265 15.9531 6.1875C16.0261 8.0915 16.8519 8.87937 17.8359 9.60938C18.5369 10.1304 19 10.474 19 12V13H22C23.103 13 24 13.897 24 15C24 15.483 23.8136 15.9541 23.4766 16.3281L21.9648 18H24.5C25.879 18 27 19.121 27 20.5C27 21.879 25.879 23 24.5 23H21.9238L21 25H24.5C26.981 25 29 22.981 29 20.5C29 18.475 27.6555 16.7583 25.8125 16.1953C25.9365 15.8113 26 15.408 26 15C26 12.794 24.206 11 22 11H20.9336C20.6766 9.227 19.7403 8.53191 19.0273 8.00391C18.2803 7.44891 17.7851 7.08147 17.9941 5.10547L18.1113 4H17ZM17 15.5L14 21.9688L17 22.9688V28.5L20 22L17 21V15.5Z" fill="black"/>
</g>
</svg>
