<svg width="32" height="32" viewBox="0 0 32 32" fill="none" xmlns="http://www.w3.org/2000/svg">
<g id="poo-solid">
<path id="Vector" d="M17 6C14.162 6 11 8.61328 11 12.3633V13H10C7.794 13 6 14.794 6 17C6 17.408 6.0645 17.8113 6.1875 18.1953C4.3455 18.7583 3 20.475 3 22.5C3 24.981 5.019 27 7.5 27H24.5C26.981 27 29 24.981 29 22.5C29 20.475 27.6555 18.7574 25.8125 18.1934C25.9365 17.8094 26 17.406 26 16.998C26 14.792 24.206 12.998 22 12.998H20.9316C20.6746 11.225 19.7384 10.5319 19.0254 10.0039C18.2784 9.44991 17.7851 9.08247 17.9941 7.10547L18.1113 6H17ZM15.9531 8.1875C16.0261 10.0915 16.8529 10.8804 17.8359 11.6094C18.5369 12.1304 19 12.474 19 14V15H22C23.103 15 24 15.897 24 17C24 17.483 23.8136 17.9541 23.4766 18.3281L21.9648 20H24.5C25.879 20 27 21.121 27 22.5C27 23.879 25.879 25 24.5 25H7.5C6.121 25 5 23.879 5 22.5C5 21.121 6.121 20 7.5 20H10.0352L8.52344 18.3281C8.18644 17.9541 8 17.483 8 17C8 15.897 8.897 15 10 15H13V12.3633C13 10.3623 14.4261 8.7275 15.9531 8.1875ZM12 17C11.7348 17 11.4804 17.1054 11.2929 17.2929C11.1054 17.4804 11 17.7348 11 18C11 18.2652 11.1054 18.5196 11.2929 18.7071C11.4804 18.8946 11.7348 19 12 19C12.2652 19 12.5196 18.8946 12.7071 18.7071C12.8946 18.5196 13 18.2652 13 18C13 17.7348 12.8946 17.4804 12.7071 17.2929C12.5196 17.1054 12.2652 17 12 17ZM20 17C19.7348 17 19.4804 17.1054 19.2929 17.2929C19.1054 17.4804 19 17.7348 19 18C19 18.2652 19.1054 18.5196 19.2929 18.7071C19.4804 18.8946 19.7348 19 20 19C20.2652 19 20.5196 18.8946 20.7071 18.7071C20.8946 18.5196 21 18.2652 21 18C21 17.7348 20.8946 17.4804 20.7071 17.2929C20.5196 17.1054 20.2652 17 20 17ZM14 20C14 21.105 14.895 22 16 22C17.105 22 18 21.105 18 20H14Z" fill="black"/>
</g>
</svg>
