<svg width="32" height="32" viewBox="0 0 32 32" fill="none" xmlns="http://www.w3.org/2000/svg">
<g id="poop-solid">
<path id="Vector" d="M21.125 4L19.4687 4.625C17.6055 5.32812 16.3945 6.05469 15.5937 6.8125C14.793 7.57031 14.4141 8.40234 14.2187 9.03125C14.0234 9.66016 13.9453 10.0273 13.8125 10.2188C13.6953 10.3867 13.4922 10.5898 12.8437 10.7812C12.832 10.7734 12.7539 10.7227 12.75 10.7188H12.7187C12.2187 10.3906 11.6484 10.1875 11.0937 10.0938C9.42968 9.8125 7.6875 10.5391 6.71875 12.0938L6.6875 12.125C6.09375 13.1328 5.76953 14.4102 5.9375 15.75C5.98828 16.1562 6.08984 16.5703 6.25 16.9688C4.78515 17.0547 3.41015 17.8789 2.625 19.2188H2.59375C1.375 21.3711 2.11718 24.1484 4.28125 25.375H4.3125V25.4062C4.42578 25.4609 5.75781 26.1641 7.75 26.7812C9.74218 27.3984 12.5312 28 16 28C19.4687 28 22.2539 27.4219 24.25 26.8125C26.2227 26.207 27.332 25.6133 27.7187 25.375C27.7227 25.3711 27.7461 25.3477 27.75 25.3438C29.8828 24.1055 30.6016 21.3789 29.375 19.2812H29.4062C28.832 18.2656 27.9336 17.5742 26.9062 17.25C26.9062 17.2461 26.875 17.2539 26.875 17.25C26.5586 16.1094 25.8086 15.1328 24.7812 14.5625C24.918 14.125 25 13.6172 25 13C25 11.8398 24.5859 10.8633 24.0312 10.1562C23.4766 9.44922 22.8086 8.97656 22.25 8.53125C21.6914 8.08594 21.2422 7.67578 21 7.28125C20.7578 6.88672 20.6367 6.51172 20.7812 5.75L21.125 4ZM18.875 7.1875C18.9687 7.60547 19.1094 8.01172 19.3125 8.34375C19.7852 9.11328 20.418 9.60156 21 10.0625C21.582 10.5234 22.125 10.9648 22.4687 11.4062C22.8125 11.8477 23 12.2695 23 13C23 13.4805 22.9453 13.7734 22.875 14C20.1484 13.6016 17.7617 12.9141 16 12.25C15.6484 12.1172 15.3398 11.9766 15.0312 11.8438C15.1992 11.6953 15.3477 11.5195 15.4687 11.3438C15.918 10.6914 15.9805 10.0586 16.125 9.59375C16.2695 9.12891 16.4336 8.75781 16.9687 8.25C17.2891 7.94531 18.1797 7.55078 18.875 7.1875ZM10.3125 11.9688C10.7539 11.9648 11.207 12.1016 11.625 12.375C12.1758 12.7578 13.3555 13.3594 15.3125 14.0938C17.2891 14.8359 19.9336 15.625 23.0312 16.0312H23.0625C23.7578 16.1172 24.332 16.5273 24.6875 17.125C24.332 17.1914 23.9648 17.2852 23.625 17.4375C23.5742 17.4609 23.5195 17.4453 23.4687 17.4688C23.4297 17.4805 23.4219 17.4922 23.4062 17.5C23.375 17.5156 23.3437 17.5156 23.3125 17.5312C23.2852 17.543 23.2539 17.5781 23.2187 17.5938C23.1328 17.6328 23.0078 17.6836 22.8437 17.75C22.5195 17.8867 22.0352 18.0625 21.4062 18.25C20.1484 18.6211 18.3203 19 16 19C14.2773 19 12.8047 18.8047 11.6562 18.5625C11.2969 18.4766 10.9492 18.3828 10.625 18.2812C9.97265 18.0742 9.36718 17.7773 9.375 17.7812C8.40625 17.1289 8.01171 16.3438 7.90625 15.5C7.80078 14.6562 8.03515 13.7578 8.40625 13.125C8.875 12.3711 9.57812 11.9766 10.3125 11.9688ZM6.28125 18.9375C6.75781 18.9023 7.25781 19.0195 7.71875 19.2812C7.72656 19.2852 7.74218 19.3086 7.75 19.3125C7.80468 19.3438 7.875 19.375 7.9375 19.4062C8.0625 19.4727 8.20703 19.5391 8.40625 19.625C8.80468 19.7969 9.35546 19.9844 10.0625 20.1875C10.3125 20.2578 10.6172 20.3359 10.9062 20.4062C11.0117 20.4336 11.1094 20.4727 11.2187 20.5C11.2305 20.5039 11.2383 20.4961 11.25 20.5C11.6484 20.6016 12.043 20.6914 12.4375 20.75V20.7188C13.4805 20.8906 14.6641 21 16 21C18.5352 21 20.5586 20.5742 21.9687 20.1562C22.6758 19.9453 23.2422 19.7227 23.625 19.5625C23.7656 19.5039 23.8437 19.4492 23.9375 19.4062H24.0312L24.0625 19.375L24.25 19.2812C25.4922 18.6172 26.9844 19.0117 27.6875 20.25V20.2812C28.3711 21.4492 27.9766 22.9609 26.75 23.6562H26.7187V23.6875C26.6406 23.7344 25.5156 24.3477 23.6875 24.9062C21.8594 25.4648 19.25 26 16 26C12.75 26 10.1445 25.4727 8.3125 24.9062C6.5039 24.3438 5.59765 23.832 5.25 23.6562C5.23437 23.6484 5.23046 23.6328 5.21875 23.625C4.02343 22.918 3.65234 21.4414 4.34375 20.2188C4.6914 19.6367 5.21093 19.2031 5.8125 19.0312C5.96484 18.9883 6.12109 18.9492 6.28125 18.9375Z" fill="black"/>
</g>
</svg>
