<svg width="32" height="32" viewBox="0 0 32 32" fill="none" xmlns="http://www.w3.org/2000/svg">
<g id="pound-sign-solid">
<path id="Vector" d="M17.6875 5C17.418 5 17.1406 5.02734 16.875 5.0625C13.6992 5.47656 11 8.20312 11 11.6562C11 12.7852 11.2812 13.8984 11.6562 15H9V17H12.4062C12.6055 17.5547 12.7656 18.1016 12.9062 18.6562C13.4688 20.8633 13.5273 22.8398 11.5312 25H8V27H24V22H22V25H14.0625C15.4531 22.6953 15.3789 20.2539 14.8438 18.1562C14.7422 17.7578 14.6172 17.3828 14.5 17H20V15H13.8438C13.3906 13.6914 13 12.5312 13 11.6562C13 8.42578 16.3008 6.11328 19.375 7.34375L20.125 5.5C19.3086 5.17578 18.4961 5 17.6875 5Z" fill="black"/>
</g>
</svg>
