<svg width="32" height="32" viewBox="0 0 32 32" fill="none" xmlns="http://www.w3.org/2000/svg">
<g id="praying-hands-solid">
<path id="Vector" d="M15 3C13.3555 3 12 4.35547 12 6L12.0156 5.83594L11.0312 11.7461L9.14062 16.918C9.10547 16.9648 9.0625 17 9 17H8V16H3V29H8V26H11.9258C13.5703 26 15.0508 25.2031 16 23.9648C16.9492 25.2031 18.4297 26 20.0742 26H24V29H29V16H24V17H23C22.9375 17 22.8945 16.9648 22.8594 16.918L20.9688 11.7461L19.9844 5.83594L20 6C20 4.35547 18.6445 3 17 3C16.6602 3 16.3125 3.06641 16 3.22656C15.6875 3.06641 15.3398 3 15 3ZM14.9648 5.01562C14.9844 5.16016 15 5.48828 15 6V21.4375C14.7227 22.9219 13.4453 24 11.9258 24H8V19H9C9.78516 19 10.5156 18.5742 10.9023 17.8906L10.9414 17.8164L12.9688 12.2539L14 6.08203V6C14 5.44922 14.4219 5.03516 14.9648 5.01562ZM17.0352 5.01562C17.5781 5.03516 18 5.44922 18 6V6.08203L19.0312 12.2539L21.0586 17.8164L21.0977 17.8906C21.4844 18.5742 22.2148 19 23 19H24V24H20.0742C18.5547 24 17.2773 22.9219 17 21.4375V6C17 5.48828 17.0156 5.16016 17.0352 5.01562ZM5 18H6V27H5V18ZM26 18H27V27H26V18Z" fill="black"/>
</g>
</svg>
