<svg width="32" height="32" viewBox="0 0 32 32" fill="none" xmlns="http://www.w3.org/2000/svg">
<g id="pray-solid">
<path id="Vector" d="M17.5 4C15.57 4 14 5.57 14 7.5C14 9.43 15.57 11 17.5 11C19.43 11 21 9.43 21 7.5C21 5.57 19.43 4 17.5 4ZM17.5 6C18.327 6 19 6.673 19 7.5C19 8.327 18.327 9 17.5 9C16.673 9 16 8.327 16 7.5C16 6.673 16.673 6 17.5 6ZM13.1562 12C12.0532 12 11.061 12.6549 10.627 13.6699L8.66016 18.2559C8.14116 19.4679 8.46439 20.8587 9.52539 21.7637L13.9434 25H7V27H15.4844C16.1334 27 16.7062 26.5877 16.9082 25.9707C17.1102 25.3537 16.8921 24.6818 16.3691 24.2988L10.7676 20.1973C10.4336 19.9113 10.325 19.4489 10.498 19.0449L12.4648 14.457C12.6678 13.983 13.3688 13.8661 13.7148 14.2441L16.1484 18.2324L16.2207 18.3359C16.5357 18.7289 17.0058 18.971 17.5078 18.998C18.0188 19.024 18.5024 18.8365 18.8574 18.4805L22.7793 13.6289L21.2227 12.3711L17.6309 16.8223L15.3809 13.1367L15.3086 13.0332C14.7826 12.3762 13.9973 12 13.1562 12Z" fill="black"/>
</g>
</svg>
