<svg width="32" height="32" viewBox="0 0 32 32" fill="none" xmlns="http://www.w3.org/2000/svg">
<g id="prescription-bottle-alt-solid">
<path id="Vector" d="M9.92773 3C8.97473 3 8.11741 3.53081 7.69141 4.38281L7.38281 5H7C5.897 5 5 5.897 5 7V11H6V27C6 28.103 6.897 29 8 29H24C25.103 29 26 28.103 26 27V11H27V7C27 5.897 26.103 5 25 5H24.6172L24.3086 4.38281C23.8836 3.53081 23.0263 3 22.0723 3H9.92773ZM9.92773 5H22.0723C22.2633 5 22.4345 5.10539 22.5195 5.27539L23.3828 7H25V9H7V7H8.61719L9.48047 5.27539C9.56547 5.10539 9.73673 5 9.92773 5ZM8 11H24V27H8V11ZM15 14V18H11V20H15V24H17V20H21V18H17V14H15Z" fill="black"/>
</g>
</svg>
