<svg width="32" height="32" viewBox="0 0 32 32" fill="none" xmlns="http://www.w3.org/2000/svg">
<g id="procedures-solid">
<path id="Vector" d="M17.125 0.4375L14.375 6H9V8H15.625L16.875 5.4375L19.7188 13L23.5 8H28V6H22.5L20.2812 8.875L17.125 0.4375ZM6.5 11C5.117 11 4 12.117 4 13.5V28H9V26H23V28H28V17C28 15.355 26.645 14 25 14H13V14.5625C12.406 14.2145 11.734 14 11 14C10.266 14 9.594 14.2145 9 14.5625V13.5C9 12.117 7.883 11 6.5 11ZM6.5 13C6.715 13 7 13.285 7 13.5V22H26V26H25V24H7V26H6V13.5C6 13.285 6.285 13 6.5 13ZM11 16C12.117 16 13 16.883 13 18C13 19.117 12.117 20 11 20C9.883 20 9 19.117 9 18C9 16.883 9.883 16 11 16ZM15 16H25C25.555 16 26 16.445 26 17V20H15V16Z" fill="black"/>
</g>
</svg>
