<svg width="32" height="32" viewBox="0 0 32 32" fill="none" xmlns="http://www.w3.org/2000/svg">
<g id="product-hunt">
<path id="Vector" d="M16 3C8.832 3 3 8.832 3 16C3 23.168 8.832 29 16 29C23.168 29 29 23.168 29 16C29 8.832 23.168 3 16 3ZM16 5C22.065 5 27 9.935 27 16C27 22.065 22.065 27 16 27C9.935 27 5 22.065 5 16C5 9.935 9.935 5 16 5ZM13 11V22H15V18H17.5C19.431 18 21 16.431 21 14.5C21 12.569 19.431 11 17.5 11H13ZM15 13H17.5C18.327 13 19 13.673 19 14.5C19 15.327 18.327 16 17.5 16H15V13Z" fill="black"/>
</g>
</svg>
