<svg width="32" height="32" viewBox="0 0 32 32" fill="none" xmlns="http://www.w3.org/2000/svg">
<g id="pushed">
<path id="Vector" d="M20.5312 4.00392C20.4095 3.99411 20.2878 4.0007 20.168 4.02345L5.63086 6.40236C4.82186 6.54736 4.23837 7.3833 4.48437 8.3633L10.1152 27.0254C10.4632 28.1664 12.0819 28.3224 12.6719 27.4004L14.5625 23.0723L27.3906 10.6777C28.2696 9.77775 27.62 8.37936 26.457 8.27736L20.9551 7.79689L21.7051 6.00587C22.1924 4.90425 21.3835 4.07262 20.5312 4.00392ZM20.3711 5.15431C20.6441 5.11631 20.7734 5.2878 20.6504 5.5508L19.75 7.68947L10.2441 6.81642L20.3711 5.15431ZM5.96875 7.57619L19.2949 8.79298L14.1016 21.1524L5.64062 8.06251C5.47462 7.78951 5.69575 7.52819 5.96875 7.57619ZM20.4883 8.90431L26.4141 9.4258C26.6291 9.4838 26.7217 9.70778 26.5547 9.88478L15.6816 20.3555L20.4883 8.90431ZM6.75586 11.9102L13.5977 22.4981C13.2227 23.3011 11.7129 26.7363 11.7129 26.7363C11.5739 26.9503 11.288 26.9038 11.207 26.6738L6.75586 11.9102Z" fill="black"/>
</g>
</svg>
