<svg width="32" height="32" viewBox="0 0 32 32" fill="none" xmlns="http://www.w3.org/2000/svg">
<g id="puzzle-piece-solid">
<path id="Vector" d="M17 3C14.7891 3 13 4.78906 13 7H7V12C4.78906 12 3 13.7891 3 16C3 18.2109 4.78906 20 7 20V25H13C13 27.2109 14.7891 29 17 29C19.2109 29 21 27.2109 21 25H27V18H25C23.8086 18 23 17.1914 23 16C23 14.8086 23.8086 14 25 14H27V7H21C21 4.78906 19.2109 3 17 3ZM17 5C18.1914 5 19 5.80859 19 7V9H25V12C22.7891 12 21 13.7891 21 16C21 18.2109 22.7891 20 25 20V23H19V25C19 26.1914 18.1914 27 17 27C15.8086 27 15 26.1914 15 25V23H9V18H7C5.80859 18 5 17.1914 5 16C5 14.8086 5.80859 14 7 14H9V9H15V7C15 5.80859 15.8086 5 17 5Z" fill="black"/>
</g>
</svg>
