<svg width="32" height="32" viewBox="0 0 32 32" fill="none" xmlns="http://www.w3.org/2000/svg">
<g id="python">
<path id="Vector" d="M16 5C11.0117 5 11 7 11 7V11H17V12H7C7 12 4 11.5391 4 17C4 22.4609 7 22 7 22H10V20.375C10 17.9648 11.9648 16 14.375 16H17.625C19.4844 16 21 15.4844 21 13.625V7C21 7 20.9883 5 16 5ZM13 7C13.5508 7 14 7.44922 14 8C14 8.55078 13.5508 9 13 9C12.4492 9 12 8.55078 12 8C12 7.44922 12.4492 7 13 7ZM22 11V13.625C22 16.0352 20.0352 17 17.625 17H14.375C12.5156 17 11 18.5156 11 20.375V26C11 26 11.0625 28 16 28C20.9375 28 21 26 21 26V22H15V21H25C25 21 28 21.5039 28 16C28 10.4961 25 11 25 11H22ZM19 24C19.5508 24 20 24.4492 20 25C20 25.5508 19.5508 26 19 26C18.4492 26 18 25.5508 18 25C18 24.4492 18.4492 24 19 24Z" fill="black"/>
</g>
</svg>
