<svg width="32" height="32" viewBox="0 0 32 32" fill="none" xmlns="http://www.w3.org/2000/svg">
<g id="qq">
<path id="Vector" d="M16 5.88672C22.0859 5.88672 22.3945 11.3242 22.7305 12.3945C22.7305 12.3945 23.2109 12.9297 23.3242 13.7461C23.3984 14.2734 23.0977 14.8711 23.0977 14.8711C23.0977 14.8711 25.043 17.4922 25.043 19.5508C25.043 20.8359 24.6641 21.5 24.2227 21.5C23.7773 21.5 23.1289 20.1406 23.1289 20.1406C23.1289 20.1406 22.1133 22.3086 21.6055 22.6211C21.0977 22.9297 23.4375 23.2695 23.4375 24.2812C23.4375 25.2969 21.5781 25.7461 20.0586 25.7461C18.5352 25.7461 16.1133 24.957 16.1133 24.957L15.2383 24.9297C15.2383 24.9297 14.5625 25.8867 11.7734 25.8867C8.98438 25.8867 7.77344 25.1289 7.77344 24.2266C7.77344 23.0117 9.55078 22.8477 9.55078 22.8477C9.55078 22.8477 8.41797 22.5312 7.46094 19.8516C7.46094 19.8516 6.79687 21.2969 5.85937 21.2969C5.85937 21.2969 5.46484 21.0625 5.46484 19.7461C5.46484 17.0234 7.42188 15.6953 8.26562 14.8789C8.26562 14.8789 8.125 14.5234 8.19922 14.082C8.28125 13.5898 8.57422 13.293 8.57422 13.293C8.57422 13.293 8.46484 12.7031 8.875 12.2266C8.95703 10.9023 9.91406 5.88672 16 5.88672ZM16 3.88672C9.60156 3.88672 7.33203 8.47656 6.92969 11.5547C6.73828 11.9297 6.62891 12.3164 6.58594 12.6797C6.43359 12.9688 6.29687 13.3242 6.22656 13.7461C6.20703 13.8516 6.19531 13.9609 6.1875 14.0625C5.07812 15.082 3.46484 16.8203 3.46484 19.7461C3.46484 21.7773 4.21094 22.6445 4.83984 23.0156L5.30859 23.2969H5.85937C5.875 23.2969 5.89062 23.2969 5.91016 23.2969C5.82031 23.582 5.77344 23.8906 5.77344 24.2266C5.77344 25.0859 6.20703 27.8906 11.7734 27.8906C13.8125 27.8906 15.0859 27.4492 15.8672 26.9766C16.6875 27.2227 18.6055 27.7461 20.0547 27.7461C23.3242 27.7461 25.4375 26.3867 25.4375 24.2812C25.4375 23.9062 25.3633 23.5742 25.2422 23.2773C26.207 22.8398 27.0391 21.7109 27.0391 19.5508C27.0391 17.6562 25.9922 15.668 25.2812 14.5352C25.3359 14.2109 25.3555 13.8477 25.3047 13.4727C25.1875 12.6328 24.8516 11.9648 24.582 11.5469C24.5742 11.5078 24.5664 11.4688 24.5586 11.4297C23.5117 6.42188 20.6289 3.88672 16 3.88672Z" fill="black"/>
</g>
</svg>
