<svg width="32" height="32" viewBox="0 0 32 32" fill="none" xmlns="http://www.w3.org/2000/svg">
<g id="qrcode-solid">
<path id="Vector" d="M5 5V13H7V15H9V13H13V5H5ZM13 13V15H15V17H11V19H5V27H13V19H19V17H17V15H21V13H23V15H25V13H27V5H19V13H13ZM25 15V17H27V15H25ZM25 17H23V19H25V17ZM25 19V21H27V19H25ZM25 21H23V19H21V21H16V27H18V23H22V25H24V23H25V21ZM22 25H20V27H22V25ZM23 17V15H21V17H23ZM11 17V15H9V17H11ZM7 15H5V17H7V15ZM15 5V9H14V11H15V12H17V9H18V7H17V5H15ZM7 7H11V11H7V7ZM21 7H25V11H21V7ZM8 8V10H10V8H8ZM22 8V10H24V8H22ZM7 21H11V25H7V21ZM8 22V24H10V22H8ZM25 25V27H27V25H25Z" fill="black"/>
</g>
</svg>
