<svg width="32" height="32" viewBox="0 0 32 32" fill="none" xmlns="http://www.w3.org/2000/svg">
<g id="question-solid">
<path id="Vector" d="M16 4C11.6719 4 8 7.05469 8 11V14H14V11C14 10.8516 14.0898 10.6367 14.4375 10.4062C14.7852 10.1758 15.3516 10 16 10C16.6523 10 17.2188 10.1758 17.5625 10.4062C17.9062 10.6367 18 10.8359 18 11C18 11.5781 17.8125 11.9805 17.4375 12.4375C17.0625 12.8945 16.4805 13.3672 15.8438 13.9062C14.5664 14.9883 13 16.4961 13 19V20H19V19C19 18.6602 19.125 18.4219 19.5 18.0312C19.875 17.6406 20.4961 17.1797 21.1562 16.625C22.4766 15.5156 24 13.8164 24 11C24 7.08984 20.3359 4 16 4ZM16 6C19.3945 6 22 8.36719 22 11C22 13.1445 21.0234 14.1016 19.8438 15.0938C19.2539 15.5898 18.625 16.0742 18.0625 16.6562C17.7148 17.0156 17.4453 17.4844 17.25 18H15.3125C15.625 16.9883 16.2344 16.2188 17.1562 15.4375C17.7695 14.9219 18.4375 14.3828 19 13.6875C19.5625 12.9922 20 12.082 20 11C20 10.0391 19.4297 9.24219 18.6875 8.75C17.9453 8.25781 17.0039 8 16 8C14.9922 8 14.0508 8.25781 13.3125 8.75C12.5742 9.24219 12 10.043 12 11V12H10V11C10 8.31641 12.5977 6 16 6ZM13 22V28H19V22H13ZM15 24H17V26H15V24Z" fill="black"/>
</g>
</svg>
