<svg width="32" height="32" viewBox="0 0 32 32" fill="none" xmlns="http://www.w3.org/2000/svg">
<g id="quidditch-solid">
<path id="Vector" d="M28.4023 5.20312L17.8398 13.1191L17.4102 12.5469H17.4062L16.3613 11.1602L14.7637 12.3633L15.1582 12.8867L10.6152 13.5703C8.57023 13.8953 6.75958 14.9875 5.51758 16.6445L3 20H4.69141C3.52741 21.447 2.68542 23.1352 2.23242 24.9492L1.7207 27H8.84375C12.3468 27 15.5043 24.7878 16.6973 21.5098L18.3613 17.1367L18.7188 17.6113L20.3145 16.4082L19.041 14.7168L29.6016 6.80273L28.4023 5.20312ZM16.5254 14.7012L16.9375 15.25L14.8223 20.8125C13.9103 23.3175 11.5087 25 8.84375 25H4.28906C4.80306 23.257 5.7462 21.6669 7.0332 20.3809L9.41211 18H7L7.11523 17.8438C8.04523 16.6047 9.40088 15.7889 10.9219 15.5469L16.5254 14.7012ZM23.5 20C21.57 20 20 21.57 20 23.5C20 25.43 21.57 27 23.5 27C25.43 27 27 25.43 27 23.5C27 21.57 25.43 20 23.5 20ZM23.5 22C24.327 22 25 22.673 25 23.5C25 24.327 24.327 25 23.5 25C22.673 25 22 24.327 22 23.5C22 22.673 22.673 22 23.5 22Z" fill="black"/>
</g>
</svg>
