<svg width="32" height="32" viewBox="0 0 32 32" fill="none" xmlns="http://www.w3.org/2000/svg">
<g id="quinscape">
<path id="Vector" d="M16 4C9.373 4 4 9.373 4 16C4 22.627 9.373 28 16 28C17.315 28 18.568 27.7641 19.75 27.3711C19.595 27.2501 19.4457 27.1242 19.3027 26.9902C15.2527 26.8842 12 23.575 12 19.5C12 15.358 15.358 12 19.5 12C23.575 12 26.8842 15.2527 26.9902 19.3027C27.1232 19.4467 27.2491 19.596 27.3711 19.75C27.7641 18.568 28 17.315 28 16C28 9.373 22.627 4 16 4ZM23 18C21.6739 18 20.4021 18.5268 19.4645 19.4645C18.5268 20.4021 18 21.6739 18 23C18 24.3261 18.5268 25.5979 19.4645 26.5355C20.4021 27.4732 21.6739 28 23 28C24.3261 28 25.5979 27.4732 26.5355 26.5355C27.4732 25.5979 28 24.3261 28 23C28 21.6739 27.4732 20.4021 26.5355 19.4645C25.5979 18.5268 24.3261 18 23 18Z" fill="black"/>
</g>
</svg>
