<svg width="32" height="32" viewBox="0 0 32 32" fill="none" xmlns="http://www.w3.org/2000/svg">
<g id="quora">
<path id="Vector" d="M15.4922 4C10.2012 4 5 8.23045 5 14.4395C5 21.5565 11.9688 26.1987 18.2148 24.4688C19.2608 26.2518 20.6386 28 23.2656 28C27.6066 28 28 24 28 23H26.4453C26.3653 23.716 25.8776 24.457 24.6836 24.457C23.5956 24.457 22.8106 23.7046 22.0566 22.5586C24.4026 20.7436 25.9492 17.9135 25.9492 14.4375C25.9542 8.2025 20.8942 4 15.4922 4ZM15.4922 6C19.5362 6 21.2617 8.90945 21.2617 14.4395C21.2667 16.6575 20.973 18.4505 20.373 19.7715C19.338 18.2215 18.0546 17.002 15.5176 17.002C13.8986 17.002 12.7927 17.4733 12.0117 18.1523L12.6582 19.4434C12.9872 19.2844 13.1937 19.2891 13.5547 19.2891C15.4387 19.2891 16.4046 20.925 17.2266 22.543C16.6956 22.702 16.1262 22.7656 15.4902 22.7656C11.5102 22.7656 9.78516 19.9522 9.78516 14.4492C9.78616 8.90822 11.5122 6 15.4922 6Z" fill="black"/>
</g>
</svg>
