<svg width="32" height="32" viewBox="0 0 32 32" fill="none" xmlns="http://www.w3.org/2000/svg">
<g id="quran-solid">
<path id="Vector" d="M8 3C6.35547 3 5 4.35547 5 6V26C5 27.6445 6.35547 29 8 29H27V3H8ZM8 5H25V23H8C7.64844 23 7.31641 23.0742 7 23.1875V6C7 5.43359 7.43359 5 8 5ZM8 6V22H24V6H8ZM10 8H22V20H10V8ZM16 9C15.4492 9 15 9.44922 15 10C15 10.5508 15.4492 11 16 11C16.5508 11 17 10.5508 17 10C17 9.44922 16.5508 9 16 9ZM16 11H13V17H19V11H16ZM19 14C19 14.5508 19.4492 15 20 15C20.5508 15 21 14.5508 21 14C21 13.4492 20.5508 13 20 13C19.4492 13 19 13.4492 19 14ZM16 17C15.4492 17 15 17.4492 15 18C15 18.5508 15.4492 19 16 19C16.5508 19 17 18.5508 17 18C17 17.4492 16.5508 17 16 17ZM13 14C13 13.4492 12.5508 13 12 13C11.4492 13 11 13.4492 11 14C11 14.5508 11.4492 15 12 15C12.5508 15 13 14.5508 13 14ZM15 13H17V15H15V13ZM8 25H25V27H8C7.43359 27 7 26.5664 7 26C7 25.4336 7.43359 25 8 25Z" fill="black"/>
</g>
</svg>
