<svg width="32" height="32" viewBox="0 0 32 32" fill="none" xmlns="http://www.w3.org/2000/svg">
<g id="r-project">
<path id="Vector" d="M16 5C8.268 5 2 9.253 2 14.5C2 19.285 7.21779 23.2327 14 23.8926V26H18V23.8926C19.3239 23.7638 20.5865 23.5122 21.7637 23.1504L23.3301 26H28L25.3008 21.5859C28.1781 19.8461 30 17.3212 30 14.5C30 9.253 23.732 5 16 5ZM17.5 8C23.299 8 28 11.134 28 15C28 17.1301 26.5681 19.0345 24.3164 20.3184C24.0893 20.1306 23.8391 19.9759 23.5664 19.8594C25.534 19.3785 27 17.6156 27 15.5C27 13.015 24.985 11 22.5 11H14V21.5938C9.92412 20.632 7 18.0468 7 15C7 11.134 11.701 8 17.5 8ZM18 14H21.5C22.328 14 23 14.672 23 15.5C23 16.328 22.328 17 21.5 17H18V14ZM18 20H19.1289C19.6869 20 20.1988 20.304 20.4668 20.793L20.918 21.6133C19.9964 21.825 19.0175 21.9504 18 21.9824V20Z" fill="black"/>
</g>
</svg>
