<svg width="32" height="32" viewBox="0 0 32 32" fill="none" xmlns="http://www.w3.org/2000/svg">
<g id="radiation-alt-solid">
<path id="Vector" d="M16 3C8.83203 3 3 8.83203 3 16C3 23.168 8.83203 29 16 29C23.168 29 29 23.168 29 16C29 8.83203 23.168 3 16 3ZM16 5C22.0859 5 27 9.91406 27 16C27 22.0859 22.0859 27 16 27C9.91406 27 5 22.0859 5 16C5 9.91406 9.91406 5 16 5ZM11.5 8.1875C8.80078 9.78906 7 12.6992 7 16H13.5C13.5 15.1016 14.0117 14.3125 14.8125 13.8125L11.5 8.1875ZM20.5 8.1875L17.3125 13.8125C18.1133 14.2109 18.5938 15 18.5938 16H25C25 12.6992 23.1992 9.78906 20.5 8.1875ZM10.9062 11.1875L12.1875 13.5C12.0859 13.6992 12.0078 13.8008 11.9062 14H9.3125C9.61328 13 10.207 11.9883 10.9062 11.1875ZM21.0938 11.1875C21.8945 11.9883 22.3867 13 22.6875 14H20.0938C19.9922 13.8008 19.9141 13.6016 19.8125 13.5L21.0938 11.1875ZM16 14.4062C15.1016 14.4062 14.4062 15.1016 14.4062 16C14.4062 16.8984 15.1016 17.5938 16 17.5938C16.8984 17.5938 17.5938 16.8984 17.5938 16C17.5938 15.1016 16.8984 14.4062 16 14.4062ZM14.6875 18.1875L11.5 23.8125C12.8008 24.6133 14.3984 25 16 25C17.6016 25 19.1992 24.6133 20.5 23.8125L17.3125 18.1875C16.9141 18.3867 16.5 18.5 16 18.5C15.5 18.5 15.0859 18.3867 14.6875 18.1875ZM15.6875 20.5H16.3125L17.5938 22.8125C17.0938 22.9141 16.5 23 16 23C15.5 23 14.9062 22.9141 14.4062 22.8125L15.6875 20.5Z" fill="black"/>
</g>
</svg>
