<svg width="32" height="32" viewBox="0 0 32 32" fill="none" xmlns="http://www.w3.org/2000/svg">
<g id="radiation-solid">
<path id="Vector" d="M9.16016 3.88867L8.2832 4.53516C5.2622 6.77316 3.35573 10.1949 3.05273 13.9199L2.96484 15H10.9375L11.0762 14.1621C11.2632 13.0351 11.842 11.9991 12.707 11.2441L13.3457 10.6875L9.16016 3.88867ZM22.8398 3.88867L18.6543 10.6875L19.293 11.2441C20.158 11.9981 20.7368 13.0351 20.9238 14.1621L21.0625 15H29.0352L28.9453 13.9199C28.6423 10.1949 26.7358 6.77316 23.7148 4.53516L22.8398 3.88867ZM8.62891 6.83789L10.7812 10.3398C10.0953 11.1058 9.58692 12.017 9.29492 13H5.18945C5.62445 10.631 6.83391 8.46489 8.62891 6.83789ZM23.3711 6.83789C25.1651 8.46489 26.3755 10.631 26.8105 13H22.7031C22.4111 12.017 21.9028 11.1058 21.2168 10.3398L23.3711 6.83789ZM16 12C14.346 12 13 13.3479 13 15.0039C13 16.6559 14.346 18 16 18C17.654 18 19 16.6559 19 15.0039C19 13.3479 17.654 12 16 12ZM16 14C16.551 14 17 14.4509 17 15.0039C17 15.5529 16.551 16 16 16C15.449 16 15 15.5529 15 15.0039C15 14.4509 15.449 14 16 14ZM13.3457 19.3066L9.17188 26.1094L10.1367 26.6016C11.9587 27.5296 13.932 28 16 28C18.068 28 20.0423 27.5296 21.8633 26.6016L22.8281 26.1094L18.6523 19.3066L17.8613 19.6387C16.7193 20.1187 15.2787 20.1187 14.1367 19.6387L13.3457 19.3066ZM14.1855 21.7637C15.3445 22.0767 16.6574 22.0767 17.8164 21.7637L19.9648 25.2637C17.4548 26.2417 14.5471 26.2417 12.0371 25.2637L14.1855 21.7637Z" fill="black"/>
</g>
</svg>
