<svg width="32" height="32" viewBox="0 0 32 32" fill="none" xmlns="http://www.w3.org/2000/svg">
<g id="rainbow-solid">
<path id="Vector" d="M16 5C8.28 5 2 11.28 2 19V27H4V19C4 12.383 9.383 7 16 7C22.617 7 28 12.383 28 19V27H30V19C30 11.28 23.72 5 16 5ZM16 9C10.486 9 6 13.486 6 19V27H8V19C8 14.589 11.589 11 16 11C20.411 11 24 14.589 24 19V27H26V19C26 13.486 21.514 9 16 9ZM16 13C12.691 13 10 15.691 10 19V27H12V19C12 16.794 13.794 15 16 15C18.206 15 20 16.794 20 19V27H22V19C22 15.691 19.309 13 16 13Z" fill="black"/>
</g>
</svg>
