<svg width="32" height="32" viewBox="0 0 32 32" fill="none" xmlns="http://www.w3.org/2000/svg">
<g id="raspberry-pi">
<path id="Vector" d="M24.3984 14.8007L24.1992 14.4999C24.1992 12.1015 23.1016 11.1991 21.8984 10.4999C22.3008 10.3984 22.6992 10.3007 22.8008 9.8007C23.5 9.60148 23.6016 9.3007 23.6992 8.99992C23.8984 8.89836 24.3984 8.60148 24.3984 7.99992C24.6992 7.8007 24.8984 7.49992 24.8008 7.10148C25.1016 6.69914 25.1992 6.39836 25.1016 6.10148C25.5 5.60148 25.3008 5.3007 25.1992 4.99992C25.5 4.39836 25.1992 3.8007 24.3984 3.89836C24.1016 3.39836 23.3008 3.49992 23.1992 3.49992C23.1016 3.3007 22.8984 3.19914 22.3984 3.3007C21.8984 2.99992 21.5 2.99992 21.1016 3.19914C20.6016 2.8007 20.3008 3.10148 20 3.19914C19.3984 2.99992 19.3008 3.3007 19 3.39836C18.3984 3.3007 18.1992 3.60148 17.8984 3.89836H17.6016C16.6992 4.39836 16.1992 5.60148 16 6.10148C15.8008 5.49992 15.3984 4.39836 14.3984 3.89836H14.1016C13.8008 3.60148 13.6016 3.3007 13 3.39836C12.6992 3.3007 12.6016 2.99992 12 3.19914C11.8008 3.10148 11.6016 2.99992 11.3008 2.99992C11.1992 2.99992 11.1016 3.10148 10.8984 3.19914C10.5 2.99992 10.1016 2.99992 9.80078 3.3007C9.30078 3.19914 9.10156 3.39836 9 3.49992C8.89844 3.49992 8.10156 3.39836 7.80078 3.89836C6.89844 3.8007 6.60156 4.39836 6.89844 4.99992C6.69922 5.3007 6.60156 5.49992 7 6.10148C6.80078 6.3007 6.89844 6.69914 7.30078 6.99992C7.19922 7.39836 7.30078 7.69914 7.69922 7.99992C7.60156 8.49992 8.19922 8.8007 8.30078 8.99992C8.39844 9.3007 8.5 9.60148 9.19922 9.8007C9.30078 10.3007 9.69922 10.3984 10.1016 10.4999C8.80078 11.1991 7.80078 12.1991 7.80078 14.4999L7.60156 14.8007C6.19922 15.6991 4.89844 18.4999 6.89844 20.8007C7 21.4999 7.19922 21.9999 7.39844 22.6015C7.69922 24.8984 9.60156 25.9999 10.1016 26.1015C10.8008 26.6991 11.6016 27.1991 12.6992 27.6015C13.6992 28.6015 14.8008 28.9999 15.8984 28.9999C17 28.9999 18.1016 28.6015 19.1016 27.6015C20.1992 27.1991 21 26.6991 21.6992 26.1015C22.1992 25.9999 24.1016 24.8984 24.3984 22.6015C24.6016 21.9999 24.8008 21.4999 25 20.8007C27.1992 18.4999 25.8984 15.6991 24.3984 14.8007ZM23.1016 14.3984C23 15.3984 18.1992 11.1015 19 10.9999C21.3008 10.6015 23.1992 11.8984 23.1016 14.3984ZM17.8008 4.49992C17.8008 4.69914 17.8984 4.8007 17.8984 4.89836C18.1992 4.60148 18.3984 4.3007 18.6992 3.99992C18.6992 4.19914 18.6016 4.3007 18.8008 4.49992C19 4.19914 19.1992 3.99992 19.6016 3.8007C19.3984 4.10148 19.6016 4.19914 19.6992 4.3007C20 4.10148 20.1992 3.89836 20.6992 3.69914C20.6016 3.89836 20.3984 3.99992 20.6016 4.19914C20.8984 3.99992 21.1016 3.89836 21.8008 3.69914C21.6992 3.89836 21.3984 3.99992 21.5 4.19914C21.8008 4.10148 22.1992 3.99992 22.6016 3.89836C22.3984 4.10148 22.1992 4.19914 22.3984 4.3007C22.8008 4.19914 23.1992 3.99992 23.6992 4.19914L23.3984 4.49992C23.3984 4.49992 24.1016 4.49992 24.6016 4.49992C24.3984 4.8007 24.1992 4.99992 24.1016 5.39836C24.1016 5.39836 24.3984 5.39836 24.6016 5.39836C24.3984 5.99992 24 6.10148 23.8984 6.3007C24 6.39836 24.1992 6.39836 24.5 6.3007C24.3008 6.69914 24 6.89836 23.6992 7.19914C23.8008 7.3007 23.8984 7.3007 24.1992 7.19914C23.8984 7.49992 23.6016 7.69914 23.3008 7.99992C23.3984 8.10148 23.6016 8.10148 23.8008 8.10148C23.5 8.39836 23 8.60148 22.6016 8.8007C22.6992 8.99992 22.8984 8.89836 23 8.89836C22.6992 9.10148 22.1992 9.3007 21.8008 9.39836C21.8984 9.49992 22 9.60148 22.1992 9.60148C21.6992 9.89836 21 9.69914 20.8008 9.89836C20.8008 9.99992 21 10.1015 21.1016 10.1991C20.3008 10.1991 18.1992 10.1991 17.8008 8.60148C18.6016 7.69914 20 6.69914 22.5 5.39836C20.6016 6.10148 18.8008 6.89836 17.3984 8.10148C15.8008 7.3007 16.8984 5.3007 17.8008 4.49992ZM16 10.3007C17.1992 10.3007 18.6992 11.1991 18.6992 12.1015C18.6992 12.8984 17.6016 13.4999 16 13.4999C14.3984 13.4999 13.3008 12.6991 13.3008 11.9999C13.3008 11.3007 14.6016 10.3007 16 10.3007ZM9.89844 9.69914C10.1016 9.69914 10.1992 9.60148 10.3008 9.49992C9.80078 9.3007 9.30078 9.19914 9 8.89836C9.19922 8.89836 9.30078 8.89836 9.5 8.8007C9.10156 8.60148 8.69922 8.39836 8.30078 8.10148C8.5 8.10148 8.69922 8.10148 8.80078 7.99992C8.5 7.8007 8.19922 7.49992 7.89844 7.3007C8.19922 7.3007 8.30078 7.3007 8.39844 7.3007C8.10156 6.89836 7.80078 6.69914 7.60156 6.3007C7.80078 6.39836 8 6.39836 8.19922 6.3007C8.10156 6.10148 7.60156 5.99992 7.39844 5.49992C7.60156 5.49992 7.89844 5.49992 7.89844 5.49992C7.80078 5.10148 7.60156 4.8007 7.5 4.60148C8 4.60148 8.69922 4.60148 8.69922 4.60148L8.39844 4.19914C8.89844 4.10148 9.39844 4.19914 9.69922 4.3007C9.89844 4.19914 9.69922 3.99992 9.5 3.89836C9.89844 3.99992 10.3008 4.10148 10.6016 4.19914C10.8008 3.99992 10.5 3.89836 10.3008 3.69914C11 3.8007 11.1992 3.99992 11.5 4.19914C11.6992 3.99992 11.5 3.89836 11.3984 3.69914C11.8984 3.89836 12.1016 4.10148 12.3984 4.3007C12.5 4.19914 12.6016 4.10148 12.5 3.8007C12.6992 3.99992 13 4.19914 13.1992 4.49992C13.3984 4.39836 13.3008 4.19914 13.3008 3.99992C13.6016 4.3007 13.8984 4.60148 14.1016 4.89836C14.1992 4.89836 14.1992 4.69914 14.1992 4.49992C15 5.3007 16.1992 7.3007 14.5 8.10148C13.1016 6.89836 11.3008 5.99992 9.39844 5.39836C11.8984 6.69914 13.3008 7.69914 14.1016 8.60148C13.6992 10.1991 11.6016 10.3007 10.8008 10.1991C11 10.1015 11.1016 9.99992 11.1016 9.89836C11 9.8007 10.3984 9.89836 9.89844 9.69914ZM12.6992 10.8984C13.5 10.9999 8.69922 15.3007 8.60156 14.3007C8.5 11.8984 10.3984 10.4999 12.6992 10.8984ZM7.60156 20.3984C6.39844 19.3984 6 16.6991 8.19922 15.3984C9.5 14.9999 8.69922 20.8007 7.60156 20.3984ZM12.1992 25.3984C11.5 25.8007 9.89844 25.6015 8.80078 23.9999C8 22.6015 8.10156 21.1991 8.69922 20.8007C9.5 20.3007 10.8008 20.9999 11.6992 22.1015C12.5 22.9999 12.8984 24.8007 12.1992 25.3984ZM10.8984 19.3007C9.69922 18.4999 9.5 16.6991 10.3984 15.1991C11.3984 13.8007 13.1016 13.1991 14.3008 13.9999C15.5 14.8007 15.6992 16.6015 14.8008 18.1015C13.8984 19.6015 12.1016 20.1015 10.8984 19.3007ZM16 28.1991C14.5 28.3007 13.1016 26.9999 13.1016 26.6015C13.1016 25.9999 14.8984 25.4999 16.1016 25.4999C17.3008 25.3984 18.8984 25.8984 18.8984 26.4999C18.8984 26.8984 17.3984 28.1991 16 28.1991ZM19 21.8007C19 23.3007 17.6992 24.4999 16.1016 24.4999C14.5 24.4999 13.1016 23.3007 13.1016 21.8007C13.1016 20.3007 14.3984 19.1015 16 19.1015C17.6992 19.1015 19 20.3007 19 21.8007ZM17.1992 17.9999C16.1992 16.6015 16.5 14.6991 17.6992 13.8984C18.8984 13.1015 20.6992 13.6015 21.6016 15.1015C22.5 16.6015 22.3008 18.3984 21.1016 19.1991C19.8984 19.8984 18.1016 19.3984 17.1992 17.9999ZM23.1992 23.9999C21.8984 25.8007 20.1992 25.8007 19.6016 25.3007C18.8984 24.6991 19.3984 22.6991 20.3984 21.6015C21.3984 20.3984 22.6016 19.6015 23.3008 20.1991C23.8008 20.8984 24.1016 22.8007 23.1992 23.9999ZM24.1016 20.3007C23 20.8007 22.1016 14.9999 23.5 15.3007C25.6992 16.4999 25.3008 19.3007 24.1016 20.3007Z" fill="black"/>
</g>
</svg>
