<svg width="32" height="32" viewBox="0 0 32 32" fill="none" xmlns="http://www.w3.org/2000/svg">
<g id="ravelry">
<path id="Vector" d="M17.1152 4.01174C15.0844 4.10299 13.061 4.70132 11.0215 5.65432C10.4065 5.93732 10.1775 6.23148 9.9375 6.68948C9.3765 7.73548 9.05552 8.72562 8.85352 9.55862C7.69852 10.9526 6.87014 12.6141 6.49414 14.4551C5.91714 15.4351 5.35633 16.7098 5.23633 18.3438C5.23633 18.3438 5.19994 18.7575 5.21094 18.7735C3.28794 18.5225 1.06055 17.6074 1.06055 17.6074C1.55655 18.3974 4.39884 19.0622 5.21484 19.3672C5.21484 19.3672 5.30852 24.7037 8.72852 26.5117C8.11352 25.5747 8.00391 25.4121 8.00391 25.4121C8.00391 25.4121 6.22234 22.1542 6.52734 19.7422C6.56534 19.7422 6.61044 19.7539 6.64844 19.7539C7.95044 24.5139 12.2681 28 17.3711 28C17.7091 28 18.0306 27.9899 18.3516 27.9629C19.1136 28.0449 19.8542 27.989 20.5352 27.75C20.9112 27.63 21.2887 27.4011 21.6367 27.1621C25.4597 25.0331 27.1308 22.6952 28.3398 19.1172C28.6338 18.2462 28.78 17.1854 28.873 16.2754C29.347 11.7924 27.208 7.47223 23.248 5.40823C21.184 4.33523 19.1461 3.92049 17.1152 4.01174ZM17.3887 6.17776C23.1837 6.17776 27.8984 10.9225 27.8984 16.7715C27.8884 20.9095 25.513 24.5041 22.082 26.2461C21.292 26.5021 20.1106 26.7023 18.5586 26.4473C18.5586 26.4473 13.5982 25.1892 11.6152 20.5762C13.6952 20.6142 14.4693 20.5663 15.8633 20.3653C18.0093 20.0553 20.166 19.4834 22.127 18.5684C22.77 18.2744 22.7304 17.5113 22.6484 16.9453C22.5394 16.2483 22.0444 16.2865 21.4844 16.6895C21.4844 16.6895 17.0175 19.8793 11.1465 19.6133C10.1285 17.8703 9.6875 13.5801 9.6875 13.5801C11.9425 11.6631 14.2174 10.3346 18.8574 10.7266C18.8684 10.3776 19.0201 9.24934 17.7461 9.19534C17.7461 9.19534 12.6559 8.59056 9.79688 11.0196C9.93287 10.1206 10.1164 9.42307 10.4004 8.87307C12.2634 7.19607 14.7037 6.17776 17.3887 6.17776ZM8.61914 10.9473C8.61914 10.9473 8.55503 11.6185 8.58203 12.0215C8.39703 12.1575 8.0328 12.4627 7.5918 12.9317C7.8748 12.2337 8.20514 11.5623 8.61914 10.9473ZM8.54492 14.586C8.54492 14.586 8.6373 17.1992 9.4043 19.4922L7.14844 19.1172C7.02944 18.6162 6.95988 18.1109 6.92188 17.5879C7.16187 16.6509 7.64592 15.458 8.54492 14.586ZM7.35156 19.918C8.15756 20.092 9.20227 20.3321 9.69727 20.4141C11.1843 24.5971 15.5957 27.1836 15.5957 27.1836C15.6497 27.2106 15.6882 27.2223 15.7422 27.2383C11.7612 26.6063 8.51656 23.714 7.35156 19.918Z" fill="black"/>
</g>
</svg>
