<svg width="32" height="32" viewBox="0 0 32 32" fill="none" xmlns="http://www.w3.org/2000/svg">
<g id="reacteurope">
<path id="Vector" d="M21.1074 4.33786C19.6738 4.37775 17.9103 5.41938 16.123 7.16013C16.278 7.31013 16.4329 7.46497 16.5879 7.62497C20.3469 3.97997 22.0387 5.18672 22.0977 5.21872C23.1187 5.79772 23.7367 7.76202 22.8027 11.498C21.5337 11.207 20.2453 11.0092 18.9473 10.9062C15.6713 6.32722 12.5425 4.42966 10.6465 4.42966C9.24348 4.42966 8.64956 5.38633 8.47656 5.69333C7.65156 7.15133 7.87142 9.52904 8.48242 11.789C5.27042 12.714 2.98295 14.2551 3.00195 16.1191C3.02495 18.8351 7.70345 20.1206 8.56445 20.3476C7.63045 24.0796 8.10407 26.5263 9.58007 27.3593C10.8561 28.0793 13.0019 27.6317 15.8769 24.8437C15.7219 24.6937 15.5671 24.5389 15.4121 24.3789C11.6531 28.0239 9.95734 26.8171 9.90234 26.7851C8.88634 26.2111 8.26326 24.2519 9.19726 20.5019C9.76226 20.6339 11.1027 20.9347 13.0527 21.0937C16.3287 25.6687 19.4586 27.5644 21.3496 27.5644C22.7526 27.5644 23.3446 26.6077 23.5176 26.3027C24.3376 24.8487 24.1247 22.4701 23.5137 20.2051C30.4537 18.2091 30.6306 14.2718 25.0586 12.1718V12.1699C24.5266 11.9709 23.9845 11.7983 23.4355 11.6543C24.3285 8.10027 23.9649 5.51655 22.4199 4.64255C22.0269 4.42205 21.5853 4.32457 21.1074 4.33786ZM10.6465 5.09177C12.3235 5.09177 15.1489 6.89577 18.0879 10.8418C16.6619 10.7618 15.2326 10.7748 13.8086 10.8828C14.3996 10.0478 15.0415 9.25011 15.7305 8.49411C15.5755 8.33511 15.4206 8.17932 15.2656 8.02732C14.4296 8.94832 13.6571 9.92515 12.9551 10.9511C11.6581 11.0761 10.3734 11.2992 9.10937 11.6172C9.10037 11.5532 8.00268 7.87265 9.05468 6.01365L9.05664 6.0156C9.18864 5.7836 9.59848 5.09177 10.6465 5.09177ZM15.9551 11.3593C16.8093 11.3517 17.6651 11.378 18.5176 11.4375C19.9526 13.4695 19.8331 13.6299 20.4531 14.3769C20.5731 14.2189 20.7387 14.1 20.9277 14.039C20.6357 13.52 20.1262 12.6257 19.3652 11.5097C21.2062 11.6967 22.3263 11.9659 22.6543 12.0429C22.4723 12.6989 22.2492 13.3726 21.9902 14.0566C22.1052 14.1006 22.2108 14.1689 22.3008 14.2539L22.3047 14.2578C22.3967 14.1178 22.5449 14.0259 22.7109 14.0039C22.9339 13.3929 23.1309 12.7911 23.2949 12.2031C23.8269 12.3441 24.3502 12.5101 24.8652 12.7031C29.6992 14.5211 28.2378 16.7082 28.1738 16.8222C27.2718 18.4222 24.5244 19.3388 23.3574 19.6718C23.1934 19.1298 23.007 18.5746 22.793 18.0136C22.597 18.0156 22.4127 17.9179 22.3047 17.7539L22.3008 17.7578C22.2288 17.8258 22.1457 17.8808 22.0547 17.9218C22.3147 18.5738 22.5376 19.2167 22.7246 19.8457C21.6456 20.1177 20.5494 20.3155 19.4434 20.4375C19.6024 20.1965 20.2272 19.2428 20.9102 17.9668C20.8132 17.9308 20.7207 17.8813 20.6367 17.8203C20.5867 17.8753 20.4736 18.0117 20.1406 18.0117C19.8576 18.5217 19.3477 19.4203 18.5957 20.5273C16.8927 20.6773 15.1796 20.6912 13.4746 20.5722C13.1146 20.0622 12.4939 19.1564 11.7969 17.9394C11.7499 17.9204 11.7042 17.8971 11.6602 17.8711C11.5732 17.9441 11.4819 18.0176 11.0859 18.0176C11.3729 18.5276 11.8839 19.4168 12.6269 20.5058C11.5199 20.4018 10.4199 20.2236 9.33593 19.9726C9.51393 19.3346 9.72851 18.6836 9.97851 18.0176C9.83251 18.0176 9.7327 18.0257 9.5957 17.9707C9.4947 18.0067 9.38725 18.0236 9.28125 18.0176C9.05825 18.6286 8.86517 19.2245 8.70117 19.8125C1.41517 17.8695 2.30976 14.1788 8.63476 12.3398C8.79876 12.8818 8.98521 13.437 9.19921 13.998C9.67321 13.998 9.78746 14.1523 9.85546 14.2383C9.88546 14.2003 9.92193 14.1666 9.96093 14.1386C9.69693 13.4686 9.46357 12.809 9.26757 12.166C9.58657 12.084 10.7438 11.7832 12.5488 11.5742C11.8248 12.6812 11.3307 13.5737 11.0527 14.0937C11.1917 14.1747 11.2967 14.305 11.3457 14.459C11.4607 14.289 11.6215 14.1571 11.8105 14.0761C12.1065 13.5431 12.6265 12.6214 13.3965 11.4824C14.248 11.4074 15.1008 11.367 15.9551 11.3593ZM16 12.7754L15.8945 13.0859L15.5703 13.0918L15.8301 13.2871L15.7344 13.5976L16 13.4101L16.2637 13.5976L16.168 13.2871L16.4277 13.0918L16.1035 13.0859L16 12.7754ZM14.5449 13.164L14.4394 13.4746L14.1113 13.4785L14.3711 13.6758L14.2812 13.9843L14.5469 13.7988L14.8105 13.9843L14.7148 13.6758L14.9746 13.4785L14.6504 13.4746L14.5449 13.164ZM17.4434 13.164L17.3379 13.4746L17.0098 13.4785L17.2695 13.6758L17.1836 13.9843L17.4473 13.7988L17.7129 13.9843L17.6152 13.6758L17.8769 13.4785L17.5488 13.4746L17.4434 13.164ZM21.4121 14.4433C20.9521 14.4433 20.7168 14.6579 20.7168 15.0859V16.9121C20.7168 17.3361 20.9521 17.5547 21.4121 17.5547H21.4492C21.9092 17.5547 22.1465 17.3351 22.1465 16.9121V15.0859C22.1465 14.6599 21.9092 14.4453 21.4492 14.4453V14.4433H21.4121ZM12.4238 14.4453C11.9638 14.4453 11.6582 14.6369 11.6582 15.0879V16.9121C11.6582 17.3861 11.9638 17.5547 12.4238 17.5547H12.4316C12.8916 17.5547 13.1973 17.3811 13.1973 16.9121C13.1983 16.4631 13.2474 16.2851 13.0234 16.2851H12.8691C12.6501 16.2851 12.6953 16.4689 12.6953 16.8379C12.6953 17.0519 12.5906 17.1152 12.4316 17.1152C12.2726 17.1152 12.168 17.0519 12.168 16.8379V15.1699C12.168 14.9559 12.2726 14.8926 12.4316 14.8926C12.5906 14.8926 12.6953 14.9559 12.6953 15.1699C12.6953 15.4979 12.6641 15.6484 12.8691 15.6484H13.0234C13.2374 15.6434 13.1973 15.4699 13.1973 15.0879C13.1973 14.6369 12.8916 14.4453 12.4316 14.4453H12.4238ZM16.9414 14.4765C16.8964 14.4715 16.8566 14.5058 16.8516 14.5508C16.8516 14.5548 16.8506 14.5585 16.8516 14.5625V16.9101C16.8516 17.3471 17.0791 17.5527 17.5391 17.5527H17.5566C18.0166 17.5527 18.2441 17.3421 18.2441 16.9101V14.5625C18.2421 14.5125 18.2004 14.4745 18.1504 14.4765C18.1494 14.4775 18.1485 14.4775 18.1465 14.4785H18.0918C18.0478 14.4745 18.0089 14.5058 18.0039 14.5488V14.5644V16.832C18.0039 17.192 17.8869 17.3398 17.5449 17.3398C17.2029 17.3398 17.084 17.197 17.084 16.832V14.5644C17.09 14.5224 17.0596 14.4825 17.0176 14.4765C17.0106 14.4755 17.0031 14.4755 16.9961 14.4765H16.9414ZM10.3789 14.4804C10.2869 14.4724 10.2033 14.5408 10.1953 14.6328V14.6347L9.69531 17.332C9.67231 17.455 9.7356 17.5195 9.8496 17.5195H9.98632C10.0803 17.5285 10.1648 17.4592 10.1738 17.3652C10.1738 17.3632 10.1728 17.3623 10.1738 17.3593L10.2559 16.8437H10.8125L10.8945 17.3593C10.9005 17.4533 10.9802 17.5255 11.0742 17.5195C11.0762 17.5195 11.0771 17.5186 11.0801 17.5176H11.2402C11.3582 17.5176 11.4175 17.4531 11.3945 17.3301L10.8828 14.6347C10.8728 14.5387 10.7864 14.4704 10.6914 14.4804H10.3789ZM13.5566 14.4804C13.4426 14.4804 13.3848 14.5383 13.3848 14.6523V14.748C13.3848 14.862 13.4426 14.9218 13.5566 14.9218H13.8906V17.3457C13.8906 17.4597 13.9485 17.5195 14.0625 17.5195H14.2187C14.3327 17.5215 14.3906 17.4596 14.3906 17.3476V17.3457V14.9218H14.7324C14.8464 14.9218 14.9062 14.862 14.9062 14.748V14.6523C14.9062 14.5383 14.8464 14.4804 14.7324 14.4804H13.5566ZM15.3105 14.4804C15.2655 14.4754 15.2257 14.5077 15.2207 14.5527C15.2207 14.5567 15.2197 14.5624 15.2207 14.5664V17.4375C15.2177 17.4825 15.2528 17.5204 15.2988 17.5234H15.3105H16.3359C16.3799 17.5294 16.4217 17.4991 16.4277 17.4551C16.4287 17.4491 16.4287 17.4425 16.4277 17.4375V17.4023C16.4337 17.3563 16.4015 17.3146 16.3555 17.3086C16.3495 17.3076 16.3419 17.3076 16.3359 17.3086V17.3047H15.4531V16.0879H16.1875C16.2345 16.0909 16.2743 16.0558 16.2773 16.0078V15.9961V15.9609C16.2803 15.9139 16.2453 15.8721 16.1973 15.8691H16.1875H15.4531V14.6933H16.3223C16.3693 14.6963 16.4111 14.6613 16.4141 14.6133V14.6035V14.5664C16.4181 14.5224 16.3848 14.4844 16.3398 14.4804H16.3223H15.3105ZM18.8926 14.4804C18.8476 14.4754 18.8077 14.5097 18.8027 14.5547C18.8027 14.5587 18.8017 14.5624 18.8027 14.5664V17.4375C18.7997 17.4825 18.8349 17.5224 18.8809 17.5254H18.8926H18.9473C18.9913 17.5294 19.0302 17.4961 19.0352 17.4531V17.4394V16.2129H19.5644L20.0371 17.4511C20.0531 17.4941 20.0966 17.5225 20.1426 17.5195H20.2109C20.2749 17.5195 20.3023 17.473 20.2793 17.414L19.7949 16.1718C20.0729 16.0988 20.2148 15.8924 20.2148 15.5644V15.123C20.2148 14.695 19.9776 14.4804 19.5176 14.4804H18.8926ZM8.3457 14.4824C8.2367 14.4774 8.17578 14.5403 8.17578 14.6543V17.3476C8.17578 17.4616 8.2356 17.5215 8.3496 17.5215H9.34765C9.46165 17.5215 9.51953 17.4616 9.51953 17.3476V17.2519C9.51953 17.1389 9.46165 17.0781 9.34765 17.0781H8.67773V16.1992H9.19531C9.30931 16.1992 9.36914 16.1413 9.36914 16.0273V15.9316C9.36914 15.8176 9.30931 15.7578 9.19531 15.7578H8.67773V14.9238H9.33203C9.44603 14.9238 9.50585 14.8659 9.50585 14.7519V14.6543C9.50585 14.5403 9.44603 14.4824 9.33203 14.4824H8.3457ZM22.7949 14.4843C22.7549 14.4743 22.7131 14.499 22.7031 14.539C22.7011 14.548 22.7002 14.5583 22.7012 14.5683V17.4394C22.6982 17.4844 22.7333 17.5224 22.7793 17.5254H22.793H22.8477C22.8917 17.5294 22.9305 17.4981 22.9355 17.4551V17.4394V16.2519H23.418C23.878 16.2519 24.1152 16.0323 24.1152 15.6093V15.1308C24.1152 14.6988 23.878 14.4843 23.418 14.4843H22.7949ZM24.6641 14.4843C24.6241 14.4743 24.5842 14.499 24.5742 14.539C24.5722 14.548 24.5713 14.5583 24.5723 14.5683V17.4394C24.5693 17.4844 24.6044 17.5224 24.6504 17.5254H24.6641H25.6894C25.7344 17.5304 25.7743 17.4981 25.7793 17.4531C25.7793 17.4491 25.7803 17.4434 25.7793 17.4394V17.4043C25.7823 17.3583 25.7472 17.3174 25.7012 17.3144H25.6894V17.3105H24.8066V16.0937H25.541C25.588 16.0967 25.6298 16.0597 25.6328 16.0117V16.0019V15.9668C25.6358 15.9198 25.5988 15.878 25.5508 15.875H25.541H24.8066V14.6992H25.6777C25.7247 14.7022 25.7646 14.6652 25.7676 14.6172V14.6074V14.5722C25.7716 14.5282 25.7384 14.4883 25.6934 14.4843H25.6777H24.6641ZM6.39062 14.4863C6.27662 14.4863 6.21679 14.5461 6.21679 14.6601V17.3535C6.21679 17.4675 6.27662 17.5254 6.39062 17.5254H6.54492C6.65892 17.5254 6.71875 17.4675 6.71875 17.3535V16.3105H6.97265L7.31054 17.3808C7.33054 17.4708 7.41285 17.5343 7.50585 17.5273H7.65625C7.78425 17.5273 7.83873 17.4441 7.80273 17.3261L7.43359 16.2363C7.64359 16.1453 7.76757 15.9638 7.76757 15.6718V15.1289C7.76757 14.6689 7.46195 14.4863 7.00195 14.4863H6.39062ZM21.4355 14.6562C21.7765 14.6562 21.9141 14.8021 21.9141 15.1621V16.8301C21.9091 17.1951 21.7765 17.3379 21.4355 17.3379C21.0945 17.3379 20.957 17.1951 20.957 16.8301V15.1621C20.957 14.8021 21.0945 14.6562 21.4355 14.6562ZM19.0391 14.6933H19.5039C19.8459 14.6933 19.9824 14.8342 19.9824 15.1992V15.4922C19.9824 15.8492 19.8449 15.9941 19.5039 15.9941V15.9922H19.0391V14.6933ZM22.9394 14.6992H23.4043C23.7463 14.6942 23.8828 14.8411 23.8828 15.2011V15.5234C23.8828 15.8834 23.7453 16.0293 23.4043 16.0293H22.9394V14.6992ZM6.71875 14.9238H6.98242C7.14642 14.9238 7.25976 14.9821 7.25976 15.2011V15.5976C7.25976 15.8166 7.14642 15.8769 6.98242 15.8769H6.71875V14.9238ZM10.5352 15.0722L10.75 16.4258H10.3223L10.5352 15.0722ZM14.582 18.0625L14.4766 18.3711L14.1523 18.3769L14.4121 18.5722L14.3164 18.8828L14.5801 18.6953L14.8457 18.8828L14.748 18.5722L15.0098 18.3769L14.6875 18.3711L14.582 18.0625ZM17.418 18.0625L17.3125 18.3711L16.9883 18.3769L17.248 18.5722L17.1523 18.8828L17.416 18.6953L17.6797 18.8828L17.584 18.5722L17.8437 18.3769L17.5215 18.3711L17.418 18.0625ZM16 18.3984L15.8945 18.709L15.5703 18.7148L15.8301 18.9101L15.7344 19.2207L16 19.0312L16.2637 19.2187L16.168 18.9082L16.4277 18.7129L16.1055 18.709L16 18.3984ZM22.8906 20.3847C23.9236 24.2287 23.0934 25.7133 22.9434 25.9863C22.8114 26.2183 22.4055 26.9121 21.3535 26.9121C19.6815 26.9121 16.8561 25.1171 13.9121 21.1621C15.3371 21.2451 16.7674 21.2311 18.1914 21.1211C17.6004 21.9561 16.9585 22.7537 16.2695 23.5097C16.4245 23.6687 16.5794 23.8236 16.7344 23.9746C17.5714 23.0546 18.3439 22.0758 19.0449 21.0488C21.1999 20.8348 22.7036 20.4347 22.8906 20.3847Z" fill="black"/>
</g>
</svg>
