<svg width="32" height="32" viewBox="0 0 32 32" fill="none" xmlns="http://www.w3.org/2000/svg">
<g id="readme">
<path id="Vector" d="M5 6C3.346 6 2 7.346 2 9V21C2 22.654 3.346 24 5 24L11.1836 23.9805C12.1736 23.9805 13.133 24.2908 13.957 24.8398L16 26.2012L18.043 24.8398C18.867 24.2908 19.8264 24 20.8164 24H27C28.654 24 30 22.654 30 21V9C30 7.346 28.654 6 27 6H20.8164C19.4304 6 18.0866 6.40778 16.9336 7.17578L16 7.79883L15.0664 7.17578C13.9124 6.40678 12.5706 6 11.1836 6H5ZM5 8H11.1836C12.1736 8 13.133 8.29084 13.957 8.83984L16 10.2012L18.043 8.83984C18.867 8.29084 19.8264 8 20.8164 8H27C27.552 8 28 8.449 28 9V21C28 21.551 27.552 22 27 22H20.8164C19.4304 22 18.0866 22.4078 16.9336 23.1758L16 23.7988L15.0664 23.1758C13.9124 22.4068 12.5706 22 11.1836 22H5C4.448 22 4 21.551 4 21V9C4 8.449 4.448 8 5 8ZM6 12V14H14V12H6ZM18 12V14H26V12H18ZM6 16V18H14V16H6ZM18 16V18H26V16H18Z" fill="black"/>
</g>
</svg>
