<svg width="32" height="32" viewBox="0 0 32 32" fill="none" xmlns="http://www.w3.org/2000/svg">
<g id="rebel">
<path id="Vector" d="M16 4C8.75 4 4 10.043 4 15.9727C4 22.6055 9.38281 28 16 28C22.6172 28 28 22.6055 28 15.9727C28 10.043 23.2539 4 16 4ZM16 26C10.4766 26 6 21.5117 6 15.9727C6 11.1797 9.35547 7.17188 13.8398 6.17969C10.5625 8.04297 9.63672 10.6758 9.34766 12.4883C8.97656 14.8203 9.96875 17.3203 11.8555 17.6367C12.0039 17.6602 12.1406 17.6719 12.2773 17.6719C13.9336 17.6719 14.7969 15.9453 14.9219 14.9688C15.0742 13.7891 14.5742 12.5469 13.8984 11.6836C13.5352 11.2188 13.0117 10.5938 12.2617 10.0391L13.3945 8.80078C13.9219 9.14453 14.3359 9.73047 14.5391 10.1719C14.5391 10.1719 14.5547 9.72656 14.4609 9.38281C14.3398 8.92969 14.1719 8.58594 14.0859 8.43359C14.0312 8.33984 13.9844 8.26562 13.9414 8.20312L16 5.94531L18.0625 8.19922C18.0156 8.26562 17.9687 8.33984 17.9141 8.42969C17.8281 8.58594 17.6602 8.92969 17.5391 9.38281C17.4453 9.72656 17.4609 10.1719 17.4609 10.1719C17.6641 9.73047 18.0781 9.14062 18.6094 8.80078L19.7383 10.0352C18.9883 10.5898 18.4648 11.2148 18.1016 11.6797C17.4219 12.5469 16.9258 13.7852 17.0781 14.9688C17.2031 15.9453 18.0664 17.668 19.7227 17.668C19.8555 17.668 19.9961 17.6562 20.1445 17.6328C22.0312 17.3164 23.0195 14.8203 22.6484 12.4883C22.3633 10.6758 21.4375 8.04297 18.1641 6.17969C22.6484 7.17188 26 11.1797 26 15.9727C26 21.5117 21.5234 26 16 26ZM12.3242 12.9141C12.7617 13.4727 13.0078 14.1914 12.9375 14.7109C12.8984 15.0273 12.5664 15.6719 12.2773 15.6719C12.25 15.6719 12.2188 15.668 12.1875 15.6602C11.6797 15.5781 11.0937 14.2617 11.3242 12.8008C11.3672 12.5234 11.4258 12.2578 11.4961 11.9961C11.832 12.3047 12.0977 12.6289 12.3242 12.9141ZM20.5039 11.9961C20.5742 12.2578 20.6328 12.5234 20.6758 12.8008C20.9062 14.2617 20.3203 15.5781 19.8125 15.6602C19.7812 15.668 19.75 15.6719 19.7227 15.6719C19.4336 15.6719 19.1016 15.0273 19.0625 14.7109C18.9922 14.1914 19.2383 13.4688 19.6758 12.9141C19.9023 12.625 20.168 12.3047 20.5039 11.9961Z" fill="black"/>
</g>
</svg>
