<svg width="32" height="32" viewBox="0 0 32 32" fill="none" xmlns="http://www.w3.org/2000/svg">
<g id="record-vinyl-solid">
<path id="Vector" d="M16 4C9.38281 4 4 9.38281 4 16C4 22.6172 9.38281 28 16 28C22.6172 28 28 22.6172 28 16C28 9.38281 22.6172 4 16 4ZM16 6C21.5352 6 26 10.4648 26 16C26 21.5352 21.5352 26 16 26C10.4648 26 6 21.5352 6 16C6 10.4648 10.4648 6 16 6ZM21.5312 9.0625L19.625 10.9375L21.0625 12.375L22.9375 10.4688L21.5312 9.0625ZM16 11C13.25 11 11 13.25 11 16C11 18.75 13.25 21 16 21C18.75 21 21 18.75 21 16C21 13.25 18.75 11 16 11ZM16 13C17.668 13 19 14.332 19 16C19 17.668 17.668 19 16 19C14.332 19 13 17.668 13 16C13 14.332 14.332 13 16 13ZM16 15C15.4492 15 15 15.4492 15 16C15 16.5508 15.4492 17 16 17C16.5508 17 17 16.5508 17 16C17 15.4492 16.5508 15 16 15ZM10.9375 19.625L9.0625 21.5312L10.4688 22.9375L12.375 21.0625L10.9375 19.625Z" fill="black"/>
</g>
</svg>
