<svg width="32" height="32" viewBox="0 0 32 32" fill="none" xmlns="http://www.w3.org/2000/svg">
<g id="recycle-solid">
<path id="Vector" d="M16 3.96875C14.9453 3.96875 13.8828 4.48438 13.25 5.46875L10.4375 10.0938L12.1563 11.125L14.9688 6.53125C15.5078 5.72656 16.5313 5.70703 17.0625 6.53125L20.1875 11.5312L18.6875 12.4062L23.3125 15V9.6875L21.875 10.5312L18.75 5.46875C18.1172 4.48438 17.0547 3.96875 16 3.96875ZM10.4063 12.0938L5.90626 14.6875L7.15626 15.4375L4.59376 19.6562L4.56251 19.625C4.55079 19.6445 4.57423 19.668 4.56251 19.6875C3.08986 21.918 4.78908 25 7.50001 25H13V23H7.50001C6.23439 23 5.5547 21.75 6.21876 20.7812L6.25001 20.75V20.7188L8.87501 16.4688L10.4063 17.4062V12.0938ZM25.0625 15.6562L23.3438 16.7188L25.8438 20.7188C26.4844 21.8086 25.7578 23 24.5938 23H19V21L14.0938 24L19 27V25H24.5938C27.2305 25 28.9219 22 27.5625 19.6875V19.6562L25.0625 15.6562Z" fill="black"/>
</g>
</svg>
