<svg width="32" height="32" viewBox="0 0 32 32" fill="none" xmlns="http://www.w3.org/2000/svg">
<g id="reddit-alien">
<path id="Vector" d="M18.6562 4C16.5586 4 15 5.70703 15 7.65625V11.0312C12.2422 11.1758 9.74218 11.9062 7.71874 13.0625C6.9453 12.3164 5.91405 12 4.90624 12C3.8164 12 2.70702 12.3555 1.93749 13.2188V13.25L1.90624 13.2812C1.16796 14.2031 0.867178 15.4336 1.06249 16.6562C1.24218 17.7773 1.89843 18.918 3.03124 19.6562C3.02343 19.7695 2.99999 19.8828 2.99999 20C2.99999 22.6055 4.57421 24.8867 6.93749 26.4688C9.30077 28.0508 12.4883 29 16 29C19.5117 29 22.6992 28.0508 25.0625 26.4688C27.4258 24.8867 29 22.6055 29 20C29 19.8828 28.9766 19.7695 28.9687 19.6562C30.1016 18.918 30.7578 17.7773 30.9375 16.6562C31.1328 15.4336 30.832 14.2031 30.0937 13.2812L30.0625 13.25C29.293 12.3867 28.1836 12 27.0937 12C26.0859 12 25.0547 12.3164 24.2812 13.0625C22.2578 11.9062 19.7578 11.1758 17 11.0312V7.65625C17 6.67578 17.5586 6 18.6562 6C19.1758 6 19.8203 6.24609 20.8125 6.59375C21.6562 6.89062 22.75 7.21875 24.1562 7.3125C24.4961 8.28906 25.4141 9 26.5 9C27.875 9 29 7.875 29 6.5C29 5.125 27.875 4 26.5 4C25.5547 4 24.7383 4.53516 24.3125 5.3125C23.1133 5.24219 22.2461 4.99219 21.4687 4.71875C20.5664 4.40234 19.7344 4 18.6562 4ZM16 13C19.1523 13 21.9648 13.8672 23.9375 15.1875C25.9101 16.5078 27 18.2031 27 20C27 21.7969 25.9101 23.4922 23.9375 24.8125C21.9648 26.1328 19.1523 27 16 27C12.8476 27 10.0351 26.1328 8.06249 24.8125C6.08983 23.4922 4.99999 21.7969 4.99999 20C4.99999 18.2031 6.08983 16.5078 8.06249 15.1875C10.0351 13.8672 12.8476 13 16 13ZM4.90624 14C5.28515 14 5.66015 14.0938 5.96874 14.25C4.8828 15.1602 4.03905 16.2422 3.53124 17.4375C3.27733 17.1172 3.12499 16.7344 3.06249 16.3438C2.95311 15.6719 3.14843 14.9766 3.46874 14.5625C3.47265 14.5547 3.46483 14.5391 3.46874 14.5312C3.77343 14.2109 4.31249 14 4.90624 14ZM27.0937 14C27.6875 14 28.2266 14.2109 28.5312 14.5312C28.5351 14.5352 28.5273 14.5586 28.5312 14.5625C28.8516 14.9766 29.0469 15.6719 28.9375 16.3438C28.875 16.7344 28.7226 17.1172 28.4687 17.4375C27.9609 16.2422 27.1172 15.1602 26.0312 14.25C26.3398 14.0938 26.7148 14 27.0937 14ZM11 16C9.89452 16 8.99999 16.8945 8.99999 18C8.99999 19.1055 9.89452 20 11 20C12.1055 20 13 19.1055 13 18C13 16.8945 12.1055 16 11 16ZM21 16C19.8945 16 19 16.8945 19 18C19 19.1055 19.8945 20 21 20C22.1055 20 23 19.1055 23 18C23 16.8945 22.1055 16 21 16ZM21.25 21.5312C20.1016 22.5977 18.1719 23.2812 16 23.2812C13.8281 23.2812 11.8984 22.5898 10.75 21.6562C11.3906 23.3906 13.4453 25 16 25C18.5547 25 20.6094 23.3984 21.25 21.5312Z" fill="black"/>
</g>
</svg>
