<svg width="32" height="32" viewBox="0 0 32 32" fill="none" xmlns="http://www.w3.org/2000/svg">
<g id="reddit-square">
<path id="Vector" d="M5 5V27H27V5H5ZM7 7H25V25H7V7ZM17.0586 8.99414C16.8806 8.96414 16.7041 9.08172 16.6621 9.26172L15.7988 13.0078C14.1288 13.0498 12.6341 13.6018 11.5801 14.4648C11.3071 14.1798 10.926 14 10.5 14C9.672 14 9 14.672 9 15.5C9 16.172 9.44569 16.7348 10.0547 16.9258C10.0227 17.1148 10 17.305 10 17.5C10 19.985 12.686 22 16 22C19.314 22 22 19.985 22 17.5C22 17.305 21.9773 17.1148 21.9453 16.9258C22.5543 16.7348 23 16.172 23 15.5C23 14.672 22.328 14 21.5 14C21.074 14 20.6929 14.1798 20.4199 14.4648C19.4319 13.6558 18.0567 13.1175 16.5137 13.0195L17.2695 9.73828L20.0391 10.1953C20.1321 10.6503 20.517 11 21 11C21.552 11 22 10.552 22 10C22 9.448 21.552 9 21 9C20.632 9 20.3244 9.20886 20.1504 9.50586L17.0586 8.99414ZM13.0918 15.8184C13.6948 15.8184 14.1816 16.3052 14.1816 16.9082C14.1816 17.5112 13.6938 18 13.0918 18C12.4898 18 12 17.5112 12 16.9082C12 16.3062 12.4888 15.8184 13.0918 15.8184ZM18.9082 15.8184C19.5112 15.8184 20 16.3062 20 16.9082C20 17.5102 19.5112 18 18.9082 18C18.3062 18 17.8184 17.5112 17.8184 16.9082C17.8184 16.3052 18.3052 15.8184 18.9082 15.8184ZM13.4727 19.0215C13.562 19.0146 13.6541 19.0425 13.7266 19.1055C14.8806 20.0935 17.1175 20.0935 18.2715 19.1055C18.4175 18.9805 18.6396 18.9956 18.7656 19.1426C18.8916 19.2896 18.8755 19.5107 18.7285 19.6367C18.0275 20.2387 17.033 20.584 16 20.584C14.967 20.584 13.9735 20.2387 13.2715 19.6367C13.1245 19.5107 13.1084 19.2896 13.2344 19.1426C13.2974 19.0691 13.3833 19.0284 13.4727 19.0215Z" fill="black"/>
</g>
</svg>
