<svg width="32" height="32" viewBox="0 0 32 32" fill="none" xmlns="http://www.w3.org/2000/svg">
<g id="redhat">
<path id="Vector" d="M16.3887 6.00195C15.6117 6.00195 15.3852 7.08203 14.4512 7.08203C13.5462 7.08203 12.889 6.27148 12.043 6.27148C11.236 6.27148 10.7135 6.86403 10.3105 8.08203C8.93355 12.245 8.99391 12.0681 9.00391 12.2871C9.00391 13.6191 13.8812 17.9902 20.4102 17.9902V18C22.0912 18 24.5195 17.6247 24.5195 15.4707C24.5395 15.1067 24.5695 15.3778 23.4785 10.3008C23.2525 9.26978 23.045 8.80125 21.373 7.90625C20.065 7.18725 17.2247 6.00195 16.3887 6.00195ZM8.26953 13.0391C5.96953 13.1491 3 13.5702 3 16.2402C3 20.6102 13.1898 26 21.2598 26C27.4398 26 29 23.1602 29 20.9102C29 19.1402 27.4991 17.1395 24.7891 15.9395C25.0201 17.1775 25 17.5587 25 17.7207C25 19.8277 22.8448 21 20.0078 21C13.6128 21.011 8 16.8734 8 14.1484C8 13.7684 8.12953 13.3871 8.26953 13.0391Z" fill="black"/>
</g>
</svg>
