<svg width="32" height="32" viewBox="0 0 32 32" fill="none" xmlns="http://www.w3.org/2000/svg">
<g id="registered">
<path id="Vector" d="M16 3C8.83203 3 3 8.83203 3 16C3 23.168 8.83203 29 16 29C23.168 29 29 23.168 29 16C29 8.83203 23.168 3 16 3ZM16 5C22.0859 5 27 9.91406 27 16C27 22.0859 22.0859 27 16 27C9.91406 27 5 22.0859 5 16C5 9.91406 9.91406 5 16 5ZM12 10V22H14V18H17.4062L19 22H21L19.3125 17.75C20.875 17.207 22 15.75 22 14C22 11.7891 20.2109 10 18 10H12ZM14 12H18C19.1914 12 20 12.8086 20 14C20 15.1914 19.1914 16 18 16H14V12Z" fill="black"/>
</g>
</svg>
