<svg width="32" height="32" viewBox="0 0 32 32" fill="none" xmlns="http://www.w3.org/2000/svg">
<g id="remove-format-solid">
<path id="Vector" d="M4.28906 5.97266L3.08398 7.57031L27.7773 26.1777L28.9805 24.5801L18.0273 16.3262L20.2852 10H25V11.5C25 11.776 25.224 12 25.5 12H26.5C26.776 12 27 11.776 27 11.5V7.5C27 7.224 26.776 7 26.5 7H10.5C10.224 7 10 7.224 10 7.5V10.2773L4.28906 5.97266ZM12 10H17.2852L15.6621 14.5449L11.9336 11.7344C11.9721 11.6636 12 11.5862 12 11.5V10ZM14.2539 18.4902L13 22H11.5C11.224 22 11 22.224 11 22.5V24.5C11 24.776 11.224 25 11.5 25H16.5C16.776 25 17 24.776 17 24.5V22.5C17 22.224 16.776 22 16.5 22H16L16.6191 20.2656L14.2539 18.4902Z" fill="black"/>
</g>
</svg>
