<svg width="32" height="32" viewBox="0 0 32 32" fill="none" xmlns="http://www.w3.org/2000/svg">
<g id="renren">
<path id="Vector" d="M7.5625 7C3.28125 7.71875 0 11.4492 0 15.9375C0 18.168 0.820313 20.2031 2.15625 21.7812C5.32812 20.2461 7.54688 16.793 7.5625 12.75V7ZM10.5625 7V12.6875C10.5625 16.7461 12.7891 20.2422 15.9688 21.7812C14.6328 20.2031 13.8125 18.168 13.8125 15.9375C13.8125 13.707 14.6289 11.6719 15.9688 10.0938C14.6172 8.49609 12.7148 7.35938 10.5625 7ZM15.9688 10.0938C17.3047 11.6719 18.1875 13.707 18.1875 15.9375C18.1875 18.168 17.3047 20.2031 15.9688 21.7812C19.1406 20.2461 21.4219 16.7891 21.4375 12.75V7C19.2852 7.36328 17.3203 8.49609 15.9688 10.0938ZM24.4375 7V12.6875C24.4375 16.7461 26.6641 20.2422 29.8438 21.7812C31.1797 20.2031 32 18.168 32 15.9375C32 11.4492 28.7188 7.71875 24.4375 7ZM9.0625 18.2188C8.5 20.5547 6.82031 22.5469 4.71875 23.875C6.00781 24.582 7.48828 25 9.0625 25C10.6367 25 12.1172 24.582 13.4062 23.875C11.3086 22.5469 9.625 20.5547 9.0625 18.2188ZM22.9375 18.2188C22.375 20.5547 20.6953 22.5469 18.5938 23.875C19.8828 24.582 21.3633 25 22.9375 25C24.5117 25 25.9922 24.582 27.2812 23.875C25.1836 22.5469 23.5 20.5547 22.9375 18.2188Z" fill="black"/>
</g>
</svg>
