<svg width="32" height="32" viewBox="0 0 32 32" fill="none" xmlns="http://www.w3.org/2000/svg">
<g id="reply-all-solid">
<path id="Vector" d="M10.2812 5.28125L2.28125 13.2812L1.59375 14L2.28125 14.7188L10.2812 22.7188L11.7188 21.2812L4.4375 14L11.7188 6.71875L10.2812 5.28125ZM15.2812 5.28125L7.28125 13.2812L6.59375 14L7.28125 14.7188L15.2812 22.7188L16.7188 21.2812L10.4375 15H23C25.7734 15 28 17.2266 28 20C28 22.7734 25.7734 25 23 25V27C26.8555 27 30 23.8555 30 20C30 16.1445 26.8555 13 23 13H10.4375L16.7188 6.71875L15.2812 5.28125Z" fill="black"/>
</g>
</svg>
