<svg width="32" height="32" viewBox="0 0 32 32" fill="none" xmlns="http://www.w3.org/2000/svg">
<g id="replyd">
<path id="Vector" d="M5 5V27H27V5H5ZM7 7H25V25H7V7ZM17.7305 17.0098C16.8605 17.0098 16.1907 17.2598 15.7207 17.7598C15.2407 18.2498 15 19 15 20C15 20.94 15.2106 21.6692 15.6406 22.1992C16.0606 22.7292 16.7304 23 17.6504 23C18.0904 23 18.5006 22.9405 18.8906 22.8105C19.2806 22.6905 19.5903 22.5296 19.8203 22.3496L19.3301 21.3906C19.1901 21.4906 19.0095 21.5897 18.7695 21.6797C18.5195 21.7697 18.2397 21.8203 17.9297 21.8203C17.4297 21.8203 17.0696 21.7009 16.8496 21.4609C16.6196 21.2209 16.5005 20.8609 16.4805 20.3809H19.8906C19.9206 20.1809 19.9507 20.0005 19.9707 19.8105C19.9907 19.6305 20 19.4608 20 19.3008C20 18.8608 19.9305 18.4992 19.8105 18.1992C19.6805 17.9092 19.5108 17.67 19.3008 17.5C19.0808 17.32 18.8403 17.1991 18.5703 17.1191C18.3003 17.0491 18.0205 17.0098 17.7305 17.0098ZM13.6602 17.0391C13.3602 17.0391 13.1009 17.1095 12.8809 17.2695C12.6609 17.4195 12.4894 17.6302 12.3594 17.9102H12.3203L12.1406 17.1602H11V22.8398H12.4805V19.1699C12.5405 18.9499 12.6601 18.7709 12.8301 18.6309C13.0101 18.5009 13.2302 18.4297 13.4902 18.4297C13.6802 18.4297 13.8909 18.4708 14.1309 18.5508L14.3301 17.1602C14.0801 17.0802 13.8502 17.0391 13.6602 17.0391ZM22.0703 17.1191C21.7903 17.1191 21.5802 17.1996 21.4102 17.3496C21.2402 17.5096 21.1602 17.7205 21.1602 17.9805C21.1602 18.2505 21.2402 18.4591 21.4102 18.6191C21.5802 18.7791 21.7903 18.8594 22.0703 18.8594C22.3503 18.8594 22.58 18.7791 22.75 18.6191C22.92 18.4591 23 18.2505 23 17.9805C23 17.7205 22.92 17.5096 22.75 17.3496C22.58 17.1996 22.3603 17.1191 22.0703 17.1191ZM17.6992 18.1895C18.0392 18.1895 18.2797 18.2995 18.4297 18.5195C18.5897 18.7395 18.6491 19.0509 18.6191 19.4609H16.5098C16.5498 19.0809 16.6598 18.7691 16.8398 18.5391C17.0298 18.3091 17.3092 18.1895 17.6992 18.1895ZM22.0703 21.2305C21.7903 21.2305 21.5802 21.3009 21.4102 21.4609C21.2402 21.6109 21.1602 21.8198 21.1602 22.0898C21.1602 22.3598 21.2402 22.5705 21.4102 22.7305C21.5802 22.8905 21.7903 22.9609 22.0703 22.9609C22.3503 22.9609 22.58 22.8905 22.75 22.7305C22.92 22.5705 23 22.3498 23 22.0898C23 21.8198 22.92 21.6109 22.75 21.4609C22.58 21.3009 22.3603 21.2305 22.0703 21.2305Z" fill="black"/>
</g>
</svg>
