<svg width="32" height="32" viewBox="0 0 32 32" fill="none" xmlns="http://www.w3.org/2000/svg">
<g id="republican-solid">
<path id="Vector" d="M10 7C6.686 7 4 9.686 4 13V16H26V13C26 9.686 23.314 7 20 7H10ZM15.0137 10.1484C15.102 10.1484 15.1926 10.1899 15.2441 10.2734L15.7188 11.2754L16.8242 11.4414C17.0152 11.4674 17.1052 11.7118 16.9512 11.8398L16.1543 12.623L16.3359 13.7168C16.3749 13.9228 16.182 14.0627 16.002 13.9727L15.0117 13.459L14.0234 13.9727C13.8564 14.0627 13.6515 13.9228 13.6895 13.7168L13.8691 12.623L13.0723 11.8398C12.9313 11.7108 13.0098 11.4664 13.2148 11.4414L14.3066 11.2754L14.7949 10.2734C14.8399 10.1899 14.9253 10.1484 15.0137 10.1484ZM9.00391 10.1621C9.09028 10.1621 9.1762 10.2022 9.2207 10.2852L9.70703 11.2832L10.8086 11.4492C11.0016 11.4752 11.0648 11.7197 10.9238 11.8477L10.1309 12.6289L10.3223 13.7168C10.3603 13.9218 10.1436 14.0627 9.97656 13.9727L9.00391 13.4609L8.01758 13.9727C7.83858 14.0627 7.64687 13.9218 7.67188 13.7168L7.86328 12.6289L7.07031 11.8477C6.91631 11.7197 7.00527 11.4752 7.19727 11.4492L8.30078 11.2832L8.78516 10.2852C8.83016 10.2022 8.91753 10.1621 9.00391 10.1621ZM21.002 10.166C21.0882 10.166 21.179 10.208 21.2305 10.291L21.7168 11.2871L22.8027 11.4531C22.9927 11.4791 23.0827 11.7226 22.9297 11.8496L22.1367 12.6309L22.3281 13.7168C22.3541 13.9218 22.1614 14.0617 21.9824 13.9727L20.998 13.4629L20.0156 13.9727C19.8626 14.0617 19.6446 13.9218 19.6836 13.7168L19.8613 12.6309L19.082 11.8496C18.929 11.7216 19.0059 11.4781 19.2109 11.4531L20.3086 11.2871L20.7949 10.291C20.8334 10.208 20.9157 10.166 21.002 10.166ZM4 18V19V21V24C4 24.552 4.448 25 5 25H8C8.552 25 9 24.552 9 24V21H17V24C17 24.552 17.448 25 18 25H21C21.552 25 22 24.552 22 24V21V20H24V21.8828C24 23.3328 24.9783 24.6644 26.4023 24.9414C28.3173 25.3134 30 23.85 30 22V19.709C30 19.317 29.684 19 29.293 19H28.709C28.317 19 28 19.317 28 19.709V22C28 22.551 27.551 23 27 23C26.449 23 26 22.551 26 22V18H22H4Z" fill="black"/>
</g>
</svg>
