<svg width="32" height="32" viewBox="0 0 32 32" fill="none" xmlns="http://www.w3.org/2000/svg">
<g id="researchgate">
<path id="Vector" d="M5 5V27H27V5H5ZM7 7H25V25H7V7ZM19.1641 10.002C17.8811 10.002 17.4414 10.9192 17.4414 11.5352V13.1699C17.4414 13.9999 17.8935 14.793 19.0625 14.793C21.0245 14.791 20.7871 13.3064 20.7871 12.2754H19.2539V12.8164H20.1582C20.1582 13.6214 19.7815 14.1621 19.0645 14.1621C18.4985 14.1621 18.1719 13.6712 18.1719 12.9922V11.6348C18.1719 11.0058 18.7621 10.6426 19.1641 10.6426C19.8811 10.6426 20.1562 11.2715 20.1562 11.2715L20.6973 10.9062C20.6973 10.9062 20.4341 10.002 19.1641 10.002ZM13.584 13.0918C12.679 13.0918 11.297 13.1789 10.002 13.1289V13.5312C10.782 13.6823 11.1074 13.6063 11.1074 14.7383V20.2695C11.1074 21.4135 10.781 21.3256 10.002 21.4766V21.8926C10.379 21.8796 11.0313 21.8418 11.6973 21.8418C12.3263 21.8418 13.1441 21.8676 13.4961 21.8926V21.4766C12.4901 21.3386 12.1875 21.4515 12.1875 20.2695V17.9316C12.5275 17.9566 12.8175 17.9551 13.2695 17.9551C14.1245 19.4891 14.9412 20.6348 15.4062 21.1758C16.2483 22.1938 17.5949 22.0436 17.9219 21.8926V21.5156C17.4189 21.5146 16.9148 21.1754 16.5508 20.7734C15.9348 20.1074 15.1048 19.0256 14.4258 17.8066C15.5578 17.5296 16.4004 16.4613 16.4004 15.4043C16.4004 13.8203 15.18 13.0918 13.584 13.0918ZM13.3203 13.7305C14.5023 13.7305 15.2051 14.3465 15.2051 15.4785C15.2041 16.5865 14.4504 17.3262 13.1934 17.3262C12.7284 17.3262 12.5145 17.3141 12.1875 17.2891V13.7676C12.5145 13.7296 12.9423 13.7305 13.3203 13.7305Z" fill="black"/>
</g>
</svg>
