<svg width="32" height="32" viewBox="0 0 32 32" fill="none" xmlns="http://www.w3.org/2000/svg">
<g id="resolving">
<path id="Vector" d="M16 3C9.857 3 4.71133 7.28839 3.36133 13.0254L3.37695 13.0195L14.9355 9.68945C16.7445 9.16245 17.7564 9.08467 19.0684 9.26367C20.9564 9.58167 21.8128 10.5645 22.2598 12.1445L22.8242 14.1133C23.2512 15.5743 22.8757 16.7462 21.5938 17.9492C20.5898 18.8532 19.9726 19.2207 18.3926 19.6777L13.5723 21.0586L25.0508 22.4707L25.5566 24.248L23.0527 24.9453L8.11719 23.0059L9.28711 27.1113C11.2491 28.3023 13.542 29 16 29C23.168 29 29 23.168 29 16C29 8.832 23.168 3 16 3ZM18.0391 11.7305C17.5036 11.7246 16.7655 11.8602 15.7305 12.1602L5.86914 14.9902L7.36914 20.1602L17.7402 17.1602C20.1502 16.4702 20.3408 15.9306 20.0508 14.8906L19.4609 12.8301C19.2609 12.1426 18.9314 11.7402 18.0391 11.7305ZM3.00781 16.1328C3.03281 18.5808 3.74227 20.8625 4.94727 22.8105L3.00781 16.1328Z" fill="black"/>
</g>
</svg>
