<svg width="32" height="32" viewBox="0 0 32 32" fill="none" xmlns="http://www.w3.org/2000/svg">
<g id="restroom-solid">
<path id="Vector" d="M9 4C6.80078 4 5 5.80078 5 8C5 9.11328 5.47656 10.1172 6.21875 10.8438C4.88672 11.7461 4 13.2852 4 15V20.625L6 21.625V28H12V21.625L14 20.625V15C14 13.2852 13.1133 11.7461 11.7812 10.8438C12.5234 10.1172 13 9.11328 13 8C13 5.80078 11.1992 4 9 4ZM22 4C19.8008 4 18 5.80078 18 8C18 9.15234 18.5234 10.1758 19.3125 10.9062C18.4062 11.5859 17.7461 12.5977 17.5312 13.8125C17.5312 13.8242 17.5312 13.832 17.5312 13.8438L16.0312 21.8125L15.7812 23H19V28H25V23H28.2188L27.9688 21.8125L26.4688 13.8438C26.4688 13.832 26.4688 13.8242 26.4688 13.8125C26.2539 12.5977 25.5938 11.5859 24.6875 10.9062C25.4766 10.1758 26 9.15234 26 8C26 5.80078 24.1992 4 22 4ZM9 6C10.1172 6 11 6.88281 11 8C11 9.11719 10.1172 10 9 10C7.88281 10 7 9.11719 7 8C7 6.88281 7.88281 6 9 6ZM22 6C23.1172 6 24 6.88281 24 8C24 9.11719 23.1172 10 22 10C20.8828 10 20 9.11719 20 8C20 6.88281 20.8828 6 22 6ZM9 12C10.6562 12 12 13.3438 12 15V19.375L10 20.375V26H8V20.375L6 19.375V15C6 13.3438 7.34375 12 9 12ZM22 12C23.2305 12 24.2773 12.8164 24.5 14.1562V14.1875H24.5312L25.8125 21H23V26H21V21H18.1875L19.4688 14.1875H19.5V14.1562C19.7227 12.8164 20.7695 12 22 12Z" fill="black"/>
</g>
</svg>
