<svg width="32" height="32" viewBox="0 0 32 32" fill="none" xmlns="http://www.w3.org/2000/svg">
<g id="rev">
<path id="Vector" d="M15 3V5.05078C9.40244 5.55838 5 10.2725 5 16C5 22.065 9.935 27 16 27H27V16C27 12.633 25.4769 9.61861 23.0859 7.59961L21.2227 8.68555C23.5047 10.3195 25 12.986 25 16C25 20.962 20.963 25 16 25C11.037 25 7 20.962 7 16C7 11.3759 10.506 7.55767 15 7.05859V10L21 6.5L15 3ZM16 13C15.2044 13 14.4413 13.3161 13.8787 13.8787C13.3161 14.4413 13 15.2044 13 16C13 16.7956 13.3161 17.5587 13.8787 18.1213C14.4413 18.6839 15.2044 19 16 19C16.7956 19 17.5587 18.6839 18.1213 18.1213C18.6839 17.5587 19 16.7956 19 16C19 15.2044 18.6839 14.4413 18.1213 13.8787C17.5587 13.3161 16.7956 13 16 13Z" fill="black"/>
</g>
</svg>
