<svg width="32" height="32" viewBox="0 0 32 32" fill="none" xmlns="http://www.w3.org/2000/svg">
<g id="ribbon-solid">
<path id="Vector" d="M16 4C14.8984 4 12.3984 4 11.5 5.5V5.59375C11.3984 5.79297 9.8125 9.29297 9.3125 10.5938C8.71094 12.1953 9.41406 14.1133 10.3125 15.3125C11.0117 16.4141 19.6992 27.1953 20 27.5938L20.5938 28.4062L25.5938 24.3125L25.0938 23.5C23.9922 22.1016 22.0859 19.8047 20.1875 17.4062C21.5859 15.707 21.8125 15.4141 21.8125 15.3125C22.7109 14.1133 23.4141 12.1953 22.8125 10.5938C22.3125 9.29297 20.6953 5.79297 20.5938 5.59375V5.5C20.5938 5.39844 20.5 5.41406 20.5 5.3125C19.3008 4.01172 17 4 16 4ZM16 6C17.8008 6 18.4883 6.30078 18.6875 6.5C18.6875 6.69922 18.6953 7.01172 18.5938 7.3125V7.5C18.5938 7.69922 18.5078 7.88672 18.4062 8.1875C17.8047 7.98828 17.1016 8 16 8C14.8984 8 14.1953 7.99219 13.5938 8.09375C13.4922 7.89453 13.5078 7.60547 13.4062 7.40625V7.1875C13.3047 6.78906 13.3125 6.60547 13.3125 6.40625C13.5117 6.30469 14.1992 6 16 6ZM11.9062 9.5C12.1055 10.1016 12.4062 10.8008 12.9062 11.5C13.707 12.6992 20.6055 21.1992 22.9062 24L21 25.5938C18.1016 22.0938 12.4062 14.9883 11.9062 14.1875C11.3047 13.3867 10.793 12.1133 11.0938 11.3125C11.1953 10.9141 11.5078 10.1992 11.9062 9.5ZM20.0938 9.5C20.3945 10.1992 20.707 10.9141 20.9062 11.3125C21.207 12.1133 20.6953 13.3867 20.0938 14.1875C19.9922 14.2891 19.7109 14.7109 18.8125 15.8125C18.3125 15.1133 17.6875 14.5078 17.1875 13.9062C18.6875 12.0078 18.9922 11.6016 19.0938 11.5C19.4922 10.8008 19.8945 10.1016 20.0938 9.5ZM14.4062 10H17.5938C17.4922 10.1016 17.5078 10.207 17.4062 10.4062C17.4062 10.6055 17 11.0117 16 12.3125C15.3008 11.4141 14.6953 10.707 14.5938 10.4062C14.4922 10.3047 14.5078 10.1992 14.4062 10ZM10.9062 18.5938C8.80469 21.1953 6.90625 23.5 6.90625 23.5L6.3125 24.3125L11.3125 28.4062L12 27.5938C12 27.5938 13.3945 25.9141 15.0938 23.8125C14.6953 23.3125 14.2109 22.6875 13.8125 22.1875C12.6133 23.5859 11.6016 24.793 11 25.5938L9.09375 24C9.79297 23.1992 10.8867 21.7891 12.1875 20.1875C11.6875 19.5859 11.3047 19.0938 10.9062 18.5938Z" fill="black"/>
</g>
</svg>
