<svg width="32" height="32" viewBox="0 0 32 32" fill="none" xmlns="http://www.w3.org/2000/svg">
<g id="ring-solid">
<path id="Vector" d="M26 7.00004L25.6992 6.69925C24 4.80082 21.5 4.19925 21.5 4.19925C18.5 3.30082 13.8008 5.30082 9.60156 9.39847C6.10156 12.6993 4 16.6993 4 19.6993C4 20.1016 4.10156 20.5 4.10156 20.8985C4.30078 22.8985 5.60156 25 6.69922 26C8.10156 27.3985 9.89844 28.1016 11.8984 28.1016C15.1992 28.1016 19.1016 26.1993 22.6992 22.8008C28.3008 17.3008 29.6992 10.8008 26 7.00004ZM10 21.6993C10 20.3985 11.3984 17.6993 14.3984 14.6993C17.3008 11.8008 20.3008 11 21.6992 10.6993C21 12.6016 19.5 14.8985 17.3008 17.1016C15.1992 19.1016 12.8008 20.6993 10.6992 21.5C10.5 21.6016 10.1992 21.6016 10 21.6993ZM11 10.8008C14.3008 7.50004 17.8008 5.89847 20 5.89847C20.6992 5.89847 21.3008 6.1016 21.6992 6.50004C22.1016 6.89847 22.3008 7.69925 22.1992 8.6016C21 8.69925 16.8984 9.39847 13 13.3008C10.5 15.8008 7.89844 19.3985 8.10156 21.8985C7.5 21.8985 6.89844 21.6993 6.60156 21.3985C6.39844 21.1993 6.19922 20.8985 6.10156 20.5C6.10156 20.5 6 20 6 19.6993C6.10156 17.1993 8 13.6993 11 10.8008ZM21.3008 21.3008C16.5 26.1016 11 27.3985 8.10156 24.6016C7.89844 24.3985 7.69922 24.1993 7.5 23.8985C7.69922 24 8 24 8.30078 24C9.19922 24 10.3008 23.8008 11.3984 23.3985C13.8008 22.5 16.3984 20.8008 18.6992 18.5C22.1992 15 24.1992 11 24.1992 8.1016L24.3008 8.19925L24.6016 8.39847C27.3984 11.3008 26 16.6993 21.3008 21.3008Z" fill="black"/>
</g>
</svg>
