<svg width="32" height="32" viewBox="0 0 32 32" fill="none" xmlns="http://www.w3.org/2000/svg">
<g id="robot-solid">
<path id="Vector" d="M16 1C14.8945 1 14 1.89453 14 3C14 3.73828 14.4023 4.37109 15 4.71875V7H10C7.25 7 5 9.25 5 12V14H2V22H5V27H27V22H30V14H27V12C27 9.25 24.75 7 22 7H17V4.71875C17.5977 4.37109 18 3.73828 18 3C18 1.89453 17.1055 1 16 1ZM10 9H22C23.668 9 25 10.332 25 12V25H23V20H9V25H7V12C7 10.332 8.33203 9 10 9ZM12 13C10.8945 13 10 13.8945 10 15C10 16.1055 10.8945 17 12 17C13.1055 17 14 16.1055 14 15C14 13.8945 13.1055 13 12 13ZM20 13C18.8945 13 18 13.8945 18 15C18 16.1055 18.8945 17 20 17C21.1055 17 22 16.1055 22 15C22 13.8945 21.1055 13 20 13ZM4 16H5V20H4V16ZM27 16H28V20H27V16ZM11 22H13V25H11V22ZM15 22H17V25H15V22ZM19 22H21V25H19V22Z" fill="black"/>
</g>
</svg>
