<svg width="32" height="32" viewBox="0 0 32 32" fill="none" xmlns="http://www.w3.org/2000/svg">
<g id="rockrms">
<path id="Vector" d="M16 3C8.832 3 3 8.832 3 16C3 23.168 8.832 29 16 29C23.168 29 29 23.168 29 16C29 8.832 23.168 3 16 3ZM16 5C22.065 5 27 9.935 27 16C27 22.065 22.065 27 16 27C9.935 27 5 22.065 5 16C5 9.935 9.935 5 16 5ZM15.5 8C15.212 8 14.9361 8.1258 14.7461 8.3418L8.04688 16H10.7031L15.4727 10.5508L19.8984 16H15C14.609 16 14.2548 16.228 14.0918 16.582C13.9288 16.937 13.9862 17.3534 14.2402 17.6504L18.8262 23H21.4609L17.1738 18H22C22.386 18 22.7363 17.7777 22.9023 17.4297C23.0673 17.0817 23.0184 16.6681 22.7754 16.3691L16.2754 8.36914C16.0894 8.14014 15.8125 8.005 15.5195 8H15.5Z" fill="black"/>
</g>
</svg>
