<svg width="32" height="32" viewBox="0 0 32 32" fill="none" xmlns="http://www.w3.org/2000/svg">
<g id="rocket-solid">
<path id="Vector" d="M25.9062 4C25.2109 4 24.2422 4.03125 23.2188 4.125C21.1719 4.31641 18.8086 4.66016 17.3438 6.125C16.1133 7.35547 13.5703 10.6211 11.2188 13.6875C10.7539 14.293 10.7734 14.2812 10.3438 14.8438L8.625 14.75C7.34766 14.6836 6.11719 15.2227 5.3125 16.2188L3.21875 18.7812L2.1875 20.0938L3.8125 20.4062L7.09375 21.0625L10.9375 24.9062L11.5938 28.1875L11.9375 29.8125L13.2188 28.7812L15.7812 26.6875C16.7773 25.8828 17.3164 24.6523 17.25 23.375L17.1562 21.6875C17.7383 21.2461 17.7188 21.2578 18.3438 20.7812C21.418 18.4258 24.6953 15.8984 25.9062 14.6875C27.3594 13.2344 27.6836 10.8359 27.875 8.78125C28.0664 6.72656 27.9688 4.96875 27.9688 4.96875L27.9375 4.0625L27.0312 4.03125C27.0312 4.03125 26.6016 4 25.9062 4ZM25 6C25.3984 6 25.6797 6.02344 25.9688 6.03125C25.9805 6.61328 26.0039 7.21875 25.875 8.59375C25.6992 10.4883 25.1211 12.5977 24.4688 13.25C23.5781 14.1406 20.1875 16.8398 17.125 19.1875C14.418 21.2617 12.5117 22.7188 11.9688 23.125L8.90625 20.0625C9.31641 19.5117 10.7188 17.5977 12.7812 14.9062C15.125 11.8516 17.832 8.44922 18.75 7.53125C19.4336 6.84766 21.5195 6.26953 23.4062 6.09375C24.0898 6.03125 24.6016 6 25 6ZM20.4375 9.53125C19.3203 9.53125 18.4375 10.4453 18.4375 11.5625C18.4375 12.6797 19.3203 13.5938 20.4375 13.5938C21.5547 13.5938 22.4688 12.6797 22.4688 11.5625C22.4688 10.4453 21.5547 9.53125 20.4375 9.53125ZM8.5 16.75L8.875 16.7812C8.27344 17.5781 7.28906 18.8555 7.15625 19.0312L5.8125 18.75L6.84375 17.5C7.24609 17.0039 7.85938 16.7148 8.5 16.75ZM6.21875 21.9375C5.36328 22.793 4.875 23.9766 4.53125 24.9688C4.1875 25.9609 4.03125 26.7812 4.03125 26.7812L3.71875 28.25L5.1875 27.9688C5.1875 27.9688 5.98438 27.832 6.96875 27.5C7.95312 27.168 9.13672 26.6758 10.0312 25.7812L8.625 24.375C8.17969 24.8203 7.29688 25.2109 6.5 25.5C6.80469 24.668 7.25 23.7227 7.625 23.3438L6.21875 21.9375ZM15.2188 23.125L15.25 23.5C15.2852 24.1406 15.0312 24.7539 14.5312 25.1562L13.25 26.1875L12.9688 24.8438C13.1445 24.7148 14.4219 23.7227 15.2188 23.125Z" fill="black"/>
</g>
</svg>
