<svg width="32" height="32" viewBox="0 0 32 32" fill="none" xmlns="http://www.w3.org/2000/svg">
<g id="rocketchat">
<path id="Vector" d="M7.54883 5C6.26383 5 5.055 5.30861 4 5.84961C5.42247 6.96949 6.43225 8.52747 6.83594 10.3008C5.06525 11.8542 4 13.8385 4 16C4 18.1 5.00284 20.1108 6.83984 21.7168C6.54984 22.9668 5.94803 24.134 5.08203 25.123L4.01367 26.3457L5.58594 26.752C6.22594 26.918 6.88683 27 7.54883 27C9.77683 27 11.8418 26.1975 13.4238 24.7285C14.4258 24.9085 15.458 25 16.5 25C23.393 25 29 20.962 29 16C29 11.038 23.393 7 16.5 7C15.4409 7 14.4182 7.1058 13.4355 7.28516C11.9135 5.87743 9.84425 5 7.54883 5ZM16.5 9C22.29 9 27 12.14 27 16C27 19.86 22.29 23 16.5 23C15.412 23 14.3386 22.889 13.3086 22.668L12.7578 22.5488L12.3711 22.957C11.1471 24.252 9.46962 24.976 7.64062 25C8.29063 23.917 8.72787 22.7245 8.92188 21.4785L9.01367 20.8965L8.54883 20.5352C6.90583 19.2562 6 17.646 6 16C6 12.14 10.71 9 16.5 9ZM11.5 15C11.1022 15 10.7206 15.158 10.4393 15.4393C10.158 15.7206 10 16.1022 10 16.5C10 16.8978 10.158 17.2794 10.4393 17.5607C10.7206 17.842 11.1022 18 11.5 18C11.8978 18 12.2794 17.842 12.5607 17.5607C12.842 17.2794 13 16.8978 13 16.5C13 16.1022 12.842 15.7206 12.5607 15.4393C12.2794 15.158 11.8978 15 11.5 15ZM16.5 15C16.1022 15 15.7206 15.158 15.4393 15.4393C15.158 15.7206 15 16.1022 15 16.5C15 16.8978 15.158 17.2794 15.4393 17.5607C15.7206 17.842 16.1022 18 16.5 18C16.8978 18 17.2794 17.842 17.5607 17.5607C17.842 17.2794 18 16.8978 18 16.5C18 16.1022 17.842 15.7206 17.5607 15.4393C17.2794 15.158 16.8978 15 16.5 15ZM21.5 15C21.1022 15 20.7206 15.158 20.4393 15.4393C20.158 15.7206 20 16.1022 20 16.5C20 16.8978 20.158 17.2794 20.4393 17.5607C20.7206 17.842 21.1022 18 21.5 18C21.8978 18 22.2794 17.842 22.5607 17.5607C22.842 17.2794 23 16.8978 23 16.5C23 16.1022 22.842 15.7206 22.5607 15.4393C22.2794 15.158 21.8978 15 21.5 15Z" fill="black"/>
</g>
</svg>
