<svg width="32" height="32" viewBox="0 0 32 32" fill="none" xmlns="http://www.w3.org/2000/svg">
<g id="route-solid">
<path id="Vector" d="M6 4C4.90625 4 4 4.90625 4 6C4 7.09375 4.90625 8 6 8C7.09375 8 8 7.09375 8 6C8 4.90625 7.09375 4 6 4ZM10 5C9.44922 5 9 5.44922 9 6C9 6.55078 9.44922 7 10 7C10.5508 7 11 6.55078 11 6C11 5.44922 10.5508 5 10 5ZM13 5C12.4492 5 12 5.44922 12 6C12 6.55078 12.4492 7 13 7C13.5508 7 14 6.55078 14 6C14 5.44922 13.5508 5 13 5ZM16 5C15.4492 5 15 5.44922 15 6C15 6.55078 15.4492 7 16 7C16.5508 7 17 6.55078 17 6C17 5.44922 16.5508 5 16 5ZM19 5C18.4492 5 18 5.44922 18 6C18 6.55078 18.4492 7 19 7C19.5508 7 20 6.55078 20 6C20 5.44922 19.5508 5 19 5ZM22 5C21.4492 5 21 5.44922 21 6C21 6.55078 21.4492 7 22 7C22.5508 7 23 6.55078 23 6C23 5.44922 22.5508 5 22 5ZM25 5C24.4492 5 24 5.44922 24 6C24 6.55078 24.4492 7 25 7C25.5508 7 26 6.55078 26 6C26 5.44922 25.5508 5 25 5ZM27 7C26.4492 7 26 7.44922 26 8C26 8.55078 26.4492 9 27 9C27.5508 9 28 8.55078 28 8C28 7.44922 27.5508 7 27 7ZM16 10C14.3477 10 13 11.3477 13 13C13 14.25 14.6133 17.4922 15.1094 18.457L16 20.1875L16.8906 18.457C17.3867 17.4922 19 14.25 19 13C19 11.3477 17.6523 10 16 10ZM27 10C26.4492 10 26 10.4492 26 11C26 11.5508 26.4492 12 27 12C27.5508 12 28 11.5508 28 11C28 10.4492 27.5508 10 27 10ZM16 12C16.5508 12 17 12.4492 17 13C17 13.5508 16.5508 14 16 14C15.4492 14 15 13.5508 15 13C15 12.4492 15.4492 12 16 12ZM27 13C26.4492 13 26 13.4492 26 14C26 14.5508 26.4492 15 27 15C27.5508 15 28 14.5508 28 14C28 13.4492 27.5508 13 27 13ZM27 16C26.4492 16 26 16.4492 26 17C26 17.5508 26.4492 18 27 18C27.5508 18 28 17.5508 28 17C28 16.4492 27.5508 16 27 16ZM7 18C6.44922 18 6 18.4492 6 19C6 19.5508 6.44922 20 7 20C7.55078 20 8 19.5508 8 19C8 18.4492 7.55078 18 7 18ZM10 18C9.44922 18 9 18.4492 9 19C9 19.5508 9.44922 20 10 20C10.5508 20 11 19.5508 11 19C11 18.4492 10.5508 18 10 18ZM13 18C12.4492 18 12 18.4492 12 19C12 19.5508 12.4492 20 13 20C13.5508 20 14 19.5508 14 19C14 18.4492 13.5508 18 13 18ZM19 18C18.4492 18 18 18.4492 18 19C18 19.5508 18.4492 20 19 20C19.5508 20 20 19.5508 20 19C20 18.4492 19.5508 18 19 18ZM22 18C21.4492 18 21 18.4492 21 19C21 19.5508 21.4492 20 22 20C22.5508 20 23 19.5508 23 19C23 18.4492 22.5508 18 22 18ZM25 18C24.4492 18 24 18.4492 24 19C24 19.5508 24.4492 20 25 20C25.5508 20 26 19.5508 26 19C26 18.4492 25.5508 18 25 18ZM5 20C4.44922 20 4 20.4492 4 21C4 21.5508 4.44922 22 5 22C5.55078 22 6 21.5508 6 21C6 20.4492 5.55078 20 5 20ZM5 23C4.44922 23 4 23.4492 4 24C4 24.5508 4.44922 25 5 25C5.55078 25 6 24.5508 6 24C6 23.4492 5.55078 23 5 23ZM26 24C24.9062 24 24 24.9062 24 26C24 27.0938 24.9062 28 26 28C27.0938 28 28 27.0938 28 26C28 24.9062 27.0938 24 26 24ZM7 25C6.44922 25 6 25.4492 6 26C6 26.5508 6.44922 27 7 27C7.55078 27 8 26.5508 8 26C8 25.4492 7.55078 25 7 25ZM10 25C9.44922 25 9 25.4492 9 26C9 26.5508 9.44922 27 10 27C10.5508 27 11 26.5508 11 26C11 25.4492 10.5508 25 10 25ZM13 25C12.4492 25 12 25.4492 12 26C12 26.5508 12.4492 27 13 27C13.5508 27 14 26.5508 14 26C14 25.4492 13.5508 25 13 25ZM16 25C15.4492 25 15 25.4492 15 26C15 26.5508 15.4492 27 16 27C16.5508 27 17 26.5508 17 26C17 25.4492 16.5508 25 16 25ZM19 25C18.4492 25 18 25.4492 18 26C18 26.5508 18.4492 27 19 27C19.5508 27 20 26.5508 20 26C20 25.4492 19.5508 25 19 25ZM22 25C21.4492 25 21 25.4492 21 26C21 26.5508 21.4492 27 22 27C22.5508 27 23 26.5508 23 26C23 25.4492 22.5508 25 22 25Z" fill="black"/>
</g>
</svg>
