<svg width="32" height="32" viewBox="0 0 32 32" fill="none" xmlns="http://www.w3.org/2000/svg">
<g id="rss-solid">
<path id="Vector" d="M5 5V9C14.93 9 23 17.07 23 27H27C27 14.85 17.15 5 5 5ZM5 12V16C11.07 16 16 20.93 16 27H20C20 18.72 13.28 12 5 12ZM8 21C7.20435 21 6.44129 21.3161 5.87868 21.8787C5.31607 22.4413 5 23.2044 5 24C5 24.7956 5.31607 25.5587 5.87868 26.1213C6.44129 26.6839 7.20435 27 8 27C8.79565 27 9.55871 26.6839 10.1213 26.1213C10.6839 25.5587 11 24.7956 11 24C11 23.2044 10.6839 22.4413 10.1213 21.8787C9.55871 21.3161 8.79565 21 8 21Z" fill="black"/>
</g>
</svg>
