<svg width="32" height="32" viewBox="0 0 32 32" fill="none" xmlns="http://www.w3.org/2000/svg">
<g id="rss-square-solid">
<path id="Vector" d="M5 5V27H27V5H5ZM7 7H25V25H7V7ZM12 10C11.3164 10 10.6445 10.0547 10 10.1875V12.25C10.6406 12.082 11.3086 12 12 12C16.4102 12 20 15.5898 20 20C20 20.6914 19.9141 21.3594 19.75 22H21.8125C21.9453 21.3555 22 20.6836 22 20C22 14.4844 17.5156 10 12 10ZM12 14C11.2969 14 10.6289 14.1211 10 14.3438V16.5625C10.5898 16.2188 11.2695 16 12 16C14.207 16 16 17.793 16 20C16 20.7305 15.7812 21.4102 15.4375 22H17.6562C17.8789 21.3711 18 20.7031 18 20C18 16.6914 15.3086 14 12 14ZM12 18C10.8945 18 10 18.8945 10 20C10 21.1055 10.8945 22 12 22C13.1055 22 14 21.1055 14 20C14 18.8945 13.1055 18 12 18Z" fill="black"/>
</g>
</svg>
