<svg width="32" height="32" viewBox="0 0 32 32" fill="none" xmlns="http://www.w3.org/2000/svg">
<g id="ruler-solid">
<path id="Vector" d="M20.5312 3.59375L3.59375 20.5312L11.4688 28.4062L28.4062 11.4688L20.5312 3.59375ZM20.5312 6.4375L25.5625 11.4688L11.4688 25.5625L6.4375 20.5312L7.59375 19.375L9.75 21.5312L11.1875 20.125L9 17.9375L10.1875 16.7812L11.0625 17.6562L12.4688 16.2188L11.5938 15.375L12.7812 14.1875L14.9375 16.3438L16.3438 14.9375L14.1875 12.7812L15.375 11.5938L16.2188 12.4688L17.6562 11.0625L16.7812 10.1875L17.9375 9L20.125 11.1875L21.5312 9.75L19.375 7.59375L20.5312 6.4375Z" fill="black"/>
</g>
</svg>
