<svg width="32" height="32" viewBox="0 0 32 32" fill="none" xmlns="http://www.w3.org/2000/svg">
<g id="running-solid">
<path id="Vector" d="M20.2188 5C18.5391 5 17.1562 6.38281 17.1562 8.0625C17.1562 9.74219 18.5391 11.125 20.2188 11.125C21.9023 11.125 23.3125 9.74219 23.3125 8.0625C23.3125 6.38281 21.9023 5 20.2188 5ZM20.2188 7C20.8203 7 21.3125 7.46484 21.3125 8.0625C21.3125 8.66016 20.8203 9.125 20.2188 9.125C19.6211 9.125 19.1562 8.66406 19.1562 8.0625C19.1562 7.46484 19.6211 7 20.2188 7ZM12.9375 9C12.457 9.05859 11.9727 9.28125 11.625 9.65625L8.25 13.3125L9.75 14.6875L13.0938 11.0312C13.1289 10.9961 13.1758 10.9727 13.2188 11L14.8125 12.0625L12.4688 15.3125C11.7344 16.3438 11.8555 17.7617 12.75 18.6562L16.2812 22.1875L13.375 28H15.625L18.0938 23.0938C18.4805 22.3242 18.3281 21.3906 17.7188 20.7812L14.1875 17.25C13.9844 17.0469 13.957 16.7031 14.125 16.4688L16.4688 13.1875L17.2812 13.7188L18.875 16.125C19.2461 16.6797 19.8633 17 20.5312 17H25V15H20.5312L18.8438 12.4375L18.7188 12.2812L18.5625 12.1562L14.3438 9.34375C13.918 9.05859 13.418 8.94141 12.9375 9ZM12.0625 19.5312L10.5938 21H6V23H10.5938C11.1211 23 11.625 22.7852 12 22.4062L13.4688 20.9375L12.0625 19.5312Z" fill="black"/>
</g>
</svg>
