<svg width="32" height="32" viewBox="0 0 32 32" fill="none" xmlns="http://www.w3.org/2000/svg">
<g id="sad-tear">
<path id="Vector" d="M16 4C9.38281 4 4 9.38281 4 16C4 22.6172 9.38281 28 16 28C22.6172 28 28 22.6172 28 16C28 9.38281 22.6172 4 16 4ZM16 6C21.5352 6 26 10.4648 26 16C26 21.5352 21.5352 26 16 26C10.4648 26 6 21.5352 6 16C6 10.4648 10.4648 6 16 6ZM12 10C10.7617 10 9.82031 10.6914 9.1875 11.2812C8.55469 11.8711 8.15625 12.4375 8.15625 12.4375L9.84375 13.5625C9.84375 13.5625 10.0898 13.1289 10.5312 12.7188C10.9727 12.3086 11.5469 12 12 12H15V10H12ZM17 10V12H20C20.4531 12 21.0273 12.3086 21.4688 12.7188C21.9102 13.1289 22.1562 13.5625 22.1562 13.5625L23.8438 12.4375C23.8438 12.4375 23.4453 11.8711 22.8125 11.2812C22.1797 10.6914 21.2383 10 20 10H17ZM8.5 14C8.5 14 7 16.6719 7 17.5C7 18.3281 7.67188 19 8.5 19C9.32812 19 10 18.3281 10 17.5C10 16.6719 8.5 14 8.5 14ZM16 16C13.6641 16 12.0664 17.2344 11.1875 18.4062C10.3086 19.5781 10.0312 20.75 10.0312 20.75L9.71875 22H22.2812L21.9688 20.75C21.9688 20.75 21.6914 19.5781 20.8125 18.4062C19.9336 17.2344 18.3359 16 16 16ZM16 18C17.6719 18 18.5664 18.7656 19.1875 19.5938C19.3398 19.8008 19.3008 19.8086 19.4062 20H12.5938C12.6992 19.8086 12.6602 19.8008 12.8125 19.5938C13.4336 18.7656 14.3281 18 16 18Z" fill="black"/>
</g>
</svg>
