<svg width="32" height="32" viewBox="0 0 32 32" fill="none" xmlns="http://www.w3.org/2000/svg">
<g id="sad-cry-solid">
<path id="Vector" d="M16 3C8.832 3 3 8.832 3 16C3 23.168 8.832 29 16 29C23.168 29 29 23.168 29 16C29 8.832 23.168 3 16 3ZM16 5C22.065 5 27 9.935 27 16C27 19.4076 25.4408 22.4572 23 24.4766V16C23 15.448 22.553 15 22 15C21.447 15 21 15.448 21 16V25.7852C19.4977 26.5561 17.8013 27 16 27C14.1987 27 12.5023 26.5561 11 25.7852V16C11 15.448 10.553 15 10 15C9.447 15 9 15.448 9 16V24.4766C6.55917 22.4572 5 19.4076 5 16C5 9.935 9.935 5 16 5ZM12 10C10.76 10 9.81945 10.6893 9.18945 11.2793C8.54945 11.8693 8.16016 12.4395 8.16016 12.4395L9.83984 13.5605C9.83984 13.5605 10.0893 13.1307 10.5293 12.7207C10.9693 12.3107 11.55 12 12 12H15V10H12ZM17 10V12H20C20.45 12 21.0307 12.3107 21.4707 12.7207C21.9107 13.1307 22.1602 13.5605 22.1602 13.5605L23.8398 12.4395C23.8398 12.4395 23.4505 11.8693 22.8105 11.2793C22.1805 10.6893 21.24 10 20 10H17ZM16 16C14.346 16 13 17.57 13 19.5C13 21.43 14.346 23 16 23C17.654 23 19 21.43 19 19.5C19 17.57 17.654 16 16 16ZM16 18C16.532 18 17 18.701 17 19.5C17 20.299 16.532 21 16 21C15.468 21 15 20.299 15 19.5C15 18.701 15.468 18 16 18Z" fill="black"/>
</g>
</svg>
