<svg width="32" height="32" viewBox="0 0 32 32" fill="none" xmlns="http://www.w3.org/2000/svg">
<g id="safari">
<path id="Vector" d="M16 4C9.38281 4 4 9.38281 4 16C4 22.6172 9.38281 28 16 28C22.6172 28 28 22.6172 28 16C28 9.38281 22.6172 4 16 4ZM16 6C21.5352 6 26 10.4648 26 16C26 21.5352 21.5352 26 16 26C10.4648 26 6 21.5352 6 16C6 10.4648 10.4648 6 16 6ZM16.5312 7.03125L16.4375 9.03125H16.6562L16.8438 9.0625L17.125 7.0625H16.9688L16.9062 7.03125H16.5312ZM14.8125 7.09375L14.3438 7.15625L14.625 9.125L15.125 9.0625L14.8125 7.09375ZM18.7812 7.4375L18.0938 9.3125L18.5625 9.5L19.25 7.625L18.7812 7.4375ZM12.6875 7.625L12.5312 7.6875L12.5 7.71875H12.4375L12.1562 7.875L13 9.6875L13.2188 9.5625L13.3125 9.53125L13.375 9.5L12.6875 7.625ZM20.7812 8.375L19.75 10.0938L19.9375 10.1875L19.9688 10.2188L20.0938 10.3125L21.2812 8.71875L21.0625 8.5625L21 8.5L20.7812 8.375ZM10.6875 8.75L10.3125 9.03125L10.25 9.09375H10.2188L11.0938 10.0625L11.5 10.625L11.5625 10.5938L11.5938 10.5625L11.875 10.3438L10.6875 8.75ZM22.2812 9.59375L14.9375 14.9062L9.78125 22.25L10.8125 21.5312L9.875 22.5625L10.25 22.9062L11.5938 21.4375L11.3125 21.1875L17.1562 17.125L21.125 11.2812L21.4062 11.5625L22.875 10.2188L22.5625 9.84375L21.4062 10.875L22.2812 9.59375ZM9.03125 10.3125L8.71875 10.7188L10.3125 11.9062L10.625 11.5L9.03125 10.3125ZM23.8438 11.5938L22.4688 12.4688L22.125 12.625L22.1562 12.6562L22.1875 12.7188L22.3125 13L24.125 12.125L23.9375 11.75L23.9062 11.7188L23.8438 11.5938ZM7.875 12.1875L7.71875 12.4375V12.5L7.6875 12.5312L7.625 12.7188L9.5 13.4062L9.5625 13.2188L9.65625 13.0312L7.875 12.1875ZM24.6875 13.75L22.75 14.2188L22.8438 14.5312L22.875 14.625L24.8438 14.3125L24.8125 14.25V14.125L24.6875 13.75ZM7.15625 14.375L7.09375 14.875L9.0625 15.1562L9.125 14.6562L7.15625 14.375ZM25 15.9062L23.75 16L23 15.9375V16.0625L22.9688 16.4375L24.9688 16.5625L25 16.0625L24 16L25 15.9375V15.9062ZM9.03125 16.4688L7.03125 16.5625V16.9062L7.0625 16.9688L7.09375 17.1562L9.0625 16.875L9.03125 16.7812V16.4688ZM22.7812 17.75L22.6562 18.125L24.5312 18.8125L24.5938 18.7188V18.625L24.7188 18.25L22.7812 17.75ZM9.34375 18.125L7.46875 18.8125L7.625 19.3125L9.5 18.625L9.34375 18.125ZM22.1562 19.3438L21.9062 19.75L23.5938 20.8125L23.875 20.375L22.1562 19.3438ZM10.125 19.7812L8.40625 20.8125L8.5 21L8.5625 21.0625L8.75 21.3125L10.3438 20.0938L10.2188 19.9688L10.1875 19.9062L10.1562 19.875L10.125 19.7812ZM21.0938 20.7812L20.9062 20.9688L20.8125 21.0938L22.1562 22.5625L22.3438 22.4062L22.4062 22.3438L22.5625 22.1562L21.0938 20.7812ZM19.7812 21.9062L19.3438 22.1562L20.375 23.875L20.8125 23.5938L19.7812 21.9062ZM12.625 22.125L12.3438 22.7188L11.625 23.875H11.6562L11.7188 23.9062L11.75 23.9375L12.1562 24.125L13.0312 22.3438L12.7188 22.1875L12.6875 22.1562L12.625 22.125ZM18.125 22.6562L17.75 22.7812L18.25 24.7188L18.625 24.5938H18.7188L18.8125 24.5312L18.125 22.6562ZM14.2812 22.7812L13.7812 24.7188L14.125 24.8125H14.25L14.3438 24.8438L14.6562 22.875H14.625L14.5312 22.8438L14.2812 22.7812ZM16.4688 22.9688L15.9688 23L16.0625 25L16.5625 24.9688L16.4688 22.9688Z" fill="black"/>
</g>
</svg>
