<svg width="32" height="32" viewBox="0 0 32 32" fill="none" xmlns="http://www.w3.org/2000/svg">
<g id="salesforce">
<path id="Vector" d="M10 6C6.14453 6 3 9.14453 3 13C3 13.4219 3.07422 13.8125 3.14844 14.2031C2.46875 15.2031 2 16.375 2 17.6875C2 21.1328 4.79297 23.9336 8.22656 23.9844C9.48438 25.1836 11.1289 26 13 26C14.9219 26 16.5977 25.1406 17.8633 23.8867C17.9219 23.8906 17.9297 23.8945 18 23.8945C19.5977 23.8945 20.8984 23.0234 21.7891 21.8398C22.1875 21.9102 22.5781 22 23 22C26.8555 22 30 18.8555 30 15C30 11.1445 26.8555 8 23 8C22.3047 8 21.6641 8.17969 21.0312 8.36719C19.8867 7.54297 18.5156 7 17 7C16.0547 7 15.2031 7.3125 14.375 7.65625C13.1719 6.66797 11.6797 6 10 6ZM10 8C11.3633 8 12.582 8.53906 13.4844 9.42188L14.0078 9.92969L14.6523 9.58594C15.3516 9.21094 16.1484 9 17 9C18.2266 9 19.3398 9.4375 20.207 10.168L20.6602 10.5469L21.2109 10.3359C21.7734 10.1211 22.3711 10 23 10C25.7734 10 28 12.2266 28 15C28 17.7734 25.7734 20 23 20C22.5586 20 22.125 19.9336 21.7031 19.8242L20.9258 19.6133L20.5586 20.3281C20.0703 21.2617 19.1211 21.8945 18 21.8945C17.9922 21.8945 17.8984 21.8828 17.6992 21.8594L17.1719 21.8086L16.8281 22.2148C15.9102 23.3047 14.543 24 13 24C11.5078 24 10.1836 23.3477 9.26562 22.3125L8.94922 21.957L8.47656 21.9805C8.26172 21.9883 8.21094 22 8.3125 22C5.91797 22 4 20.082 4 17.6875C4 16.6797 4.35938 15.7656 4.95312 15.0195L5.25781 14.6406L5.14062 14.168C5.05078 13.7812 5 13.3945 5 13C5 10.2266 7.22656 8 10 8ZM11.2656 13C11.2461 13 11.2305 13.0156 11.2305 13.0391V15.957C11.2305 15.9805 11.2461 16 11.2656 16H11.6055C11.6289 16 11.6406 15.9805 11.6406 15.957V13.0391C11.6406 13.0195 11.625 13 11.6055 13H11.2656ZM17.1992 13C16.957 13 16.7695 13.0664 16.6367 13.2031C16.5039 13.3359 16.4102 13.5625 16.3633 13.8281L16.3398 14H16.0391C16.0391 14 16 14.0117 15.9961 14.0508L15.9453 14.3281C15.9414 14.3516 15.9531 14.3711 15.9883 14.3711H16.2812L15.9883 16.0039C15.9648 16.1406 15.9375 16.25 15.9062 16.332C15.8789 16.4141 15.8516 16.4766 15.8164 16.5195C15.7812 16.5664 15.75 16.5977 15.6953 16.6133C15.6484 16.6289 15.5977 16.6367 15.5391 16.6367C15.5078 16.6367 15.4648 16.6328 15.4336 16.625C15.4023 16.6172 15.3867 16.6133 15.3594 16.6016C15.3594 16.6016 15.3281 16.5898 15.3125 16.625C15.3008 16.6523 15.2227 16.8672 15.2148 16.8906C15.207 16.918 15.2188 16.9375 15.2344 16.9453C15.2734 16.9609 15.3047 16.9688 15.3594 16.9805C15.4297 17 15.4922 17 15.5469 17C15.6719 17 15.7812 16.9805 15.875 16.9492C15.9688 16.9141 16.0469 16.8594 16.1211 16.7812C16.1953 16.6953 16.2461 16.6055 16.293 16.4844C16.3398 16.3633 16.375 16.2109 16.4062 16.0352L16.7031 14.3711H17.1406C17.1406 14.3711 17.1797 14.3711 17.1875 14.3281L17.2344 14.0547C17.2383 14.0273 17.2266 14 17.1914 14H16.7695C16.7734 13.9922 16.8008 13.7344 16.8516 13.5938C16.8711 13.5352 16.9102 13.4844 16.9414 13.4531C16.9766 13.418 17.0156 13.3945 17.0547 13.3828C17.0977 13.3711 17.1445 13.3633 17.1992 13.3633C17.2383 13.3633 17.2773 13.3672 17.3086 13.375C17.3477 13.3828 17.3633 13.3867 17.375 13.3906C17.418 13.4023 17.4219 13.3906 17.4336 13.3711L17.5312 13.0938C17.543 13.0625 17.5195 13.0508 17.5117 13.0469C17.4688 13.0312 17.4297 13.0234 17.3789 13.0156C17.3281 13.0039 17.2656 13 17.1992 13ZM8.02344 14C7.58984 14 7.28906 14.2422 7.28906 14.5859V14.5938C7.28906 14.9531 7.62109 15.0742 7.93359 15.1562L7.98438 15.1719C8.21094 15.2344 8.40625 15.2891 8.40625 15.4375V15.4414C8.40625 15.5781 8.27734 15.6758 8.07422 15.6758C7.99609 15.6758 7.74219 15.6758 7.46875 15.5156C7.43359 15.5 7.41406 15.4883 7.39062 15.4727C7.375 15.4648 7.34375 15.4531 7.32812 15.4922L7.23438 15.7305C7.21875 15.7656 7.23828 15.7734 7.24219 15.7812C7.28906 15.8086 7.33203 15.8281 7.375 15.8516C7.60938 15.9648 7.83203 16 8.0625 16C8.53516 16 8.82812 15.7695 8.82812 15.3945V15.3906C8.82812 15.043 8.49609 14.918 8.1875 14.8281L8.14844 14.8164C7.91406 14.7461 7.71094 14.6875 7.71094 14.5469V14.5352C7.71094 14.4141 7.82812 14.3281 8.01172 14.3281C8.21484 14.3281 8.45312 14.3867 8.60938 14.4688C8.60938 14.4688 8.65625 14.4922 8.67188 14.4531C8.68359 14.4297 8.76172 14.2344 8.76953 14.2148C8.77734 14.1914 8.76172 14.1758 8.74609 14.168C8.57031 14.0664 8.32422 14 8.07031 14H8.02344ZM9.98828 14C9.88672 14 9.73047 14.0117 9.63281 14.0312C9.63281 14.0312 9.33984 14.082 9.21875 14.1719C9.21875 14.1719 9.19531 14.1836 9.21094 14.2188L9.30469 14.4531C9.31641 14.4844 9.34766 14.4727 9.34766 14.4727C9.34766 14.4727 9.35547 14.4688 9.36719 14.4648C9.625 14.332 9.94922 14.3398 9.94922 14.3398C10.0938 14.3398 10.2031 14.3633 10.2812 14.418C10.3516 14.4688 10.3906 14.5508 10.3906 14.7148V14.7656C10.2773 14.75 10.1719 14.7383 10.1719 14.7383C10.1172 14.7344 10.0469 14.7344 9.96094 14.7344C9.84766 14.7344 9.73828 14.7461 9.63281 14.7734C9.52734 14.8008 9.43359 14.8398 9.35547 14.8945C9.27344 14.9492 9.21094 15.0156 9.16406 15.0977C9.11328 15.1797 9.08984 15.2773 9.08984 15.3828C9.08984 15.4922 9.10938 15.5859 9.14844 15.6641C9.19141 15.7422 9.25 15.8086 9.32422 15.8594C9.39844 15.9062 9.49219 15.9453 9.59375 15.9688C9.69922 15.9883 9.82031 16 9.94922 16C10.0859 16 10.2227 15.9883 10.3555 15.9688C10.4883 15.9492 10.6445 15.918 10.6914 15.9062C10.7344 15.8984 10.7812 15.8867 10.7812 15.8867C10.8164 15.8789 10.8125 15.8477 10.8125 15.8477V14.7188C10.8125 14.4688 10.7422 14.2852 10.6016 14.1719C10.4609 14.0586 10.2539 14 9.98828 14ZM12.9883 14C12.8242 14 12.6719 14.0234 12.5508 14.0781C12.4297 14.1328 12.3242 14.207 12.2461 14.2969C12.1641 14.3867 12.1016 14.4961 12.0625 14.6172C12.0234 14.7383 12.0039 14.8711 12.0039 15.0117C12.0039 15.1562 12.0273 15.2891 12.0664 15.4062C12.1055 15.5273 12.1719 15.6328 12.2617 15.7188C12.3477 15.8086 12.457 15.8789 12.5938 15.9258C12.7266 15.9766 12.8906 16 13.0781 16C13.4648 15.9961 13.6641 15.918 13.75 15.875C13.7617 15.8672 13.7773 15.8555 13.7617 15.8164L13.6719 15.5898C13.6602 15.5547 13.6211 15.5664 13.6211 15.5664C13.5234 15.6016 13.3906 15.6602 13.0742 15.6602C12.8672 15.6602 12.7148 15.6055 12.6211 15.5156C12.5195 15.4258 12.4727 15.293 12.4648 15.1055H13.7969C13.7969 15.1055 13.832 15.1055 13.8359 15.0742C13.8359 15.0586 13.8828 14.8164 13.7969 14.5391C13.7656 14.4219 13.6797 14.3047 13.625 14.25C13.5391 14.1641 13.457 14.1055 13.375 14.0742C13.2656 14.0273 13.1328 14 12.9883 14ZM14.8906 14C14.4609 14 14.1562 14.2422 14.1562 14.5859V14.5938C14.1562 14.9531 14.4922 15.0742 14.8008 15.1562L14.8555 15.1719C15.082 15.2344 15.2773 15.2891 15.2773 15.4375V15.4414C15.2773 15.5781 15.1484 15.6758 14.9414 15.6758C14.8633 15.6758 14.6094 15.6758 14.3359 15.5156C14.3047 15.5 14.2812 15.4883 14.2578 15.4727C14.25 15.4688 14.2109 15.4531 14.1953 15.4922L14.1055 15.7305C14.0898 15.7656 14.1094 15.7734 14.1133 15.7812C14.1562 15.8086 14.1992 15.8281 14.2461 15.8516C14.4805 15.9648 14.6992 16 14.9336 16C15.4023 16 15.6992 15.7695 15.6992 15.3945V15.3906C15.6992 15.043 15.3672 14.918 15.0586 14.8281L15.0156 14.8164C14.7812 14.7461 14.5781 14.6875 14.5781 14.5469V14.5352C14.5781 14.4141 14.6992 14.3281 14.8789 14.3281C15.082 14.3281 15.3242 14.3867 15.4805 14.4688C15.4805 14.4688 15.5273 14.4922 15.543 14.4531C15.5508 14.4297 15.6289 14.2344 15.6406 14.2148C15.6484 14.1914 15.6328 14.1758 15.6133 14.168C15.4375 14.0664 15.1914 14 14.9375 14H14.8906ZM18.1602 14C18 14 17.8555 14.0273 17.7344 14.0781C17.6172 14.1289 17.5156 14.2031 17.4375 14.293C17.3555 14.3828 17.293 14.4883 17.2539 14.6094C17.2188 14.7305 17.1992 14.8633 17.1992 15.0039C17.1992 15.1445 17.2188 15.2773 17.2539 15.3945C17.293 15.5156 17.3555 15.625 17.4375 15.7148C17.5156 15.8008 17.6172 15.875 17.7383 15.9258C17.8594 15.9766 18 16 18.1602 16C18.3203 16 18.4609 15.9766 18.582 15.9219C18.7031 15.8711 18.8047 15.8008 18.8867 15.7109C18.9648 15.6211 19.0273 15.5156 19.0625 15.3945C19.1016 15.2734 19.1211 15.1406 19.1211 15C19.1211 14.8633 19.1016 14.7305 19.0625 14.6094C19.0273 14.4883 18.9648 14.3828 18.8867 14.293C18.8047 14.2031 18.7031 14.1289 18.582 14.0781C18.4609 14.0273 18.3203 14 18.1602 14ZM21.6445 14C21.4805 14 21.332 14.0273 21.2031 14.0781C21.0781 14.1289 20.9727 14.2031 20.8906 14.293C20.8047 14.3789 20.7383 14.4883 20.6992 14.6094C20.6523 14.7266 20.6328 14.8633 20.6328 15C20.6328 15.3047 20.7188 15.5508 20.8945 15.7305C21.0703 15.9102 21.3281 16 21.6719 16C21.875 16 22.082 15.9609 22.2305 15.9062C22.2305 15.9062 22.2578 15.8945 22.2461 15.8633L22.1484 15.6172C22.1367 15.582 22.0977 15.5938 22.0977 15.5938C22.043 15.6172 21.9805 15.6328 21.918 15.6406C21.8516 15.6523 21.7773 15.6562 21.6992 15.6562C21.5078 15.6562 21.3555 15.6055 21.25 15.5C21.1406 15.3984 21.0781 15.2305 21.0781 15C21.082 14.7969 21.1328 14.6406 21.2305 14.5195C21.3281 14.4023 21.4727 14.3438 21.668 14.3438C21.8281 14.3438 21.9531 14.3633 22.082 14.3984C22.082 14.3984 22.1172 14.4102 22.1289 14.375C22.1641 14.2852 22.1914 14.2227 22.2266 14.125C22.2383 14.0938 22.2109 14.082 22.2031 14.0781C22.1484 14.0625 22.0312 14.0312 21.9375 14.0156C21.8555 14.0039 21.7539 14 21.6445 14ZM23.2773 14C23.1133 14 22.9609 14.0234 22.8398 14.0781C22.7148 14.1328 22.6133 14.207 22.5312 14.2969C22.4492 14.3867 22.3867 14.4961 22.3477 14.6172C22.3125 14.7383 22.293 14.8711 22.293 15.0117C22.293 15.1562 22.3125 15.2891 22.3555 15.4062C22.3945 15.5273 22.457 15.6328 22.5469 15.7188C22.6367 15.8086 22.7461 15.8789 22.8789 15.9258C23.0156 15.9766 23.1797 16 23.3633 16C23.75 15.9961 23.9531 15.918 24.0352 15.875C24.0508 15.8672 24.0664 15.8555 24.0469 15.8164L23.957 15.5898C23.9453 15.5547 23.9062 15.5664 23.9062 15.5664C23.8125 15.6016 23.6758 15.6602 23.3594 15.6602C23.1562 15.6602 23.0039 15.6055 22.9062 15.5156C22.8086 15.4258 22.7617 15.293 22.75 15.1055H24.082C24.082 15.1055 24.1172 15.1055 24.125 15.0742C24.125 15.0586 24.168 14.8164 24.082 14.5391C24.0508 14.4219 23.9648 14.3047 23.9102 14.25C23.8242 14.1641 23.7422 14.1055 23.6602 14.0742C23.5508 14.0273 23.4219 14 23.2773 14ZM20.3867 14C20.2148 13.9922 20.1211 14.0195 20.0391 14.0547C19.957 14.0898 19.8672 14.1484 19.8125 14.2148V14.0586C19.8125 14.0352 19.8008 14.0195 19.7773 14.0195H19.4375C19.4141 14.0195 19.3945 14.0352 19.3945 14.0586V15.9609C19.3945 15.9805 19.4141 16 19.4375 16H19.7852C19.8086 16 19.8281 15.9805 19.8281 15.9609V15.0117C19.8281 14.8828 19.8438 14.7539 19.8711 14.6719C19.8984 14.5938 19.9375 14.5312 19.9883 14.4844C20.0391 14.4414 20.0938 14.4102 20.1562 14.3906C20.2148 14.3711 20.2852 14.3672 20.332 14.3672C20.4023 14.3672 20.4805 14.3867 20.4805 14.3867C20.5039 14.3867 20.5195 14.3711 20.5273 14.3477C20.5508 14.293 20.6133 14.1172 20.625 14.082C20.6367 14.0547 20.6172 14.0391 20.6094 14.0352C20.5859 14.0273 20.4727 14.0078 20.3867 14ZM12.957 14.3281C13.1328 14.3281 13.25 14.3906 13.332 14.5078C13.3867 14.5859 13.4102 14.6836 13.4219 14.7969H12.4688C12.4883 14.6797 12.5234 14.5859 12.5781 14.5078C12.6562 14.3906 12.7812 14.3281 12.957 14.3281ZM23.2461 14.3281C23.4219 14.3281 23.5352 14.3906 23.6211 14.5078C23.6758 14.5859 23.6992 14.6836 23.707 14.7969H22.7578C22.7773 14.6797 22.8125 14.5859 22.8633 14.5078C22.9453 14.3906 23.0703 14.3281 23.2461 14.3281ZM18.1602 14.3359C18.3359 14.3359 18.4609 14.3906 18.543 14.5078C18.6289 14.625 18.6719 14.7891 18.6719 15C18.6719 15.2148 18.6289 15.3789 18.5469 15.5C18.4609 15.6133 18.3359 15.6719 18.1602 15.6719C17.9844 15.6719 17.8594 15.6133 17.7812 15.5C17.6953 15.3789 17.6562 15.2148 17.6562 15C17.6562 14.7891 17.6953 14.625 17.7773 14.5078C17.8594 14.3945 17.9844 14.3359 18.1602 14.3359ZM10.0273 15.0469C10.2188 15.0508 10.3906 15.0781 10.3906 15.0781V15.6406C10.3906 15.6406 10.2188 15.6719 10.0312 15.6836C9.75781 15.6953 9.63672 15.6094 9.64062 15.6094C9.58594 15.5703 9.58203 15.5586 9.5625 15.5352C9.53516 15.4961 9.52344 15.4453 9.52344 15.375C9.52344 15.2656 9.5625 15.1875 9.64062 15.1367C9.64062 15.1367 9.75391 15.043 10.0273 15.0469Z" fill="black"/>
</g>
</svg>
