<svg width="32" height="32" viewBox="0 0 32 32" fill="none" xmlns="http://www.w3.org/2000/svg">
<g id="sass">
<path id="Vector" d="M15.1445 5.01378C13.7312 4.93919 12.1423 5.15579 10.5879 5.69542C8.11789 6.55242 5.44639 7.90035 3.52539 9.65635C1.24339 11.7464 0.877343 13.5653 1.02734 14.3263C1.56134 17.0253 5.36762 18.786 6.89062 20.088C6.81562 20.129 6.74569 20.1643 6.67969 20.2013C5.91569 20.5723 3.08147 22.0298 2.35547 23.5978C1.53547 25.3758 2.49114 26.6484 3.11914 26.8224C5.07814 27.3544 7.01675 26.4246 8.09375 24.8536C9.17175 23.2816 9.04192 21.23 8.54492 20.295C8.53992 20.281 8.53039 20.2719 8.52539 20.2579C8.72239 20.1429 8.923 20.0272 9.125 19.9122C9.514 19.6872 9.89356 19.4818 10.2266 19.3028C10.0386 19.7978 9.90303 20.395 9.83203 21.256C9.74803 22.264 10.1736 23.5681 10.7266 24.0821C10.9706 24.3071 11.2653 24.3126 11.4473 24.3126C12.0943 24.3126 12.385 23.7901 12.707 23.1661C13.105 22.4051 13.457 21.5216 13.457 21.5216C13.457 21.5216 13.0177 23.9122 14.2227 23.9122C14.6627 23.9122 15.1038 23.3583 15.3008 23.0743V23.0782C15.3008 23.0782 15.308 23.0605 15.332 23.0235C15.379 22.9545 15.4023 22.9142 15.4023 22.9142V22.9005C15.5803 22.6025 15.9706 21.9201 16.5566 20.7931C17.3156 19.3361 18.041 17.5157 18.041 17.5157C18.111 17.9157 18.208 18.3104 18.332 18.6974C18.463 19.1324 18.7409 19.6094 18.9609 20.0724C18.7829 20.3104 18.6738 20.4474 18.6738 20.4474C18.6738 20.4514 18.6767 20.4551 18.6797 20.4571C18.5387 20.6401 18.3788 20.8364 18.2148 21.0294C17.6148 21.7264 16.9016 22.525 16.8086 22.754C16.6956 23.024 16.7245 23.225 16.9395 23.381C17.0985 23.5 17.3818 23.5182 17.6758 23.4962C18.2148 23.4592 18.5943 23.3302 18.7773 23.2481C19.1143 23.1301 19.4327 22.9678 19.7227 22.7638C20.3087 22.3418 20.6658 21.7366 20.6328 20.9396C20.6138 20.4996 20.4671 20.0586 20.2891 19.6466C20.3411 19.5736 20.3982 19.4961 20.4492 19.4181C21.3772 18.0941 22.0938 16.6407 22.0938 16.6407C22.1637 17.0407 22.2608 17.4354 22.3848 17.8224C22.4978 18.1934 22.7179 18.6011 22.9199 19.0001C22.0489 19.6921 21.5083 20.4946 21.3203 21.0216C20.9733 21.9976 21.2468 22.4362 21.7578 22.5372C21.9878 22.5832 22.3146 22.479 22.5586 22.379C22.9206 22.261 23.2613 22.0892 23.5703 21.8692C24.1563 21.4472 24.7235 20.8568 24.6855 20.0548C24.6715 19.6928 24.5696 19.3305 24.4336 18.9825C25.1696 18.6805 26.1248 18.5154 27.3438 18.6524C29.9538 18.9504 30.4652 20.5451 30.3672 21.2091C30.2692 21.8741 29.7201 22.2456 29.5371 22.3556C29.3541 22.4656 29.2985 22.5069 29.3125 22.5899C29.3355 22.7089 29.4192 22.7039 29.5742 22.6759C29.7902 22.6389 30.9421 22.1354 30.9941 20.9024C31.0691 19.3452 29.5386 17.6324 26.8262 17.6446H26.8223C25.8806 17.6452 24.9522 17.8563 24.1074 18.2638C23.8304 17.7188 23.544 17.2419 23.498 16.8849C23.442 16.4679 23.3823 16.2207 23.4473 15.7267C23.5133 15.2317 23.8077 14.5296 23.8027 14.4786C23.7977 14.4286 23.7368 14.177 23.1328 14.172C22.5288 14.167 22.0073 14.2865 21.9473 14.4415C21.8403 14.7265 21.7572 15.0185 21.6992 15.3165C21.5912 15.8525 20.4902 17.7687 19.8672 18.7677C19.6612 18.3777 19.4882 18.0349 19.4512 17.7599C19.3952 17.3429 19.3334 17.0957 19.3984 16.6017C19.4644 16.1067 19.7609 15.4046 19.7559 15.3536C19.7509 15.3036 19.6899 15.052 19.0859 15.047C18.4819 15.042 17.9594 15.1615 17.8984 15.3165C17.8374 15.4725 17.7714 15.8385 17.6504 16.1915C17.5284 16.5445 16.0617 19.7356 15.6777 20.5646C15.4807 20.9866 15.3115 21.3258 15.1895 21.5548C15.1705 21.5918 15.1574 21.6149 15.1484 21.6329C15.1624 21.6099 15.1719 21.5868 15.1719 21.5958C15.0689 21.7928 15.0078 21.9024 15.0078 21.9024V21.9064C14.9278 22.0534 14.8389 22.1876 14.7969 22.1876C14.7689 22.1876 14.7075 21.8025 14.8105 21.2755C15.0305 20.1665 15.5519 18.4429 15.5469 18.3829C15.5419 18.3509 15.6431 18.0527 15.2031 17.8927C14.7761 17.7417 14.6239 17.9942 14.5859 17.9942C14.5479 17.9942 14.5195 18.086 14.5195 18.086C14.5195 18.086 14.9914 16.1427 13.6094 16.1427C12.7464 16.1427 11.546 17.0684 10.957 17.9064C10.587 18.1034 9.78541 18.5305 8.94141 18.9845C8.61841 19.1585 8.28666 19.337 7.97266 19.506C7.94966 19.483 7.93025 19.4606 7.90625 19.4376C6.22825 17.6866 3.13072 16.4488 3.26172 14.0978C3.30872 13.2408 3.61475 10.9919 9.21875 8.25987C13.8127 6.02387 17.4852 6.63706 18.1172 8.00206C19.0262 9.95006 16.1528 13.5758 11.3828 14.0978C9.56481 14.2948 8.72728 13.5266 8.48828 13.2696C8.24028 12.9996 8.20142 12.9853 8.10742 13.0353C7.95242 13.1173 8.05142 13.3561 8.10742 13.4981C8.24842 13.8601 8.87505 14.4271 9.87305 14.7481C10.75 15.0281 12.7638 15.2632 15.3418 14.2872C18.2378 13.1962 20.4501 10.2326 19.7891 7.68956C19.3684 6.07393 17.5 5.13809 15.1445 5.01378ZM13.6074 17.2892C13.6807 17.2946 13.7351 17.3216 13.7656 17.3731C13.9296 17.6441 13.1958 19.639 13.0078 20.088C12.7078 20.808 12.0745 22.642 11.6895 22.545C11.3615 22.463 11.159 21.0646 11.623 19.6896C11.857 18.9976 12.3544 18.1727 12.6504 17.8517C13.0051 17.4632 13.3875 17.2729 13.6074 17.2892ZM23.3477 19.5509C23.4027 19.7109 23.4315 19.879 23.4355 20.047C23.4305 21.079 22.6767 21.4632 22.2227 21.6231C22.1287 21.5592 22.1411 21.3429 22.4551 20.6739C22.5771 20.4129 22.8597 19.9729 23.3477 19.5509ZM7.60352 20.6876C7.99252 22.0806 7.61798 23.3094 6.70898 24.2774C5.84698 25.1984 4.63719 25.547 4.11719 25.254C3.55919 24.937 3.77975 23.5798 4.84375 22.5978C5.49075 22.0018 6.32591 21.4524 6.87891 21.1134C7.00591 21.0404 7.18711 20.93 7.41211 20.797C7.45011 20.774 7.46875 20.7657 7.46875 20.7657C7.51075 20.7387 7.55652 20.7156 7.60352 20.6876ZM19.3809 20.8478C19.3809 20.8708 19.3867 20.895 19.3867 20.922C19.3807 21.742 18.573 22.2957 18.207 22.5157H18.2109V22.5177C18.0839 22.5817 17.9662 22.6219 17.9102 22.5899C17.8682 22.5669 17.9629 22.4806 17.9629 22.4806C17.9629 22.4806 18.6141 21.7965 18.8711 21.4845C19.0211 21.3015 19.1939 21.0858 19.3809 20.8478Z" fill="black"/>
</g>
</svg>
