<svg width="32" height="32" viewBox="0 0 32 32" fill="none" xmlns="http://www.w3.org/2000/svg">
<g id="satellite-dish-solid">
<path id="Vector" d="M16.5 4.5V6.5C21.4844 6.5 25.5 10.5156 25.5 15.5H27.5C27.5 9.4375 22.5625 4.5 16.5 4.5ZM16.5 8.5V10.5C19.2734 10.5 21.5 12.7266 21.5 15.5H23.5C23.5 11.6445 20.3555 8.5 16.5 8.5ZM7.90625 8.59375L7.21875 9.28125C2.94922 13.5508 2.94922 20.5117 7.21875 24.7812C11.4883 29.0508 18.4492 29.0508 22.7188 24.7812L23.4062 24.0938L22.7188 23.375L17.2188 17.875C18.2422 17.5625 19 16.6289 19 15.5C19 14.1211 17.8789 13 16.5 13C15.3711 13 14.4375 13.7578 14.125 14.7812L8.625 9.28125L7.90625 8.59375ZM8.0625 11.5625L20.4375 23.9375C16.918 26.7305 11.8828 26.6328 8.625 23.375C5.36719 20.1172 5.26953 15.082 8.0625 11.5625Z" fill="black"/>
</g>
</svg>
