<svg width="32" height="32" viewBox="0 0 32 32" fill="none" xmlns="http://www.w3.org/2000/svg">
<g id="satellite-solid">
<path id="Vector" d="M8.875 3.59375L8.15625 4.28125L4.3125 8.15625L3.59375 8.875L4.3125 9.5625L10.0625 15.3438L9.40625 16L16 22.5938L16.6562 21.9375L22.4062 27.7188L23.125 28.4062L23.8438 27.7188L27.7188 23.8125L28.4375 23.125L21.6562 16.3438C22.2734 14.6836 21.9219 12.7344 20.5938 11.4062C19.6875 10.5 18.4766 10.0625 17.2812 10.0625C16.7266 10.0625 16.1797 10.1836 15.6562 10.375L9.59375 4.28125L8.875 3.59375ZM8.875 6.40625L13.9375 11.4688L11.4688 13.9375L6.40625 8.875L8.875 6.40625ZM17.2812 12.0312C17.9609 12.0312 18.6641 12.2891 19.1875 12.8125C20.2344 13.8594 20.2344 15.5469 19.1875 16.5938L16.2812 19.4688L16 19.75L12.25 16L15.2812 12.9688L15.4062 12.8125C15.4766 12.7422 15.5508 12.6875 15.625 12.625L15.8125 12.4688C16.2539 12.1758 16.7734 12.0312 17.2812 12.0312ZM8.4375 17L7 18.4062L13.5938 25L15 23.5625L8.4375 17ZM20.5312 18.0625L25.5938 23.125L23.125 25.5938L18.0625 20.5312L20.5312 18.0625Z" fill="black"/>
</g>
</svg>
