<svg width="32" height="32" viewBox="0 0 32 32" fill="none" xmlns="http://www.w3.org/2000/svg">
<g id="schlix">
<path id="Vector" d="M25.4551 5L21.1953 7.26367L24.3418 9.93945L30 7.56445L25.4551 5ZM17.7949 6.23633L15.1426 7.87305L16.5938 9.92773L19.8086 8.24414L17.7949 6.23633ZM13.2168 6.97266L11.3652 8.25586L12.084 9.92773L14.2148 8.62109L13.2168 6.97266ZM10.1699 7.4668L8.78125 8.51758L9.13672 9.92188L10.6855 8.85938L10.1699 7.4668ZM8.50977 10.2227L7.21484 11.123L7.42383 12.7715L8.86328 11.8887L8.50977 10.2227ZM11.2207 10.293L9.50195 11.3555L10.0137 13.375L11.9805 12.3418L11.2207 10.293ZM15.2988 10.3926L12.8496 11.6914L13.9766 14.293L16.9238 13.0566L15.2988 10.3926ZM22.1191 10.5605L18.2129 12.2305L20.7773 15.877L25.9199 14.3555L22.1191 10.5605ZM6.85547 12.9902L5.64844 13.7344L5.71875 15.625L7.04688 14.9297L6.85547 12.9902ZM9.22852 13.6113L7.63867 14.4473L7.94141 16.8164L9.74609 16.0625L9.22852 13.6113ZM12.8047 14.5469L10.5586 15.5098L11.3535 18.6504L14.0332 17.8613L12.8047 14.5469ZM5.19531 15.748L4.08008 16.3398L4 18.4766L5.21875 17.9648L5.19531 15.748ZM18.7871 16.1133L15.2305 17.1992L17.2207 21.7969L21.8516 21.1406L18.7871 16.1133ZM7.23242 16.9277L5.77539 17.5488L5.86914 20.2637L7.51172 19.7812L7.23242 16.9277ZM10.3086 18.6953L8.26562 19.3223L8.73633 23.0078L11.1504 22.666L10.3086 18.6953ZM15.457 21.6738L12.2539 22.1719L13.6621 27.7324L17.7773 27.9238L15.457 21.6738Z" fill="black"/>
</g>
</svg>
