<svg width="32" height="32" viewBox="0 0 32 32" fill="none" xmlns="http://www.w3.org/2000/svg">
<g id="school-solid">
<path id="Vector" d="M16 4L3 7V9L16 6L29 9V7L16 4ZM10 10C6.77344 10 3.625 11.3125 3.625 11.3125L3 11.5938V27H14.2812C14.6289 27.5977 15.2617 28 16 28C16.7383 28 17.3711 27.5977 17.7188 27H29V11.5938L28.375 11.3125C28.375 11.3125 25.2266 10 22 10C19.082 10 16.5195 10.9805 16 11.1875C15.4805 10.9805 12.918 10 10 10ZM10 12C11.9336 12 14 12.625 15 12.9688V24.0938C13.8867 23.7266 12.0586 23.2188 10 23.2188C7.89844 23.2188 6.1875 23.7031 5 24.0938V12.9688C5.76953 12.6914 7.80078 12 10 12ZM22 12C24.1992 12 26.2305 12.6914 27 12.9688V24.0938C25.8125 23.7031 24.1016 23.2188 22 23.2188C19.9414 23.2188 18.1133 23.7266 17 24.0938V12.9688C18 12.625 20.0664 12 22 12Z" fill="black"/>
</g>
</svg>
