<svg width="32" height="32" viewBox="0 0 32 32" fill="none" xmlns="http://www.w3.org/2000/svg">
<g id="screwdriver-solid">
<path id="Vector" d="M27.1875 1.78125L26.5312 2.125C26.5312 2.125 25.4102 2.72266 24.0938 3.53125C22.7773 4.33984 21.2578 5.30469 20.2812 6.28125C18.8008 7.76172 17.5469 9.64062 16.9375 10.5L16.7188 10.2812L16 9.59375L15.2812 10.2812L12.8125 12.7812L12.0938 13.5L12.8125 14.1875L13.5938 14.9688L6.59375 21.9688L4.46875 23.0312L4.3125 23.3438L2.3125 27.375L2 28L2.5 28.5312L3.5 29.5L4 30L4.65625 29.6875L8.96875 27.5312L10.0312 25.4062L17.0312 18.4062L17.8125 19.1875L18.5 19.9062L19.2188 19.1875L21.7188 16.7188L22.4062 16L21.7188 15.2812L21.5 15.0625C22.3281 14.4844 24.1133 13.3242 25.7188 11.7188C27.8086 9.62891 29.875 5.46875 29.875 5.46875L30.2188 4.8125L29.7188 4.28125L27.7188 2.28125L27.1875 1.78125ZM26.8125 4.25L27.75 5.1875C27.25 6.08984 25.6328 8.92969 24.2812 10.2812C22.5781 11.9844 19.4375 14.1875 19.4375 14.1875L18.4375 14.8438L19.2812 15.7188L19.5625 16L18.5 17.0625L18.4062 17L17.7188 16.2812L15.7188 14.2812L15 13.5938L14.9375 13.5L16 12.4375L17.125 13.5625L17.8125 12.5625C17.8125 12.5625 20.1914 9.24609 21.7188 7.71875C22.4102 7.02734 23.8906 5.99609 25.1562 5.21875C26.0625 4.66406 26.4297 4.46094 26.8125 4.25ZM15 16.4375L15.5625 17L8.5 24.0625L8.40625 24.1875L8.3125 24.3438L7.46875 26.0312L4.5 27.5L5.96875 24.5312L7.65625 23.6875L7.8125 23.5938L7.9375 23.5L15 16.4375Z" fill="black"/>
</g>
</svg>
