<svg width="32" height="32" viewBox="0 0 32 32" fill="none" xmlns="http://www.w3.org/2000/svg">
<g id="scribd">
<path id="Vector" d="M16.2988 4.00202C11.7348 4.00202 8 6.62053 8 11.6055C8.01 13.2865 8.43042 14.6265 9.23242 15.5645C10.6984 17.3435 13.4827 17.4504 14.9297 15.9844C16.1127 14.7814 16.2787 12.632 14.9688 11.42C14.2747 10.755 13.3564 10.4626 12.1934 10.7266C11.3334 10.9806 10.7754 10.8822 10.7754 9.95319C10.7754 7.51919 13.8064 6.13294 16.3184 6.17194C18.4884 6.14294 20.6097 6.75728 22.4277 7.94929L21.0879 9.8653L22.9453 11.088L25.4473 7.51179C24.0793 6.43678 21.1958 3.92402 16.2988 4.00202ZM21.666 15.0059C19.783 14.9089 18.1448 16.3911 18.1738 18.3321C18.1448 19.1711 18.4748 19.9714 19.0898 20.5274C19.7818 21.2194 20.7199 21.5013 21.8809 21.2383C22.7399 20.9843 23.2949 21.0926 23.2949 22.0196C23.2949 22.2236 23.2656 22.4376 23.2266 22.6426C22.3966 24.6716 20.28 25.8321 17.207 25.8321C14.641 25.8421 12.1332 25.0243 10.0742 23.4923L11.7422 21.5411L9.97656 20.1856L6.96289 23.7364L7.73242 24.42C10.3274 26.742 13.6947 28.0191 17.1777 28.0001C19.7237 28.0001 21.851 27.4835 23.793 25.8145C26.622 23.2685 26.4758 18.419 24.7988 16.42C24.0378 15.493 22.876 14.9669 21.666 15.0059Z" fill="black"/>
</g>
</svg>
