<svg width="32" height="32" viewBox="0 0 32 32" fill="none" xmlns="http://www.w3.org/2000/svg">
<g id="scroll-solid">
<path id="Vector" d="M10 4C8.355 4 7 5.355 7 7V21H4V25C4 26.645 5.355 28 7 28H21H21.0312C22.6602 27.984 24 26.633 24 25V11H28V7C28 5.355 26.645 4 25 4H10ZM10 6H22.1875C22.0745 6.316 22 6.648 22 7V25C22 25.566 21.566 26 21 26C20.437 26.008 20.008 25.562 20 25L19.9688 21H9V7C9 6.434 9.434 6 10 6ZM25 6C25.566 6 26 6.434 26 7V9H24V7C24 6.434 24.434 6 25 6ZM6 23H14H17.9688H18V25V25.0312C18.004 25.3752 18.0745 25.691 18.1875 26H7C6.434 26 6 25.566 6 25V23Z" fill="black"/>
</g>
</svg>
