<svg width="32" height="32" viewBox="0 0 32 32" fill="none" xmlns="http://www.w3.org/2000/svg">
<g id="search-location-solid">
<path id="Vector" d="M19 3C13.489 3 9 7.489 9 13C9 15.395 9.839 17.5875 11.25 19.3125L3.28125 27.2812L4.71875 28.7207L12.6875 20.752C14.4115 22.162 16.605 23 19 23C24.511 23 29 18.511 29 13C29 7.489 24.511 3 19 3ZM19 5C23.43 5 27 8.57 27 13C27 17.43 23.43 21 19 21C14.57 21 11 17.43 11 13C11 8.57 14.57 5 19 5ZM19 8C16.791 8 15 9.791 15 12C15 15 19 19 19 19C19 19 23 15 23 12C23 9.791 21.209 8 19 8ZM19 10C20.105 10 21 10.895 21 12C21 13.104 20.105 14 19 14C17.895 14 17 13.104 17 12C17 10.895 17.895 10 19 10Z" fill="black"/>
</g>
</svg>
