<svg width="32" height="32" viewBox="0 0 32 32" fill="none" xmlns="http://www.w3.org/2000/svg">
<g id="searchengin">
<path id="Vector" d="M12.9395 4V6.7168C15.9445 6.9858 17.9492 9.46345 17.9492 12.3145C17.9492 14.9355 16.1556 17.133 13.7266 17.748L12.9004 20.3398L12.7852 20.6855C14.2632 20.5895 15.7413 20.0627 17.0273 19.1797L17.5371 19.9473C18.9581 20.4653 20.053 21.5986 20.543 22.6836C21.033 23.7876 21.0501 24.3624 22.7871 25.6484C24.5251 26.9254 25.6585 27.8669 25.9375 27.9629C26.2255 28.0589 26.8495 28.001 27.4355 27.416C28.0195 26.829 28.0765 26.2048 27.9805 25.9258C27.8845 25.6478 26.9442 24.5153 25.6582 22.7773C24.3722 21.0393 23.7854 21.0203 22.6914 20.5312C21.5974 20.0413 20.4641 18.9562 19.9551 17.5352L19.1973 17.0371C20.1193 15.6931 20.7051 14.0715 20.7051 12.3145C20.7051 7.88845 17.2875 4.269 12.9395 4ZM11.1719 4.06836C7.12087 4.63436 4 8.11945 4 12.3145C4 16.5385 7.00541 20.0692 11.0664 20.6172V17.8242C8.50341 17.3162 6.7168 15.0405 6.7168 12.3145C6.7168 9.92345 8.20441 7.88727 10.3164 7.07227L11.1035 4.31836L11.1719 4.06836ZM12 4.56641L9.1543 14.502L12.0059 13.2441V20.043L15.5195 9.11719L12 10.5859V4.56641ZM26.4922 26.0605C26.7232 26.0605 26.9141 26.2524 26.9141 26.4824C26.9141 26.7134 26.7222 26.8965 26.4922 26.8965C26.2622 26.8965 26.0801 26.7134 26.0801 26.4824C26.0801 26.2524 26.2612 26.0605 26.4922 26.0605Z" fill="black"/>
</g>
</svg>
