<svg width="32" height="32" viewBox="0 0 32 32" fill="none" xmlns="http://www.w3.org/2000/svg">
<g id="search-dollar-solid">
<path id="Vector" d="M19 3C13.489 3 9 7.489 9 13C9 15.395 9.839 17.5875 11.25 19.3125L3.28125 27.2812L4.71875 28.7207L12.6875 20.752C14.4115 22.162 16.605 23 19 23C24.511 23 29 18.511 29 13C29 7.489 24.511 3 19 3ZM19 5C23.43 5 27 8.57 27 13C27 17.43 23.43 21 19 21C14.57 21 11 17.43 11 13C11 8.57 14.57 5 19 5ZM18 8V9.0625C16.875 9.2505 16 10.205 16 11.377C16 12.131 16.4178 12.8202 17.0938 13.1562L20 14.625C20 14.848 19.848 15 19.625 15H18.375C18.152 15 18 14.848 18 14.625V14H16V14.625C16 15.797 16.875 16.7495 18 16.9375V18H20V16.9375C21.125 16.7495 22 15.795 22 14.623C22 13.869 21.5823 13.1838 20.9062 12.8438L18 11.375C18 11.152 18.152 11 18.375 11H19.625C19.848 11 20 11.152 20 11.375V12H22V11.375C22 10.203 21.125 9.2505 20 9.0625V8H18Z" fill="black"/>
</g>
</svg>
