<svg width="32" height="32" viewBox="0 0 32 32" fill="none" xmlns="http://www.w3.org/2000/svg">
<g id="search-plus-solid">
<path id="Vector" d="M19 3C13.4883 3 9 7.48828 9 13C9 15.3945 9.83984 17.5898 11.25 19.3125L3.28125 27.2812L4.71875 28.7188L12.6875 20.75C14.4102 22.1602 16.6055 23 19 23C24.5117 23 29 18.5117 29 13C29 7.48828 24.5117 3 19 3ZM19 5C23.4297 5 27 8.57031 27 13C27 17.4297 23.4297 21 19 21C14.5703 21 11 17.4297 11 13C11 8.57031 14.5703 5 19 5ZM18 9V12H15V14H18V17H20V14H23V12H20V9H18Z" fill="black"/>
</g>
</svg>
