<svg width="32" height="32" viewBox="0 0 32 32" fill="none" xmlns="http://www.w3.org/2000/svg">
<g id="seedling-solid">
<path id="Vector" d="M23.3984 14.0236C23.0586 14.0431 22.8359 13.9337 22.8086 13.9142L21.1211 14.9923C21.4922 15.5743 22.2578 15.9689 23.1172 16.0196C23.1836 16.0236 23.25 16.0236 23.3164 16.0236C24.4453 16.0236 25.5547 15.4532 26.3945 14.4376C27.8281 12.6954 28.8359 10.8478 28.8789 10.7696L29.332 9.9298L28.5156 9.43762C23.9844 6.71496 21.3945 8.00793 20.4922 8.69152C19.3281 9.57433 18.7969 11.0196 19.0898 12.4298C18.1602 13.0236 17.2344 13.7736 16.4961 14.6876C16.0703 13.6915 15.4062 12.797 14.6328 12.0079C14.7031 11.8243 14.75 11.6446 14.7812 11.5118C14.7969 11.4415 14.8125 11.3751 14.832 11.3165C15.3438 9.60168 14.6406 7.60168 13.082 6.34387C11.9727 5.44933 8.82031 3.68371 3.51953 6.60558L2.83594 6.98058L3.03125 7.73058C3.07031 7.88293 4.01562 11.4454 5.89453 13.5314C6.70703 14.4337 7.72656 14.9415 8.84766 14.9962C8.91797 15.0001 8.98828 15.0001 9.05469 15.0001C10.3125 15.0001 11.3906 14.4415 11.8281 14.0431L10.4844 12.5626C10.4687 12.5743 8.78906 13.754 7.38281 12.1915C6.29297 10.9845 5.55078 9.04699 5.19922 7.98449C8.98438 6.16027 11.0781 7.29699 11.8242 7.89855C12.6992 8.60558 13.1328 9.64855 12.9531 10.5548C10.8008 8.96105 8.55859 8.07043 8.37891 8.00402L7.65625 9.8673C9.69922 10.6564 15 13.4845 15 17.0001V20.1446C14.2383 20.3439 13.543 20.754 13.0195 21.3439C12.5508 21.1173 12.0352 21.0001 11.5 21.0001C10.0703 21.0001 8.83984 21.8595 8.29687 23.0939C8.03516 23.0314 7.76953 23.0001 7.5 23.0001C5.57031 23.0001 4 24.5704 4 26.5001V27.0001H6V26.5001C6 25.672 6.67187 25.0001 7.5 25.0001C7.90234 25.0001 8.21094 25.1681 8.39844 25.3087L10 24.5118V24.4962C10.0039 23.672 10.6758 23.0001 11.5 23.0001C11.9023 23.0001 12.2812 23.1603 12.5664 23.4493L14.1875 23.1681C14.5156 22.4571 15.2266 22.0001 16 22.0001C16.7266 22.0001 17.3984 22.4064 17.75 23.0626L19.3281 23.3048C19.5273 23.1095 19.793 23.0001 20.0703 23.0001C20.6562 23.0001 21.1367 23.4806 21.1367 24.0665C21.1367 24.1837 21.1133 24.3009 21.0664 24.4298L22.6719 25.5196C22.9375 25.2814 23.3828 25.0001 24 25.0001C25.1016 25.0001 26 25.8986 26 27.0001H28C28 24.7931 26.207 23.0001 24 23.0001C23.6562 23.0001 23.3164 23.047 22.9922 23.1329C22.5938 21.8946 21.4336 21.0001 20.0703 21.0001C19.6523 21.0001 19.2539 21.0821 18.8789 21.2384C18.3672 20.7032 17.7148 20.3321 17 20.1446V19.0001H17.0039V18.672C17.0039 14.5196 23.5352 12.5314 23.6016 12.5118L23.0391 10.5939C22.9375 10.6212 22.1211 10.8712 21.0469 11.3634C21.125 10.9493 21.3398 10.5626 21.7031 10.2892C22.7617 9.48449 24.5586 9.63683 26.6172 10.6759C26.2148 11.3321 25.5898 12.2736 24.8516 13.1681C24.3008 13.8361 23.7578 14.004 23.3984 14.0236ZM13.4844 10.8204L13.4961 10.9767C13.4453 10.9376 13.3906 10.8986 13.3398 10.8556C13.3867 10.8439 13.4297 10.8243 13.4844 10.8204Z" fill="black"/>
</g>
</svg>
