<svg width="32" height="32" viewBox="0 0 32 32" fill="none" xmlns="http://www.w3.org/2000/svg">
<g id="sellcast">
<path id="Vector" d="M5 5V27H27V5H5ZM7 7H25V25H7V7ZM20.0664 9.06055C19.6872 8.99248 19.2742 9.12442 19.0195 9.56055L18.791 9.95117C16.49 8.65817 13.536 9.43845 12.207 11.6895C10.882 13.9445 11.6786 16.8524 13.9746 18.1504C14.8606 18.6554 13.9695 18.1464 14.8555 18.6504C16.0465 19.3224 17.0568 17.5634 15.8848 16.9004C15.8798 16.9004 14.998 16.4043 14.998 16.4043C13.683 15.6573 13.2194 13.9863 13.9824 12.6973C14.7454 11.4083 16.4506 10.9611 17.7656 11.7031C18.6516 12.2081 17.7605 11.6991 18.6465 12.2031C19.1315 12.4411 19.5982 12.3392 19.9082 12.0352C20.0362 11.9092 20.0045 11.9415 20.8145 10.5645C21.2401 9.8407 20.6985 9.17399 20.0664 9.06055ZM16.6875 13.2012C15.7123 13.0969 15.0682 14.5175 16.0938 15.0977C16.9508 15.5737 16.1305 15.1178 16.9785 15.5938C18.2935 16.3407 18.7511 18.0118 17.9941 19.3008C17.2311 20.5898 15.5259 21.0369 14.2109 20.2949C13.3249 19.7899 14.2161 20.2989 13.3301 19.7949C12.8401 19.5149 12.2068 19.6831 11.9258 20.1641L11.1777 21.4336C10.5777 22.4516 12.1004 23.9088 13.1914 22.0508C15.4924 23.3438 18.4464 22.5635 19.7754 20.3125C21.1044 18.0615 20.3099 15.1537 18.0039 13.8477C17.1179 13.3427 18.0071 13.8517 17.1211 13.3477C16.9722 13.2637 16.8268 13.2161 16.6875 13.2012Z" fill="black"/>
</g>
</svg>
