<svg width="32" height="32" viewBox="0 0 32 32" fill="none" xmlns="http://www.w3.org/2000/svg">
<g id="sellsy">
<path id="Vector" d="M18 4C14.3359 4 11.2734 6.25 9.875 9.40625C9.29297 9.16406 8.67188 9 8 9C5.25 9 3 11.25 3 14C3 14.1445 3.01953 14.2695 3.03125 14.4062C1.25781 15.6758 0 17.6602 0 20C0 23.8555 3.14453 27 7 27H25C28.8555 27 32 23.8555 32 20C32 16.8477 29.8477 14.2734 26.9688 13.4062C26.9766 13.2695 27 13.1406 27 13C27 8.04297 22.957 4 18 4ZM18 6C21.8789 6 25 9.12109 25 13C25 13.3047 24.9805 13.6133 24.9375 13.9375L24.7812 14.9062L25.7812 15.0625C28.1797 15.4336 30 17.4883 30 20C30 22.7734 27.7734 25 25 25H7C4.22656 25 2 22.7734 2 20C2 18.1172 3.03125 16.4805 4.5625 15.625L5.1875 15.2812L5.0625 14.5625C5.02344 14.3672 5 14.1875 5 14C5 12.332 6.33203 11 8 11C8.65234 11 9.25 11.2031 9.75 11.5625L10.875 12.4062L11.2812 11.0312C12.1289 8.125 14.8086 6 18 6ZM20 13V22H22V13H20ZM16 15V22H18V15H16ZM12 16V22H14V16H12ZM8 17V22H10V17H8Z" fill="black"/>
</g>
</svg>
