<svg width="32" height="32" viewBox="0 0 32 32" fill="none" xmlns="http://www.w3.org/2000/svg">
<g id="server-solid">
<path id="Vector" d="M3 6V26H29V6H3ZM5 8H27V12H5V8ZM7 9V11H15V9H7ZM24 9C23.4492 9 23 9.44922 23 10C23 10.5508 23.4492 11 24 11C24.5508 11 25 10.5508 25 10C25 9.44922 24.5508 9 24 9ZM5 14H27V18H5V14ZM7 15V17H15V15H7ZM24 15C23.4492 15 23 15.4492 23 16C23 16.5508 23.4492 17 24 17C24.5508 17 25 16.5508 25 16C25 15.4492 24.5508 15 24 15ZM5 20H27V24H5V20ZM7 21V23H15V21H7ZM24 21C23.4492 21 23 21.4492 23 22C23 22.5508 23.4492 23 24 23C24.5508 23 25 22.5508 25 22C25 21.4492 24.5508 21 24 21Z" fill="black"/>
</g>
</svg>
