<svg width="32" height="32" viewBox="0 0 32 32" fill="none" xmlns="http://www.w3.org/2000/svg">
<g id="shapes-solid">
<path id="Vector" d="M22.3574 3.86328L16.1895 15H28.5254L22.3574 3.86328ZM22.3574 7.99023L25.1309 13H19.584L22.3574 7.99023ZM9 16C5.691 16 3 18.691 3 22C3 25.309 5.691 28 9 28C12.309 28 15 25.309 15 22C15 18.691 12.309 16 9 16ZM17 17V28H28V17H17ZM9 18C11.206 18 13 19.794 13 22C13 24.206 11.206 26 9 26C6.794 26 5 24.206 5 22C5 19.794 6.794 18 9 18ZM19 19H26V26H19V19Z" fill="black"/>
</g>
</svg>
