<svg width="32" height="32" viewBox="0 0 32 32" fill="none" xmlns="http://www.w3.org/2000/svg">
<g id="share-alt-square-solid">
<path id="Vector" d="M5 5V27H27V5H5ZM7 7H25V25H7V7ZM20 10C19.7243 10.0002 19.4517 10.0575 19.1992 10.1681C18.9467 10.2787 18.7198 10.4403 18.5327 10.6428C18.3456 10.8453 18.2024 11.0842 18.1121 11.3447C18.0218 11.6051 17.9863 11.8814 18.0078 12.1562L13.3203 14.5C12.9556 14.1784 12.4863 14.0006 12 14C11.4696 14 10.9609 14.2107 10.5858 14.5858C10.2107 14.9609 10 15.4696 10 16C10 16.5304 10.2107 17.0391 10.5858 17.4142C10.9609 17.7893 11.4696 18 12 18C12.4863 17.9994 12.9556 17.8216 13.3203 17.5L18.0078 19.8438C17.9863 20.1186 18.0218 20.3949 18.1121 20.6553C18.2024 20.9158 18.3456 21.1547 18.5327 21.3572C18.7198 21.5597 18.9467 21.7213 19.1992 21.8319C19.4517 21.9425 19.7243 21.9998 20 22C20.5304 22 21.0391 21.7893 21.4142 21.4142C21.7893 21.0391 22 20.5304 22 20C22 19.4696 21.7893 18.9609 21.4142 18.5858C21.0391 18.2107 20.5304 18 20 18C19.5137 18.0006 19.0444 18.1784 18.6797 18.5L13.9922 16.1562C14.0003 16.0522 14.0003 15.9478 13.9922 15.8438L18.6797 13.5C19.0444 13.8216 19.5137 13.9994 20 14C20.5304 14 21.0391 13.7893 21.4142 13.4142C21.7893 13.0391 22 12.5304 22 12C22 11.4696 21.7893 10.9609 21.4142 10.5858C21.0391 10.2107 20.5304 10 20 10Z" fill="black"/>
</g>
</svg>
