<svg width="32" height="32" viewBox="0 0 32 32" fill="none" xmlns="http://www.w3.org/2000/svg">
<g id="shield-alt-solid">
<path id="Vector" d="M16 4C13.75 4 12.2344 4.88672 10.875 5.625C9.51562 6.36328 8.28125 7 6 7H5V8C5 15.7188 7.60938 20.7422 10.25 23.7812C12.8906 26.8203 15.625 27.9375 15.625 27.9375L16 28.0625L16.375 27.9375C16.375 27.9375 19.1094 26.8438 21.75 23.8125C24.3906 20.7812 27 15.7461 27 8V7H26C23.7305 7 22.4844 6.36328 21.125 5.625C19.7656 4.88672 18.25 4 16 4ZM16 6C17.75 6 18.7539 6.61328 20.1562 7.375C21.3398 8.01953 22.9102 8.63672 24.9375 8.84375C24.7461 15.6094 22.5078 19.9102 20.25 22.5C18.2031 24.8477 16.4844 25.6289 16 25.8438C15.5117 25.625 13.7969 24.8242 11.75 22.4688C9.49219 19.8711 7.25391 15.5781 7.0625 8.84375C9.09766 8.63672 10.6602 8.01953 11.8438 7.375C13.2461 6.61328 14.25 6 16 6Z" fill="black"/>
</g>
</svg>
