<svg width="32" height="32" viewBox="0 0 32 32" fill="none" xmlns="http://www.w3.org/2000/svg">
<g id="ship-solid">
<path id="Vector" d="M15 3V5H11V8H7V13.9062L6.15625 14.0938V14.125C4.35156 14.5156 3.45703 16.6055 4.40625 18.1875L6 20.875V25.8438C5.19141 25.6172 4.625 25.2188 4.625 25.2188L3.375 26.7812C3.375 26.7812 4.91797 28 7.03125 28C8.49219 28 9.42188 27.5156 10 27.1562C10.582 27.5117 11.5586 28 13.0312 28C14.4922 28 15.4219 27.5156 16 27.1562C16.582 27.5117 17.5586 28 19.0312 28C20.4922 28 21.4219 27.5156 22 27.1562C22.582 27.5117 23.5586 28 25.0312 28C27.1445 28 28.625 26.7812 28.625 26.7812L27.375 25.2188C27.375 25.2188 26.832 25.6523 26 25.875V20.875L27.5938 18.1875C28.543 16.6055 27.6484 14.5156 25.8438 14.125L25 13.9375V8H21V5H17V3H15ZM13 7H19V10H23V13.5L16.2188 12.0312L16 12L15.7812 12.0312L9 13.5V10H13V7ZM16 14.0625L25.4062 16.0625C25.9297 16.1758 26.1836 16.6992 25.9062 17.1562L24.1562 20.0938L24 20.3125V25.8438C23.1914 25.6172 22.625 25.2188 22.625 25.2188L22 24.7188L21.375 25.2188C21.375 25.2188 20.3711 26 19.0312 26C17.6914 26 16.625 25.2188 16.625 25.2188L16 24.7188L15.375 25.2188C15.375 25.2188 14.3711 26 13.0312 26C11.6914 26 10.625 25.2188 10.625 25.2188L10 24.7188L9.375 25.2188C9.375 25.2188 8.83203 25.6523 8 25.875V20.3125L7.84375 20.0938L6.09375 17.1562C5.81641 16.6953 6.07031 16.1758 6.59375 16.0625L16 14.0625ZM11 16C10.3984 16 10 16.6992 10 17.5C10 18.3008 10.3984 19 11 19C11.6016 19 12 18.3008 12 17.5C12 16.6992 11.6016 16 11 16ZM21 16C20.3984 16 20 16.6992 20 17.5C20 18.3008 20.3984 19 21 19C21.6016 19 22 18.3008 22 17.5C22 16.6992 21.6016 16 21 16Z" fill="black"/>
</g>
</svg>
