<svg width="32" height="32" viewBox="0 0 32 32" fill="none" xmlns="http://www.w3.org/2000/svg">
<g id="shipping-fast-solid">
<path id="Vector" d="M0 6V8H19V23H12.8438C12.3984 21.2812 10.8516 20 9 20C7.14844 20 5.60156 21.2812 5.15625 23H4V18H2V25H5.15625C5.60156 26.7188 7.14844 28 9 28C10.8516 28 12.3984 26.7188 12.8438 25H21.1562C21.6016 26.7188 23.1484 28 25 28C26.8516 28 28.3984 26.7188 28.8438 25H32V16.8438L31.9375 16.6875L29.9375 10.6875L29.7188 10H21V6H0ZM1 10V12H10V10H1ZM21 12H28.2812L30 17.125V23H28.8438C28.3984 21.2812 26.8516 20 25 20C23.1484 20 21.6016 21.2812 21.1562 23H21V12ZM2 14V16H8V14H2ZM9 22C10.1172 22 11 22.8828 11 24C11 25.1172 10.1172 26 9 26C7.88281 26 7 25.1172 7 24C7 22.8828 7.88281 22 9 22ZM25 22C26.1172 22 27 22.8828 27 24C27 25.1172 26.1172 26 25 26C23.8828 26 23 25.1172 23 24C23 22.8828 23.8828 22 25 22Z" fill="black"/>
</g>
</svg>
