<svg width="32" height="32" viewBox="0 0 32 32" fill="none" xmlns="http://www.w3.org/2000/svg">
<g id="shirtsinbulk">
<path id="Vector" d="M5 4V23.4375L5.59375 23.6875L15.4688 27.9062L15.8438 28.0938L16.25 27.9375L26.375 23.6875L27 23.4375V4H5ZM7 6H25V9H7V6ZM7 11H25V22.0938L15.8438 25.9062L7 22.0938V11ZM16 13C13.2383 13 11 15.2383 11 18C11 20.7617 13.2383 23 16 23C18.7617 23 21 20.7617 21 18C21 15.2383 18.7617 13 16 13ZM16.1875 15.0312C17.5938 15.0312 18.7344 15.8398 18.7812 15.875L18.0312 16.9062C18.0234 16.8984 17.1719 16.2812 16.1875 16.2812C15.5859 16.2812 14.5625 16.4492 14.5625 17.0625C14.7852 17.3203 15.6562 17.3086 16.0312 17.3125H16.2188C17.8516 17.3125 18.9062 17.9336 18.9062 18.9375C18.9062 19.8711 18.168 20.9688 16.125 20.9688C14.5859 20.9688 13.3047 20.1602 13.25 20.125L13.9375 19.0938C13.9492 19.1016 14.9609 19.7188 16.125 19.7188C16.8242 19.7188 17.6562 19.5078 17.6562 18.9375C17.6562 18.7773 17.0391 18.5625 16.2188 18.5625H16.0625C15.3008 18.5586 14.2656 18.543 13.6875 17.9688C13.4414 17.7227 13.3125 17.4258 13.3125 17.0625C13.3125 15.832 14.4414 15.0312 16.1875 15.0312Z" fill="black"/>
</g>
</svg>
