<svg width="32" height="32" viewBox="0 0 32 32" fill="none" xmlns="http://www.w3.org/2000/svg">
<g id="shoe-prints-solid">
<path id="Vector" d="M10 3C7.80469 3 6.20312 4.60547 5.28125 6.5C4.35937 8.39453 3.96094 10.6797 4 12.6875C4.04687 15.0195 5.0625 17.375 5.0625 17.375L5.34375 18H13.75L13.9687 17.25C13.9687 17.25 14.7578 14.3086 14.9687 11.5C15.0508 10.3945 15.0156 8.47266 14.4062 6.65625C14.1016 5.74609 13.6602 4.85547 12.9375 4.15625C12.2148 3.45703 11.1875 3 10 3ZM22 3C20.8125 3 19.7852 3.45703 19.0625 4.15625C18.3398 4.85547 17.8984 5.74609 17.5937 6.65625C16.9844 8.47266 16.9492 10.3945 17.0312 11.5C17.2422 14.3086 18.0312 17.25 18.0312 17.25L18.25 18H26.6562L26.9375 17.375C26.9375 17.375 27.9531 15.0195 28 12.6875C28.0391 10.6797 27.6406 8.39453 26.7187 6.5C25.7969 4.60547 24.1953 3 22 3ZM10 5C10.7031 5 11.1289 5.20312 11.5312 5.59375C11.9336 5.98438 12.293 6.60547 12.5312 7.3125C13.0039 8.72656 13.0625 10.5273 13 11.375C12.8359 13.5508 12.3164 15.3711 12.1562 16H6.71875C6.47656 15.3164 6.02734 13.9844 6 12.6562C5.96484 10.9609 6.35547 8.89453 7.09375 7.375C7.83203 5.85547 8.76953 5 10 5ZM22 5C23.2305 5 24.168 5.85547 24.9062 7.375C25.6445 8.89453 26.0312 10.9609 26 12.6562C25.9727 13.9844 25.5234 15.3164 25.2812 16H19.8437C19.6836 15.3711 19.1641 13.5508 19 11.375C18.9375 10.5273 18.9961 8.72656 19.4687 7.3125C19.707 6.60547 20.0664 5.98438 20.4687 5.59375C20.8711 5.20312 21.2969 5 22 5ZM5 21V22C4.98828 23.3789 5.12109 24.9883 5.8125 26.4062C6.5039 27.8242 7.95703 29 10 29C12.2617 29 13.9805 26.7852 14 24C14.0039 23.3555 13.9766 22.5977 13.75 21.75L13.5625 21H5ZM18.4375 21L18.25 21.75C18.0234 22.5977 17.9961 23.3555 18 24C18.0195 26.7852 19.7383 29 22 29C24.043 29 25.4961 27.8242 26.1875 26.4062C26.8789 24.9883 27.0117 23.3789 27 22V21H18.4375ZM7.15625 23H11.9062C11.9414 23.3281 12.0039 23.6641 12 24C11.9844 26.0234 10.9297 27 10 27C8.62109 27 8.05078 26.4648 7.59375 25.5312C7.26562 24.8633 7.22656 23.9023 7.15625 23ZM20.0937 23H24.8437C24.7734 23.9023 24.7344 24.8633 24.4062 25.5312C23.9492 26.4648 23.3789 27 22 27C21.0703 27 20.0156 26.0234 20 24C19.9961 23.6641 20.0586 23.3281 20.0937 23Z" fill="black"/>
</g>
</svg>
