<svg width="32" height="32" viewBox="0 0 32 32" fill="none" xmlns="http://www.w3.org/2000/svg">
<g id="shopware">
<path id="Vector" d="M16 3C8.83 3 3 8.83 3 16C3 23.17 8.83 29 16 29C18.9 29 21.58 28.0397 23.75 26.4297C23.72 26.4097 23.6809 26.3894 23.6309 26.3594C22.5109 25.5194 20.8709 24.8807 19.1309 24.2207C14.7609 22.5207 10 20.61 10 15C10 9.76 14.8002 7 21.4902 7C22.4602 7 23.4499 7.05945 24.4199 7.18945C24.5599 7.20945 24.5709 7.21047 24.7109 7.23047C25.0809 7.31047 25.4505 7.39047 25.8105 7.48047C23.4305 4.74047 19.91 3 16 3ZM21.25 12C16.81 12 17 14.9398 17 15.0098C17 17.4098 19.7492 18.4995 22.9492 19.7695C24.4992 20.3895 26.1096 21.0191 27.5996 21.8691C28.4896 20.1091 29 18.11 29 16C29 15.82 29.0005 15.6409 28.9805 15.4609C28.9505 15.4409 28.9109 15.4206 28.8809 15.3906C26.1409 12.9806 23.94 12 21.25 12Z" fill="black"/>
</g>
</svg>
