<svg width="32" height="32" viewBox="0 0 32 32" fill="none" xmlns="http://www.w3.org/2000/svg">
<g id="shower-solid">
<path id="Vector" d="M15 4V6.09375C12.4766 6.51172 10.5117 8.47656 10.0938 11H9V13H23V11H21.9062C21.4883 8.47656 19.5234 6.51172 17 6.09375V4H15ZM16 8C17.918 8 19.3828 9.25 19.8125 11H12.1875C12.6172 9.25 14.082 8 16 8ZM14 14C13.4492 14 13 14.4492 13 15C13 15.5508 13.4492 16 14 16C14.5508 16 15 15.5508 15 15C15 14.4492 14.5508 14 14 14ZM18 14C17.4492 14 17 14.4492 17 15C17 15.5508 17.4492 16 18 16C18.5508 16 19 15.5508 19 15C19 14.4492 18.5508 14 18 14ZM12 17C11.4492 17 11 17.4492 11 18C11 18.5508 11.4492 19 12 19C12.5508 19 13 18.5508 13 18C13 17.4492 12.5508 17 12 17ZM16 17C15.4492 17 15 17.4492 15 18C15 18.5508 15.4492 19 16 19C16.5508 19 17 18.5508 17 18C17 17.4492 16.5508 17 16 17ZM20 17C19.4492 17 19 17.4492 19 18C19 18.5508 19.4492 19 20 19C20.5508 19 21 18.5508 21 18C21 17.4492 20.5508 17 20 17ZM10 20C9.44922 20 9 20.4492 9 21C9 21.5508 9.44922 22 10 22C10.5508 22 11 21.5508 11 21C11 20.4492 10.5508 20 10 20ZM14 20C13.4492 20 13 20.4492 13 21C13 21.5508 13.4492 22 14 22C14.5508 22 15 21.5508 15 21C15 20.4492 14.5508 20 14 20ZM18 20C17.4492 20 17 20.4492 17 21C17 21.5508 17.4492 22 18 22C18.5508 22 19 21.5508 19 21C19 20.4492 18.5508 20 18 20ZM22 20C21.4492 20 21 20.4492 21 21C21 21.5508 21.4492 22 22 22C22.5508 22 23 21.5508 23 21C23 20.4492 22.5508 20 22 20ZM8 23C7.44922 23 7 23.4492 7 24C7 24.5508 7.44922 25 8 25C8.55078 25 9 24.5508 9 24C9 23.4492 8.55078 23 8 23ZM12 23C11.4492 23 11 23.4492 11 24C11 24.5508 11.4492 25 12 25C12.5508 25 13 24.5508 13 24C13 23.4492 12.5508 23 12 23ZM16 23C15.4492 23 15 23.4492 15 24C15 24.5508 15.4492 25 16 25C16.5508 25 17 24.5508 17 24C17 23.4492 16.5508 23 16 23ZM20 23C19.4492 23 19 23.4492 19 24C19 24.5508 19.4492 25 20 25C20.5508 25 21 24.5508 21 24C21 23.4492 20.5508 23 20 23ZM24 23C23.4492 23 23 23.4492 23 24C23 24.5508 23.4492 25 24 25C24.5508 25 25 24.5508 25 24C25 23.4492 24.5508 23 24 23ZM6 26C5.44922 26 5 26.4492 5 27C5 27.5508 5.44922 28 6 28C6.55078 28 7 27.5508 7 27C7 26.4492 6.55078 26 6 26ZM10 26C9.44922 26 9 26.4492 9 27C9 27.5508 9.44922 28 10 28C10.5508 28 11 27.5508 11 27C11 26.4492 10.5508 26 10 26ZM14 26C13.4492 26 13 26.4492 13 27C13 27.5508 13.4492 28 14 28C14.5508 28 15 27.5508 15 27C15 26.4492 14.5508 26 14 26ZM18 26C17.4492 26 17 26.4492 17 27C17 27.5508 17.4492 28 18 28C18.5508 28 19 27.5508 19 27C19 26.4492 18.5508 26 18 26ZM22 26C21.4492 26 21 26.4492 21 27C21 27.5508 21.4492 28 22 28C22.5508 28 23 27.5508 23 27C23 26.4492 22.5508 26 22 26ZM26 26C25.4492 26 25 26.4492 25 27C25 27.5508 25.4492 28 26 28C26.5508 28 27 27.5508 27 27C27 26.4492 26.5508 26 26 26Z" fill="black"/>
</g>
</svg>
