<svg width="32" height="32" viewBox="0 0 32 32" fill="none" xmlns="http://www.w3.org/2000/svg">
<g id="shuttle-van-solid">
<path id="Vector" d="M5 5C3.35547 5 2 6.35547 2 8V25H5.15625C5.60156 26.7188 7.14844 28 9 28C10.8516 28 12.3984 26.7188 12.8438 25H20.1562C20.6016 26.7188 22.1484 28 24 28C25.8516 28 27.3984 26.7188 27.8438 25H31V14.5625C31 14 30.8281 13.4453 30.5312 12.9688L26.4375 6.40625C25.8906 5.53125 24.9375 5 23.9062 5H5ZM5 7H10V13H4V8C4 7.4375 4.4375 7 5 7ZM12 7H18V13H12V7ZM20 7H23.9062C24.2539 7 24.5664 7.17578 24.75 7.46875L28.1875 13H20V7ZM4 15H29V17H26V19H29V23H27.8438C27.3984 21.2812 25.8516 20 24 20C22.1484 20 20.6016 21.2812 20.1562 23H12.8438C12.3984 21.2812 10.8516 20 9 20C7.14844 20 5.60156 21.2812 5.15625 23H4V15ZM9 22C10.1172 22 11 22.8828 11 24C11 25.1172 10.1172 26 9 26C7.88281 26 7 25.1172 7 24C7 22.8828 7.88281 22 9 22ZM24 22C25.1172 22 26 22.8828 26 24C26 25.1172 25.1172 26 24 26C22.8828 26 22 25.1172 22 24C22 22.8828 22.8828 22 24 22Z" fill="black"/>
</g>
</svg>
