<svg width="32" height="32" viewBox="0 0 32 32" fill="none" xmlns="http://www.w3.org/2000/svg">
<g id="sign-language-solid">
<path id="Vector" d="M20.2246 1.36719L18.6074 2.54297L26.9824 14.0703C26.9379 14.6666 26.6395 15.2191 26.1445 15.5645L23.3398 17.5234C22.4528 18.1434 21.2487 17.9519 20.5977 17.0879L14.7988 9.39844L13.2012 10.6016L19 18.293C19.788 19.337 20.9804 19.8887 22.1914 19.8887C22.9834 19.8887 23.7844 19.6521 24.4844 19.1621L27.2891 17.2031C28.3601 16.4561 29 15.2298 29 13.9238V7H27V10.6895L20.2246 1.36719ZM17.2109 2.32227L15.5938 3.49805L20.8398 10.7188L22.457 9.54297L17.2109 2.32227ZM15.3711 4.89453L13.752 6.07031L18.3789 12.4375L19.9961 11.2617L15.3711 4.89453ZM12.5801 15.1855L11.4199 16.8125L14.4805 19H3V21H17.252C17.717 21.3773 18 21.941 18 22.5449V26C18 27.103 17.103 28 16 28H6V30H16C18.206 30 20 28.206 20 26V22.5449C20 21.2559 19.3732 20.0381 18.3242 19.2891L12.5801 15.1855ZM2 22V24H11V22H2ZM3 25V27H11V25H3Z" fill="black"/>
</g>
</svg>
