<svg width="32" height="32" viewBox="0 0 32 32" fill="none" xmlns="http://www.w3.org/2000/svg">
<g id="sign-in-alt-solid">
<path id="Vector" d="M16 4C10.4219 4 5.74219 7.83203 4.40625 13H6.46875C7.74609 8.94531 11.5312 6 16 6C21.5156 6 26 10.4844 26 16C26 21.5156 21.5156 26 16 26C11.5312 26 7.74609 23.0547 6.46875 19H4.40625C5.74219 24.168 10.4219 28 16 28C22.6172 28 28 22.6172 28 16C28 9.38281 22.6172 4 16 4ZM15.3438 11.2812L13.9062 12.7188L16.1875 15H4V17H16.1875L13.9062 19.2812L15.3438 20.7188L19.3438 16.7188L20.0312 16L19.3438 15.2812L15.3438 11.2812Z" fill="black"/>
</g>
</svg>
