<svg width="32" height="32" viewBox="0 0 32 32" fill="none" xmlns="http://www.w3.org/2000/svg">
<g id="signature-solid">
<path id="Vector" d="M9.3125 4C8.55859 4 7.90625 4.36719 7.3125 4.875C6.71875 5.38281 6.17188 6.06641 5.6875 6.9375C4.71875 8.68359 4 11.1328 4 14.1875C4 15.7539 4.36328 17.3672 5.09375 18.6562C5.25391 18.9375 5.51562 19.125 5.71875 19.375C5.17578 20.0391 4.28125 21.2812 4.28125 21.2812L5.71875 22.7188C5.71875 22.7188 6.71094 21.3516 7.34375 20.5938C7.74609 20.7656 8.125 21 8.59375 21C10.3086 21 12.0977 20.25 13.75 19.3125C14.2812 19.7188 14.8789 20 15.5 20C17.5547 20 19.1172 18.793 20.2188 17.7188C20.5391 17.4062 20.7539 17.1758 21 16.9062C20.9961 17.1797 20.9883 17.4297 21.0625 17.75C21.1211 17.9922 21.1875 18.293 21.4375 18.5625C21.6875 18.832 22.1367 19 22.5 19C23.2305 19 23.6523 18.6641 24.0938 18.3438C24.5352 18.0234 24.9531 17.6406 25.4062 17.2812C26.3164 16.5625 27.2852 16 28 16V14C26.4141 14 25.1758 14.9375 24.1875 15.7188C23.7188 16.0898 23.2969 16.4141 22.9688 16.6562C22.9688 16.6016 22.9688 16.5898 22.9688 16.5312C22.9805 16.168 23.0352 15.7617 22.9688 15.3125C22.9375 15.0898 22.8633 14.8555 22.6562 14.5625C22.4492 14.2695 21.9844 14 21.5938 14C21.0312 14 20.8242 14.2422 20.625 14.4062C20.4258 14.5703 20.2773 14.7383 20.0938 14.9375C19.7266 15.3359 19.2891 15.8164 18.8125 16.2812C17.9727 17.1016 16.9844 17.7227 15.9062 17.875C16.6211 17.3008 17.3398 16.7305 17.8438 16.0938C18.5078 15.2578 19 14.4062 19 13.4062C19 12.8438 18.9297 12.0742 18.5 11.3438C18.0703 10.6133 17.1445 10 16 10C14.7695 10 13.6484 10.6055 12.9688 11.5625C12.2891 12.5195 12 13.7461 12 15.1875C12 16.168 12.2227 16.9805 12.5312 17.6875C11.1406 18.418 9.69922 19 8.59375 19C10.2852 16.4648 12 13.0117 12 8.8125C12 7.94141 12.0078 6.91406 11.7188 5.96875C11.5742 5.49609 11.3438 5.01562 10.9375 4.625C10.5312 4.23438 9.92969 4 9.3125 4ZM9.3125 6C9.49219 6 9.5 6.03516 9.5625 6.09375C9.625 6.15234 9.69922 6.29688 9.78125 6.5625C9.94141 7.08984 10 7.98047 10 8.8125C10 12.3555 8.48438 15.457 6.96875 17.7812C6.93359 17.7227 6.87891 17.7188 6.84375 17.6562C6.32422 16.7461 6 15.4219 6 14.1875C6 11.4414 6.65625 9.3125 7.4375 7.90625C7.82812 7.20312 8.23047 6.6875 8.59375 6.375C8.95703 6.0625 9.26562 6 9.3125 6ZM16 12C16.5547 12 16.6367 12.1328 16.7812 12.375C16.9258 12.6172 17 13.0664 17 13.4062C17 13.6562 16.7891 14.2383 16.2812 14.875C15.8398 15.4297 15.168 16.0039 14.4375 16.5625C14.2617 16.1602 14 15.8672 14 15.1875C14 14.0273 14.2461 13.1797 14.5938 12.6875C14.9414 12.1953 15.332 12 16 12ZM4 26V28H28V26H4Z" fill="black"/>
</g>
</svg>
