<svg width="32" height="32" viewBox="0 0 32 32" fill="none" xmlns="http://www.w3.org/2000/svg">
<g id="sign-out-alt-solid">
<path id="Vector" d="M16 4C9.38281 4 4 9.38281 4 16C4 22.6172 9.38281 28 16 28C20.0508 28 23.6406 25.9883 25.8125 22.9062L24.1875 21.75C22.3789 24.3203 19.3906 26 16 26C10.4648 26 6 21.5352 6 16C6 10.4648 10.4648 6 16 6C19.3906 6 22.375 7.67969 24.1875 10.25L25.8125 9.09375C23.6406 6.01172 20.0508 4 16 4ZM23.3438 11.2812L21.9062 12.7188L24.1875 15H12V17H24.1875L21.9062 19.2812L23.3438 20.7188L27.3438 16.7188L28.0312 16L27.3438 15.2812L23.3438 11.2812Z" fill="black"/>
</g>
</svg>
