<svg width="32" height="32" viewBox="0 0 32 32" fill="none" xmlns="http://www.w3.org/2000/svg">
<g id="sim-card-solid">
<path id="Vector" d="M9 4C8.47656 4 7.94141 4.18359 7.5625 4.5625C7.18359 4.94141 7 5.47656 7 6V26C7 26.5234 7.18359 27.0586 7.5625 27.4375C7.94141 27.8164 8.47656 28 9 28H23C23.5234 28 24.0586 27.8164 24.4375 27.4375C24.8164 27.0586 25 26.5234 25 26V11.4062C25 10.8828 24.7227 10.3164 24.4062 10L19 4.59375C18.6836 4.27734 18.1172 4 17.5938 4H9ZM9 6H17.5938L23 11.4062V26H9V6ZM11 15V24H21V15H11ZM13 17H19V22H13V17Z" fill="black"/>
</g>
</svg>
