<svg width="32" height="32" viewBox="0 0 32 32" fill="none" xmlns="http://www.w3.org/2000/svg">
<g id="simplybuilt">
<path id="Vector" d="M6 7C4.90625 7 4 7.90625 4 9V23C4 24.0938 4.90625 25 6 25H26C27.0938 25 28 24.0938 28 23V9C28 7.90625 27.0938 7 26 7H22C20.9062 7 20 7.90625 20 9V10H12V9C12 7.90625 11.0938 7 10 7H6ZM6 9H10V12H22V9H26V23H6V9ZM12 14.5C10.3438 14.5 9 15.8438 9 17.5C9 19.1562 10.3438 20.5 12 20.5C13.6562 20.5 15 19.1562 15 17.5C15 15.8438 13.6562 14.5 12 14.5ZM20 14.5C18.3438 14.5 17 15.8438 17 17.5C17 19.1562 18.3438 20.5 20 20.5C21.6562 20.5 23 19.1562 23 17.5C23 15.8438 21.6562 14.5 20 14.5Z" fill="black"/>
</g>
</svg>
