<svg width="32" height="32" viewBox="0 0 32 32" fill="none" xmlns="http://www.w3.org/2000/svg">
<g id="sith">
<path id="Vector" d="M4 4L7.73438 10.3613L5 10L8.24805 14.0586C8.09183 14.6815 8 15.3293 8 16C8 16.6707 8.09183 17.3185 8.24805 17.9414L5 22L7.73438 21.6387L4 28L10.3613 24.2656L10 27L14.0586 23.752C14.6815 23.9082 15.3293 24 16 24C16.6707 24 17.3185 23.9082 17.9414 23.752L22 27L21.6387 24.2656L28 28L24.2656 21.6387L27 22L23.752 17.9414C23.9082 17.3185 24 16.6707 24 16C24 15.3293 23.9082 14.6815 23.752 14.0586L27 10L24.2656 10.3613L28 4L21.6387 7.73438L22 5L17.9414 8.24805C17.3185 8.09183 16.6707 8 16 8C15.3293 8 14.6815 8.09183 14.0586 8.24805L10 5L10.3613 7.73438L4 4ZM16 10C19.309 10 22 12.691 22 16C22 19.309 19.309 22 16 22C12.691 22 10 19.309 10 16C10 12.691 12.691 10 16 10ZM16 12C14.9391 12 13.9217 12.4214 13.1716 13.1716C12.4214 13.9217 12 14.9391 12 16C12 17.0609 12.4214 18.0783 13.1716 18.8284C13.9217 19.5786 14.9391 20 16 20C17.0609 20 18.0783 19.5786 18.8284 18.8284C19.5786 18.0783 20 17.0609 20 16C20 14.9391 19.5786 13.9217 18.8284 13.1716C18.0783 12.4214 17.0609 12 16 12Z" fill="black"/>
</g>
</svg>
