<svg width="32" height="32" viewBox="0 0 32 32" fill="none" xmlns="http://www.w3.org/2000/svg">
<g id="skating-solid">
<path id="Vector" d="M22.5 4C20.5781 4 19 5.57812 19 7.5C19 9.42188 20.5781 11 22.5 11C24.4219 11 26 9.42188 26 7.5C26 5.57812 24.4219 4 22.5 4ZM22.5 6C23.3555 6 24 6.64453 24 7.5C24 8.35547 23.3555 9 22.5 9C21.6445 9 21 8.35547 21 7.5C21 6.64453 21.6445 6 22.5 6ZM9 9V11H17.5938L14 14.5938C13.2266 15.3672 13.2266 16.6328 14 17.4062L16 19.4062V24H18V19.4062C18 18.8789 17.7812 18.375 17.4062 18L15.4062 16L19 12.4062C19.6016 11.8047 19.7227 10.9336 19.4375 10.25C19.1523 9.56641 18.4414 9 17.5938 9H9ZM12.625 17.8125L9 21.4375L10.4062 22.8438L14.0312 19.2188L12.625 17.8125ZM7 21C6.44922 21 6 21.4492 6 22C6 22.5508 6.44922 23 7 23C7.27734 23 7.53906 22.8984 7.71875 22.7188C7.89844 22.5391 8 22.2773 8 22C8 21.4492 7.55078 21 7 21ZM7.71875 22.7188C7.53906 22.8984 7.40625 23.1289 7.40625 23.4062C7.40625 23.957 7.85547 24.4062 8.40625 24.4062C8.68359 24.4062 8.94531 24.3047 9.125 24.125C9.30469 23.9453 9.40625 23.6836 9.40625 23.4062C9.40625 22.8555 8.95703 22.4062 8.40625 22.4062C8.12891 22.4062 7.89844 22.5391 7.71875 22.7188ZM9.125 24.125C8.94531 24.3047 8.8125 24.5352 8.8125 24.8125C8.8125 25.3633 9.26172 25.8125 9.8125 25.8125C10.3633 25.8125 10.8125 25.3633 10.8125 24.8125C10.8125 24.2617 10.3633 23.8125 9.8125 23.8125C9.53516 23.8125 9.30469 23.9453 9.125 24.125ZM15.0625 25C14.5117 25 14.0625 25.4492 14.0625 26C14.0625 26.5508 14.5117 27 15.0625 27C15.6133 27 16.0625 26.5508 16.0625 26C16.0625 25.4492 15.6133 25 15.0625 25ZM16.0625 26C16.0625 26.5508 16.5117 27 17.0625 27C17.6133 27 18.0625 26.5508 18.0625 26C18.0625 25.4492 17.6133 25 17.0625 25C16.5117 25 16.0625 25.4492 16.0625 26ZM18.0625 26C18.0625 26.5508 18.5117 27 19.0625 27C19.6133 27 20.0625 26.5508 20.0625 26C20.0625 25.4492 19.6133 25 19.0625 25C18.5117 25 18.0625 25.4492 18.0625 26Z" fill="black"/>
</g>
</svg>
