<svg width="32" height="32" viewBox="0 0 32 32" fill="none" xmlns="http://www.w3.org/2000/svg">
<g id="sketch">
<path id="Vector" d="M16 3.99023L8.43359 5.07031L2.73047 13.0566L16 28.5371L29.2676 13.0566L23.5645 5.07031L16 3.99023ZM13.4707 6.37109L10.2031 10.1055L10.4297 6.80664L13.4707 6.37109ZM18.5293 6.37109L21.5703 6.80469L21.7969 10.1055L18.5293 6.37109ZM16 6.51953L20.7969 12H11.2031L16 6.51953ZM8.29492 8.70703L8.06641 12H5.94336L8.29492 8.70703ZM23.7051 8.70898L26.0566 12H23.9336L23.7051 8.70898ZM6.17578 14H8.38281L11.4727 20.1816L6.17578 14ZM10.6191 14H21.3809L16 24.7637L10.6191 14ZM23.6172 14H25.8242L20.5273 20.1816L23.6172 14Z" fill="black"/>
</g>
</svg>
