<svg width="32" height="32" viewBox="0 0 32 32" fill="none" xmlns="http://www.w3.org/2000/svg">
<g id="skull-crossbones-solid">
<path id="Vector" d="M6.5 3C5.67188 3 5 3.67188 5 4.5C5 4.73438 5.0625 4.96094 5.15625 5.15625C4.96094 5.0625 4.73438 5 4.5 5C3.67188 5 3 5.67188 3 6.5C3 7.32812 3.67188 8 4.5 8C5.07031 8 5.55859 7.6875 5.8125 7.21875L8.53125 9.96875C7.82812 11.0078 7.33594 12.2148 7.125 13.5C6.79688 15.4922 7.18359 17.3711 8 19V20C8 20.7109 8.26562 21.3594 8.6875 21.875L5.8125 24.75C5.55469 24.2969 5.05859 24 4.5 24C3.67188 24 3 24.6719 3 25.5C3 26.3281 3.67188 27 4.5 27C4.73438 27 4.96094 26.9375 5.15625 26.8438C5.05859 27.0391 5 27.2656 5 27.5C5 28.3281 5.67188 29 6.5 29C7.32812 29 8 28.3281 8 27.5C8 26.9414 7.70312 26.4453 7.25 26.1875L10.5 22.9375C10.6641 22.9648 10.8281 23 11 23C11 24.6445 12.3555 26 14 26H18C19.6445 26 21 24.6445 21 23C21.1719 23 21.3359 22.9648 21.5 22.9375L24.75 26.1875C24.2969 26.4453 24 26.9414 24 27.5C24 28.3281 24.6719 29 25.5 29C26.3281 29 27 28.3281 27 27.5C27 27.2656 26.9375 27.0391 26.8438 26.8438C27.0391 26.9375 27.2656 27 27.5 27C28.3281 27 29 26.3281 29 25.5C29 24.6719 28.3281 24 27.5 24C26.9414 24 26.4453 24.2969 26.1875 24.75L23.3125 21.875C23.7344 21.3594 24 20.7109 24 20V19.0312C24.6172 17.8125 25 16.457 25 15C25 13.1367 24.418 11.4062 23.4375 9.96875L26.1875 7.21875C26.4414 7.6875 26.9297 8 27.5 8C28.3281 8 29 7.32812 29 6.5C29 5.67188 28.3281 5 27.5 5C27.2656 5 27.0391 5.0625 26.8438 5.15625C26.9375 4.96094 27 4.73438 27 4.5C27 3.67188 26.3281 3 25.5 3C24.6719 3 24 3.67188 24 4.5C24 5.07031 24.3125 5.55859 24.7812 5.8125L22.125 8.4375C20.5 6.92188 18.3203 5.98828 15.9375 6C15.6055 6 15.2773 6.02344 14.9375 6.0625C12.9961 6.28516 11.2148 7.125 9.84375 8.40625L7.21875 5.8125C7.6875 5.55859 8 5.07031 8 4.5C8 3.67188 7.32812 3 6.5 3ZM15.9688 8C19.8711 7.97656 23 11.1094 23 15C23 16.2305 22.6836 17.3711 22.125 18.375L22 18.625V20C22 20.5664 21.5664 21 21 21H19V23C19 23.5664 18.5664 24 18 24H14C13.4336 24 13 23.5664 13 23V21H11C10.4336 21 10 20.5664 10 20V18.625L9.875 18.375C9.14453 17.0547 8.81641 15.4922 9.09375 13.8125C9.58594 10.7969 12.1484 8.40625 15.1875 8.0625C15.4531 8.03125 15.707 8 15.9688 8ZM13 15C11.8945 15 11 15.8945 11 17C11 18.1055 11.8945 19 13 19C14.1055 19 15 18.1055 15 17C15 15.8945 14.1055 15 13 15ZM19 15C17.8945 15 17 15.8945 17 17C17 18.1055 17.8945 19 19 19C20.1055 19 21 18.1055 21 17C21 15.8945 20.1055 15 19 15ZM15 20V22H17V20H15Z" fill="black"/>
</g>
</svg>
