<svg width="32" height="32" viewBox="0 0 32 32" fill="none" xmlns="http://www.w3.org/2000/svg">
<g id="skull-solid">
<path id="Vector" d="M16 4C13.082 4 10.3477 4.76172 8.3125 6.34375C6.27734 7.92578 5 10.375 5 13.4375C5 16.2422 6.37891 18.4258 7.125 19.4062C7.0625 19.7305 7 20.0703 7 20.4688C7 21.6602 7.71484 22.6602 8.65625 23.2188C9.31641 23.6094 10.1719 23.6797 11 23.7812V26.4062L11.3125 26.7188C11.3125 26.7188 11.7461 27.1367 12.5 27.4375C13.2539 27.7383 14.3984 28 16 28C17.6016 28 18.7461 27.7383 19.5 27.4375C20.2539 27.1367 20.6875 26.7188 20.6875 26.7188L21 26.4062V23.7812C21.8281 23.6797 22.6836 23.6094 23.3438 23.2188C24.2852 22.6602 25 21.6602 25 20.4688C25 20.0703 24.9375 19.7305 24.875 19.4062C25.6211 18.4258 27 16.2422 27 13.4375C27 10.3711 25.7227 7.92578 23.6875 6.34375C21.6523 4.76172 18.918 4 16 4ZM16 6C18.5742 6 20.8477 6.67188 22.4375 7.90625C24.0273 9.14062 25 10.9102 25 13.4375C25 14.7969 24.5625 16 24.0938 16.9062C24.043 16.6602 24 16.3867 24 16H22C22 17.2383 22.3398 18.0586 22.5938 18.6562C22.8477 19.2539 23 19.6211 23 20.4688C23 20.9492 22.8164 21.2031 22.3125 21.5C21.8086 21.7969 20.9766 22 20 22H19V25.4375C18.918 25.4844 18.9727 25.4727 18.75 25.5625C18.25 25.7617 17.3789 26 16 26C14.6211 26 13.75 25.7617 13.25 25.5625C13.0273 25.4727 13.082 25.4844 13 25.4375V22H12C11.0234 22 10.1914 21.7969 9.6875 21.5C9.18359 21.2031 9 20.9492 9 20.4688C9 19.6211 9.15234 19.2539 9.40625 18.6562C9.66016 18.0586 10 17.2383 10 16H8C8 16.3867 7.95703 16.6602 7.90625 16.9062C7.4375 16 7 14.7969 7 13.4375C7 10.9102 7.97266 9.14062 9.5625 7.90625C11.1523 6.67188 13.4258 6 16 6ZM13 16C11.8945 16 11 16.8945 11 18C11 19.1055 11.8945 20 13 20C14.1055 20 15 19.1055 15 18C15 16.8945 14.1055 16 13 16ZM19 16C17.8945 16 17 16.8945 17 18C17 19.1055 17.8945 20 19 20C20.1055 20 21 19.1055 21 18C21 16.8945 20.1055 16 19 16ZM16 19.75C16 19.75 14.75 21.3438 14.75 22.0938C14.75 22.4688 15 22.6562 15.25 22.6562C15.668 22.6562 16 21.9062 16 21.9062C16 21.9062 16.332 22.6562 16.75 22.6562C17 22.6562 17.25 22.4688 17.25 22.0938C17.25 21.3438 16 19.75 16 19.75Z" fill="black"/>
</g>
</svg>
