<svg width="32" height="32" viewBox="0 0 32 32" fill="none" xmlns="http://www.w3.org/2000/svg">
<g id="skyatlas">
<path id="Vector" d="M17.8047 6.59375C19.6602 6.59375 24.707 8.05469 24.707 13.4766C24.707 13.8047 24.6367 14.5781 24.6367 14.5781C24.6367 14.5781 25.5547 14.2969 26.5859 14.2969C27.9492 14.2969 32 15.3672 32 19.6875C32 23.7969 28.4648 25.4062 26.2109 25.4062C17.9688 25.4062 16.1367 12.8867 8.19922 12.8867C4.51172 12.8867 2.63281 15.5898 2.63281 18.0078C2.63281 21.625 5.33203 23.5508 8.33984 23.5508C12.8477 23.5508 15.3984 20.5938 15.7578 20.5938C16.1836 20.5938 16.3711 20.832 16.3711 21.0664C16.3711 22.0273 12.2852 25.4062 7.91406 25.4062C3.65234 25.4062 0 22.7031 0 18.0078C0 13.7344 3.54688 10.6562 7.65625 10.6562C16.8789 10.6562 18.6875 23.0117 25.7422 23.0117C28.2539 23.0117 29.5 21.2266 29.5 19.6289C29.5 17.6328 28.043 15.9883 25.9766 15.9883C25.1289 15.9883 24.2383 16.5547 23.6289 16.5547C23.0156 16.5547 22.7812 16.1289 22.7812 15.7539C22.7812 15.3086 23.1094 14.5547 23.1094 13.7109C23.1094 12.2617 21.9727 8.19141 17.2383 8.19141C14.4688 8.19141 13.293 10.0703 12.7773 10.0703C12.2578 10.0703 12.2109 9.8125 12.2109 9.48438C12.2148 9.15234 13.9961 6.59375 17.8047 6.59375Z" fill="black"/>
</g>
</svg>
