<svg width="32" height="32" viewBox="0 0 32 32" fill="none" xmlns="http://www.w3.org/2000/svg">
<g id="skype">
<path id="Vector" d="M11 4C7.14453 4 4 7.14453 4 11C4 12.0312 4.31641 12.9883 4.71875 13.875C4.58984 14.5664 4.5 15.2695 4.5 16C4.5 22.3398 9.66016 27.5 16 27.5C16.7305 27.5 17.4336 27.4102 18.125 27.2812C19.0117 27.6836 19.9688 28 21 28C24.8555 28 28 24.8555 28 21C28 19.9688 27.6836 19.0117 27.2812 18.125C27.4102 17.4336 27.5 16.7305 27.5 16C27.5 9.66016 22.3398 4.5 16 4.5C15.2695 4.5 14.5664 4.58984 13.875 4.71875C12.9883 4.31641 12.0312 4 11 4ZM11 6C11.8633 6 12.668 6.21094 13.375 6.59375C13.5859 6.70703 13.8281 6.73828 14.0625 6.6875C14.6914 6.55859 15.332 6.5 16 6.5C21.2578 6.5 25.5 10.7422 25.5 16C25.5 16.668 25.4414 17.3086 25.3125 17.9375C25.2617 18.1719 25.293 18.4141 25.4062 18.625C25.7891 19.332 26 20.1367 26 21C26 23.7734 23.7734 26 21 26C20.1367 26 19.332 25.7891 18.625 25.4062C18.4141 25.293 18.1719 25.2617 17.9375 25.3125C17.3086 25.4414 16.668 25.5 16 25.5C10.7422 25.5 6.5 21.2578 6.5 16C6.5 15.332 6.55859 14.6914 6.6875 14.0625C6.73828 13.8281 6.70703 13.5859 6.59375 13.375C6.21094 12.668 6 11.8633 6 11C6 8.22656 8.22656 6 11 6ZM15.8438 9.15625C13.3711 9.15625 10.7188 10.2031 10.7188 13C10.7188 14.3477 11.1953 15.7734 13.8438 16.4375L17.1562 17.25C18.1523 17.4961 18.4062 18.0586 18.4062 18.5625C18.4062 19.4023 17.5742 20.2188 16.0625 20.2188C13.1094 20.2188 13.4883 17.9688 11.9062 17.9688C11.1953 17.9688 10.6875 18.457 10.6875 19.1562C10.6875 20.5195 12.3633 22.3125 16.0625 22.3125C19.582 22.3125 21.3125 20.6133 21.3125 18.3438C21.3125 16.875 20.6367 15.3438 17.9688 14.75L15.5312 14.1875C14.6055 13.9766 13.5312 13.7148 13.5312 12.8438C13.5312 11.9688 14.2734 11.3438 15.625 11.3438C18.3477 11.3438 18.1172 13.2188 19.4688 13.2188C20.1797 13.2188 20.7812 12.8125 20.7812 12.0938C20.7812 10.4141 18.1211 9.15625 15.8438 9.15625Z" fill="black"/>
</g>
</svg>
