<svg width="32" height="32" viewBox="0 0 32 32" fill="none" xmlns="http://www.w3.org/2000/svg">
<g id="slack">
<path id="Vector" d="M17.6562 3.00004C17.375 2.97661 17.0625 3.03129 16.7812 3.12504C15.6523 3.50395 15.0586 4.71489 15.4375 5.84379L16.3437 8.50004L11.2187 10.2188L10.375 7.65629C9.99609 6.52739 8.78515 5.93364 7.65625 6.31254C6.52343 6.69145 5.90234 7.90239 6.28125 9.03129L7.125 11.5625L4.46875 12.4688C3.33984 12.8477 2.74609 14.0899 3.125 15.2188C3.5039 16.3477 4.71484 16.9414 5.84375 16.5625L8.5 15.6875L10.2187 20.7813L7.65625 21.625C6.52734 22.0039 5.93359 23.2149 6.3125 24.3438C6.6914 25.4766 7.90234 26.0977 9.03125 25.7188L11.5625 24.875L12.4687 27.5313C12.8477 28.6602 14.0898 29.2539 15.2187 28.875C16.3477 28.4961 16.9414 27.2852 16.5625 26.1563L15.6875 23.5L20.7812 21.7813L21.625 24.3438C22.0039 25.4727 23.2148 26.0664 24.3437 25.6875C25.4766 25.3086 26.0977 24.0977 25.7187 22.9688L24.875 20.4375L27.5312 19.5313C28.6602 19.1524 29.2539 17.9102 28.875 16.7813C28.4961 15.6524 27.2852 15.0586 26.1562 15.4375L23.5 16.3125L21.7812 11.2188L24.3437 10.375C25.4727 9.99614 26.0664 8.7852 25.6875 7.65629C25.3086 6.52739 24.0977 5.90239 22.9687 6.28129L20.4375 7.12504L19.5312 4.46879C19.2461 3.62114 18.4961 3.06645 17.6562 3.00004ZM17.6875 12.5938L19.4062 17.6875L14.3125 19.4063L12.5937 14.3125L17.6875 12.5938Z" fill="black"/>
</g>
</svg>
