<svg width="32" height="32" viewBox="0 0 32 32" fill="none" xmlns="http://www.w3.org/2000/svg">
<g id="slack-hash">
<path id="Vector" d="M17.6563 3.00004C17.375 2.97661 17.0625 3.03129 16.7813 3.12504C15.6523 3.50395 15.0586 4.71489 15.4375 5.84379L16.3438 8.50004L11.2188 10.2188L10.375 7.65629C9.9961 6.52739 8.78516 5.93364 7.65625 6.31254C6.52344 6.69145 5.90235 7.90239 6.28125 9.03129L7.125 11.5625L4.46875 12.4688C3.33985 12.8477 2.7461 14.0899 3.125 15.2188C3.50391 16.3477 4.71485 16.9414 5.84375 16.5625L8.5 15.6875L10.2188 20.7813L7.65625 21.625C6.52735 22.0039 5.9336 23.2149 6.3125 24.3438C6.69141 25.4766 7.90235 26.0977 9.03125 25.7188L11.5625 24.875L12.4688 27.5313C12.8477 28.6602 14.0898 29.2539 15.2188 28.875C16.3477 28.4961 16.9414 27.2852 16.5625 26.1563L15.6875 23.5L20.7813 21.7813L21.625 24.3438C22.0039 25.4727 23.2148 26.0664 24.3438 25.6875C25.4766 25.3086 26.0977 24.0977 25.7188 22.9688L24.875 20.4375L27.5313 19.5313C28.6602 19.1524 29.2539 17.9102 28.875 16.7813C28.4961 15.6524 27.2852 15.0586 26.1563 15.4375L23.5 16.3125L21.7813 11.2188L24.3438 10.375C25.4727 9.99614 26.0664 8.7852 25.6875 7.65629C25.3086 6.52739 24.0977 5.90239 22.9688 6.28129L20.4375 7.12504L19.5313 4.46879C19.2461 3.62114 18.4961 3.06645 17.6563 3.00004ZM17.6875 12.5938L19.4063 17.6875L14.3125 19.4063L12.5938 14.3125L17.6875 12.5938Z" fill="black"/>
</g>
</svg>
