<svg width="32" height="32" viewBox="0 0 32 32" fill="none" xmlns="http://www.w3.org/2000/svg">
<g id="sleigh-solid">
<path id="Vector" d="M4.5 7C3.13281 7 2 8.13281 2 9.5V10H4V9.5C4 9.21484 4.21484 9 4.5 9C4.75781 9 5 9.27344 5 9.5C5 9.70312 4.66016 10.332 4.125 11.3125C3.58984 12.293 3 13.6523 3 15.5C3 18.3516 5.21094 20.7148 8 20.9688V23H3V25H27C28.6445 25 30 23.6445 30 22C30 20.3555 28.6445 19 27 19V21C27.5664 21 28 21.4336 28 22C28 22.5664 27.5664 23 27 23H22V20.7812C24.2969 20.1211 26 18 26 15.5V13C26 12.4336 26.4336 12 27 12C27.5664 12 28 12.4336 28 13H30C30 11.3555 28.6445 10 27 10C25.3555 10 24 11.3555 24 13C24 14.2695 23.5508 14.5508 23.0625 14.7812C22.5742 15.0117 22.0625 15 22.0625 15H17C15.8594 15 15.543 14.5781 15.2812 14.0625C15.0195 13.5469 15 13 15 13V12C15 9.71875 13.6953 8.28906 12.4688 7.65625C11.2422 7.02344 10.0312 7 10.0312 7H4.5ZM6.9375 9H10C10.0273 9 10.7734 9.04688 11.5312 9.4375C12.3047 9.83594 13 10.4062 13 12V13C13 13 13 13.9531 13.5 14.9375C14 15.9219 15.1836 17 17 17H21.9375H22C22.0508 17.0039 22.8672 17.043 23.7812 16.6562C23.3047 18.0234 22.0273 19 20.5 19H8.5C6.57031 19 5 17.4297 5 15.5C5 14.0547 5.41016 13.1016 5.875 12.25C6.33984 11.3984 7 10.6719 7 9.5C7 9.33203 6.96875 9.16016 6.9375 9ZM10 21H20V23H10V21Z" fill="black"/>
</g>
</svg>
