<svg width="32" height="32" viewBox="0 0 32 32" fill="none" xmlns="http://www.w3.org/2000/svg">
<g id="slideshare">
<path id="Vector" d="M8 4C6.35547 4 5 5.35547 5 7V15.4062C4.23047 14.9609 3.62891 14.5625 3.5 14.5625C3.14062 14.5625 3 14.9062 3 15.125C3 16.2461 6.33594 18.4062 8.4375 19.1875C8.4375 19.1875 7.90625 20.7383 7.90625 22.5C7.90625 24.2617 8.99219 28 12.4375 28C12.4375 28 15 27.9922 15 25.4688V20.5L17 21.0938V25.4688C17 27.9922 19.5625 28 19.5625 28C23.0078 28 24.0938 24.2617 24.0938 22.5C24.0938 20.7383 23.5625 19.1875 23.5625 19.1875C25.6641 18.4062 29 16.2461 29 15.125C29 14.9062 28.8594 14.5625 28.5 14.5625C28.3711 14.5625 27.7695 14.9609 27 15.4062V7C27 5.35547 25.6445 4 24 4H8ZM8 6H24C24.5664 6 25 6.43359 25 7V16.4062C23.8867 16.8711 22.6016 17.25 21.2812 17.25C19.8203 17.25 18.9023 17.1562 18.2812 17.1562C17.0781 17.1562 17 18.4375 17 18.4375V19.3438L14.6562 17.5625C14.4688 17.3398 14.168 17.1562 13.7188 17.1562C13.0977 17.1562 12.1797 17.25 10.7188 17.25C9.39844 17.25 8.11328 16.8711 7 16.4062V7C7 6.43359 7.43359 6 8 6ZM12.3125 10.9688C10.8359 10.9688 9.65625 12.1133 9.65625 13.5C9.65625 14.8867 10.8359 16 12.3125 16C13.7891 16 15 14.8867 15 13.5C15 12.1133 13.7891 10.9688 12.3125 10.9688ZM19.6875 10.9688C18.2109 10.9688 17 12.1133 17 13.5C17 14.8867 18.2109 16 19.6875 16C21.1641 16 22.3438 14.8867 22.3438 13.5C22.3438 12.1133 21.1641 10.9688 19.6875 10.9688Z" fill="black"/>
</g>
</svg>
