<svg width="32" height="32" viewBox="0 0 32 32" fill="none" xmlns="http://www.w3.org/2000/svg">
<g id="sliders-h-solid">
<path id="Vector" d="M15 5C13.707 5 12.6055 5.84375 12.1875 7H4V9H12.1875C12.6055 10.1562 13.707 11 15 11C16.293 11 17.3945 10.1562 17.8125 9H28V7H17.8125C17.3945 5.84375 16.293 5 15 5ZM15 7C15.5625 7 16 7.4375 16 8C16 8.5625 15.5625 9 15 9C14.4375 9 14 8.5625 14 8C14 7.4375 14.4375 7 15 7ZM22 13C20.707 13 19.6055 13.8438 19.1875 15H4V17H19.1875C19.6055 18.1562 20.707 19 22 19C23.293 19 24.3945 18.1562 24.8125 17H28V15H24.8125C24.3945 13.8438 23.293 13 22 13ZM22 15C22.5625 15 23 15.4375 23 16C23 16.5625 22.5625 17 22 17C21.4375 17 21 16.5625 21 16C21 15.4375 21.4375 15 22 15ZM11 21C9.70703 21 8.60547 21.8438 8.1875 23H4V25H8.1875C8.60547 26.1562 9.70703 27 11 27C12.293 27 13.3945 26.1562 13.8125 25H28V23H13.8125C13.3945 21.8438 12.293 21 11 21ZM11 23C11.5625 23 12 23.4375 12 24C12 24.5625 11.5625 25 11 25C10.4375 25 10 24.5625 10 24C10 23.4375 10.4375 23 11 23Z" fill="black"/>
</g>
</svg>
