<svg width="32" height="32" viewBox="0 0 32 32" fill="none" xmlns="http://www.w3.org/2000/svg">
<g id="smile-wink-solid">
<path id="Vector" d="M16 4C9.38281 4 4 9.38281 4 16C4 22.6172 9.38281 28 16 28C22.6172 28 28 22.6172 28 16C28 9.38281 22.6172 4 16 4ZM16 6C21.5352 6 26 10.4648 26 16C26 21.5352 21.5352 26 16 26C10.4648 26 6 21.5352 6 16C6 10.4648 10.4648 6 16 6ZM11.5 12C10.6719 12 10 12.6719 10 13.5C10 14.3281 10.6719 15 11.5 15C12.3281 15 13 14.3281 13 13.5C13 12.6719 12.3281 12 11.5 12ZM18 13V15H23V13H18ZM20.9688 17.0312C20.9688 18.7148 20.293 19.8828 19.3125 20.7188C18.332 21.5547 17.0352 22 16 22C13.8789 22 12.4375 21.1406 11.3125 20.0312L9.90625 21.4688C11.3008 22.8398 13.3203 24 16 24C17.5547 24 19.2617 23.4141 20.625 22.25C21.9883 21.0859 22.9688 19.2891 22.9688 17.0312H20.9688Z" fill="black"/>
</g>
</svg>
