<svg width="32" height="32" viewBox="0 0 32 32" fill="none" xmlns="http://www.w3.org/2000/svg">
<g id="smile-beam">
<path id="Vector" d="M16 3C8.832 3 3 8.832 3 16C3 23.168 8.832 29 16 29C23.168 29 29 23.168 29 16C29 8.832 23.168 3 16 3ZM16 5C22.065 5 27 9.935 27 16C27 22.065 22.065 27 16 27C9.935 27 5 22.065 5 16C5 9.935 9.935 5 16 5ZM11 12C8.906 12 7.39062 13.207 7.39062 13.207L8.60938 14.793C8.60938 14.793 9.69295 14 11.002 14C12.311 14 13.3926 14.793 13.3926 14.793L14.6113 13.207C14.6093 13.207 13.094 12 11 12ZM21 12C18.906 12 17.3906 13.207 17.3906 13.207L18.6094 14.793C18.6094 14.793 19.693 14 21.002 14C22.311 14 23.3926 14.793 23.3926 14.793L24.6113 13.207C24.6093 13.207 23.094 12 21 12ZM10.8105 19L9.08984 20C9.26359 20.2987 9.455 20.5847 9.66406 20.8574C9.87313 21.1302 10.1005 21.3893 10.3418 21.6328C10.8243 22.1198 11.3684 22.5459 11.9609 22.8965C12.2572 23.0718 12.5637 23.2289 12.8828 23.3652C13.2019 23.5016 13.5323 23.6168 13.8711 23.7109C14.2098 23.8051 14.5587 23.8771 14.9141 23.9258C15.2694 23.9745 15.6313 24 16 24C16.3687 24 16.7306 23.9745 17.0859 23.9258C18.8625 23.6823 20.452 22.8504 21.6582 21.6328C21.8995 21.3893 22.1269 21.1302 22.3359 20.8574C22.545 20.5847 22.7364 20.2987 22.9102 20L21.1895 19C20.2795 20.5662 18.696 21.6892 16.8203 21.9453C16.5524 21.9819 16.2788 22 16 22C15.7212 22 15.4476 21.9819 15.1797 21.9453C14.9117 21.9087 14.6495 21.8539 14.3945 21.7832C13.8847 21.6418 13.4034 21.435 12.959 21.1719C12.5146 20.9088 12.1072 20.5898 11.7461 20.2246C11.5655 20.042 11.3966 19.847 11.2402 19.6426C11.0838 19.4382 10.9405 19.2237 10.8105 19Z" fill="black"/>
</g>
</svg>
