<svg width="32" height="32" viewBox="0 0 32 32" fill="none" xmlns="http://www.w3.org/2000/svg">
<g id="smog-solid">
<path id="Vector" d="M8 5C4.686 5 2 7.686 2 11C2 14.314 4.686 17 8 17H15.0234C15.9364 18.208 17.37 19 19 19C20.63 19 22.0646 18.208 22.9766 17H25.5C27.985 17 30 14.985 30 12.5C30 10.015 27.985 8 25.5 8C24.596 8 23.7577 8.27147 23.0527 8.73047C22.1577 6.54247 20.01 5 17.5 5C15.564 5 13.847 5.92075 12.75 7.34375C11.653 5.92075 9.936 5 8 5ZM5 21V23H30V21H5ZM2 25V27H9V25H2ZM11 25V27H27V25H11Z" fill="black"/>
</g>
</svg>
