<svg width="32" height="32" viewBox="0 0 32 32" fill="none" xmlns="http://www.w3.org/2000/svg">
<g id="smoking-ban-solid">
<path id="Vector" d="M3.71875 2.28125L2.28125 3.71875L28.2812 29.7188L29.7188 28.2812L23.4375 22H31V16H17.4375L3.71875 2.28125ZM16.0312 4C15.6719 4.35938 15.4062 4.78516 15.0938 5.46875C14.7812 6.15234 14.5039 7.01172 14.5 7.96875C14.4961 8.92578 14.8281 10.0195 15.6875 10.8438C16.5469 11.668 17.8594 12.2031 19.6875 12.4375C21.2109 12.6328 22.1914 12.8828 22.75 13.2188C23.3086 13.5547 23.5391 13.8984 23.7188 14.7188L25.6875 14.2812C25.4297 13.1016 24.7773 12.0977 23.7812 11.5C22.7852 10.9023 21.5664 10.6445 19.9375 10.4375C18.3789 10.2383 17.5078 9.80078 17.0625 9.375C16.6172 8.94922 16.5 8.51172 16.5 7.96875C16.5 7.42578 16.6758 6.81641 16.9062 6.3125C17.1367 5.80859 17.4922 5.35156 17.4375 5.40625L16.0312 4ZM21.5625 4.3125V6.3125C22.1836 6.3125 22.9844 6.40625 23.5938 6.75C24.2031 7.09375 24.7188 7.60156 24.8438 9.0625L24.9375 10H25.8438C26.3594 10 27.4336 10.1602 27.9688 10.625C28.2344 10.8594 28.4062 11.1328 28.4688 11.6562C28.5312 12.1797 28.4375 12.9805 27.9688 14.125L29.8438 14.875C30.4023 13.5156 30.5859 12.3867 30.4688 11.4062C30.3516 10.4258 29.875 9.64453 29.2812 9.125C28.3789 8.33594 27.3984 8.13281 26.5938 8.0625C26.2461 6.61719 25.5234 5.52734 24.5938 5C23.4727 4.36328 22.3047 4.3125 21.5625 4.3125ZM1 16V22H17.8125L15.8125 20H3V18H13.8125L11.8125 16H1ZM19.4375 18H23V20H21.4375L19.4375 18ZM25 18H26V20H25V18ZM28 18H29V20H28V18Z" fill="black"/>
</g>
</svg>
