<svg width="32" height="32" viewBox="0 0 32 32" fill="none" xmlns="http://www.w3.org/2000/svg">
<g id="snapchat-ghost">
<path id="Vector" d="M15.6875 4.00005C15.0977 4.00396 13.9492 4.09771 12.6562 4.6563C11.3398 5.22271 9.91406 6.31255 9.03125 8.25005C8.33593 9.7774 8.54687 11.6836 8.65625 13.2501C8.49609 13.2188 8.36328 13.2344 8.125 13.1251C7.89453 13.0196 7.66406 12.9688 7.4375 12.9688C7.03125 12.9688 6.68359 13.0782 6.34375 13.2813C6.0039 13.4844 5.60937 13.8126 5.5 14.3751C5.43359 14.7266 5.53515 15.2501 5.84375 15.6251C6.15234 16.0001 6.60937 16.2657 7.21875 16.5001C7.36328 16.5547 7.47265 16.6172 7.59375 16.6563C7.85156 16.7344 8.13281 16.8126 8.3125 16.9063C8.49218 17.0001 8.51953 17.0743 8.5 17.0313C8.49609 17.0665 8.47265 17.1524 8.40625 17.2813C8.39453 17.293 8.38671 17.3008 8.375 17.3126C8.34765 17.3711 6.93359 20.4454 4.0625 20.9063C3.4414 21.004 2.96484 21.5743 3 22.2188C3.01171 22.3946 3.0664 22.5508 3.125 22.6876C3.34765 23.1993 3.78906 23.5274 4.375 23.7813C4.84765 23.9844 5.60546 24.129 6.4375 24.2813C6.45312 24.336 6.45312 24.3321 6.46875 24.4063C6.50781 24.5821 6.55468 24.8047 6.625 25.0313C6.71484 25.3282 6.95703 25.6524 7.25 25.8126C7.54296 25.9727 7.79687 25.9688 7.9375 25.9688C8.23828 25.9688 8.42578 25.9141 8.625 25.8751C8.95312 25.8126 9.30859 25.7501 9.78125 25.7501C10.043 25.7501 10.3437 25.7657 10.625 25.8126C11.0156 25.8751 11.4531 26.1719 12.0625 26.5938C12.9453 27.2032 14.125 28.0001 15.8437 28.0001C15.8633 28.0001 15.8867 28.0001 15.9062 28.0001C15.957 28.0001 16.0234 28.004 16.0625 28.0001C16.0937 28.0001 16.125 28.0001 16.1562 28.0001C17.875 28.0001 19.0508 27.2032 19.9375 26.5938C20.5469 26.1758 21.0156 25.8751 21.4062 25.8126C21.6875 25.7657 21.957 25.7501 22.2187 25.7501C22.6836 25.7501 23.0156 25.8086 23.375 25.8751C23.625 25.9219 23.8242 25.9688 24.0625 25.9688H24.0937C24.3242 25.9688 24.6445 25.9063 24.9062 25.7188C25.168 25.5313 25.3086 25.2266 25.375 25.0001C25.4414 24.7774 25.4883 24.5899 25.5312 24.4063C25.5469 24.3282 25.5469 24.336 25.5625 24.2813C26.3945 24.129 27.1523 23.9844 27.625 23.7813C28.2109 23.5274 28.6523 23.1993 28.875 22.6876C28.9336 22.5469 28.9883 22.3907 29 22.2188C29.0352 21.586 28.5781 21.0079 27.9687 20.9063C27.957 20.9063 27.9492 20.9063 27.9375 20.9063C26.5 20.6758 25.4492 19.8399 24.7187 19.0001C23.9883 18.1602 23.6211 17.3321 23.625 17.3438C23.6172 17.3321 23.5937 17.2813 23.5937 17.2813C23.5273 17.1524 23.5039 17.0665 23.5 17.0313C23.4805 17.0743 23.5078 17.0001 23.6875 16.9063C23.8672 16.8126 24.1484 16.7344 24.4062 16.6563C24.5352 16.6172 24.668 16.5547 24.8125 16.5001C25.3477 16.293 25.7266 16.0899 26.0312 15.7813C26.3359 15.4727 26.5391 15.0118 26.5312 14.6251C26.5156 13.7969 25.9062 13.3399 25.3125 13.1251C25.3086 13.1251 25.3164 13.0938 25.3125 13.0938C25.3008 13.0899 25.293 13.0977 25.2812 13.0938C25.0312 12.9961 24.793 12.9688 24.5312 12.9688C24.3516 12.9688 24.0859 12.9727 23.75 13.1251C23.5781 13.2032 23.4766 13.1836 23.3437 13.2188C23.4531 11.6602 23.6641 9.76958 22.9687 8.25005C22.0859 6.31255 20.6641 5.19537 19.3437 4.62505C18.0234 4.05474 16.8281 4.00005 16.25 4.00005H16.1875C16.1875 4.00005 16.0742 4.00005 15.9687 4.00005C15.918 4.00005 15.8555 4.00005 15.8125 4.00005C15.7891 4.00005 15.7578 4.00005 15.75 4.00005C15.7422 4.00005 15.7773 3.99224 15.6875 4.00005ZM15.75 6.00005C15.7812 6.00005 15.8125 6.00005 15.8437 6.00005C15.8828 6.00005 15.9492 6.00005 16 6.00005C16.1016 6.00005 16.1875 6.00005 16.1875 6.00005H16.25C16.6484 6.00005 17.5664 6.05474 18.5312 6.4688C19.4961 6.88287 20.4844 7.62505 21.1562 9.0938C21.4648 9.77349 21.4805 11.7461 21.375 13.3438L21.3437 13.4063C21.3281 13.629 21.3242 13.8516 21.3125 14.0626C21.2969 14.3399 21.3984 14.6133 21.5937 14.8126C21.7109 14.9297 22.168 15.1407 22.6562 15.2501C22.293 15.4571 21.8828 15.7266 21.6562 16.2501C21.4062 16.8282 21.5195 17.4297 21.75 17.9688C21.7578 18.0001 21.7695 18.0313 21.7812 18.0626C21.7852 18.0704 21.7773 18.086 21.7812 18.0938C21.7812 18.0977 21.7812 18.1211 21.7812 18.1251C21.7891 18.1368 21.8047 18.1446 21.8125 18.1563C21.8906 18.336 22.3047 19.2618 23.2187 20.3126C23.8281 21.0118 24.7383 21.6641 25.8125 22.1876C25.4727 22.2735 25.3203 22.3555 24.7812 22.4376C24.2969 22.5118 23.9297 22.9493 23.8125 23.2188C23.7031 23.4649 23.6758 23.6758 23.625 23.9063C23.2344 23.836 22.7969 23.7501 22.2187 23.7501C21.8437 23.7501 21.4414 23.7813 21.0625 23.8438C20.0977 24.0001 19.418 24.5196 18.8125 24.9376C17.9219 25.5469 17.2812 26.0001 16.1562 26.0001C16.1172 26.0001 16.0781 26.004 16.0312 26.0001C15.9883 25.9961 15.9492 25.9961 15.9062 26.0001C15.8867 26.0001 15.8516 26.0001 15.8437 26.0001C14.7187 26.0001 14.0703 25.5469 13.1875 24.9376C12.5781 24.5196 11.9062 24.0001 10.9375 23.8438C10.5586 23.7813 10.1562 23.7501 9.78125 23.7501C9.17578 23.7501 8.74218 23.8126 8.40625 23.8751C8.36328 23.6758 8.3164 23.4805 8.21875 23.2501C8.10546 22.9844 7.75781 22.5196 7.21875 22.4376C6.69531 22.3594 6.55468 22.2735 6.21875 22.1876C8.85156 20.9141 10.0703 18.4532 10.1875 18.1876V18.1563C10.1875 18.1524 10.2148 18.1329 10.2187 18.1251C10.2344 18.0977 10.2539 18.0782 10.2812 17.9688L10.2187 17.9376C10.4414 17.3985 10.5937 16.8204 10.3437 16.2501C10.1094 15.711 9.68359 15.4258 9.3125 15.2188C9.77734 15.1211 10.2422 14.9805 10.4062 14.8126C10.6016 14.6133 10.7031 14.3399 10.6875 14.0626C10.6758 13.8282 10.6719 13.5938 10.6562 13.3438C10.5547 11.7422 10.5352 9.77349 10.8437 9.0938C11.5156 7.62505 12.5078 6.88287 13.4687 6.4688C14.4297 6.05474 15.3555 6.00005 15.75 6.00005Z" fill="black"/>
</g>
</svg>
