<svg width="32" height="32" viewBox="0 0 32 32" fill="none" xmlns="http://www.w3.org/2000/svg">
<g id="snapchat-square">
<path id="Vector" d="M5 5V27H27V5H5ZM7 7H25V25H7V7ZM16.1191 9.99805C16.0981 9.99805 15.9058 10.0039 15.8848 10.0039C15.3918 10.0039 13.7129 10.1521 12.9199 12.0371C12.6199 12.7531 12.7362 14.0317 12.7852 14.9277C12.7462 14.9497 12.6687 14.9805 12.5527 14.9805C12.3947 14.9805 12.208 14.9273 12 14.8223C11.736 14.6913 11.2845 14.89 11.2285 15.209C11.1935 15.393 11.2692 15.6625 11.8262 15.8945C12.0412 15.9885 12.5538 16.0946 12.6738 16.3906C12.7238 16.5146 12.7052 16.6724 12.6172 16.8594C12.6142 16.8634 12.6094 16.8651 12.6094 16.8691C12.5774 16.9441 11.8449 18.7248 10.2129 19.0098C10.0859 19.0318 9.99886 19.1521 10.0059 19.2871C10.0309 19.8081 11.1234 20.0108 11.6094 20.0898C11.6594 20.1608 11.6987 20.4605 11.7617 20.6895C11.7907 20.7905 11.8647 20.9141 12.0547 20.9141C12.2447 20.9141 12.5219 20.7988 12.9629 20.7988C13.5829 20.7988 13.7952 20.9485 14.2812 21.3125C14.6302 21.5745 15.2502 22.0541 15.9902 21.9941C16.7232 22.0281 17.2136 21.6985 17.7246 21.3125C18.2076 20.9485 18.423 20.7988 19.043 20.7988C19.501 20.7988 19.7322 20.9062 19.9512 20.9062H19.957C20.112 20.9062 20.2032 20.8245 20.2422 20.6855C20.3062 20.4565 20.3455 20.1608 20.3945 20.0898C21.3355 19.9328 21.8516 19.7122 21.9746 19.4082C22.0526 19.2102 21.9428 19.041 21.8008 19.002C20.1688 18.717 19.4363 16.9363 19.4043 16.8613C19.4013 16.8573 19.4005 16.8556 19.3965 16.8516C19.3125 16.6636 19.2928 16.5068 19.3418 16.3828C19.4338 16.1468 19.7827 16.0302 20.0117 15.9512C20.0757 15.9282 20.1346 15.9087 20.1836 15.8867C20.5886 15.7187 20.7931 15.5096 20.7891 15.2656C20.7851 15.0746 20.6458 14.9044 20.4238 14.8184C20.2828 14.7584 20.0844 14.7474 19.9434 14.8184C19.7494 14.9154 19.5778 14.9696 19.4258 14.9766C19.3268 14.9736 19.2636 14.9458 19.2246 14.9238C19.2736 14.0238 19.3918 12.7492 19.0918 12.0332C18.5178 10.6652 17.3421 9.99805 16.1191 9.99805Z" fill="black"/>
</g>
</svg>
