<svg width="32" height="32" viewBox="0 0 32 32" fill="none" xmlns="http://www.w3.org/2000/svg">
<g id="snowplow-solid">
<path id="Vector" d="M10.5 6C9.16406 6 7.99219 6.90234 7.625 8.1875L6.3125 12.7188L4.3125 12.0625L3.6875 13.9375L5.15625 14.4375L4.875 14.7188C4.3125 15.2812 4 16.0156 4 16.8125V19H3.1875L3.03125 19.8125L2.03125 24.8125L1.78125 26H30.2188L29.9688 24.8125L28.9688 19.8125L28.8125 19H28V16.8125C28 16.0156 27.6875 15.2812 27.125 14.7188L26.8438 14.4375L28.3125 13.9375L27.6875 12.0625L25.6875 12.7188L24.375 8.1875C24.0078 6.90234 22.8359 6 21.5 6H10.5ZM10.5 8H21.5C21.9492 8 22.3125 8.28516 22.4375 8.71875L23.6562 13H8.34375L9.5625 8.71875C9.6875 8.28516 10.0508 8 10.5 8ZM7.4375 15H24.5625L25.7188 16.125C25.9062 16.3125 26 16.5469 26 16.8125V19H24V17H20V19H12V17H8V19H6V16.8125C6 16.5469 6.09375 16.3125 6.28125 16.125L7.4375 15ZM4.8125 21H27.1875L27.7812 24H4.21875L4.8125 21Z" fill="black"/>
</g>
</svg>
