<svg width="32" height="32" viewBox="0 0 32 32" fill="none" xmlns="http://www.w3.org/2000/svg">
<g id="snowflake">
<path id="Vector" d="M15 3V6.5625L12.7188 4.28125L11.2812 5.71875L15 9.4375V14.25L10.875 11.7812L9.5625 6.6875L7.625 7.1875L8.4375 10.3125L5.375 8.46875L4.34375 10.1562L7.46875 12.0312L4.25 12.8438L4.75 14.7812L9.875 13.4688L14.0938 16L9.875 18.5312L4.75 17.2188L4.25 19.1562L7.46875 19.9688L4.34375 21.8438L5.375 23.5312L8.4375 21.6875L7.625 24.8125L9.5625 25.3125L10.875 20.2188L15 17.75V22.5625L11.2812 26.2812L12.7188 27.7188L15 25.4375V29H17V25.4375L19.2812 27.7188L20.7188 26.2812L17 22.5625V17.75L21.125 20.2188L22.4375 25.3125L24.375 24.8125L23.5625 21.6875L26.625 23.5312L27.6562 21.8438L24.5312 19.9688L27.75 19.1562L27.25 17.2188L22.125 18.5312L17.9062 16L22.125 13.4688L27.25 14.7812L27.75 12.8438L24.5312 12.0312L27.6562 10.1562L26.625 8.46875L23.5625 10.3125L24.375 7.1875L22.4375 6.6875L21.125 11.7812L17 14.25V9.4375L20.7188 5.71875L19.2812 4.28125L17 6.5625V3H15Z" fill="black"/>
</g>
</svg>
