<svg width="32" height="32" viewBox="0 0 32 32" fill="none" xmlns="http://www.w3.org/2000/svg">
<g id="snowman-solid">
<path id="Vector" d="M16 3C13.7227 3 11.6562 3.23438 10.0938 3.625C9.3125 3.82031 8.66797 4.05469 8.125 4.375C7.58203 4.69531 7 5.18359 7 6V8C7 8.01172 7 8.01953 7 8.03125C6.07812 8.26953 5.23828 8.52344 4.59375 8.875C4.17969 9.10156 3.82422 9.35547 3.53125 9.6875C3.23828 10.0195 3 10.4922 3 11C3 11.9492 3.69531 12.5938 4.4375 13.0312C4.84766 13.2734 5.33984 13.5 5.875 13.6875C5.3125 15.0117 5 16.4766 5 18C5 24.0625 9.9375 29 16 29C22.0625 29 27 24.0625 27 18C27 16.4766 26.6875 15.0117 26.125 13.6875C26.6602 13.5 27.1523 13.2734 27.5625 13.0312C28.3047 12.5938 29 11.9492 29 11C29 10.4922 28.7617 10.0195 28.4688 9.6875C28.1758 9.35547 27.8203 9.10156 27.4062 8.875C26.7617 8.52344 25.9219 8.26953 25 8.03125C25 8.01953 25 8.01172 25 8V6C25 5.18359 24.418 4.69531 23.875 4.375C23.332 4.05469 22.6875 3.82031 21.9062 3.625C20.3438 3.23438 18.2773 3 16 3ZM16 5C18.1406 5 20.0742 5.23047 21.4062 5.5625C22.0703 5.73047 22.6094 5.9375 22.875 6.09375C22.9805 6.15625 22.9883 6.17969 23 6.1875V7.8125C22.9883 7.82031 22.9805 7.84375 22.875 7.90625C22.6094 8.0625 22.0703 8.26953 21.4062 8.4375C20.0742 8.76953 18.1406 9 16 9C13.8594 9 11.9258 8.76953 10.5938 8.4375C9.92969 8.26953 9.39062 8.0625 9.125 7.90625C9.01953 7.84375 9.01172 7.82031 9 7.8125V6.1875C9.01172 6.17969 9.01953 6.15625 9.125 6.09375C9.39062 5.9375 9.92969 5.73047 10.5938 5.5625C11.9258 5.23047 13.8594 5 16 5ZM8.28125 9.6875C8.79297 9.96875 9.37891 10.1953 10.0938 10.375C11.6562 10.7656 13.7227 11 16 11C18.2773 11 20.3438 10.7656 21.9062 10.375C22.6172 10.1953 23.207 9.99609 23.7188 9.71875C23.7383 9.71875 23.7617 9.71875 23.7812 9.71875C24.9531 9.98047 25.8789 10.3203 26.4375 10.625C26.7148 10.7773 26.8945 10.918 26.9688 11C26.9453 11.0352 26.8555 11.1406 26.5625 11.3125C26.0898 11.5898 25.2773 11.8984 24.25 12.1562C22.1914 12.6719 19.2461 13 16 13C12.7539 13 9.80859 12.6719 7.75 12.1562C6.72266 11.8984 5.91016 11.5898 5.4375 11.3125C5.14453 11.1406 5.05469 11.0352 5.03125 11C5.10547 10.918 5.28516 10.7773 5.5625 10.625C6.12109 10.3203 7.04688 9.98047 8.21875 9.71875C8.23828 9.71094 8.26172 9.69922 8.28125 9.6875ZM7.875 14.2188C10.0898 14.707 12.8906 15 16 15C19.1094 15 21.9102 14.707 24.125 14.2188C24.6641 15.3711 25 16.6406 25 18C25 18.5664 24.9414 19.1172 24.8438 19.6562L23.375 19.0625C23.375 19.0625 22.1328 18.5703 20.75 18.0625C20.0586 17.8086 19.332 17.5391 18.6875 17.3438C18.043 17.1484 17.5781 17 17 17C15.3555 17 14 18.3555 14 20C14 21.6445 15.3555 23 17 23C17.5781 23 18.043 22.8516 18.6875 22.6562C19.332 22.4609 20.0586 22.1914 20.75 21.9375C22.1328 21.4297 23.375 20.9375 23.375 20.9375L24.6562 20.4062C23.6055 24.2148 20.1484 27 16 27C11.0156 27 7 22.9844 7 18C7 16.6445 7.33594 15.3711 7.875 14.2188ZM13 15C12.4492 15 12 15.4492 12 16C12 16.5508 12.4492 17 13 17C13.5508 17 14 16.5508 14 16C14 15.4492 13.5508 15 13 15ZM20 15C19.4492 15 19 15.4492 19 16C19 16.5508 19.4492 17 20 17C20.5508 17 21 16.5508 21 16C21 15.4492 20.5508 15 20 15ZM17 19C16.9727 19 17.5391 19.1016 18.125 19.2812C18.7109 19.4609 19.3906 19.6914 20.0625 19.9375C20.1445 19.9688 20.1367 19.9688 20.2188 20C20.1367 20.0312 20.1445 20.0312 20.0625 20.0625C19.3906 20.3086 18.7109 20.5391 18.125 20.7188C17.5391 20.8984 16.9727 21 17 21C16.4336 21 16 20.5664 16 20C16 19.4336 16.4336 19 17 19ZM14.1875 22.8438L12.75 24.25C15.0859 26.5859 18.9141 26.5859 21.25 24.25L19.8438 22.8438C18.2734 24.4141 15.7578 24.4141 14.1875 22.8438Z" fill="black"/>
</g>
</svg>
