<svg width="32" height="32" viewBox="0 0 32 32" fill="none" xmlns="http://www.w3.org/2000/svg">
<g id="socks-solid">
<path id="Vector" d="M9.9375 2L9.65625 2.96875L5.21875 18.5312V18.5625C4.51953 20.8828 5.57812 23.3828 7.75 24.4688L7.78125 24.5H7.8125L19.75 29.4688C19.7695 29.4805 19.793 29.4883 19.8125 29.5C20.5078 29.8359 21.2695 30 22 30C23.8359 30 25.5937 28.9922 26.4687 27.25C27.6953 24.7891 26.7109 21.7617 24.25 20.5312L24.1875 20.5H24.1562L23.5 20.2188C23.4922 20.2227 23.4766 20.2148 23.4687 20.2188L16.4687 17.4375L19.7187 5.9375L19.9687 5L10.9062 2.28125L9.9375 2ZM11.3125 4.46875L17.5312 6.34375L17 8.21875L10.7812 6.34375L11.3125 4.46875ZM10.2187 8.28125L16.4375 10.1562L14.2812 17.75L14.0625 18.625L14.875 18.9688L21.6562 21.6562C20.2383 23.0664 19.2891 24.9375 19.0625 27.0312L11.6875 23.9375C11.8906 23.332 12 22.6719 12 22C12 19.3672 10.2773 17.1484 7.90625 16.3438L10.2187 8.28125ZM7.375 18.25C8.90625 18.8047 10 20.2617 10 22C10 22.4062 9.92578 22.7852 9.8125 23.1562L8.65625 22.6875C7.33984 22.0273 6.6914 20.5352 7.125 19.125V19.0938L7.375 18.25ZM23.6562 22.5C24.9141 23.3281 25.3789 24.9609 24.6875 26.3438C24.1562 27.4023 23.0977 28 22 28C21.668 28 21.3281 27.9258 21 27.8125C21.0547 25.6562 22.082 23.7461 23.6562 22.5Z" fill="black"/>
</g>
</svg>
