<svg width="32" height="32" viewBox="0 0 32 32" fill="none" xmlns="http://www.w3.org/2000/svg">
<g id="solar-panel-solid">
<path id="Vector" d="M15 4V6.59375L13.1875 4.8125L11.8125 6.1875L13.5938 8H11V10H13.5938L11.8125 11.8125L13.1875 13.1875L15 11.4062V14H17V11.4062L18.8125 13.1875L20.1875 11.8125L18.4062 10H21V8H18.4062L20.1875 6.1875L18.8125 4.8125L17 6.59375V4H15ZM16 7C17.1016 7 18 7.89844 18 9C18 10.1016 17.1016 11 16 11C14.8984 11 14 10.1016 14 9C14 7.89844 14.8984 7 16 7ZM6.21875 16L4 24.875V28H28V24.875L25.7812 16H6.21875ZM7.78125 18H24.2188L26 25.125V26H6V25.125L7.78125 18ZM9 19L8.59375 20.8125H10.6875L11 19H9ZM13 19L12.8125 20.8125H14.9062L15 19H13ZM17 19L17.0938 20.8125H19.1875L19 19H17ZM21 19L21.3125 20.8125H23.4062L23 19H21ZM8.1875 22.8125L7.8125 25H10.0938L10.4062 22.8125H8.1875ZM12.6875 22.8125L12.5 25H14.8125L14.9062 22.8125H12.6875ZM17.0938 22.8125L17.1875 25H19.5L19.3125 22.8125H17.0938ZM21.5938 22.8125L21.9062 25H24.1875L23.8125 22.8125H21.5938Z" fill="black"/>
</g>
</svg>
