<svg width="32" height="32" viewBox="0 0 32 32" fill="none" xmlns="http://www.w3.org/2000/svg">
<g id="sort-alpha-up-solid">
<path id="Vector" d="M8.18945 5L7.9707 5.66016L6.0293 11H6V11.0605L5.06055 13.6602L5 13.8105V15H7V14.1602L7.41016 13H10.5898L11 14.1602V15H13V13.8105L12.9395 13.6602L12 11.0605V11H11.9707L10.0293 5.66016L9.81055 5H8.18945ZM23 5.5L22.2793 6.18945L18 10.5L19.4102 11.9102L22 9.31055V28H24V9.31055L26.5898 11.9102L28 10.5L23.7207 6.18945L23 5.5ZM9 8.66016L9.83984 11H8.16016L9 8.66016ZM5 17V19H10.5605L5.2793 24.2793L5 24.5898V27H13V25H7.43945L12.7207 19.7207L13 19.4102V17H5Z" fill="black"/>
</g>
</svg>
