<svg width="32" height="32" viewBox="0 0 32 32" fill="none" xmlns="http://www.w3.org/2000/svg">
<g id="sort-numeric-up-alt-solid">
<path id="Vector" d="M8.5 5C6.58 5 5 6.58 5 8.5V9H7V8.5C7 7.62 7.62 7 8.5 7H9.5C10.38 7 11 7.62 11 8.5C11 8.96 10.6505 9.47984 10.0605 9.83984C8.83055 10.5998 7.74984 11.0898 6.83984 11.5898C6.38984 11.8498 5.97914 12.0907 5.61914 12.4707C5.26914 12.8507 5 13.42 5 14V15H13V13H8.43945C9.16945 12.62 10.0191 12.2405 11.1191 11.5605C12.1391 10.9305 13 9.84 13 8.5C13 6.58 11.42 5 9.5 5H8.5ZM23 5.5L22.2793 6.18945L18 10.5L19.4102 11.9102L22 9.31055V28H24V9.31055L26.5898 11.9102L28 10.5L23.7207 6.18945L23 5.5ZM8.58984 17L8.43945 17.7793C8.43945 17.7793 8.27086 18.3595 7.88086 18.9395C7.48086 19.5195 6.98 20 6 20V22C7.38 22 8.32 21.3198 9 20.5898V27H11V17H8.58984Z" fill="black"/>
</g>
</svg>
