<svg width="32" height="32" viewBox="0 0 32 32" fill="none" xmlns="http://www.w3.org/2000/svg">
<g id="sort-numeric-down-alt-solid">
<path id="Vector" d="M8.5 5C6.57812 5 5 6.57812 5 8.5V9H7V8.5C7 7.625 7.625 7 8.5 7H9.5C10.375 7 11 7.625 11 8.5C11 8.95703 10.6484 9.48047 10.0625 9.84375C8.82812 10.6016 7.74609 11.0859 6.84375 11.5938C6.39062 11.8477 5.97656 12.0898 5.625 12.4688C5.27344 12.8477 5 13.418 5 14V15H13V13H8.4375C9.17188 12.6211 10.0195 12.2422 11.125 11.5625C12.1406 10.9258 13 9.84375 13 8.5C13 6.57812 11.4219 5 9.5 5H8.5ZM22 5V23.6875L19.4062 21.0938L18 22.5L22.2812 26.8125L23 27.5L23.7188 26.8125L28 22.5L26.5938 21.0938L24 23.6875V5H22ZM8.59375 17L8.4375 17.7812C8.4375 17.7812 8.27344 18.3555 7.875 18.9375C7.47656 19.5195 6.98047 20 6 20V22C7.375 22 8.32031 21.3242 9 20.5938V27H11V17H8.59375Z" fill="black"/>
</g>
</svg>
