<svg width="32" height="32" viewBox="0 0 32 32" fill="none" xmlns="http://www.w3.org/2000/svg">
<g id="sort-alpha-down-alt-solid">
<path id="Vector" d="M5 5V7H10.5625L5.28125 12.2812L5 12.5938V15H13V13H7.4375L12.7188 7.71875L13 7.40625V5H5ZM22 5V23.6875L19.4062 21.0938L18 22.5L22.2812 26.8125L23 27.5L23.7188 26.8125L28 22.5L26.5938 21.0938L24 23.6875V5H22ZM8.1875 17L7.96875 17.6562L6.03125 23H6V23.0625L5.0625 25.6562L5 25.8125V27H7V26.1562L7.40625 25H10.5938L11 26.1562V27H13V25.8125L12.9375 25.6562L12 23.0625V23H11.9688L10.0312 17.6562L9.8125 17H8.1875ZM9 20.6562L9.84375 23H8.15625L9 20.6562Z" fill="black"/>
</g>
</svg>
