<svg width="32" height="32" viewBox="0 0 32 32" fill="none" xmlns="http://www.w3.org/2000/svg">
<g id="sort-alpha-up-alt-solid">
<path id="Vector" d="M5 5V7H10.5605L5.2793 12.2793L5 12.5898V15H13V13H7.43945L12.7207 7.7207L13 7.41016V5H5ZM23 5.5L22.2793 6.18945L18 10.5L19.4102 11.9102L22 9.31055V28H24V9.31055L26.5898 11.9102L28 10.5L23.7207 6.18945L23 5.5ZM8.18945 17L7.9707 17.6602L6.0293 23H6V23.0605L5.06055 25.6602L5 25.8105V27H7V26.1602L7.41016 25H10.5898L11 26.1602V27H13V25.8105L12.9395 25.6602L12 23.0605V23H11.9707L10.0293 17.6602L9.81055 17H8.18945ZM9 20.6602L9.83984 23H8.16016L9 20.6602Z" fill="black"/>
</g>
</svg>
