<svg width="32" height="32" viewBox="0 0 32 32" fill="none" xmlns="http://www.w3.org/2000/svg">
<g id="sort-alpha-down-solid">
<path id="Vector" d="M8.1875 5L7.96875 5.65625L6.03125 11H6V11.0625L5.0625 13.6562L5 13.8125V15H7V14.1562L7.40625 13H10.5938L11 14.1562V15H13V13.8125L12.9375 13.6562L12 11.0625V11H11.9688L10.0312 5.65625L9.8125 5H8.1875ZM22 5V23.6875L19.4062 21.0938L18 22.5L22.2812 26.8125L23 27.5L23.7188 26.8125L28 22.5L26.5938 21.0938L24 23.6875V5H22ZM9 8.65625L9.84375 11H8.15625L9 8.65625ZM5 17V19H10.5625L5.28125 24.2812L5 24.5938V27H13V25H7.4375L12.7188 19.7188L13 19.4062V17H5Z" fill="black"/>
</g>
</svg>
