<svg width="32" height="32" viewBox="0 0 32 32" fill="none" xmlns="http://www.w3.org/2000/svg">
<g id="sort-numeric-up-solid">
<path id="Vector" d="M8.58984 5L8.43945 5.7793C8.43945 5.7793 8.27086 6.35945 7.88086 6.93945C7.48086 7.51945 6.98 8 6 8V10C7.38 10 8.32 9.31984 9 8.58984V15H11V5H8.58984ZM23 5.5L22.2793 6.18945L18 10.5L19.4102 11.9102L22 9.31055V28H24V9.31055L26.5898 11.9102L28 10.5L23.7207 6.18945L23 5.5ZM8.5 17C6.58 17 5 18.58 5 20.5V21H7V20.5C7 19.62 7.62 19 8.5 19H9.5C10.38 19 11 19.62 11 20.5C11 20.96 10.6505 21.4798 10.0605 21.8398C8.83055 22.5998 7.74984 23.0898 6.83984 23.5898C6.38984 23.8498 5.97914 24.0907 5.61914 24.4707C5.26914 24.8507 5 25.42 5 26V27H13V25H8.43945C9.16945 24.62 10.0191 24.2405 11.1191 23.5605C12.1391 22.9305 13 21.84 13 20.5C13 18.58 11.42 17 9.5 17H8.5Z" fill="black"/>
</g>
</svg>
