<svg width="32" height="32" viewBox="0 0 32 32" fill="none" xmlns="http://www.w3.org/2000/svg">
<g id="sort-numeric-down-solid">
<path id="Vector" d="M8.59375 5L8.4375 5.78125C8.4375 5.78125 8.27344 6.35547 7.875 6.9375C7.47656 7.51953 6.98047 8 6 8V10C7.375 10 8.32031 9.32422 9 8.59375V15H11V5H8.59375ZM22 5V23.6875L19.4062 21.0938L18 22.5L22.2812 26.8125L23 27.5L23.7188 26.8125L28 22.5L26.5938 21.0938L24 23.6875V5H22ZM8.5 17C6.57812 17 5 18.5781 5 20.5V21H7V20.5C7 19.625 7.625 19 8.5 19H9.5C10.375 19 11 19.625 11 20.5C11 20.957 10.6484 21.4805 10.0625 21.8438C8.82812 22.6016 7.74609 23.0859 6.84375 23.5938C6.39062 23.8477 5.97656 24.0898 5.625 24.4688C5.27344 24.8477 5 25.418 5 26V27H13V25H8.4375C9.17188 24.6211 10.0195 24.2422 11.125 23.5625C12.1406 22.9258 13 21.8438 13 20.5C13 18.5781 11.4219 17 9.5 17H8.5Z" fill="black"/>
</g>
</svg>
