<svg width="32" height="32" viewBox="0 0 32 32" fill="none" xmlns="http://www.w3.org/2000/svg">
<g id="soundcloud">
<path id="Vector" d="M19.625 9.05078C18.7383 9.05078 17.8711 9.22656 17.1094 9.52344C16.8125 9.63672 16.7305 9.75391 16.7305 9.98438V22.4766C16.7305 22.7188 16.918 22.9062 17.1523 22.9297H28.0625C30.2383 22.9297 32 21.1875 32 19.0117C32 16.8398 30.2383 15.0742 28.0625 15.0742C27.5234 15.0742 27.0117 15.1836 26.543 15.3828C26.2305 11.8359 23.2539 9.05078 19.625 9.05078ZM15.9258 9.97266C15.8203 9.97266 15.7266 10.0117 15.6523 10.0742C15.5547 10.1523 15.4922 10.2734 15.4922 10.4062V10.4492L15.3125 19.2734L15.4023 20.9023L15.4922 22.4922C15.4961 22.7266 15.6875 22.9219 15.9258 22.9219C16.1602 22.9219 16.3555 22.7266 16.3594 22.4883L16.5508 19.2734L16.3594 10.4062C16.3555 10.25 16.2695 10.1133 16.1445 10.0352C16.0781 9.99609 16.0039 9.97266 15.9258 9.97266ZM14.582 10.7383C14.5 10.7383 14.4258 10.7617 14.3633 10.8047C14.25 10.875 14.1758 11 14.1758 11.1445V11.2188L14.0234 19.2695C14.0234 19.2734 14.1758 22.5391 14.1758 22.5391V22.5508C14.1797 22.6445 14.2148 22.7266 14.2695 22.793C14.3477 22.8828 14.457 22.9414 14.582 22.9414C14.6914 22.9414 14.793 22.8945 14.8672 22.8203C14.9375 22.7461 14.9844 22.6484 14.9883 22.5352L15.0039 22.2109L15.1602 19.2695L14.9883 11.1406C14.9844 11.0039 14.9102 10.8789 14.8047 10.8086C14.7383 10.7617 14.6641 10.7383 14.582 10.7383ZM10.5625 11.6719C10.3867 11.6719 10.2422 11.8125 10.2383 11.9922L10.0352 19.2695L10.2383 22.6094C10.2422 22.7891 10.3867 22.9297 10.5625 22.9297C10.7383 22.9297 10.8789 22.7891 10.8867 22.6094L11.1133 19.2695L10.8867 11.9922C10.8789 11.8125 10.7383 11.6719 10.5625 11.6719ZM11.8906 11.832C11.6992 11.832 11.543 11.9844 11.5391 12.1797L11.3516 19.2695L11.5391 22.5781C11.543 22.7734 11.6992 22.9258 11.8906 22.9258C12.082 22.9258 12.2344 22.7734 12.2422 22.5781L12.4492 19.2695L12.2422 12.1797C12.2383 11.9844 12.082 11.832 11.8906 11.832ZM9.24219 11.9375C9.08203 11.9375 8.95312 12.0664 8.94531 12.2305L8.72656 19.2695L8.94531 22.6328C8.95312 22.7969 9.08203 22.9258 9.24219 22.9258C9.40234 22.9258 9.53125 22.7969 9.53906 22.6289L9.78516 19.2695L9.53906 12.2305C9.53125 12.0664 9.40234 11.9375 9.24219 11.9375ZM13.2305 12.0625C13.0234 12.0625 12.8555 12.2266 12.8516 12.4375L12.6836 19.2695L12.8516 22.5586C12.8555 22.7656 13.0195 22.9336 13.2305 22.9336C13.4375 22.9336 13.6055 22.7656 13.6094 22.5547L13.8008 19.2695L13.6094 12.4375C13.6055 12.2266 13.4375 12.0625 13.2305 12.0625ZM7.91406 12.5234C7.76953 12.5234 7.64844 12.6406 7.64453 12.7891L7.41016 19.2852L7.64453 22.6836C7.64844 22.832 7.76953 22.9492 7.91406 22.9492C8.05859 22.9492 8.17578 22.832 8.18359 22.6836L8.44922 19.2891L8.18359 12.7891C8.17578 12.6406 8.05859 12.5234 7.91406 12.5234ZM6.63672 13.7422C6.50781 13.7422 6.39844 13.8477 6.39453 13.9805L6.14453 19.2695L6.39453 22.6836C6.40234 22.8164 6.50781 22.9258 6.63672 22.9258C6.76562 22.9258 6.87109 22.8164 6.87891 22.6836L7.16016 19.2695L6.87891 13.9805C6.87109 13.8477 6.76562 13.7422 6.63672 13.7422ZM4.07031 15.5781C3.97266 15.5781 3.89062 15.6562 3.88281 15.7656L3.60156 19.2656L3.88281 22.6562C3.89062 22.7617 3.97266 22.8398 4.07031 22.8398C4.16797 22.8398 4.25 22.7617 4.25781 22.6562L4.57812 19.2656L4.25781 15.7617C4.25 15.6562 4.16797 15.5781 4.07031 15.5781ZM2.80469 15.6992C2.71875 15.6992 2.65234 15.7656 2.64453 15.8555L2.34375 19.2656L2.64453 22.5508C2.65234 22.6406 2.71875 22.707 2.80469 22.707C2.88672 22.707 2.95312 22.6406 2.96484 22.5508L3.30078 19.2656L2.96484 15.8555C2.95312 15.7656 2.88672 15.6992 2.80469 15.6992ZM5.34766 15.8047C5.23438 15.8047 5.14062 15.8945 5.13281 16.0156L4.86719 19.2656L5.13281 22.6836C5.14062 22.8047 5.23438 22.8945 5.34766 22.8945C5.46094 22.8945 5.55469 22.8047 5.5625 22.6836L5.86328 19.2656L5.5625 16.0156C5.55469 15.8945 5.46094 15.8047 5.34766 15.8047ZM1.54688 16.2617C1.47656 16.2617 1.42188 16.3164 1.41016 16.3906L1.09766 19.2656L1.41016 22.0742C1.42188 22.1523 1.47656 22.207 1.54688 22.207C1.61328 22.207 1.66797 22.1523 1.67969 22.0781L2.03516 19.2656L1.67969 16.3906C1.66797 16.3164 1.61328 16.2617 1.54688 16.2617ZM0.363281 17.3633C0.296875 17.3633 0.242188 17.4141 0.234375 17.4883L0 19.2656L0.234375 21.0117C0.242188 21.0859 0.296875 21.1367 0.363281 21.1367C0.425781 21.1367 0.480469 21.0859 0.488281 21.0156L0.765625 19.2656L0.488281 17.4883C0.480469 17.4141 0.425781 17.3633 0.363281 17.3633Z" fill="black"/>
</g>
</svg>
