<svg width="32" height="32" viewBox="0 0 32 32" fill="none" xmlns="http://www.w3.org/2000/svg">
<g id="sourcetree">
<path id="Vector" d="M16 4C10.486 4 6 8.486 6 14C6 17.983 8.383 21.5772 12 23.1562V28H20V23.1562C23.617 21.5772 26 17.983 26 14C26 8.486 21.514 4 16 4ZM16 6C20.411 6 24 9.589 24 14C24 17.377 21.856 20.4042 18.666 21.5352L18 21.7695V26H14V21.7695L13.334 21.5332C10.144 20.4032 8 17.377 8 14C8 9.589 11.589 6 16 6ZM16 10C13.794 10 12 11.794 12 14C12 16.206 13.794 18 16 18C18.206 18 20 16.206 20 14C20 11.794 18.206 10 16 10ZM16 12C17.103 12 18 12.897 18 14C18 15.103 17.103 16 16 16C14.897 16 14 15.103 14 14C14 12.897 14.897 12 16 12Z" fill="black"/>
</g>
</svg>
