<svg width="32" height="32" viewBox="0 0 32 32" fill="none" xmlns="http://www.w3.org/2000/svg">
<g id="spa-solid">
<path id="Vector" d="M16 4C13.0859 4 10.7344 6.31641 10.5625 9.1875C7.98046 8.67969 5.30468 10.0234 4.34374 12.5625C3.34374 15.2031 4.60156 18.0898 7.06249 19.3438C5.42577 21.6484 5.76952 24.8711 7.96874 26.7188C10.2851 28.668 13.7734 28.3477 15.7187 26.0312C15.8398 25.8867 15.8711 25.6914 15.9687 25.5312C16.0742 25.7031 16.1172 25.9062 16.25 26.0625C18.1992 28.3789 21.6836 28.6992 24 26.75C26.2031 24.8945 26.5234 21.6797 24.875 19.375C27.3789 18.1367 28.6641 15.2227 27.6562 12.5625C26.6953 10.0234 24.0156 8.67969 21.4375 9.1875C21.2656 6.31641 18.9141 4 16 4ZM16 6C17.9453 6 19.5 7.55469 19.5 9.5C19.5 9.65625 19.4336 9.9375 19.3125 10.2812C19.3086 10.293 19.3164 10.3008 19.3125 10.3125L16.3437 14.5312C16.6562 13.5 17 12.3281 17 12C17 11.4492 16.5508 11 16 11C15.4492 11 15 11.4492 15 12C15 12.3164 15.2734 13.4258 15.5312 14.4375L12.625 10.0625C12.5586 9.83203 12.5 9.625 12.5 9.5C12.5 7.55469 14.0547 6 16 6ZM9.37499 11C9.83202 10.9844 10.2969 11.0469 10.75 11.2188C10.8281 11.2461 10.957 11.3516 11.125 11.4688C11.1367 11.4766 11.1445 11.4609 11.1562 11.4688L13.9375 15.6875C13.0625 15.0938 12.0859 14.4531 11.7812 14.3438C11.2617 14.1562 10.6875 14.418 10.5 14.9375C10.3125 15.457 10.5742 16.0312 11.0937 16.2188C11.3945 16.3281 12.5664 16.4102 13.625 16.4688L8.56249 17.875C8.43359 17.8516 8.32421 17.8086 8.24999 17.7812C6.42968 17.0938 5.52734 15.0703 6.21874 13.25C6.73437 11.8867 8.00781 11.0469 9.37499 11ZM22.625 11C23.9922 11.0469 25.2656 11.8867 25.7812 13.25C26.4687 15.0664 25.5703 17.0938 23.75 17.7812C23.625 17.8281 23.375 17.8867 23.0937 17.9062L18.2187 16.4688C19.3086 16.4102 20.5859 16.3359 20.9062 16.2188C21.4258 16.0312 21.6875 15.457 21.5 14.9375C21.3125 14.418 20.7383 14.1562 20.2187 14.3438C19.8867 14.4609 18.8008 15.1719 17.9062 15.7812L20.9375 11.4062C21.0625 11.3203 21.1875 11.2422 21.25 11.2188C21.7031 11.0469 22.168 10.9844 22.625 11ZM14.3125 18.375C13.4219 18.9961 12.3281 19.7617 12.0937 20.0312C11.7344 20.4492 11.8008 21.1094 12.2187 21.4688C12.6406 21.8281 13.2656 21.7617 13.625 21.3438C13.8945 21.0312 14.5898 19.4492 15 18.5V22.1875C14.8164 23.3867 14.4531 24.4336 14.1875 24.75C12.9375 26.2383 10.7383 26.4414 9.24999 25.1875C7.76171 23.9375 7.55859 21.7383 8.81249 20.25C8.91796 20.125 9.16015 19.9375 9.46874 19.75L9.59374 19.6875L14.3125 18.375ZM17.7812 18.4375L22.5625 19.8125C22.8398 19.9883 23.0586 20.1641 23.1562 20.2812C24.4062 21.7695 24.207 23.9648 22.7187 25.2188C21.2305 26.4688 19.0351 26.2695 17.7812 24.7812C17.5273 24.4805 17.1875 23.5039 17 22.375V18.5C17.4101 19.4492 18.1055 21.0312 18.375 21.3438C18.7344 21.7617 19.3633 21.8281 19.7812 21.4688C20.1992 21.1094 20.2656 20.4492 19.9062 20.0312C19.6836 19.7734 18.6641 19.0547 17.7812 18.4375Z" fill="black"/>
</g>
</svg>
