<svg width="32" height="32" viewBox="0 0 32 32" fill="none" xmlns="http://www.w3.org/2000/svg">
<g id="space-shuttle-solid">
<g clip-path="url(#clip0)">
<path id="Vector" d="M2 4V10H0V13H1V19H0V22H2V28H6.5625C9.01953 28 11.3867 27.0195 13.125 25.2812L17.4688 20.9688L25.5 20.2812C28.0742 20.0664 30.4102 18.7109 31.8438 16.5625L32.1875 16L31.8438 15.4375C30.4102 13.2891 28.0742 11.9336 25.5 11.7188L17.4688 11.0312L13.2812 6.84375L13.125 6.71875C11.3867 4.98047 9.01953 4 6.5625 4H2ZM4 6H6.5625C8.49219 6 10.3555 6.76172 11.7188 8.125L14.5625 11H10V13H17L25.3125 13.6875C27 13.8281 28.4648 14.7383 29.5625 16C28.4648 17.2617 27 18.1719 25.3125 18.3125L16.9062 19H10V21H14.5625L11.7188 23.875C10.3555 25.2383 8.49219 26 6.5625 26H4V19H3V13H4V6ZM24 15V17H26V15H24ZM6 21V24H8V21H6Z" fill="black"/>
</g>
</g>
<defs>
<clipPath id="clip0">
<rect width="32" height="32" fill="white"/>
</clipPath>
</defs>
</svg>
