<svg width="32" height="32" viewBox="0 0 32 32" fill="none" xmlns="http://www.w3.org/2000/svg">
<g id="speakap">
<path id="Vector" d="M15.3945 3C8.56053 3 3 8.58803 3 15.457C3 22.197 7.99997 29 19.168 29C21.981 29 25.7697 27.921 25.9297 27.875L28 27.2812L26.2852 25.9707C25.6602 25.4927 24.9492 24.8968 24.1992 24.2168C26.4942 21.8988 27.7891 18.769 27.7891 15.457C27.7891 8.58803 22.2285 3 15.3945 3ZM15.3945 5C21.1265 5 25.7891 9.69103 25.7891 15.457C25.7891 18.236 24.7213 20.8466 22.7793 22.8086L21.3086 24.2949L22.8574 25.6973C23.1224 25.9373 23.3827 26.1687 23.6367 26.3887C22.3517 26.6767 20.588 27 19.168 27C8.71097 27 5 20.782 5 15.457C5 9.69103 9.66253 5 15.3945 5ZM16.2461 9.00195C13.6661 8.95095 11.5185 10.3965 11.4785 12.9355C11.4685 13.4975 11.4888 14.7515 12.9238 15.6445C14.6208 16.6975 17.1902 16.6988 17.1602 18.2148C17.1402 19.2688 15.8657 19.4885 15.2637 19.4785C15.1127 19.4785 13.7671 19.4596 12.9141 18.2656L10.9473 20.3633C12.3323 21.6983 13.8485 21.978 15.0625 21.998C15.5645 22.008 19.8109 22.0089 19.8809 18.0039C19.8909 17.2209 19.7791 16.0478 18.4551 15.2148C16.7691 14.1508 14.2708 14.2506 14.3008 12.7656C14.3208 11.6206 15.8255 11.5095 16.1465 11.5195C16.1665 11.5195 17.4615 11.53 18.1035 12.373L20.002 10.3555C19.53 9.91347 18.4241 9.03195 16.2461 9.00195Z" fill="black"/>
</g>
</svg>
