<svg width="32" height="32" viewBox="0 0 32 32" fill="none" xmlns="http://www.w3.org/2000/svg">
<g id="speaker-deck">
<path id="Vector" d="M8 8C5.243 8 3 10.243 3 13C3 15.757 5.243 18 8 18H14C14.551 18 15 18.448 15 19C15 19.552 14.551 20 14 20H5C3.896 20 3 20.896 3 22C3 23.104 3.896 24 5 24H14C16.757 24 19 21.757 19 19C19 16.243 16.757 14 14 14H8C7.449 14 7 13.552 7 13C7 12.448 7.449 12 8 12H15C16.104 12 17 11.104 17 10C17 8.896 16.104 8 15 8H8ZM18.4453 8C18.7893 8.59 19 9.268 19 10C19 10.734 18.7835 11.409 18.4395 12H24C24.552 12 25 12.448 25 13V19C25 19.552 24.552 20 24 20H20.9199C20.6959 21.556 19.9637 22.949 18.8887 24H25C27.209 24 29 22.209 29 20V12C29 9.791 27.209 8 25 8H18.4453Z" fill="black"/>
</g>
</svg>
