<svg width="32" height="32" viewBox="0 0 32 32" fill="none" xmlns="http://www.w3.org/2000/svg">
<g id="spell-check-solid">
<path id="Vector" d="M7.33203 5L3 18H5.10742L6.10742 15H10.668L11.668 18H13.7754L9.44141 5H7.33203ZM15 5V10V12V18H21C23.206 18 25 16.206 25 14C25 12.3218 23.9582 10.8878 22.4902 10.2949C22.8077 9.76829 23 9.15851 23 8.5C23 6.57 21.43 5 19.5 5H15ZM17 7H19.5C20.327 7 21 7.673 21 8.5C21 9.327 20.327 10 19.5 10H17V7ZM8.38867 8.16211L10.002 13H6.77539L8.38867 8.16211ZM17 12H19.5H21C22.103 12 23 12.897 23 14C23 15.103 22.103 16 21 16H17V12ZM27.8086 17.7773L19.1172 26.1133L15.1934 22.3359L13.8066 23.7754L19.1133 28.8867L29.1914 19.2227L27.8086 17.7773Z" fill="black"/>
</g>
</svg>
