<svg width="32" height="32" viewBox="0 0 32 32" fill="none" xmlns="http://www.w3.org/2000/svg">
<g id="spider-solid">
<path id="Vector" d="M7 3V8.46875L7.375 8.78125L11.4062 12H8.34375L4.59375 9.1875L3.40625 10.8125L7.65625 14H11.2188L7.625 17H3V19H8.375L8.625 18.7812L10.0312 17.625C10.0234 17.75 10 17.8711 10 18C10 18.1758 10.0156 18.3516 10.0312 18.5312L6.28125 22.2812L6 22.5938V29H8V23.4375L10.5625 20.875C10.8359 21.6289 11.1836 22.375 11.625 23.0625C12.6328 24.6289 14.1094 26 16 26C17.8906 26 19.3672 24.6289 20.375 23.0625C20.8164 22.375 21.1641 21.6289 21.4375 20.875L24 23.4375V29H26V22.5938L25.7188 22.2812L21.9688 18.5312C21.9844 18.3516 22 18.1758 22 18C22 17.8789 21.9766 17.7734 21.9688 17.6562L23.375 18.7812L23.6562 19H29V17H24.3438L20.5938 14H24.3438L28.5938 10.8125L27.4062 9.1875L23.6562 12H20.5938L24.625 8.78125L25 8.46875V3H23V7.53125L19.875 10.0312C19.7188 9.41016 19.4062 8.875 19 8.40625V5H17V7.15625C16.6797 7.07422 16.3438 7 16 7C15.6562 7 15.3203 7.07422 15 7.15625V5H13V8.40625C12.5938 8.875 12.2812 9.41016 12.125 10.0312L9 7.53125V3H7ZM16 9C17.1172 9 18 9.88281 18 11C18 12.1172 17.1172 13 16 13C14.8828 13 14 12.1172 14 11C14 9.88281 14.8828 9 16 9ZM16 15C17.2305 15 18.2656 15.2969 18.9375 15.7812C19.6094 16.2656 20 16.8906 20 18C20 19.1094 19.4883 20.7539 18.6875 22C17.8867 23.2461 16.8672 24 16 24C15.1328 24 14.1133 23.2461 13.3125 22C12.5117 20.7539 12 19.1094 12 18C12 16.8906 12.3906 16.2656 13.0625 15.7812C13.7344 15.2969 14.7695 15 16 15Z" fill="black"/>
</g>
</svg>
