<svg width="32" height="32" viewBox="0 0 32 32" fill="none" xmlns="http://www.w3.org/2000/svg">
<g id="spinner-solid">
<path id="Vector" d="M16 3C14.3438 3 13 4.34375 13 6C13 7.65625 14.3438 9 16 9C17.6562 9 19 7.65625 19 6C19 4.34375 17.6562 3 16 3ZM8.9375 6.4375C7.55859 6.4375 6.4375 7.55859 6.4375 8.9375C6.4375 10.3164 7.55859 11.4375 8.9375 11.4375C10.3164 11.4375 11.4375 10.3164 11.4375 8.9375C11.4375 7.55859 10.3164 6.4375 8.9375 6.4375ZM23.0625 7.9375C22.5117 7.9375 22.0625 8.38672 22.0625 8.9375C22.0625 9.48828 22.5117 9.9375 23.0625 9.9375C23.6133 9.9375 24.0625 9.48828 24.0625 8.9375C24.0625 8.38672 23.6133 7.9375 23.0625 7.9375ZM6 13.75C4.75781 13.75 3.75 14.7578 3.75 16C3.75 17.2422 4.75781 18.25 6 18.25C7.24219 18.25 8.25 17.2422 8.25 16C8.25 14.7578 7.24219 13.75 6 13.75ZM26 14.75C25.3086 14.75 24.75 15.3086 24.75 16C24.75 16.6914 25.3086 17.25 26 17.25C26.6914 17.25 27.25 16.6914 27.25 16C27.25 15.3086 26.6914 14.75 26 14.75ZM8.9375 21.0625C7.83203 21.0625 6.9375 21.957 6.9375 23.0625C6.9375 24.168 7.83203 25.0625 8.9375 25.0625C10.043 25.0625 10.9375 24.168 10.9375 23.0625C10.9375 21.957 10.043 21.0625 8.9375 21.0625ZM23.0625 21.5625C22.2344 21.5625 21.5625 22.2344 21.5625 23.0625C21.5625 23.8906 22.2344 24.5625 23.0625 24.5625C23.8906 24.5625 24.5625 23.8906 24.5625 23.0625C24.5625 22.2344 23.8906 21.5625 23.0625 21.5625ZM16 24.25C15.0352 24.25 14.25 25.0352 14.25 26C14.25 26.9648 15.0352 27.75 16 27.75C16.9648 27.75 17.75 26.9648 17.75 26C17.75 25.0352 16.9648 24.25 16 24.25Z" fill="black"/>
</g>
</svg>
