<svg width="32" height="32" viewBox="0 0 32 32" fill="none" xmlns="http://www.w3.org/2000/svg">
<g id="splotch-solid">
<path id="Vector" d="M17.3789 4.91789C16.3314 4.93293 15.3282 5.36026 14.5977 6.15226L12.6563 8.45109C12.2933 8.84509 11.7265 9.04792 11.0625 8.99992H7.96875C6.30275 8.99992 4.88091 9.82059 4.25391 11.1386C3.74091 12.2196 3.89089 13.4247 4.71289 14.4237L6.71094 16.4765C6.98094 16.8095 7.06536 17.0872 6.81836 17.6112L5.37695 20.1327C4.82995 21.2817 4.98311 22.5643 5.78711 23.5683C6.68211 24.6843 8.20127 25.1925 9.69727 24.8495L12.582 24.0702C13.155 23.9392 13.7566 24.0675 14.2266 24.4355L16.7363 26.2421C17.4273 26.7861 18.27 27.0663 19.127 27.0663C19.671 27.0663 20.2202 26.9536 20.7402 26.7226C21.9642 26.1826 22.7508 25.1114 22.8418 23.8534L23.043 21.0663C23.075 20.6103 23.3709 20.1909 23.8809 19.9159L26.1504 18.5331C27.3834 17.8721 28.0872 16.6421 27.9902 15.3241C27.8912 13.9781 26.9869 12.8394 25.6309 12.3534L22.752 11.3202C22.238 11.1362 21.8601 10.7519 21.7441 10.2929L21.0566 7.57023C20.7416 6.32523 19.7606 5.38189 18.4316 5.04289C18.0811 4.95414 17.7281 4.91287 17.3789 4.91789ZM17.4941 6.91984C17.6507 6.92484 17.8 6.94614 17.9355 6.98039C18.5425 7.13439 18.9832 7.54042 19.1152 8.06242L19.8027 10.7831C20.0827 11.8881 20.9293 12.792 22.0723 13.203L24.9531 14.2362C25.5641 14.4542 25.9531 14.9176 25.9941 15.4726C26.0341 16.0076 25.7463 16.4798 25.1562 16.7968L22.8887 18.1816C21.8187 18.7556 21.1299 19.7797 21.0469 20.9237L20.8457 23.7089C20.7927 24.4389 20.1896 24.7815 19.9336 24.8945C19.4146 25.1235 18.6275 25.1864 17.9395 24.6464L15.4297 22.8398C14.7577 22.3108 13.9074 22.0253 13.0254 22.0253C12.7184 22.0253 12.4076 22.0607 12.0996 22.1327L9.2168 22.912C8.3468 23.107 7.66956 22.7172 7.35156 22.3202C7.16456 22.0872 6.89244 21.6045 7.14844 21.0605L8.5918 18.5409C9.1738 17.3209 9.06303 16.2033 8.20703 15.1523L6.20703 13.0956C5.85803 12.6696 5.9365 12.263 6.0625 11.996C6.2805 11.537 6.90975 10.9999 7.96875 10.9999L10.9785 10.998C12.1685 11.095 13.3473 10.6513 14.1543 9.77531L16.0938 7.47648C16.4935 7.04373 17.0245 6.90484 17.4941 6.91984Z" fill="black"/>
</g>
</svg>
