<svg width="32" height="32" viewBox="0 0 32 32" fill="none" xmlns="http://www.w3.org/2000/svg">
<g id="spotify">
<path id="Vector" d="M16 4C9.37109 4 4 9.37109 4 16C4 22.6289 9.37109 28 16 28C22.6289 28 28 22.6289 28 16C28 9.37109 22.6289 4 16 4ZM16 6C21.5547 6 26 10.4453 26 16C26 21.5547 21.5547 26 16 26C10.4453 26 6 21.5547 6 16C6 10.4453 10.4453 6 16 6ZM14.4062 10.75C12.4609 10.75 10.7656 10.9297 9.15625 11.4375C8.73047 11.5234 8.375 11.8438 8.375 12.4375C8.375 13.0312 8.8125 13.5547 9.40625 13.4688C9.66016 13.4688 9.83203 13.375 10 13.375C11.3555 13.0352 12.8828 12.875 14.4062 12.875C17.3672 12.875 20.4062 13.5352 22.4375 14.7188C22.6914 14.8047 22.7773 14.9062 23.0312 14.9062C23.625 14.9062 24.0391 14.4688 24.125 13.875C24.125 13.3672 23.8711 13.043 23.5312 12.875C20.9922 11.4375 17.6211 10.75 14.4062 10.75ZM14.125 14.4688C12.3477 14.4688 11.082 14.7227 9.8125 15.0625C9.39062 15.2305 9.15625 15.4922 9.15625 16C9.15625 16.4219 9.49219 16.8438 10 16.8438C10.1719 16.8438 10.2461 16.8359 10.5 16.75C11.4297 16.4961 12.707 16.3438 14.0625 16.3438C16.8555 16.3438 19.2852 17.0234 21.0625 18.125C21.2305 18.2109 21.4023 18.2812 21.6562 18.2812C22.1641 18.2812 22.5 17.8516 22.5 17.3438C22.5 17.0039 22.3398 16.668 22 16.5C19.8008 15.1445 17.0039 14.4688 14.125 14.4688ZM14.4062 18.125C12.9688 18.125 11.6055 18.2852 10.25 18.625C9.91016 18.7109 9.65625 18.9531 9.65625 19.375C9.65625 19.7148 9.92188 20.0625 10.3438 20.0625C10.4297 20.0625 10.6758 19.9688 10.8438 19.9688C11.9453 19.7148 13.1289 19.5625 14.3125 19.5625C16.4258 19.5625 18.3594 20.0703 19.9688 21C20.1406 21.0859 20.332 21.1562 20.5 21.1562C20.8398 21.1562 21.1641 20.9023 21.25 20.5625C21.25 20.1367 21.0664 19.9805 20.8125 19.8125C18.9492 18.7109 16.7734 18.125 14.4062 18.125Z" fill="black"/>
</g>
</svg>
