<svg width="32" height="32" viewBox="0 0 32 32" fill="none" xmlns="http://www.w3.org/2000/svg">
<g id="spray-can-solid">
<path id="Vector" d="M12 2V8H14V9.0625C9.89844 9.5 8.125 12.5312 8.125 12.5312L8 12.75V30H22V12.75L21.875 12.5312C21.875 12.5312 20.1016 9.5 16 9.0625V8H18V2H12ZM24 2C23.4492 2 23 2.44922 23 3C23 3.55078 23.4492 4 24 4C24.5508 4 25 3.55078 25 3C25 2.44922 24.5508 2 24 2ZM14 4H16V6H14V4ZM21 4C20.4492 4 20 4.44922 20 5C20 5.55078 20.4492 6 21 6C21.5508 6 22 5.55078 22 5C22 4.44922 21.5508 4 21 4ZM24 6C23.4492 6 23 6.44922 23 7C23 7.55078 23.4492 8 24 8C24.5508 8 25 7.55078 25 7C25 6.44922 24.5508 6 24 6ZM15 11C16.7383 11 17.9102 11.4805 18.6875 12H11.3125C12.0898 11.4805 13.2617 11 15 11ZM10 14H20V28H10V14ZM15 18C13.3555 18 12 19.3555 12 21C12 22.6445 13.3555 24 15 24C16.6445 24 18 22.6445 18 21C18 19.3555 16.6445 18 15 18ZM15 20C15.5625 20 16 20.4375 16 21C16 21.5625 15.5625 22 15 22C14.4375 22 14 21.5625 14 21C14 20.4375 14.4375 20 15 20Z" fill="black"/>
</g>
</svg>
