<svg width="32" height="32" viewBox="0 0 32 32" fill="none" xmlns="http://www.w3.org/2000/svg">
<g id="squarespace">
<path id="Vector" d="M12.9414 6C12.3252 5.99875 11.7102 6.23313 11.2402 6.70313L11.2305 6.71485L5.41015 12.5332C3.53015 14.4132 3.53015 17.4735 5.41015 19.3535C7.30015 21.2335 10.3502 21.2335 12.2402 19.3535L19.9102 11.6836C20.3802 11.2036 20.3802 10.4446 19.9102 9.97461C19.4402 9.50461 18.6809 9.50461 18.2109 9.97461L10.5293 17.6445C9.58929 18.5945 8.05914 18.5945 7.11914 17.6445C6.64914 17.1745 6.41992 16.5634 6.41992 15.9434C6.41992 15.3234 6.64914 14.7044 7.11914 14.2344L14.6504 6.71485C14.1754 6.23985 13.5577 6.00125 12.9414 6ZM19.0566 6.00391C17.8229 6.00391 16.5904 6.47407 15.6504 7.41407L7.9707 15.0938C7.5007 15.5638 7.5007 16.3249 7.9707 16.7949C8.4407 17.2649 9.20968 17.2649 9.67968 16.7949L17.3496 9.12305C18.2896 8.17305 19.8198 8.17305 20.7598 9.12305C20.9998 9.36305 21.2991 9.47461 21.6191 9.47461C21.9191 9.47461 22.2407 9.36305 22.4707 9.12305C22.9407 8.65305 22.9407 7.88407 22.4707 7.41407C21.5257 6.47407 20.2904 6.00391 19.0566 6.00391ZM24.1758 11.2324C22.9408 11.2324 21.7048 11.7054 20.7598 12.6504L13.0898 20.3203C12.6198 20.7903 12.6198 21.5593 13.0898 22.0293C13.5598 22.4993 14.3191 22.4993 14.7891 22.0293L22.4707 14.3496C23.4107 13.4096 24.9409 13.4096 25.8809 14.3496C26.8209 15.2996 26.8209 16.8195 25.8809 17.7695L18.3496 25.2891C19.2896 26.2291 20.8198 26.2291 21.7598 25.2891L27.5898 19.4707C29.4698 17.5907 29.4698 14.5304 27.5898 12.6504C26.6448 11.7054 25.4108 11.2324 24.1758 11.2324ZM24.1758 14.8574C23.8658 14.8574 23.5553 14.9759 23.3203 15.2109L15.6504 22.8809C14.7104 23.8209 13.1802 23.8209 12.2402 22.8809H12.2305C11.7605 22.4109 10.9993 22.4109 10.5293 22.8809C10.2993 23.1209 10.1797 23.4202 10.1797 23.7402C10.1797 24.0402 10.2993 24.3598 10.5293 24.5898C11.4693 25.5299 12.6994 26 13.9394 26C15.1794 26 16.4096 25.5299 17.3496 24.5898L25.0293 16.9102C25.4993 16.4402 25.4993 15.6809 25.0293 15.2109C24.7943 14.9759 24.4858 14.8574 24.1758 14.8574Z" fill="black"/>
</g>
</svg>
