<svg width="32" height="32" viewBox="0 0 32 32" fill="none" xmlns="http://www.w3.org/2000/svg">
<g id="stackpath">
<path id="Vector" d="M5 5V27H27V5H5ZM7 7H25V25H7V7ZM10.7793 13C9.7893 13 8.53906 13.4606 8.53906 14.6406C8.53906 15.4706 8.93094 15.9791 10.7109 16.5391C11.4509 16.7991 11.6406 16.9791 11.6406 17.3691C11.6406 18.0191 10.8305 17.9805 10.8105 17.9805C9.94055 17.9805 9.71094 17.5891 9.71094 17.0391H8.40039L8.39062 17.0703C8.36063 18.4103 9.60055 19 10.8105 19C12.0905 19 13 18.4194 13 17.3594C13 16.4494 12.48 15.8795 11 15.4395C10.12 15.1295 9.89062 14.9804 9.89062 14.6504C9.89062 14.3204 10.1898 14.0195 10.7598 14.0195C11.3598 14.0195 11.6504 14.3805 11.6504 14.8105H12.9609L12.9707 14.7793C12.9907 13.9393 12.3293 13 10.7793 13ZM14 13.0449V18.9551H15.3809V16.9258H16.2207C17.5107 16.9258 18.5 16.2444 18.5 14.9844C18.5 13.9044 17.7107 13.0449 16.2207 13.0449H14ZM20.2109 13.0449L18.1602 18.9551H19.4395L21.5391 13.0449H20.2109ZM22.6699 13.0449L20.6191 18.9551H21.9004L24 13.0449H22.6699ZM15.3809 14.0957H16.2207C16.9507 14.0957 17.1309 14.6241 17.1309 14.9941C17.1309 15.3541 16.9507 15.875 16.2207 15.875H15.3809V14.0957Z" fill="black"/>
</g>
</svg>
