<svg width="32" height="32" viewBox="0 0 32 32" fill="none" xmlns="http://www.w3.org/2000/svg">
<g id="stack-exchange">
<path id="Vector" d="M9 4C6.80078 4 5 5.80078 5 8V22C5 24.1992 6.80078 26 9 26H17V30.2188H18.5625L18.875 29.9062L22.5625 26H23C25.1992 26 27 24.1992 27 22V8C27 5.80078 25.1992 4 23 4H9ZM9 6H23C24.1172 6 25 6.88281 25 8V9H7V8C7 6.88281 7.88281 6 9 6ZM7 11H25V14H7V11ZM7 16H25V19H7V16ZM7 21H25V22C25 23.1172 24.1172 24 23 24H21.6875L21.4062 24.3125L19 26.8438V24H9C7.88281 24 7 23.1172 7 22V21Z" fill="black"/>
</g>
</svg>
