<svg width="32" height="32" viewBox="0 0 32 32" fill="none" xmlns="http://www.w3.org/2000/svg">
<g id="stack-overflow">
<path id="Vector" d="M19.5938 2.84375L17.9688 3.96875L23.5625 12.1875L25.1875 11.0625L19.5938 2.84375ZM15.375 6.53125L14.0625 8.03125L21.5625 14.5312L22.875 13.0312L15.375 6.53125ZM12.375 10.9062L11.4688 12.6875L20.3125 17.1875L21.2188 15.4062L12.375 10.9062ZM10.6562 15.4375L10.2188 17.375L19.875 19.6562L20.3125 17.7188L10.6562 15.4375ZM6 18V29H24V18H22V27H8V18H6ZM10.0938 19.6875L9.96875 21.6875L19.875 22.25L20 20.25L10.0938 19.6875ZM10 23V25H19.9375V23H10Z" fill="black"/>
</g>
</svg>
