<svg width="32" height="32" viewBox="0 0 32 32" fill="none" xmlns="http://www.w3.org/2000/svg">
<g id="stamp-solid">
<path id="Vector" d="M16 2.90625C12.7266 2.90625 10.0625 5.57031 10.0625 8.84375C10.0625 10.7891 10.9688 12.168 11.7188 13.2188C12.4688 14.2695 13 14.9922 13 16.0312V19.2188L4.78125 21.0312L4 21.1875V26H5V27C5 27.5742 5.25391 28.1172 5.65625 28.4688C6.05859 28.8203 6.57422 29 7.09375 29H24.9062C25.4258 29 25.9414 28.8203 26.3438 28.4688C26.7461 28.1172 27 27.5742 27 27V26H28V21.1875L27.2188 21.0312L19 19.2188V16.0312C19 14.9922 19.5312 14.2695 20.2812 13.2188C21.0312 12.168 21.9375 10.7891 21.9375 8.84375C21.9375 5.57031 19.2734 2.90625 16 2.90625ZM16 4.90625C18.1953 4.90625 19.9375 6.64844 19.9375 8.84375C19.9375 10.1953 19.3828 11.043 18.6562 12.0625C17.9297 13.082 17 14.2852 17 16.0312V19H15V16.0312C15 14.2852 14.0703 13.082 13.3438 12.0625C12.6172 11.043 12.0625 10.1953 12.0625 8.84375C12.0625 6.64844 13.8047 4.90625 16 4.90625ZM14 21H18L26 22.7812V24H6V22.7812L14 21ZM7 26H25V26.9688C24.9883 26.9766 24.9727 27 24.9062 27H7.09375C7.02734 27 7.01172 26.9766 7 26.9688V26Z" fill="black"/>
</g>
</svg>
