<svg width="32" height="32" viewBox="0 0 32 32" fill="none" xmlns="http://www.w3.org/2000/svg">
<g id="star">
<path id="Vector" d="M16 2.125L15.0938 4.1875L11.8438 11.4688L3.90625 12.3125L1.65625 12.5625L3.34375 14.0625L9.25 19.4062L7.59375 27.2188L7.125 29.4062L9.09375 28.2812L16 24.2812L22.9062 28.2812L24.875 29.4062L24.4062 27.2188L22.75 19.4062L28.6562 14.0625L30.3438 12.5625L28.0938 12.3125L20.1562 11.4688L16.9062 4.1875L16 2.125ZM16 7.03125L18.5625 12.8125L18.8125 13.3438L19.375 13.4062L25.6562 14.0625L20.9688 18.2812L20.5312 18.6875L20.6562 19.25L21.9688 25.4062L16.5 22.2812L16 21.9688L15.5 22.2812L10.0312 25.4062L11.3438 19.25L11.4688 18.6875L11.0312 18.2812L6.34375 14.0625L12.625 13.4062L13.1875 13.3438L13.4375 12.8125L16 7.03125Z" fill="black"/>
</g>
</svg>
