<svg width="32" height="32" viewBox="0 0 32 32" fill="none" xmlns="http://www.w3.org/2000/svg">
<g id="star-half-alt-solid">
<path id="Vector" d="M16 2.375L15.0938 4.40625L11.8438 11.7188L3.90625 12.5312L1.65625 12.7812L3.34375 14.2812L9.25 19.625L7.59375 27.4375L7.125 29.625H7.15625L9.09375 28.5L16 24.5312L22.9062 28.5L24.875 29.625L24.4062 27.4375L22.75 19.625L28.6562 14.2812L30.3438 12.7812L28.0938 12.5312L20.1562 11.7188L16.9062 4.40625L16 2.375ZM16 7.28125L18.5625 13.0625L18.8125 13.5625L19.375 13.625L25.6875 14.2812L20.9688 18.5312L20.5312 18.9062L20.6562 19.4688L21.9688 25.6562L16.5 22.5L16 22.2188V7.28125Z" fill="black"/>
</g>
</svg>
