<svg width="32" height="32" viewBox="0 0 32 32" fill="none" xmlns="http://www.w3.org/2000/svg">
<g id="star-and-crescent-solid">
<path id="Vector" d="M14.5 4C8.14453 4 3.03125 9.41016 3.03125 16C3.03125 22.5898 8.14453 28 14.5 28C18.3672 28 20.9766 26.4453 22.9375 24.5938L22.25 23.875L21.75 23C20.5938 23.6836 19.5352 24 17 24C12.5742 24 9 20.6602 9 16C9 11.3398 12.5781 8 17 8C19.1484 8 20.6445 8.33984 21.7188 8.9375L21.9375 8.53125L22 8.46875L21.75 8.9375C21.7695 8.94922 21.7852 8.95312 21.8125 8.96875L22.3125 8.125L23.0312 7.40625C21.0312 5.51953 18.1758 4 14.5 4ZM14.5 6C14.9609 6 15.3867 6.04297 15.8125 6.09375C10.9062 6.66797 7 10.7188 7 16C7 21.293 10.9258 25.3438 15.8438 25.9062C15.418 25.9531 14.9805 26 14.5 26C9.27734 26 5.03125 21.5586 5.03125 16C5.03125 10.4375 9.27734 6 14.5 6ZM25.5938 11L23.4375 14.0938L20.0312 12.875L22.125 16L20 19.0625L23.4375 17.9062L25.5625 21V17.1875L29 16L25.5625 14.8125L25.5938 11Z" fill="black"/>
</g>
</svg>
