<svg width="32" height="32" viewBox="0 0 32 32" fill="none" xmlns="http://www.w3.org/2000/svg">
<g id="star-of-life-solid">
<path id="Vector" d="M13 4V10.8047L7.10742 7.40234L4.10742 12.5996L10 16L4.10742 19.4004L7.10742 24.5977L13 21.1953V28H19V21.1953L24.8926 24.5977L27.8926 19.4004L22 16L27.8926 12.5996L24.8926 7.40234L19 10.8047V4H13ZM15 6H17V14.2695L24.1602 10.1348L25.1602 11.8652L18 16L25.1602 20.1348L24.1602 21.8652L17 17.7305V26H15V17.7305L7.83984 21.8652L6.83984 20.1348L14 16L6.83984 11.8652L7.83984 10.1348L15 14.2695V6Z" fill="black"/>
</g>
</svg>
