<svg width="32" height="32" viewBox="0 0 32 32" fill="none" xmlns="http://www.w3.org/2000/svg">
<g id="star-of-david-solid">
<path id="Vector" d="M16 2.0625L15.1562 3.46875L11.7812 9H3.3125L4.21875 10.5312L7.53125 16L4.21875 21.4688L3.3125 23H11.7812L15.1562 28.5312L16 29.9375L16.8438 28.5312L20.2188 23H28.7812L27.8438 21.4688L24.5 16L27.8438 10.5312L28.7812 9H20.2188L16.8438 3.46875L16 2.0625ZM16 5.90625L17.875 9H14.125L16 5.90625ZM6.875 11H10.5938L8.71875 14.0625L6.875 11ZM12.9062 11H19.125L22.1562 16L19.125 21H12.9062L9.90625 16L12.9062 11ZM21.4375 11H25.2188L23.3438 14.0938L21.4375 11ZM23.3438 17.9062L25.2188 21H21.4375L23.3438 17.9062ZM8.71875 17.9375L10.5938 21H6.875L8.71875 17.9375ZM14.125 23H17.875L16 26.0938L14.125 23Z" fill="black"/>
</g>
</svg>
