<svg width="32" height="32" viewBox="0 0 32 32" fill="none" xmlns="http://www.w3.org/2000/svg">
<g id="staylinked">
<path id="Vector" d="M16.0547 4.00595C15.9251 3.9872 15.7569 4.01406 15.5684 4.16806L6.16406 11.7423C5.97306 11.8923 5.94638 12.1496 6.10938 12.3126L8.0332 14.2618L15.8418 21.9786C16.0098 22.1426 16.3012 22.1521 16.4922 21.9981L18.7754 20.1856L18.7617 20.172L19.1113 19.8907C19.3023 19.7407 19.3203 19.4834 19.1523 19.3204L16.5547 16.7774C16.3907 16.6134 16.0992 16.606 15.9082 16.7559L15.9043 16.7599C15.7133 16.9099 15.4268 16.9043 15.2578 16.7403L10.9551 12.4493C10.7911 12.2853 10.8149 12.035 11.0059 11.8809L15.1992 8.5372C15.3852 8.3872 15.668 8.39764 15.832 8.56064L23.127 15.9923C23.295 16.1563 23.5816 16.1657 23.7676 16.0157L25.8496 14.3438C26.0366 14.1938 26.0518 13.9365 25.8828 13.7735L16.3105 4.11532C16.2765 4.08732 16.1843 4.0247 16.0547 4.00595ZM15.4922 9.84775C15.3784 9.84375 15.2615 9.87822 15.168 9.95322L12.5625 11.9923C12.3715 12.1423 12.3527 12.3996 12.5117 12.5626L15.6094 15.5665C15.7734 15.7305 16.0591 15.7399 16.2461 15.5899L16.252 15.586C16.438 15.436 16.7247 15.4445 16.8887 15.6075L20.707 19.4083C20.871 19.5723 20.855 19.8296 20.668 19.9786L16.4297 23.4376C16.2387 23.5916 15.9522 23.5821 15.7832 23.4181L8.875 16.5235C8.716 16.3595 8.43319 16.352 8.24219 16.502L6.16016 18.1329C5.96916 18.2829 5.94647 18.5402 6.10547 18.7032L15.5957 27.8692C15.5957 27.8692 15.9328 28.1871 16.3828 27.8321L25.3867 20.172C25.5687 20.022 25.586 19.7647 25.418 19.6017L23.4043 17.672L15.7969 9.97665C15.7174 9.89465 15.6059 9.85175 15.4922 9.84775Z" fill="black"/>
</g>
</svg>
