<svg width="32" height="32" viewBox="0 0 32 32" fill="none" xmlns="http://www.w3.org/2000/svg">
<g id="steam-symbol">
<path id="Vector" d="M22 6C18.7457 6 16.0947 8.60419 16.0078 11.8379L12.3379 17.084C12.0659 17.0325 11.7867 17 11.5 17C10.5517 17 9.67364 17.2978 8.94727 17.8008L4 15.8438V21.2207L7.10547 22.4492C7.54294 24.4755 9.34495 26 11.5 26C13.7036 26 15.5343 24.4051 15.918 22.3105L21.6914 17.9844C21.7942 17.9896 21.8959 18 22 18C25.309 18 28 15.309 28 12C28 8.691 25.309 6 22 6ZM22 8C24.206 8 26 9.794 26 12C26 14.206 24.206 16 22 16C19.794 16 18 14.206 18 12C18 9.794 19.794 8 22 8ZM22 9C21.2044 9 20.4413 9.31607 19.8787 9.87868C19.3161 10.4413 19 11.2044 19 12C19 12.7956 19.3161 13.5587 19.8787 14.1213C20.4413 14.6839 21.2044 15 22 15C22.7956 15 23.5587 14.6839 24.1213 14.1213C24.6839 13.5587 25 12.7956 25 12C25 11.2044 24.6839 10.4413 24.1213 9.87868C23.5587 9.31607 22.7956 9 22 9ZM11.5 18C13.43 18 15 19.57 15 21.5C15 23.43 13.43 25 11.5 25C10.0787 25 8.85814 24.1454 8.31055 22.9258L10.5801 23.8242C10.8821 23.9442 11.192 24.002 11.498 24.002C12.494 24.002 13.4362 23.4039 13.8242 22.4219C14.3332 21.1379 13.7039 19.6838 12.4199 19.1758L10.1426 18.2734C10.5601 18.0971 11.019 18 11.5 18Z" fill="black"/>
</g>
</svg>
