<svg width="32" height="32" viewBox="0 0 32 32" fill="none" xmlns="http://www.w3.org/2000/svg">
<g id="steam">
<path id="Vector" d="M16 3C8.832 3 3 8.832 3 16C3 23.168 8.832 29 16 29C23.168 29 29 23.168 29 16C29 8.832 23.168 3 16 3ZM16 5C22.065 5 27 9.935 27 16C27 22.065 22.065 27 16 27C10.8915 27 6.59856 23.4942 5.36719 18.7656L9.0332 20.3359C9.20195 21.8329 10.4579 23 12 23C13.657 23 15 21.657 15 20C15 19.968 14.9912 19.9373 14.9902 19.9062L19.168 16.9844C21.298 16.8944 23 15.152 23 13C23 10.791 21.209 9 19 9C16.848 9 15.1066 10.702 15.0176 12.832L12.0938 17.0098C12.0618 17.0088 12.032 17 12 17C11.3367 17 10.7291 17.2215 10.2324 17.5859L5.0332 15.3574C5.36887 9.59195 10.1519 5 16 5ZM19 10C20.657 10 22 11.343 22 13C22 14.657 20.657 16 19 16C17.343 16 16 14.657 16 13C16 11.343 17.343 10 19 10ZM19 11C18.4696 11 17.9609 11.2107 17.5858 11.5858C17.2107 11.9609 17 12.4696 17 13C17 13.5304 17.2107 14.0391 17.5858 14.4142C17.9609 14.7893 18.4696 15 19 15C19.5304 15 20.0391 14.7893 20.4142 14.4142C20.7893 14.0391 21 13.5304 21 13C21 12.4696 20.7893 11.9609 20.4142 11.5858C20.0391 11.2107 19.5304 11 19 11ZM12 18C13.105 18 14 18.895 14 20C14 21.105 13.105 22 12 22C11.1912 22 10.4988 21.5185 10.1836 20.8281L10.9668 21.1641C11.1588 21.2471 11.3596 21.2871 11.5566 21.2871C12.1386 21.2871 12.6935 20.946 12.9375 20.377C13.2635 19.616 12.9104 18.7342 12.1484 18.4082L11.4199 18.0957C11.6047 18.0394 11.7967 18 12 18Z" fill="black"/>
</g>
</svg>
