<svg width="32" height="32" viewBox="0 0 32 32" fill="none" xmlns="http://www.w3.org/2000/svg">
<g id="steam-square">
<path id="Vector" d="M5 5V16L8.8125 17.5938C9.52344 16.6602 10.6211 16.0352 11.875 16L14.0312 12.75C14.1562 10.1016 16.3203 8 19 8C21.7617 8 24 10.2383 24 13C24 15.6797 21.8984 17.8438 19.25 17.9688L16 20.125C15.9375 22.2812 14.1719 24 12 24C9.78906 24 8 22.2109 8 20C8 19.8086 8.03516 19.6211 8.0625 19.4375L5 18.1562V27H27V5H5ZM19 10C17.3477 10 16 11.3477 16 13C16 14.6523 17.3477 16 19 16C20.6523 16 22 14.6523 22 13C22 11.3477 20.6523 10 19 10ZM19 11C20.1094 11 21 11.8906 21 13C21 14.1094 20.1094 15 19 15C17.8906 15 17 14.1094 17 13C17 11.8906 17.8906 11 19 11ZM12 18C11.5469 18 11.1172 18.1484 10.7812 18.4062L12.375 19.0625C12.8867 19.2734 13.1523 19.8633 12.9375 20.375C12.7773 20.7578 12.3906 21 12 21C11.8711 21 11.75 20.9922 11.625 20.9375L10.0312 20.25C10.1602 21.2305 10.9844 22 12 22C13.1055 22 14 21.1055 14 20C14 18.8945 13.1055 18 12 18Z" fill="black"/>
</g>
</svg>
