<svg width="32" height="32" viewBox="0 0 32 32" fill="none" xmlns="http://www.w3.org/2000/svg">
<g id="sticker-mule">
<path id="Vector" d="M26.2305 5C26.0805 5 25.7175 6.03222 25.5215 6.07422C25.3045 6.12822 24.3596 5.59922 22.3926 6.82422C21.3386 7.37422 18.7726 9.54092 18.7676 9.54492C18.4886 9.74092 17.9351 9.74189 17.2891 10.2129C15.4391 11.4669 12.7237 10.6518 12.6777 10.6348C8.06974 9.51777 7.34374 10.0013 6.05274 11.1133C5.18574 11.8593 5.06593 12.6344 5.04493 12.7344C4.86993 13.5844 5.26223 14.7451 5.32423 15.4121C5.39923 16.2161 5.21154 16.1029 5.64454 19.4609C5.66554 19.5029 5.81643 19.4614 5.85743 19.5234C5.85743 19.8734 5.69855 20.0265 5.68555 20.0645C5.62355 20.2515 5.62355 20.5024 5.68555 20.7324C5.78155 21.0744 6.02735 22.2444 6.02735 22.6484C6.02735 24.3894 6.04573 24.4801 6.13673 24.7051C6.29873 25.1221 6.65676 25.0841 6.84376 25.2051C6.97276 25.3511 6.82373 25.5596 6.88673 25.7266C6.90773 25.8096 7.03654 25.8945 7.14454 25.9355C7.52754 26.0855 8.26963 25.9461 8.39063 25.8301C8.45763 25.7681 8.41154 25.644 8.51954 25.623C8.73154 25.623 8.96915 25.6025 9.11915 25.5195C9.33115 25.4155 9.29065 25.269 9.18165 25.082C9.16465 25.049 8.88944 24.5271 8.77344 24.4141C8.68644 24.3311 8.56066 24.2905 8.47266 24.2285C8.23066 24.0245 8.04493 23.42 8.04493 23.416C7.85293 22.608 7.61505 21.5259 7.87305 20.6719C8.06505 19.9549 9.51944 17.0177 9.52344 17.0137C9.69444 16.7427 10.2312 16.5337 10.6602 16.7207C10.9102 16.7997 11.4638 17.4884 13.3848 17.8594C15.3808 18.2214 17.4426 17.7773 18.0586 17.7773C18.1756 17.8603 17.9791 18.4679 18.0371 19.5469C18.0371 20.6469 18.0212 20.118 17.8672 20.793C17.7752 21.197 18.0087 21.7591 17.8047 22.7461C17.7467 23.1541 17.3929 23.7777 17.4629 24.2227C17.4839 24.2647 17.5054 24.3042 17.5254 24.3672C17.5464 24.5542 17.5868 24.7222 17.7168 24.7852C18.0208 24.9352 18.217 24.6387 18.125 25.2637C18.096 25.3927 18.0175 25.7637 18.1875 25.8887C18.3705 26.0427 19.461 26.0312 19.707 25.9102C19.815 25.8482 19.7746 25.7226 19.9746 25.6016C20.0536 25.5646 20.4453 25.5841 20.4453 25.3301C20.4573 25.2551 20.0626 24.502 20.0586 24.498C19.9506 24.352 19.6759 24.3101 19.5879 24.1641C19.3009 23.7431 19.5174 22.3045 19.6094 22.0215C19.7344 21.5635 19.8417 21.0889 19.9707 20.6719C20.4287 18.9009 20.4002 18.5632 20.6582 17.8262C20.6912 17.7512 20.9259 16.8641 21.0879 16.5801C21.4749 15.8721 21.9904 15.2305 22.4824 14.6055C23.2324 13.6515 23.8984 12.6513 24.6484 11.6973C24.9024 11.4053 24.9904 11.1272 25.3984 11.3652C25.8484 11.6022 26.2995 11.6563 26.7285 12.0723C27.3365 12.6053 27.1537 12.8313 27.2207 13.0273C27.2827 13.2353 27.5418 13.4648 27.8418 13.4238C28.2748 13.3408 28.3824 13.3184 28.3984 13.3184C28.5064 13.2974 28.6362 13.1113 28.6992 12.9863C28.8282 12.7573 28.9981 12.6108 28.9981 12.2988C28.9991 11.9738 28.9836 12.1788 28.1426 10.0918C27.8216 9.1628 27.93 9.79169 27.584 8.55469C27.517 8.28369 27.4342 7.9497 27.3262 7.7207C27.1432 7.3587 27.1348 7.40822 27.1348 7.32422C27.1348 7.10322 28.4128 5.43809 27.9258 5.37109C27.6888 5.34609 27.4184 5.85312 27.0684 6.07812C26.7104 6.25312 26.7347 6.28711 26.6387 6.28711C26.5307 6.28711 26.4019 6.16112 26.3809 6.07812C26.2959 5.84113 26.4595 5 26.2305 5Z" fill="black"/>
</g>
</svg>
