<svg width="32" height="32" viewBox="0 0 32 32" fill="none" xmlns="http://www.w3.org/2000/svg">
<g id="stopwatch-solid">
<path id="Vector" d="M13 4V6H19V4H13ZM16 7C9.9375 7 5 11.9375 5 18C5 24.0625 9.9375 29 16 29C22.0625 29 27 24.0625 27 18C27 15.082 25.8633 12.4102 24 10.4375L25.7188 8.71875L24.2812 7.28125L22.4688 9.09375C20.6562 7.77344 18.4102 7 16 7ZM16 9C20.9805 9 25 13.0195 25 18C25 22.9805 20.9805 27 16 27C11.0195 27 7 22.9805 7 18C7 13.0195 11.0195 9 16 9ZM15 11V16.2812C14.4023 16.6289 14 17.2617 14 18C14 18.7383 14.4023 19.3711 15 19.7188V21H17V19.7188C17.5977 19.3711 18 18.7383 18 18C18 17.2617 17.5977 16.6289 17 16.2812V11H15Z" fill="black"/>
</g>
</svg>
