<svg width="32" height="32" viewBox="0 0 32 32" fill="none" xmlns="http://www.w3.org/2000/svg">
<g id="store-solid">
<path id="Vector" d="M4 4V7.65625L1 11.6562V12C1 13.645 2.355 15 4 15V28H28V15C29.645 15 31 13.645 31 12V11.6562L28 7.65625V4H4ZM6 6H26V7H6V6ZM5.5 9H26.5L28.9062 12.2188C28.7973 12.6517 28.469 13 28 13C27.445 13 27 12.555 27 12H25C25 12.555 24.555 13 24 13C23.445 13 23 12.555 23 12H21C21 12.555 20.555 13 20 13C19.445 13 19 12.555 19 12H17C17 12.555 16.555 13 16 13C15.445 13 15 12.555 15 12H13C13 12.555 12.555 13 12 13C11.445 13 11 12.555 11 12H9C9 12.555 8.555 13 8 13C7.445 13 7 12.555 7 12H5C5 12.555 4.555 13 4 13C3.531 13 3.20275 12.6517 3.09375 12.2188L5.5 9ZM6 14.2188C6.531 14.6987 7.234 15 8 15C8.766 15 9.469 14.6987 10 14.2188C10.531 14.6987 11.234 15 12 15C12.766 15 13.469 14.6987 14 14.2188C14.531 14.6987 15.234 15 16 15C16.766 15 17.469 14.6987 18 14.2188C18.531 14.6987 19.234 15 20 15C20.766 15 21.469 14.6987 22 14.2188C22.531 14.6987 23.234 15 24 15C24.766 15 25.469 14.6987 26 14.2188V21H6V14.2188ZM6 23H26V26H6V23Z" fill="black"/>
</g>
</svg>
