<svg width="32" height="32" viewBox="0 0 32 32" fill="none" xmlns="http://www.w3.org/2000/svg">
<g id="street-view-solid">
<path id="Vector" d="M16 4C13.8008 4 12 5.80078 12 8C12 9.11328 12.4766 10.1172 13.2188 10.8438C11.8867 11.7461 11 13.2812 11 15V19.625L13 20.625V25H19V20.625L21 19.625V15C21 13.2812 20.1133 11.7461 18.7812 10.8438C19.5234 10.1172 20 9.11328 20 8C20 5.80078 18.1992 4 16 4ZM16 6C17.1172 6 18 6.88281 18 8C18 9.11719 17.1172 10 16 10C14.8828 10 14 9.11719 14 8C14 6.88281 14.8828 6 16 6ZM16 12C17.668 12 19 13.332 19 15V18.375L17 19.375V23H15V19.375L13 18.375V15C13 13.332 14.332 12 16 12ZM9 18.875C6.08203 19.6914 4 21.0742 4 23C4 26.2812 10.0352 28 16 28C21.9648 28 28 26.2812 28 23C28 21.0742 25.918 19.6914 23 18.875V20.9688C24.9023 21.582 26 22.375 26 23C26 24.1953 22.0117 26 16 26C9.98828 26 6 24.1953 6 23C6 22.375 7.09766 21.582 9 20.9688V18.875Z" fill="black"/>
</g>
</svg>
