<svg width="32" height="32" viewBox="0 0 32 32" fill="none" xmlns="http://www.w3.org/2000/svg">
<g id="stripe-s">
<path id="Vector" d="M16.5156 4C10.7356 4 7 7.11359 7 11.9336C7 16.7066 11.289 18.1293 14.127 19.0703C15.403 19.4933 16.989 20.0181 17 20.5371C16.992 20.9381 16.0426 21 15.4766 21C13.5906 21 10.6984 20.2205 8.44336 19.1035L7 18.3887V26.1855L7.61133 26.4414C9.95833 27.4274 12.7073 27.995 15.1543 28C21.3193 28 25 25.1584 25 20.4004C25 15.2084 20.5918 13.7973 17.6758 12.8633C16.6098 12.5213 15 12.0052 15 11.5742C15 11.3452 15.0005 11 16.2305 11C18.0795 11 20.6523 11.7654 22.4883 12.8594L24 13.7617V5.54688L23.3633 5.29883C21.2073 4.46083 18.7766 4 16.5156 4ZM16.5156 6C18.3146 6 20.237 6.32769 22 6.92969V10.3613C20.114 9.52233 17.9535 9 16.2305 9C13.3155 9 13 10.8002 13 11.5742C13 13.4652 14.9754 14.0986 17.0664 14.7676C20.5414 15.8806 23 16.9344 23 20.4004C23 25.4534 17.5133 26 15.1562 26C13.1753 25.996 10.967 25.5768 9 24.8418V21.5371C10.993 22.3341 13.4656 23 15.4766 23C18.5306 23 18.997 21.466 19 20.543V20.5371V20.5312C18.992 18.5752 16.9349 17.8939 14.7559 17.1719C11.3859 16.0539 9 15.0246 9 11.9336C9 8.27259 11.8796 6 16.5156 6Z" fill="black"/>
</g>
</svg>
