<svg width="32" height="32" viewBox="0 0 32 32" fill="none" xmlns="http://www.w3.org/2000/svg">
<g id="stroopwafel-solid">
<path id="Vector" d="M16 3C8.832 3 3 8.832 3 16C3 23.168 8.832 29 16 29C23.168 29 29 23.168 29 16C29 8.832 23.168 3 16 3ZM16 5C16.5012 5 16.991 5.04608 17.4746 5.11133L16 6.58594L14.5254 5.11133C15.009 5.04608 15.4988 5 16 5ZM12.2559 5.66992L14.5859 8L12 10.5859L8.9668 7.55273C9.93569 6.74461 11.0484 6.1091 12.2559 5.66992ZM19.7441 5.66992C20.9516 6.1091 22.0643 6.74461 23.0332 7.55273L20 10.5859L17.4141 8L19.7441 5.66992ZM7.55273 8.9668L10.5859 12L8 14.5859L5.66992 12.2559C6.1091 11.0484 6.74461 9.93569 7.55273 8.9668ZM24.4473 8.9668C25.2554 9.93569 25.8909 11.0484 26.3301 12.2559L24 14.5859L21.4141 12L24.4473 8.9668ZM16 9.41406L18.5859 12L16 14.5859L13.4141 12L16 9.41406ZM12 13.4141L14.5859 16L12 18.5859L9.41406 16L12 13.4141ZM20 13.4141L22.5859 16L20 18.5859L17.4141 16L20 13.4141ZM5.11133 14.5254L6.58594 16L5.11133 17.4746C5.04608 16.991 5 16.5012 5 16C5 15.4988 5.04608 15.009 5.11133 14.5254ZM26.8887 14.5254C26.9539 15.009 27 15.4988 27 16C27 16.5012 26.9539 16.991 26.8887 17.4746L25.4141 16L26.8887 14.5254ZM8 17.4141L10.5859 20L7.55273 23.0332C6.74461 22.0643 6.1091 20.9516 5.66992 19.7441L8 17.4141ZM16 17.4141L18.5859 20L16 22.5859L13.4141 20L16 17.4141ZM24 17.4141L26.3301 19.7441C25.8909 20.9516 25.2554 22.0643 24.4473 23.0332L21.4141 20L24 17.4141ZM12 21.4141L14.5859 24L12.2559 26.3301C11.0484 25.8909 9.93569 25.2554 8.9668 24.4473L12 21.4141ZM20 21.4141L23.0332 24.4473C22.0643 25.2554 20.9516 25.8909 19.7441 26.3301L17.4141 24L20 21.4141ZM16 25.4141L17.4746 26.8887C16.991 26.9539 16.5012 27 16 27C15.4988 27 15.009 26.9539 14.5254 26.8887L16 25.4141Z" fill="black"/>
</g>
</svg>
