<svg width="32" height="32" viewBox="0 0 32 32" fill="none" xmlns="http://www.w3.org/2000/svg">
<g id="studiovinari">
<path id="Vector" d="M3.58984 3L8.73438 8.48438L3 7.56445L11.3281 13.8066L7.16992 14.3398L16 17L15 18L21.5703 16.7871L20.8184 20.2617L17.9355 22.877L13.4512 25.1719L12.4004 24.5156L12.0508 24.7949L11 28.5332L11.3281 28.4629L12.4863 27.0391L15.3262 25.1719L20.0234 23.8457L16.6367 25.8066C16.6367 25.8066 15.7115 25.7695 15.6055 25.7695C15.4995 25.7695 14.6191 29 14.6191 29L15.1055 28.7969L15.4961 28.1875L16.3965 26.9434L20.4121 25.0234L23.2617 21.5957L25.2832 17.6152L26.5586 15.377V13.9531L26.3457 12.5312L25.8125 11.3184L26.3359 10.293L27 9.91602L26.5684 9.30469L26.9238 8.99023L26.3398 8.77734L24.8555 7.52344L22.9355 8.05078L22.7227 9.9707L23.7891 10.8047L23.1797 11.2559L17.6953 6.36133L19.875 9.19531L10 3L12.3047 7.28125L14.8223 8.19922L13.873 6.25L21.1504 11.2773L14.832 7.49805L16.4336 9.42969L3.58984 3Z" fill="black"/>
</g>
</svg>
