<svg width="32" height="32" viewBox="0 0 32 32" fill="none" xmlns="http://www.w3.org/2000/svg">
<g id="stumbleupon-circle">
<path id="Vector" d="M16 4C9.39844 4 4 9.39844 4 16C4 22.6016 9.39844 28 16 28C22.6016 28 28 22.6016 28 16C28 9.39844 22.6016 4 16 4ZM16 11C15.3984 11 15 11.3984 15 12V18C15 19.6992 13.6992 21 12 21C10.3008 21 9 19.6992 9 18V16H11V18C11 18.6016 11.3984 19 12 19C12.6016 19 13 18.6016 13 18V12C13 10.3008 14.3008 9 16 9C17.6992 9 19 10.3008 19 12V13C19 13.6016 18.6016 14 18 14C17.3984 14 17 13.6016 17 13V12C17 11.3984 16.6016 11 16 11ZM23 18C23 19.6992 21.6992 21 20 21C18.3008 21 17 19.6992 17 18V15.6992C17.3008 15.8984 17.6016 16 18 16C18.3984 16 18.6992 15.8984 19 15.6992V18C19 18.6016 19.3984 19 20 19C20.6016 19 21 18.6016 21 18V16H23V18Z" fill="black"/>
</g>
</svg>
