<svg width="32" height="32" viewBox="0 0 32 32" fill="none" xmlns="http://www.w3.org/2000/svg">
<g id="stumbleupon">
<path id="Vector" d="M16 4C12.141 4 9 7.14 9 11V20.5C9 21.327 8.327 22 7.5 22C6.673 22 6 21.327 6 20.5V16H1V20.5C1 24.084 3.916 27 7.5 27C11.084 27 14 24.084 14 20.5V11C14 9.897 14.897 9 16 9C17.103 9 18 9.897 18 11V12.9219L19.8887 13.8008L23 12.877V11C23 7.14 19.859 4 16 4ZM26 16V20.5C26 21.327 25.327 22 24.5 22C23.673 22 23 21.327 23 20.5V16.0059L19.6523 17.002L18 16.2305V20.5C18 24.084 20.916 27 24.5 27C28.084 27 31 24.084 31 20.5V16H26Z" fill="black"/>
</g>
</svg>
