<svg width="32" height="32" viewBox="0 0 32 32" fill="none" xmlns="http://www.w3.org/2000/svg">
<g id="subscript-solid">
<path id="Vector" d="M4.15625 8L5.15625 9.53125L9.3125 16L5.15625 22.4688L4.15625 24H10.5312L10.8438 23.5312L12.5 20.9688L14.1562 23.5312L14.4688 24H20.8438L19.8438 22.4688L15.6875 16L19.8438 9.53125L20.8438 8H14.4688L14.1562 8.46875L12.5 11.0312L10.8438 8.46875L10.5312 8H4.15625ZM7.8125 10H9.46875L11.6562 13.4375L12.5 14.75L13.3438 13.4375L15.5312 10H17.1875L13.6562 15.4688L13.3125 16L13.6562 16.5312L17.1875 22H15.5312L13.3438 18.5625L12.5 17.25L11.6562 18.5625L9.46875 22H7.8125L11.3438 16.5312L11.6875 16L11.3438 15.4688L7.8125 10ZM24.9688 19C23.3438 19 22 20.3438 22 21.9688V22H24V21.9688C24 21.4219 24.4219 21 24.9688 21H25.0312C25.5781 21 26 21.4219 26 21.9688C26 22.2852 25.8555 22.5703 25.5938 22.75L23.4688 24.2188C22.5547 24.8477 22 25.8906 22 27V28H28V26H24.5312C24.5703 25.9688 24.5508 25.9023 24.5938 25.875L26.7188 24.4062C27.5234 23.8516 28 22.9453 28 21.9688C28 20.3438 26.6562 19 25.0312 19H24.9688Z" fill="black"/>
</g>
</svg>
