<svg width="32" height="32" viewBox="0 0 32 32" fill="none" xmlns="http://www.w3.org/2000/svg">
<g id="subway-solid">
<path id="Vector" d="M10 4C7.25 4 5 6.25 5 9V21C5 23.4258 6.44922 25.5234 8.53125 26.4688L6 29H8.34375L10.375 26.9688C10.5742 26.9883 10.793 27 11 27H21C21.207 27 21.4258 26.9883 21.625 26.9688L23.6562 29H26L23.4688 26.4688C25.5508 25.5234 27 23.4258 27 21V9C27 6.25 24.75 4 22 4H10ZM10 6H22C23.3203 6 24.4375 6.82812 24.8438 8H7.15625C7.5625 6.82812 8.67969 6 10 6ZM7 10H15V16H7V10ZM17 10H25V16H17V10ZM7 18H25V21C25 23.2188 23.2188 25 21 25H11C8.78125 25 7 23.2188 7 21V18ZM10.5 20C9.67188 20 9 20.6719 9 21.5C9 22.3281 9.67188 23 10.5 23C11.3281 23 12 22.3281 12 21.5C12 20.6719 11.3281 20 10.5 20ZM21.5 20C20.6719 20 20 20.6719 20 21.5C20 22.3281 20.6719 23 21.5 23C22.3281 23 23 22.3281 23 21.5C23 20.6719 22.3281 20 21.5 20Z" fill="black"/>
</g>
</svg>
