<svg width="32" height="32" viewBox="0 0 32 32" fill="none" xmlns="http://www.w3.org/2000/svg">
<g id="sun">
<path id="Vector" d="M15 3V8H17V3H15ZM7.5 6.09375L6.09375 7.5L9.625 11.0625L11.0625 9.625L7.5 6.09375ZM24.5 6.09375L20.9375 9.625L22.375 11.0625L25.9062 7.5L24.5 6.09375ZM16 9C12.1445 9 9 12.1445 9 16C9 19.8555 12.1445 23 16 23C19.8555 23 23 19.8555 23 16C23 12.1445 19.8555 9 16 9ZM16 11C18.7734 11 21 13.2266 21 16C21 18.7734 18.7734 21 16 21C13.2266 21 11 18.7734 11 16C11 13.2266 13.2266 11 16 11ZM3 15V17H8V15H3ZM24 15V17H29V15H24ZM9.625 20.9375L6.09375 24.5L7.5 25.9062L11.0625 22.375L9.625 20.9375ZM22.375 20.9375L20.9375 22.375L24.5 25.9062L25.9062 24.5L22.375 20.9375ZM15 24V29H17V24H15Z" fill="black"/>
</g>
</svg>
