<svg width="32" height="32" viewBox="0 0 32 32" fill="none" xmlns="http://www.w3.org/2000/svg">
<g id="superscript-solid">
<path id="Vector" d="M24.9688 3C23.3438 3 22 4.34375 22 5.96875V6H24V5.96875C24 5.42188 24.4219 5 24.9688 5H25.0312C25.5781 5 26 5.42188 26 5.96875C26 6.28516 25.8555 6.57031 25.5938 6.75L23.4688 8.21875C22.5547 8.84766 22 9.89062 22 11V12H28V10H24.5312C24.5703 9.96875 24.5508 9.90234 24.5938 9.875L26.7188 8.40625C27.5234 7.85156 28 6.94531 28 5.96875C28 4.34375 26.6562 3 25.0312 3H24.9688ZM4.15625 8L5.15625 9.53125L9.3125 16L5.15625 22.4688L4.15625 24H10.5312L10.8438 23.5312L12.5 20.9688L14.1562 23.5312L14.4688 24H20.8438L19.8438 22.4688L15.6875 16L19.8438 9.53125L20.8438 8H14.4688L14.1562 8.46875L12.5 11.0312L10.8438 8.46875L10.5312 8H4.15625ZM7.8125 10H9.46875L11.6562 13.4375L12.5 14.75L13.3438 13.4375L15.5312 10H17.1875L13.6562 15.4688L13.3125 16L13.6562 16.5312L17.1875 22H15.5312L13.3438 18.5625L12.5 17.25L11.6562 18.5625L9.46875 22H7.8125L11.3438 16.5312L11.6875 16L11.3438 15.4688L7.8125 10Z" fill="black"/>
</g>
</svg>
