<svg width="32" height="32" viewBox="0 0 32 32" fill="none" xmlns="http://www.w3.org/2000/svg">
<g id="superpowers">
<path id="Vector" d="M29 3L14.877 5.05664L13.9883 5.18555L14.002 5.19141C8.88843 6.13475 5 10.6179 5 16C5 19.0325 6.23469 21.7816 8.22656 23.7734L3 29L17.123 26.9434L18.0117 26.8145L17.998 26.8086C23.1116 25.8652 27 21.3821 27 16C27 12.9675 25.7653 10.2184 23.7734 8.22656L29 3ZM16 7C20.963 7 25 11.037 25 16C25 20.963 20.963 25 16 25C11.037 25 7 20.963 7 16C7 11.037 11.037 7 16 7Z" fill="black"/>
</g>
</svg>
