<svg width="32" height="32" viewBox="0 0 32 32" fill="none" xmlns="http://www.w3.org/2000/svg">
<g id="supple">
<path id="Vector" d="M12.1992 9C5.53922 9.02 0.150391 11.5993 0.150391 14.7793C0.160391 16.6793 2.02 18.3604 5 19.4004C3.4 18.3304 2.51953 16.9891 2.51953 15.5391C2.50953 12.0591 7.90055 9.2307 14.5605 9.2207C14.9605 9.2207 15.3407 9.23023 15.7207 9.24023C14.6007 9.08023 13.4192 9 12.1992 9ZM27 12.6309C28.59 13.6909 29.4805 15.0302 29.4805 16.4902C29.4805 19.9602 24.0897 22.7793 17.4297 22.7793C17.0397 22.7793 16.6495 22.77 16.2695 22.75C17.3795 22.91 18.5591 23 19.7891 23C26.4491 23 31.8496 20.42 31.8496 17.25C31.8496 15.35 29.97 13.6709 27 12.6309ZM7.8457 14.002C7.1007 14.002 6.56445 14.4648 6.56445 15.0918C6.56445 16.2818 8.37109 16.2359 8.37109 16.8809C8.37109 17.1809 8.10936 17.3359 7.81836 17.3359C7.28236 17.3359 6.88281 16.8809 6.88281 16.8809L6.49219 17.3691C6.49219 17.3691 6.96359 17.9707 7.80859 17.9707C8.60759 17.9707 9.08008 17.452 9.08008 16.834C9.08008 15.581 7.27344 15.7087 7.27344 15.0547C7.27344 14.8097 7.51794 14.6445 7.83594 14.6445C8.08994 14.6445 8.3457 14.7625 8.3457 14.9355V15.1172H8.98047V14.7637C8.98047 14.2187 8.2917 14.002 7.8457 14.002ZM22.5176 14.0547V14.6641H22.8711V17.5352C22.8711 17.7982 22.9792 17.9062 23.2422 17.9062H24.9785C25.2415 17.9062 25.3496 17.7982 25.3496 17.5352V16.9531H24.7051V17.1797C24.7051 17.2617 24.6609 17.2969 24.5879 17.2969H23.707C23.625 17.2969 23.5898 17.2527 23.5898 17.1797V16.2715H24.834V15.6719H23.5898V14.6621H24.4512C24.5242 14.6621 24.5703 14.7083 24.5703 14.7812V15.0078H25.2051V14.4277C25.2051 14.1737 25.0977 14.0547 24.8438 14.0547H22.5176ZM19.6738 14.0625V14.6621H19.9102C19.9832 14.6621 20.0273 14.7083 20.0273 14.7812V17.5332H20.0195C20.0195 17.7962 20.1276 17.9062 20.3906 17.9062H22.0801C22.3431 17.9062 22.4531 17.7962 22.4531 17.5332V16.9531H21.8086V17.1797C21.8086 17.2617 21.7625 17.2969 21.6895 17.2969H20.8535C20.7715 17.2969 20.7363 17.2527 20.7363 17.1797V14.4258C20.7363 14.1718 20.6263 14.0625 20.3633 14.0625H19.6738ZM9.60742 14.0645V16.5352C9.60742 17.3892 10.217 17.9707 11.125 17.9707C12.033 17.9707 12.6328 17.3892 12.6328 16.5352V14.0645H11.9238V16.5078C11.9238 17.0168 11.606 17.3066 11.125 17.3066C10.644 17.3066 10.3262 17.0166 10.3262 16.5176V14.0645H9.60742ZM13.123 14.0645V14.6641H13.4688V17.9062H14.1777V16.5801H14.877C15.595 16.5801 16.1035 16.0626 16.1035 15.3086C16.1035 14.5636 15.595 14.0645 14.877 14.0645H13.123ZM16.3945 14.0645V14.6641H16.748V17.9062H17.457V16.5801H18.1562C18.8743 16.5801 19.373 16.0626 19.373 15.3086C19.373 14.5636 18.8743 14.0645 18.1562 14.0645H16.3945ZM25.4062 14.0645V14.1191H25.5234V14.3828H25.5977V14.1191H25.7148V14.0645H25.4062ZM25.7773 14.0645V14.3828H25.8516V14.1289L25.9512 14.3828H26.0059L26.1152 14.1289V14.3828H26.1797V14.0645H26.0781L25.9785 14.291L25.8867 14.0645H25.7773ZM14.1777 14.6621H14.7598C15.1508 14.6621 15.377 14.9176 15.377 15.3086C15.377 15.7086 15.149 15.9707 14.75 15.9707H14.1777V14.6621ZM17.4473 14.6621H18.0293C18.4203 14.6621 18.6465 14.9176 18.6465 15.3086C18.6465 15.7086 18.4195 15.9707 18.0195 15.9707H17.4473V14.6621Z" fill="black"/>
</g>
</svg>
