<svg width="32" height="32" viewBox="0 0 32 32" fill="none" xmlns="http://www.w3.org/2000/svg">
<g id="suse">
<path id="Vector" d="M17.0938 7C12.4453 7 6.375 10.7852 6.375 15C6.375 17.2695 8.23047 19 10.5 19C12.2305 19 13.5312 17.7188 13.5312 16.3125C13.5312 15.0156 12.6523 13.5 10.8125 13.5C10.3789 13.5 8.875 13.7969 8.875 15.3125C8.875 16.3945 9.72656 16.9375 10.375 16.9375C11.3477 16.9375 11.4688 16.5312 11.4688 16.3125C11.4688 15.9883 11.2617 15.8594 10.9375 15.75C10.7227 15.75 10.4844 15.875 10.375 15.875C10.2656 15.875 9.9375 15.7461 9.9375 15.3125C9.9375 14.8789 10.3984 14.6875 10.9375 14.6875C11.8008 14.6875 12.3125 15.5391 12.3125 16.1875C12.3125 16.5117 12.2148 17.6875 10.5938 17.6875C9.40625 17.6875 8 16.8398 8 15.2188C8 13.5977 9.42188 12.625 10.7188 12.625C14.1797 12.625 14.7188 16.0938 14.7188 16.0938L16.2188 16.8438C16.2188 16.8438 16.125 16.3086 16.125 15.875C16.125 14.4688 16.7656 13.9062 18.0625 13.9062C20.0078 13.9062 20.7734 15.5547 21.5312 16.3125L23.4688 17.1562C23.4688 17.1562 22.5 15.875 22.5 14.6875C22.5 13.2812 23.8008 13.9062 25.5312 13.9062C27.3711 13.9062 29.8438 13.5 29.8438 12.0938C29.5195 12.0938 28.8633 12.7188 27.7812 12.7188C27.0234 12.5039 25.0898 11.5312 24.875 11.5312L24.4375 10.5625C25.8438 11.4258 27.1523 12.0938 28.125 12.0938C29.0977 12.0938 29.9375 11.3125 29.9375 11.3125C29.0742 8.17578 29.0781 8.39453 23.7812 7.3125V8.1875C23.5625 7.86328 21.0859 7.10938 17.8438 7H17.0938ZM27.5625 8.625C28.3203 8.625 28.9688 9.27344 28.9688 10.0312C28.9688 10.7891 28.3203 11.4375 27.5625 11.4375C26.8047 11.4375 26.1562 10.7891 26.1562 10.0312C26.1562 9.27344 26.6992 8.625 27.5625 8.625ZM27.5625 9.3125C27.0234 9.3125 26.5938 9.74219 26.5938 10.2812C26.5938 10.8203 27.0234 11.25 27.5625 11.25C28.1016 11.25 28.5312 10.8203 28.5312 10.2812C28.5312 9.74219 28.1016 9.3125 27.5625 9.3125ZM27.7812 9.71875C27.9961 9.71875 28.2188 9.84766 28.2188 10.0625C28.1094 10.2773 27.9961 10.375 27.7812 10.375C27.5664 10.375 27.3438 10.2773 27.3438 10.0625C27.3438 9.95312 27.5664 9.71875 27.7812 9.71875ZM3.65625 18.9375C2.79297 18.9375 2.03125 19.6992 2.03125 20.5625V21C2.03125 21.8633 2.66797 22.4062 3.53125 22.4062H5.15625C5.37109 22.4062 5.59375 22.5195 5.59375 22.8438V23.2812C5.59375 23.4961 5.37109 23.6875 5.15625 23.6875H2.125V24.4688C2.125 24.793 2.36328 25 2.6875 25H5.375C6.23828 25 7 24.2383 7 23.375V22.7188C7 21.8555 6.47266 21.4375 5.5 21.4375H3.96875C3.64453 21.4375 3.53125 21.3086 3.53125 21.0938V20.7812C3.53125 20.5664 3.76953 20.3438 4.09375 20.3438H6.6875V19.5C6.6875 19.1758 6.46484 18.9375 6.25 18.9375H3.65625ZM16.1562 18.9375C15.293 18.9375 14.5312 19.6992 14.5312 20.5625V21C14.5312 21.8633 15.1992 22.4062 16.0625 22.4062H17.6875C17.9023 22.4062 18.0938 22.5195 18.0938 22.8438V23.2812C18.0938 23.4961 17.9023 23.6875 17.6875 23.6875H14.5312V24.4688C14.5312 24.793 14.7695 25 15.0938 25H17.7812C18.6445 25 19.4062 24.2383 19.4062 23.375V22.7188C19.4062 21.8555 18.8789 21.4375 17.9062 21.4375H16.2812C15.957 21.4375 15.8438 21.3086 15.8438 21.0938V20.7812C15.8438 20.5664 16.0508 20.3438 16.375 20.3438H19.0938V19.5C19.0938 19.1758 18.8555 18.9375 18.5312 18.9375H16.1562ZM22.2188 19.0625C21.3555 19.0625 20.5938 19.8242 20.5938 20.6875V23.375C20.5938 24.2383 21.3555 25 22.2188 25H24.5C24.8242 25 25.0312 24.793 25.0312 24.4688V23.6875H22.4375C22.1133 23.6875 22 23.4961 22 23.2812V22.5H25.125C25.5586 22.5 26 22.1836 26 21.75V20.6875C26 19.8242 25.2383 19.0625 24.375 19.0625H22.2188ZM22.4375 20.25H24.0625C24.2773 20.25 24.5 20.4727 24.5 20.6875V21.3125H21.9062C22.0156 21.3125 22 20.6875 22 20.6875C22 20.4727 22.2227 20.25 22.4375 20.25ZM12.4375 20.4688V20.5625C12.1133 20.5625 11.9062 20.7695 11.9062 21.0938V23.2812C11.9062 23.6055 11.668 23.8125 11.3438 23.8125H9.9375C9.61328 23.8125 9.40625 23.6055 9.40625 23.2812V21.0938C9.40625 20.7695 9.07422 20.5625 8.75 20.5625H8.53125C8.20703 20.5625 8 20.7695 8 21.0938V23.375C8 24.457 8.65625 25 9.84375 25H10.0625C10.6016 25 11.0352 24.7773 11.4688 24.5625C11.6836 24.4531 11.7969 24.3438 11.9062 24.3438C11.9062 24.3438 11.9844 24.3594 12.0938 24.4688L12.4375 24.9062H12.875C13.1992 24.9062 13.4062 24.5625 13.4062 24.3438V21C13.4062 20.6758 13.0742 20.4688 12.75 20.4688H12.4375Z" fill="black"/>
</g>
</svg>
