<svg width="32" height="32" viewBox="0 0 32 32" fill="none" xmlns="http://www.w3.org/2000/svg">
<g id="swatchbook-solid">
<path id="Vector" d="M5 5V23C5 25.206 6.794 27 9 27C11.206 27 13 25.206 13 23V5H5ZM7 7H11V11H7V7ZM18.9004 7.44336L14.502 11.8438V14.6699L18.8984 10.2715L21.7285 13.0996L14.5 20.3281V23C14.5 23.056 14.4932 23.1081 14.4922 23.1641L24.5566 13.1016L18.9004 7.44336ZM7 13H11V17H7V13ZM7 19H11V23C11 24.103 10.103 25 9 25C7.897 25 7 24.103 7 23V19ZM20.7773 19L18.7773 21H25V25H14.7773L12.8887 26.8887C12.8467 26.9307 12.7969 26.96 12.7539 27H27V19H20.7773Z" fill="black"/>
</g>
</svg>
