<svg width="32" height="32" viewBox="0 0 32 32" fill="none" xmlns="http://www.w3.org/2000/svg">
<g id="swift">
<path id="Vector" d="M8.9375 5C6.77344 5 5 6.77344 5 8.9375V23.0625C5 25.2266 6.77344 27 8.9375 27H23.0625C25.2266 27 27 25.2266 27 23.0625V8.9375C27 6.77344 25.2266 5 23.0625 5H8.9375ZM8.9375 7H23.0625C24.1445 7 25 7.85547 25 8.9375V23.0625C25 24.1445 24.1445 25 23.0625 25H8.9375C7.85547 25 7 24.1445 7 23.0625V8.9375C7 7.85547 7.85547 7 8.9375 7ZM17.625 9.5C17.625 9.5 20.1289 12.6602 18.8438 16.2188C18.8438 16.2188 14.3359 13.0234 12.0625 10.7188C12.0625 10.7188 14.8906 14.8164 15.9062 15.6562C15.9062 15.6562 14.2109 14.7539 10.2812 11.4062C10.2812 11.4062 14.8164 17.3008 16.9375 18.5312C16.9375 18.5312 13.7109 20.7227 9 17.625C9 17.625 11.4609 22 16.6875 22C19.0352 22 19.7422 20.7812 20.9062 20.7812C22.1172 20.7812 22.8438 22 22.8438 22C23.5508 20.2734 21.7812 18.3125 21.7812 18.3125C21.7812 18.3125 23.7773 13.6836 17.625 9.5Z" fill="black"/>
</g>
</svg>
