<svg width="32" height="32" viewBox="0 0 32 32" fill="none" xmlns="http://www.w3.org/2000/svg">
<g id="swimming-pool-solid">
<path id="Vector" d="M12 4C10.3477 4 9 5.34766 9 7V19.625L10 18.9062L11 19.625V7C11 6.44922 11.4492 6 12 6H13V4H12ZM24 4C22.3477 4 21 5.34766 21 7V8H12V10H21V12H12V14H21V16H12V18H21V19.625L22 18.9062L23 19.625V7C23 6.44922 23.4492 6 24 6H25V4H24ZM10 20.7188L9.375 21.2188C9.375 21.2188 8.37109 22 7.03125 22C5.69141 22 4.625 21.2188 4.625 21.2188L3.375 22.7812C3.375 22.7812 4.91797 24 7.03125 24C8.49219 24 9.42188 23.5156 10 23.1562C10.582 23.5117 11.5586 24 13.0312 24C14.4922 24 15.4219 23.5156 16 23.1562C16.582 23.5117 17.5586 24 19.0312 24C20.4922 24 21.4219 23.5156 22 23.1562C22.582 23.5117 23.5586 24 25.0312 24C27.1445 24 28.625 22.7812 28.625 22.7812L27.375 21.2188C27.375 21.2188 26.3711 22 25.0312 22C23.6914 22 22.625 21.2188 22.625 21.2188L22 20.7188L21.375 21.2188C21.375 21.2188 20.3711 22 19.0312 22C17.6914 22 16.625 21.2188 16.625 21.2188L16 20.7188L15.375 21.2188C15.375 21.2188 14.3711 22 13.0312 22C11.6914 22 10.625 21.2188 10.625 21.2188L10 20.7188ZM10 24.7188L9.375 25.2188C9.375 25.2188 8.37109 26 7.03125 26C5.69141 26 4.625 25.2188 4.625 25.2188L3.375 26.7812C3.375 26.7812 4.91797 28 7.03125 28C8.49219 28 9.42188 27.5156 10 27.1562C10.582 27.5117 11.5586 28 13.0312 28C14.4922 28 15.4219 27.5156 16 27.1562C16.582 27.5117 17.5586 28 19.0312 28C20.4922 28 21.4219 27.5156 22 27.1562C22.582 27.5117 23.5586 28 25.0312 28C27.1445 28 28.625 26.7812 28.625 26.7812L27.375 25.2188C27.375 25.2188 26.3711 26 25.0312 26C23.6914 26 22.625 25.2188 22.625 25.2188L22 24.7188L21.375 25.2188C21.375 25.2188 20.3711 26 19.0312 26C17.6914 26 16.625 25.2188 16.625 25.2188L16 24.7188L15.375 25.2188C15.375 25.2188 14.3711 26 13.0312 26C11.6914 26 10.625 25.2188 10.625 25.2188L10 24.7188Z" fill="black"/>
</g>
</svg>
