<svg width="32" height="32" viewBox="0 0 32 32" fill="none" xmlns="http://www.w3.org/2000/svg">
<g id="symfony">
<path id="Vector" d="M16 3C8.832 3 3 8.832 3 16C3 23.168 8.832 29 16 29C23.168 29 29 23.168 29 16C29 8.832 23.168 3 16 3ZM16 5C22.065 5 27 9.935 27 16C27 22.065 22.065 27 16 27C9.935 27 5 22.065 5 16C5 9.935 9.935 5 16 5ZM20.2715 10.0762C20.1985 10.0782 17.7582 9.94163 16.3262 14.1406C15.9382 13.8216 14.1004 11.6305 12.0664 13.1465C11.3364 13.6925 10.8542 14.9938 11.9512 16.2168C12.6042 16.9158 12.9806 17.193 12.8086 17.752C12.4556 18.9 10.6677 18.3737 10.8438 17.8047C10.8958 17.6347 10.9789 17.6318 11.0859 17.3008C11.3839 16.3248 10.041 15.8473 9.75195 16.7773C9.58595 17.3193 9.84347 18.2986 11.2305 18.7266C12.8545 19.2256 14.2288 18.3405 14.4238 17.1875C14.5478 16.4655 14.221 15.9293 13.623 15.2383L13.1367 14.6992C12.8417 14.4022 12.7399 13.9006 13.0449 13.5156C13.3019 13.1896 13.6685 13.0518 14.2695 13.2148C15.1465 13.4528 15.5375 14.0617 16.1895 14.5527C16.1425 14.7067 15.8043 15.7979 15.4883 17.7109C15.0223 20.1569 14.6652 21.4995 13.7402 22.2695C13.5542 22.4045 13.2877 22.6032 12.8867 22.6172C12.8117 22.6202 12.3426 22.5088 12.8086 22.1348C13.3956 21.8138 13.0774 20.7952 12.2344 20.8242C11.8544 20.8362 11.2768 21.1927 11.2988 21.8477C11.3208 22.5237 11.9504 23.031 12.9004 22.998C13.4084 22.981 14.5412 22.7753 15.6582 21.4473C17.1932 19.6473 17.4854 17.5098 17.9004 15.2168C19.8914 15.4528 20.8766 14.5298 20.8906 13.8418C20.9116 12.9058 19.8102 12.9387 19.6562 13.6387C19.5823 13.9787 20.1749 14.285 19.7129 14.584C19.3859 14.796 18.7987 14.9452 17.9727 14.8242C18.3697 12.6342 18.7092 10.4875 20.2422 10.4375C20.3472 10.4315 20.7293 10.4433 20.7383 10.6953C20.7433 10.9033 20.4763 11.0679 20.4863 11.4219C20.5013 11.8239 20.806 12.0863 21.248 12.0703C21.839 12.0493 22.008 11.4757 21.998 11.1797C21.973 10.4837 21.2405 10.0452 20.2715 10.0762Z" fill="black"/>
</g>
</svg>
