<svg width="32" height="32" viewBox="0 0 32 32" fill="none" xmlns="http://www.w3.org/2000/svg">
<g id="synagogue-solid">
<path id="Vector" d="M16 4.65625L15.3438 5.25L7.625 12H4V27H14V23C14 21.8828 14.8828 21 16 21C17.1172 21 18 21.8828 18 23V27H28V12H24.375L16.6562 5.25L16 4.65625ZM6 7C5.41797 7.875 4 8.00781 4 9.65625C4 10.582 4.65625 11 4.65625 11H7.34375C7.34375 11 8 10.582 8 9.65625C8 7.92188 6.65625 7.84766 6 7ZM26 7C25.418 7.875 24 8.5 24 9.65625C24 10.582 24.6562 11 24.6562 11H27.3438C27.3438 11 28 10.582 28 9.65625C28 8.41406 26.6562 7.84766 26 7ZM16 7.3125L23.3438 13.75L23.625 14H26V25H20V23C20 20.8008 18.1992 19 16 19C13.8008 19 12 20.8008 12 23V25H6V14H8.375L8.65625 13.75L16 7.3125ZM16 11.4688L15.125 12.9688H13.4062L14.25 14.4688L13.4062 15.9688H15.125L16 17.5L16.875 15.9688H18.5938L17.75 14.4688L18.5938 12.9688H16.875L16 11.4688Z" fill="black"/>
</g>
</svg>
