<svg width="32" height="32" viewBox="0 0 32 32" fill="none" xmlns="http://www.w3.org/2000/svg">
<g id="syringe-solid">
<path id="Vector" d="M23.2188 3.78125L21.7812 5.21875L22.1562 5.59375L19.875 7.875L21.2812 9.3125L23.5625 7L25 8.4375L22.6875 10.7188L24.125 12.125L26.4062 9.84375L26.7812 10.2188L28.2188 8.78125L23.2188 3.78125ZM17.7188 7.28125L16.2812 8.71875L16.9375 9.375L7 19.3438L6.65625 19.6875L6.71875 20.1562L7.0625 23.3438L7.09375 23.6875L7.1875 23.75L3.9375 27H6.78125L8.8125 24.9688L11.8438 25.2812L12.3125 25.3438L12.6562 25L22.625 15.0625L23.2812 15.7188L24.7188 14.2812L17.7188 7.28125ZM18.375 10.8125L21.1875 13.625L11.5938 23.25L9.21875 22.9688L9.03125 22.7812L8.75 20.4062L18.375 10.8125Z" fill="black"/>
</g>
</svg>
