<svg width="32" height="32" viewBox="0 0 32 32" fill="none" xmlns="http://www.w3.org/2000/svg">
<g id="tablets-solid">
<path id="Vector" d="M22 3C18.14 3 15 6.141 15 10C15 13.859 18.14 17 22 17C25.86 17 29 13.859 29 10C29 6.141 25.86 3 22 3ZM22 5C24.757 5 27 7.243 27 10C27 11.0174 26.69 11.9615 26.166 12.752L19.248 5.83398C20.0385 5.31002 20.9826 5 22 5ZM17.834 7.24805L24.752 14.168C23.9616 14.6916 23.017 15 22 15C19.243 15 17 12.757 17 10C17 8.98264 17.31 8.03855 17.834 7.24805ZM10 14C6.14 14 3 17.141 3 21C3 24.859 6.14 28 10 28C13.86 28 17 24.859 17 21C17 17.141 13.86 14 10 14ZM10 16C12.4144 16 14.4336 17.7209 14.8984 20H5.10156C5.5664 17.7209 7.58564 16 10 16ZM5.10156 22H14.8984C14.4336 24.2791 12.4144 26 10 26C7.58564 26 5.5664 24.2791 5.10156 22Z" fill="black"/>
</g>
</svg>
