<svg width="32" height="32" viewBox="0 0 32 32" fill="none" xmlns="http://www.w3.org/2000/svg">
<g id="table-tennis-solid">
<path id="Vector" d="M7 4C5.35547 4 4 5.35547 4 7C4 8.64453 5.35547 10 7 10C8.64453 10 10 8.64453 10 7C10 5.35547 8.64453 4 7 4ZM18.9375 4.90625C18.625 4.91016 18.3086 4.93359 18 4.96875C15.5312 5.25781 13.2266 6.52344 11.4688 8.28125C10.2344 9.51172 9.21094 11.2812 8.875 14.5625C8.86328 14.5938 8.85156 14.625 8.84375 14.6562C8.84375 14.668 8.84375 14.6758 8.84375 14.6875C8.82031 14.7383 8.79688 14.7891 8.78125 14.8438C8.77734 14.8672 8.78516 14.8789 8.78125 14.9062C8.78125 14.9375 8.78125 14.9688 8.78125 15C8.78125 15.0117 8.78125 15.0195 8.78125 15.0312C8.78516 15.0938 8.79688 15.1562 8.8125 15.2188C8.82812 15.2812 8.84766 15.3477 8.875 15.4062C8.92578 16.3047 9.05078 17.2227 9.375 18.0938H9.34375C9.35938 18.1797 9.46094 18.6094 9.46875 19.0312C9.47266 19.3477 9.35938 19.6367 9.34375 19.7188C8.73438 20.3242 8.00391 20.957 7.3125 21.5C6.62109 22.043 6.02344 22.5117 5.59375 22.9375H5.5625C5.03125 23.4805 4.81641 24.3086 4.96875 25C5.12109 25.6992 5.52344 26.3047 6.0625 26.8438C6.59766 27.3789 7.20703 27.7773 7.90625 27.9375C8.60547 28.0977 9.45312 27.8906 10 27.3438C10.4375 26.9062 10.8594 26.2891 11.4062 25.5938C11.9531 24.8984 12.5742 24.1445 13.1875 23.5312C13.1172 23.6016 13.4219 23.4375 13.8125 23.4375C14.1289 23.4375 14.3906 23.4688 14.5938 23.5C14.6445 23.5078 14.75 23.5273 14.7812 23.5312C15.6523 23.8555 16.5703 23.9766 17.4688 24.0312C17.4805 24.0312 17.4883 24.0625 17.5 24.0625C17.5703 24.082 17.6445 24.0898 17.7188 24.0938C17.75 24.1055 17.7812 24.1172 17.8125 24.125C17.8438 24.125 17.875 24.125 17.9062 24.125C17.9258 24.125 17.9492 24.125 17.9688 24.125C17.9805 24.125 17.9883 24.125 18 24.125C18.0625 24.1211 18.125 24.1094 18.1875 24.0938C18.2266 24.0898 18.2422 24.0664 18.2812 24.0625C18.293 24.0625 18.3008 24.0625 18.3125 24.0625C21.3242 23.8125 23.3438 22.7227 24.625 21.4375C26.3828 19.6797 27.6484 17.375 27.9375 14.9062C28.2266 12.4375 27.457 9.80078 25.2812 7.625C23.3789 5.72266 21.125 4.89062 18.9375 4.90625ZM7 6C7.5625 6 8 6.4375 8 7C8 7.5625 7.5625 8 7 8C6.4375 8 6 7.5625 6 7C6 6.4375 6.4375 6 7 6ZM18.9375 6.90625C20.625 6.875 22.3164 7.47266 23.875 9.03125C25.6602 10.8125 26.1641 12.7617 25.9375 14.6875C25.7109 16.6133 24.6992 18.5508 23.2188 20.0312C22.2227 21.0273 20.7773 21.8047 18.25 22.0312L10.875 14.6562C11.168 11.8359 11.8633 10.7617 12.9062 9.71875C14.3867 8.23828 16.2891 7.19531 18.2188 6.96875C18.4609 6.94141 18.6953 6.91016 18.9375 6.90625ZM11.3438 18L14.9062 21.5312C14.6406 21.4883 14.3086 21.4375 13.8125 21.4375C13.2031 21.4414 12.4297 21.4766 11.7812 22.125C11.0625 22.8438 10.4023 23.6328 9.84375 24.3438C9.28516 25.0547 8.78906 25.7109 8.5625 25.9375C8.44531 26.0547 8.50391 26.0352 8.34375 26C8.18359 25.9648 7.85938 25.7656 7.5 25.4062C7.14844 25.0547 6.97266 24.7305 6.9375 24.5625C6.90234 24.3945 6.86719 24.4414 6.96875 24.3438C7.17969 24.1328 7.81641 23.625 8.53125 23.0625C9.24609 22.5 10.0625 21.8438 10.7812 21.125C11.4727 20.4336 11.4805 19.6328 11.4688 19C11.4609 18.5195 11.3867 18.2383 11.3438 18Z" fill="black"/>
</g>
</svg>
