<svg width="32" height="32" viewBox="0 0 32 32" fill="none" xmlns="http://www.w3.org/2000/svg">
<g id="tape-solid">
<path id="Vector" d="M12 5C5.935 5 1 9.935 1 16C1 22.065 5.935 27 12 27H31V25H18.3047C21.1394 23.0082 23 19.7196 23 16C23 9.935 18.065 5 12 5ZM12 7C16.962 7 21 11.037 21 16C21 20.963 16.962 25 12 25C7.038 25 3 20.963 3 16C3 11.037 7.038 7 12 7ZM12 12C9.794 12 8 13.794 8 16C8 18.206 9.794 20 12 20C14.206 20 16 18.206 16 16C16 13.794 14.206 12 12 12ZM12 14C13.103 14 14 14.897 14 16C14 17.103 13.103 18 12 18C10.897 18 10 17.103 10 16C10 14.897 10.897 14 12 14Z" fill="black"/>
</g>
</svg>
