<svg width="32" height="32" viewBox="0 0 32 32" fill="none" xmlns="http://www.w3.org/2000/svg">
<g id="taxi-solid">
<path id="Vector" d="M13 4L12.3438 6H9.5C8.17969 6 7.00391 6.85938 6.625 8.125L5.25 12.7188L3.3125 12.0625L2.6875 13.9375L4.65625 14.5938L4.03125 16.7188C4.00781 16.8086 3.99609 16.9062 4 17V24C4 24.0312 4 24.0625 4 24.0938V25C4 25.5508 4.44922 26 5 26H8L8.34375 25H23.6562L24 26H27C27.5508 26 28 25.5508 28 25V24.1562C28.0039 24.1055 28.0039 24.0508 28 24V17C28.0039 16.9062 27.9922 16.8086 27.9688 16.7188L27.3438 14.5938L29.3125 13.9375L28.6875 12.0625L26.75 12.7188L25.375 8.125C24.9961 6.85938 23.8203 6 22.5 6H19.6562L19 4H13ZM9.5 8H22.5C22.9453 8 23.3398 8.29297 23.4688 8.71875L24.75 13H7.25L8.53125 8.71875C8.66016 8.28906 9.05469 8 9.5 8ZM6.65625 15H25.3438L26 17.1875V23H6V17.1875L6.65625 15ZM8.5 16C7.67188 16 7 16.6719 7 17.5C7 18.3281 7.67188 19 8.5 19C9.32812 19 10 18.3281 10 17.5C10 16.6719 9.32812 16 8.5 16ZM23.5 16C22.6719 16 22 16.6719 22 17.5C22 18.3281 22.6719 19 23.5 19C24.3281 19 25 18.3281 25 17.5C25 16.6719 24.3281 16 23.5 16ZM12 19L10.75 22H12.9062L13.3438 21H18.6562L19.0938 22H21.25L20 19H12Z" fill="black"/>
</g>
</svg>
