<svg width="32" height="32" viewBox="0 0 32 32" fill="none" xmlns="http://www.w3.org/2000/svg">
<g id="teamspeak">
<path id="Vector" d="M16.375 3.99792C15.0781 3.9744 13.7266 4.178 12.3203 4.60925C10.4403 5.18925 8.8493 6.27941 7.5293 7.76941C7.3493 7.97941 7.22062 8.19909 7.39062 8.44909C7.53063 8.63909 7.44961 8.7405 7.34961 8.8905C6.41961 10.1905 5.79 11.6193 5.5 13.1893C5.47 13.3893 5.36922 13.4707 5.19922 13.5507C4.53922 13.8807 4.14906 14.4203 4.03906 15.1503L4 16.3905V17.6893C4 19.1293 4.97969 20.0501 6.42969 19.9901C6.78969 19.9701 7 19.7791 7 19.4491V15.0721C7 15.0471 7.04716 13.8073 7.16016 13.2303C7.39416 12.0543 7.80947 11.0735 8.35547 10.2675C9.94247 7.70945 12.768 5.99987 16 5.99987C20.971 5.99987 25 10.0289 25 14.9999V19.2889C25 19.6189 25.0799 19.8808 25.4199 19.9608C26.5499 20.1908 27.7299 19.4001 27.9199 18.2401C28.0499 17.4401 27.9609 16.3001 27.9609 15.4901C27.9509 14.6101 27.5602 13.9294 26.7402 13.5194C26.6102 13.4594 26.5107 13.3906 26.4707 13.2206C26.1807 11.6306 25.5403 10.13 24.5703 8.82995C24.5203 8.75995 24.4107 8.67948 24.4707 8.59948C24.8707 8.05948 24.4606 7.74909 24.1406 7.44909C21.8169 5.20097 19.2281 4.04967 16.375 3.99792ZM10.3594 16.0018C9.72956 15.9613 9.22108 16.3718 9.08008 17.0956C8.86608 18.1366 9.0795 19.1341 9.6875 20.0311C10.1075 20.6401 10.7529 20.9293 11.5039 20.9803C11.9869 21.0053 13.7039 21.0722 14.0879 20.9452C14.5889 20.7672 14.9282 20.4713 15.0352 19.9803C15.1332 19.4903 14.5258 18.7878 13.6758 18.0428C12.7998 17.2808 11.6545 16.4931 11.0195 16.1971C10.7915 16.0786 10.5693 16.0153 10.3594 16.0018ZM21.9824 18.0077C21.0465 17.9215 19.7159 18.5382 19.1152 18.787C15.8822 20.086 17.1287 21.3352 18.1367 21.6132L20.418 21.9706C22.029 22.0986 23.036 20.6402 22.998 19.1522C22.9628 18.3636 22.544 18.0594 21.9824 18.0077ZM24.2969 21.0018C24.2361 21.007 24.1783 21.0343 24.1348 21.0858C24.1148 21.1168 24.1057 21.1478 24.0957 21.1678C23.7267 22.3988 22.0567 26.5845 16.2617 27.0155C9.44872 27.5175 19.9128 29.1079 22.8828 26.7069C23.9118 25.8649 25.047 25.0244 24.998 22.6034C24.979 22.1104 24.7756 21.3206 24.4746 21.0546C24.4211 21.0136 24.3576 20.9967 24.2969 21.0018Z" fill="black"/>
</g>
</svg>
