<svg width="32" height="32" viewBox="0 0 32 32" fill="none" xmlns="http://www.w3.org/2000/svg">
<g id="teeth-solid">
<path id="Vector" d="M10 5C5.038 5 1 9.037 1 14V15C1 15.77 1.30197 16.4674 1.7832 17C1.30197 17.5326 1 18.23 1 19V20C1 23.859 4.14 27 8 27H24C27.86 27 31 23.859 31 20V19C31 18.23 30.698 17.5326 30.2168 17C30.698 16.4674 31 15.77 31 15V14C31 9.037 26.962 5 22 5H10ZM10 7H22C24.7987 7 27.2128 8.65424 28.332 11.0332C28.2217 11.0208 28.1135 11 28 11C27.39 11 26.8294 11.1802 26.3594 11.4902C25.7294 10.5902 24.68 10 23.5 10C22.74 10 22.0407 10.2502 21.4707 10.6602C20.8507 9.67016 19.75 9 18.5 9C17.52 9 16.64 9.41055 16 10.0605C15.36 9.41055 14.48 9 13.5 9C12.25 9 11.1493 9.67016 10.5293 10.6602C9.9593 10.2502 9.26 10 8.5 10C7.32 10 6.27063 10.5902 5.64062 11.4902C5.17063 11.1802 4.61 11 4 11C3.88653 11 3.77826 11.0208 3.66797 11.0332C4.78723 8.65424 7.20125 7 10 7ZM13.5 11C14.33 11 15 11.67 15 12.5V15C15 15.55 14.55 16 14 16H13C12.45 16 12 15.55 12 15V12.5C12 11.67 12.67 11 13.5 11ZM18.5 11C19.33 11 20 11.67 20 12.5V15C20 15.55 19.55 16 19 16H18C17.45 16 17 15.55 17 15V12.5C17 11.67 17.67 11 18.5 11ZM8.5 12C9.33 12 10 12.67 10 13.5V15C10 15.55 9.55 16 9 16H8C7.45 16 7 15.55 7 15V13.5C7 12.67 7.67 12 8.5 12ZM23.5 12C24.33 12 25 12.67 25 13.5V15C25 15.55 24.55 16 24 16H23C22.45 16 22 15.55 22 15V13.5C22 12.67 22.67 12 23.5 12ZM4 13C4.55 13 5 13.45 5 14V15C5 15.55 4.55 16 4 16C3.45 16 3 15.55 3 15V14C3 13.45 3.45 13 4 13ZM28 13C28.55 13 29 13.45 29 14V15C29 15.55 28.55 16 28 16C27.45 16 27 15.55 27 15V14C27 13.45 27.45 13 28 13ZM4 18C4.55 18 5 18.45 5 19C5 19.55 4.55 20 4 20C3.45 20 3 19.55 3 19C3 18.45 3.45 18 4 18ZM8 18H9C9.55 18 10 18.45 10 19V20C10 20.55 9.55 21 9 21C7.9 21 7 20.1 7 19C7 18.45 7.45 18 8 18ZM13 18H14C14.55 18 15 18.45 15 19V20C15 20.55 14.55 21 14 21H13C12.45 21 12 20.55 12 20V19C12 18.45 12.45 18 13 18ZM18 18H19C19.55 18 20 18.45 20 19V20C20 20.55 19.55 21 19 21H18C17.45 21 17 20.55 17 20V19C17 18.45 17.45 18 18 18ZM23 18H24C24.55 18 25 18.45 25 19C25 20.1 24.1 21 23 21C22.45 21 22 20.55 22 20V19C22 18.45 22.45 18 23 18ZM28 18C28.55 18 29 18.45 29 19C29 19.55 28.55 20 28 20C27.45 20 27 19.55 27 19C27 18.45 27.45 18 28 18ZM5.80078 21.3809C6.54078 22.3609 7.69 23 9 23C9.77 23 10.47 22.7007 11 22.2207C11.53 22.7007 12.23 23 13 23H14C14.77 23 15.47 22.7007 16 22.2207C16.53 22.7007 17.23 23 18 23H19C19.77 23 20.47 22.7007 21 22.2207C21.53 22.7007 22.23 23 23 23C24.31 23 25.4592 22.3609 26.1992 21.3809C26.6992 21.7709 27.32 22 28 22C28.2084 22 28.4126 21.9785 28.6094 21.9375C27.851 23.7353 26.0706 25 24 25H8C5.92943 25 4.14896 23.7353 3.39062 21.9375C3.58735 21.9785 3.79158 22 4 22C4.68 22 5.30078 21.7709 5.80078 21.3809Z" fill="black"/>
</g>
</svg>
