<svg width="32" height="32" viewBox="0 0 32 32" fill="none" xmlns="http://www.w3.org/2000/svg">
<g id="teeth-open-solid">
<path id="Vector" d="M10 3C5.037 3 1 7.037 1 12V13C1 14.65 2.35 16 4 16C4.77 16 5.47 15.7007 6 15.2207C6.53 15.7007 7.23 16 8 16H9C9.77 16 10.47 15.7007 11 15.2207C11.53 15.7007 12.23 16 13 16H14C14.77 16 15.47 15.7007 16 15.2207C16.53 15.7007 17.23 16 18 16H19C19.77 16 20.47 15.7007 21 15.2207C21.53 15.7007 22.23 16 23 16H24C24.77 16 25.47 15.7007 26 15.2207C26.53 15.7007 27.23 16 28 16C29.65 16 31 14.65 31 13V12C31 7.037 26.963 3 22 3H10ZM10 5H22C24.798 5 27.2125 6.65424 28.332 9.0332C28.2217 9.02078 28.1135 9 28 9C27.39 9 26.8294 9.18023 26.3594 9.49023C25.7294 8.59023 24.68 8 23.5 8C22.74 8 22.0407 8.25016 21.4707 8.66016C20.8507 7.67016 19.75 7 18.5 7C17.52 7 16.64 7.41055 16 8.06055C15.36 7.41055 14.48 7 13.5 7C12.25 7 11.1493 7.67016 10.5293 8.66016C9.9593 8.25016 9.26 8 8.5 8C7.32 8 6.27063 8.59023 5.64062 9.49023C5.17063 9.18023 4.61 9 4 9C3.88653 9 3.77826 9.02078 3.66797 9.0332C4.78746 6.65424 7.20198 5 10 5ZM13.5 9C14.33 9 15 9.67 15 10.5V13C15 13.55 14.55 14 14 14H13C12.45 14 12 13.55 12 13V10.5C12 9.67 12.67 9 13.5 9ZM18.5 9C19.33 9 20 9.67 20 10.5V13C20 13.55 19.55 14 19 14H18C17.45 14 17 13.55 17 13V10.5C17 9.67 17.67 9 18.5 9ZM8.5 10C9.33 10 10 10.67 10 11.5V13C10 13.55 9.55 14 9 14H8C7.45 14 7 13.55 7 13V11.5C7 10.67 7.67 10 8.5 10ZM23.5 10C24.33 10 25 10.67 25 11.5V13C25 13.55 24.55 14 24 14H23C22.45 14 22 13.55 22 13V11.5C22 10.67 22.67 10 23.5 10ZM4 11C4.55 11 5 11.45 5 12V13C5 13.55 4.55 14 4 14C3.45 14 3 13.55 3 13V12C3 11.45 3.45 11 4 11ZM28 11C28.55 11 29 11.45 29 12V13C29 13.55 28.55 14 28 14C27.45 14 27 13.55 27 13V12C27 11.45 27.45 11 28 11ZM4 18C2.35 18 1 19.35 1 21V22C1 25.859 4.141 29 8 29H24C27.859 29 31 25.859 31 22V21C31 19.35 29.65 18 28 18C27.23 18 26.53 18.2993 26 18.7793C25.47 18.2993 24.77 18 24 18H23C22.23 18 21.53 18.2993 21 18.7793C20.47 18.2993 19.77 18 19 18H18C17.23 18 16.53 18.2993 16 18.7793C15.47 18.2993 14.77 18 14 18H13C12.23 18 11.53 18.2993 11 18.7793C10.47 18.2993 9.77 18 9 18H8C7.23 18 6.53 18.2993 6 18.7793C5.47 18.2993 4.77 18 4 18ZM4 20C4.55 20 5 20.45 5 21C5 21.55 4.55 22 4 22C3.45 22 3 21.55 3 21C3 20.45 3.45 20 4 20ZM8 20H9C9.55 20 10 20.45 10 21V22C10 22.55 9.55 23 9 23C7.9 23 7 22.1 7 21C7 20.45 7.45 20 8 20ZM13 20H14C14.55 20 15 20.45 15 21V22C15 22.55 14.55 23 14 23H13C12.45 23 12 22.55 12 22V21C12 20.45 12.45 20 13 20ZM18 20H19C19.55 20 20 20.45 20 21V22C20 22.55 19.55 23 19 23H18C17.45 23 17 22.55 17 22V21C17 20.45 17.45 20 18 20ZM23 20H24C24.55 20 25 20.45 25 21C25 22.1 24.1 23 23 23C22.45 23 22 22.55 22 22V21C22 20.45 22.45 20 23 20ZM28 20C28.55 20 29 20.45 29 21C29 21.55 28.55 22 28 22C27.45 22 27 21.55 27 21C27 20.45 27.45 20 28 20ZM5.80078 23.3809C6.54078 24.3609 7.69 25 9 25C9.77 25 10.47 24.7007 11 24.2207C11.53 24.7007 12.23 25 13 25H14C14.77 25 15.47 24.7007 16 24.2207C16.53 24.7007 17.23 25 18 25H19C19.77 25 20.47 24.7007 21 24.2207C21.53 24.7007 22.23 25 23 25C24.31 25 25.4592 24.3609 26.1992 23.3809C26.6992 23.7709 27.32 24 28 24C28.2084 24 28.4126 23.9785 28.6094 23.9375C27.851 25.7353 26.0706 27 24 27H8C5.92943 27 4.14896 25.7353 3.39062 23.9375C3.58735 23.9785 3.79158 24 4 24C4.68 24 5.30078 23.7709 5.80078 23.3809Z" fill="black"/>
</g>
</svg>
