<svg width="32" height="32" viewBox="0 0 32 32" fill="none" xmlns="http://www.w3.org/2000/svg">
<g id="telegram-plane">
<path id="Vector" d="M26.0703 3.99632C25.7344 4.01194 25.418 4.1096 25.1367 4.21897H25.1328C24.8477 4.33225 23.4922 4.90257 21.4336 5.76585C19.375 6.63303 16.7031 7.75803 14.0508 8.87522C8.75391 11.1057 3.54688 13.301 3.54688 13.301L3.60938 13.2776C3.60938 13.2776 3.25 13.3948 2.875 13.6526C2.6836 13.7776 2.47266 13.9494 2.28906 14.219C2.10547 14.4885 1.95703 14.9026 2.01172 15.3283C2.10156 16.051 2.57031 16.4846 2.90625 16.7229C3.2461 16.9651 3.57031 17.0783 3.57031 17.0783H3.57813L8.46094 18.7229C8.67969 19.426 9.94922 23.5979 10.2539 24.5588C10.4336 25.133 10.6094 25.4924 10.8281 25.7658C10.9336 25.9065 11.0586 26.0237 11.207 26.1174C11.2656 26.1526 11.3281 26.1799 11.3906 26.2033C11.4102 26.2151 11.4297 26.219 11.4531 26.2229L11.4023 26.2112C11.418 26.2151 11.4297 26.2268 11.4414 26.2307C11.4805 26.2424 11.5078 26.2463 11.5586 26.2541C12.332 26.4885 12.9531 26.008 12.9531 26.008L12.9883 25.9807L15.8711 23.3557L20.7031 27.0627L20.8125 27.1096C21.8203 27.551 22.8398 27.3049 23.3789 26.8713C23.9219 26.4338 24.1328 25.8752 24.1328 25.8752L24.168 25.7854L27.9023 6.65647C28.0078 6.18382 28.0352 5.74241 27.918 5.31272C27.8008 4.88303 27.5 4.48069 27.1367 4.26585C26.7695 4.0471 26.4063 3.98069 26.0703 3.99632ZM25.9688 6.0471C25.9648 6.1096 25.9766 6.10178 25.9492 6.22288V6.2346L22.25 25.1643C22.2344 25.1916 22.207 25.2502 22.1328 25.3088C22.0547 25.3713 21.9922 25.4104 21.668 25.2815L15.7578 20.7502L12.1875 24.0041L12.9375 19.2151C12.9375 19.2151 22.1953 10.5862 22.5938 10.2151C22.9922 9.84397 22.8594 9.76585 22.8594 9.76585C22.8867 9.31272 22.2578 9.63303 22.2578 9.63303L10.082 17.176L10.0781 17.1565L4.24219 15.1916V15.1877C4.23828 15.1877 4.23047 15.1838 4.22656 15.1838C4.23047 15.1838 4.25781 15.1721 4.25781 15.1721L4.28906 15.1565L4.32031 15.1448C4.32031 15.1448 9.53125 12.9494 14.8281 10.719C17.4805 9.60178 20.1523 8.47678 22.207 7.6096C24.2617 6.74632 25.7813 6.1135 25.8672 6.07835C25.9492 6.0471 25.9102 6.0471 25.9688 6.0471Z" fill="black"/>
</g>
</svg>
