<svg width="32" height="32" viewBox="0 0 32 32" fill="none" xmlns="http://www.w3.org/2000/svg">
<g id="temperature-low-solid">
<path id="Vector" d="M9 4V15.4688C7.25 16.7378 6 18.676 6 21C6 24.855 9.145 28 13 28C16.855 28 20 24.855 20 21C20 18.676 18.75 16.7378 17 15.4688V14H19V12H17V10H19V8H17V6H19V4H9ZM24.5 4C22.57 4 21 5.57 21 7.5C21 9.43 22.57 11 24.5 11C26.43 11 28 9.43 28 7.5C28 5.57 26.43 4 24.5 4ZM11 6H15V16.4062L15.5 16.6875C16.996 17.5555 18 19.148 18 21C18 23.773 15.773 26 13 26C10.227 26 8 23.773 8 21C8 19.148 9.004 17.5555 10.5 16.6875L11 16.4062V6ZM24.5 6C25.327 6 26 6.673 26 7.5C26 8.327 25.327 9 24.5 9C23.673 9 23 8.327 23 7.5C23 6.673 23.673 6 24.5 6ZM12 16V18.1875C10.84 18.6015 10 19.701 10 21.002C10 22.658 11.344 24.002 13 24.002C14.656 24.002 16 22.658 16 21.002C16 19.701 15.16 18.6025 14 18.1875V16H12Z" fill="black"/>
</g>
</svg>
