<svg width="32" height="32" viewBox="0 0 32 32" fill="none" xmlns="http://www.w3.org/2000/svg">
<g id="tencent-weibo">
<path id="Vector" d="M17 2C12.0391 2 8 6.03906 8 11C8 12.5312 8.38281 13.957 9.0625 15.2188C9.45703 14.5039 9.90625 13.832 10.375 13.1875C10.1445 12.4961 10 11.7695 10 11C10 7.14062 13.1406 4 17 4C20.8594 4 24 7.14062 24 11C24 14.8594 20.8594 18 17 18C16.1836 18 15.4141 17.8516 14.6875 17.5938C14.3438 18.1562 14.0273 18.7422 13.75 19.375C14.7617 19.7695 15.8516 20 17 20C21.9609 20 26 15.9609 26 11C26 6.03906 21.9609 2 17 2ZM17 8C15.3438 8 14 9.34375 14 11C14 11.3359 14.0859 11.6367 14.1875 11.9375C8.45703 17.2422 8 25.2109 8 29H10C10 25.3867 10.418 18.2578 15.4062 13.5312C15.8672 13.8242 16.4141 14 17 14C18.6562 14 20 12.6562 20 11C20 9.34375 18.6562 8 17 8Z" fill="black"/>
</g>
</svg>
