<svg width="32" height="32" viewBox="0 0 32 32" fill="none" xmlns="http://www.w3.org/2000/svg">
<g id="tenge-solid">
<path id="Vector" d="M6.63281 5C6.28481 5 6 5.27409 6 5.62109V8.36719C6 8.71519 6.28481 9 6.63281 9H25.3789C25.7259 9 26 8.71519 26 8.36719V5.62109C26 5.27409 25.7259 5 25.3789 5H6.63281ZM6.63281 12C6.28481 12 6 12.2841 6 12.6211V15.3672C6 15.7152 6.28481 16 6.63281 16H14V27.3789C14 27.7259 14.2741 28 14.6211 28H17.3789C17.7259 28 18 27.7259 18 27.3789V16H25.3789C25.7259 16 26 15.7152 26 15.3672V12.6211C26 12.2841 25.7259 12 25.3789 12H6.63281Z" fill="black"/>
</g>
</svg>
