<svg width="32" height="32" viewBox="0 0 32 32" fill="none" xmlns="http://www.w3.org/2000/svg">
<g id="the-red-yeti">
<path id="Vector" d="M12.3457 3C10.8647 4.134 10.7986 4.96381 10.7656 5.13281C10.7236 5.01981 10.4697 4.21419 10.0527 3.86719C9.89773 4.24619 9.88929 4.66873 10.0293 5.05273C10.1703 5.44673 10.3068 5.74745 10.4238 5.93945C9.67382 5.78445 9.09618 5.70945 8.11718 5.93945H7.94335L9.49023 6.60938C8.54323 7.49538 7.79778 8.57253 7.30078 9.76953L7.2207 10.1621L7.30078 10.2422L7.65624 10.0234C7.50124 10.5674 7.40865 10.9324 7.34765 11.2324C6.83765 11.8064 6.39992 12.4401 6.04492 13.1211C5.34192 13.1681 4.55424 13.627 4.15624 13.791L4.29687 13.9492L5.64648 13.9961C5.62348 14.0431 5.61479 14.0995 5.59179 14.1465C5.24979 14.4465 3.72592 15.9137 4.04492 17.9297L4.99023 16.8809C5.01323 16.9609 5.02387 17.038 5.04687 17.123C5.04687 18.318 5.06684 21.3247 8.08984 24.1797C10.1338 26.0547 12.5897 27.002 15.4727 27.002C21.1777 27.002 25.9258 22.9099 25.9258 17.0879C26.2448 16.6329 25.868 17.2282 26.707 15.9102L27.3164 16.5801L27.4336 16.5566C27.3466 16.0096 27.2086 15.4721 27.0176 14.9531C26.9466 14.7291 26.8383 14.5181 26.6973 14.3301H26.6992L27.6699 14.6621C27.2199 13.5421 26.5496 12.9285 26.1836 12.5625L26.5176 11.7109C26.5266 11.7109 27.0944 10.4075 26.4004 10.2715C26.3724 9.74148 26.0901 9.00586 25.5371 9.00586C25.1811 8.50886 24.7086 8.42852 24.0996 8.72852C23.6736 8.93652 23.2741 9.19695 22.9121 9.50195C22.6641 9.20195 22.7715 9.51952 22.7715 8.10352C21.0325 6.96452 20.6436 7.55514 19.2656 8.24414L19.2891 8.26758C18.2561 7.90458 17.175 7.69453 16.082 7.64453C15.824 7.23653 15.2112 6.75075 14.9062 6.46875L16.0684 6.80078C15.8104 6.54278 14.8118 6.19684 14.4648 6.08984C15.3178 5.89784 15.862 5.11497 16.457 4.54297C14.821 4.06997 13.2732 4.2657 11.8672 5.0957L12.4316 3.02344L12.3457 3ZM11.998 3.64648C11.876 4.03548 11.7772 4.43103 11.6992 4.83203L11.6191 5.16602L11.5957 5.38672L11.7129 5.50391C12.7399 4.87091 13.8457 4.59419 15.0547 4.61719L16.0449 4.64062C15.4909 5.27362 14.7395 5.66673 13.7695 5.80273C13.4065 5.86973 13.0418 5.91545 12.6738 5.93945L12.6641 5.91602L12.5469 5.85938C12.3239 5.81238 12.0916 5.84612 11.8906 5.95312C11.7736 5.94412 11.6616 5.93187 11.5586 5.92188L11.4394 6L11.4629 6.05664C11.5569 6.06564 11.6459 6.07984 11.7539 6.08984L11.6602 6.24805L11.8184 6.22461L11.3223 6.75586C11.1253 6.89686 11.069 7.05541 11.125 7.19141L11.3789 7.03125H11.4336C11.7216 6.64925 12.1461 6.39431 12.6191 6.32031V6.17773C12.9191 6.20073 13.2293 6.22537 13.5293 6.23438C13.8293 6.23438 13.9222 6.25606 13.7812 6.28906C14.1182 6.47906 14.4429 6.69183 14.7519 6.92383C15.3849 7.39683 15.8582 7.95003 16.1582 8.58203C16.5712 9.43503 16.791 10.3204 16.791 11.2344C16.789 11.6804 16.7424 12.1255 16.6504 12.5625C16.4854 13.3075 16.2334 14.0317 15.9004 14.7188L16.0176 14.7402C16.8706 13.8172 17.9803 13.9902 18.3223 13.9902L18.0234 14.2676L19.0723 15.0977L18.9922 16.5371C18.7392 15.9601 18.2193 15.5484 17.4453 15.2344C18.2183 15.9284 18.5517 16.2236 18.4727 16.1816C18.2477 16.0506 18.3088 16.0918 17.9668 16.0078C18.1588 16.1998 18.7873 16.8895 18.8203 16.9785L18.8281 16.9863L18.8203 16.9961C18.8203 17.0801 18.8951 16.9394 18.1641 18.0684C14.6391 17.3514 13.1829 16.0665 11.5449 15.1055L12.0977 15.1621C11.5447 14.2951 11.3678 14.3325 10.2988 13.9395L10.7949 13.5449C10.3829 13.4039 9.94274 13.4044 9.46874 13.5684L9.82421 13.0703L9.76757 12.9902C9.06957 13.1922 8.83998 13.4225 8.70898 13.5215C8.65698 13.2635 8.57881 12.9409 8.13281 12.1719L8.08007 13.4395L7.46093 13.2051C7.53093 12.0231 7.71407 10.836 8.08007 9.70703L8.13671 9.62891C8.19271 9.49291 8.33326 9.27202 8.57226 8.91602L8.68945 8.75781L8.08007 9.33203L8.33203 9.11328L7.85937 9.54883L7.6621 9.60547C8.2391 8.47547 8.74554 7.66895 9.18554 7.25195C9.62154 6.81595 9.93581 6.50275 10.1328 6.34375L9.83203 6.39844C9.30303 6.20144 8.92292 6.06686 8.66992 6.00586C8.78692 5.98286 8.84331 5.98242 8.82031 5.98242C9.30331 5.98242 9.64078 6.00411 9.80078 6.03711C10.0428 6.11511 10.2958 6.1543 10.5508 6.1543L10.5723 6.07422L10.1797 4.39648L10.8125 5.75586C10.9445 5.55086 11.0388 5.32394 11.0898 5.08594C11.1698 4.78594 11.3425 4.47773 11.5625 4.17773C11.7825 3.87773 11.918 3.67948 11.998 3.64648ZM13.1582 6.34766C13.0493 6.36141 12.9436 6.40225 12.8516 6.46875C12.2566 6.78275 11.5382 7.44953 11.4922 7.51953C11.4122 7.59953 11.3323 7.79634 11.2383 8.15234C11.1493 8.51434 11.1045 8.88481 11.1035 9.25781C10.8835 8.88281 10.6109 8.95747 10.1699 8.98047L10.5039 9.33789C9.7309 9.33789 9.41048 10.0599 9.39648 10.0879C9.71548 10.0879 9.61273 9.73077 10.8027 9.50977C10.6007 9.21577 10.6473 9.27617 10.5723 9.20117C11.5893 9.98917 11.3469 10.2056 12.7539 10.3086L12.6172 10.0879C13.0112 9.75189 13.2595 9.27772 13.3105 8.76172C13.3905 8.01172 13.2554 7.37722 12.8984 6.82422L13.5078 6.46875C13.5108 6.43975 13.5024 6.41167 13.4844 6.38867C13.3789 6.34717 13.2671 6.33391 13.1582 6.34766ZM13.7402 6.65625L13.7637 6.77344L13.9394 6.88672L13.8223 6.9082L13.8457 7.05078C14.2717 7.02778 14.6944 7.12217 15.0684 7.32617C14.9514 7.06817 14.5982 6.65625 13.7402 6.65625ZM12.6367 6.94727C12.7646 6.96958 12.8677 7.11734 12.9727 7.40234C13.0897 7.78634 13.1363 8.18689 13.1133 8.58789C13.0893 9.02289 12.9557 9.39392 12.7207 9.66992C12.5847 9.82892 12.4669 9.94639 12.4199 10.0254C12.2429 10.0434 12.0656 10.0369 11.8906 10.0039L11.5566 9.84375L11.3047 9.54492C11.3427 9.07592 11.3642 8.66222 11.4492 8.32422C11.5052 7.96822 11.609 7.71653 11.75 7.51953C12.003 7.21953 12.247 7.0468 12.5 6.9668C12.5492 6.9468 12.5941 6.93983 12.6367 6.94727ZM14.1836 7.28906C13.9979 7.34128 13.8725 7.64828 13.8125 8.20703C13.7325 8.95203 13.9292 9.59145 14.3652 10.0645C14.8012 10.5375 15.2179 10.5611 15.5879 10.2051C15.9579 9.84908 15.7476 9.09875 15.0586 7.96875C14.8956 7.69975 14.6656 7.47727 14.3906 7.32227H14.3887C14.3137 7.28252 14.2455 7.27166 14.1836 7.28906ZM14.25 7.48828C14.3343 7.46794 14.4862 7.54853 14.7187 7.73828C15.0187 7.99128 15.2477 8.48872 15.4297 9.26172C15.7337 10.5747 14.5019 10.4912 14.1699 9.49219C14.4229 9.59519 14.6611 9.58014 14.7461 8.99414V8.77539L14.6894 8.79883C14.4874 8.65383 14.5724 8.58781 14.6094 8.50781L14.6328 8.48438C14.5908 8.42837 14.3989 8.10313 14.0469 8.70312C14.0239 8.07013 14.0695 7.67797 14.1875 7.54297C14.2015 7.51372 14.2219 7.49506 14.25 7.48828ZM20.6133 7.73828C20.7403 7.82728 21.148 7.99192 21.5 8.54492C21.697 8.93892 21.6872 9.00345 21.6582 9.06445C21.6352 9.17745 21.6356 9.26744 21.5176 9.39844C21.4376 9.51544 21.2648 9.61791 20.9648 9.75391C20.6088 9.14491 20.1921 8.64897 19.6621 8.29297L20.6133 7.73828ZM21.375 7.75C21.6413 7.74227 22.0102 7.90014 22.4707 8.21289L22.4473 9.23828C22.7053 10.0863 23.2381 10.0449 23.4961 10.0449L23.3379 9.82422L24.3887 9.57227C23.9667 9.59627 23.5431 9.59627 23.1211 9.57227C23.7211 9.47427 24.6837 8.21397 25.1387 9.04297C25.2977 9.39897 25.4382 9.8487 25.5742 10.3457L25.6543 10.0684C25.5953 9.83536 25.5682 9.59547 25.5742 9.35547C25.8272 9.37847 25.9868 9.51412 26.0098 9.82812C26.0328 10.1281 26.0909 10.5236 26.1699 11.0156L26.3887 10.4844C26.6047 10.4844 26.5995 10.3161 26.2715 11.4551C25.2915 11.0471 24.6268 11.0605 24.0918 11.0605L24.9453 10.3105C23.7593 10.6945 23.3989 10.817 22.3769 11.291C22.3249 11.038 22.1429 10.6574 21.6269 10.3574C21.4769 10.5354 21.4957 10.4007 21.5937 11.0527H21.4766C21.4186 10.6697 21.284 10.2997 21.082 9.96875L21.2793 9.81055C21.6733 9.47755 21.8314 9.1402 21.7754 8.7832C21.7524 8.4832 21.5226 8.1495 21.1426 7.8125C21.2083 7.773 21.2862 7.75258 21.375 7.75ZM12.1855 8.04297C11.8055 8.04297 11.6426 8.63811 11.8066 9.03711C11.8546 9.14011 11.9485 9.21338 12.0605 9.23438C12.1379 9.24753 12.4941 9.17796 12.4941 8.53906H12.4727C12.2197 8.48706 12.3694 8.28267 12.4394 8.26367C12.3594 8.12267 12.2795 8.06597 12.1855 8.04297ZM10.4668 10.2695C9.92168 10.3093 9.62476 10.4948 9.57226 10.5195C9.59526 10.5425 9.7136 10.6781 9.8496 10.9551C10.0466 10.6551 10.2615 10.481 10.5605 10.457C10.4795 10.983 10.5066 11.5211 10.6406 12.0371C10.6456 12.0601 10.7627 12.854 11.9297 13.168C12.4597 13.309 13.1967 13.2231 14.2227 12.9141L13.791 12.9375C13.594 12.2435 13.4907 11.7747 13.5137 11.5547C14.0437 11.1417 14.5411 11.0252 14.9531 11.1992H15.0703L14.5176 10.8438L14.1836 10.8652C13.9066 10.9212 13.6074 11.0628 13.2754 11.2598L13.4199 10.9551C11.7889 11.6301 11.7916 11.611 11.7266 11.625C10.7516 11.845 10.8368 10.4819 10.8418 10.4629L11.1172 10.4062L11.0957 10.2891C10.8589 10.2586 10.6485 10.2563 10.4668 10.2695ZM24.2266 10.6035L23.5312 11.2129L23.5547 11.3477L24.3848 11.3242C24.9058 11.3432 25.4226 11.4095 25.9316 11.5215L24.8262 11.6387L24.7695 11.7793L26.0176 12.8633C26.4796 13.3273 26.9032 13.8293 27.2832 14.3633C26.7582 14.2083 26.8001 14.2031 26.2891 14.2031L26.8652 15.7266L26.4453 15.127L26.3281 15.1504L26.4687 15.5859C26.3047 15.8629 25.3583 17.6633 23.1133 19.3223C21.2613 20.7193 19.5213 21.1549 19.3203 21.2109L18.9648 20.8789L18.9082 21.0195L19.5781 21.7695L19.2461 21.5488L19.4043 21.7461H19.3496L18.3223 21.1133L18.7578 22.3594L17.8672 21.0527L17.8105 21.1699L18.168 22.5273C17.882 22.1433 17.1829 20.9999 15.5039 20.6719L17.0273 21.666C15.5663 21.888 14.0752 21.7842 12.6582 21.3652C12.4612 21.3092 12.2414 21.2499 12.0254 21.1699L12.0801 21.0273L9.98046 19.9785L11.2031 21.0273C8.49812 21.4543 5.90729 19.8371 5.27929 17.1191L5.16406 16.3496L4.11914 17.3945C5.03314 14.6995 5.32029 14.6814 6.52929 14.1094C6.10229 13.8614 6.45351 13.9548 4.72851 13.6738C5.46951 13.4018 6.27539 12.952 8.15039 13.918C8.20539 13.885 8.26421 13.8579 8.32421 13.8379C8.35221 13.6879 8.34309 13.7982 8.37109 13.2832C8.55409 13.7522 8.53971 13.6927 8.51171 13.7207L8.59179 13.7422C9.18679 13.4372 9.00867 13.5322 9.38867 13.3262L9.13671 13.959L10.1816 13.6875L9.7871 14.0801L9.90429 14.1973C10.1153 14.1133 11.3234 14.3563 11.8164 14.9473L10.7109 14.8301C12.5579 15.9081 13.1242 17.3628 13.3262 18.0938L13.4062 18.0371C13.2752 16.9921 12.8252 16.4473 12.6562 16.1562C12.8532 16.3903 14.494 17.7785 17.832 18.3125C17.302 18.2895 16.7483 18.5662 16.1953 19.1992L18.3848 18.252L17.9492 19.2793C18.3052 18.8063 18.6434 18.1738 18.9434 17.4238V17.4004L18.998 17.2598L18.9434 18.0098C19.5764 16.0508 20.1286 14.3292 20.6016 12.8672L21.2344 11.5645V11.4707L20.9824 11.2734H21.4551L21.7324 11.4707L21.8496 11.4141L21.6894 10.6641L22.2676 11.5508L24.2266 10.6035ZM26.1582 11.7832L25.9766 12.3926L25.3066 11.8398L26.1582 11.7832ZM14.2148 12.1172C14.2948 12.6142 14.4359 12.9475 14.6289 13.1445C14.1929 13.4535 13.3383 13.7965 12.4473 13.8945L12.4707 13.9492C12.8617 14.0082 13.2628 13.968 13.6348 13.832L13.3008 14.4414C13.4978 14.3614 13.7739 14.109 14.1309 13.748C14.6889 13.49 14.7261 13.509 15.0781 12.998C14.4831 12.698 14.3418 12.3562 14.2148 12.1172ZM6.15429 19.5605C8.49329 22.1435 11.7277 21.3178 11.8027 21.2988C13.4337 22.0678 15.0806 22.4059 17.1426 21.7969C17.2976 21.7969 18.0941 22.5929 18.3281 23.6289L18.5254 23.4883L18.4082 22.3828C18.8302 22.8048 19.5745 23.4402 20.0195 22.9902C19.2885 22.7422 18.9177 22.5469 18.6367 21.5059C18.8527 21.7029 18.9924 21.926 19.9394 22.207L20 22.1523L19.5078 21.4863C20.0558 21.2613 19.3438 21.5335 21.0078 20.9805C21.2088 22.5885 21.4291 23.2887 21.0391 25.1777C18.7001 26.3497 18.4094 26.2269 18.2734 26.2969C16.8764 25.7439 15.8879 24.811 15.2969 23.541L16.7031 24.3145C16.2441 23.8785 15.8443 23.5403 14.9023 22.2363L15.4551 23.3203L14.6269 22.9648C15.2929 23.9538 15.728 25.3862 17.748 26.4082C12.085 27.5422 8.41907 23.0288 8.33007 22.9258C8.85007 23.3578 9.40623 23.7478 9.99023 24.0898C10.1492 24.1698 10.3229 24.2055 10.4629 24.1445L9.71289 23.1758C10.1439 23.3728 10.1572 23.3852 12.9512 24.5332C10.9592 23.5632 9.49203 22.6219 8.58203 21.7129C8.55903 22.0129 8.52734 22.1855 8.52734 22.1855C8.93534 22.5275 9.26509 22.9516 9.49609 23.4316C7.66809 22.5456 6.79629 21.2015 6.15429 19.5605Z" fill="black"/>
</g>
</svg>
