<svg width="32" height="32" viewBox="0 0 32 32" fill="none" xmlns="http://www.w3.org/2000/svg">
<g id="theater-masks-solid">
<path id="Vector" d="M17.75 2.8125L16.9375 3.03125C16.9375 3.03125 12.7734 4.125 9.90625 5.5C9.89844 5.50391 9.88281 5.49609 9.875 5.5C7.03125 6.76953 3.4375 9.15625 3.4375 9.15625L2.75 9.625L3.09375 10.4062C3.09375 10.4062 5.75391 16.3672 6.96875 19C6.97266 19.0117 6.99609 19.0195 7 19.0312C7.37891 19.875 8.07031 20.3477 8.8125 20.7188C8.89453 21.418 9.1875 22.1133 9.53125 22.75C10.0859 23.7852 10.8555 24.7695 11.6562 25.6562C13.2578 27.4297 14.9688 28.7812 14.9688 28.7812L15.2812 29.0312L15.6875 29C15.6875 29 17.8555 28.8242 20.1875 28.25C21.3555 27.9648 22.582 27.582 23.625 27.0312C24.668 26.4805 25.6211 25.75 25.9688 24.5938C26.8633 21.6094 28.9688 14.9062 28.9688 14.9062L29.2188 14.0938L28.4375 13.7188C28.4375 13.7188 24.5273 11.7617 21.3438 10.6875C20.0352 7.77734 18.0938 3.5625 18.0938 3.5625L17.75 2.8125ZM16.6562 5.25C16.9297 5.83594 17.957 8.04297 18.8438 9.96875C15.9883 9.28516 13.0312 8.90625 13.0312 8.90625L12.1875 8.8125L11.9375 9.59375C11.9375 9.59375 11.5977 10.6641 11.5312 10.875L8.4375 12.9688L9.5625 14.625L10.625 13.9062C10.043 15.7969 9.70312 16.918 9.1875 18.625C9.00391 18.4883 8.87109 18.3555 8.8125 18.2188V18.1875C7.73438 15.8555 5.72266 11.4141 5.28125 10.4375C5.96484 9.99219 8.46484 8.3125 10.7188 7.3125C12.9492 6.23828 15.8438 5.47266 16.6562 5.25ZM13.5938 11.0312C14.6719 11.1836 17.918 11.6367 20.4062 12.4375C23.043 13.2891 26.0195 14.7812 26.7812 15.1562C26.5078 16.0352 25.25 20.0312 24.3438 23L24.0312 24C23.9258 24.3438 23.4922 24.8242 22.6875 25.25C21.8828 25.6758 20.7891 26.0508 19.7188 26.3125C17.7695 26.793 16.2266 26.9062 15.9062 26.9375C15.6367 26.7148 14.4805 25.7773 13.1562 24.3125C12.4219 23.5 11.7109 22.582 11.2812 21.7812C10.8516 20.9805 10.7383 20.3516 10.8438 20C11.6641 17.2695 13.2852 12.0273 13.5938 11.0312ZM14.4062 15.8438L13.8125 17.75L17.5938 18.9688L18.1875 17.0312L14.4062 15.8438ZM19.7188 17.4375L19.0938 19.3438L22.7812 20.5625L23.4062 18.6562L19.7188 17.4375ZM15.625 19.9688L13.75 20.6562C13.75 20.6562 14.582 22.9531 16.9688 23.625V23.6562C16.9883 23.6641 17.0117 23.6484 17.0312 23.6562C19.3633 24.3945 21.375 22.9062 21.375 22.9062L20.2188 21.2812C20.2188 21.2812 18.8672 22.1641 17.625 21.75H17.5938L17.5625 21.7188C16.207 21.3633 15.625 19.9688 15.625 19.9688Z" fill="black"/>
</g>
</svg>
