<svg width="32" height="32" viewBox="0 0 32 32" fill="none" xmlns="http://www.w3.org/2000/svg">
<g id="themeisle">
<path id="Vector" d="M20.1523 4C19.4153 4 18.7043 4.30742 18.1953 4.85742C17.9283 4.81642 17.6462 4.80469 17.3652 4.80469C14.8742 4.80469 12.5579 6.12959 11.0449 8.05859C10.5759 8.66159 10.4023 9.06334 10.0273 9.65234C9.96034 9.78634 9.78636 9.91906 9.69336 10.0391C9.49036 10.2681 9.30286 10.5117 9.13086 10.7637C8.92986 10.2957 8.54092 10.0664 8.04492 10.0664C4.95092 10.0664 4 15.2364 4 17.5664C4 18.2364 4.05331 19.0799 4.32031 19.7109C4.88231 21.0499 6.50416 22.7776 7.53516 23.8086C6.55416 24.4086 5.39067 24.5481 4.38867 24.3301C4.97867 25.1471 5.84817 25.7633 6.82617 26.0312C6.37017 26.1922 5.88825 26.2878 5.40625 26.3008C6.19625 26.9838 7.20142 27.3711 8.23242 27.3711C9.21042 27.3711 10.1218 27.0369 10.8848 26.4609C10.8848 27.2639 11.3797 28 12.2637 28C12.7327 28 13.1731 27.7321 13.4141 27.3301C13.6681 27.7321 14.0981 28 14.5801 28C15.0491 28 15.4914 27.7321 15.7324 27.3301C15.9864 27.7321 16.4275 28 16.8965 28C17.3655 28 17.8085 27.7321 18.0625 27.3301C18.3035 27.7321 18.7458 28 19.2148 28C19.9918 28 20.5801 27.3294 20.5801 26.5664V25.0391L20.6348 25.0254C22.2018 24.5834 25.2278 22.8838 26.2988 21.7188C27.4638 20.4338 28 17.3267 28 15.6387C28 14.3937 27.7719 12.7723 26.7949 11.9023C26.4339 11.5813 25.9511 11.2461 25.4551 11.2461C25.1331 11.2461 24.8533 11.4074 24.6523 11.6484C24.3313 9.73244 23.4867 7.88494 22.0137 6.58594C22.0937 6.49194 22.2285 6.384 22.2285 6.25C22.2285 6.008 21.6912 5.7545 21.4902 5.6875C21.6112 5.5535 22.0938 5.09783 22.0938 4.92383C22.0938 4.86983 22.0673 4.80367 22.0273 4.76367C21.5453 4.28167 20.8353 4 20.1523 4ZM14.3242 6.46484C15.2482 6.46484 15.8379 7.34741 15.8379 8.19141C15.8379 9.04841 15.2482 9.93359 14.3242 9.93359C13.4002 9.93359 12.8125 9.04841 12.8125 8.19141C12.8125 7.34741 13.4012 6.46484 14.3242 6.46484ZM14.5801 7.11914C14.0451 7.11914 13.75 7.66967 13.75 8.13867C13.75 8.62167 14.0451 9.15625 14.5801 9.15625C15.1021 9.15625 15.4102 8.62067 15.4102 8.13867C15.4102 7.66967 15.1021 7.11914 14.5801 7.11914ZM19.9238 7.77734C22.6418 7.77734 24.2637 10.2144 24.2637 12.7324C24.2637 14.5544 23.4731 16.4148 22.1211 17.6348C22.7341 14.5688 19.5199 15.9062 18.1699 15.9062C14.9409 15.9062 15.2915 12.6179 16.2285 9.50586C17.1785 8.48786 18.5038 7.77734 19.9238 7.77734ZM15.5449 10.3613C15.3169 11.2583 15.1426 12.1698 15.1426 13.0938C15.1426 16.2657 17.197 16.6877 20.168 16.0938C20.368 16.0538 20.5829 16.0137 20.7969 16.0137C21.4659 16.0137 21.7598 16.3476 21.7598 17.0176C21.7598 17.3796 21.6799 17.7282 21.5859 18.0762C20.7689 18.6522 19.7774 19.0137 18.7734 19.0137C14.9114 19.0137 13.1059 14.0893 15.5449 10.3613ZM9.08984 11.6074C8.90284 12.3704 8.80859 13.1475 8.80859 13.9375C8.80859 18.2505 11.8089 22.2148 16.3359 22.2148C19.5369 22.2148 22.3216 20.1782 23.7676 17.4062C23.6336 20.0452 22.4559 22.6564 20.4199 24.3574C20.1929 23.9154 19.7238 23.6074 19.2148 23.6074C18.7458 23.6074 18.3035 23.8753 18.0625 24.2773C17.8085 23.8753 17.3655 23.6074 16.8965 23.6074C16.4275 23.6074 15.9864 23.8753 15.7324 24.2773C15.4914 23.8753 15.0491 23.6074 14.5801 23.6074C14.0981 23.6074 13.6681 23.8753 13.4141 24.2773C13.1731 23.8753 12.7327 23.6074 12.2637 23.6074C11.7407 23.6074 11.2859 23.9141 11.0449 24.3691C8.86192 22.5341 7.69531 19.6561 7.69531 16.8301C7.69531 15.0091 8.15184 13.1874 9.08984 11.6074ZM12.2637 24.0625C12.7997 24.0625 13.2148 24.5171 13.2148 25.0391V26.5664C13.2148 27.1024 12.7997 27.5586 12.2637 27.5586C11.7277 27.5586 11.3242 27.0884 11.3242 26.5664V25.0391C11.3242 24.5161 11.7277 24.0625 12.2637 24.0625ZM14.5801 24.0625C15.1161 24.0625 15.5176 24.5171 15.5176 25.0391V26.5664C15.5176 27.0884 15.1161 27.5586 14.5801 27.5586C14.0441 27.5586 13.6289 27.0884 13.6289 26.5664V25.0391C13.6289 24.5161 14.0441 24.0625 14.5801 24.0625ZM16.8965 24.0625C17.4325 24.0625 17.8477 24.5171 17.8477 25.0391V26.5664C17.8477 27.1024 17.4325 27.5586 16.8965 27.5586C16.3605 27.5586 15.9453 27.0884 15.9453 26.5664V25.0391C15.9453 24.5161 16.3605 24.0625 16.8965 24.0625ZM19.2285 24.0625C19.7645 24.0625 20.1797 24.5171 20.1797 25.0391V26.5664C20.1797 27.0884 19.7645 27.5586 19.2285 27.5586C18.6925 27.5586 18.2773 27.0884 18.2773 26.5664V25.0391C18.2773 24.5161 18.6925 24.0625 19.2285 24.0625Z" fill="black"/>
</g>
</svg>
