<svg width="32" height="32" viewBox="0 0 32 32" fill="none" xmlns="http://www.w3.org/2000/svg">
<g id="themeco">
<path id="Vector" d="M15.8398 2.99811C15.3545 3.00111 14.8696 3.1145 14.4746 3.336L5.39062 8.44147C4.58463 8.89347 4 9.88298 4 10.795V21.1446C4 22.0506 4.58181 23.0402 5.38281 23.4962L14.4727 28.6602C14.8737 28.8882 15.3644 29.002 15.8574 29.002C16.3374 29.002 16.8179 28.8938 17.2109 28.6778L26.6035 23.4942C27.4125 23.0412 28 22.0536 28 21.1446V10.795C28 9.87698 27.4087 8.88837 26.5957 8.44537L17.207 3.31842C16.8095 3.10192 16.3252 2.99511 15.8398 2.99811ZM15.8594 5.00006C16.0094 5.00006 16.158 5.02328 16.25 5.07428L25.6387 10.2032C25.8037 10.2932 26 10.614 26 10.795V21.1446C26 21.3106 25.8128 21.6442 25.6328 21.7442L16.2422 26.9258C16.0592 27.0268 15.6429 27.0259 15.4609 26.9219L6.37109 21.7579C6.18609 21.6539 6 21.3126 6 21.1446V10.795C6 10.611 6.19914 10.2806 6.36914 10.1856L15.4531 5.08014C15.5471 5.02614 15.7044 5.00006 15.8594 5.00006ZM21.1797 13.1368C17.4737 13.1368 17.3357 18.8633 21.1797 18.8633C24.9417 18.8623 24.9377 13.1368 21.1797 13.1368ZM10.5898 13.2383C9.72684 13.2383 8.863 13.2462 8 13.2462V18.7383H9.03516V17.1212H10.5898C13.2798 17.1212 13.2728 13.2383 10.5898 13.2383ZM13.3105 13.2383V18.7383H14.3477V16.9024H15.3438L16.9434 18.7383H18.1758V18.668L16.5117 16.793C18.5147 16.386 18.3958 13.2612 15.9238 13.2462C15.0528 13.2462 14.1815 13.2383 13.3105 13.2383ZM21.1797 14.0782C23.5677 14.0782 23.6047 17.9141 21.1797 17.9141C18.7547 17.9141 18.7747 14.0782 21.1797 14.0782ZM9.00195 14.1231H10.752C11.899 14.1231 11.895 16.2266 10.752 16.2266H9.00195V14.1231ZM14.3477 14.211H15.9238C17.1878 14.211 17.1828 15.9688 15.9238 15.9688H14.3477V14.211Z" fill="black"/>
</g>
</svg>
