<svg width="32" height="32" viewBox="0 0 32 32" fill="none" xmlns="http://www.w3.org/2000/svg">
<g id="thermometer-three-quarters-solid">
<path id="Vector" d="M12 4V15.5C10.2 16.8 9 18.7 9 21C9 24.9 12.1 28 16 28C19.9 28 23 24.9 23 21C23 18.7 21.7 16.7 20 15.5V14H22V12H20V10H22V8H20V6H22V4H12ZM14 6H18V16.4L18.5 16.7C20 17.6 21 19.1 21 21C21 23.8 18.8 26 16 26C13.2 26 11 23.8 11 21C11 19.1 12 17.6 13.5 16.7L14 16.4V6ZM15 10V18.2C13.8 18.6 13 19.7 13 21C13 22.7 14.3 24 16 24C17.7 24 19 22.7 19 21C19 19.7 18.2 18.6 17 18.2V10H15Z" fill="black"/>
</g>
</svg>
