<svg width="32" height="32" viewBox="0 0 32 32" fill="none" xmlns="http://www.w3.org/2000/svg">
<g id="thermometer-empty-solid">
<path id="Vector" d="M13 5V16C11.2617 17.0508 10 18.8281 10 21C10 24.3008 12.6992 27 16 27C19.3008 27 22 24.3008 22 21C22 18.8281 20.7383 17.0508 19 16V15H21V13H19V11H21V9H19V7H21V5H13ZM15 7H17V17.0625L17.5938 17.3438C19.0039 17.9609 20 19.3516 20 21C20 23.2188 18.2188 25 16 25C13.7812 25 12 23.2188 12 21C12 19.3516 12.9961 17.9609 14.4062 17.3438L15 17.0625V7Z" fill="black"/>
</g>
</svg>
