<svg width="32" height="32" viewBox="0 0 32 32" fill="none" xmlns="http://www.w3.org/2000/svg">
<g id="thermometer-full-solid">
<path id="Vector" d="M12 4V15.4688C10.25 16.7383 9 18.6758 9 21C9 24.8555 12.1445 28 16 28C19.8555 28 23 24.8555 23 21C23 18.6758 21.75 16.7383 20 15.4688V14H22V12H20V10H22V8H20V6H22V4H12ZM14 6H18V16.4062L18.5 16.6875C19.9961 17.5547 21 19.1484 21 21C21 23.7734 18.7734 26 16 26C13.2266 26 11 23.7734 11 21C11 19.1484 12.0039 17.5547 13.5 16.6875L14 16.4062V6ZM15 8V18.1875C13.8398 18.6016 13 19.6992 13 21C13 22.6562 14.3438 24 16 24C17.6562 24 19 22.6562 19 21C19 19.6992 18.1602 18.6016 17 18.1875V8H15Z" fill="black"/>
</g>
</svg>
