<svg width="32" height="32" viewBox="0 0 32 32" fill="none" xmlns="http://www.w3.org/2000/svg">
<g id="thermometer-solid">
<path id="Vector" d="M21.75 4C20.1484 4 18.5312 4.625 17.3125 5.84375L9.65625 13.4688L9.53125 13.625C8.55469 14.6016 8 15.9336 8 17.3125V19.625L4.90625 22.6875L4.875 22.75C3.72266 23.957 3.71875 25.9062 4.90625 27.0938C6.10937 28.2969 8.10937 28.2969 9.3125 27.0938L12.375 24H14.6875C16.0664 24 17.3984 23.4453 18.375 22.4688L26.1562 14.6875C28.5898 12.2539 28.5898 8.27734 26.1562 5.84375C24.9375 4.625 23.3516 4 21.75 4ZM21.75 6C22.8359 6 23.9141 6.41406 24.75 7.25C26.4219 8.92188 26.4219 11.6094 24.75 13.2812L16.9688 21.0625C16.3672 21.6641 15.5391 22 14.6875 22H11.5625L7.875 25.6875C7.4375 26.125 6.75 26.125 6.3125 25.6875C5.875 25.25 5.875 24.5625 6.3125 24.125L10 20.4375V17.3125C10 16.4609 10.3359 15.6328 10.9375 15.0312L11.7812 14.1875L12.7812 15.2188L14.2188 13.7812L13.2188 12.7812L14.7812 11.2188L15.7812 12.2188L17.2188 10.7812L16.2188 9.78125L17.7812 8.21875L18.7812 9.21875L20.2188 7.78125L19.25 6.8125C20 6.26953 20.875 6 21.75 6ZM22.2812 8.28125L10.0625 20.5L11.5 21.9375L23.7188 9.71875L22.2812 8.28125Z" fill="black"/>
</g>
</svg>
