<svg width="32" height="32" viewBox="0 0 32 32" fill="none" xmlns="http://www.w3.org/2000/svg">
<g id="thumbtack-solid">
<path id="Vector" d="M20.5312 2.5625L19.8438 3.5L14.9375 10.1875C12.3086 9.73047 9.52734 10.4727 7.5 12.5L6.78125 13.1875L12.0938 18.5L4 26.5938V28H5.40625L13.5 19.9062L18.8125 25.2188L19.5 24.5C21.5273 22.4727 22.2695 19.6914 21.8125 17.0625L28.5 12.1562L29.4375 11.4688L20.5312 2.5625ZM20.7812 5.625L26.375 11.2188L20.1562 15.7812L19.5938 16.1875L19.7812 16.8438C20.2617 18.6758 19.7383 20.5859 18.5938 22.1875L9.8125 13.4062C11.4141 12.2617 13.3242 11.7383 15.1562 12.2188L15.8125 12.4062L16.2188 11.8438L20.7812 5.625Z" fill="black"/>
</g>
</svg>
