<svg width="32" height="32" viewBox="0 0 32 32" fill="none" xmlns="http://www.w3.org/2000/svg">
<g id="thumbs-down">
<path id="Vector" d="M10.1562 6C8.74609 6 7.51562 6.99609 7.21875 8.375L5.0625 18.375C4.66797 20.2227 6.11328 22 8 22H13.75L13.5625 22.75C13.3594 22.9062 13.2305 22.9727 12.9375 23.375C12.4687 24.0156 12 25.0078 12 26.3438C12 27.7695 13.2891 29 14.9062 29H15.3125L15.625 28.7188L22.4062 22H27V6H10.1562ZM10.1562 8H21V20.5938L14.5937 26.9062C14.1719 26.8242 14 26.6523 14 26.3438C14 25.4414 14.2734 24.8828 14.5312 24.5312C14.7891 24.1797 14.9687 24.0938 14.9687 24.0938L15.3125 23.9062L15.4375 23.5L16.0312 21.25L16.3437 20H8C7.33984 20 6.89453 19.4258 7.03125 18.7812L9.15625 8.78125C9.25781 8.3125 9.67969 8 10.1562 8ZM23 8H25V20H23V8Z" fill="black"/>
</g>
</svg>
