<svg width="32" height="32" viewBox="0 0 32 32" fill="none" xmlns="http://www.w3.org/2000/svg">
<g id="tint-solid">
<path id="Vector" d="M16 3.4375L15.2188 4.375C15.2188 4.375 13.2188 6.78516 11.1875 9.78125C10.1719 11.2812 9.125 12.918 8.34375 14.5C7.5625 16.082 7 17.5977 7 19C7 23.9453 11.0547 28 16 28C20.9453 28 25 23.9453 25 19C25 17.5977 24.4375 16.082 23.6562 14.5C22.875 12.918 21.8281 11.2812 20.8125 9.78125C18.7812 6.78516 16.7812 4.375 16.7812 4.375L16 3.4375ZM16 6.65625C16.5586 7.34766 17.6055 8.57422 19.1875 10.9062C20.1719 12.3555 21.125 13.9531 21.8438 15.4062C22.5625 16.8594 23 18.2031 23 19C23 22.8555 19.8555 26 16 26C12.1445 26 9 22.8555 9 19C9 18.2031 9.4375 16.8594 10.1562 15.4062C10.875 13.9531 11.8281 12.3555 12.8125 10.9062C14.3945 8.57422 15.4414 7.34766 16 6.65625ZM11 19C11 21.7461 13.2539 24 16 24V22C14.3438 22 13 20.6562 13 19H11Z" fill="black"/>
</g>
</svg>
