<svg width="32" height="32" viewBox="0 0 32 32" fill="none" xmlns="http://www.w3.org/2000/svg">
<g id="tint-slash-solid">
<path id="Vector" d="M3.7207 2.2793L2.2793 3.7207L10.0605 11.5L11.5098 12.9492L21.6602 23.0996L23.0898 24.5293L28.2793 29.7207L29.7207 28.2793L24.1816 22.7402C24.707 21.5991 25 20.3331 25 19C25 17.6 24.4402 16.08 23.6602 14.5C22.8702 12.92 21.8305 11.2793 20.8105 9.7793C18.7805 6.7793 16.7793 4.38086 16.7793 4.38086L16 3.43945L15.2207 4.38086C15.2207 4.38086 13.2286 6.77077 11.2031 9.76172L3.7207 2.2793ZM16 6.66016C16.56 7.35016 17.6095 8.57016 19.1895 10.9102C20.1695 12.3602 21.1298 13.9502 21.8398 15.4102C22.5598 16.8602 23 18.2 23 19C23 19.7678 22.8742 20.509 22.6426 21.2012L12.6309 11.1895C12.6915 11.0978 12.7501 11.0008 12.8105 10.9102C14.3905 8.57016 15.44 7.35016 16 6.66016ZM9.0293 13.2207C8.7793 13.6507 8.54984 14.08 8.33984 14.5C7.55984 16.08 7 17.6 7 19C7 23.95 11.05 28 16 28C18.18 28 20.1702 27.2197 21.7402 25.9297L20.3008 24.4902C19.1108 25.4402 17.61 26 16 26C12.15 26 9 22.85 9 19C9 18.2 9.44016 16.8602 10.1602 15.4102C10.2702 15.1802 10.3895 14.9509 10.5195 14.7109L9.0293 13.2207ZM11 19C11 19.3438 11.0347 19.6792 11.1016 20.0039C11.1685 20.3286 11.2676 20.6426 11.3945 20.9414C11.6484 21.5391 12.0156 22.0781 12.4688 22.5312C12.9219 22.9844 13.4609 23.3516 14.0586 23.6055C14.3574 23.7324 14.6714 23.8315 14.9961 23.8984C15.1584 23.9319 15.3227 23.9575 15.4902 23.9746C15.6578 23.9918 15.8281 24 16 24V22C15.7937 22 15.5913 21.9796 15.3965 21.9395C15.2017 21.8993 15.0152 21.8398 14.8359 21.7637C14.6566 21.6875 14.4858 21.5944 14.3262 21.4863C14.1665 21.3782 14.0168 21.2551 13.8809 21.1191C13.7449 20.9832 13.6218 20.8335 13.5137 20.6738C13.4056 20.5142 13.3125 20.3434 13.2363 20.1641C13.1602 19.9848 13.1007 19.7983 13.0605 19.6035C13.0204 19.4087 13 19.2062 13 19H11Z" fill="black"/>
</g>
</svg>
