<svg width="32" height="32" viewBox="0 0 32 32" fill="none" xmlns="http://www.w3.org/2000/svg">
<g id="tired-solid">
<path id="Vector" d="M16 3C8.832 3 3 8.832 3 16C3 23.168 8.832 29 16 29C23.168 29 29 23.168 29 16C29 8.832 23.168 3 16 3ZM16 5C22.065 5 27 9.935 27 16C27 22.065 22.065 27 16 27C9.935 27 5 22.065 5 16C5 9.935 9.935 5 16 5ZM10.0547 11.168L8.94531 12.832L10.6973 14L8.94531 15.168L10.0547 16.832L14.3027 14L10.0547 11.168ZM21.9453 11.168L17.6973 14L21.9453 16.832L23.0547 15.168L21.3027 14L23.0547 12.832L21.9453 11.168ZM16 19C13.396 19 11.6657 21.1588 11.0527 22.3438C10.8677 22.7008 11.2059 23.1016 11.5879 22.9766C12.6049 22.6426 14.349 22 16 22C17.651 22 19.3951 22.6436 20.4121 22.9766C20.7951 23.1026 21.1323 22.7008 20.9473 22.3438C20.3343 21.1597 18.604 19 16 19Z" fill="black"/>
</g>
</svg>
