<svg width="32" height="32" viewBox="0 0 32 32" fill="none" xmlns="http://www.w3.org/2000/svg">
<g id="toggle-off-solid">
<path id="Vector" d="M9 7C8.37891 7 7.77344 7.06641 7.1875 7.1875C6.89453 7.24609 6.59375 7.32031 6.3125 7.40625C3.79297 8.20312 1.74219 10.0859 0.71875 12.5C0.605469 12.7695 0.492188 13.0312 0.40625 13.3125C0.136719 14.1641 0 15.0586 0 16C0 16.9297 0.144531 17.8125 0.40625 18.6562C0.410156 18.6641 0.402344 18.6797 0.40625 18.6875C1.20312 21.207 3.08594 23.2578 5.5 24.2812C5.76953 24.3945 6.03125 24.5078 6.3125 24.5938C7.16406 24.8633 8.05859 25 9 25H23C27.957 25 32 20.957 32 16C32 11.043 27.957 7 23 7H9ZM9 9C12.8789 9 16 12.1211 16 16C16 19.8789 12.8789 23 9 23C5.12109 23 2 19.8789 2 16C2 15.7578 2.00781 15.5156 2.03125 15.2812C2.38672 11.7422 5.36328 9 9 9ZM14.625 9H23C26.8789 9 30 12.1211 30 16C30 19.8789 26.8789 23 23 23H14.625C16.6758 21.3477 18 18.8281 18 16C18 13.1719 16.6758 10.6523 14.625 9Z" fill="black"/>
</g>
</svg>
