<svg width="32" height="32" viewBox="0 0 32 32" fill="none" xmlns="http://www.w3.org/2000/svg">
<g id="toilet-solid">
<path id="Vector" d="M6 4C5.47656 4 4.94141 4.18359 4.5625 4.5625C4.18359 4.94141 4 5.47656 4 6V17C4 19.7891 5.65234 22.1172 8 23.5938V28H23V23.5938C25.3477 22.1172 27 19.7891 27 17V16H14V6C14 5.47656 13.8164 4.94141 13.4375 4.5625C13.0586 4.18359 12.5234 4 12 4H6ZM6 6H12V16H6V6ZM8 8V11H10V8H8ZM6.3125 18H24.6875C24.332 19.7266 23.3203 21.25 21.5312 22.2188L21 22.5V26H10V22.5L9.46875 22.2188C7.67969 21.25 6.66797 19.7266 6.3125 18Z" fill="black"/>
</g>
</svg>
