<svg width="32" height="32" viewBox="0 0 32 32" fill="none" xmlns="http://www.w3.org/2000/svg">
<g id="torah-solid">
<path id="Vector" d="M7 3C6.44922 3 6 3.44922 6 4C6 4.55078 6.44922 5 7 5C7.55078 5 8 4.55078 8 4C8 3.44922 7.55078 3 7 3ZM7 5C6.24609 5 5.55859 5.20703 5 5.625C4.44141 6.04297 4 6.72656 4 7.5V25.5C4 26.2734 4.44141 26.957 5 27.375C5.30469 27.6055 5.65625 27.7734 6.03125 27.875C6.02344 27.918 6 27.9531 6 28C6 28.5508 6.44922 29 7 29C7.55078 29 8 28.5508 8 28C8 27.9531 7.97656 27.918 7.96875 27.875C8.34375 27.7734 8.69531 27.6055 9 27.375C9.55859 26.957 10 26.2734 10 25.5V25H22V25.5C22 26.2734 22.4414 26.957 23 27.375C23.3047 27.6055 23.6562 27.7734 24.0312 27.875C24.0234 27.918 24 27.9531 24 28C24 28.5508 24.4492 29 25 29C25.5508 29 26 28.5508 26 28C26 27.9531 25.9766 27.918 25.9688 27.875C26.3438 27.7734 26.6953 27.6055 27 27.375C27.5586 26.957 28 26.2734 28 25.5V7.5C28 6.72656 27.5586 6.04297 27 5.625C26.4414 5.20703 25.7539 5 25 5C24.2461 5 23.5586 5.20703 23 5.625C22.4414 6.04297 22 6.72656 22 7.5V8H10V7.5C10 6.72656 9.55859 6.04297 9 5.625C8.44141 5.20703 7.75391 5 7 5ZM25 5C25.5508 5 26 4.55078 26 4C26 3.44922 25.5508 3 25 3C24.4492 3 24 3.44922 24 4C24 4.55078 24.4492 5 25 5ZM7 7C7.35156 7 7.64453 7.125 7.8125 7.25C7.98047 7.375 8 7.44531 8 7.5V25.5C8 25.5547 7.98047 25.625 7.8125 25.75C7.64453 25.875 7.35156 26 7 26C6.64844 26 6.35547 25.875 6.1875 25.75C6.01953 25.625 6 25.5547 6 25.5V7.5C6 7.44531 6.01953 7.375 6.1875 7.25C6.35547 7.125 6.64844 7 7 7ZM25 7C25.3516 7 25.6445 7.125 25.8125 7.25C25.9805 7.375 26 7.44531 26 7.5V25.5C26 25.5547 25.9805 25.625 25.8125 25.75C25.6445 25.875 25.3516 26 25 26C24.6484 26 24.3555 25.875 24.1875 25.75C24.0195 25.625 24 25.5547 24 25.5V7.5C24 7.44531 24.0195 7.375 24.1875 7.25C24.3555 7.125 24.6484 7 25 7ZM10 10H22V23H10V10ZM12 12V14H20V12H12ZM15 15V17H20V15H15ZM12 18V20H20V18H12Z" fill="black"/>
</g>
</svg>
