<svg width="32" height="32" viewBox="0 0 32 32" fill="none" xmlns="http://www.w3.org/2000/svg">
<g id="torii-gate-solid">
<path id="Vector" d="M2.9375 4.96875V6.78125L3.25 7.09375L7.25 10.75L7.5625 11H9V14H7V16H9V27H11V16H21V27H23V16H25V14H23V11H24.375L24.6875 10.75L28.6875 7.09375L29 6.78125V4.96875L27.7812 5.25C27.7461 5.25781 23.5273 6 16 6C8.47266 6 4.19141 5.25781 4.15625 5.25L2.9375 4.96875ZM6.78125 7.5625C8.89453 7.77344 11.9141 8 16 8C20.0547 8 23.0586 7.76953 25.1562 7.5625L23.5938 9H8.34375L6.78125 7.5625ZM11 11H14V14H11V11ZM18 11H21V14H18V11Z" fill="black"/>
</g>
</svg>
