<svg width="32" height="32" viewBox="0 0 32 32" fill="none" xmlns="http://www.w3.org/2000/svg">
<g id="tractor-solid">
<path id="Vector" d="M7 5V12.25C5.65234 12.5547 4.41797 13.1328 3.375 13.9688L4.625 15.5312C5.82422 14.5703 7.33984 14 9 14C12.8789 14 16 17.1211 16 21H20.5625C20.2148 21.5938 20 22.2656 20 23C20 25.1992 21.8008 27 24 27C26.1992 27 28 25.1992 28 23C28 21.9727 27.582 21.0547 26.9375 20.3438L28.9375 15.375L29 15.1875V13H24V10C24 9.43359 24.4336 9 25 9V7C23.3555 7 22 8.35547 22 10V13H18.6875L15.9375 5.65625L15.6875 5H7ZM9 7H14.3125L17.0625 14.3438L17.3125 15H26.9062L25.3125 19H17.75C16.832 15.0039 13.2695 12 9 12V7ZM9 15C5.69922 15 3 17.6992 3 21C3 24.3008 5.69922 27 9 27C12.3008 27 15 24.3008 15 21C15 17.6992 12.3008 15 9 15ZM9 17C11.2227 17 13 18.7773 13 21C13 23.2227 11.2227 25 9 25C6.77734 25 5 23.2227 5 21C5 18.7773 6.77734 17 9 17ZM9 19C7.89453 19 7 19.8945 7 21C7 22.1055 7.89453 23 9 23C10.1055 23 11 22.1055 11 21C11 19.8945 10.1055 19 9 19ZM24 21C25.1172 21 26 21.8828 26 23C26 24.1172 25.1172 25 24 25C22.8828 25 22 24.1172 22 23C22 21.8828 22.8828 21 24 21Z" fill="black"/>
</g>
</svg>
