<svg width="32" height="32" viewBox="0 0 32 32" fill="none" xmlns="http://www.w3.org/2000/svg">
<g id="trade-federation">
<path id="Vector" d="M16 3C8.819 3 3 8.819 3 16C3 23.181 8.819 29 16 29C23.181 29 29 23.181 29 16C29 8.819 23.181 3 16 3ZM16 3.69141C22.799 3.69141 28.3086 9.201 28.3086 16C28.3086 22.799 22.799 28.3086 16 28.3086C9.201 28.3086 3.69141 22.799 3.69141 16C3.69141 9.201 9.201 3.69141 16 3.69141ZM16 4.10547C9.432 4.10547 4.10547 9.432 4.10547 16C4.10547 22.568 9.432 27.8945 16 27.8945C22.568 27.8945 27.8945 22.568 27.8945 16C27.8945 9.432 22.568 4.10547 16 4.10547ZM16 4.80273C19.161 4.80273 22.0187 6.1127 24.0527 8.2207H13.6152V12.498H5.36328C6.83128 8.03205 11.041 4.80273 16 4.80273ZM9.68359 7.85938L9.77344 8.58789L9.02344 8.78711L9.74023 8.92969L9.69922 9.69922L10.0547 9.05859L10.7773 9.33789L10.2812 8.80273L10.7695 8.19922L10.1035 8.50977L9.68359 7.85938ZM13.8672 8.53516H24.2363V11.1934H16.5996V12.8125H20.959V15.4863H16.5918V25.7441H13.8301V15.4297H7.71289L5.61523 12.8125H13.8672V8.53516ZM13.9707 8.63477V12.918H5.8418L7.76562 15.3281H13.9355V25.6445H16.4922V15.3809H20.8594V12.918H16.4922V11.0938H24.1309V11.0879V8.63477H13.9707ZM11.1836 8.75L11.293 9.99805L10.0605 10.2812L11.2812 10.5645L11.1719 11.8223L11.8164 10.7461L12.9805 11.2441L12.1582 10.2969L12.9863 9.34766L11.832 9.83594L11.1836 8.75ZM24.6016 8.8457C26.2166 10.7857 27.1855 13.28 27.1855 16C27.1915 22.18 22.18 27.1914 16 27.1914C9.82 27.1914 4.80273 22.18 4.80273 16C4.80273 14.889 4.96453 13.8089 5.26953 12.7969L7.56641 15.748H13.5781V26.0645H16.9648V15.8008H21.3301V12.5137H16.9707V11.5078H24.6016V8.8457ZM14.5352 9.22656H23.543V10.5059H15.9414V13.4512H20.2871V14.7051H15.9414V25.0527H14.5371V14.7051H8.04688L6.99219 13.4512H14.5352V9.22656ZM22.8301 11.8164L22.9453 13.0078L21.7754 13.2891L22.9395 13.5469L22.8457 14.7461L23.4492 13.7207L24.5605 14.1816L23.7676 13.2891L24.5547 12.3672L23.459 12.8438L22.8301 11.8164ZM11.7969 15.832L11.8848 17.1152L10.6426 17.3203L11.8906 17.6289L11.6973 18.877L12.3789 17.7812L13.5059 18.3477L12.6777 17.3613L13.5625 16.4668L12.373 16.9531L11.7969 15.832ZM17.8809 16.0684L17.9492 16.8125L17.2207 16.9805L17.9492 17.1484L17.8867 17.8926L18.2695 17.252L18.9551 17.5391L18.4629 16.9785L18.9512 16.4141L18.2637 16.707L17.8809 16.0684Z" fill="black"/>
</g>
</svg>
