<svg width="32" height="32" viewBox="0 0 32 32" fill="none" xmlns="http://www.w3.org/2000/svg">
<g id="traffic-light-solid">
<path id="Vector" d="M10 4V7H7V8C7 9.88672 7.74609 11.207 8.625 11.9688C9.06641 12.3516 9.53516 12.625 9.9375 12.7812C9.96094 12.7891 9.97656 12.7734 10 12.7812V13H7V14C7 15.8867 7.74609 17.207 8.625 17.9688C9.06641 18.3516 9.53516 18.625 9.9375 18.7812C9.96094 18.7891 9.97656 18.7734 10 18.7812V19H7V20C7 21.8867 7.74609 23.207 8.625 23.9688C9.06641 24.3516 9.53516 24.625 9.9375 24.7812C9.96094 24.7891 9.97656 24.7734 10 24.7812V28H22V24.7812C22.0234 24.7734 22.0391 24.7891 22.0625 24.7812C22.4648 24.625 22.9336 24.3516 23.375 23.9688C24.2539 23.207 25 21.8867 25 20V19H22V18.7812C22.0234 18.7734 22.0391 18.7891 22.0625 18.7812C22.4648 18.625 22.9336 18.3516 23.375 17.9688C24.2539 17.207 25 15.8867 25 14V13H22V12.7812C22.0234 12.7734 22.0391 12.7891 22.0625 12.7812C22.4648 12.625 22.9336 12.3516 23.375 11.9688C24.2539 11.207 25 9.88672 25 8V7H22V4H10ZM12 6H20V9H22.8125C22.6406 9.67188 22.3945 10.1836 22.0625 10.4688C21.8203 10.6797 21.5547 10.8242 21.3438 10.9062C21.1328 10.9883 20.918 11 21 11H20V15H22.8125C22.6406 15.6719 22.3945 16.1836 22.0625 16.4688C21.8203 16.6797 21.5547 16.8242 21.3438 16.9062C21.1328 16.9883 20.918 17 21 17H20V21H22.8125C22.6406 21.6719 22.3945 22.1836 22.0625 22.4688C21.8203 22.6797 21.5547 22.8242 21.3438 22.9062C21.1328 22.9883 20.918 23 21 23H20V26H12V23H11C11.082 23 10.8672 22.9883 10.6562 22.9062C10.4453 22.8242 10.1797 22.6797 9.9375 22.4688C9.60547 22.1836 9.35938 21.6719 9.1875 21H12V17H11C11.082 17 10.8672 16.9883 10.6562 16.9062C10.4453 16.8242 10.1797 16.6797 9.9375 16.4688C9.60547 16.1836 9.35938 15.6719 9.1875 15H12V11H11C11.082 11 10.8672 10.9883 10.6562 10.9062C10.4453 10.8242 10.1797 10.6797 9.9375 10.4688C9.60547 10.1836 9.35938 9.67188 9.1875 9H12V6ZM16 8C14.8945 8 14 8.89453 14 10C14 11.1055 14.8945 12 16 12C17.1055 12 18 11.1055 18 10C18 8.89453 17.1055 8 16 8ZM16 14C14.8945 14 14 14.8945 14 16C14 17.1055 14.8945 18 16 18C17.1055 18 18 17.1055 18 16C18 14.8945 17.1055 14 16 14ZM16 20C14.8945 20 14 20.8945 14 22C14 23.1055 14.8945 24 16 24C17.1055 24 18 23.1055 18 22C18 20.8945 17.1055 20 16 20Z" fill="black"/>
</g>
</svg>
