<svg width="32" height="32" viewBox="0 0 32 32" fill="none" xmlns="http://www.w3.org/2000/svg">
<g id="train-solid">
<path id="Vector" d="M14 3C12.7422 3 11.8477 3.89062 11.4062 5H10C7.25 5 5 7.25 5 10V21C5 23.4258 6.44922 25.5234 8.53125 26.4688L6 29H8.34375L10.375 26.9688C10.5742 26.9883 10.793 27 11 27H21C21.207 27 21.4258 26.9883 21.625 26.9688L23.6562 29H26L23.4688 26.4688C25.5508 25.5234 27 23.4258 27 21V10C27 7.25 24.75 5 22 5H20.5938C20.1523 3.89062 19.2578 3 18 3H14ZM14 5H18C18.5664 5 19 5.43359 19 6V7H22C23.3203 7 24.4375 7.82812 24.8438 9H7.15625C7.5625 7.82812 8.67969 7 10 7H13V6C13 5.43359 13.4336 5 14 5ZM7 11H25V16H7V11ZM7 18H25V21C25 23.2188 23.2188 25 21 25H11C8.78125 25 7 23.2188 7 21V18ZM16 19C14.8945 19 14 19.8945 14 21C14 22.1055 14.8945 23 16 23C17.1055 23 18 22.1055 18 21C18 19.8945 17.1055 19 16 19Z" fill="black"/>
</g>
</svg>
