<svg width="32" height="32" viewBox="0 0 32 32" fill="none" xmlns="http://www.w3.org/2000/svg">
<g id="tram-solid">
<path id="Vector" d="M10.75 2L8.5625 3.09375L9.4375 4.90625L11.25 4H20.75L22.5625 4.90625L23.4375 3.09375L21.25 2H10.75ZM15 5V6H12C8.69922 6 6 8.69922 6 12V24C6 25.6445 7.35547 27 9 27L7 29H9.34375L11.3438 27H20.6562L22.6562 29H25L23 27C24.6445 27 26 25.6445 26 24V12C26 8.69922 23.3008 6 20 6H17V5H15ZM12 8H20C22.2188 8 24 9.78125 24 12V16H8V12C8 9.78125 9.78125 8 12 8ZM8 18H24V24C24 24.5664 23.5664 25 23 25H9C8.43359 25 8 24.5664 8 24V18ZM11.5 20C10.6719 20 10 20.6719 10 21.5C10 22.3281 10.6719 23 11.5 23C12.3281 23 13 22.3281 13 21.5C13 20.6719 12.3281 20 11.5 20ZM20.5 20C19.6719 20 19 20.6719 19 21.5C19 22.3281 19.6719 23 20.5 23C21.3281 23 22 22.3281 22 21.5C22 20.6719 21.3281 20 20.5 20Z" fill="black"/>
</g>
</svg>
