<svg width="32" height="32" viewBox="0 0 32 32" fill="none" xmlns="http://www.w3.org/2000/svg">
<g id="transgender-solid">
<path id="Vector" d="M19 3V5H22.5938L18.1875 9.40625C17.0156 8.52344 15.5742 8 14 8C10.1445 8 7 11.1445 7 15C7 18.5156 9.61719 21.418 13 21.9062V25H10V27H13V30H15V27H18V25H15V21.9062C18.3828 21.418 21 18.5156 21 15C21 13.4258 20.4766 11.9844 19.5938 10.8125L24 6.40625V10H26V3H19ZM14 10C16.7734 10 19 12.2266 19 15C19 17.7734 16.7734 20 14 20C11.2266 20 9 17.7734 9 15C9 12.2266 11.2266 10 14 10Z" fill="black"/>
</g>
</svg>
