<svg width="32" height="32" viewBox="0 0 32 32" fill="none" xmlns="http://www.w3.org/2000/svg">
<g id="transgender-alt-solid">
<path id="Vector" d="M4 4V11H6V7.40625L9.0625 10.5L7.28125 12.2812L8.71875 13.7188L10.5 11.9375L11.8125 13.25C11.2852 14.043 11 14.9844 11 16C11 18.4062 12.7266 20.4375 15 20.9062V23H12V25H15V28H17V25H20V23H17V20.9062C19.2734 20.4375 21 18.4062 21 16C21 14.9844 20.7148 14.043 20.1875 13.25L26 7.40625V11H28V4H21V6H24.5938L18.75 11.8125C17.957 11.2852 17.0156 11 16 11C14.9844 11 14.043 11.2852 13.25 11.8125L11.9375 10.5L13.7188 8.71875L12.2812 7.28125L10.5 9.0625L7.40625 6H11V4H4ZM16 13C17.668 13 19 14.332 19 16C19 17.668 17.668 19 16 19C14.332 19 13 17.668 13 16C13 14.332 14.332 13 16 13Z" fill="black"/>
</g>
</svg>
