<svg width="32" height="32" viewBox="0 0 32 32" fill="none" xmlns="http://www.w3.org/2000/svg">
<g id="trash-restore-alt-solid">
<path id="Vector" d="M15 4C14.478 4 13.9405 4.1845 13.5625 4.5625C13.1855 4.9395 13 5.478 13 6V7H7V9H8V25C8 26.645 9.355 28 11 28H23C24.645 28 26 26.645 26 25V9H27V7H21V6C21 5.478 20.8155 4.9405 20.4375 4.5625C20.0605 4.1855 19.522 4 19 4H15ZM15 6H19V7H15V6ZM10 9H24V25C24 25.555 23.555 26 23 26H11C10.445 26 10 25.555 10 25V9ZM17 12L13 16H16V23H18V16H21L17 12Z" fill="black"/>
</g>
</svg>
