<svg width="32" height="32" viewBox="0 0 32 32" fill="none" xmlns="http://www.w3.org/2000/svg">
<g id="trash-solid">
<path id="Vector" d="M14 4C13.4766 4 12.9414 4.18359 12.5625 4.5625C12.1836 4.94141 12 5.47656 12 6V7H5V9H6.09375L8 27.0938L8.09375 28H23.9062L24 27.0938L25.9062 9H27V7H20V6C20 5.47656 19.8164 4.94141 19.4375 4.5625C19.0586 4.18359 18.5234 4 18 4H14ZM14 6H18V7H14V6ZM8.125 9H23.875L22.0938 26H9.90625L8.125 9ZM12 12V23H14V12H12ZM15 12V23H17V12H15ZM18 12V23H20V12H18Z" fill="black"/>
</g>
</svg>
