<svg width="32" height="32" viewBox="0 0 32 32" fill="none" xmlns="http://www.w3.org/2000/svg">
<g id="tree-solid">
<path id="Vector" d="M16 3.59375L15.2812 4.28125L9.34375 10.25L8.34375 11.2188L9.625 11.8438C9.625 11.8438 10.6406 12.2109 12.0625 12.5312L7.65625 16.9375L6.65625 17.9062L7.90625 18.5312C7.90625 18.5312 8.98438 18.8359 9.53125 19.0312L5.9375 22.625L4.96875 23.625L6.21875 24.25C6.21875 24.25 8.65625 25.4258 13 25.8438V29H15V25.9688C15.3359 25.9805 15.6484 26 16 26C16.3516 26 16.6641 25.9805 17 25.9688V29H19V25.8438C23.3516 25.4258 25.8125 24.25 25.8125 24.25L27.0312 23.625L26.0625 22.625L22.4688 19.0312C23.0156 18.8359 24.0938 18.5312 24.0938 18.5312L25.3438 17.9062L24.3438 16.9375L19.9375 12.5312C21.3594 12.2109 22.375 11.8438 22.375 11.8438L23.6562 11.2188L22.6562 10.25L16.7188 4.28125L16 3.59375ZM16 6.4375L20 10.4062C19.4062 10.6055 19.2852 10.7617 17.8125 10.9062L16 11.0938L14.1875 10.9062C12.7148 10.7617 12.5938 10.6055 12 10.4062L16 6.4375ZM16 11.4375L17.1875 12.5938L21.7812 17.1875C21.3164 17.3516 21.3281 17.4062 20.375 17.5938L18.5312 17.9688L19.875 19.2812L23.5312 22.9375C22.2578 23.3945 20.0781 24 16 24C11.9609 24 9.78906 23.3945 8.5 22.9375L12.125 19.2812L13.4688 17.9688L11.625 17.5938C10.6719 17.4062 10.6836 17.3516 10.2188 17.1875L14.8125 12.5938L16 11.4375Z" fill="black"/>
</g>
</svg>
