<svg width="32" height="32" viewBox="0 0 32 32" fill="none" xmlns="http://www.w3.org/2000/svg">
<g id="tripadvisor">
<path id="Vector" d="M16 6.59375C11.7461 6.59375 7.77734 7.73438 5.0625 9.5625H0C0.828125 10.5312 1.44141 11.8516 1.59375 12.75C0.636719 14.0625 0.0625 15.6875 0.0625 17.4375C0.0625 21.8359 3.63281 25.4062 8.03125 25.4062C10.5273 25.4062 12.7578 24.2344 14.2188 22.4375C14.8125 23.1328 15.8008 24.5312 16 24.9375C16 24.9375 17.1367 23.2578 17.7812 22.4688C19.2422 24.2617 21.4766 25.4062 23.9688 25.4062C28.3672 25.4062 31.9375 21.8359 31.9375 17.4375C31.9375 15.6914 31.3633 14.0625 30.4062 12.75C30.5586 11.8516 31.1719 10.5312 32 9.5625H26.6875C23.9727 7.73438 20.25 6.59375 16 6.59375ZM16 7.9375C18.8516 7.9375 21.4375 8.47266 23.7188 9.46875C19.4375 9.60156 16 13.1211 16 17.4375C16 13.043 12.457 9.47656 8.0625 9.46875C10.3398 8.47656 13.1523 7.9375 16 7.9375ZM8.03125 11C11.5742 11 14.4375 13.8984 14.4375 17.4375C14.4375 20.9805 11.5703 23.8438 8.03125 23.8438C4.48828 23.8438 1.625 20.9805 1.625 17.4375C1.625 13.8984 4.48828 11 8.03125 11ZM23.9688 11C27.5078 11 30.375 13.8984 30.375 17.4375C30.375 20.9805 27.5078 23.8438 23.9688 23.8438C20.4258 23.8438 17.5625 20.9805 17.5625 17.4375C17.5625 13.8984 20.4258 11 23.9688 11ZM7.9375 13.5312C5.80078 13.5312 4.0625 15.2695 4.0625 17.4062C4.0625 19.543 5.80078 21.2812 7.9375 21.2812C10.0742 21.2812 11.8125 19.543 11.8125 17.4062C11.8125 15.2695 10.0742 13.5312 7.9375 13.5312ZM23.9688 13.5312C21.832 13.5312 20.0938 15.2695 20.0938 17.4062C20.0938 19.543 21.832 21.25 23.9688 21.25C26.1055 21.25 27.8438 19.543 27.8438 17.4062C27.8438 15.2695 26.1055 13.5312 23.9688 13.5312ZM7.9375 14.7188C9.41797 14.7188 10.625 15.9258 10.625 17.4062C10.625 18.8867 9.41797 20.0938 7.9375 20.0938C6.45703 20.0938 5.25 18.8867 5.25 17.4062C5.25 15.9258 6.45703 14.7188 7.9375 14.7188ZM23.9688 14.7188C25.4492 14.7188 26.6562 15.9258 26.6562 17.4062C26.6562 18.8867 25.4492 20.0625 23.9688 20.0625C22.4883 20.0625 21.2812 18.8867 21.2812 17.4062C21.2812 15.9258 22.4883 14.7188 23.9688 14.7188ZM7.75 16.0938C7.03125 16.0938 6.4375 16.6875 6.4375 17.4062C6.4375 18.125 7.03125 18.7188 7.75 18.7188C8.46875 18.7188 9.03125 18.125 9.03125 17.4062C9.03125 16.6875 8.46875 16.0938 7.75 16.0938ZM23.75 16.0938C23.0312 16.0938 22.4688 16.6875 22.4688 17.4062C22.4688 18.125 23.0312 18.6875 23.75 18.6875C24.4688 18.6875 25.0625 18.125 25.0625 17.4062C25.0625 16.6875 24.4688 16.0938 23.75 16.0938Z" fill="black"/>
</g>
</svg>
