<svg width="32" height="32" viewBox="0 0 32 32" fill="none" xmlns="http://www.w3.org/2000/svg">
<g id="truck-pickup-solid">
<path id="Vector" d="M10.7188 6C9.86328 6 9.08203 6.55859 8.8125 7.375L7.28125 12H0V20.2188C0 21.1328 0.613281 21.9336 1.5 22.1562L4.09375 22.8125C4.46875 24.6289 6.07812 26 8 26C9.85156 26 11.3984 24.7188 11.8438 23H21.1562C21.6016 24.7188 23.1484 26 25 26C26.8516 26 28.3984 24.7188 28.8438 23H30C31.0938 23 32 22.0938 32 21V17.25C32 15.4688 30.8086 13.8945 29.0938 13.4062L24.5625 12.125L20.6562 7.4375C19.8945 6.52734 18.7812 6 17.5938 6H10.7188ZM10.7188 8H14V12H9.375L10.7188 8ZM16 8H17.5938C18.1875 8 18.7461 8.26172 19.125 8.71875L21.875 12H16V8ZM2 14H23.8438L28.5625 15.3438C29.4258 15.5898 30 16.3516 30 17.25V21H28.8438C28.3984 19.2812 26.8516 18 25 18C23.1484 18 21.6016 19.2812 21.1562 21H11.8438C11.3984 19.2812 9.85156 18 8 18C6.22656 18 4.73828 19.1719 4.21875 20.7812L2 20.2188V14ZM8 20C9.11719 20 10 20.8828 10 22C10 23.1172 9.11719 24 8 24C6.88281 24 6 23.1172 6 22C6 20.8828 6.88281 20 8 20ZM25 20C26.1172 20 27 20.8828 27 22C27 23.1172 26.1172 24 25 24C23.8828 24 23 23.1172 23 22C23 20.8828 23.8828 20 25 20Z" fill="black"/>
</g>
</svg>
