<svg width="32" height="32" viewBox="0 0 32 32" fill="none" xmlns="http://www.w3.org/2000/svg">
<g id="truck-solid">
<path id="Vector" d="M1 4V25H4.15625C4.60156 26.7188 6.14844 28 8 28C9.85156 28 11.3984 26.7188 11.8438 25H20.1562C20.6016 26.7188 22.1484 28 24 28C25.8516 28 27.3984 26.7188 27.8438 25H31V14.5938L30.7188 14.2812L24.7188 8.28125L24.4062 8H19V4H1ZM3 6H17V23H11.8438C11.3984 21.2812 9.85156 20 8 20C6.14844 20 4.60156 21.2812 4.15625 23H3V6ZM19 10H23.5625L29 15.4375V23H27.8438C27.3984 21.2812 25.8516 20 24 20C22.1484 20 20.6016 21.2812 20.1562 23H19V10ZM8 22C9.11719 22 10 22.8828 10 24C10 25.1172 9.11719 26 8 26C6.88281 26 6 25.1172 6 24C6 22.8828 6.88281 22 8 22ZM24 22C25.1172 22 26 22.8828 26 24C26 25.1172 25.1172 26 24 26C22.8828 26 22 25.1172 22 24C22 22.8828 22.8828 22 24 22Z" fill="black"/>
</g>
</svg>
