<svg width="32" height="32" viewBox="0 0 32 32" fill="none" xmlns="http://www.w3.org/2000/svg">
<g id="truck-monster-solid">
<path id="Vector" d="M14 4C12.897 4 12 4.897 12 6V10H6C4.346 10 3 11.346 3 13V15.8203C1.76975 17.0037 1 18.6623 1 20.5C1 24.084 3.916 27 7.5 27C11.084 27 14 24.084 14 20.5C14 19.9832 13.9329 19.4823 13.8184 19H18.1816C18.0671 19.4823 18 19.9832 18 20.5C18 24.084 20.916 27 24.5 27C28.084 27 31 24.084 31 20.5C31 18.6623 30.2302 17.0037 29 15.8203V12C29 10.897 28.103 10 27 10H24H23.5352L20.7227 5.78125C19.9797 4.66625 18.7355 4 17.3945 4H14ZM14 6H17.3945C18.0635 6 18.6866 6.33262 19.0586 6.89062L21.1309 10H14V6ZM6 12H14H24H27V14.502C26.2298 14.1797 25.3858 14 24.5 14C22.2052 14 20.1882 15.1991 19.0312 17H12.9688C11.8118 15.1991 9.79483 14 7.5 14C6.61425 14 5.77022 14.1797 5 14.502V13C5 12.448 5.448 12 6 12ZM7.5 16C7.67309 16 7.83779 16.0317 8.00586 16.0508L7.95312 16.5273C8.51113 16.5883 9.04039 16.7648 9.52539 17.0508L9.76953 16.6367C10.5807 17.1154 11.2352 17.8287 11.6172 18.6973L11.166 18.8965C11.388 19.4015 11.5 19.941 11.5 20.5V20.5254L11.998 20.5137C11.995 21.5039 11.6623 22.4116 11.1152 23.1543L10.7246 22.8672C10.3966 23.3142 9.96833 23.6967 9.48633 23.9727L9.72461 24.3887C9.06569 24.7674 8.31286 25 7.5 25C7.33557 25 7.17944 24.9685 7.01953 24.9512L7.06836 24.4766C6.51036 24.4176 5.97919 24.2439 5.49219 23.9609L5.25195 24.375C4.43796 23.9006 3.78118 23.1903 3.39453 22.3242L3.84375 22.125C3.61475 21.612 3.49905 21.0654 3.49805 20.5254L3.50195 20.4453L3.00195 20.4727C3.00804 19.4784 3.3484 18.5691 3.90234 17.8262L4.28906 18.1152C4.62006 17.6692 5.0502 17.2896 5.5332 17.0156L5.29883 16.5996C5.95254 16.2289 6.69648 16 7.5 16ZM24.5 16C25.3035 16 26.0475 16.2289 26.7012 16.5996L26.4668 17.0156C26.9498 17.2896 27.3799 17.6692 27.7109 18.1152L28.0977 17.8262C28.652 18.5696 28.9924 19.4795 28.998 20.4746L28.5 20.5C28.5 21.066 28.3853 21.612 28.1562 22.125L28.6055 22.3242C28.2186 23.1908 27.5608 23.9006 26.7461 24.375L26.5059 23.9609C26.0189 24.2449 25.4887 24.4176 24.9297 24.4766L24.9785 24.9512C24.8192 24.9683 24.6638 25 24.5 25C23.6871 25 22.9343 24.7674 22.2754 24.3887L22.5137 23.9727C22.0317 23.6967 21.6034 23.3122 21.2754 22.8652L20.8848 23.1523C20.3379 22.4094 20.0046 21.5022 20.002 20.5117L20.5 20.5C20.5 19.941 20.612 19.4015 20.834 18.8965L20.3828 18.6973C20.7648 17.8287 21.4193 17.1154 22.2305 16.6367L22.4746 17.0508C22.9596 16.7648 23.4879 16.5883 24.0469 16.5273L23.9941 16.0508C24.1622 16.0317 24.3269 16 24.5 16ZM7.5 19C7.10218 19 6.72064 19.158 6.43934 19.4393C6.15804 19.7206 6 20.1022 6 20.5C6 20.8978 6.15804 21.2794 6.43934 21.5607C6.72064 21.842 7.10218 22 7.5 22C7.89782 22 8.27936 21.842 8.56066 21.5607C8.84196 21.2794 9 20.8978 9 20.5C9 20.1022 8.84196 19.7206 8.56066 19.4393C8.27936 19.158 7.89782 19 7.5 19ZM24.5 19C24.1022 19 23.7206 19.158 23.4393 19.4393C23.158 19.7206 23 20.1022 23 20.5C23 20.8978 23.158 21.2794 23.4393 21.5607C23.7206 21.842 24.1022 22 24.5 22C24.8978 22 25.2794 21.842 25.5607 21.5607C25.842 21.2794 26 20.8978 26 20.5C26 20.1022 25.842 19.7206 25.5607 19.4393C25.2794 19.158 24.8978 19 24.5 19Z" fill="black"/>
</g>
</svg>
