<svg width="32" height="32" viewBox="0 0 32 32" fill="none" xmlns="http://www.w3.org/2000/svg">
<g id="truck-loading-solid">
<path id="Vector" d="M17 5V21.0742L2.73242 25.0352L3.26758 26.9629L20.0156 22.3145C20.1794 24.9246 22.3493 27 25 27C27.757 27 30 24.757 30 22C30 19.243 27.757 17 25 17C22.9015 17 21.1077 18.3021 20.3672 20.1387L19 20.5176V7H30V5H17ZM12.4609 9.76367L1.91602 12.7871L4.69141 22.4707L15.2363 19.4453L12.4609 9.76367ZM11.0898 12.2363L12.7637 18.0742L6.06445 19.9941L4.39062 14.1582L11.0898 12.2363ZM25 19C26.654 19 28 20.346 28 22C28 23.654 26.654 25 25 25C23.346 25 22 23.654 22 22C22 20.346 23.346 19 25 19Z" fill="black"/>
</g>
</svg>
