<svg width="32" height="32" viewBox="0 0 32 32" fill="none" xmlns="http://www.w3.org/2000/svg">
<g id="tty-solid">
<path id="Vector" d="M16 4C12.1055 4 8.80859 4.71484 6.59375 5.375C4.47266 6.00391 3 7.96875 3 10.1875V13C3 14.0938 3.90625 15 5 15H9C10.0938 15 11 14.0938 11 13V10.375C11.1875 10.2891 11.2266 10.2539 11.7812 10.0938C12.6914 9.82812 14.082 9.5625 16 9.5625C17.918 9.5625 19.3086 9.82812 20.2188 10.0938C20.7734 10.2539 20.8125 10.2891 21 10.375V13C21 14.0938 21.9062 15 23 15H27C28.0938 15 29 14.0938 29 13V10.1875C29 7.96875 27.5273 6.00781 25.4062 5.375C23.1914 4.71875 19.8945 4 16 4ZM16 6C19.6484 6 22.7695 6.66406 24.8438 7.28125C26.1367 7.66406 27 8.84766 27 10.1875V13H23V9.125L22.5 8.84375C22.5 8.84375 21.8633 8.47266 20.7812 8.15625C19.6992 7.83984 18.1094 7.5625 16 7.5625C13.8906 7.5625 12.3008 7.83984 11.2188 8.15625C10.1367 8.47266 9.5 8.84375 9.5 8.84375L9 9.125V13H5V10.1875C5 8.84766 5.86328 7.66406 7.15625 7.28125C9.23047 6.66406 12.3516 6 16 6ZM10 17C8.89453 17 8 17.8945 8 19C8 20.1055 8.89453 21 10 21C11.1055 21 12 20.1055 12 19C12 17.8945 11.1055 17 10 17ZM16 17C14.8945 17 14 17.8945 14 19C14 20.1055 14.8945 21 16 21C17.1055 21 18 20.1055 18 19C18 17.8945 17.1055 17 16 17ZM22 17C20.8945 17 20 17.8945 20 19C20 20.1055 20.8945 21 22 21C23.1055 21 24 20.1055 24 19C24 17.8945 23.1055 17 22 17ZM10 23C8.89453 23 8 23.8945 8 25C8 26.1055 8.89453 27 10 27C11.1055 27 12 26.1055 12 25C12 23.8945 11.1055 23 10 23ZM16 23C14.8945 23 14 23.8945 14 25C14 26.1055 14.8945 27 16 27C17.1055 27 18 26.1055 18 25C18 23.8945 17.1055 23 16 23ZM22 23C20.8945 23 20 23.8945 20 25C20 26.1055 20.8945 27 22 27C23.1055 27 24 26.1055 24 25C24 23.8945 23.1055 23 22 23Z" fill="black"/>
</g>
</svg>
