<svg width="32" height="32" viewBox="0 0 32 32" fill="none" xmlns="http://www.w3.org/2000/svg">
<g id="tumblr">
<path id="Vector" d="M14.2188 5C13.5391 5 12.9688 5.57031 12.9688 6.25C12.9688 7.76172 12.2031 8.81641 11.3438 9.5625C10.9141 9.9375 10.4531 10.2227 10.125 10.4062C9.96094 10.4961 9.84375 10.5508 9.75 10.5938C9.70312 10.6172 9.67969 10.6484 9.65625 10.6562C9.63281 10.6641 9.53516 10.6875 9.625 10.6562C9.14062 10.8477 8.8125 11.2969 8.8125 11.8125V14.0312C8.8125 14.7109 9.38281 15.2812 10.0625 15.2812H11.1875V20.5C11.1875 20.8555 11.1875 22.3438 11.875 23.875C12.5625 25.4062 14.1367 27 16.7188 27C20.6523 27 22.6055 25.4414 22.75 25.3125C23.0195 25.0742 23.1875 24.7227 23.1875 24.375V21.7188C23.1875 21.2734 22.9219 20.8438 22.5312 20.625C22.1562 20.418 21.6992 20.4609 21.3125 20.6875L21.2812 20.6562L21.25 20.6875C21.1797 20.7266 20.0938 21.3438 18.9062 21.3438C18.2891 21.3438 18.2461 21.168 18.125 20.9375C18.0039 20.707 17.9688 20.3125 17.9688 20.4062V15.4688H21.0625C21.7422 15.4688 22.3125 14.9023 22.3125 14.2188V11.2188C22.3125 10.5352 21.7422 9.96875 21.0625 9.96875H17.9688V6.25C17.9688 5.57031 17.3984 5 16.7188 5H14.2188ZM14.7812 7H15.9688V11.9688H20.3125V13.4688H15.9688V20.4062C15.9688 20.5781 15.9766 21.1641 16.3438 21.875C16.7109 22.5859 17.6367 23.3438 18.9062 23.3438C19.8086 23.3438 20.5898 23.1289 21.1875 22.9062V23.9375C20.9258 24.1445 19.7617 25 16.7188 25C14.8789 25 14.2031 24.1367 13.7188 23.0625C13.2344 21.9883 13.1875 20.707 13.1875 20.5V13.2812H10.8125V12.3125C10.9102 12.2617 11 12.2266 11.125 12.1562C11.5469 11.9219 12.0938 11.5547 12.6562 11.0625C13.6367 10.207 14.5273 8.79297 14.7812 7Z" fill="black"/>
</g>
</svg>
