<svg width="32" height="32" viewBox="0 0 32 32" fill="none" xmlns="http://www.w3.org/2000/svg">
<g id="twitter-square">
<path id="Vector" d="M5 5V27H27V5H5ZM7 7H25V25H7V7ZM18.6895 10.6289C16.9395 10.6289 15.4817 12.2073 15.8887 14.1543C13.5087 14.0323 11.3876 12.8953 9.97461 11.1543C9.72561 11.5783 9.58594 12.0676 9.58594 12.6016C9.58494 13.5616 10.0643 14.4582 10.8633 14.9902C10.3953 14.9732 9.94936 14.8429 9.56836 14.6289V14.6621C9.56836 16.0571 10.5522 17.2135 11.8652 17.4805C11.4102 17.5995 11.0123 17.5992 10.5703 17.5332C10.9333 18.6712 11.992 19.4974 13.252 19.5234C12.268 20.2934 11.0344 20.748 9.69141 20.748C9.45541 20.748 9.232 20.7408 9 20.7148C10.269 21.5288 11.7782 22 13.4062 22C18.6823 22 21.5703 17.6289 21.5703 13.8359C21.5703 13.7129 21.5695 13.5878 21.5605 13.4648C22.1205 13.0578 22.61 12.5496 22.998 11.9766C22.482 12.1996 21.9237 12.3628 21.3457 12.4238C21.9407 12.0698 22.3915 11.5087 22.6055 10.8438C22.0545 11.1718 21.4322 11.4122 20.7852 11.5352C20.2602 10.9752 19.5165 10.6289 18.6895 10.6289Z" fill="black"/>
</g>
</svg>
