<svg width="32" height="32" viewBox="0 0 32 32" fill="none" xmlns="http://www.w3.org/2000/svg">
<g id="typo3">
<path id="Vector" d="M11.7 6.5C11.8 9 13.2 13 14.6 16C16.4 19.8 18 21.6 19.3 22.5C17 25.6 15 27 14.4 27C13.8 27 11.8 25.5 9.4 20.7C7.4 16.8 6 12.4 6 9.9C6 9.4 6.1 9.1 6.1 9C6.9 8.2 9 7.2 11.7 6.5ZM14.4 4C10.5 4.5 6 5.9 4.5 7.8C4.2 8.2 4 8.9 4 9.9C4 15.7 10 29 14.4 29C16.4 29 19.9 25.6 22.7 21.1C22.3 21.2 22 21.2 21.6 21.2C18.4 21.2 13.7 9.9 13.7 6.2C13.7 4.8 14 4.4 14.4 4ZM20.3 6C24.7 6 25.8 6.8 26 7C26 10.3 24.3 13.7 23.4 14.8C22.1 13.6 20 9 20 6C20.1 6 20.2 6 20.3 6ZM20.3 4C18.6 4 18 4.3 18 6C18 9.7 21 17 23.6 17C25.1 17 28 11.5 28 6.9C28 4.6 24.3 4 20.3 4Z" fill="black"/>
</g>
</svg>
