<svg width="32" height="32" viewBox="0 0 32 32" fill="none" xmlns="http://www.w3.org/2000/svg">
<g id="ubuntu">
<path id="Vector" d="M16 4C9.38281 4 4 9.38281 4 16C4 22.6172 9.38281 28 16 28C22.6172 28 28 22.6172 28 16C28 9.38281 22.6172 4 16 4ZM16 6C21.5352 6 26 10.4648 26 16C26 21.5352 21.5352 26 16 26C10.4648 26 6 21.5352 6 16C6 10.4648 10.4648 6 16 6ZM19.5 9C18.6719 9 18 9.67188 18 10.5C18 11.3281 18.6719 12 19.5 12C20.3281 12 21 11.3281 21 10.5C21 9.67188 20.3281 9 19.5 9ZM16 11C13.25 11 11 13.25 11 16C11 18.75 13.25 21 16 21C18.75 21 21 18.75 21 16C21 13.25 18.75 11 16 11ZM16 13C17.668 13 19 14.332 19 16C19 17.668 17.668 19 16 19C14.332 19 13 17.668 13 16C13 14.332 14.332 13 16 13ZM9.5 15C8.67188 15 8 15.6719 8 16.5C8 17.3281 8.67188 18 9.5 18C10.3281 18 11 17.3281 11 16.5C11 15.6719 10.3281 15 9.5 15ZM19.5 20C18.6719 20 18 20.6719 18 21.5C18 22.3281 18.6719 23 19.5 23C20.3281 23 21 22.3281 21 21.5C21 20.6719 20.3281 20 19.5 20Z" fill="black"/>
</g>
</svg>
