<svg width="32" height="32" viewBox="0 0 32 32" fill="none" xmlns="http://www.w3.org/2000/svg">
<g id="umbrella-beach-solid">
<path id="Vector" d="M15 3V4.625C13.0391 4.83203 10.5391 5.60938 8.21875 6.90625C5.50391 8.42578 3 10.6641 3 13.6562C3 15.4414 4.44922 17 6.34375 17C7.25 17 8.03125 16.6211 8.625 16.0938C8.63672 16.0859 8.64453 16.0742 8.65625 16.0625C9.24219 16.6758 10.0898 17 11 17C11.9883 17 12.8203 16.582 13.4062 16.0312C13.8203 16.4258 14.3633 16.7188 15 16.875V23.5938C13.4648 23.8711 12.4062 24.6875 12.4062 24.6875L13.5938 26.3125C13.5938 26.3125 14.7539 25.5 16 25.5C17.2461 25.5 18.4062 26.3125 18.4062 26.3125L19.5938 24.6875C19.5938 24.6875 18.5352 23.8711 17 23.5938V16.8438C17.5625 16.6875 18.0547 16.4297 18.4375 16.0938C19.0234 16.6875 19.8555 17 20.75 17C21.7578 17 22.6016 16.5664 23.1875 16C23.2305 16.0391 23.2695 16.0859 23.3125 16.125C23.918 16.6445 24.7148 17 25.5938 17C27.4609 17 29 15.4961 29 13.6875C29 10.7031 26.5391 8.47266 23.8438 6.9375C21.5391 5.625 19.0078 4.83203 17 4.625V3H15ZM15.9375 7C16.0703 7.1875 16.1875 7.28125 16.3438 7.59375C16.8555 8.625 17.4297 10.4414 17.5 13.4062C17.4922 13.4688 17.4922 13.5312 17.5 13.5938C17.5039 13.7305 17.5 13.8594 17.5 14C17.5 14.0156 17.4102 14.3242 17.1562 14.5625C16.9023 14.8008 16.5352 15 16 15C14.9102 15 14.5 14.125 14.5 14C14.5 13.8594 14.5 13.7305 14.5 13.5938C14.5 13.5625 14.5 13.5312 14.5 13.5C14.5547 10.2383 15.1211 8.40234 15.625 7.4375C15.75 7.19531 15.8281 7.14844 15.9375 7ZM18.4688 7.625C18.6797 7.74609 18.8477 7.78906 19.0625 7.9375C20.6367 9.02344 22.1172 10.7344 22.2188 13.6875C22.1914 13.9219 22.0938 14.25 21.875 14.5C21.6328 14.7812 21.3242 15 20.75 15C20.2773 15 20.0312 14.8594 19.8438 14.6562C19.6562 14.4531 19.5 14.125 19.5 13.5938C19.5039 13.5 19.4922 13.4023 19.4688 13.3125C19.3984 10.7227 18.9844 8.94141 18.4688 7.625ZM13.375 7.96875C12.9414 9.25 12.5938 10.8984 12.5312 13.3125C12.5312 13.3242 12.5312 13.332 12.5312 13.3438C12.5156 13.4062 12.5039 13.4688 12.5 13.5312C12.5 13.5508 12.5 13.5742 12.5 13.5938C12.5 13.8281 12.3672 14.2188 12.125 14.5C11.8828 14.7812 11.5742 15 11 15C10.5273 15 10.2812 14.8594 10.0938 14.6562C9.90625 14.4531 9.75 14.125 9.75 13.5938C9.75 13.5078 9.73828 13.4258 9.71875 13.3438C9.71875 13.332 9.71875 13.3242 9.71875 13.3125C9.95703 10.9297 11.4062 9.30859 12.9375 8.1875C13.1562 8.02734 13.1602 8.10547 13.375 7.96875ZM10.2188 8.21875C8.875 9.66797 7.6875 11.4492 7.6875 14C7.6875 14.0234 7.59375 14.3438 7.3125 14.5938C7.03125 14.8438 6.63672 15 6.34375 15C5.53516 15 5 14.3711 5 13.6562C5 11.8516 6.76562 10.0117 9.1875 8.65625C9.51953 8.47266 9.87109 8.38281 10.2188 8.21875ZM22.1562 8.375C22.3828 8.48828 22.625 8.53125 22.8438 8.65625C25.2422 10.0234 27 11.8711 27 13.6875C27 14.3789 26.4258 15 25.5938 15C25.2734 15 24.8945 14.8555 24.625 14.625C24.3555 14.3945 24.25 14.1172 24.25 14C24.25 13.8594 24.2539 13.7266 24.25 13.5938C24.2539 13.5 24.2422 13.4023 24.2188 13.3125C24.0625 11.1914 23.1914 9.65625 22.1562 8.375ZM6 24C5.44922 24 5 24.4492 5 25C5 25.5508 5.44922 26 6 26C6.55078 26 7 25.5508 7 25C7 24.4492 6.55078 24 6 24ZM10 24C9.44922 24 9 24.4492 9 25C9 25.5508 9.44922 26 10 26C10.5508 26 11 25.5508 11 25C11 24.4492 10.5508 24 10 24ZM22 24C21.4492 24 21 24.4492 21 25C21 25.5508 21.4492 26 22 26C22.5508 26 23 25.5508 23 25C23 24.4492 22.5508 24 22 24ZM26 24C25.4492 24 25 24.4492 25 25C25 25.5508 25.4492 26 26 26C26.5508 26 27 25.5508 27 25C27 24.4492 26.5508 24 26 24ZM8 27C7.44922 27 7 27.4492 7 28C7 28.5508 7.44922 29 8 29C8.55078 29 9 28.5508 9 28C9 27.4492 8.55078 27 8 27ZM12 27C11.4492 27 11 27.4492 11 28C11 28.5508 11.4492 29 12 29C12.5508 29 13 28.5508 13 28C13 27.4492 12.5508 27 12 27ZM16 27C15.4492 27 15 27.4492 15 28C15 28.5508 15.4492 29 16 29C16.5508 29 17 28.5508 17 28C17 27.4492 16.5508 27 16 27ZM20 27C19.4492 27 19 27.4492 19 28C19 28.5508 19.4492 29 20 29C20.5508 29 21 28.5508 21 28C21 27.4492 20.5508 27 20 27ZM24 27C23.4492 27 23 27.4492 23 28C23 28.5508 23.4492 29 24 29C24.5508 29 25 28.5508 25 28C25 27.4492 24.5508 27 24 27Z" fill="black"/>
</g>
</svg>
