<svg width="32" height="32" viewBox="0 0 32 32" fill="none" xmlns="http://www.w3.org/2000/svg">
<g id="umbrella-solid">
<path id="Vector" d="M15 4V6.0625C8.98828 6.56641 4.25391 11.4688 4.03125 16.625C4.02734 16.75 4 16.875 4 17H6C6 16.9219 6.08984 16.7227 6.53125 16.4688C6.97266 16.2148 7.6875 16 8.5 16C9.3125 16 10.0273 16.2148 10.4688 16.4688C10.9102 16.7227 11 16.9219 11 17H13C13 16.9883 13.082 16.7383 13.625 16.4688C14.168 16.1992 15.0312 16 16 16C16.9688 16 17.832 16.1992 18.375 16.4688C18.918 16.7383 19 16.9883 19 17H21C21 16.9219 21.0898 16.7227 21.5312 16.4688C21.9727 16.2148 22.6875 16 23.5 16C24.3125 16 25.0273 16.2148 25.4688 16.4688C25.9102 16.7227 26 16.9219 26 17H28C28 16.8711 27.9883 16.7461 27.9688 16.625C27.7461 11.4688 23.0117 6.56641 17 6.0625V4H15ZM16 8C20.3477 8 24.0625 10.9531 25.4375 14.2812C24.8438 14.0977 24.1914 14 23.5 14C22.3789 14 21.3555 14.25 20.5312 14.7188C20.332 14.832 20.1445 14.9766 19.9688 15.125C19.7539 14.9609 19.5195 14.8086 19.2812 14.6875C18.375 14.2344 17.2383 14 16 14C14.7617 14 13.625 14.2344 12.7188 14.6875C12.4844 14.8047 12.2695 14.9648 12.0625 15.125C12.0547 15.1211 12.0391 15.1289 12.0312 15.125C11.8555 14.9766 11.668 14.832 11.4688 14.7188C10.6445 14.25 9.62109 14 8.5 14C7.80859 14 7.15625 14.0977 6.5625 14.2812C7.9375 10.9531 11.6523 8 16 8ZM15 17V25C15 25.5664 14.5664 26 14 26C13.4336 26 13 25.5664 13 25V24H11V25C11 26.6445 12.3555 28 14 28C15.6445 28 17 26.6445 17 25V17H15Z" fill="black"/>
</g>
</svg>
