<svg width="32" height="32" viewBox="0 0 32 32" fill="none" xmlns="http://www.w3.org/2000/svg">
<g id="umbraco">
<path id="Vector" d="M16 3C8.83214 3 3 8.83214 3 16C3 23.1679 8.83214 29 16 29C23.1679 29 29 23.1679 29 16C29 8.83214 23.1679 3 16 3ZM16 5C22.087 5 27 9.91302 27 16C27 22.087 22.087 27 16 27C9.91302 27 5 22.087 5 16C5 9.91302 9.91302 5 16 5ZM22.1816 11L20.7363 11.207C20.6183 11.226 20.5332 11.3283 20.5352 11.4473C20.5342 11.4593 20.5342 11.4724 20.5352 11.4844L20.6152 11.9062C20.6922 12.3313 20.7726 12.8705 20.8516 13.5215C20.9296 14.1925 20.9716 14.868 20.9766 15.543C20.9896 16.833 20.8296 17.7735 20.5566 18.3945C20.2826 19.0145 19.6611 19.609 18.9961 19.748C18.0921 19.939 17.1691 20.0211 16.2461 19.9941H15.7539C14.8299 20.0221 13.907 19.939 13.002 19.748C12.335 19.612 11.7252 19.0312 11.4492 18.4102C11.1802 17.7902 10.9793 16.835 10.9883 15.543C10.9933 14.867 11.0352 14.1925 11.1152 13.5215C11.1922 12.8685 11.2707 12.3302 11.3477 11.9062L11.4297 11.4844C11.4307 11.4724 11.4307 11.4593 11.4297 11.4473C11.4297 11.3293 11.3445 11.228 11.2285 11.207L9.8125 11.002H9.7793C9.6673 11.004 9.57092 11.0785 9.54492 11.1875C9.51892 11.2845 9.50503 11.3597 9.45703 11.5938C9.36903 12.0448 9.28727 12.485 9.19727 13.127C9.10227 13.825 9.04639 14.5265 9.02539 15.2305C8.99139 15.7205 8.99139 16.2131 9.02539 16.7031C9.06239 18.0021 9.28627 19.0394 9.69727 19.8184C10.1093 20.5954 10.8051 21.1541 11.7871 21.4961C12.7691 21.8381 14.1366 22.005 15.8906 21.998H16.1113C17.8663 22.005 19.2348 21.8381 20.2148 21.4961C21.1958 21.1551 21.8917 20.5954 22.3027 19.8184C22.7137 19.0414 22.9386 18.0031 22.9746 16.7031C23.0076 16.2131 23.0086 15.7205 22.9746 15.2305C22.9546 14.5265 22.8977 13.825 22.8027 13.127C22.7127 12.493 22.63 12.0528 22.543 11.5918C22.494 11.3578 22.4811 11.2855 22.4551 11.1875C22.4301 11.0775 22.3337 10.999 22.2207 11H22.1816Z" fill="black"/>
</g>
</svg>
