<svg width="32" height="32" viewBox="0 0 32 32" fill="none" xmlns="http://www.w3.org/2000/svg">
<g id="uniregistry">
<path id="Vector" d="M6 4.69922V4.80078H11V4.69922H6ZM21 4.69922V4.80078H26V4.69922H21ZM6 6.5V6.80078H11V6.5H6ZM21 6.5V6.80078H26V6.5H21ZM6 8.30078V8.69922H11V8.30078H6ZM21 8.30078V8.69922H26V8.30078H21ZM6 10.0996V10.5996H11V10.0996H6ZM21 10.0996V10.5996H26V10.0996H21ZM6 11.9004V12.5H11V11.9004H6ZM21 11.9004V12.5H26V11.9004H21ZM6 13.6992V14.5H11V13.6992H6ZM21 13.6992V14.5H26V13.6992H21ZM6 15.5V16.4004H11V15.5H6ZM21 15.5V16.4004H26V15.5H21ZM6 17.3008V17.9004V18.3008H11V18V17.3008H6ZM21 17.3008V18V18.3008H26V17.9004V17.3008H21ZM6.09961 19.0996C6.09961 19.4996 6.20078 19.9008 6.30078 20.3008H11.5996C11.3996 19.9008 11.1996 19.4996 11.0996 19.0996H6.09961ZM20.9004 19.0996C20.8004 19.4996 20.7 19.9008 20.5 20.3008H25.8008C25.9008 19.9008 26 19.4996 26 19.0996H20.9004ZM6.40039 20.9004C6.50039 21.3004 6.70039 21.7992 6.90039 22.1992H13.3008C12.8008 21.8992 12.3 21.4004 12 20.9004H6.40039ZM20 20.9004C19.6 21.4004 19.1996 21.8992 18.5996 22.1992H25.0996C25.2996 21.7992 25.3996 21.3004 25.5996 20.9004H20ZM7.19922 22.6992C7.49922 23.1992 7.7 23.6996 8 24.0996H23.9004C24.3004 23.6996 24.6008 23.1992 24.8008 22.6992H7.19922ZM8.30078 24.5C8.80078 25.1 9.4 25.5996 10 26.0996H21.9004C22.5004 25.5996 23.0996 25.1 23.5996 24.5H8.30078ZM10.4004 26.3008C12.0004 27.4008 13.9 28 16 28C18.1 28 19.9996 27.4008 21.5996 26.3008H10.4004Z" fill="black"/>
</g>
</svg>
