<svg width="32" height="32" viewBox="0 0 32 32" fill="none" xmlns="http://www.w3.org/2000/svg">
<g id="universal-access-solid">
<path id="Vector" d="M16 4C9.38281 4 4 9.38281 4 16C4 22.6172 9.38281 28 16 28C22.6172 28 28 22.6172 28 16C28 9.38281 22.6172 4 16 4ZM16 6C21.5352 6 26 10.4648 26 16C26 21.5352 21.5352 26 16 26C10.4648 26 6 21.5352 6 16C6 10.4648 10.4648 6 16 6ZM16 8C14.8945 8 14 8.89453 14 10C14 11.1055 14.8945 12 16 12C17.1055 12 18 11.1055 18 10C18 8.89453 17.1055 8 16 8ZM10.2188 12.0312L9.78125 13.9688L14 14.9062V19L13.0312 23.8125L14.9688 24.1875L15.9688 19.1875L16 19.0938L16.0312 19.1875L17.0312 24.1875L18.9688 23.8125L18 19V14.9062L22.2188 13.9688L21.7812 12.0312L17.5 13H14.5L10.2188 12.0312Z" fill="black"/>
</g>
</svg>
