<svg width="32" height="32" viewBox="0 0 32 32" fill="none" xmlns="http://www.w3.org/2000/svg">
<g id="unlink-solid">
<path id="Vector" d="M21.75 4C20.1484 4 18.5312 4.625 17.3125 5.84375L15.8438 7.3125C14.8281 8.32812 14.2266 9.61719 14.0625 10.9375L16.0625 11.1875C16.1758 10.2812 16.5586 9.41016 17.25 8.71875L18.7188 7.25C20.3906 5.57812 23.0781 5.57812 24.75 7.25C26.4219 8.92188 26.4219 11.6094 24.75 13.2812L23.2812 14.75H23.25C22.5586 15.4453 21.7148 15.8281 20.8125 15.9375L21.0625 17.9375C22.3828 17.7734 23.6719 17.1719 24.6875 16.1562L26.1562 14.6875C28.5898 12.2539 28.5898 8.27734 26.1562 5.84375C24.9375 4.625 23.3516 4 21.75 4ZM7.71875 6.28125L6.28125 7.71875L10.2812 11.7188L11.7188 10.2812L7.71875 6.28125ZM10.9375 14.0625C9.61719 14.2266 8.32812 14.8281 7.3125 15.8438L5.84375 17.3125C3.41016 19.7461 3.41016 23.7227 5.84375 26.1562C8.27734 28.5898 12.2539 28.5898 14.6875 26.1562L16.1562 24.6875C17.1719 23.6719 17.7734 22.3828 17.9375 21.0625L15.9375 20.8125C15.8242 21.7188 15.4414 22.5898 14.75 23.2812L13.2812 24.75C11.6094 26.4219 8.92188 26.4219 7.25 24.75C5.57813 23.0781 5.57813 20.3906 7.25 18.7188L8.71875 17.25H8.75C9.44141 16.5547 10.2852 16.1719 11.1875 16.0625L10.9375 14.0625ZM21.7188 20.2812L20.2812 21.7188L24.2812 25.7188L25.7188 24.2812L21.7188 20.2812Z" fill="black"/>
</g>
</svg>
