<svg width="32" height="32" viewBox="0 0 32 32" fill="none" xmlns="http://www.w3.org/2000/svg">
<g id="unlock-alt-solid">
<path id="Vector" d="M16 3C12.9648 3 10.4141 4.96484 9.375 7.625L11.2188 8.375C11.9766 6.43359 13.8359 5 16 5C18.7539 5 21 7.24609 21 10V11.375C19.5234 10.5156 17.8242 10 16 10C10.4883 10 6 14.4883 6 20C6 25.5117 10.4883 30 16 30C21.5117 30 26 25.5117 26 20C26 17.2148 24.8477 14.6914 23 12.875V10C23 6.15625 19.8438 3 16 3ZM16 12C20.4297 12 24 15.5703 24 20C24 24.4297 20.4297 28 16 28C11.5703 28 8 24.4297 8 20C8 15.5703 11.5703 12 16 12ZM16 18C14.8945 18 14 18.8945 14 20C14 20.7383 14.4023 21.3711 15 21.7188V25H17V21.7188C17.5977 21.3711 18 20.7383 18 20C18 18.8945 17.1055 18 16 18Z" fill="black"/>
</g>
</svg>
