<svg width="32" height="32" viewBox="0 0 32 32" fill="none" xmlns="http://www.w3.org/2000/svg">
<g id="untappd">
<path id="Vector" d="M18.1992 5.30078C18.0992 5.30078 18.0996 5.4 18.0996 5.5V5.69922C18.0996 5.89922 17.9008 5.90039 17.8008 5.90039C17.7008 5.90039 17.6992 5.99922 17.6992 6.19922C12.3992 11.5992 12.8 11.6996 12 12.0996L10.8008 12.8008C10.3008 13.0008 9.89961 13.4008 9.59961 13.8008L3.30079 22.5996C3.00079 22.9996 2.89922 23.5996 3.19922 24.0996C3.89922 25.5996 5.49922 26.8 7.19922 27C7.69922 27 8.20001 26.8004 8.50001 26.4004L14.8008 17.5996C15.1008 17.1996 15.3004 16.6992 15.4004 16.1992L15.5996 14.8008C15.6996 13.9008 15.9008 14.2 19.3008 7.5C19.5008 7.3 19.5996 7.29922 19.5996 7.19922C19.5996 7.09922 19.5992 6.90039 19.6992 6.90039H19.9004C20.0004 6.90039 20 6.79922 20 6.69922C19.9 6.59922 19.8008 6.19922 19.3008 5.69922C18.8008 5.29922 18.3992 5.30078 18.1992 5.30078ZM13.9004 5.40039C13.7004 5.40039 13.3008 5.40078 12.8008 5.80078C12.3008 6.20078 12.0996 6.49922 12.0996 6.69922C11.9996 6.79922 11.9996 6.90039 12.0996 6.90039H12.3008C12.4008 6.90039 12.4004 7.09922 12.4004 7.19922C12.4004 7.29922 12.4992 7.3 12.6992 7.5C12.9992 8.2 13.3996 8.80039 13.5996 9.40039C14.0996 8.90039 14.7 8.20039 15.5 7.40039C15.2 7.00039 14.8004 6.70078 14.4004 6.30078C14.4004 6.10078 14.4008 6 14.3008 6C14.2008 6 14 6.00078 14 5.80078V5.59961C14 5.49961 14.0004 5.40039 13.9004 5.40039ZM18.5 10.5996C17.7 12.1996 17.1008 13.1992 16.8008 13.6992C16.4008 14.4992 16.3008 14.5008 16.3008 14.8008L16.5 16.0996C16.6 16.5996 16.7996 17.1 17.0996 17.5L23.4004 26.3008C23.7004 26.7008 24.3008 27.0004 24.8008 26.9004C26.5008 26.7004 28.1008 25.5 28.8008 24C29.1008 23.6 28.9992 22.9996 28.6992 22.5996L22.4004 13.8008C22.1004 13.4008 21.6992 13.0008 21.1992 12.8008L20 12.0996C19.6 11.8996 19.5 11.6996 18.5 10.5996Z" fill="black"/>
</g>
</svg>
