<svg width="32" height="32" viewBox="0 0 32 32" fill="none" xmlns="http://www.w3.org/2000/svg">
<g id="ups">
<path id="Vector" d="M15.5117 2.98827C11.5492 3.07577 7.75 3.99999 5 5.49999V18.3008C5 24.4008 9.4 26.1996 16 29.0996C22.6 26.1996 27 24.4008 27 18.3008V5.49999C23.6 3.64999 19.4742 2.90077 15.5117 2.98827ZM21.0195 5.50194C22.7258 5.46288 24.4 5.54921 26 5.69921V18.1992C26 23.2992 22.9 24.9004 16 27.9004C9.1 24.9004 6 23.2992 6 18.1992V11C10.5 6.87499 15.9008 5.61913 21.0195 5.50194ZM16.1699 11.0312C15.1533 11.026 14.1867 11.3617 13.6992 11.6992V24H15.5996V20C16.9996 20.4 19.6992 19.9 19.6992 15.5C19.6992 12 17.8643 11.04 16.1699 11.0312ZM22.541 11.0644C21.2715 11.1631 20.0996 12 20.0996 13.5C20.0996 16.3 23.0996 15.9996 23.0996 17.5996C23.1996 18.9996 21.3992 18.9004 20.1992 17.9004V19.5996C22.2992 20.8996 24.9 20.0992 25 17.6992C25.1 14.6992 21.9004 15.0004 21.9004 13.4004C21.9004 12.3004 23.6992 12.2008 24.6992 13.3008V11.6992C24.0992 11.2117 23.3027 11.0053 22.541 11.0644ZM7 11.1992V17.0996C7 21.4996 11.6992 20.1004 12.6992 19.4004V11.1992H10.8008V18.3008C10.5008 18.5008 8.90039 18.9992 8.90039 17.1992V11.1992H7ZM16.0547 12.5605C16.7437 12.4996 17.6992 12.875 17.6992 15.5C17.7992 19.5 15.7 18.5 15.5 18.5V12.6992C15.625 12.6492 15.825 12.5808 16.0547 12.5605Z" fill="black"/>
</g>
</svg>
