<svg width="32" height="32" viewBox="0 0 32 32" fill="none" xmlns="http://www.w3.org/2000/svg">
<g id="usb">
<path id="Vector" d="M16 3L13 8H15V20.0625C14.2188 19.7344 13.4102 19.6094 12.6562 19.5C11.7812 19.375 10.9844 19.25 10.5625 19.0312C10.1406 18.8125 10 18.707 10 18V15.7188C10.5977 15.3711 11 14.7383 11 14C11 12.8945 10.1055 12 9 12C7.89453 12 7 12.8945 7 14C7 14.7383 7.40234 15.3711 8 15.7188V18C8 19.293 8.73438 20.3125 9.625 20.7812C10.5156 21.25 11.4688 21.375 12.3438 21.5C13.2188 21.625 14.0156 21.75 14.4375 21.9688C14.8594 22.1875 15 22.293 15 23C15 23.0312 15 23.0625 15 23.0938V23.1875C13.8398 23.6016 13 24.6992 13 26C13 27.6562 14.3438 29 16 29C17.6562 29 19 27.6562 19 26C19 24.6992 18.1602 23.6016 17 23.1875C17.0078 23.125 17.0078 23.0625 17 23V21.1562C17.0039 21.1055 17.0039 21.0508 17 21C17 20.332 17.1914 20.1367 17.75 19.8125C18.3086 19.4883 19.25 19.2188 20.25 18.9688C21.25 18.7188 22.3086 18.4883 23.25 17.9375C24.1914 17.3867 25 16.332 25 15V13H26V9H22V13H23V15C23 15.668 22.8086 15.8633 22.25 16.1875C21.6914 16.5117 20.75 16.7812 19.75 17.0312C18.8359 17.2578 17.875 17.4844 17 17.9375V8H19L16 3Z" fill="black"/>
</g>
</svg>
