<svg width="32" height="32" viewBox="0 0 32 32" fill="none" xmlns="http://www.w3.org/2000/svg">
<g id="user-slash-solid">
<path id="Vector" d="M3.69922 2.30078L2.30078 3.69922L9.12109 10.5195C9.11485 10.5466 9.10555 10.5724 9.09961 10.5996L11 12.5V12.3984L15.6016 17H15.5L17.6992 19.1992C17.7494 19.2109 17.7959 19.2316 17.8457 19.2441L23.6602 25.0586C23.6708 25.1066 23.6896 25.1509 23.6992 25.1992L25.5 27H25.6016L28.3008 29.6992L29.6992 28.3008L25.5938 24.1953C24.7503 21.3148 22.6483 18.9458 19.9004 17.8008C21.8004 16.5008 23 14.4 23 12C23 8.1 19.9 5 16 5C13.391 5 11.1465 6.41996 9.92188 8.52344L3.69922 2.30078ZM16 7C18.8 7 21 9.2 21 12C21 14.087 19.776 15.8379 17.9941 16.5957L11.4043 10.0059C12.1621 8.22396 13.913 7 16 7ZM9.09961 13.3008C9.49961 15.2008 10.4996 16.8008 12.0996 17.8008C8.49961 19.3008 6 22.9 6 27H8C8 22.9 11.0004 19.5996 14.9004 19.0996L9.09961 13.3008Z" fill="black"/>
</g>
</svg>
