<svg width="32" height="32" viewBox="0 0 32 32" fill="none" xmlns="http://www.w3.org/2000/svg">
<g id="user-nurse-solid">
<path id="Vector" d="M10.1562 4L10 4.8125L9 10.4375V14H9.09375C9.38281 15.9922 10.4961 17.7305 12.0938 18.8125C8.52734 20.3438 6 23.8828 6 28H8C8 25.4688 9.17188 23.2148 11 21.75V22.4062L11.2812 22.7188L15.2812 26.7188L16 27.4062L16.7188 26.7188L20.7188 22.7188L21 22.4062V21.75C22.8281 23.2148 24 25.4688 24 28H26C26 23.8828 23.4727 20.3438 19.9062 18.8125C21.5039 17.7305 22.6172 15.9922 22.9062 14H23V10.4375L22 4.8125L21.8438 4H10.1562ZM11.8438 6H20.1562L21 10.7812V12H11V10.7812L11.8438 6ZM15 7V8H14V10H15V11H17V10H18V8H17V7H15ZM11.0938 14H20.9062C20.4414 16.2852 18.4258 18 16 18C13.5742 18 11.5586 16.2852 11.0938 14ZM16 20C17.0586 20 18.0742 20.1914 19 20.5625V21.5625L16 24.5625L13 21.5625V20.5625C13.9258 20.1914 14.9414 20 16 20Z" fill="black"/>
</g>
</svg>
