<svg width="32" height="32" viewBox="0 0 32 32" fill="none" xmlns="http://www.w3.org/2000/svg">
<g id="user-clock-solid">
<path id="Vector" d="M16 5.09961C12.1 5.09961 9 8.19961 9 12.0996C9 14.4996 10.1996 16.7004 12.0996 17.9004C8.49961 19.3004 6 22.9 6 27H8C8 22.6 11.6 19 16 19C16.6 19 17.0996 19.0992 17.5996 19.1992C17.6464 19.1368 17.7069 19.0828 17.7559 19.0215C16.6607 20.3907 16 22.1209 16 24C16 28.4 19.6 32 24 32C28.4 32 32 28.4 32 24C32 19.6 28.4 16 24 16C23.1119 16 22.2589 16.1535 21.459 16.4238C22.4225 15.2325 23 13.6669 23 12.0996C23 8.19961 19.9 5.09961 16 5.09961ZM16 7C18.8 7 21 9.2 21 12C21 14.8 18.8 17 16 17C13.2 17 11 14.8 11 12C11 9.2 13.2 7 16 7ZM19.2754 17.5664C19.2469 17.5874 19.2177 17.6075 19.1895 17.6289C19.2181 17.6078 19.2464 17.5872 19.2754 17.5664ZM24 18C27.3 18 30 20.7 30 24C30 27.3 27.3 30 24 30C20.7 30 18 27.3 18 24C18 20.7 20.7 18 24 18ZM18.498 18.2148C18.3748 18.3321 18.2562 18.4533 18.1406 18.5781C18.2564 18.4538 18.3729 18.3324 18.498 18.2148ZM23 20V24.5996L21.3008 26.3008L22.6992 27.6992L25 25.4004V20H23Z" fill="black"/>
</g>
</svg>
