<svg width="32" height="32" viewBox="0 0 32 32" fill="none" xmlns="http://www.w3.org/2000/svg">
<g id="user-tie-solid">
<path id="Vector" d="M16 4C12.1445 4 9 7.14453 9 11C9 13.3789 10.2109 15.4844 12.0312 16.75C7.92578 18.3516 5 22.3516 5 27H7C7 22.6016 10.1914 18.9258 14.375 18.1562L15 20H17L17.625 18.1562C21.8086 18.9258 25 22.6016 25 27H27C27 22.3516 24.0742 18.3516 19.9688 16.75C21.7891 15.4844 23 13.3789 23 11C23 7.14453 19.8555 4 16 4ZM16 6C18.7734 6 21 8.22656 21 11C21 13.7734 18.7734 16 16 16C13.2266 16 11 13.7734 11 11C11 8.22656 13.2266 6 16 6ZM15 21L14 27H18L17 21H15Z" fill="black"/>
</g>
</svg>
