<svg width="32" height="32" viewBox="0 0 32 32" fill="none" xmlns="http://www.w3.org/2000/svg">
<g id="user-astronaut-solid">
<path id="Vector" d="M16 4C11 4 7.00001 8 7.00001 13C6.70001 13 6.39923 13.2004 6.19923 13.4004C5.99923 13.7004 5.89962 14.0008 6.09962 14.3008L7.09962 17.3008C7.19962 17.7008 7.60001 18 8.00001 18H8.50197C8.69344 18.2879 8.90242 18.5613 9.12501 18.8242C9.43337 19.3005 9.79862 19.7337 10.211 20.1191C8.19406 21.8136 7.00001 24.3312 7.00001 27H9.00001C9.00001 24.7303 10.0802 22.6343 11.9238 21.293C12.8508 21.7417 13.8906 22 15 22H17C18.0953 22 19.1229 21.7486 20.041 21.3105C21.8648 22.5977 23 24.7548 23 27H25C25 24.3449 23.8149 21.8408 21.7598 20.1465C22.1842 19.7544 22.5594 19.3118 22.875 18.8242C23.0976 18.5613 23.3066 18.2879 23.4981 18H24C24.4 18 24.8004 17.7008 24.9004 17.3008L25.9004 14.3008C26.1004 14.0008 26.0008 13.7004 25.8008 13.4004C25.6008 13.2004 25.3 13 25 13C25 8 21 4 16 4ZM16 6C19.5173 6 22.3756 8.52509 22.9043 11.8809C21.9949 10.7371 20.6045 10 19 10H13C11.3955 10 10.0051 10.7371 9.09572 11.8809C9.6244 8.52509 12.4827 6 16 6ZM13 12H19C20.7 12 22 13.3 22 15C22 15.7152 21.8542 16.3897 21.5938 17H17C16.4 17 16 17.5 16 18C16 18.6 16.5 19 17 19H19.6192C18.5655 19.6315 17.3319 20 16 20C13.8994 20 12.0368 19.0955 10.7598 17.6562C10.2843 16.8891 10 15.9856 10 15C10 13.3 11.3 12 13 12Z" fill="black"/>
</g>
</svg>
