<svg width="32" height="32" viewBox="0 0 32 32" fill="none" xmlns="http://www.w3.org/2000/svg">
<g id="user-cog-solid">
<path id="Vector" d="M16 5C12.1 5 9 8.1 9 12C9 14.4375 10.21 16.5615 12.0703 17.8125C8.51001 19.3473 6 22.8936 6 27H8C8 22.6 11.6 19 16 19C19.9 19 23 15.9 23 12C23 8.1 19.9 5 16 5ZM16 7C18.8 7 21 9.2 21 12C21 14.8 18.8 17 16 17C13.2 17 11 14.8 11 12C11 9.2 13.2 7 16 7ZM24.0996 18V20.0996C23.4996 20.1996 22.9004 20.5008 22.4004 20.8008L20.9004 19.3008L19.5 20.6992L21 22.1992C20.6 22.6992 20.4008 23.3 20.3008 24H18V26H20.0996C20.1996 26.6 20.5008 27.2008 20.8008 27.8008L19.3008 29.3008L20.6992 30.6992L22.1992 29.1992C22.6992 29.4992 23.3004 29.8004 23.9004 29.9004V32H25.9004V29.9004C26.5004 29.8004 27.0996 29.4992 27.5996 29.1992L29.0996 30.6992L30.5 29.3008L29 27.8008C29.4 27.3008 29.5992 26.7 29.6992 26H32V24H29.9004C29.8004 23.4 29.4992 22.7992 29.1992 22.1992L30.6992 20.6992L29.3008 19.3008L27.8008 20.8008C27.3008 20.5008 26.6996 20.1996 26.0996 20.0996V18H24.0996ZM25 22C26.7 22 28 23.3 28 25C28 26.7 26.7 28 25 28C23.3 28 22 26.7 22 25C22 23.3 23.3 22 25 22ZM25 24C24.875 24 24.75 24.0312 24.6328 24.0859C24.5156 24.1406 24.4062 24.2188 24.3125 24.3125C24.2188 24.4062 24.1406 24.5156 24.0859 24.6328C24.0312 24.75 24 24.875 24 25C24 25.375 24.2812 25.75 24.6328 25.9141C24.75 25.9688 24.875 26 25 26C25.5 26 26 25.5 26 25C26 24.5 25.5 24 25 24Z" fill="black"/>
</g>
</svg>
