<svg width="32" height="32" viewBox="0 0 32 32" fill="none" xmlns="http://www.w3.org/2000/svg">
<g id="user-times-solid">
<path id="Vector" d="M12 2C8.14453 2 5 5.14453 5 9C5 11.4102 6.23047 13.5508 8.09375 14.8125C4.52734 16.3438 2 19.8828 2 24H4C4 19.5703 7.57031 16 12 16C13.375 16 14.6562 16.3594 15.7812 16.9688C14.6719 18.3438 14 20.1016 14 22C14 26.4062 17.5938 30 22 30C26.4062 30 30 26.4062 30 22C30 17.5938 26.4062 14 22 14C20.2539 14 18.6289 14.5742 17.3125 15.5312C16.8711 15.2539 16.3906 15.0195 15.9062 14.8125C17.7695 13.5508 19 11.4102 19 9C19 5.14453 15.8555 2 12 2ZM12 4C14.7734 4 17 6.22656 17 9C17 11.7734 14.7734 14 12 14C9.22656 14 7 11.7734 7 9C7 6.22656 9.22656 4 12 4ZM22 16C25.3242 16 28 18.6758 28 22C28 25.3242 25.3242 28 22 28C18.6758 28 16 25.3242 16 22C16 18.6758 18.6758 16 22 16ZM19.7188 18.2812L18.2812 19.7188L20.5625 22L18.2812 24.2812L19.7188 25.7188L22 23.4375L24.2812 25.7188L25.7188 24.2812L23.4375 22L25.7188 19.7188L24.2812 18.2812L22 20.5625L19.7188 18.2812Z" fill="black"/>
</g>
</svg>
