<svg width="32" height="32" viewBox="0 0 32 32" fill="none" xmlns="http://www.w3.org/2000/svg">
<g id="user-lock-solid">
<path id="Vector" d="M16 5C12.1 5 9 8.1 9 12C9 14.4375 10.21 16.5615 12.0703 17.8125C8.51001 19.3473 6 22.8936 6 27H8C8 22.6 11.6 19 16 19C17.2 19 18.4004 19.3008 19.4004 19.8008C19.7004 19.2008 20 18.5996 20.5 18.0996C20.301 18.0001 20.0956 17.9211 19.8926 17.834C21.7723 16.5861 23 14.4524 23 12C23 8.1 19.9 5 16 5ZM16 7C18.8 7 21 9.2 21 12C21 14.8 18.8 17 16 17C13.2 17 11 14.8 11 12C11 9.2 13.2 7 16 7ZM25 18C22.8 18 21 19.8 21 22V24H18V32H32V24H29V22C29 19.8 27.2 18 25 18ZM25 20C26.1 20 27 20.9 27 22V24H23V22C23 20.9 23.9 20 25 20ZM20 26H30V30H20V26Z" fill="black"/>
</g>
</svg>
