<svg width="32" height="32" viewBox="0 0 32 32" fill="none" xmlns="http://www.w3.org/2000/svg">
<g id="user-secret-solid">
<path id="Vector" d="M13.0625 4C12.1875 4 11.418 4.44922 10.875 5.03125C10.332 5.61328 9.94141 6.33984 9.59375 7.125C9.0625 8.33594 8.68359 9.67969 8.34375 10.9375C7.25781 11.2539 6.33594 11.6484 5.59375 12.125C4.72656 12.6836 4 13.457 4 14.5C4 15.4062 4.55469 16.1328 5.25 16.6562C5.84375 17.1016 6.57422 17.4727 7.4375 17.7812C7.48828 18.0117 7.5625 18.2461 7.65625 18.4688C6.8125 18.9453 5.47656 19.8672 4.1875 21.625L3.59375 22.4688L4.4375 23.0625L7.71875 25.3125L6.375 28H25.625L24.2812 25.3125L27.5625 23.0625L28.4062 22.4688L27.8125 21.625C26.5234 19.8672 25.1875 18.9453 24.3438 18.4688C24.4375 18.2461 24.5117 18.0117 24.5625 17.7812C25.4258 17.4727 26.1562 17.1016 26.75 16.6562C27.4453 16.1328 28 15.4062 28 14.5C28 13.457 27.2734 12.6836 26.4062 12.125C25.6641 11.6484 24.7422 11.2539 23.6562 10.9375C23.2812 9.63281 22.8672 8.26562 22.3438 7.0625C22.0039 6.28516 21.6289 5.57031 21.0938 5C20.5586 4.42969 19.7969 4 18.9375 4C18.3555 4 17.9141 4.16016 17.4375 4.28125C16.9609 4.40234 16.4805 4.5 16 4.5C15.0391 4.5 14.2344 4 13.0625 4ZM13.0625 6C13.2695 6 14.5 6.5 16 6.5C16.75 6.5 17.418 6.34766 17.9375 6.21875C18.457 6.08984 18.8516 6 18.9375 6C19.168 6 19.3398 6.07422 19.625 6.375C19.9102 6.67578 20.2461 7.21875 20.5312 7.875C21.0742 9.11719 21.4883 10.8125 21.9375 12.375C21.9375 12.3711 21.9922 12.3281 21.8438 12.4062C21.5938 12.543 21.0703 12.7188 20.4375 12.8125C19.168 13.0039 17.4375 13 16 13C14.5703 13 12.8359 12.9805 11.5625 12.7812C10.9258 12.6836 10.4102 12.5117 10.1562 12.375C10.0781 12.332 10.0508 12.3477 10.0312 12.3438C10.0312 12.332 10.0312 12.3242 10.0312 12.3125C10.0352 12.3047 10.0273 12.2891 10.0312 12.2812C10.043 12.2695 10.0508 12.2617 10.0625 12.25C10.1367 12.1172 10.1797 11.9648 10.1875 11.8125C10.1875 11.8008 10.1875 11.793 10.1875 11.7812C10.5469 10.4531 10.9492 9.04688 11.4375 7.9375C11.7305 7.26953 12.0469 6.72656 12.3438 6.40625C12.6406 6.08594 12.8438 6 13.0625 6ZM8.1875 13.0938C8.41406 13.5625 8.8125 13.9375 9.21875 14.1562C9.82812 14.4805 10.5273 14.6328 11.2812 14.75C12.7891 14.9844 14.5547 15 16 15C17.4375 15 19.207 15.0078 20.7188 14.7812C21.4766 14.668 22.168 14.5195 22.7812 14.1875C23.1914 13.9648 23.5898 13.5703 23.8125 13.0938C24.4297 13.3125 24.9492 13.5469 25.3125 13.7812C25.8945 14.1562 26 14.4336 26 14.5C26 14.5586 25.9492 14.75 25.5312 15.0625C25.1133 15.375 24.3945 15.7383 23.4688 16.0312C21.6172 16.6211 18.9531 17 16 17C13.0469 17 10.3828 16.6211 8.53125 16.0312C7.60547 15.7383 6.88672 15.375 6.46875 15.0625C6.05078 14.75 6 14.5586 6 14.5C6 14.4336 6.07812 14.1836 6.65625 13.8125C7.01953 13.5781 7.55469 13.3242 8.1875 13.0938ZM10.7812 18.5625C11.1094 18.6172 11.4336 18.707 11.7812 18.75C11.9102 19.6289 12.5938 20.4023 13.6875 20.4688C14.5312 20.5195 15.4805 20.1211 15.5625 19C15.7109 19 15.8516 19 16 19C16.1484 19 16.2891 19 16.4375 19C16.5195 20.1211 17.4688 20.5195 18.3125 20.4688C19.4062 20.4023 20.0898 19.6289 20.2188 18.75C20.5664 18.707 20.8906 18.6172 21.2188 18.5625L21.125 19.1875C20.8164 20.832 20.082 22.3555 19.1562 23.4062C18.2305 24.457 17.1445 25.0156 16 25C14.8242 24.9844 13.7617 24.418 12.8438 23.375C11.9258 22.332 11.2031 20.8398 10.875 19.1875L10.7812 18.5625ZM23 20C23.3711 20.2188 24.3477 20.8594 25.4688 22.0938L22.4375 24.1875L21.7188 24.6562L22.0938 25.4375L22.375 26H19.2188C19.7422 25.6484 20.2266 25.207 20.6562 24.7188C21.7578 23.4688 22.4961 21.832 22.9062 20.0625C22.9414 20.043 22.9688 20.0195 23 20ZM8.96875 20.0312C9.00781 20.0547 9.05469 20.0703 9.09375 20.0938C9.52344 21.8398 10.2578 23.457 11.3438 24.6875C11.793 25.1992 12.3164 25.6367 12.875 26H9.625L9.90625 25.4375L10.2812 24.6562L9.5625 24.1875L6.53125 22.0938C7.58984 20.9258 8.55469 20.2812 8.96875 20.0312Z" fill="black"/>
</g>
</svg>
