<svg width="32" height="32" viewBox="0 0 32 32" fill="none" xmlns="http://www.w3.org/2000/svg">
<g id="user-edit-solid">
<path id="Vector" d="M13 3C9.14453 3 6 6.14453 6 10C6 12.4102 7.23047 14.5508 9.09375 15.8125C5.52734 17.3438 3 20.8828 3 25H5C5 20.5703 8.57031 17 13 17C15.1445 17 17.0625 17.8789 18.5 19.25L13.7812 23.9688L13.7188 24.2812L13.0312 27.8125L12.7188 29.2812L14.1875 28.9688L17.7188 28.2812L18.0312 28.2188L28.125 18.125C29.2852 16.9648 29.2852 15.0352 28.125 13.875C27.543 13.293 26.7695 13 26 13C25.2461 13 24.4844 13.2852 23.9062 13.8438L19.9375 17.8125C19.0664 16.9766 18.0352 16.293 16.9062 15.8125C18.7695 14.5508 20 12.4102 20 10C20 6.14453 16.8555 3 13 3ZM13 5C15.7734 5 18 7.22656 18 10C18 12.7734 15.7734 15 13 15C10.2266 15 8 12.7734 8 10C8 7.22656 10.2266 5 13 5ZM26 15C26.2539 15 26.5195 15.082 26.7188 15.2812C27.1172 15.6797 27.1172 16.2891 26.7188 16.6875L17.0312 26.375L15.25 26.75L15.625 24.9688L25.3125 15.2812C25.5117 15.082 25.7461 15 26 15Z" fill="black"/>
</g>
</svg>
