<svg width="32" height="32" viewBox="0 0 32 32" fill="none" xmlns="http://www.w3.org/2000/svg">
<g id="user-shield-solid">
<path id="Vector" d="M16 5C12.1 5 9 8.1 9 12C9 14.4375 10.21 16.5615 12.0703 17.8125C8.51001 19.3473 6 22.8936 6 27H8C8 22.6 11.6 19 16 19C16.3412 19 16.6726 18.9678 17 18.9219V23.5C17 28.7 23.7996 31.7008 24.0996 31.8008L24.5 32L24.9004 31.8008C25.2004 31.7008 32 28.7 32 23.5V18H31.0996C29.1996 18 28.0992 17.3008 27.1992 16.8008C26.2992 16.4008 25.5 16 24.5 16C23.5 16 22.7 16.4008 22 16.8008C21.4937 17.082 20.8864 17.4223 20.1191 17.6699C21.8682 16.4042 23 14.3509 23 12C23 8.1 19.9 5 16 5ZM16 7C18.8 7 21 9.2 21 12C21 14.8 18.8 17 16 17C13.2 17 11 14.8 11 12C11 9.2 13.2 7 16 7ZM24.5 18C25 18 25.3992 18.1996 26.1992 18.5996L26.5 18.6992C27.3 19.0992 28.4 19.7004 30 19.9004V23.4004C30 26.7004 25.7 29.0992 24.5 29.6992C23.3 29.0992 19 26.7004 19 23.4004V19.9004C20.7 19.7004 21.7996 19.0992 22.5996 18.6992L22.9004 18.5996H23H23.0996C23.6996 18.0996 24 18 24.5 18Z" fill="black"/>
</g>
</svg>
