<svg width="32" height="32" viewBox="0 0 32 32" fill="none" xmlns="http://www.w3.org/2000/svg">
<g id="user-injured-solid">
<path id="Vector" d="M16 5C12.1 5 9 8.1 9 12C9 14.4349 10.2074 16.5571 12.0645 17.8086C8.83818 19.182 6.46301 22.1937 6.09961 25.9004C5.99961 26.4004 6.19961 27.0004 6.59961 27.4004C6.89961 27.8004 7.5 28 8 28H17C18.7 28 20 26.7 20 25C20 23.3 18.7 22 17 22H13.1914L12.3945 19.875C13.4832 19.3172 14.709 19 16 19C20.4 19 24 22.6 24 27H26C26 22.8933 23.4904 19.3452 19.9297 17.8105C21.7888 16.5594 23 14.4365 23 12C23 8.1 19.9 5 16 5ZM16 7C16.4189 7 16.8184 7.06314 17.2051 7.15625L13.6504 10H11.4063C12.1653 8.22117 13.9152 7 16 7ZM19.1758 8.14062C19.7833 8.63844 20.2796 9.26381 20.5938 10H16.8516L19.1758 8.14062ZM11 12H21C21 14.8 18.8 17 16 17C13.2 17 11 14.8 11 12ZM10.6953 21.041L12.5547 26H8.09961C8.34699 24.021 9.30672 22.2883 10.6953 21.041ZM13.9414 24H17C17.6 24 18 24.4 18 25C18 25.6 17.6 26 17 26H14.6914L13.9414 24Z" fill="black"/>
</g>
</svg>
