<svg width="32" height="32" viewBox="0 0 32 32" fill="none" xmlns="http://www.w3.org/2000/svg">
<g id="user-ninja-solid">
<path id="Vector" d="M16 5C13.179 5 10.7833 6.62656 9.66992 9H9.59961L9.45117 9.52344C9.38527 9.7002 9.32525 9.87904 9.27344 10.0625C9.26704 10.0823 9.25808 10.1012 9.25195 10.1211L5.59961 7.19922L4.40039 8.80078L7.09961 11H4V13H9.06641C9.1079 13.3189 9.17407 13.6296 9.26953 13.9277C9.32202 14.1146 9.38408 14.2966 9.45117 14.4766L9.59961 15H9.66992C10.2061 16.143 11.0335 17.1153 12.0703 17.8125C8.51001 19.3473 6 22.8936 6 27H8C8 22.6 11.6 19 16 19C20.4 19 24 22.6 24 27H26C26 22.8933 23.4904 19.3452 19.9297 17.8105C20.9655 17.1135 21.7943 16.1421 22.3301 15H22.4004L22.4297 14.791C22.7957 13.9377 23 12.996 23 12C23 8.1 19.9 5 16 5ZM16 7C17.661 7 19.0972 7.78565 20.002 9H11.998C12.9028 7.78565 14.339 7 16 7ZM11.0996 11H20.9004C20.9107 11.031 20.9097 11.0706 20.918 11.1035C20.9688 11.3941 21 11.6929 21 12C21 12.3071 20.9688 12.6059 20.918 12.8965C20.9097 12.9294 20.9107 12.969 20.9004 13H11.0996C11.0893 12.969 11.0903 12.9294 11.082 12.8965C11.0312 12.6059 11 12.3071 11 12C11 11.6929 11.0312 11.3941 11.082 11.1035C11.0903 11.0706 11.0893 11.031 11.0996 11ZM11.998 15H20.002C19.0972 16.2144 17.661 17 16 17C14.339 17 12.9028 16.2144 11.998 15Z" fill="black"/>
</g>
</svg>
