<svg width="32" height="32" viewBox="0 0 32 32" fill="none" xmlns="http://www.w3.org/2000/svg">
<g id="users-cog-solid">
<path id="Vector" d="M8 5C4.7 5 2 7.7 2 11C2 13 3 14.8008 4.5 15.8008C1.8 17.2008 0 19.9 0 23H2C2 19.7 4.7 17 8 17C11.3 17 14 19.7 14 23H16C16 19.8 18.6008 17.1 21.8008 17H22C24.5 17 26.6 15.5004 27.5 13.4004C27.5 13.4004 27.4996 13.3008 27.5996 13.3008C27.6996 13.2008 27.6992 13.0004 27.6992 12.9004C27.6992 12.8004 27.7008 12.7992 27.8008 12.6992C27.8008 12.5992 27.9004 12.4008 27.9004 12.3008C27.9004 12.2008 27.9 12.1 28 12C28 11.9 27.9996 11.7992 28.0996 11.6992V11.1992V11.0996C28.0996 7.79961 25.3996 5.09961 22.0996 5.09961C18.7996 5.09961 16.0996 7.79961 16.0996 11.0996C16.0996 13.0996 17.0996 14.9004 18.5996 15.9004C17.0996 16.6004 15.8996 17.7992 15.0996 19.1992C14.2996 17.7992 13.0996 16.6004 11.5996 15.9004C12.9996 14.8004 14 13 14 11C14 7.7 11.3 5 8 5ZM8 7C10.2 7 12 8.8 12 11C12 13.2 10.2 15 8 15C5.8 15 4 13.2 4 11C4 8.8 5.8 7 8 7ZM22 7C24.2 7 26 8.8 26 11C26 13.2 24.2 15 22 15C19.8 15 18 13.2 18 11C18 8.8 19.8 7 22 7ZM24.0996 18V20.0996C23.4996 20.1996 22.9004 20.5008 22.4004 20.8008L20.9004 19.3008L19.5 20.6992L21 22.1992C20.6 22.6992 20.4008 23.3 20.3008 24H18V26H20.0996C20.1996 26.6 20.5008 27.2008 20.8008 27.8008L19.3008 29.3008L20.6992 30.6992L22.1992 29.1992C22.6992 29.4992 23.3004 29.8004 23.9004 29.9004V32H25.9004V29.9004C26.5004 29.8004 27.0996 29.4992 27.5996 29.1992L29.0996 30.6992L30.5 29.3008L29 27.8008C29.4 27.3008 29.5992 26.7 29.6992 26H32V24H29.9004C29.8004 23.4 29.4992 22.7992 29.1992 22.1992L30.6992 20.6992L29.3008 19.3008L27.8008 20.8008C27.3008 20.5008 26.6996 20.1996 26.0996 20.0996V18H24.0996ZM25 22C26.7 22 28 23.3 28 25C28 26.7 26.7 28 25 28C23.3 28 22 26.7 22 25C22 23.3 23.3 22 25 22ZM25 24C24.875 24 24.75 24.0312 24.6328 24.0859C24.5156 24.1406 24.4062 24.2188 24.3125 24.3125C24.2188 24.4062 24.1406 24.5156 24.0859 24.6328C24.0312 24.75 24 24.875 24 25C24 25.125 24.0312 25.25 24.0859 25.3672C24.1406 25.4844 24.2188 25.5938 24.3125 25.6875C24.4062 25.7812 24.5156 25.8594 24.6328 25.9141C24.75 25.9688 24.875 26 25 26C25.5 26 26 25.5 26 25C26 24.5 25.5 24 25 24Z" fill="black"/>
</g>
</svg>
