<svg width="32" height="32" viewBox="0 0 32 32" fill="none" xmlns="http://www.w3.org/2000/svg">
<g id="user-tag-solid">
<path id="Vector" d="M16 5C12.1 5 9 8.1 9 12C9 14.4375 10.21 16.5615 12.0703 17.8125C8.51001 19.3473 6 22.8936 6 27H8C8 22.6 11.6 19 16 19C19.9 19 23 15.9 23 12C23 8.1 19.9 5 16 5ZM16 7C18.8 7 21 9.2 21 12C21 14.8 18.8 17 16 17C13.2 17 11 14.8 11 12C11 9.2 13.2 7 16 7ZM21 19C19.9 19 19 19.9 19 21V25.4004L25 31.4004C25.4 31.8004 25.9004 32 26.4004 32C26.9004 32 27.4008 31.8004 27.8008 31.4004L31.4004 27.8008C31.8004 27.4008 32 26.9004 32 26.4004C32 25.9004 31.8004 25.4 31.4004 25L25.4004 19H21ZM21 21H24.5996L30 26.4004L26.4004 30L21 24.5996V21ZM23 22C22.7348 22 22.4804 22.1054 22.2929 22.2929C22.1054 22.4804 22 22.7348 22 23C22 23.2652 22.1054 23.5196 22.2929 23.7071C22.4804 23.8946 22.7348 24 23 24C23.2652 24 23.5196 23.8946 23.7071 23.7071C23.8946 23.5196 24 23.2652 24 23C24 22.7348 23.8946 22.4804 23.7071 22.2929C23.5196 22.1054 23.2652 22 23 22Z" fill="black"/>
</g>
</svg>
