<svg width="32" height="32" viewBox="0 0 32 32" fill="none" xmlns="http://www.w3.org/2000/svg">
<g id="user-alt-slash-solid">
<path id="Vector" d="M3.69922 2.30078L2.30078 3.69922L9.14258 10.541C9.12965 10.5943 9.11136 10.6455 9.09961 10.6992L11 12.5V12.3984L15.6016 17H15.5L17.8008 19.3008C17.8411 19.3008 17.8815 19.3138 17.9219 19.3203L18.3008 19.6992L19.8008 21.1992L23.9004 25.2988C23.9005 25.2994 23.9002 25.3002 23.9004 25.3008L25.6992 27.0996H25.7012L28.3008 29.6992L29.6992 28.3008L25.5566 24.1582C24.6873 21.3396 22.6047 19.0272 19.9004 17.9004C21.8004 16.6004 23 14.4996 23 12.0996C23 8.19961 19.9 5.09961 16 5.09961C13.4174 5.09961 11.1879 6.48836 9.95508 8.55664L3.69922 2.30078ZM16 7C18.8 7 21 9.2 21 12C21 14.087 19.776 15.8379 17.9941 16.5957L11.4043 10.0059C12.1621 8.22396 13.913 7 16 7ZM9.19922 13.3008C9.59922 15.2008 10.5992 16.8008 12.1992 17.8008C8.49922 19.3008 6 22.9 6 27H8C8 24.1 9.50078 21.5992 11.8008 20.1992C12.5008 21.7992 14.1 23 16 23C16.8 23 17.5992 22.8004 18.1992 22.4004L16.6992 20.9004C16.4992 21.0004 16.2 21 16 21C14.9 21 13.9992 20.3008 13.6992 19.3008L14.9004 19L9.19922 13.3008Z" fill="black"/>
</g>
</svg>
