<svg width="32" height="32" viewBox="0 0 32 32" fill="none" xmlns="http://www.w3.org/2000/svg">
<g id="user-md-solid">
<path id="Vector" d="M8.4375 6L8.15625 6.46875C8.15625 6.46875 5 11.6523 5 20V21H11.0938C11.0273 21.3242 11 21.6562 11 22C11 24.75 13.25 27 16 27C18.75 27 21 24.75 21 22C21 21.6562 20.9727 21.3242 20.9062 21H27V20C27 15.3906 26.2227 12.0117 25.4375 9.78125C24.6523 7.55078 23.8125 6.40625 23.8125 6.40625L23.5 6H8.4375ZM9.65625 8H22.375C22.5195 8.20703 22.9492 8.73047 23.5625 10.4688C24.2109 12.3086 24.793 15.1992 24.9062 19H20C19.0859 17.7891 17.625 17 16 17C14.375 17 12.9141 17.7891 12 19H7.09375C7.32031 12.3516 9.32422 8.57031 9.65625 8ZM15 10V12H13V14H15V16H17V14H19V12H17V10H15ZM16 19C17.668 19 19 20.332 19 22C19 23.668 17.668 25 16 25C14.332 25 13 23.668 13 22C13 20.332 14.332 19 16 19ZM16 21C15.4492 21 15 21.4492 15 22C15 22.5508 15.4492 23 16 23C16.5508 23 17 22.5508 17 22C17 21.4492 16.5508 21 16 21Z" fill="black"/>
</g>
</svg>
