<svg width="32" height="32" viewBox="0 0 32 32" fill="none" xmlns="http://www.w3.org/2000/svg">
<g id="user-minus-solid">
<path id="Vector" d="M14 4C10.1 4 7 7.1 7 11C7 13.4 8.19961 15.6008 10.0996 16.8008C6.49961 18.3008 4 21.9 4 26H6C6 21.6 9.6 18 14 18C15.4 18 16.7008 18.4 17.8008 19C16.7008 20.4 16 22.1 16 24C16 28.4 19.6 32 24 32C28.4 32 32 28.4 32 24C32 19.6 28.4 16 24 16C22.3 16 20.6008 16.6 19.3008 17.5C18.9008 17.2 18.4004 17.0008 17.9004 16.8008C19.8004 15.5008 21 13.4 21 11C21 7.1 17.9 4 14 4ZM14 6C16.8 6 19 8.2 19 11C19 13.8 16.8 16 14 16C11.2 16 9 13.8 9 11C9 8.2 11.2 6 14 6ZM24 18C27.3 18 30 20.7 30 24C30 27.3 27.3 30 24 30C20.7 30 18 27.3 18 24C18 20.7 20.7 18 24 18ZM20 23V25H28V23H20Z" fill="black"/>
</g>
</svg>
