<svg width="32" height="32" viewBox="0 0 32 32" fill="none" xmlns="http://www.w3.org/2000/svg">
<g id="user-graduate-solid">
<path id="Vector" d="M16 3L3 7L6.10547 7.95312L9 8.84375V11.5078C8.875 11.6602 8.78125 11.8086 8.70703 11.9648C8.52734 12.3438 8.41406 12.7656 8.3125 13.2656C8.12109 14.2148 8.01953 15.4414 8.00781 16.7852C7.39844 17.332 7 18.1172 7 19C7 20.2773 7.90625 21.1992 9.03516 21.6289C9.48828 22.9336 10.2422 24.3672 11.3281 25.582C12.5156 26.9062 14.1016 28 16 28C17.8984 28 19.4844 26.9062 20.6719 25.582C21.7578 24.3672 22.5117 22.9336 22.9648 21.6289C24.0938 21.1992 25 20.2773 25 19C25 18.1172 24.6055 17.3203 23.9883 16.7695C23.9766 15.4297 23.875 14.2109 23.6875 13.2656C23.5859 12.7656 23.4727 12.3438 23.293 11.9648C23.2188 11.8086 23.125 11.6602 23 11.5078V8.84375L29 7L16 3ZM16 5.09375L22.2031 7L16 8.90625L9.79688 7L16 5.09375ZM11 9.46094L16 11L16.2969 10.9102L21 9.46094V11.7812C20.9883 11.7969 21 11.8008 20.9531 11.832C20.7969 11.9648 20.4727 12.1562 20.0273 12.3359C19.1328 12.6914 17.7461 13 16 13C14.2539 13 12.8672 12.6914 11.9727 12.3359C11.5273 12.1562 11.2031 11.9648 11.0469 11.832C11 11.8008 11.0117 11.7969 11 11.7812V9.46094ZM10.2656 13.707C10.5547 13.8828 10.8672 14.0469 11.2344 14.1914C12.4102 14.6602 14.0234 15 16 15C17.9766 15 19.5898 14.6602 20.7656 14.1914C21.1328 14.0469 21.4453 13.8828 21.7344 13.707C21.8906 14.5156 22 15.6953 22 17V17.8477L22.5 18.1406C22.8047 18.3125 23 18.6211 23 19C23 19.5352 22.6016 19.9453 22.0781 19.9883L21.4062 20.043L21.207 20.6875C20.875 21.7695 20.1328 23.1836 19.1758 24.25C18.2227 25.3164 17.1094 26 16 26C14.8906 26 13.7773 25.3164 12.8242 24.25C11.8672 23.1836 11.125 21.7695 10.793 20.6875L10.5938 20.043L9.92188 19.9883C9.39844 19.9453 9 19.5352 9 19C9 18.625 9.19922 18.3164 9.50781 18.1406L10.0195 17.8438L10 17V16.9883C10 15.6914 10.1094 14.5156 10.2656 13.707ZM8.17188 17H9.00391L8.16406 17.0195L8.17188 17ZM13 18C12.4492 18 12 18.4492 12 19C12 19.5508 12.4492 20 13 20C13.5508 20 14 19.5508 14 19C14 18.4492 13.5508 18 13 18ZM19 18C18.4492 18 18 18.4492 18 19C18 19.5508 18.4492 20 19 20C19.5508 20 20 19.5508 20 19C20 18.4492 19.5508 18 19 18Z" fill="black"/>
</g>
</svg>
