<svg width="32" height="32" viewBox="0 0 32 32" fill="none" xmlns="http://www.w3.org/2000/svg">
<g id="usps">
<path id="Vector" d="M5.59961 7C19.1996 9.9 23.3004 10.5 23.4004 11.5C25.4004 11.5 25.8992 11.5004 26.1992 11.9004C27.2992 12.9004 25.4004 15.5 25.4004 15.5C25.2004 15.6 3.69922 24 3.69922 24H26.4004L30 7H5.59961ZM4.80078 11L2 24C12.5 18.8 15.8992 17.1004 19.1992 15.9004C22.6992 14.8004 24.3992 14.6996 24.6992 14.5996C24.8992 14.3996 24.5008 14.2008 23.3008 14.3008C20.5008 14.4008 15.9 16.2992 14 17.1992L12.4004 12.1992H22.9004C22.8004 11.1992 17.4992 11.1 10.1992 11H4.80078ZM23.1992 12.0996C23.1992 12.0996 23.0996 12 22.5996 12.5C21.9996 12.8 20.5996 12.8 20.5996 13C20.5996 13.2 24.4008 12.8 25.3008 13C25.8008 13.1 25.1996 14.0992 25.0996 14.6992C24.9996 14.9992 25.1992 14.8992 25.1992 14.6992C26.5992 12.4992 25.9996 12.0996 24.5996 12.0996H23.1992Z" fill="black"/>
</g>
</svg>
