<svg width="32" height="32" viewBox="0 0 32 32" fill="none" xmlns="http://www.w3.org/2000/svg">
<g id="ussunnah">
<path id="Vector" d="M16 2L15.8008 6C15.2008 6 14.5 5.99961 14 6.09961L12.9004 2.30078L13.5996 6.19922C12.9996 6.29922 12.4008 6.50078 11.8008 6.80078L9.90039 3.40039L11.4004 6.90039C10.8004 7.20039 10.2992 7.50078 9.69922 7.80078L7.30078 5.09961L9.5 8.09961C8.9 8.49961 8.4 8.90039 8 9.40039L5 7.30078L7.69922 9.69922C7.29922 10.1992 6.9 10.7008 6.5 11.3008L3.40039 9.90039L6.40039 11.5C6.10039 12.1 5.79961 12.7004 5.59961 13.4004L2.40039 12.8008L5.5 13.6992C5.3 14.3992 5.19961 15.1008 5.09961 15.8008L2 16L5 16.1992V17C5 17.5 4.99961 18.0004 5.09961 18.4004L2.30078 19.1992L5.09961 18.6992C5.19961 19.4992 5.39922 20.2004 5.69922 20.9004L3.40039 22.1992L5.80078 21.1992C6.10078 21.8992 6.50039 22.5992 6.90039 23.1992L5 24.6992L7 23.3008C7.5 24.0008 7.99961 24.4996 8.59961 25.0996L7.30078 27L8.80078 25.3008C9.40078 25.8008 10.1008 26.2992 10.8008 26.6992L9.90039 28.6992L10.9004 26.8008C11.6004 27.2008 12.3992 27.4992 13.1992 27.6992L12.8008 29.8008L13.4004 27.8008C14.2004 28.0008 15.0008 28.0996 15.8008 28.0996L16 30L16.0996 27.9004C16.8996 27.9004 17.8 27.7996 18.5 27.5996L19.0996 29.5996L18.6992 27.5C19.4992 27.3 20.3 26.9996 21 26.5996L22.0996 28.5L21.1992 26.5C21.8992 26.1 22.5992 25.6996 23.1992 25.0996L24.6992 26.8008L23.4004 25C24.0004 24.5 24.5 23.8992 25 23.1992L27 24.6992L25.0996 23C25.4996 22.4 25.8992 21.7 26.1992 21L28.6992 22L26.4004 20.6992C26.7004 19.9992 26.9 19.3 27 18.5L29.6992 19.0996L26.9004 18.3008C26.9004 17.8008 27 17.4004 27 16.9004V16.0996L30 16L26.9004 15.8008C26.8004 15.1008 26.7 14.3992 26.5 13.6992L29.5996 12.8008L26.3008 13.4004C26.1008 12.8004 25.8 12.1 25.5 11.5L28.5 9.90039L25.3008 11.1992C25.0008 10.5992 24.5996 10.0996 24.0996 9.59961L27 7.30078L24 9.40039C23.6 8.90039 23.1 8.49961 22.5 8.09961L24.6992 5.09961L22.1992 7.90039C21.6992 7.50039 21.0996 7.2 20.5996 7L22.0996 3.40039L20.1992 6.80078L18.4004 6.19922L19.0996 2.30078L18 6.09961C17.4 5.99961 16.7992 6 16.1992 6L16 2ZM16 6.90039C21.5 6.90039 26 11.4004 26 16.9004C26 22.5004 21.5 26.9004 16 26.9004C10.5 26.9004 6 22.4004 6 16.9004C6 11.4004 10.5 6.90039 16 6.90039ZM16 8C11.1 8 7.09961 12.0004 7.09961 16.9004C7.09961 21.8004 11.1 25.8008 16 25.8008C20.9 25.8008 24.9004 21.8004 24.9004 16.9004C24.9004 12.0004 20.9 8 16 8ZM20.5 11.5V18.0996C20.5 18.5996 20.5 18.8 21 19C20.8 19.3 20.6008 19.4004 20.3008 19.4004H14C13.9 19.5004 13.8 19.6992 13 20.6992C12.9 20.1992 12.3996 19.4004 12.0996 19.4004H8.59961C8.79961 19.0004 8.79922 18.9996 8.69922 18.5996C8.49922 18.0996 8.60039 17.6008 8.90039 17.3008C9.20039 17.0008 9.59922 16.5008 9.69922 16.3008C9.59922 16.1008 9.50039 15.6996 9.40039 15.5996C9.60039 15.2996 9.89961 15.0008 10.0996 14.8008C10.1996 15.0008 10.3004 15.3 10.4004 15.5C10.5004 15.4 10.6992 15.1996 10.6992 15.0996C10.5992 15.3996 10.5996 15.6008 10.5996 15.8008C10.5996 16.0008 10.7004 16.3004 10.9004 16.9004L11.5996 18.5H12.3008C12.5008 18.5 12.8004 18.9992 13.4004 19.6992C13.5004 19.5992 13.5 19.5004 13.5 19.4004C13.5 19.1004 12.9004 17.9 12.9004 17.5C12.9004 17 13.1992 16.7 13.6992 16C13.6992 16.2 13.5996 16.4 13.5996 16.5C13.5996 16.9 14.0008 17.7 14.3008 18.5H15.3008V18.4004C15.2008 18.3004 15.1 18.1 15 18C15.2 17.7 15.4996 17.2992 15.5996 17.1992C15.7996 17.5992 15.9996 18.2 16.0996 18.5H16.5996C16.4996 18.3 16.4004 18.0004 16.4004 17.9004C16.3004 17.7004 16.1996 17.6 16.0996 17.5C16.2996 17.2 16.5992 16.7992 16.6992 16.6992C16.7992 16.9992 17.2004 17.9 17.4004 18.5H17.9004C17.8004 18.3 17.6004 17.7008 17.4004 17.3008C17.3004 17.1008 17.1996 17.0004 17.0996 16.9004C17.2996 16.6004 17.5992 16.1996 17.6992 16.0996C17.9992 16.8996 18.3996 18 18.5996 18.5H19.6992C19.7992 18.5 20 18.1996 20 18.0996V14.3008C20 14.0008 19.8004 13.4996 19.4004 12.5996C19.6004 12.5996 20 12.2 20.5 11.5ZM22.0996 11.5V17.4004C22.0996 18.5004 22.6996 18.7004 23.0996 18.9004C23.1996 19.0004 23.3992 18.9996 23.6992 19.0996C23.5992 19.1996 23.4004 19.1992 22.9004 19.1992C22.0004 19.3992 21.5 19.1992 21.5 18.1992V14.3008C21.5 14.0008 21.3004 13.4996 20.9004 12.5996C21.2004 12.5996 21.5996 12.2 22.0996 11.5ZM9.5 13.1992C9.5 13.2992 9.59922 13.4996 9.69922 13.5996C9.79922 13.6996 9.90039 13.9 9.90039 14C9.90039 14.1 9.79961 14.2992 9.59961 14.6992C9.49961 14.4992 9.29961 14.2992 9.09961 14.1992C8.99961 14.0992 8.90039 14.0004 8.90039 13.9004C8.90039 13.9004 9.1 13.5992 9.5 13.1992ZM10.5996 13.1992C10.5996 13.2992 10.7008 13.4996 10.8008 13.5996C10.9008 13.6996 11 13.9 11 14C11 14.1 10.8992 14.2992 10.6992 14.6992C10.5992 14.4992 10.3992 14.2992 10.1992 14.1992C10.0992 14.0992 10 14.0004 10 13.9004C10.1 13.9004 10.1996 13.5992 10.5996 13.1992ZM13 14.3008C13 14.4008 13.0992 14.5992 13.1992 14.6992C13.2992 14.7992 13.4004 14.9996 13.4004 15.0996C13.4004 15.1996 13.2992 15.4008 13.1992 15.8008C13.0992 15.6008 12.8992 15.4008 12.6992 15.3008C12.5992 15.2008 12.5 15.1 12.5 15C12.4 15 12.6 14.7008 13 14.3008ZM10.4004 17.5C10.4004 17.5 10.2992 17.6008 10.1992 17.8008C10.1492 17.8508 10.125 17.8996 10.125 17.9746C10.125 18.0496 10.1492 18.1508 10.1992 18.3008C10.1992 18.3508 10.2242 18.4242 10.2617 18.5117C10.2992 18.5992 10.3504 18.7008 10.4004 18.8008H10.9004L10.5996 18.0996C10.5496 17.9496 10.5004 17.8492 10.4629 17.7617C10.4254 17.6742 10.4004 17.6 10.4004 17.5Z" fill="black"/>
</g>
</svg>
