<svg width="32" height="32" viewBox="0 0 32 32" fill="none" xmlns="http://www.w3.org/2000/svg">
<g id="utensil-spoon-solid">
<path id="Vector" d="M23.0938 3.99987C22.6484 4.00768 22.1953 4.07018 21.75 4.15612C19.9727 4.49596 18.1914 5.40221 16.875 6.71862C15.5586 8.03502 14.9414 9.5858 15 11.0936C15.0469 12.2694 15.5039 13.3827 16.2188 14.3436L4.28125 26.2811L5.71875 27.7186L17.6562 15.7811C18.6172 16.496 19.7305 16.953 20.9062 16.9999C22.4141 17.0585 23.9648 16.4413 25.2812 15.1249C26.5977 13.8085 27.5039 12.0272 27.8438 10.2499C28.1836 8.47252 27.9688 6.59362 26.6875 5.31237C26.0469 4.67174 25.2617 4.30065 24.4062 4.12487C23.9805 4.03893 23.5391 3.99205 23.0938 3.99987ZM23.0938 5.99987C23.4023 5.99596 23.6992 6.00768 23.9688 6.06237C24.5078 6.16784 24.957 6.3944 25.2812 6.71862C25.9297 7.36705 26.168 8.5194 25.9062 9.87487C25.6445 11.2303 24.875 12.6874 23.875 13.6874C22.875 14.6874 21.9258 15.035 21 14.9999C20.0742 14.9647 19.1328 14.5077 18.3125 13.6874C17.4922 12.8671 17.0352 11.9256 17 10.9999C16.9648 10.0741 17.3125 9.12487 18.3125 8.12487C19.3125 7.12487 20.7695 6.35534 22.125 6.09362C22.4648 6.02721 22.7852 6.00377 23.0938 5.99987Z" fill="black"/>
</g>
</svg>
