<svg width="32" height="32" viewBox="0 0 32 32" fill="none" xmlns="http://www.w3.org/2000/svg">
<g id="vaadin">
<path id="Vector" d="M4 4C3.4 4 3 4.4 3 5V7.5C3 9.4 4.6 11 6.5 11H13.5996C14.3996 11 15 11.6004 15 12.4004V13C15 13.6 15.4 14 16 14C16.6 14 17 13.6 17 13V12.4004C17 11.6004 17.6004 11 18.4004 11H25.5C27.4 11 29 9.4 29 7.5V5C29 4.4 28.6 4 28 4C27.4 4 27 4.4 27 5V5.59961C27 6.39961 26.3996 7 25.5996 7H19C17.3 7 16 8.3 16 10C16 8.3 14.7 7 13 7H6.40039C5.60039 7 5 6.39961 5 5.59961V5C5 4.4 4.6 4 4 4ZM10.3516 15.0273C10.1625 15.0445 9.97578 15.0992 9.80078 15.1992C9.10078 15.5992 8.79922 16.4992 9.19922 17.1992L14.6992 27.1992C14.8992 27.6992 15.5 28 16 28C16.5 28 17.1008 27.6992 17.3008 27.1992L22.8008 17.1992C23.2008 16.4992 22.8992 15.5992 22.1992 15.1992C21.4992 14.7992 20.5992 15.1008 20.1992 15.8008L16 23.4004L11.8008 15.8008C11.5008 15.2758 10.9187 14.9758 10.3516 15.0273Z" fill="black"/>
</g>
</svg>
