<svg width="32" height="32" viewBox="0 0 32 32" fill="none" xmlns="http://www.w3.org/2000/svg">
<g id="venus-double-solid">
<path id="Vector" d="M11 3C6.58984 3 3 6.58984 3 11C3 15.0703 6.05859 18.4414 10 18.9375V23H6V25H10V29H12V25H20V29H22V25H26V23H22V18.9375C25.9414 18.4414 29 15.0703 29 11C29 6.58984 25.4102 3 21 3C19.4805 3 18.0547 3.44922 16.8438 4.1875C17.3633 4.63281 17.8438 5.13672 18.25 5.6875C19.0781 5.25781 20.0039 5 21 5C24.3086 5 27 7.69141 27 11C27 14.3086 24.3086 17 21 17C17.6914 17 15 14.3086 15 11C15 10.2031 15.1562 9.44531 15.4375 8.75C15.1016 8.08594 14.6172 7.51562 14.0312 7.0625C13.3711 8.22656 13 9.56641 13 11C13 15.0703 16.0586 18.4414 20 18.9375V23H12V18.9062C13.1445 18.7617 14.2148 18.3867 15.1562 17.8125C14.6367 17.3672 14.1562 16.8633 13.75 16.3125C12.9219 16.7422 11.9961 17 11 17C7.69141 17 5 14.3086 5 11C5 7.69141 7.69141 5 11 5C14.3086 5 17 7.69141 17 11C17 11.7969 16.8438 12.5547 16.5625 13.25C16.8984 13.9141 17.3828 14.4844 17.9688 14.9375C18.6289 13.7734 19 12.4336 19 11C19 6.58984 15.4102 3 11 3Z" fill="black"/>
</g>
</svg>
