<svg width="32" height="32" viewBox="0 0 32 32" fill="none" xmlns="http://www.w3.org/2000/svg">
<g id="venus-mars-solid">
<path id="Vector" d="M22 3V5H25.5625L22.1875 8.40625C20.9844 7.50391 19.5312 7 18 7C16.1289 7 14.3828 7.74219 13.0625 9.0625C11.7422 10.3828 11 12.1289 11 14C11 15.8711 11.7422 17.6133 13.0625 18.9375C13.9336 19.8086 14.9688 20.4336 16.125 20.75C16.2383 20.6641 16.3672 20.5703 16.4688 20.4688C16.9023 20.0352 17.1836 19.5117 17.3438 18.9375C16.2539 18.7969 15.2578 18.3203 14.4688 17.5312C13.5234 16.5859 13 15.3359 13 14C13 12.6641 13.5234 11.4141 14.4688 10.4688C15.4141 9.52344 16.6641 9 18 9C19.3359 9 20.5859 9.52344 21.5312 10.4688C22.4766 11.4141 23 12.6641 23 14C23 14.8633 22.7539 15.6719 22.3438 16.4062C22.4414 16.9219 22.5 17.4648 22.5 18C22.5 18.4961 22.457 18.9883 22.375 19.4688C22.5742 19.3086 22.7539 19.1211 22.9375 18.9375C24.2578 17.6133 25 15.8711 25 14C25 12.4688 24.4961 11.0156 23.5938 9.8125L27 6.4375V10H29V3H22ZM15.875 11.25C15.7617 11.3359 15.6328 11.4297 15.5312 11.5312C15.0977 11.9648 14.8164 12.4883 14.6562 13.0625C15.7461 13.2031 16.7422 13.6797 17.5312 14.4688C18.4766 15.4141 19 16.6641 19 18C19 19.3359 18.4766 20.5859 17.5312 21.5312C16.5859 22.4766 15.3359 23 14 23C12.6641 23 11.4141 22.4766 10.4688 21.5312C9.52344 20.5859 9 19.3359 9 18C9 17.1367 9.24609 16.3281 9.65625 15.5938C9.55859 15.0781 9.5 14.5352 9.5 14C9.5 13.5039 9.54297 13.0117 9.625 12.5312C9.42578 12.6914 9.24609 12.8789 9.0625 13.0625C7.74219 14.3867 7 16.1289 7 18C7 19.5312 7.50391 20.9844 8.40625 22.1875L6.71875 23.875L4.71875 21.875L3.28125 23.2812L5.28125 25.2812L3.28125 27.2812L4.71875 28.7188L6.71875 26.7188L8.71875 28.7188L10.125 27.2812L8.125 25.2812L9.8125 23.5938C11.0156 24.5 12.4648 25 14 25C15.8711 25 17.6172 24.2578 18.9375 22.9375C20.2578 21.6172 21 19.8711 21 18C21 16.1289 20.2578 14.3867 18.9375 13.0625C18.0664 12.1914 17.0312 11.5664 15.875 11.25Z" fill="black"/>
</g>
</svg>
