<svg width="32" height="32" viewBox="0 0 32 32" fill="none" xmlns="http://www.w3.org/2000/svg">
<g id="viadeo">
<path id="Vector" d="M15 3C16.4 5.4 17.6996 7.99922 18.5996 10.6992C18.3996 8.09922 17.2 4.5 15 3ZM25.6992 4C24.1992 7.2 21.7996 6.30039 20.0996 7.90039C19.4996 8.40039 19.0996 9.50078 19.0996 10.3008C19.0996 11.0008 19.2992 11.5992 19.6992 12.1992C21.9992 11.6992 24.4004 10.0008 25.4004 7.80078C25.4004 8.00078 25.1996 8.49922 25.0996 8.69922C24.0996 10.3992 22.0008 11.9008 20.3008 12.8008C21.1008 13.5008 22 14 23 14C26.8 14 28.2992 7.5 25.6992 4ZM18.5 10.6992V12.5C18.5 17.1395 17.5538 24.5667 12.6152 26.8652C9.39164 26.2318 7 23.4248 7 20C7 16.1 10.1 13 14 13C14.8 13 15.4992 13.1004 16.1992 13.4004C16.2992 12.8004 16.5008 12.1996 16.8008 11.5996L16.9004 11.5C16.0004 11.2 15 11 14 11C9 11 5 15 5 20C5 25 9 29 14 29C19 29 23 25 23 20C23 18.7 22.6992 17.4008 22.1992 16.3008C22.0992 16.3008 22.0008 16.4 21.8008 16.5C21.4008 16.8 20.9004 16.9996 20.4004 17.0996C20.8004 17.9996 21 19 21 20C21 23.9 17.9 27 14 27C13.9723 27 13.9456 26.9964 13.918 26.9961C17.6969 24.5878 19.5 20.8769 19.5 16.5C19.5 14.5 19.2 12.4992 18.5 10.6992Z" fill="black"/>
</g>
</svg>
