<svg width="32" height="32" viewBox="0 0 32 32" fill="none" xmlns="http://www.w3.org/2000/svg">
<g id="viadeo-square">
<path id="Vector" d="M7.40039 5C6.10039 5 5 6.10039 5 7.40039V24.6992C5 25.8992 6.10039 27 7.40039 27H24.6992C25.9992 27 27.0996 25.8996 27.0996 24.5996V7.40039C26.9996 6.10039 25.8996 5 24.5996 5H7.40039ZM15.3008 7.69922C16.7008 8.59922 17.3996 10.9 17.5996 12.5C17.9996 13.6 18.1992 14.8996 18.1992 16.0996C18.1992 18.8987 17.0995 21.0977 14.7012 22.5977C17.1502 22.6369 19 20.5662 19 18.1992C19 17.5992 18.8996 17.0004 18.5996 16.4004C19.0996 16.3004 19.5004 16.1004 19.9004 15.9004C20.8004 17.7004 20.7004 20.2992 18.9004 22.1992C16.7004 24.5992 12.7996 24.5992 10.5996 22.1992C7.09961 18.3992 9.59922 12.1992 14.6992 12.1992C15.3992 12.1992 16.0992 12.3 16.6992 12.5C16.4992 12.9 16.3008 13.4004 16.3008 13.9004C15.8008 13.7004 15.2992 13.5996 14.6992 13.5996C12.1992 13.5996 10.4004 15.6996 10.4004 18.0996C10.4004 20.2996 11.9004 22.1 13.9004 22.5C17.0004 21.3 17.5996 16.4996 17.5996 13.5996V12.5C16.9996 10.8 16.2008 9.19922 15.3008 7.69922ZM14.7012 22.5977C14.667 22.5971 14.634 22.601 14.5996 22.5996H14.6992C14.7 22.5991 14.7004 22.5982 14.7012 22.5977ZM22.0996 8.19922C23.7996 10.3992 22.9008 14.6992 20.3008 14.6992C19.6008 14.6992 19 14.3004 18.5 13.9004C19.6 13.3004 20.9992 12.2992 21.6992 11.1992C21.7992 10.9992 21.9004 10.7996 21.9004 10.5996C21.3004 11.9996 19.5996 13.1 18.0996 13.5C17.8996 13.1 17.6992 12.7008 17.6992 12.3008C17.6992 11.8008 18.0004 11.0992 18.4004 10.6992C19.5004 9.69922 21.0996 10.2992 22.0996 8.19922Z" fill="black"/>
</g>
</svg>
