<svg width="32" height="32" viewBox="0 0 32 32" fill="none" xmlns="http://www.w3.org/2000/svg">
<g id="vial-solid">
<path id="Vector" d="M18.6875 3.27344L17.2715 4.6875L18.5918 6.00781L5.5 19.0996C3.5 21.0996 3.5 24.5 5.5 26.5C6.5 27.5 7.89922 28 9.19922 28C10.5992 28 11.9004 27.5 12.9004 26.5L25.9922 13.4082L27.2422 14.6562L28.6562 13.2422L18.6875 3.27344ZM19.9922 7.4082L24.5918 12.0078L20.5996 16H11.4004L19.9922 7.4082ZM9.40039 18H18.5996L11.5 25.0996C10.2 26.3996 8.20039 26.3996 6.90039 25.0996C5.60039 23.7996 5.60039 21.8 6.90039 20.5L9.40039 18Z" fill="black"/>
</g>
</svg>
