<svg width="32" height="32" viewBox="0 0 32 32" fill="none" xmlns="http://www.w3.org/2000/svg">
<g id="viber">
<path id="Vector" d="M15.6992 4C13.7992 4 9.0996 4.19961 6.5996 6.59961C4.7996 8.29961 4.09999 10.9 3.99999 14C3.79999 18.9 4.89921 21.9996 6.69921 23.5996C7.09921 23.8996 8.09999 24.7008 9.99999 25.3008V27.8008C9.99999 27.8008 9.9996 28.8 10.5996 29C10.6996 29 10.8004 29.0996 10.9004 29.0996C11.5004 29.0996 11.9992 28.3992 12.6992 27.6992C13.2992 26.9992 13.7996 26.5 14.0996 26H15.5H16.3008C18.2008 26 22.9004 25.8004 25.4004 23.4004C27.2004 21.6004 27.9004 18.9992 27.9004 15.6992C28.0004 15.1992 28 14.6 28 14C27.9 10.3 26.8008 7.80039 25.3008 6.40039C24.7008 5.90039 22.1 4 16.5 4H15.6992ZM15.5 5.90039H16.1992H16.3008H16.4004C21.7004 5.90039 23.7004 7.60078 23.9004 7.80078C25.1004 8.80078 25.8004 11.0004 25.9004 13.9004V14.3008C26.0004 14.9008 26 15.3992 26 15.6992C25.9 18.6992 25.2996 20.7 24.0996 22C21.9996 23.9 17.6004 24 16.4004 24H15.6992H15.5996H15.5H14.5L12.9004 25.8008L11.9004 26.9004L11.6992 27.1992C11.4992 27.3992 11.2 27.8004 11 27.9004V27.6992V23.4004C8.99999 22.9004 8.19999 22.2 7.99999 22C6.59999 20.8 5.79999 17.9 5.99999 14V13C6.19999 10.6 6.80078 9.00039 7.80078 7.90039C9.90078 6.00039 14.3 5.90039 15.5 5.90039ZM15.4004 8.09961C14.9004 8.09961 14.9004 8.80078 15.4004 8.80078C19.1004 8.80078 22.3008 11.3 22.3008 16C22.3008 16.5 23 16.5 23 16C23 10.9 19.6004 7.99961 15.4004 8.09961ZM11.4375 9.02539C11.225 9.00039 11.0008 9.04922 10.8008 9.19922C9.80078 9.69922 8.7996 10.7008 9.0996 11.8008C9.0996 11.8008 9.30038 12.6996 10.4004 14.5996C11.0004 15.4996 11.5 16.3004 12 16.9004C12.5 17.6004 13.2996 18.4 14.0996 19C15.6996 20.3 18.2008 21.6004 19.3008 21.9004C20.3008 22.2004 21.4004 21.1992 21.9004 20.1992C22.1004 19.7992 21.9996 19.3 21.5996 19C20.9996 18.4 20.0008 17.7008 19.3008 17.3008C18.8008 17.0008 18.2 17.2 18 17.5L17.5 18.0996C17.3 18.3996 16.8008 18.4004 16.8008 18.4004C13.5008 17.5004 12.5996 14.0996 12.5996 14.0996C12.5996 14.0996 12.6004 13.7004 12.9004 13.4004L13.5 12.9004C13.8 12.7004 13.9992 12.0996 13.6992 11.5996C13.4992 11.2996 13.2004 10.7004 12.9004 10.4004C12.6004 10.0004 12 9.30078 12 9.30078C11.85 9.15078 11.65 9.05039 11.4375 9.02539ZM16.0996 10.0996C15.5996 9.99961 15.5 10.8008 16 10.8008C18.8 11.0008 20.4008 12.9008 20.3008 15.3008C20.2008 15.8008 21 15.8008 21 15.3008C21.1 12.5008 19.2996 10.1996 16.0996 10.0996ZM16.4004 12C15.9004 11.9 15.9004 12.6992 16.4004 12.6992C17.6004 12.6992 18.1992 13.3996 18.1992 14.5996C18.2992 15.0996 19 15.0996 19 14.5996C18.9 12.9996 18.0004 12 16.4004 12Z" fill="black"/>
</g>
</svg>
