<svg width="32" height="32" viewBox="0 0 32 32" fill="none" xmlns="http://www.w3.org/2000/svg">
<g id="vihara-solid">
<path id="Vector" d="M16 3.69922L8.09961 10H10V12.5234L5.09961 16.1992L7 17.123V20.5273L2 24.3008L6 25.8809V28H8V26H15V28H17V26H24V28H26V25.8848L30.0996 24.3008L25 20.4531V17.1465L27 16.1992L22 12.4492V10H23.9004L16 3.69922ZM16 6.30078L18.1992 8H13.9004L16 6.30078ZM12 10H20V12H12V10ZM11.4004 14H20.6992L23 15.8008L22.6992 16H9.19922L9 15.8008L11.4004 14ZM9 18H23V20H9V18ZM8.30078 22H9H23H23.6992L26 23.6992L25.3008 24H6.69922L6 23.6992L8.30078 22Z" fill="black"/>
</g>
</svg>
