<svg width="32" height="32" viewBox="0 0 32 32" fill="none" xmlns="http://www.w3.org/2000/svg">
<g id="vimeo">
<path id="Vector" d="M27.9883 10.4103C27.8828 12.754 26.25 15.9571 23.0938 20.0275C19.8281 24.2735 17.0703 26.3985 14.8125 26.3985C13.4102 26.3985 12.2266 25.1056 11.2617 22.5196C10.6133 20.1446 9.96875 17.7735 9.32422 15.4025C8.60547 12.8126 7.83594 11.5196 7.01172 11.5196C6.83203 11.5196 6.20312 11.8985 5.12891 12.6525L4 11.1954C5.18359 10.1525 6.35156 9.10948 7.50391 8.06651C9.08203 6.69933 10.2695 5.98058 11.0586 5.90636C12.9258 5.72667 14.0781 7.00402 14.5078 9.7423C14.9727 12.6993 15.2969 14.5353 15.4766 15.254C16.0156 17.7071 16.6094 18.9298 17.2578 18.9298C17.7578 18.9298 18.5117 18.1368 19.5195 16.547C20.5234 14.9532 21.0625 13.7462 21.1367 12.9142C21.2773 11.5431 20.7383 10.8556 19.5195 10.8556C18.9453 10.8556 18.3516 10.9845 17.7422 11.2462C18.9219 7.37901 21.1758 5.4962 24.5039 5.60558C26.9688 5.67589 28.1289 7.27745 27.9883 10.4103Z" fill="black"/>
</g>
</svg>
