<svg width="32" height="32" viewBox="0 0 32 32" fill="none" xmlns="http://www.w3.org/2000/svg">
<g id="vimeo-square">
<path id="Vector" d="M5 5V27H27V5H5ZM7 7H25V25H7V7ZM20.8789 10C18.9709 10 17.676 10.8279 17 13.0449C17.844 12.6829 19.0913 12.588 18.9453 14C18.9063 14.478 18.4832 15.3585 17.9062 16.2715C16.3042 18.7985 15.9143 17.954 15.0312 12.375C14.7812 10.804 14.1228 10.0728 13.0508 10.1758C12.1038 10.2618 10.588 11.7691 9 13.1641L9.64648 14C10.2625 13.565 10.6226 13.3906 10.7266 13.3906C11.6226 13.3906 12.083 15.7194 13.168 19.6934C13.723 21.1744 14.3981 21.9141 15.2031 21.9141C16.4991 21.9141 18.084 20.6967 19.957 18.2637C21.769 15.9347 22.8111 14.0968 22.8711 12.7578C22.9221 11.0478 22.1929 10 20.8789 10Z" fill="black"/>
</g>
</svg>
