<svg width="32" height="32" viewBox="0 0 32 32" fill="none" xmlns="http://www.w3.org/2000/svg">
<g id="vine">
<path id="Vector" d="M25.6445 15.9375C25.0742 16.0664 24.5273 16.125 24.0352 16.125C21.2578 16.125 19.1211 14.1875 19.1211 10.8164C19.1211 9.16406 19.7617 8.30469 20.6641 8.30469C21.5234 8.30469 22.0977 9.07422 22.0977 10.6406C22.0977 11.5273 21.8594 12.5039 21.6836 13.082C21.6836 13.082 22.5352 14.5742 24.875 14.1133C25.3711 13.0117 25.6445 11.5859 25.6445 10.332C25.6445 6.96094 23.9258 5 20.7734 5C17.5352 5 15.6406 7.48828 15.6406 10.7734C15.6406 14.0234 17.1602 16.8164 19.668 18.0859C18.6133 20.1953 17.2734 22.0547 15.875 23.4531C13.3359 20.3828 11.043 16.2891 10.1016 8.30469H6.35547C8.08594 21.6055 13.2422 25.8438 14.6055 26.6562C15.375 27.1172 16.0391 27.0977 16.7461 26.6992C17.8516 26.0703 21.1758 22.7461 23.0156 18.8555C23.7891 18.8516 24.7188 18.7656 25.6445 18.5547V15.9375Z" fill="black"/>
</g>
</svg>
