<svg width="32" height="32" viewBox="0 0 32 32" fill="none" xmlns="http://www.w3.org/2000/svg">
<g id="vk">
<path id="Vector" d="M9.08203 5C6.83984 5 5 6.83984 5 9.08203V22.918C5 25.1602 6.83984 27 9.08203 27H22.918C25.1602 27 27 25.1602 27 22.918V9.08203C27 6.83984 25.1602 5 22.918 5H9.08203ZM9.08203 7H22.918C24.0781 7 25 7.92188 25 9.08203V22.918C25 24.0781 24.0781 25 22.918 25H9.08203C7.92188 25 7 24.0781 7 22.918V9.08203C7 7.92188 7.92188 7 9.08203 7ZM15.7188 12.2305C14.9844 12.2227 14.3594 12.2305 14.0078 12.4023C13.7734 12.5156 13.5938 12.7734 13.7031 12.7852C13.8398 12.8047 14.1484 12.8711 14.3125 13.0938C14.5234 13.3789 14.5156 14.0234 14.5156 14.0234C14.5156 14.0234 14.6328 15.7969 14.2305 16.0195C13.9531 16.1719 13.5742 15.8633 12.7539 14.4531C12.3359 13.7266 12.0195 12.9258 12.0195 12.9258C12.0195 12.9258 11.9609 12.7773 11.8516 12.6992C11.7188 12.6016 11.5352 12.5703 11.5352 12.5703L9.57812 12.582C9.57812 12.582 9.28516 12.5938 9.17969 12.7188C9.08203 12.8359 9.17188 13.0664 9.17188 13.0664C9.17188 13.0664 10.7031 16.6484 12.4375 18.4531C14.0273 20.1094 15.832 20 15.832 20H16.6523C16.6523 20 16.8984 19.9727 17.0234 19.8398C17.1406 19.7148 17.1367 19.4805 17.1367 19.4805C17.1367 19.4805 17.1211 18.3828 17.6289 18.2188C18.1328 18.0625 18.7734 19.2812 19.457 19.75C19.9766 20.1055 20.3711 20.0273 20.3711 20.0273L22.1992 20C22.1992 20 23.1523 19.9414 22.6992 19.1875C22.6641 19.1289 22.4375 18.6328 21.3438 17.6172C20.1953 16.5547 20.3477 16.7266 21.7305 14.8867C22.5703 13.7656 22.9062 13.082 22.8008 12.7852C22.6992 12.5078 22.082 12.582 22.082 12.582L20.0234 12.5938C20.0234 12.5938 19.8711 12.5742 19.7578 12.6406C19.6484 12.707 19.5781 12.8633 19.5781 12.8633C19.5781 12.8633 19.25 13.7305 18.8164 14.4688C17.9023 16.0234 17.5312 16.1094 17.3828 16.0117C17.0352 15.7852 17.1211 15.1055 17.1211 14.625C17.1211 13.1133 17.3516 12.4883 16.6758 12.3242C16.4531 12.2695 16.2891 12.2344 15.7188 12.2305Z" fill="black"/>
</g>
</svg>
