<svg width="32" height="32" viewBox="0 0 32 32" fill="none" xmlns="http://www.w3.org/2000/svg">
<g id="vnv">
<g clip-path="url(#clip0)">
<path id="Vector" d="M0.599609 12C-0.400391 12 0.0996094 12.9004 0.0996094 12.9004L2.80078 18.5C2.80078 18.5 3.39961 20 5.09961 20H6.90039C8.60039 20 9.19922 18.5 9.19922 18.5L11.9004 12.9004C11.9004 12.9004 12.4004 12 11.4004 12H9.80078C9.20078 12 9.10078 12.4004 8.80078 12.9004L7 16.5996C7 16.5996 6.8 17.3008 6 17.3008C5.2 17.3008 5 16.5996 5 16.5996L3.09961 12.9004C2.79961 12.4004 2.69922 12 2.19922 12H0.599609ZM15.1992 12C13.4992 12 12.9004 13.5 12.9004 13.5L10.1992 19.0996C10.1992 19.0996 9.69922 20 10.6992 20H12.3008C12.8008 20 12.8992 19.5996 13.1992 19.0996L15 15.4004C15 15.4004 15.2 14.6992 16 14.6992C16.7 14.6992 17 15.4004 17 15.4004L18.9004 19.0996C19.1004 19.5996 19.3008 20 19.8008 20H21.4004C22.4004 20 21.9004 19.0996 21.9004 19.0996L19.1992 13.5C19.1992 13.5 18.6004 12 16.9004 12H15.1992ZM20.6992 12C19.6992 12 20.1992 12.9004 20.1992 12.9004L22.9004 18.5C22.9004 18.5 23.4992 20 25.1992 20H26.9004C28.6004 20 29.1992 18.5 29.1992 18.5L31.9004 12.9004C31.9004 12.9004 32.4008 12 31.3008 12H29.6992C29.1992 12 29.1008 12.4004 28.8008 12.9004L27 16.5996C27 16.5996 26.8 17.3008 26 17.3008C25.3 17.3008 25 16.5996 25 16.5996L23.1992 12.9004C22.8992 12.4004 22.8008 12 22.3008 12H20.6992Z" fill="black"/>
</g>
</g>
<defs>
<clipPath id="clip0">
<rect width="32" height="32" fill="white"/>
</clipPath>
</defs>
</svg>
