<svg width="32" height="32" viewBox="0 0 32 32" fill="none" xmlns="http://www.w3.org/2000/svg">
<g id="voicemail-solid">
<path id="Vector" d="M8 9C4.14453 9 1 12.1445 1 16C1 19.8555 4.14453 23 8 23H24C27.8555 23 31 19.8555 31 16C31 12.1445 27.8555 9 24 9C20.1445 9 17 12.1445 17 16C17 17.957 17.8203 19.7266 19.125 21H12.875C14.1797 19.7266 15 17.957 15 16C15 12.1445 11.8555 9 8 9ZM8 11C10.7734 11 13 13.2266 13 16C13 18.7734 10.7734 21 8 21C5.22656 21 3 18.7734 3 16C3 13.2266 5.22656 11 8 11ZM24 11C26.7734 11 29 13.2266 29 16C29 18.7734 26.7734 21 24 21C21.2266 21 19 18.7734 19 16C19 13.2266 21.2266 11 24 11Z" fill="black"/>
</g>
</svg>
