<svg width="32" height="32" viewBox="0 0 32 32" fill="none" xmlns="http://www.w3.org/2000/svg">
<g id="volume-up-solid">
<path id="Vector" d="M17 3.59375L15.2812 5.28125L9.5625 11H5V21H9.5625L15.2812 26.7188L17 28.4062V3.59375ZM23.8125 8.1875L22.4062 9.59375C25.9258 13.1133 25.9258 18.7617 22.4062 22.2812L23.8125 23.7188C28.0938 19.4375 28.0938 12.4688 23.8125 8.1875ZM15 8.4375V23.5625L10.7188 19.2812L10.4062 19H7V13H10.4062L10.7188 12.7188L15 8.4375ZM20.9062 11.0938L19.5 12.5C21.4102 14.4102 21.4023 17.5742 19.4688 19.5938L20.9375 21C23.6016 18.2188 23.5938 13.7812 20.9062 11.0938Z" fill="black"/>
</g>
</svg>
