<svg width="32" height="32" viewBox="0 0 32 32" fill="none" xmlns="http://www.w3.org/2000/svg">
<g id="volume-down-solid">
<path id="Vector" d="M15 4.59375L13.2812 6.28125L8.5625 11H4V21H8.5625L13.2812 25.7188L15 27.4062V4.59375ZM13 9.4375V22.5625L9.71875 19.2812L9.40625 19H6V13H9.40625L9.71875 12.7188L13 9.4375ZM18.5 12.0312L17.0625 13.4688C17.6406 14.1641 18 15.0273 18 16C18 16.9727 17.6406 17.8359 17.0625 18.5312L18.5 19.9688C19.4375 18.9102 20 17.5234 20 16C20 14.4766 19.4375 13.0898 18.5 12.0312Z" fill="black"/>
</g>
</svg>
