<svg width="32" height="32" viewBox="0 0 32 32" fill="none" xmlns="http://www.w3.org/2000/svg">
<g id="vr-cardboard-solid">
<path id="Vector" d="M8 5C6.17188 5 4.99609 6.07422 4.5 7.0625C4.30078 7.45703 4.19531 7.83203 4.125 8.15625C2.90625 8.53906 2 9.66406 2 11V24C2 25.6445 3.35547 27 5 27H12C13.3203 27 14.5195 26.2031 15.0625 25H16.9375C17.4766 26.2031 18.6797 27 20 27H27C28.6445 27 30 25.6445 30 24V11C30 9.66406 29.0938 8.53906 27.875 8.15625C27.8047 7.83203 27.6992 7.45703 27.5 7.0625C27.0039 6.07812 25.8203 5 24 5H8ZM8 7H24C25.1484 7 25.457 7.42188 25.7188 7.9375C25.7305 7.96094 25.7383 7.97656 25.75 8H6.25C6.26172 7.97656 6.26953 7.96094 6.28125 7.9375C6.53906 7.42578 6.83984 7 8 7ZM5 10H27C27.5664 10 28 10.4336 28 11V24C28 24.5664 27.5664 25 27 25H20C19.457 25 18.9648 24.668 18.75 24.1562L17.7188 21.4062V21.375L17.6875 21.3438C17.3906 20.6484 16.7266 20.1875 15.9688 20.1875C15.207 20.1875 14.5156 20.6484 14.2188 21.3438L14.1875 21.375V21.4375L13.25 24.1562C13.0312 24.668 12.543 25 12 25H5C4.43359 25 4 24.5664 4 24V11C4 10.4336 4.43359 10 5 10ZM10 13C7.80078 13 6 14.8008 6 17C6 19.1992 7.80078 21 10 21C12.1992 21 14 19.1992 14 17C14 14.8008 12.1992 13 10 13ZM22 13C19.8008 13 18 14.8008 18 17C18 19.1992 19.8008 21 22 21C24.1992 21 26 19.1992 26 17C26 14.8008 24.1992 13 22 13ZM10 15C11.1172 15 12 15.8828 12 17C12 18.1172 11.1172 19 10 19C8.88281 19 8 18.1172 8 17C8 15.8828 8.88281 15 10 15ZM22 15C23.1172 15 24 15.8828 24 17C24 18.1172 23.1172 19 22 19C20.8828 19 20 18.1172 20 17C20 15.8828 20.8828 15 22 15ZM15.9688 22.4375L16.1875 23H15.7812L15.9688 22.4375Z" fill="black"/>
</g>
</svg>
