<svg width="32" height="32" viewBox="0 0 32 32" fill="none" xmlns="http://www.w3.org/2000/svg">
<g id="water-solid">
<path id="Vector" d="M0 7C0 8.625 1.83203 10 4 10C5.1875 10 6.26172 9.58203 7 8.94141C7.73828 9.58203 8.8125 10 10 10C11.1875 10 12.2617 9.58203 13 8.94141C13.7383 9.58203 14.8125 10 16 10C17.1875 10 18.2617 9.58203 19 8.94141C19.7383 9.58203 20.8125 10 22 10C23.1875 10 24.2617 9.58203 25 8.94141C25.7383 9.58203 26.8125 10 28 10C30.168 10 32 8.625 32 7H30C30 7.30469 29.2422 8 28 8C26.7773 8 26 7.29688 26 7H24C24 7.30469 23.2422 8 22 8C20.7773 8 20 7.29688 20 7H18C18 7.30469 17.2422 8 16 8C14.7773 8 14 7.29688 14 7H12C12 7.30469 11.2461 8 10 8C8.77734 8 8 7.29688 8 7H6C6 7.30469 5.24609 8 4 8C2.77734 8 2 7.29688 2 7H0ZM0 15C0 16.625 1.83203 18 4 18C5.1875 18 6.26172 17.582 7 16.9414C7.73828 17.582 8.8125 18 10 18C11.1875 18 12.2617 17.582 13 16.9414C13.7383 17.582 14.8125 18 16 18C17.1875 18 18.2617 17.582 19 16.9414C19.7383 17.582 20.8125 18 22 18C23.1875 18 24.2617 17.582 25 16.9414C25.7383 17.582 26.8125 18 28 18C30.168 18 32 16.625 32 15H30C30 15.3047 29.2422 16 28 16C26.7773 16 26 15.2969 26 15H24C24 15.3047 23.2422 16 22 16C20.7773 16 20 15.2969 20 15H18C18 15.3047 17.2422 16 16 16C14.7773 16 14 15.2969 14 15H12C12 15.3047 11.2461 16 10 16C8.77734 16 8 15.2969 8 15H6C6 15.3047 5.24609 16 4 16C2.77734 16 2 15.2969 2 15H0ZM0 23C0 24.625 1.83203 26 4 26C5.1875 26 6.26172 25.582 7 24.9414C7.73828 25.582 8.8125 26 10 26C11.1875 26 12.2617 25.582 13 24.9414C13.7383 25.582 14.8125 26 16 26C17.1875 26 18.2617 25.582 19 24.9414C19.7383 25.582 20.8125 26 22 26C23.1875 26 24.2617 25.582 25 24.9414C25.7383 25.582 26.8125 26 28 26C30.168 26 32 24.625 32 23H30C30 23.3047 29.2422 24 28 24C26.7773 24 26 23.2969 26 23H24C24 23.3047 23.2422 24 22 24C20.7773 24 20 23.2969 20 23H18C18 23.3047 17.2422 24 16 24C14.7773 24 14 23.2969 14 23H12C12 23.3047 11.2461 24 10 24C8.77734 24 8 23.2969 8 23H6C6 23.3047 5.24609 24 4 24C2.77734 24 2 23.2969 2 23H0Z" fill="black"/>
</g>
</svg>
