<svg width="32" height="32" viewBox="0 0 32 32" fill="none" xmlns="http://www.w3.org/2000/svg">
<g id="waze">
<path id="Vector" d="M17.6992 4C12.6992 4 7.59961 7.30078 6.59961 12.3008C5.99961 15.3008 6.80078 18.0996 4.30078 18.0996C3.20078 18.0996 2.49922 19.4008 3.19922 20.3008C4.59922 22.2008 6.50039 23.3 8.40039 24L9.01563 24.2461C8.98013 24.5938 9.01793 24.945 9.12658 25.2772C9.23524 25.6094 9.41233 25.9151 9.64643 26.1746C9.88053 26.4341 10.1664 26.6416 10.4857 26.7838C10.805 26.926 11.1505 26.9996 11.5 27C12.0755 26.999 12.6331 26.7995 13.0786 26.4352C13.5241 26.0708 13.8302 25.5639 13.9453 25H17.9004H18.0527C18.1679 25.5642 18.4743 26.0714 18.9202 26.4358C19.3661 26.8002 19.9241 26.9995 20.5 27C20.8961 26.9999 21.2866 26.9057 21.6392 26.7251C21.9917 26.5446 22.2964 26.2828 22.5279 25.9614C22.7595 25.64 22.9114 25.2682 22.971 24.8766C23.0307 24.4849 22.9964 24.0848 22.8711 23.709C27.0608 21.5787 29.3887 17.3379 28.5996 12.8008C27.9996 7.70078 22.9992 4 17.6992 4ZM17.6992 6C22.1992 6 26.2004 9.10078 26.9004 13.3008C27.5004 16.9008 25.5996 20.3996 22.0996 22.0996L21.6465 22.2812C21.2923 22.0973 20.8991 22.0009 20.5 22C20.1122 22.0003 19.7298 22.0908 19.383 22.2644C19.0363 22.4379 18.7346 22.6898 18.502 23C18.5013 23 18.5007 23 18.5 23H18.0996H13.9004C13.778 23 13.6209 22.9841 13.4805 22.9785C13.2474 22.6746 12.9476 22.4283 12.6042 22.2586C12.2608 22.089 11.883 22.0005 11.5 22C11.0141 22.0009 10.539 22.1435 10.1328 22.4102C10.1223 22.4067 10.11 22.4038 10.0996 22.4004L9.19922 22.0996C7.79922 21.5996 6.59961 20.9004 5.59961 19.9004C7.99961 19.2004 8.20079 16.4008 8.30079 14.8008C8.40078 14.1008 8.4 13.3992 8.5 12.6992C9.4 8.49922 13.7992 6 17.6992 6ZM14.5 11C14.1022 11 13.7206 11.158 13.4393 11.4393C13.158 11.7206 13 12.1022 13 12.5C13 12.8978 13.158 13.2794 13.4393 13.5607C13.7206 13.842 14.1022 14 14.5 14C14.8978 14 15.2794 13.842 15.5607 13.5607C15.842 13.2794 16 12.8978 16 12.5C16 12.1022 15.842 11.7206 15.5607 11.4393C15.2794 11.158 14.8978 11 14.5 11ZM20.5 11C20.1022 11 19.7206 11.158 19.4393 11.4393C19.158 11.7206 19 12.1022 19 12.5C19 12.8978 19.158 13.2794 19.4393 13.5607C19.7206 13.842 20.1022 14 20.5 14C20.8978 14 21.2794 13.842 21.5607 13.5607C21.842 13.2794 22 12.8978 22 12.5C22 12.1022 21.842 11.7206 21.5607 11.4393C21.2794 11.158 20.8978 11 20.5 11ZM13.6055 14.9785C13.543 14.9691 13.4754 14.975 13.4004 15C13.1004 15.1 12.9 15.2996 13 15.5996C13.5 17.8996 15.7 19 17.5 19C19.3 19 21.5 17.8996 22 15.5996C22 15.2996 21.8996 15.1 21.5996 15C21.2996 15 21.1 15.1004 21 15.4004C20.6 17.2004 18.9 18 17.5 18C16.1 18 14.4 17.2004 14 15.4004C13.925 15.1754 13.793 15.0066 13.6055 14.9785Z" fill="black"/>
</g>
</svg>
