<svg width="32" height="32" viewBox="0 0 32 32" fill="none" xmlns="http://www.w3.org/2000/svg">
<g id="weebly">
<path id="Vector" d="M6.5 6C5.9 6 5.40078 6.10078 4.80078 6.30078C2.50078 7.20078 1.40078 9.89922 2.30078 12.1992L6.80078 23.1992C7.50078 24.8992 9.10039 26 10.9004 26H11C12.8 26 14.3996 25.0004 15.0996 23.4004L16 21L16.9004 23.4004C17.6004 25.0004 19.2 26 21 26H21.0996C22.8996 26 24.4992 24.8992 25.1992 23.1992L29.6992 12.1992C30.5992 9.89922 29.4992 7.30078 27.1992 6.30078C26.5992 6.10078 26.1 6 25.5 6C23.7 6 22.0008 7.10078 21.3008 8.80078L20.6992 10.5L20 8.59961C19.3 6.99961 17.7 6 16 6C15.4 6 14.6996 6.10039 14.0996 6.40039C13.0996 6.90039 12.4004 7.59961 11.9004 8.59961L11.8008 8.69922L11.0996 10.5996L10.5 8.90039C10 7.10039 8.3 6 6.5 6ZM6.5 8C7.5 8 8.40078 8.6 8.80078 9.5L9.30078 11.0996L11.0996 16.5996L13.0996 11.1992L13.6992 9.59961V9.5V9.40039C13.8992 9.00039 14.3 8.49922 15 8.19922C15.3 8.09922 15.6 8 16 8C17 8 17.8008 8.60039 18.3008 9.40039L19 11.1992L21 16.5996L22.8008 11.0996L23.3008 9.5C23.6008 8.6 24.5 8 25.5 8C25.8 8 26.1004 8.09922 26.4004 8.19922C27.0004 8.49922 27.5008 8.9 27.8008 9.5C28.1008 10.1 28.1008 10.8004 27.8008 11.4004L23.3008 22.4004C22.9008 23.4004 21.9996 24 21.0996 24H21C20 24 19.1992 23.3996 18.6992 22.5996L17.8008 20.3008L16 15.4004L14.0996 20.3008L13.1992 22.5996C12.7992 23.3996 12 24 11 24C10 24 9.09922 23.4004 8.69922 22.4004L4.19922 11.4004C3.89922 10.8004 3.99922 10.1 4.19922 9.5C4.49922 8.9 4.89961 8.39922 5.59961 8.19922C5.89961 8.09922 6.2 8 6.5 8Z" fill="black"/>
</g>
</svg>
