<svg width="32" height="32" viewBox="0 0 32 32" fill="none" xmlns="http://www.w3.org/2000/svg">
<g id="weibo">
<path id="Vector" d="M21.9375 6.28133C21.3945 6.25398 20.8477 6.29305 20.3125 6.40633C19.8164 6.5118 19.4883 7.00398 19.5938 7.50008C19.6992 7.99617 20.1914 8.3243 20.6875 8.21883C22.2148 7.89461 23.8789 8.35555 25 9.59383C26.1172 10.836 26.418 12.547 25.9375 14.0313C25.7812 14.5157 26.0469 15.0313 26.5312 15.1876C27.0117 15.3438 27.5312 15.0743 27.6875 14.5938C28.3594 12.504 27.9531 10.1212 26.375 8.37508C25.1914 7.06648 23.5703 6.35945 21.9375 6.28133ZM13.6562 9.03133C11.9805 9.21101 9.64062 10.5157 7.5625 12.5938C5.30078 14.8595 4 17.2696 4 19.3438C4 23.3126 9.08203 25.7188 14.0625 25.7188C20.5898 25.7188 24.9375 21.918 24.9375 18.9063C24.9375 17.086 23.4102 16.0509 22.0312 15.6251C21.6914 15.5235 21.4492 15.4766 21.625 15.0313C22.0078 14.0665 22.0703 13.2188 21.6562 12.6251C20.8789 11.5118 18.7227 11.5704 16.2812 12.5938C16.2812 12.5938 15.5234 12.9532 15.7188 12.3438C16.0938 11.1368 16.0234 10.1173 15.4375 9.53133C15.0234 9.11726 14.418 8.9493 13.6562 9.03133ZM21.7812 9.53133C21.5156 9.51961 21.2617 9.53914 21 9.59383C20.5703 9.68367 20.2812 10.1329 20.375 10.5626C20.4688 10.9884 20.8867 11.2501 21.3125 11.1563C21.8242 11.047 22.4062 11.211 22.7812 11.6251C23.1562 12.0391 23.2539 12.5977 23.0938 13.0938C22.9609 13.5079 23.1797 13.9571 23.5938 14.0938C24.0078 14.2266 24.4609 14.0079 24.5938 13.5938C24.9219 12.5782 24.707 11.4141 23.9375 10.5626C23.3633 9.92586 22.5781 9.56648 21.7812 9.53133ZM14.5938 14.8126C17.9141 14.9298 20.5859 16.5938 20.8125 18.8751C21.0703 21.4845 18.0664 23.922 14.0938 24.3126C10.1211 24.7032 6.66406 22.8907 6.40625 20.2813C6.14844 17.672 9.18359 15.2345 13.1562 14.8438C13.6523 14.793 14.1211 14.797 14.5938 14.8126ZM13.0312 16.7501C11.5938 16.8868 10.2422 17.7188 9.625 18.9688C8.78906 20.668 9.58984 22.5704 11.5 23.1876C13.4805 23.8243 15.8125 22.836 16.625 21.0001C17.4258 19.2071 16.4258 17.379 14.4688 16.8751C13.9961 16.754 13.5117 16.7032 13.0312 16.7501ZM13.9375 18.9376C14 18.9376 14.0352 18.9454 14.0938 18.9688C14.3359 19.0587 14.4453 19.3243 14.3125 19.5626C14.1719 19.8009 13.8672 19.9102 13.625 19.8126C13.3867 19.7149 13.3047 19.4532 13.4375 19.2188C13.543 19.043 13.75 18.9415 13.9375 18.9376ZM12.0938 19.5001C12.2617 19.504 12.4414 19.5274 12.5938 19.5938C13.2148 19.8595 13.4102 20.5704 13.0312 21.1876C12.6484 21.8009 11.8398 22.0938 11.2188 21.8126C10.6094 21.5352 10.4297 20.8165 10.8125 20.2188C11.0977 19.7735 11.5938 19.4923 12.0938 19.5001Z" fill="black"/>
</g>
</svg>
