<svg width="32" height="32" viewBox="0 0 32 32" fill="none" xmlns="http://www.w3.org/2000/svg">
<g id="weight-solid">
<path id="Vector" d="M4 6V26H28V6H4ZM6 8H26V24H6V8ZM16 10C11.668 10 8.4375 12.1562 8.4375 12.1562L7.65625 12.6875L8.15625 13.5L11.1562 18.5L11.4375 19H20.5625L20.8438 18.5L23.8438 13.5L24.3438 12.6875L23.5625 12.1562C23.5625 12.1562 20.332 10 16 10ZM16 12C18.8242 12 20.6875 12.9062 21.5938 13.4062L19.4688 17H17.625L18.9062 14.4375L17.0938 13.5625L15.375 17H12.5312L10.4062 13.4062C11.3125 12.9062 13.1758 12 16 12Z" fill="black"/>
</g>
</svg>
