<svg width="32" height="32" viewBox="0 0 32 32" fill="none" xmlns="http://www.w3.org/2000/svg">
<g id="weight-hanging-solid">
<path id="Vector" d="M16 5C14.3555 5 13 6.35547 13 8C13 8.35156 13.0742 8.68359 13.1875 9H8.1875L8.03125 9.8125L5.03125 24.8125L5 24.9062V27H27V24.9062L26.9688 24.8125L23.9688 9.8125L23.8125 9H18.8125C18.9258 8.68359 19 8.35156 19 8C19 6.35547 17.6445 5 16 5ZM16 7C16.5625 7 17 7.4375 17 8C17 8.5625 16.5625 9 16 9C15.4375 9 15 8.5625 15 8C15 7.4375 15.4375 7 16 7ZM9.8125 11H22.1875L25 25H7L9.8125 11Z" fill="black"/>
</g>
</svg>
