<svg width="32" height="32" viewBox="0 0 32 32" fill="none" xmlns="http://www.w3.org/2000/svg">
<g id="weixin">
<path id="Vector" d="M14 5C8.57812 5 4 8.71094 4 13.5C4 15.1172 4.59375 16.6016 5.5 17.875L5.125 20.7812L4.90625 22.5312L6.5 21.8438L9 20.8125C10.25 21.4297 11.6562 21.8203 13.1562 21.9375C13.8867 24.8906 16.9766 27 20.5 27C21.9531 27 23.2812 26.5898 24.4375 25.9688L25.625 26.6562L27.3438 27.5938L27.0938 25.6562L26.875 23.8438C27.5391 22.8906 28 21.8008 28 20.5938C28 18.0352 26.293 15.8906 23.875 14.8438C23.9609 14.4062 24 13.9688 24 13.5C24 8.71094 19.4219 5 14 5ZM14 7C18.5195 7 22 10.0078 22 13.5C22 13.7656 21.9805 14.0273 21.9375 14.2812C21.4648 14.1992 20.9961 14.1562 20.5 14.1562C16.6992 14.1562 13.4102 16.6172 13.0312 19.9375C11.7109 19.8047 10.5 19.4258 9.46875 18.8438L9.03125 18.625L8.59375 18.8125L7.3125 19.3438L7.53125 17.8125L7.5625 17.375L7.3125 17.0625C6.47266 16.0234 6 14.8047 6 13.5C6 10.0078 9.48047 7 14 7ZM10.5625 9.15625C9.78516 9.15625 9.15625 9.78516 9.15625 10.5625C9.15625 11.3398 9.78516 12 10.5625 12C11.3398 12 11.9688 11.3398 11.9688 10.5625C11.9688 9.78516 11.3398 9.15625 10.5625 9.15625ZM17.25 9.15625C16.4727 9.15625 15.8125 9.78516 15.8125 10.5625C15.8125 11.3398 16.4727 12 17.25 12C18.0273 12 18.6562 11.3398 18.6562 10.5625C18.6562 9.78516 18.0273 9.15625 17.25 9.15625ZM20.5 16.1562C23.6406 16.1562 26 18.25 26 20.5938C26 21.4805 25.6797 22.2852 25.0938 23L24.8125 23.3438L24.875 23.75L24.9062 23.9375L24.4375 23.6875L23.9375 24.0312C23.0039 24.6367 21.8125 25 20.5 25C17.3594 25 15 22.9375 15 20.5938C15 18.25 17.3594 16.1562 20.5 16.1562ZM18 17.4375C17.4102 17.4375 16.9062 17.9102 16.9062 18.5C16.9062 19.0898 17.4102 19.5625 18 19.5625C18.5859 19.5625 19.0625 19.0898 19.0625 18.5C19.0625 17.9102 18.5898 17.4375 18 17.4375ZM23.0312 17.4375C22.4453 17.4375 21.9688 17.9102 21.9688 18.5C21.9688 19.0898 22.4414 19.5625 23.0312 19.5625C23.6211 19.5625 24.0938 19.0898 24.0938 18.5C24.0938 17.9102 23.6211 17.4375 23.0312 17.4375Z" fill="black"/>
</g>
</svg>
