<svg width="32" height="32" viewBox="0 0 32 32" fill="none" xmlns="http://www.w3.org/2000/svg">
<g id="whatsapp-square">
<path id="Vector" d="M5 5V27H27V5H5ZM7 7H25V25H7V7ZM16 9C12.1 9 9 12.1 9 16C9 17.3 9.4 18.5 10 19.5L9 23L12.5 22.0996C13.5 22.6996 14.7 23 16 23C19.9 23 23 19.9 23 16C23 12.1 19.9 9 16 9ZM16 10.5C19 10.5 21.5 13 21.5 16C21.5 19 19 21.5 16 21.5C15 21.5 14.1008 21.2008 13.3008 20.8008L12.8008 20.5L12.1992 20.6992L11.1992 21L11.5 20L11.6992 19.4004L11.4004 18.9004C10.9004 18.1004 10.5996 17.0996 10.5996 16.0996C10.4996 12.9996 13 10.5 16 10.5ZM13.8008 13.0996C13.7008 13.0996 13.5004 13.1008 13.4004 13.3008C13.2004 13.4008 12.8008 13.7996 12.8008 14.5996C12.8008 15.2996 13.3004 16.0992 13.4004 16.1992C13.5004 16.2992 14.4996 17.8996 16.0996 18.5996C17.0996 18.9996 17.5 19.1 18 19C18.3 18.9 18.9996 18.5992 19.0996 18.1992C19.1996 17.7992 19.2008 17.4992 19.3008 17.6992C19.3008 17.5992 19.2 17.6 19 17.5C18.8 17.4 18.0004 17 17.9004 17C17.7004 17 17.6 16.8996 17.5 17.0996C17.4 17.1996 17.1 17.5992 17 17.6992C16.9 17.7992 16.8992 17.7992 16.6992 17.6992C15.6992 17.1992 15.1 16.8008 14.5 15.8008C14.4 15.5008 14.7 15.5004 15 14.9004C15.1 14.8004 15 14.6996 15 14.5996C14.9 14.4996 14.6 13.7004 14.5 13.4004C14.3 13.1004 14.1996 13.0996 14.0996 13.0996H13.8008Z" fill="black"/>
</g>
</svg>
