<svg width="32" height="32" viewBox="0 0 32 32" fill="none" xmlns="http://www.w3.org/2000/svg">
<g id="wheelchair-solid">
<path id="Vector" d="M20 3C18.3555 3 17 4.35547 17 6C17 7.64453 18.3555 9 20 9C21.6445 9 23 7.64453 23 6C23 4.35547 21.6445 3 20 3ZM20 5C20.5625 5 21 5.4375 21 6C21 6.5625 20.5625 7 20 7C19.4375 7 19 6.5625 19 6C19 5.4375 19.4375 5 20 5ZM14.5312 7.78125L10.9375 8.1875C10.3438 8.25391 9.82422 8.58984 9.5 9.09375L7 12.9688L8.6875 14.0312L11.1875 10.1875L13.4688 9.9375L12 14.0938C8.61719 14.582 6 17.4844 6 21C6 24.8555 9.14453 28 13 28C16.8555 28 20 24.8555 20 21C20 20.6602 19.9531 20.3281 19.9062 20H21.1875L22.5312 26.0938L24.4688 25.6562L23.1562 19.5625C22.957 18.6484 22.1211 18 21.1875 18H19.3125C18.9141 17.1602 18.3398 16.4297 17.6562 15.8125L18.8125 12.5938C19.3164 11.1992 18.7109 9.63672 17.4062 8.9375L15.7188 8V8.03125C15.3594 7.83984 14.9336 7.73438 14.5312 7.78125ZM15.5312 10.1875L16.4688 10.6875C16.9141 10.9258 17.1094 11.4336 16.9375 11.9062L15.9375 14.6562C15.3594 14.3867 14.7422 14.1953 14.0938 14.0938L15.5312 10.1875ZM13 16C15.7734 16 18 18.2266 18 21C18 23.7734 15.7734 26 13 26C10.2266 26 8 23.7734 8 21C8 18.2266 10.2266 16 13 16Z" fill="black"/>
</g>
</svg>
