<svg width="32" height="32" viewBox="0 0 32 32" fill="none" xmlns="http://www.w3.org/2000/svg">
<g id="whmcs">
<path id="Vector" d="M14.8008 4L14.1992 6.80078L13 7.09961L11 5L9.09961 6.09961L9.90039 9L9.09961 9.80078L6.19922 9L5.09961 10.9004L7.19922 13L6.90039 14L4 14.8008V17L6.90039 17.8008L7.19922 19L5.19922 21L6.19922 22.9004L9.19922 22.0996L9.90039 23L9 25.6992L11 26.9004L13 24.8008L14.0996 25.0996L14.8008 28H17.0996L17.8008 25.0996L19 24.8008L21.0996 26.9004L23.0996 25.6992L22.1992 22.9004L23 22.0996L25.9004 22.9004L26.9004 20.9004L24.8008 19L25 17.8008L28 17.0996V15L25.4004 14.0996L25.8008 15.1992L25.9004 15.5996L25.5996 15.8008L24.5 16.4004L24.1992 16.5996L23.9004 16.3008L23 15.3008H22.9004L22.5996 16.5996L22.5 17H22.0996H21.4004C20.9004 19.5 18.6004 21.4004 15.9004 21.4004C12.7004 21.4004 10.1992 18.7992 10.1992 15.6992C10.1992 12.9992 12.1992 10.7992 14.6992 10.1992V9.5V9.19922L15 9.09961L16.3008 8.69922L15.4004 7.80078L15.1992 7.59961L15.4004 7.30078L16 6.30078L16.1992 6L16.5 6.19922L17.6992 6.5L17.0996 4H14.8008ZM21 4L20.6992 5.40039L20 5.59961L19 4.5L18 5.09961L18.4004 6.59961L17.9004 7L16.4004 6.59961L15.8008 7.59961L16.9004 8.69922L16.8008 9.19922L15.3008 9.59961V10.8008L16.9004 11.1992L17 11.9004L15.8008 13L16.4004 14L18 13.5996L18.4004 14.0996L18 15.5L19.0996 16.0996L20.0996 15L20.6992 15.1992L21.0996 16.6992H22.3008L22.6992 15.1992L23.3008 15L24.4004 16.1992L25.5 15.5L24.9004 14L25.3008 13.5996L26.8008 14.0996L27.3008 13L26.1992 12L26.3008 11.3008L28 10.9004V9.80078L26.5 9.30078L26.4004 8.69922L27.5 7.59961L27 6.59961L25.3008 7L24.9004 6.59961L25.3008 5.09961L24.3008 4.5L23.1992 5.59961L22.5996 5.40039L22.1992 4H21ZM21.5996 7.30078C23.2996 7.30078 24.5996 8.70078 24.5996 10.3008C24.6996 12.0008 23.2996 13.3008 21.5996 13.3008C19.8996 13.3008 18.5996 11.9008 18.5996 10.3008C18.5996 8.60078 19.9996 7.30078 21.5996 7.30078Z" fill="black"/>
</g>
</svg>
