<svg width="32" height="32" viewBox="0 0 32 32" fill="none" xmlns="http://www.w3.org/2000/svg">
<g id="wifi-solid">
<path id="Vector" d="M16 7C10.9844 7 6.45703 9.08203 3.1875 12.4062L4.59375 13.8125C7.5 10.8516 11.5352 9 16 9C20.4648 9 24.5 10.8516 27.4062 13.8125L28.8125 12.4062C25.543 9.08203 21.0156 7 16 7ZM16 12C12.3594 12 9.08203 13.5195 6.71875 15.9375L8.125 17.3438C10.125 15.2891 12.9141 14 16 14C19.0859 14 21.875 15.2891 23.875 17.3438L25.2812 15.9375C22.918 13.5195 19.6406 12 16 12ZM16 17C13.7383 17 11.707 17.957 10.25 19.4688L11.6562 20.875C12.75 19.7266 14.2891 19 16 19C17.7109 19 19.25 19.7266 20.3438 20.875L21.75 19.4688C20.2969 17.957 18.2617 17 16 17ZM16 22C15.1172 22 14.332 22.3906 13.7812 23L16 25.2188L18.2188 23C17.668 22.3906 16.8828 22 16 22Z" fill="black"/>
</g>
</svg>
