<svg width="32" height="32" viewBox="0 0 32 32" fill="none" xmlns="http://www.w3.org/2000/svg">
<g id="wikipedia-w">
<path id="Vector" d="M30 9.21484C30 9.38672 29.8633 9.52344 29.6875 9.52344H28.0078L20.3906 25.7383C20.3398 25.8477 20.2305 25.918 20.1133 25.918C20.1094 25.918 20.1094 25.918 20.1094 25.918C19.9883 25.918 19.8828 25.8516 19.8281 25.7461L16.2148 18.5781L12.3125 25.7578C12.2578 25.8594 12.1562 25.918 12.0312 25.918C11.9141 25.9141 11.8086 25.8477 11.7578 25.7422L4.05469 9.52344H2.3125C2.14062 9.52344 2 9.38672 2 9.21484V8.39062C2 8.21875 2.14062 8.08203 2.3125 8.08203H8.52344C8.69531 8.08203 8.83594 8.21875 8.83594 8.39062V9.21484C8.83594 9.38672 8.69531 9.52344 8.52344 9.52344H7.1875L12.5039 21.7852L15.2695 16.6172L11.7617 9.52734H10.918C10.7461 9.52734 10.6055 9.38672 10.6055 9.21484V8.39453C10.6055 8.22266 10.7461 8.08203 10.918 8.08203H15.5156C15.6875 8.08203 15.8242 8.22266 15.8242 8.39453V9.21484C15.8242 9.38672 15.6875 9.52344 15.5156 9.52344H14.7031L16.7227 13.9375L19.125 9.52344H17.6523C17.4766 9.52344 17.3398 9.38672 17.3398 9.21484V8.39453C17.3398 8.22266 17.4766 8.08203 17.6523 8.08203H22.1172C22.2891 8.08203 22.4258 8.22266 22.4258 8.39453V9.21484C22.4258 9.38672 22.2891 9.52344 22.1172 9.52344H21.1367L17.6328 15.8945L20.4883 21.7695L26 9.52344H24.2539C24.082 9.52344 23.9414 9.38672 23.9414 9.21484V8.39453C23.9414 8.22266 24.082 8.08203 24.2539 8.08203H29.6875C29.8633 8.08203 30 8.22266 30 8.39453V9.21484Z" fill="black"/>
</g>
</svg>
