<svg width="32" height="32" viewBox="0 0 32 32" fill="none" xmlns="http://www.w3.org/2000/svg">
<g id="wind-solid">
<path id="Vector" d="M16 3C12.7734 3 9.95703 5.25781 9.20312 8.34375C7.95703 8.82812 6.94922 9.79688 6.41797 11.0156C2.92188 10.7578 0 13.5547 0 17C0 20.3086 2.69141 23 6 23V21C3.79297 21 2 19.207 2 17C2 14.793 3.79297 13 6 13C6.27734 13 6.56641 13.0352 6.88281 13.1055L7.85938 13.3281L8.07812 12.3477C8.32031 11.2422 9.19922 10.3555 10.3047 10.0938L10.9648 9.9375L11.0625 9.26562C11.418 6.83203 13.543 5 16 5C17.8945 5 19.6055 6.05469 20.4609 7.75L20.8555 8.53125L21.6836 8.24219C22.1523 8.08203 22.582 8 23 8C25.207 8 27 9.79297 27 12C27 12.0391 26.9922 12.0742 26.9844 12.1094C26.9766 12.1797 26.9688 12.25 26.9648 12.3164L26.9023 13.0352L27.5664 13.3203C29.0469 13.9492 30 15.3945 30 17C30 19.207 28.207 21 26 21H23.457C23.7188 21.2891 23.9492 21.6016 24.1484 21.9375C24.3477 22.2734 24.5156 22.6289 24.6484 23H26C29.3086 23 32 20.3125 32 17C32 14.8359 30.8398 12.8672 28.9961 11.8008C28.8906 8.58594 26.2422 6 23 6C22.6094 6 22.2227 6.04297 21.8281 6.125C20.5352 4.17969 18.3711 3 16 3ZM15.5 12C14.3633 12 13.3398 12.5508 12.7031 13.3984L14.3008 14.5977C14.5742 14.2344 15.0039 14 15.5 14C16.3398 14 17 14.6602 17 15.5C17 16.3398 16.3398 17 15.5 17H9V19H15.5C17.4219 19 19 17.4219 19 15.5C19 13.5781 17.4219 12 15.5 12ZM8 21V23H11C11.5664 23 12 23.4336 12 24C12 24.5664 11.5664 25 11 25C10.625 25 10.3086 24.8008 10.1367 24.5L8.40625 25.5117C8.92969 26.3984 9.90234 27 11 27C12.6445 27 14 25.6445 14 24C14 23.6484 13.9258 23.3164 13.8125 23H19C20.1172 23 21 23.8828 21 25C21 26.1172 20.1172 27 19 27C18.1211 27 17.3867 26.4375 17.1133 25.6641L15.2266 26.3281C15.7773 27.8906 17.2656 29 19 29C21.1992 29 23 27.1992 23 25C23 22.8008 21.1992 21 19 21H8Z" fill="black"/>
</g>
</svg>
