<svg width="32" height="32" viewBox="0 0 32 32" fill="none" xmlns="http://www.w3.org/2000/svg">
<g id="wine-bottle-solid">
<path id="Vector" d="M15 3C13.9062 3 13 3.90625 13 5V6.6875C12.9414 6.88281 12.9414 7.08594 13 7.28125V10.4375L12.2188 10.9688C10.8281 11.8945 10 13.4844 10 15.1562V15.6875C9.94141 15.8828 9.94141 16.0859 10 16.2812V22.6875C9.94141 22.8828 9.94141 23.0859 10 23.2812V29H22V23.1875C22.0273 23.0547 22.0273 22.9141 22 22.7812V16.1875C22.0273 16.0547 22.0273 15.9141 22 15.7812V15.1562C22 13.4844 21.1719 11.8945 19.7812 10.9688L19 10.4375V7.1875C19.0273 7.05469 19.0273 6.91406 19 6.78125V5C19 3.90625 18.0938 3 17 3H15ZM15 5H17V6H15V5ZM15 8H17V11.5312L17.4375 11.8438L18.6562 12.6562C19.4492 13.1836 19.918 14.0547 19.9688 15H12.0313C12.082 14.0547 12.5508 13.1836 13.3438 12.6562L14.5625 11.8438L15 11.5312V8ZM12 17H20V22H12V17ZM12 24H20V27H12V24Z" fill="black"/>
</g>
</svg>
