<svg width="32" height="32" viewBox="0 0 32 32" fill="none" xmlns="http://www.w3.org/2000/svg">
<g id="wix">
<path id="Vector" d="M22.0508 9.9494C21.5258 9.92439 21.0996 10.0002 21.0996 10.0002L25.0996 16.0002L21.0996 21.9006C21.0996 21.9006 22.8992 22.2006 23.6992 21.4006C24.1992 20.9006 24.4992 20.4002 26.1992 18.0002C26.4992 17.5002 26.8008 18.0002 26.8008 18.0002C28.3008 20.0002 28.7004 20.8006 29.4004 21.4006C30.3004 22.1006 32 21.9006 32 21.9006L28 16.0002L31.9004 10.0002C31.9004 10.0002 30.2004 9.70018 29.4004 10.5002C28.8004 11.1002 28.2008 11.9002 26.8008 14.0002C26.8008 14.0002 26.4992 14.5002 26.1992 14.0002C24.7992 12.0002 24.1996 11.1002 23.5996 10.5002C23.1996 10.1002 22.5758 9.9744 22.0508 9.9494ZM0.419922 9.99041C0.278516 9.98377 0.1375 9.98768 0 10.0002L3.19922 22.0002C3.19922 22.0002 4.19922 22.001 4.69922 21.801C5.39922 21.501 5.69961 21.1998 6.09961 19.5998C6.49961 18.1998 7.49961 13.8998 7.59961 13.5998C7.79961 12.8998 8.10078 12.8998 8.30078 13.5998C8.40078 13.8998 9.40078 18.0998 9.80078 19.5998C10.2008 21.1998 10.4992 21.501 11.1992 21.801C11.7992 22.101 12.8008 22.0002 12.8008 22.0002L16 10.0002C14.9 9.90018 13.6 10.4994 13.5 11.6994L11.8008 18.0998L10.4004 12.9006C10.1004 11.4006 9.39961 10.5998 8.09961 10.5998C6.79961 10.5998 6.20078 11.3006 5.80078 12.9006L4.40039 18.0998L2.69922 11.6994C2.43672 10.5619 1.40977 10.0369 0.419922 9.99041ZM19.5996 10.0002C19.5996 10.0002 18.8008 9.99939 18.3008 10.1994C17.7008 10.4994 17.5 11.0998 17.5 12.5998C17.5 12.5998 17.8008 12.2998 18.3008 12.0998C19.7008 11.5998 19.5996 10.6002 19.5996 10.0002ZM19.5 12.0002V12.0763C19.5243 12.0328 19.5301 12.0002 19.5 12.0002ZM19.5 12.0763C19.4436 12.1773 19.2498 12.3604 18.9004 12.5002C18.6004 12.7002 18.3 12.8006 18 12.9006C17.3 13.2006 17.4004 13.5998 17.4004 14.5998V22.0002C17.4004 22.0002 18.1992 22.101 18.6992 21.801C19.3992 21.501 19.5 21.0998 19.5 19.5998V12.0763Z" fill="black"/>
</g>
</svg>
