<svg width="32" height="32" viewBox="0 0 32 32" fill="none" xmlns="http://www.w3.org/2000/svg">
<g id="wizards-of-the-coast">
<g clip-path="url(#clip0)">
<path id="Vector" d="M15.9004 6.09961C13.0004 6.09961 10.5992 6.70078 10.1992 6.80078C10.5992 6.90078 10.9008 7.00039 11.3008 7.40039H11.4004C11.7004 7.30039 13.8004 6.69922 16.9004 6.69922C25.9004 6.69922 32 12.5004 32 17.9004V18.4004C32 18.5004 31.9996 18.5004 32.0996 18.4004V17.4004C31.9996 13.2004 27.2004 6.09961 15.9004 6.09961ZM17.0996 7.19922C6.8996 7.19922 0.699988 14.0008 -1.22041e-05 14.8008C-0.100012 14.8008 -0.100012 14.8004 -1.22041e-05 14.9004C2.99999 15.7004 7.80077 19 9.80077 25H9.90038C12.7004 21.5 16.8992 18.5996 21.6992 18.5996C25.6992 18.5996 28.1992 20.6996 28.1992 22.5996C28.1992 23.4996 27.8996 24.3004 27.0996 24.9004C27.7996 24.4004 28.5 23.5 28.5 22.5C28.5 21.4 27.9004 20.5996 27.9004 20.5996C28.3004 20.9996 28.4004 21.4004 28.4004 21.4004C28.7004 19.4004 29.6992 18.3008 29.6992 18.3008C29.5992 17.8008 29.4004 17.4004 29.4004 17.4004C29.8004 17.8004 30.0996 18.8 30.0996 19.5C30.0996 20 29.9 20.6 29.5 21C29.9 20.8 30.3008 20.2992 30.3008 19.1992C30.3008 18.3992 30.0996 17.9004 30.0996 17.9004C30.3996 17.6004 30.7004 17.4008 30.9004 17.3008C30.9004 17.5008 31 17.8 31 18C31 18.1 30.9996 18.1 31.0996 18V17.1992C31.3996 16.9992 31.5996 17 31.5996 17C30.8996 11.5 24.4996 7.19922 17.0996 7.19922ZM15 7.59961L14 10.6992C16.1 9.49922 18.0996 8.90039 20.5996 8.90039C23.9996 9.00039 28.9996 11 30.5996 16C30.0996 14.5 27.6 9.6 21 9.5C18.3 9.4 16.3004 10.3004 14.4004 11.4004L18.6992 10.9004L14 12L15.3008 13L15.0996 12.1992C15.4996 12.0992 17.1004 11.8008 18.4004 11.8008L17.3008 15.8008C18.0008 15.8008 18.2008 15.3992 18.3008 14.6992L18.5 14.5996V15.9004C17.4 16.1004 16.6 16.2004 16 16.4004L16.6992 14.1992L13.5996 12.4004L13.6992 12.8008L14.1992 13C14.4992 13.9 15.1992 15.8004 15.1992 15.9004C15.2992 16.1004 15.4008 16.1996 15.8008 16.0996L15.9004 16.3008C15.1004 16.5008 14.7004 16.7 13.9004 17L13.8008 16.8008C14.0008 16.7008 14.1996 16.5992 14.0996 16.1992C12.8996 13.0992 13 13.2992 13 13.1992L13.0996 13L14.8008 16.4004C14.6008 15.8004 14.8992 16.5 13.1992 12.5L11.0996 16.9004L11.3008 16.1992L9.49999 14.0996L10.9004 18.8008L10.3008 19.1992C4.70077 14.0992 4.9996 14.3008 4.5996 14.3008C4.2996 14.3008 3.90038 14.5996 3.90038 14.5996L3.69921 14.3008C5.19921 13.1008 5.2996 13.0992 6.5996 12.1992L6.80077 12.5996C6.80077 12.5996 6.50038 12.8 6.40038 13C6.10038 13.5 6.49999 13.7008 9.49999 16.8008L8.5996 13.9004L10.5996 13.4004L11.9004 14.9004L12.0996 14.3008L11.9004 13.0996L12.5996 12.9004V13.0996L12.8008 12.5996L7.99999 13.8008L8.5996 13.5996L7.90038 11.5L8.80077 11L10.3008 12.8008L11.6992 12.0996C11.5992 11.6996 11.6 11.3996 11.5 11.0996L12.4004 11.8008L12.5996 11.6992L9.5996 9.59961L10.8008 10.1992C11.7008 9.89922 12.1004 9.79922 12.4004 9.69922L12.5 10.1992C11.9 10.7992 12.6008 10.9992 12.8008 11.1992L12.0996 8.09961L12.6992 9.5C12.8992 9.4 13.0996 9.40039 13.0996 9.40039L13.1992 9.80078C13.1992 9.80078 13.0004 9.90039 12.9004 9.90039L13.3008 10.9004L15 7.59961ZM10.4004 10.1992L10.9004 10.5996C10.9004 10.5996 10.7008 10.5992 10.3008 10.6992L10.1992 10.3008C10.1992 10.3008 10.3004 10.2992 10.4004 10.1992ZM20.2109 11.6426C21.05 11.6191 21.6508 11.75 21.8008 12.5V13.0996C21.8008 13.1996 21.6992 14.0008 21.6992 14.3008V15.3008C21.6992 15.4008 21.7008 15.4996 21.8008 15.5996C21.9008 15.6996 22.0996 15.6992 22.0996 15.6992C22.4996 15.6992 22.5 15.4004 22.5 15.4004C22.5 15.4004 22.6992 12.6996 22.6992 12.5996C22.6992 12.3996 22.5 12.4004 22.5 12.4004V12C22.5 12 23.5004 12.2004 23.9004 12.4004L23.8008 13.3008C23.8008 13.3008 24.2996 12.8008 24.5996 12.8008C24.8996 12.7008 25.3008 13.1992 25.3008 13.1992L24.6992 13.8008C24.0992 13.5008 23.6992 13.8008 23.6992 13.8008C23.3992 15.7008 23.3004 15.8996 23.9004 16.0996V16.3008C23.0004 16.0008 22.9996 16.0004 22.0996 15.9004C21.4996 15.8004 21.5996 15.9008 21.0996 15.8008C20.8996 15.5008 21.0004 15.6004 20.9004 15.4004C20.7004 15.4004 20.5008 15.5992 20.3008 15.6992C20.1008 15.7992 19.9008 15.8008 19.8008 15.8008C19.8008 15.8008 19.2004 15.9008 18.9004 15.3008C18.6004 14.8008 18.8992 13.9992 19.1992 13.6992C19.5992 13.2992 20.3996 13.2008 20.5996 12.8008C20.9996 12.3008 19.8996 11.7 19.0996 12.5H19L19.3008 11.6992C19.6258 11.6742 19.9312 11.6504 20.2109 11.6426ZM26.9004 11.8008C27.5004 12.3008 27.7 12.5008 28 12.8008C26.7 16.5008 26.5008 16.8 26.8008 17L26.6992 17.1992C26.3992 16.9992 26.3008 17.0008 25.8008 16.8008L25.9004 16.5C25.9004 16.5 25.7004 16.6992 25.4004 16.6992C24.4004 16.6992 24.2004 15.0996 24.9004 14.0996C25.5004 13.1996 26.3996 13.3004 26.5996 13.9004L27 12.5996C27.1 12.2996 26.9008 12.1 26.8008 12L26.9004 11.8008ZM17.1484 12.1875C16.75 12.1875 15.9992 12.2992 15.6992 13.1992L16.8008 14.0996L17.4004 12.1992C17.3754 12.1992 17.2812 12.1875 17.1484 12.1875ZM20.6992 13.4004C20.6992 13.4004 20.1 13.7004 20 13.9004C19.8 14.1004 19.5996 14.3992 19.5996 14.6992C19.5996 15.0992 19.7996 15.1992 20.0996 15.1992C20.3996 15.1992 20.5996 15.1004 20.5996 14.9004C20.5996 14.7004 20.6992 13.4004 20.6992 13.4004ZM26.0996 13.8008C25.5996 13.7008 25.2992 15 25.1992 15.5C25.1992 15.8 25.1 16.1992 25.5 16.1992C25.8 16.2992 26 16.3 26.5 14.5C26.6 14.2 26.4996 13.9008 26.0996 13.8008ZM12.8008 13.9004L13.4004 17.4004L12.8008 17.6992L11.5996 16.3008L12.3008 15L12.5 15.1992L12.3008 14.8008L12.8008 13.9004ZM28 15.3008C28.7 15.2008 29.1992 16.0996 29.1992 16.0996L28.8008 16.5L28.6992 16.4004C28.6992 16.3004 28.8008 16.2 28.8008 16C28.8008 15.5 28.1992 15.4008 28.1992 15.8008C28.1992 16.0008 28.5996 16.7992 28.5996 17.1992C28.5996 17.6992 28.3004 18 27.9004 18C27.5004 18 26.9004 17.5 26.9004 17.5L27.0996 16.8008L27.1992 16.9004C27.0992 17.8004 28.1004 17.8992 27.9004 17.1992C27.8004 16.9992 27 15.5008 28 15.3008ZM19.5996 16.3008C19.5996 16.4008 19.5992 16.4996 19.6992 16.5996C19.5992 16.4996 19.5004 16.3996 18.9004 16.5996C18.9004 16.6996 19 16.8996 19 17.0996C19.5 16.9996 19.2 17.1 19.5 17V17.3008C19.3 17.2008 19.4 17.3008 19 17.3008C19 17.4008 19.0996 17.8004 19.0996 17.9004C19.1854 17.9004 19.6221 17.8919 19.8125 17.7656C19.801 17.8027 19.8008 17.8518 19.8008 17.9004C19.6008 17.9004 19.0992 17.9996 18.6992 18.0996V17.9004C18.5992 17.5004 18.5 16.9996 18.5 16.5996C18.5 16.4996 18.5004 16.5004 18.4004 16.4004C18.9004 16.3004 19.3996 16.3008 19.5996 16.3008ZM21.5996 16.3398C21.7558 16.3508 21.9246 16.4 22.0996 16.5C22.1996 16.5 22.1992 16.7008 22.1992 16.8008C21.8992 16.3008 21.1996 16.3996 21.0996 17.0996C20.9996 17.9996 21.7996 18.0996 22.0996 17.5996C22.0996 17.6996 22 17.9004 22 17.9004C21.5 18.2004 20.5992 17.8 20.6992 17C20.7742 16.625 21.1308 16.307 21.5996 16.3398ZM17.6992 16.5C17.5992 16.6 17.5992 16.5992 17.6992 16.6992C17.7992 16.9992 17.9 17.7 18 18C18.1 18.2 18.0992 18.2008 18.1992 18.3008C17.9992 18.4008 17.8992 18.4004 17.6992 18.4004V18.1992C17.5992 17.9992 17.5 17.6 17.5 17.5C17.3 17.5 17.1004 17.5992 16.9004 17.6992C16.9004 17.7992 17.0996 18.2004 17.0996 18.4004C17.0996 18.5004 17.1992 18.4996 17.1992 18.5996C16.9992 18.6996 16.7992 18.7008 16.6992 18.8008C16.7992 18.7008 16.7992 18.6996 16.6992 18.5996C16.5992 18.3996 16.2992 17.3992 16.1992 17.1992C16.1992 17.0992 16.0996 17 16.0996 17C16.2996 16.9 16.3996 16.9008 16.5996 16.8008V17C16.6996 17.2 16.7008 17.4 16.8008 17.5C17.0008 17.4 17.3004 17.4008 17.4004 17.3008L17.3008 16.8008C17.3008 16.7008 17.1992 16.5996 17.1992 16.5996C17.3992 16.4996 17.5992 16.5 17.6992 16.5ZM23.1601 16.5664C23.243 16.5633 23.3254 16.5746 23.4004 16.5996C23.9004 16.6996 24.0004 17.1996 23.9004 17.5996C23.8004 17.9996 23.5 18.1996 23 18.0996C22.6 17.9996 22.3 17.5996 22.5 17.0996C22.65 16.7246 22.9117 16.5758 23.1601 16.5664ZM23.4004 16.6992C23.3004 16.6992 22.9008 16.6992 22.8008 17.1992C22.7008 17.4992 22.7996 17.9004 23.0996 17.9004C23.2996 18.0004 23.4992 17.9004 23.6992 17.4004C23.7992 16.9004 23.6004 16.6992 23.4004 16.6992ZM24.6992 17C24.7992 17 24.9996 17.0996 25.0996 17.0996C25.0996 17.0996 25.1 17.0004 25 18.4004C25.1 18.5004 25.0996 18.4996 25.0996 18.5996C24.9996 18.5996 24.6992 18.5 24.6992 18.5L24.8008 18.4004V18C24.6008 17.9 24.5004 17.9004 24.4004 17.9004C24.3004 18.0004 24.2992 18.0992 24.1992 18.1992V18.4004C24.0992 18.4004 24.0004 18.3008 23.9004 18.3008L24 18.1992C24.2 17.9992 24.4992 17.4992 24.6992 17.1992V17ZM15.5996 17.1992L15.8008 17.4004C15.6008 17.3004 15.3992 17.4 15.1992 17.5C15.7992 19.1 15.8004 19.0996 15.9004 19.0996C15.7004 19.1996 15.6004 19.2008 15.4004 19.3008C15.5004 19.2008 15.5008 19.1992 14.8008 17.6992C14.8008 17.6992 14.4008 17.8996 14.3008 18.0996L14.1992 17.8008C14.5992 17.6008 15.4996 17.1992 15.5996 17.1992ZM24.9004 17.1992C24.8004 17.2992 24.5996 17.5992 24.5996 17.6992C24.6996 17.6992 24.8004 17.8008 24.9004 17.8008V17.1992ZM26.0508 17.5254C26.2008 17.5504 26.3504 17.6508 26.4004 17.8008V18C26.4004 17.7 26.1 17.5992 26 17.6992C25.9 17.7992 26.0996 17.8996 26.0996 18.0996C26.1996 18.1996 26.1992 18.3996 26.1992 18.5996C26.0992 18.8996 25.6004 18.8996 25.4004 18.5996L25.5 18.4004C25.5 18.7004 25.8004 18.8996 25.9004 18.5996C26.0004 18.4996 25.9008 18.2992 25.8008 18.1992C25.7008 18.0992 25.5992 17.8992 25.6992 17.6992C25.7492 17.5492 25.9008 17.5004 26.0508 17.5254ZM27 18C27.2 18.1 27.4996 18.3004 27.5996 18.4004L27.4004 18.6992C27.3004 18.4992 27.3992 18.6 27.1992 18.5C27.0992 18.7 26.9008 19.0008 26.8008 19.3008C26.7008 19.4008 26.7008 19.5 26.8008 19.5L26.5 19.3008L26.5996 19.1992C26.7996 18.8992 26.8996 18.6008 27.0996 18.3008C26.9996 18.2008 27.0008 18.1992 26.8008 18.1992L27 18ZM13.4004 18.1992L13.5996 18.4004H13.3008C13.2008 18.4004 12.8992 18.6008 12.6992 18.8008V18.9004C12.7992 19.0004 12.9 19.2004 13 19.4004C13.5 19.1004 13.3996 19.2 13.5996 19C13.5996 19.1 13.5992 19.1008 13.6992 19.3008C13.4992 19.3008 13.4996 19.2996 13.0996 19.5996C13.5996 20.4996 13.6992 20.4004 13.6992 20.4004C13.5992 20.5004 13.3992 20.5992 13.1992 20.6992C13.2992 20.4992 13.1008 20.3996 12.3008 19.0996C12.2008 18.9996 12.0996 19 12.0996 19C12.4996 18.7 12.9004 18.4992 13.4004 18.1992ZM21.9512 18.8398C19.4287 18.8262 16.3996 19.7129 13.5996 21.9004V22C13.6996 22.2 13.8008 22.5 13.8008 23C17.0008 20.1 20.4 19.2004 23 19.4004C25.9 19.6004 28 21.1008 28 22.8008C28 23.3008 27.9008 23.6008 27.8008 23.8008C27.9008 23.6008 27.9996 23.3008 28.0996 22.8008C28.2996 20.9008 26.1 19.2004 23 18.9004C22.6625 18.8629 22.3115 18.8418 21.9512 18.8398ZM11.418 19.5508C11.9195 19.4805 12.35 19.8746 12.5 20.0996C12.4 20.0996 12.9992 20.8996 12.1992 21.5996C11.5992 21.9996 10.9992 21.8004 10.6992 21.4004C10.2992 20.9004 10.4004 20.2008 10.9004 19.8008C11.0754 19.6508 11.2508 19.5742 11.418 19.5508ZM11.2558 19.8789C11.1621 19.8883 11.075 19.925 11 20C10.9 20.1 10.4 20.3992 11 21.1992C11.2 21.4992 11.6996 21.8 12.0996 21.5C12.3996 21.3 12.4996 20.9008 12.0996 20.3008C11.8746 20.0758 11.5371 19.8508 11.2558 19.8789Z" fill="black"/>
</g>
</g>
<defs>
<clipPath id="clip0">
<rect width="32" height="32" fill="white"/>
</clipPath>
</defs>
</svg>
