<svg width="32" height="32" viewBox="0 0 32 32" fill="none" xmlns="http://www.w3.org/2000/svg">
<g id="wolf-pack-battalion">
<path id="Vector" d="M7.40039 3C6.50039 6.1 7.20039 8.99961 7.40039 9.59961C8.20039 9.29961 9.89922 7.70039 7.69922 5.90039C8.99922 6.30039 9.70078 7.40039 9.80078 8.40039C10.0008 9.80039 8.09961 11 7.09961 11C5.49961 11.1 4 12.7 4 14L5.09961 13.5C4.79961 14.4 4.49922 15.3004 4.69922 16.4004L6 16.0996C5.2 17.3996 5.49961 19.4004 5.59961 20.4004L6.90039 19.6992L7.30078 21.5L8.5 21.1992L9 22.6992L10.3008 21.5996L9.30078 22L8.90039 20.3008L8 20.5996L7.69922 18.9004L6.30078 19.3008C6.10078 18.0008 6.4 16.7996 7 15.5996L5.5 15.1992C6 12.9992 7.29922 12.6 8.69922 12.5C9.19922 14.1 8.99961 15.3996 8.59961 16.5996C12.6996 19.4996 12.4992 22.5992 12.6992 24.1992C12.8992 25.6992 12.9 28.6996 14 29.0996V27.5996L14.3008 27.1992L14.5996 27.8008L15.0996 27L15.6992 28.0996L16.0996 26.9004L16.5996 27.6992L16.9004 27.0996L17.1992 27.5V29C18.2992 28.6 18.3 25.5996 18.5 24.0996C18.7 22.4996 18.4996 19.4 22.5996 16.5C22.1996 15.3 22 14.0004 22.5 12.4004C23.9 12.6004 25.1992 12.8996 25.6992 15.0996L24.1992 15.5C24.7992 16.7 25.1004 17.8992 24.9004 19.1992L23.5 18.8008L23 20.5996L22.0996 20.1992L21.6992 21.9004L20.6992 21.5L22 22.5996L22.4004 21.1992L23.5996 21.5L24 19.6992L25.3008 20.4004C25.3008 19.4004 25.7004 17.4996 24.9004 16.0996L26.1992 16.4004C26.3992 15.3004 26.1008 14.4 25.8008 13.5L27 14C27 12.7 25.5004 11.1 23.9004 11C22.9004 10.9 20.9992 9.70039 21.1992 8.40039C21.2992 7.40039 22.0008 6.20039 23.3008 5.90039C21.1008 7.80039 22.7996 9.29961 23.5996 9.59961C23.7996 8.99961 24.4996 6.1 23.5996 3C21.5996 4.2 19.2 6.3 19 10.5L16.1992 12.3008L16 17L21.1992 14.1992L21.5996 14.5996L20.6992 14.8008L18.5 16.8008L17.6992 16.5L16.3008 19L16.0996 25L17.1992 25.8008L15.5996 26.5996L14 25.8008L15.0996 25L14.9004 18.9004L13.5 16.4004L12.6992 16.6992L10.5 14.6992L9.59961 14.5L10 14.0996L15 17L14.8008 12.3008L12 10.5C11.8 6.3 9.50039 4.2 7.40039 3ZM8.19922 13.5C7.29922 13.6 6.40039 13.9004 5.90039 14.9004C6.60039 15.1004 7.09961 15.1996 8.09961 15.5996C8.09961 14.9996 8.19922 14.2 8.19922 13.5ZM22.8008 13.5C22.8008 14.2 22.9004 14.9996 22.9004 15.5996C23.9004 15.1996 24.3996 15.1004 25.0996 14.9004C24.5996 13.9004 23.8008 13.6 22.8008 13.5ZM8.09961 15.8008C7.09961 16.5008 6.69961 17.4992 6.59961 18.6992C7.19961 18.4992 7.8 18.1992 8.5 18.1992C8.2 17.4992 8.09961 16.7008 8.09961 15.8008ZM22.9004 15.8008C22.9004 16.7008 22.8 17.4992 22.5 18.1992C23.2 18.1992 23.8004 18.4992 24.4004 18.6992C24.3004 17.4992 23.9004 16.5008 22.9004 15.8008ZM8.59961 18.1992C8.39961 18.6992 8.30078 19.2004 8.30078 19.9004L9.5 19.5996C9.2 19.0996 8.89961 18.6992 8.59961 18.1992ZM9.5 19.5996C9.5 20.1996 9.49961 20.6992 9.59961 21.1992C9.99961 21.0992 10.3992 21.0008 10.6992 20.8008C10.2992 20.5008 9.9 19.9996 9.5 19.5996ZM22.4004 18.1992C22.1004 18.6992 21.8 19.0996 21.5 19.5996L22.6992 19.9004C22.6992 19.2004 22.6004 18.6992 22.4004 18.1992ZM21.5 19.5996C21.1 19.9996 20.7008 20.5008 20.3008 20.8008C20.6008 21.0008 21.0004 21.0992 21.4004 21.1992C21.5004 20.6992 21.5 20.1996 21.5 19.5996ZM10.6992 21C10.7992 21.3 10.8004 21.6996 10.9004 22.0996L11.6992 21.5996C11.2992 21.3996 10.9992 21.2 10.6992 21ZM20.3008 21C20.0008 21.2 19.7008 21.3996 19.3008 21.5996L20.0996 22.0996C20.1996 21.6996 20.2008 21.3 20.3008 21Z" fill="black"/>
</g>
</svg>
