<svg width="32" height="32" viewBox="0 0 32 32" fill="none" xmlns="http://www.w3.org/2000/svg">
<g id="won-sign-solid">
<path id="Vector" d="M4 6L5.8125 12H4V14H6.40625L7 16H4V18H7.59375L10 26H12L14 18H18L20 26H22L24.4062 18H28V16H25L25.5938 14H28V12H26.1875L28 6H26L24.1875 12H18.5L17 6H15L13.5 12H7.8125L6 6H4ZM16 10L16.5 12H15.5L16 10ZM8.40625 14H13L12.5 16H9L8.40625 14ZM15 14H17L17.5 16H14.5L15 14ZM19 14H23.5938L23 16H19.5L19 14ZM9.59375 18H12L10.9062 22.375L9.59375 18ZM20 18H22.4062L21.0938 22.375L20 18Z" fill="black"/>
</g>
</svg>
