<svg width="32" height="32" viewBox="0 0 32 32" fill="none" xmlns="http://www.w3.org/2000/svg">
<g id="wordpress-simple">
<path id="Vector" d="M16 3C8.828 3 3 8.828 3 16C3 23.172 8.828 29 16 29C23.172 29 29 23.172 29 16C29 8.828 23.172 3 16 3ZM16 5.16797C18.8252 5.16797 21.3821 6.24683 23.3066 8.00586C23.2653 8.00502 23.2236 7.99414 23.1719 7.99414C22.1099 7.99414 21.418 8.92488 21.418 9.92188C21.418 10.8209 21.8708 11.5697 22.4238 12.4688C22.8348 13.1838 23.3125 14.1153 23.3125 15.4473C23.3125 16.3793 22.9653 17.451 22.4883 18.957L21.418 22.5645L17.3516 10.0371C18.0016 10.0041 18.5859 9.93945 18.5859 9.93945C19.1709 9.87445 19.1065 9.00802 18.5215 9.04102C18.5215 9.04102 16.7669 9.18164 15.6289 9.18164C14.5679 9.18164 12.7793 9.04102 12.7793 9.04102C12.1943 9.00802 12.1298 9.90745 12.7148 9.93945C12.7148 9.93945 13.2666 10.0041 13.8516 10.0371L15.6758 15.5449L13.3125 22.6523L9.21484 10.0391C9.87584 10.0061 10.4609 9.94141 10.4609 9.94141C11.0459 9.87641 10.9705 9.00997 10.3965 9.04297C10.3965 9.04297 8.7147 9.17641 7.57617 9.18164C9.55893 6.73175 12.5881 5.16797 16 5.16797ZM25.5117 10.8008C26.3533 12.3427 26.832 14.1127 26.832 16C26.832 20.2895 24.3587 23.9693 20.7598 25.7266C20.9933 25.6113 21.2253 25.496 21.4492 25.3594L24.7539 15.7949C25.3709 14.2569 25.5762 13.021 25.5762 11.916C25.5762 11.515 25.5557 11.1565 25.5137 10.8105C25.5121 10.8076 25.513 10.8038 25.5117 10.8008ZM6.20312 11.3848L11.2656 25.7402C7.65262 23.988 5.16797 20.2997 5.16797 16C5.16797 14.3448 5.5451 12.7851 6.20312 11.3848ZM16.1836 16.9434L19.5215 26.0742C19.5429 26.1268 19.5642 26.171 19.5957 26.2129C18.4699 26.6071 17.2638 26.832 16 26.832C14.9331 26.832 13.9059 26.6734 12.9336 26.3887L16.1836 16.9434ZM11.3965 25.8027C11.6779 25.9315 11.9622 26.0482 12.25 26.1582C11.9592 26.0514 11.6749 25.9331 11.3965 25.8027ZM20.416 25.8926C20.1876 25.9942 19.9534 26.0839 19.7168 26.1699C19.9543 26.0871 20.1873 25.9936 20.416 25.8926ZM12.5605 26.2715C12.6763 26.3097 12.7914 26.3479 12.9102 26.3828C12.7923 26.348 12.6766 26.3101 12.5605 26.2715Z" fill="black"/>
</g>
</svg>
