<svg width="32" height="32" viewBox="0 0 32 32" fill="none" xmlns="http://www.w3.org/2000/svg">
<g id="wordpress">
<path id="Vector" d="M16 4C9.38281 4 4 9.38281 4 16C4 22.6172 9.38281 28 16 28C22.6172 28 28 22.6172 28 16C28 9.38281 22.6172 4 16 4ZM16 4.5625C22.3125 4.5625 27.4375 9.6875 27.4375 16C27.4375 22.3125 22.3125 27.4375 16 27.4375C9.6875 27.4375 4.5625 22.3125 4.5625 16C4.5625 9.6875 9.6875 4.5625 16 4.5625ZM16 5.71875C12.4023 5.71875 9.24609 7.54688 7.40625 10.3438C7.64844 10.3516 7.86719 10.3438 8.0625 10.3438C9.14062 10.3438 10.8125 10.2188 10.8125 10.2188C11.3672 10.1875 11.4297 10.9961 10.875 11.0625C10.875 11.0625 10.3086 11.1562 9.6875 11.1875L13.4375 22.3125L15.6875 15.5625L14.0938 11.1875C13.5391 11.1562 13 11.0625 13 11.0625C12.4453 11.0312 12.5078 10.1875 13.0625 10.2188C13.0625 10.2188 14.7695 10.3438 15.7812 10.3438C16.8594 10.3438 18.5312 10.2188 18.5312 10.2188C19.0859 10.1875 19.1484 10.9961 18.5938 11.0625C18.5938 11.0625 18.0234 11.1562 17.4062 11.1875L21.125 22.25L22.1562 18.8125C22.6758 17.4766 22.9375 16.3516 22.9375 15.4688C22.9375 14.1953 22.4883 13.3398 22.0938 12.6562C21.5742 11.8086 21.0938 11.0664 21.0938 10.2188C21.0938 9.27344 21.8008 8.40625 22.8125 8.40625C22.8594 8.40625 22.8906 8.40625 22.9375 8.40625C21.1055 6.72656 18.6797 5.71875 16 5.71875ZM25.0312 11.0625C25.0781 11.3906 25.0938 11.7461 25.0938 12.125C25.0938 13.168 24.8984 14.3438 24.3125 15.8125L21.1875 24.9062C24.25 23.1211 26.2812 19.7969 26.2812 16C26.2812 14.2109 25.8359 12.5273 25.0312 11.0625ZM6.59375 11.8125C6.02344 13.0898 5.71875 14.5078 5.71875 16C5.71875 20.0742 8.06641 23.582 11.5 25.25L6.59375 11.8125ZM16.1875 16.9062L13.0938 25.875C14.0156 26.1445 14.9883 26.2812 16 26.2812C17.1992 26.2812 18.3359 26.0938 19.4062 25.7188C19.3789 25.6758 19.3633 25.6133 19.3438 25.5625L16.1875 16.9062Z" fill="black"/>
</g>
</svg>
