<svg width="32" height="32" viewBox="0 0 32 32" fill="none" xmlns="http://www.w3.org/2000/svg">
<g id="wpbeginner">
<path id="Vector" d="M16 4C9.4 4 4 8.5 4 14C4 15.7 4.50039 17.3008 5.40039 18.8008C4.50039 19.6008 4 20.8 4 22C4 24.8 6.7 27 10 27C12.5 27 14.6 25.8 15.5 24H16.5C17.4 25.8 19.5 27 22 27C25.3 27 28 24.8 28 22C28 20.8 27.4996 19.6008 26.5996 18.8008C27.4996 17.4008 28 15.8 28 14C28 8.5 22.6 4 16 4ZM16 6C21.5 6 26 9.6 26 14C26 14.3091 25.9736 14.611 25.9297 14.9102C25.9235 14.9536 25.9133 14.9959 25.9062 15.0391C25.8617 15.3042 25.8035 15.5666 25.7266 15.8262C25.7161 15.8614 25.7063 15.8966 25.6953 15.9316C25.622 16.1655 25.5297 16.398 25.4316 16.6289C25.0071 17.5793 24.3583 18.4482 23.5 19.1992C24.9761 19.6912 25.9628 20.7658 25.9941 21.9434C25.9617 23.525 24.1799 24.9004 22 24.9004C20.4 24.9004 18.9008 24.1 18.3008 23L17.6992 22H16.5H15.5H14.3008L13.6992 23.0996C13.0992 24.1996 11.6 25 10 25C7.8 25 6 23.6 6 22C6 21.8035 6.03012 21.6196 6.08008 21.4473C6.0823 21.4387 6.08557 21.4304 6.08789 21.4219C6.22827 20.959 6.50551 20.5911 6.72266 20.3047C7.1584 19.833 7.76803 19.4432 8.5 19.1992C7.94808 18.7163 7.4865 18.1832 7.10938 17.6133C7.1063 17.6086 7.10267 17.6043 7.09961 17.5996C6.75041 17.0509 6.47653 16.4774 6.28906 15.8789C6.28783 15.875 6.28638 15.8711 6.28516 15.8672C6.20051 15.5951 6.1393 15.3175 6.0918 15.0352C6.08504 14.9934 6.07625 14.9522 6.07031 14.9102C6.02644 14.6124 6 14.3091 6 14C6 9.6 10.5 6 16 6ZM10 12V15H12V12H10ZM13 12V15H21V12H13ZM11 16.1992V17.5996C13.5 19.9996 17.3 20.6008 20 19.3008V18C17.1 19.1 13.6 18.4992 11 16.1992Z" fill="black"/>
</g>
</svg>
