<svg width="32" height="32" viewBox="0 0 32 32" fill="none" xmlns="http://www.w3.org/2000/svg">
<g id="wpexplorer">
<path id="Vector" d="M16 3C8.8 3 3 8.8 3 16C3 23.2 8.8 29 16 29C23.2 29 29 23.2 29 16C29 8.8 23.2 3 16 3ZM16 5C22.1 5 27 9.9 27 16C27 22.1 22.1 27 16 27C9.9 27 5 22.1 5 16C5 9.9 9.9 5 16 5ZM11.1992 10L9.40039 14.3008L13.6992 16.0996L15.5 11.8008L11.1992 10ZM16 12.5996L14.5996 16L17.9004 17.4004L17.916 17.3652L18 17.4004L19.5 14L16 12.5996ZM20 14.6992L18.9004 17.4004L21.5996 18.5L22.8008 15.8008L20 14.6992ZM14.3008 16.5996L14 17.1992L15.0996 17.6992L12.5996 23H13.3008L15.6992 18.0996L18.1992 23H18.9004L16.5996 18.4004L17.4004 18.6992L17.6992 18L14.3008 16.5996Z" fill="black"/>
</g>
</svg>
