<svg width="32" height="32" viewBox="0 0 32 32" fill="none" xmlns="http://www.w3.org/2000/svg">
<g id="wpressr">
<path id="Vector" d="M16 3C8.8 3 3 8.8 3 16C3 23.2 8.8 29 16 29C23.2 29 29 23.2 29 16C29 8.8 23.2 3 16 3ZM16 5C22.1 5 27 9.9 27 16C27 22.1 22.1 27 16 27C9.9 27 5 22.1 5 16C5 9.9 9.9 5 16 5ZM10.5996 11C10.3996 11 10.2992 11.1008 10.1992 11.3008C9.59922 12.7008 8.90078 14.1996 8.30078 15.5996C7.90078 16.5996 7.4 17.5 7 18.5V19C7.6 19.6 8.09922 20.2008 8.69922 20.8008C8.79922 20.9008 8.89961 21 9.09961 21H16C16.1 21 16.3004 20.8992 16.4004 20.6992C16.9004 19.4992 17.4004 18.3992 17.9004 17.1992C18.0004 16.9992 18.2004 16.9004 18.4004 16.9004H21.8008C22.1008 16.9004 22.3004 16.8 22.4004 16.5C23.2004 14.8 23.9008 13.1004 24.8008 11.4004C24.9008 11.1004 24.8 11 24.5 11H18C17.8 11 17.6996 11.1008 17.5996 11.3008C17.5996 11.5008 17.2008 12.1992 16.8008 13.1992C16.8008 13.2992 16.9 13.3008 17 13.3008H20.6992C21.1992 13.3008 21.1 14 20.5 14H16.5996C16.4996 14 16.5004 14.0996 16.4004 14.0996C15.5004 15.9996 14.5 18.3008 14.5 18.3008C14.3 18.6008 13.7004 18.6 13.9004 18C14.3004 17.1 14.6996 16.0992 15.0996 15.1992C15.1996 14.9992 15.1008 14.8008 14.8008 14.8008H12.5C12.4 14.8008 12.2992 14.8 12.1992 15C10.5992 18.5 10.6992 18.3008 10.6992 18.3008C10.5992 18.6008 9.99922 18.4 10.1992 18C10.3992 17.4 10.7 16.6996 11 16.0996C11.7 14.4996 12.3 13 13 11.5C13.2 11.2 12.9992 11 12.6992 11H10.5996Z" fill="black"/>
</g>
</svg>
