<svg width="32" height="32" viewBox="0 0 32 32" fill="none" xmlns="http://www.w3.org/2000/svg">
<g id="wrench-solid">
<path id="Vector" d="M21 4C17.1445 4 14 7.14453 14 11C14 11.7148 14.2148 12.3633 14.4141 13.0156L4.94531 22.4844C3.6875 23.7383 3.6875 25.8008 4.94531 27.0586C6.19922 28.3125 8.26172 28.3125 9.51562 27.0586L18.9844 17.5898C19.6328 17.7891 20.2852 18 21 18C24.8555 18 28 14.8555 28 11C28 9.97266 27.7734 9 27.375 8.125L26.7812 6.80469L25.7617 7.82812L22.5859 11H21V9.41406L25.1953 5.21875L23.875 4.625C23 4.22656 22.0273 4 21 4ZM21 6C21.1719 6 21.3164 6.08594 21.4844 6.10156L19 8.58594V13H23.4141L25.8945 10.5156C25.9141 10.6836 26 10.8281 26 11C26 13.7734 23.7734 16 21 16C20.3008 16 19.6367 15.8555 19.0312 15.5977L18.4102 15.332L8.10156 25.6406C7.62109 26.125 6.83984 26.125 6.35938 25.6406C5.875 25.1602 5.875 24.3789 6.35938 23.8945L16.668 13.5898L16.4023 12.9648C16.1445 12.3594 16 11.6992 16 11C16 8.22656 18.2266 6 21 6Z" fill="black"/>
</g>
</svg>
