<svg width="32" height="32" viewBox="0 0 32 32" fill="none" xmlns="http://www.w3.org/2000/svg">
<g id="x-ray-solid">
<path id="Vector" d="M5 5V27H27V5H5ZM7 7H25V25H7V7ZM15 8V9H12V11H15V12H10V14H15V15H11V17H15V19.5625C14.4766 19.293 13.8867 19 13.5 19C12.6719 19 12 19.6719 12 20.5C12 21.3281 12.6719 22 13.5 22C13.8789 22 15.1719 23 16 23C16.8281 23 18.1211 22 18.5 22C19.3281 22 20 21.3281 20 20.5C20 19.6719 19.3281 19 18.5 19C18.1133 19 17.5234 19.293 17 19.5625V8H15ZM18 9V11H20V9H18ZM18 12V14H22V12H18ZM18 15V17H21V15H18Z" fill="black"/>
</g>
</svg>
