<svg width="32" height="32" viewBox="0 0 32 32" fill="none" xmlns="http://www.w3.org/2000/svg">
<g id="xbox">
<path id="Vector" d="M16 4C9.38281 4 4 9.38281 4 16C4 22.6172 9.38281 28 16 28C22.6172 28 28 22.6172 28 16C28 9.38281 22.6172 4 16 4ZM16 6C16.0938 6 16.1875 6.02734 16.2812 6.03125C16.5352 6.03906 16.7812 6.03906 17.0312 6.0625C17.0625 6.06641 17.0938 6.05859 17.125 6.0625C17.2188 6.07422 17.3125 6.08203 17.4062 6.09375C17.4688 6.10156 17.5312 6.11328 17.5938 6.125C17.9805 6.1875 18.3477 6.26953 18.7188 6.375C19.1094 6.48438 19.5078 6.625 19.875 6.78125C19.8828 6.78516 19.8984 6.77734 19.9062 6.78125C20.0703 6.85156 20.2188 6.95312 20.375 7.03125C20.582 7.13281 20.8008 7.22656 21 7.34375C21.0547 7.375 21.1055 7.40625 21.1562 7.4375C21.2227 7.46094 21.3047 7.51172 21.4062 7.59375C21.4102 7.59766 21.4023 7.62109 21.4062 7.625C19.7578 6.67578 16.0312 9.6875 16.0312 9.6875C14.5547 8.55859 13.2148 7.79297 12.2188 7.53125C11.5703 7.36719 11.0781 7.40234 10.75 7.53125C10.9102 7.42969 11.0508 7.30859 11.2188 7.21875C11.2305 7.21094 11.2383 7.19531 11.25 7.1875C11.5039 7.04297 11.7656 6.92969 12.0312 6.8125C12.0508 6.80469 12.0742 6.78906 12.0938 6.78125C12.2812 6.69922 12.4648 6.62891 12.6562 6.5625C12.8281 6.5 13.0117 6.45703 13.1875 6.40625C13.4453 6.33203 13.7031 6.24219 13.9688 6.1875C14.0508 6.17188 14.1367 6.17188 14.2188 6.15625C14.4336 6.11719 14.6523 6.08594 14.875 6.0625C14.9062 6.05859 14.9375 6.06641 14.9688 6.0625C15.3047 6.02734 15.6523 6 16 6ZM22 8.59375C22.293 8.59375 22.6367 8.65625 22.9375 8.84375C22.9766 8.87891 23.0273 8.90234 23.0625 8.9375C23.1172 8.98438 23.168 9.03516 23.2188 9.09375C23.3594 9.23828 23.4961 9.37891 23.625 9.53125C23.6523 9.56641 23.6914 9.58984 23.7188 9.625C23.7969 9.71875 23.8633 9.80859 23.9375 9.90625C24.0586 10.0664 24.168 10.2383 24.2812 10.4062C24.4609 10.6719 24.6289 10.9336 24.7812 11.2188C24.9258 11.4805 25.0703 11.7539 25.1875 12.0312C25.1953 12.0508 25.2109 12.0742 25.2188 12.0938C25.25 12.168 25.2812 12.2383 25.3125 12.3125C25.4023 12.543 25.4883 12.793 25.5625 13.0312C25.6602 13.3438 25.7461 13.6445 25.8125 13.9688C25.8203 14.0117 25.8359 14.0508 25.8438 14.0938C25.9609 14.707 26 15.3516 26 16C26 18.4219 25.1445 20.6484 23.7188 22.375C23.6367 22.4727 23.5547 22.5625 23.4688 22.6562C23.9453 20.1406 23.0703 18.2852 21.6562 15.9688C20.1797 13.6211 17.8438 11.3125 17.8438 11.3125C19.9258 9.35547 21.6523 8.72266 22 8.59375ZM9.875 8.65625C10.5273 8.69922 11.2031 8.95312 11.8125 9.34375L11.875 9.375C13.1758 10.1562 14.2188 11.3125 14.2188 11.3125C13.0898 12.3984 10.3789 15.6875 9.46875 17.9062C8.125 21.2969 8.75 22.7812 8.75 22.7812C8.92188 20.9102 11.6914 17.6055 12.6875 16.5625C13.207 15.9531 14.2188 14.9688 15 14.1875C15.5625 13.5781 16.0312 13.0938 16.0312 13.0938C16.3359 13.3984 16.6445 13.707 16.9062 13.9688C18.1641 15.2305 19.1016 16.2305 19.75 16.9688C20.4023 17.707 21.5391 19.0977 21.8438 19.5312C23.1484 21.3867 23.3945 22.6445 23.4062 22.7188C23.2969 22.8398 23.1797 22.9453 23.0625 23.0625C22.8359 23.2891 22.6211 23.5156 22.375 23.7188C22.1289 23.9219 21.8594 24.1016 21.5938 24.2812C21.3281 24.4609 21.0664 24.6289 20.7812 24.7812C20.5625 24.8984 20.3516 25.0234 20.125 25.125C20.082 25.1445 20.043 25.168 20 25.1875C19.7266 25.3047 19.4414 25.4062 19.1562 25.5C19.1328 25.5078 19.1172 25.5234 19.0938 25.5312C18.8359 25.6133 18.5781 25.6875 18.3125 25.75C18.2188 25.7734 18.1289 25.793 18.0312 25.8125C17.8398 25.8516 17.6328 25.8477 17.4375 25.875C16.9805 25.9414 16.5078 26 16.0312 26C15.6758 26 15.3125 25.9727 14.9688 25.9375C14.3086 25.8672 13.6758 25.7539 13.0625 25.5625C13.0547 25.5586 13.0391 25.5664 13.0312 25.5625C12.1055 25.2695 11.2266 24.8164 10.4375 24.2812C10.4297 24.2773 10.4141 24.2852 10.4062 24.2812C9.88281 23.9258 9.41406 23.5078 8.96875 23.0625C7.16406 21.2539 6.0625 18.7617 6.0625 16C6.0625 13.3477 7.10156 10.9688 8.75 9.1875C8.75 9.1875 9.17969 8.65625 9.875 8.65625Z" fill="black"/>
</g>
</svg>
