<svg width="32" height="32" viewBox="0 0 32 32" fill="none" xmlns="http://www.w3.org/2000/svg">
<g id="xing-square">
<path id="Vector" d="M5 5V27H27V5H5ZM7 7H25V25H7V7ZM19.6387 9C19.4187 9 19.2379 9.13086 19.0879 9.38086C16.1799 14.5169 14.6703 17.1735 14.5703 17.3535L17.459 22.6191C17.6 22.8691 17.7795 23 18.0195 23H20.0586C20.3286 23 20.4484 22.7805 20.3184 22.5605L17.4609 17.3535V17.3438L21.957 9.43945C22.077 9.20945 21.9373 9 21.6973 9H19.6387ZM11.0742 12C10.8262 12 10.6874 12.1975 10.8164 12.4355L12.1855 14.7852L10.043 18.5547C9.92397 18.7727 10.0628 19 10.3008 19H12.3242C12.5322 19 12.7191 18.8715 12.8691 18.6035C14.2671 16.1545 14.9918 14.8744 15.0508 14.7754L13.6621 12.377C13.5131 12.129 13.3257 12 13.0977 12H11.0742Z" fill="black"/>
</g>
</svg>
