<svg width="32" height="32" viewBox="0 0 32 32" fill="none" xmlns="http://www.w3.org/2000/svg">
<g id="xing">
<path id="Vector" d="M21.4062 5C20.9805 5 20.5273 5.16797 20.25 5.40625C19.9727 5.64453 19.8438 5.89453 19.75 6.0625C19.75 6.0625 17.3398 10.3438 15.4375 13.7188C15.4141 13.6094 15.3711 13.5039 15.3125 13.4062C15.3008 13.3867 13.3438 10 13.3438 10C13.2461 9.82422 13.0938 9.57031 12.8125 9.34375C12.5312 9.11719 12.125 8.9375 11.6875 8.9375H8.78125C8.37109 8.9375 7.86719 9.10938 7.5625 9.59375C7.55078 9.59375 7.54297 9.59375 7.53125 9.59375C7.23828 10.0781 7.33984 10.6602 7.53125 11.0312C7.54297 11.043 7.55078 11.0508 7.5625 11.0625L9.21875 13.9688L6.4375 18.875C6.42578 18.8867 6.41797 18.8945 6.40625 18.9062C6.19141 19.3242 6.16016 19.8984 6.4375 20.3438C6.68359 20.7383 7.20703 21 7.6875 21H10.5625C11.0039 21 11.4453 20.8281 11.7188 20.5938C11.9922 20.3594 12.125 20.1094 12.2188 19.9375C12.2188 19.9375 12.793 18.9102 13.2188 18.1562C13.2422 18.2344 13.2734 18.3047 13.3125 18.375C13.3242 18.3945 17.4375 25.9375 17.4375 25.9375C17.5391 26.1172 17.6914 26.3633 17.9688 26.5938C18.2461 26.8242 18.6836 27 19.125 27H22C22.4258 27 22.9453 26.7812 23.2188 26.3438C23.5117 25.8789 23.4805 25.3008 23.2812 24.9062C23.2695 24.8945 23.2617 24.8867 23.25 24.875L19.4375 17.9375L25.5625 7.125C25.5742 7.10547 25.5859 7.08203 25.5938 7.0625C25.793 6.66406 25.8555 6.125 25.5625 5.65625C25.2812 5.19922 24.7344 5 24.3125 5H21.4062ZM21.5312 7H23.3125L17.4375 17.4375C17.3242 17.6406 17.3398 18.1211 17.4688 18.4062H17.4375L17.4688 18.4688V18.5L21.0312 25H19.2188C19.207 24.9844 19.2031 25 19.1875 24.9688C19.1875 24.9688 15.8281 18.7734 15.375 17.9375C16.0586 16.7266 21.5 7.03125 21.5 7.03125C21.5234 6.98828 21.5195 7.01953 21.5312 7ZM9.78125 10.9375H11.5625C11.5703 10.9453 11.5664 10.9219 11.5938 10.9688C11.6055 10.9805 11.6133 10.9883 11.625 11C11.625 11 12.8672 13.1602 13.3125 13.9375C12.8008 14.8398 10.4688 18.9688 10.4688 18.9688C10.4492 19.0039 10.4492 18.9805 10.4375 19H8.65625L11.25 14.4688C11.2617 14.4297 11.2734 14.3867 11.2812 14.3438C11.3047 14.293 11.375 14.1719 11.375 13.9688C11.375 13.7656 11.3047 13.6133 11.2812 13.5625C11.2617 13.5195 11.2422 13.4766 11.2188 13.4375L9.78125 10.9375Z" fill="black"/>
</g>
</svg>
