<svg width="32" height="32" viewBox="0 0 32 32" fill="none" xmlns="http://www.w3.org/2000/svg">
<g id="yammer">
<path id="Vector" d="M6.36132 6.04096C6.20664 6.03159 6.05039 6.04956 5.90039 6.09956C5.20039 6.29956 4.9 6.99956 5 7.59956L10.1992 20.5996C9.49921 22.6996 8.79921 23.6992 7.19921 23.6992H6.5C6 23.6992 5.50039 24.0003 5.40039 24.4003C5.30039 25.0003 5.59921 25.6007 6.19921 25.8007C6.59921 25.9007 7.00039 25.9003 7.40039 25.9003C10.4004 25.9003 11.3008 24.3007 12.3008 21.8007L18 7.59956C18.1 6.99956 17.8008 6.39916 17.3008 6.19916C16.7008 5.99916 15.8992 6.30034 15.6992 6.90034L11.6992 17.4999H11.5996L7.5 6.80073C7.275 6.35073 6.82539 6.06909 6.36132 6.04096ZM24.8144 8.0644C24.7066 8.06284 24.6 8.07456 24.5 8.09956C24.5 8.19956 24.4004 8.19916 24.4004 8.19916C23.7004 8.59916 18.4996 12.1996 19.0996 12.5996C19.6996 12.9996 23.1996 11.3996 25.5996 10.0996C26.0996 9.69956 26.1992 8.89995 25.6992 8.49995C25.4742 8.19995 25.1379 8.06909 24.8144 8.0644ZM27.9004 14.9003C27.0004 14.9003 20.7 15.5992 21 16.1992C21.3 16.7992 25.2 17.0996 28 17.0996C28.7 16.9996 29.1 16.4007 29 15.8007C28.9 15.3007 28.4996 15.0003 28.0996 14.9003H27.9004ZM19.5527 19.4394C19.3949 19.4314 19.2742 19.4499 19.1992 19.4999C18.5992 19.8999 23.7 23.5003 24.5 23.9003C24.5 24.0003 24.5996 23.9999 24.5996 23.9999C25.1996 24.1999 25.8 23.7992 26 23.1992C26.1 22.6992 25.8992 22.1999 25.6992 21.9999C23.5992 20.8624 20.6574 19.4955 19.5527 19.4394Z" fill="black"/>
</g>
</svg>
