<svg width="32" height="32" viewBox="0 0 32 32" fill="none" xmlns="http://www.w3.org/2000/svg">
<g id="yandex">
<path id="Vector" d="M19.663 4H16.17C12.738 4 9.99999 6.72 9.99999 12C9.99999 15.168 11.237 17.504 13.749 18.656L9.06099 27.488C8.90799 27.777 9.06099 28 9.30599 28H11.481C11.665 28 11.788 27.936 11.849 27.777L16.25 19H17.5L17.492 27.777C17.492 27.873 17.584 28 17.706 28H19.755C19.939 28 20 27.904 20 27.745V4.32C20 4.096 19.877 4 19.663 4ZM17.5 17H16C14.5 17 12.5 15.84 12.5 12C12.5 7.999 14.131 6 16 6H17.5V17Z" fill="black"/>
</g>
</svg>
