<svg width="32" height="32" viewBox="0 0 32 32" fill="none" xmlns="http://www.w3.org/2000/svg">
<g id="yarn">
<path id="Vector" d="M16 3C8.8 3 3 8.8 3 16C3 23.2 8.8 29 16 29C23.2 29 29 23.2 29 16C29 8.8 23.2 3 16 3ZM16 5C22.1 5 27 9.9 27 16C27 22.1 22.1 27 16 27C9.9 27 5 22.1 5 16C5 9.9 9.9 5 16 5ZM16.209 9.04492C15.7592 9.12148 15.3008 10.5 15.3008 10.5C15.3008 10.5 14.0996 10.3008 13.0996 11.3008C12.8996 11.5008 12.7004 11.5992 12.4004 11.6992C12.3004 11.7992 12.2 11.8004 12 12.4004C11.6 13.3004 12.5996 14.4004 12.5996 14.4004C10.4996 15.9004 10.5992 17.9004 10.6992 18.4004C9.39922 19.5004 9.89922 20.9008 10.1992 21.3008C10.3992 21.6008 10.5992 21.5 10.6992 21.5C10.6992 21.6 10.1992 22.2004 10.6992 22.4004C11.1992 22.7004 12.0004 22.8004 12.4004 22.4004C12.7004 22.1004 12.8004 21.4992 12.9004 21.1992C13.0004 21.0992 13.0004 21.3996 13.4004 21.5996C13.4004 21.5996 12.7 21.8996 13 22.5996C13.1 22.7996 13.4 23 14 23C14.2 23 16.5992 22.8992 17.1992 22.6992C17.5992 22.5992 17.6992 22.4004 17.6992 22.4004C20.2992 21.7004 20.7996 20.5992 22.5996 20.1992C23.1996 20.0992 23.1996 19.0992 22.0996 19.1992C21.2996 19.1992 20.6 19.6 20 20C19 20.6 18.3008 20.6996 18.3008 20.5996C18.2008 20.4996 18.6992 19.3 18.1992 18C17.6992 16.6 16.8004 16.1996 16.9004 16.0996C17.2004 15.5996 17.8992 14.8004 18.1992 13.4004C18.2992 12.5004 18.3004 11.0008 17.9004 10.3008C17.8004 10.1008 17.1992 10.5 17.1992 10.5C17.1992 10.5 16.6004 9.19961 16.4004 9.09961C16.3379 9.04961 16.2732 9.03398 16.209 9.04492Z" fill="black"/>
</g>
</svg>
