<svg width="32" height="32" viewBox="0 0 32 32" fill="none" xmlns="http://www.w3.org/2000/svg">
<g id="yelp">
<path id="Vector" d="M14.3437 3.99989C12.8711 4.05067 9.74219 4.98817 9.09375 5.65614C8.85547 5.90223 8.74219 6.23036 8.8125 6.49989C8.92969 6.73817 13.875 14.4999 13.875 14.4999C14.6094 15.6874 15.2109 15.4999 15.4062 15.4374C15.6016 15.3788 16.1914 15.1991 16.125 13.8124C16.0547 12.1913 15.5898 4.99208 15.5312 4.65614C15.4492 4.35145 15.1875 4.11708 14.8437 4.03114C14.7148 3.99989 14.5547 3.99208 14.3437 3.99989ZM21.8125 11.0936C21.6641 11.0975 21.5352 11.1327 21.4062 11.2186C21.25 11.3202 21.1289 11.4725 18.9375 14.4686C18.9375 14.4686 17.9492 15.8319 17.9375 15.8436C17.6758 16.16 17.6836 16.6093 17.9375 16.9999C18.2031 17.4022 18.625 17.6132 19.0312 17.4999C19.0312 17.4999 19.0352 17.5233 19.0312 17.5311C19.2344 17.4569 19.5937 17.3436 20.25 17.1874C24.3437 16.1952 24.4961 16.1679 24.6562 16.0624C24.9023 15.8944 25.0195 15.5897 25 15.2499C25 15.2382 25.0039 15.2304 25 15.2186C24.8945 14.2147 23.1484 11.6093 22.2812 11.1874C22.1289 11.1132 21.9609 11.0897 21.8125 11.0936ZM8.0625 15.1249C7.76562 15.1132 7.49609 15.2733 7.3125 15.5624C6.92187 16.1874 6.76953 18.1327 6.90625 19.4374C6.95703 19.871 7.01172 20.2538 7.125 20.4686C7.28125 20.7655 7.54687 20.9257 7.84375 20.9374C8.03515 20.9452 8.17969 20.9061 11.7812 19.7499C11.7812 19.7499 13.3672 19.2538 13.375 19.2499C13.7734 19.1483 14.0352 18.7811 14.0625 18.3124C14.0898 17.8319 13.8437 17.4022 13.4375 17.2499C13.4375 17.2499 12.3164 16.7811 12.3125 16.7811C8.4414 15.1835 8.25781 15.1288 8.0625 15.1249ZM19.0937 19.5311C18.7969 19.5233 18.4687 19.664 18.25 19.9374C17.9453 20.3085 17.9141 20.8163 18.1562 21.1874L18.7812 22.2186C20.918 25.6913 21.0937 25.91 21.25 26.0311C21.4883 26.2186 21.7812 26.2499 22.0937 26.1249C23.0039 25.7616 24.9844 23.2538 25.125 22.2811C25.1719 21.9413 25.0781 21.6561 24.8437 21.4686C24.6914 21.3554 24.5664 21.3085 20.9687 20.1249C20.9687 20.1249 19.3945 19.6054 19.375 19.5936C19.2812 19.5585 19.1914 19.535 19.0937 19.5311ZM14.7187 20.6561C14.5078 20.703 14.3242 20.8319 14.1875 20.9999C14.1875 20.9999 13.4102 21.9374 13.4062 21.9374C10.6914 25.121 10.5977 25.2499 10.5312 25.4374C10.4922 25.5468 10.457 25.6952 10.4687 25.8124C10.4844 25.9843 10.5586 26.1288 10.6875 26.2811C11.3164 27.0272 14.3516 28.1327 15.3125 27.9686C15.6484 27.9061 15.8633 27.7499 15.9687 27.4686C16.0312 27.285 16.0508 27.16 16.0625 23.3749C16.0625 23.3749 16.0625 21.7069 16.0625 21.6874C16.0898 21.2772 15.8398 20.8866 15.4062 20.7186C15.1836 20.6327 14.9297 20.6093 14.7187 20.6561Z" fill="black"/>
</g>
</svg>
