<svg width="32" height="32" viewBox="0 0 32 32" fill="none" xmlns="http://www.w3.org/2000/svg">
<g id="yin-yang-solid">
<path id="Vector" d="M16 4C9.38281 4 4 9.38281 4 16C4 22.6172 9.38281 28 16 28C16.0859 28 16.1641 28 16.25 28C16.3359 28.0039 16.4141 28 16.5 28V27.9688C22.8828 27.7031 28 22.4453 28 16C28 10.125 23.7422 5.24219 18.1562 4.21875C17.6289 4.07812 17.0703 4 16.5 4V4.03125C16.332 4.02344 16.168 4 16 4ZM16 6C16.3477 6 16.6953 6.02734 17.0312 6.0625C17.1562 6.07812 17.2852 6.07031 17.4062 6.09375C17.4375 6.09766 17.4688 6.12109 17.5 6.125C19.5078 6.57812 21 8.34766 21 10.5C21 12.9961 18.9961 15 16.5 15C12.9219 15 10 17.9219 10 21.5C10 22.5703 10.2578 23.5781 10.7188 24.4688C7.88672 22.707 6 19.5898 6 16C6 10.4648 10.4648 6 16 6ZM22.7188 8.625C24.7266 10.4531 26 13.0625 26 16C26 21.4297 21.6992 25.8047 16.3125 25.9688C13.9062 25.8672 12 23.9336 12 21.5C12 19.0039 14.0039 17 16.5 17C20.0781 17 23 14.0781 23 10.5C23 9.85156 22.8984 9.21875 22.7188 8.625ZM16.5 9C15.6719 9 15 9.67188 15 10.5C15 11.3281 15.6719 12 16.5 12C17.3281 12 18 11.3281 18 10.5C18 9.67188 17.3281 9 16.5 9ZM16.5 20C15.6719 20 15 20.6719 15 21.5C15 22.3281 15.6719 23 16.5 23C17.3281 23 18 22.3281 18 21.5C18 20.6719 17.3281 20 16.5 20Z" fill="black"/>
</g>
</svg>
