<svg width="32" height="32" viewBox="0 0 32 32" fill="none" xmlns="http://www.w3.org/2000/svg">
<g id="yoast">
<path id="Vector" d="M20.8008 4L15.8008 17.5L13 10H10L14 19.5C14 19.5 14.2008 20.0996 14.3008 20.5996V21.3008C14.3008 21.5008 14.1996 21.8 14.0996 22C13.4996 23.2 12.3996 23.9004 11.0996 23.9004V26.9004C13.7996 26.9004 16.1996 25.1992 17.0996 22.6992L24 4H20.8008ZM9 7C6.8 7 5 8.8 5 11V21C5 23.2 6.8 25 9 25H9.90039V24H9C7.3 24 6 22.6 6 21V11C6 9.3 7.3 8 9 8H18.0996L18.5 7H9ZM24 7.09961L23.6992 8.09961C24.9992 8.39961 26 9.6 26 11V24H17.6992C17.4992 24.3 17.2996 24.7 17.0996 25H27V11C27 9.1 25.7 7.59961 24 7.09961Z" fill="black"/>
</g>
</svg>
