<svg width="32" height="32" viewBox="0 0 32 32" fill="none" xmlns="http://www.w3.org/2000/svg">
<g id="youtube-square">
<path id="Vector" d="M5 5V27H27V5H5ZM7 7H25V25H7V7ZM16 11.0801C16 11.0801 11.6093 11.0791 10.5293 11.3691C9.9293 11.5391 9.44906 12.0091 9.28906 12.6191C8.99906 13.7091 9 16.0098 9 16.0098C9 16.0098 8.99906 18.3102 9.28906 19.4102C9.44906 20.0102 9.9293 20.4709 10.5293 20.6309C11.6093 20.9209 16 20.9199 16 20.9199C16 20.9199 20.3907 20.9209 21.4707 20.6309C22.0707 20.4609 22.5509 20.0104 22.7109 19.4004C23.0009 18.3104 23 16.0098 23 16.0098C23 16.0098 23.0009 13.7191 22.7109 12.6191C22.5509 12.0091 22.0707 11.5391 21.4707 11.3691C20.3907 11.0791 16 11.0801 16 11.0801ZM14 13.1562L19 16.0117L14 18.8535V13.1562Z" fill="black"/>
</g>
</svg>
