<svg width="32" height="32" viewBox="0 0 32 32" fill="none" xmlns="http://www.w3.org/2000/svg">
<g id="youtube">
<path id="Vector" d="M16 6C12.2344 6 8.90625 6.39062 6.875 6.6875C5.19531 6.93359 3.83984 8.19922 3.53125 9.875C3.26953 11.3008 3 13.3867 3 16C3 18.6133 3.26953 20.6992 3.53125 22.125C3.83984 23.8008 5.19531 25.0703 6.875 25.3125C8.91406 25.6094 12.2539 26 16 26C19.7461 26 23.0859 25.6094 25.125 25.3125C26.8047 25.0703 28.1602 23.8008 28.4688 22.125C28.7305 20.6953 29 18.6055 29 16C29 13.3945 28.7344 11.3047 28.4688 9.875C28.1602 8.19922 26.8047 6.93359 25.125 6.6875C23.0938 6.39062 19.7656 6 16 6ZM16 8C19.6328 8 22.8789 8.37109 24.8438 8.65625C25.6875 8.78125 26.3477 9.41797 26.5 10.25C26.7422 11.5703 27 13.5273 27 16C27 18.4688 26.7422 20.4297 26.5 21.75C26.3477 22.582 25.6914 23.2227 24.8438 23.3438C22.8711 23.6289 19.6094 24 16 24C12.3906 24 9.125 23.6289 7.15625 23.3438C6.3125 23.2227 5.65234 22.582 5.5 21.75C5.25781 20.4297 5 18.4766 5 16C5 13.5195 5.25781 11.5703 5.5 10.25C5.65234 9.41797 6.30859 8.78125 7.15625 8.65625C9.11719 8.37109 12.3672 8 16 8ZM13 10.2812V21.7188L14.5 20.875L21.5 16.875L23 16L21.5 15.125L14.5 11.125L13 10.2812ZM15 13.7188L18.9688 16L15 18.2812V13.7188Z" fill="black"/>
</g>
</svg>
