<svg width="32" height="32" viewBox="0 0 32 32" fill="none" xmlns="http://www.w3.org/2000/svg">
<g id="zhihu">
<path id="Vector" d="M30.6289 8.98817C30.2633 9.03036 29.6992 9.19911 29.6992 9.19911C29.6992 9.19911 21.4996 10.0991 18.0996 10.1991C18.1996 10.6991 18.5004 11.0991 18.9004 11.1991C19.6004 11.2991 20.1004 11.1991 21.4004 11.1991C22.6004 11.0991 23.5992 11.0995 24.1992 11.0995V15.9999H18C18 15.9999 18.0992 17.1991 19.1992 17.1991H24.1992V20.5995C24.1992 21.2995 23.7 21.6991 23 21.6991C22.3 21.6991 21.8 21.5995 21 21.5995C21.1 21.7995 21.2004 22.2991 21.9004 22.6991C22.4004 22.8991 22.6992 22.9999 23.1992 22.9999C24.6992 22.9999 25.5 22.0991 25.5 20.6991V17.1991H31.5996C31.9996 17.1991 32.0004 15.9995 31.9004 16.0995H25.4004V11.1991C25.6004 11.1991 26 11.0995 26.5 11.0995C28.6 10.9995 30.0004 10.6991 30.9004 10.6991C30.9004 10.6991 31.5004 9.29989 30.9004 8.99989C30.8504 8.97489 30.7508 8.97411 30.6289 8.98817ZM3.30078 8.99989C3.30078 8.99989 2.09922 8.9995 1.69922 10.0995C1.59922 10.4995 0.9 12.1003 0 13.9003C0.3 13.9003 1.20078 13.8007 1.80078 12.8007C1.90078 12.5007 2.20078 12.3003 2.30078 11.9003H3.80078C3.80078 12.4003 3.69922 15.5007 3.69922 15.8007H1.09961C0.499609 15.8007 0.300781 16.9999 0.300781 16.9999H3.5C3.3 19.3999 2.1 21.1007 0 22.8007C1 23.1007 1.99961 22.8003 2.59961 22.4003C2.59961 22.4003 3.80039 21.4995 4.40039 19.0995L6.90039 21.9999C6.90039 21.9999 7.30078 20.5999 6.80078 19.9999C6.40078 19.4999 5.59961 18.5991 5.09961 18.1991L4.40039 18.8007C4.60039 18.1007 4.80078 17.6999 4.80078 16.9999H8C8 16.9999 7.99961 15.8007 7.59961 15.8007H4.90039C5.00039 14.5007 5 13.0003 5 11.9003H7.40039C7.40039 11.9003 7.5 10.8007 7 10.8007H2.59961C2.79961 10.1007 3.00078 9.69989 3.30078 8.99989ZM9 10.9999V21.9999H10.1992L10.5996 23.3007L12.6992 21.9999H15V10.9999H9ZM29.2871 12.1776C29.1184 12.187 28.9508 12.2503 28.8008 12.4003L27 14.8007L28 15.4999C29.1 14.1999 30.3008 12.5995 30.3008 12.5995C30.3008 12.5995 29.7934 12.1495 29.2871 12.1776ZM10.1992 12.1991H13.6992V20.8007H12.5L11.0996 21.6991L10.8008 20.8007H10.1992V12.1991ZM20.1289 12.3475C19.707 12.3194 19.1992 12.5995 19.1992 12.5995C19.1992 12.5995 21.2008 15.3999 21.3008 15.4999L22.3008 14.8007C22.3008 14.8007 21 12.9999 20.5 12.4999C20.4 12.3999 20.2695 12.3569 20.1289 12.3475Z" fill="black"/>
</g>
</svg>
